<?xml version="1.0" encoding="UTF-8"?>
<!--Generator: Apple Native CoreSVG 175.5-->
<!DOCTYPE svg
PUBLIC "-//W3C//DTD SVG 1.1//EN"
       "http://www.w3.org/Graphics/SVG/1.1/DTD/svg11.dtd">
<svg version="1.1" xmlns="http://www.w3.org/2000/svg" xmlns:xlink="http://www.w3.org/1999/xlink" width="3300" height="2200">
 <!--glyph: "uni1014F5.medium", point size: 100.0, font version: "18.0d11e1", template writer version: "90"-->
 <style>.monochrome-0 {fill:#000000}
.monochrome-1 {fill:#000000;-sfsymbols-clear-behind:true}

.multicolor-0:tintColor {fill:#007AFF}
.multicolor-1:tintColor {fill:#007AFF;-sfsymbols-clear-behind:true}

.hierarchical-0:secondary {fill:#4D4D4D}
.hierarchical-1:primary {fill:#212121;-sfsymbols-clear-behind:true}

.SFSymbolsPreview007AFF {fill:#007AFF;opacity:1.0}
</style>
 <g id="Notes">
  <rect height="2200" id="artboard" style="fill:white;opacity:1" width="3300" x="0" y="0"/>
  <line style="fill:none;stroke:black;opacity:1;stroke-width:0.5;" x1="263" x2="3036" y1="292" y2="292"/>
  <text style="stroke:none;fill:black;font-family:sans-serif;font-size:13;font-weight:bold;" transform="matrix(1 0 0 1 263 322)">Weight/Scale Variations</text>
  <text style="stroke:none;fill:black;font-family:sans-serif;font-size:13;text-anchor:middle;" transform="matrix(1 0 0 1 559.711 322)">Ultralight</text>
  <text style="stroke:none;fill:black;font-family:sans-serif;font-size:13;text-anchor:middle;" transform="matrix(1 0 0 1 856.422 322)">Thin</text>
  <text style="stroke:none;fill:black;font-family:sans-serif;font-size:13;text-anchor:middle;" transform="matrix(1 0 0 1 1153.13 322)">Light</text>
  <text style="stroke:none;fill:black;font-family:sans-serif;font-size:13;text-anchor:middle;" transform="matrix(1 0 0 1 1449.84 322)">Regular</text>
  <text style="stroke:none;fill:black;font-family:sans-serif;font-size:13;text-anchor:middle;" transform="matrix(1 0 0 1 1746.56 322)">Medium</text>
  <text style="stroke:none;fill:black;font-family:sans-serif;font-size:13;text-anchor:middle;" transform="matrix(1 0 0 1 2043.27 322)">Semibold</text>
  <text style="stroke:none;fill:black;font-family:sans-serif;font-size:13;text-anchor:middle;" transform="matrix(1 0 0 1 2339.98 322)">Bold</text>
  <text style="stroke:none;fill:black;font-family:sans-serif;font-size:13;text-anchor:middle;" transform="matrix(1 0 0 1 2636.69 322)">Heavy</text>
  <text style="stroke:none;fill:black;font-family:sans-serif;font-size:13;text-anchor:middle;" transform="matrix(1 0 0 1 2933.4 322)">Black</text>
  <line style="fill:none;stroke:black;opacity:1;stroke-width:0.5;" x1="263" x2="3036" y1="1903" y2="1903"/>
  <g transform="matrix(1 0 0 1 263 1933)">
   <path d="M9.24805 0.830078C13.5547 0.830078 17.1387-2.74414 17.1387-7.05078C17.1387-11.3574 13.5449-14.9316 9.23828-14.9316C4.94141-14.9316 1.36719-11.3574 1.36719-7.05078C1.36719-2.74414 4.95117 0.830078 9.24805 0.830078ZM9.24805-0.654297C5.70312-0.654297 2.87109-3.49609 2.87109-7.05078C2.87109-10.6055 5.69336-13.4473 9.23828-13.4473C12.793-13.4473 15.6445-10.6055 15.6445-7.05078C15.6445-3.49609 12.8027-0.654297 9.24805-0.654297ZM5.6543-7.05078C5.6543-6.62109 5.95703-6.32812 6.40625-6.32812L8.50586-6.32812L8.50586-4.20898C8.50586-3.76953 8.79883-3.4668 9.22852-3.4668C9.67773-3.4668 9.9707-3.76953 9.9707-4.20898L9.9707-6.32812L12.0898-6.32812C12.5293-6.32812 12.832-6.62109 12.832-7.05078C12.832-7.49023 12.5293-7.79297 12.0898-7.79297L9.9707-7.79297L9.9707-9.90234C9.9707-10.3516 9.67773-10.6543 9.22852-10.6543C8.79883-10.6543 8.50586-10.3516 8.50586-9.90234L8.50586-7.79297L6.40625-7.79297C5.95703-7.79297 5.6543-7.49023 5.6543-7.05078Z"/>
  </g>
  <g transform="matrix(1 0 0 1 281.867 1933)">
   <path d="M11.709 2.91016C17.1582 2.91016 21.6699-1.61133 21.6699-7.05078C21.6699-12.5 17.1484-17.0117 11.6992-17.0117C6.25977-17.0117 1.74805-12.5 1.74805-7.05078C1.74805-1.61133 6.26953 2.91016 11.709 2.91016ZM11.709 1.25C7.09961 1.25 3.41797-2.44141 3.41797-7.05078C3.41797-11.6602 7.08984-15.3516 11.6992-15.3516C16.3086-15.3516 20.0098-11.6602 20.0098-7.05078C20.0098-2.44141 16.3184 1.25 11.709 1.25ZM7.17773-7.05078C7.17773-6.57227 7.50977-6.25 8.00781-6.25L10.8789-6.25L10.8789-3.36914C10.8789-2.88086 11.2109-2.53906 11.6895-2.53906C12.1777-2.53906 12.5195-2.87109 12.5195-3.36914L12.5195-6.25L15.4004-6.25C15.8887-6.25 16.2305-6.57227 16.2305-7.05078C16.2305-7.53906 15.8887-7.88086 15.4004-7.88086L12.5195-7.88086L12.5195-10.752C12.5195-11.25 12.1777-11.5918 11.6895-11.5918C11.2109-11.5918 10.8789-11.25 10.8789-10.752L10.8789-7.88086L8.00781-7.88086C7.50977-7.88086 7.17773-7.53906 7.17773-7.05078Z"/>
  </g>
  <g transform="matrix(1 0 0 1 305.646 1933)">
   <path d="M14.9707 5.66406C21.9336 5.66406 27.6953-0.0976562 27.6953-7.05078C27.6953-14.0137 21.9238-19.7754 14.9609-19.7754C8.00781-19.7754 2.25586-14.0137 2.25586-7.05078C2.25586-0.0976562 8.01758 5.66406 14.9707 5.66406ZM14.9707 3.84766C8.93555 3.84766 4.08203-1.01562 4.08203-7.05078C4.08203-13.0957 8.92578-17.9492 14.9609-17.9492C21.0059-17.9492 25.8691-13.0957 25.8691-7.05078C25.8691-1.01562 21.0156 3.84766 14.9707 3.84766ZM9.19922-7.05078C9.19922-6.5332 9.57031-6.17188 10.1172-6.17188L14.0625-6.17188L14.0625-2.2168C14.0625-1.67969 14.4336-1.29883 14.9512-1.29883C15.4883-1.29883 15.8594-1.66992 15.8594-2.2168L15.8594-6.17188L19.8145-6.17188C20.3516-6.17188 20.7324-6.5332 20.7324-7.05078C20.7324-7.59766 20.3613-7.96875 19.8145-7.96875L15.8594-7.96875L15.8594-11.9141C15.8594-12.4609 15.4883-12.8418 14.9512-12.8418C14.4336-12.8418 14.0625-12.4609 14.0625-11.9141L14.0625-7.96875L10.1172-7.96875C9.57031-7.96875 9.19922-7.59766 9.19922-7.05078Z"/>
  </g>
  <text style="stroke:none;fill:black;font-family:sans-serif;font-size:13;font-weight:bold;" transform="matrix(1 0 0 1 263 1953)">Design Variations</text>
  <text style="stroke:none;fill:black;font-family:sans-serif;font-size:13;" transform="matrix(1 0 0 1 263 1971)">Symbols are supported in up to nine weights and three scales.</text>
  <text style="stroke:none;fill:black;font-family:sans-serif;font-size:13;" transform="matrix(1 0 0 1 263 1989)">For optimal layout with text and other symbols, vertically align</text>
  <text style="stroke:none;fill:black;font-family:sans-serif;font-size:13;" transform="matrix(1 0 0 1 263 2007)">symbols with the adjacent text.</text>
  <line style="fill:none;stroke:#00AEEF;stroke-width:0.5;opacity:1.0;" x1="776" x2="776" y1="1919" y2="1933"/>
  <g transform="matrix(1 0 0 1 776 1933)">
   <path d="M3.31055 0.15625C3.82812 0.15625 4.08203-0.0390625 4.26758-0.585938L5.52734-4.0332L11.2891-4.0332L12.5488-0.585938C12.7344-0.0390625 12.9883 0.15625 13.4961 0.15625C14.0137 0.15625 14.3457-0.15625 14.3457-0.644531C14.3457-0.810547 14.3164-0.966797 14.2383-1.17188L9.6582-13.3691C9.43359-13.9648 9.0332-14.2676 8.4082-14.2676C7.80273-14.2676 7.39258-13.9746 7.17773-13.3789L2.59766-1.16211C2.51953-0.957031 2.49023-0.800781 2.49023-0.634766C2.49023-0.146484 2.80273 0.15625 3.31055 0.15625ZM6.00586-5.51758L8.37891-12.0898L8.42773-12.0898L10.8008-5.51758Z"/>
  </g>
  <line style="fill:none;stroke:#00AEEF;stroke-width:0.5;opacity:1.0;" x1="793.197" x2="793.197" y1="1919" y2="1933"/>
  <text style="stroke:none;fill:black;font-family:sans-serif;font-size:13;font-weight:bold;" transform="matrix(1 0 0 1 776 1953)">Margins</text>
  <text style="stroke:none;fill:black;font-family:sans-serif;font-size:13;" transform="matrix(1 0 0 1 776 1971)">Leading and trailing margins on the left and right side of each symbol</text>
  <text style="stroke:none;fill:black;font-family:sans-serif;font-size:13;" transform="matrix(1 0 0 1 776 1989)">can be adjusted by modifying the x-location of the margin guidelines.</text>
  <text style="stroke:none;fill:black;font-family:sans-serif;font-size:13;" transform="matrix(1 0 0 1 776 2007)">Modifications are automatically applied proportionally to all</text>
  <text style="stroke:none;fill:black;font-family:sans-serif;font-size:13;" transform="matrix(1 0 0 1 776 2025)">scales and weights.</text>
  <g transform="matrix(1 0 0 1 1289 1933)">
   <path d="M2.8418 1.86523L4.54102 3.57422C5.40039 4.44336 6.38672 4.38477 7.31445 3.35938L18.0078-8.42773L17.041-9.4043L6.42578 2.27539C6.07422 2.67578 5.74219 2.77344 5.27344 2.30469L4.10156 1.14258C3.63281 0.683594 3.74023 0.341797 4.14062-0.0195312L15.6152-10.8203L14.6387-11.7871L3.04688-0.898438C2.06055 0.0195312 1.98242 0.996094 2.8418 1.86523ZM9.25781-16.3281C8.83789-15.918 8.80859-15.3418 9.04297-14.9512C9.27734-14.5898 9.73633-14.3555 10.3809-14.5215C11.8457-14.8633 13.3691-14.9219 14.7949-13.9844L14.209-12.5293C13.8672-11.6992 14.043-11.1133 14.5801-10.5664L16.875-8.25195C17.3633-7.76367 17.7734-7.74414 18.3398-7.8418L19.4043-8.03711L20.0684-7.36328L20.0293-6.80664C19.9902-6.30859 20.1172-5.92773 20.6055-5.44922L21.3672-4.70703C21.8457-4.22852 22.4609-4.19922 22.9297-4.66797L25.8398-7.58789C26.3086-8.05664 26.2891-8.65234 25.8105-9.13086L25.0391-9.89258C24.5605-10.3711 24.1895-10.5273 23.7109-10.4883L23.1348-10.4395L22.4902-11.0742L22.7344-12.1973C22.8613-12.7637 22.7051-13.2031 22.1191-13.7891L19.9219-15.9766C16.582-19.2969 12.1484-19.2188 9.25781-16.3281ZM10.752-15.957C13.1836-17.7344 16.4746-17.4316 18.7012-15.2051L21.1328-12.793C21.3672-12.5586 21.4062-12.373 21.3379-12.0312L21.0156-10.5469L22.5195-9.0625L23.5059-9.12109C23.7598-9.13086 23.8379-9.11133 24.0332-8.91602L24.6094-8.33984L22.168-5.89844L21.5918-6.47461C21.3965-6.66992 21.3672-6.74805 21.377-7.01172L21.4453-7.98828L19.9512-9.47266L18.4277-9.21875C18.1055-9.15039 17.959-9.17969 17.7148-9.41406L15.7129-11.416C15.459-11.6504 15.4297-11.8164 15.5859-12.1875L16.4648-14.2773C14.9023-15.7324 12.8711-16.3574 10.8398-15.7617C10.6836-15.7227 10.625-15.8496 10.752-15.957Z"/>
  </g>
  <text style="stroke:none;fill:black;font-family:sans-serif;font-size:13;font-weight:bold;" transform="matrix(1 0 0 1 1289 1953)">Exporting</text>
  <text style="stroke:none;fill:black;font-family:sans-serif;font-size:13;" transform="matrix(1 0 0 1 1289 1971)">Symbols should be outlined when exporting to ensure the</text>
  <text style="stroke:none;fill:black;font-family:sans-serif;font-size:13;" transform="matrix(1 0 0 1 1289 1989)">design is preserved when submitting to Xcode.</text>
  <text id="template-version" style="stroke:none;fill:black;font-family:sans-serif;font-size:13;text-anchor:end;" transform="matrix(1 0 0 1 3036 1933)">Template v.4.0</text>
  <text style="stroke:none;fill:black;font-family:sans-serif;font-size:13;text-anchor:end;" transform="matrix(1 0 0 1 3036 1951)">Requires Xcode 14 or greater</text>
  <text id="descriptive-name" style="stroke:none;fill:black;font-family:sans-serif;font-size:13;text-anchor:end;" transform="matrix(1 0 0 1 3036 1969)">Generated from party.popper</text>
  <text style="stroke:none;fill:black;font-family:sans-serif;font-size:13;text-anchor:end;" transform="matrix(1 0 0 1 3036 1987)">Typeset at 100 points</text>
  <text style="stroke:none;fill:black;font-family:sans-serif;font-size:13;" transform="matrix(1 0 0 1 263 726)">Small</text>
  <text style="stroke:none;fill:black;font-family:sans-serif;font-size:13;" transform="matrix(1 0 0 1 263 1156)">Medium</text>
  <text style="stroke:none;fill:black;font-family:sans-serif;font-size:13;" transform="matrix(1 0 0 1 263 1586)">Large</text>
 </g>
 <g id="Guides">
  <g id="H-reference" style="fill:#27AAE1;stroke:none;" transform="matrix(1 0 0 1 339 696)">
   <path d="M0.993654 0L3.63775 0L29.3281-67.1323L30.0303-67.1323L30.0303-70.459L28.1226-70.459ZM11.6885-24.4799L46.9815-24.4799L46.2315-26.7285L12.4385-26.7285ZM55.1196 0L57.7637 0L30.6382-70.459L29.4326-70.459L29.4326-67.1323Z"/>
  </g>
  <line id="Baseline-S" style="fill:none;stroke:#27AAE1;opacity:1;stroke-width:0.5;" x1="263" x2="3036" y1="696" y2="696"/>
  <line id="Capline-S" style="fill:none;stroke:#27AAE1;opacity:1;stroke-width:0.5;" x1="263" x2="3036" y1="625.541" y2="625.541"/>
  <g id="H-reference" style="fill:#27AAE1;stroke:none;" transform="matrix(1 0 0 1 339 1126)">
   <path d="M0.993654 0L3.63775 0L29.3281-67.1323L30.0303-67.1323L30.0303-70.459L28.1226-70.459ZM11.6885-24.4799L46.9815-24.4799L46.2315-26.7285L12.4385-26.7285ZM55.1196 0L57.7637 0L30.6382-70.459L29.4326-70.459L29.4326-67.1323Z"/>
  </g>
  <line id="Baseline-M" style="fill:none;stroke:#27AAE1;opacity:1;stroke-width:0.5;" x1="263" x2="3036" y1="1126" y2="1126"/>
  <line id="Capline-M" style="fill:none;stroke:#27AAE1;opacity:1;stroke-width:0.5;" x1="263" x2="3036" y1="1055.54" y2="1055.54"/>
  <g id="H-reference" style="fill:#27AAE1;stroke:none;" transform="matrix(1 0 0 1 339 1556)">
   <path d="M0.993654 0L3.63775 0L29.3281-67.1323L30.0303-67.1323L30.0303-70.459L28.1226-70.459ZM11.6885-24.4799L46.9815-24.4799L46.2315-26.7285L12.4385-26.7285ZM55.1196 0L57.7637 0L30.6382-70.459L29.4326-70.459L29.4326-67.1323Z"/>
  </g>
  <line id="Baseline-L" style="fill:none;stroke:#27AAE1;opacity:1;stroke-width:0.5;" x1="263" x2="3036" y1="1556" y2="1556"/>
  <line id="Capline-L" style="fill:none;stroke:#27AAE1;opacity:1;stroke-width:0.5;" x1="263" x2="3036" y1="1485.54" y2="1485.54"/>
  <line id="left-margin-Ultralight-S" style="fill:none;stroke:#00AEEF;stroke-width:0.5;opacity:1.0;" x1="504.123" x2="504.123" y1="600.785" y2="720.121"/>
  <line id="right-margin-Ultralight-S" style="fill:none;stroke:#00AEEF;stroke-width:0.5;opacity:1.0;" x1="615.299" x2="615.299" y1="600.785" y2="720.121"/>
  <line id="left-margin-Regular-S" style="fill:none;stroke:#00AEEF;stroke-width:0.5;opacity:1.0;" x1="1391.06" x2="1391.06" y1="600.785" y2="720.121"/>
  <line id="right-margin-Regular-S" style="fill:none;stroke:#00AEEF;stroke-width:0.5;opacity:1.0;" x1="1508.63" x2="1508.63" y1="600.785" y2="720.121"/>
  <line id="left-margin-Black-S" style="fill:none;stroke:#00AEEF;stroke-width:0.5;opacity:1.0;" x1="2868.8" x2="2868.8" y1="600.785" y2="720.121"/>
  <line id="right-margin-Black-S" style="fill:none;stroke:#00AEEF;stroke-width:0.5;opacity:1.0;" x1="2998" x2="2998" y1="600.785" y2="720.121"/>
 </g>
 <g id="Symbols">
  <g id="Black-S" transform="matrix(1 0 0 1 2868.8 696)">
   <path class="monochrome-0 multicolor-0:tintColor hierarchical-0:secondary SFSymbolsPreview007AFF" d="M78.2227-8.20312C92.1387-14.0137 80.5176-34.082 70.6055-43.9941C60.4492-54.1504 41.5527-66.3574 34.8145-51.5137L10.9863 1.36719C6.64062 11.084 14.502 18.5059 23.8281 14.5996ZM22.1191 2.19727L38.4766-34.1309C40.918-29.9316 44.2871-25.5859 48.291-21.582C52.0996-17.7734 56.25-14.502 60.3516-12.0605L23.1934 3.32031C22.3633 3.71094 21.6797 3.07617 22.1191 2.19727ZM44.5801-47.7051C46.0938-49.3652 53.5645-46.0938 63.1836-36.5234C72.8516-26.9043 75.9277-19.3848 74.3652-17.9199C72.8516-16.2598 65.332-19.4824 55.7617-29.0527C46.1426-38.6719 42.9688-46.1914 44.5801-47.7051Z"/>
   <path class="monochrome-1 multicolor-1:tintColor hierarchical-1:primary SFSymbolsPreview007AFF" d="M79.6875-59.8145L59.1797-39.4531C57.3242-37.5977 57.373-34.5215 59.2285-32.7148C61.0352-30.8594 64.0625-30.8105 65.918-32.7148L86.377-53.125C88.0371-54.7852 88.2324-57.9102 86.377-59.7656C84.4727-61.7676 81.3965-61.5234 79.6875-59.8145ZM75.3418-70.6055C80.4199-70.6055 84.5215-74.707 84.5215-79.834C84.5215-85.0098 80.4199-89.0137 75.3418-89.0137C70.2148-89.0137 66.1133-85.0098 66.1133-79.834C66.1133-74.707 70.2148-70.6055 75.3418-70.6055ZM95.1172-37.4023C99.6094-37.4023 103.271-40.918 103.271-45.4102C103.271-49.9023 99.6582-53.5645 95.1172-53.5645C90.625-53.5645 87.1094-49.9023 87.1094-45.4102C87.1094-40.918 90.625-37.4023 95.1172-37.4023ZM95.2637-75.9766L88.2324-68.9453C86.377-67.041 86.4258-64.0625 88.2324-62.207C90.0391-60.3516 93.1152-60.3027 94.9707-62.1582L102.002-69.1895C103.857-71.0449 103.809-74.0723 102.002-75.9766C100.049-77.832 97.0215-77.7344 95.2637-75.9766ZM50.1953-76.1719C53.7109-76.1719 56.4453-78.9062 56.4453-82.373C56.4453-85.8398 53.7109-88.6719 50.1953-88.6719C46.6797-88.6719 43.9453-85.8398 43.9453-82.373C43.9453-78.9062 46.6797-76.1719 50.1953-76.1719ZM113.184-38.916C116.602-38.916 119.434-41.6504 119.434-45.166C119.434-48.6328 116.65-51.4648 113.184-51.4648C109.619-51.4648 106.885-48.6328 106.885-45.166C106.885-41.6504 109.668-38.916 113.184-38.916ZM110.303-18.3594C113.77-18.3594 116.553-21.1426 116.553-24.6094C116.553-28.125 113.77-30.8594 110.303-30.8594C106.836-30.8594 104.053-28.125 104.053-24.6094C104.053-21.1426 106.836-18.3594 110.303-18.3594ZM68.1641-57.3242C71.2402-57.3242 73.6328-59.8145 73.6328-62.8418C73.6328-65.7715 71.2402-68.3105 68.1641-68.3105C65.1855-68.3105 62.6953-65.8203 62.6953-62.8418C62.6953-59.7656 65.1855-57.3242 68.1641-57.3242ZM108.838-76.3672C111.768-76.3672 114.209-78.8086 114.209-81.8359C114.209-84.8145 111.768-87.3047 108.838-87.3047C105.762-87.3047 103.32-84.8145 103.32-81.8359C103.32-78.8086 105.762-76.3672 108.838-76.3672ZM97.2168-31.7383C87.9883-33.3984 78.6621-33.4473 69.4336-31.7383C66.8457-31.1523 65.1367-29.2969 65.1367-26.9531C65.1367-24.2188 67.4805-21.7285 70.2148-22.2656C79.0039-23.9258 87.6465-23.9746 96.4355-22.3145C99.1211-21.6797 101.611-24.1699 101.611-26.9531C101.611-29.541 99.5605-31.2012 97.2168-31.7383ZM58.252-70.7031C57.7148-73.0957 56.1035-75.0488 53.5156-75.0488C50.7812-75.0488 48.2422-72.6562 48.877-69.9219C50.5371-61.1328 50.5371-52.4414 48.877-43.7012C48.2422-40.918 50.7812-38.5742 53.5156-38.5742C55.8594-38.5742 57.7148-40.2832 58.252-42.9199C59.9609-52.1973 59.9609-61.4746 58.252-70.7031Z"/>
  </g>
  <g id="Regular-S" transform="matrix(1 0 0 1 1391.06 696)">
   <path class="monochrome-0 multicolor-0:tintColor hierarchical-0:secondary SFSymbolsPreview007AFF" d="M70.8984-10.7422C81.5918-15.2344 71.9727-32.1289 63.2324-40.918C54.1504-49.9512 38.3789-60.0098 33.0566-48.4375L10.4492 1.70898C7.8125 7.61719 13.3301 13.2812 19.2871 10.791ZM15.918 4.05273L34.6191-37.4512C36.7188-32.7148 40.4785-27.5391 45.166-22.8027C49.7559-18.2129 54.834-14.5508 59.4727-12.4512L16.9922 5.22461C16.0156 5.61523 15.4297 5.07812 15.918 4.05273ZM39.0625-47.0215C41.4062-49.4141 49.8535-45.752 58.9844-36.6211C68.1641-27.5391 71.7285-19.043 69.3848-16.6992C66.9922-14.2578 58.5449-17.9199 49.4141-27.0996C40.2832-36.1816 36.6699-44.6777 39.0625-47.0215Z"/>
   <path class="monochrome-1 multicolor-1:tintColor hierarchical-1:primary SFSymbolsPreview007AFF" d="M74.0723-56.1523L54.3945-36.5234C53.2715-35.3516 53.2715-33.4473 54.3945-32.2754C55.5664-31.1035 57.5195-31.1035 58.6914-32.2754L78.3203-51.9531C79.3945-53.0762 79.3945-54.9316 78.3203-56.1523C77.0996-57.2266 75.1953-57.2266 74.0723-56.1523ZM68.3105-67.9688C72.5098-67.9688 75.8789-71.3867 75.8789-75.5859C75.8789-79.834 72.5098-83.1543 68.3105-83.1543C64.0625-83.1543 60.6934-79.834 60.6934-75.5859C60.6934-71.3867 64.0625-67.9688 68.3105-67.9688ZM86.7188-36.2793C90.2832-36.2793 93.1641-39.1113 93.1641-42.6758C93.1641-46.2891 90.2832-49.1699 86.7188-49.1699C83.1055-49.1699 80.2734-46.2891 80.2734-42.6758C80.2734-39.1113 83.1055-36.2793 86.7188-36.2793ZM88.3789-70.5078L81.2012-63.3301C80.0293-62.1582 80.0293-60.2051 81.2012-59.0332C82.373-57.9102 84.2773-57.9102 85.4492-59.0332L92.6758-66.2598C93.7988-67.4316 93.7988-69.3359 92.6758-70.5078C91.5039-71.6797 89.5508-71.6797 88.3789-70.5078ZM44.4336-74.6582C46.9727-74.6582 49.0234-76.709 49.0234-79.248C49.0234-81.7383 46.9727-83.7891 44.4336-83.7891C41.8457-83.7891 39.8438-81.7383 39.8438-79.248C39.8438-76.709 41.8457-74.6582 44.4336-74.6582ZM103.271-37.8906C105.811-37.8906 107.812-39.8926 107.812-42.4805C107.812-44.9707 105.811-47.0215 103.271-47.0215C100.684-47.0215 98.6816-44.9707 98.6816-42.4805C98.6816-39.8926 100.684-37.8906 103.271-37.8906ZM101.807-18.2129C104.346-18.2129 106.348-20.166 106.348-22.7539C106.348-25.293 104.346-27.3438 101.807-27.3438C99.2676-27.3438 97.2168-25.293 97.2168-22.7539C97.2168-20.166 99.2676-18.2129 101.807-18.2129ZM60.9375-55.8594C63.0371-55.8594 64.6973-57.5195 64.6973-59.6191C64.6973-61.6211 63.0371-63.3301 60.9375-63.3301C58.8867-63.3301 57.1777-61.6211 57.1777-59.6191C57.1777-57.5195 58.8867-55.8594 60.9375-55.8594ZM99.7559-72.4609C101.807-72.4609 103.467-74.1211 103.467-76.2207C103.467-78.2227 101.807-79.9316 99.7559-79.9316C97.6562-79.9316 95.9961-78.2227 95.9961-76.2207C95.9961-74.1211 97.6562-72.4609 99.7559-72.4609ZM89.9902-27.7344C80.6641-29.4922 71.4355-29.4922 62.1094-27.7344C60.5469-27.3926 59.1797-26.3672 59.1797-24.707C59.2285-23.0957 60.498-21.3867 62.207-21.7285C71.4355-23.4863 80.7129-23.5352 89.8926-21.7773C91.5039-21.3867 92.9199-23.0957 92.9199-24.707C92.9199-26.416 91.5527-27.3926 89.9902-27.7344ZM49.9023-67.8223C49.5605-69.3848 48.5352-70.8008 46.875-70.752C45.2637-70.752 43.5547-69.3848 43.8965-67.7246C45.6543-58.5449 45.6543-49.2676 43.8965-40.0391C43.5059-38.3789 45.2637-37.0605 46.875-37.0605C48.4863-37.0605 49.5605-38.3789 49.8535-39.9414C51.6113-49.2676 51.6113-58.4961 49.9023-67.8223Z"/>
  </g>
  <g id="Ultralight-S" transform="matrix(1 0 0 1 504.123 696)">
   <path class="monochrome-0 multicolor-0:tintColor hierarchical-0:secondary SFSymbolsPreview007AFF" d="M68.4917-13.5122C77.732-17.414 67.3409-33.3096 60.0537-40.5547C52.6519-47.9531 37.1074-57.9663 33.1929-49.2549L10.313 1.52735C8.31201 5.89162 12.1948 9.96633 16.6079 8.15725ZM12.2398 2.37257L32.9844-43.7177C34.1304-38.3911 38.4805-31.4443 44.7119-25.2095C50.8457-19.0303 57.6948-14.7324 62.9692-13.541L15.8569 6.0874C12.9732 7.2954 10.9795 5.21435 12.2398 2.37257ZM35.8384-49.4736C39.1358-52.7744 49.127-48.4311 58.5757-39.0278C67.9824-29.6279 72.228-19.5879 68.9761-16.2905C65.6299-12.9863 55.5933-17.2842 46.19-26.7363C36.7866-36.0908 32.5376-46.1308 35.8384-49.4736Z"/>
   <path class="monochrome-1 multicolor-1:tintColor hierarchical-1:primary SFSymbolsPreview007AFF" d="M72.2105-54.6538L53.4409-35.9785C53.0444-35.5332 53.0444-34.855 53.4409-34.4097C53.8862-33.9643 54.5225-33.9643 54.9678-34.4097L73.7339-53.2246C74.127-53.6211 74.0816-54.2959 73.7339-54.6538C73.3306-55.0923 72.6524-55.0923 72.2105-54.6538ZM65.4043-69.104C68.4683-69.104 70.8384-71.4775 70.8384-74.4961C70.8384-77.5635 68.4683-79.9302 65.4043-79.9302C62.3823-79.9302 59.9668-77.5635 59.9668-74.4961C59.9668-71.4775 62.3823-69.104 65.4043-69.104ZM82.9951-38.7768C85.4244-38.7768 87.397-40.7007 87.397-43.0845C87.397-45.5625 85.4244-47.4898 82.9951-47.4898C80.6079-47.4898 78.6841-45.5625 78.6841-43.0845C78.6841-40.7007 80.6079-38.7768 82.9951-38.7768ZM85.9268-68.419L79.0215-61.5137C78.5762-61.0684 78.5762-60.4321 79.0215-59.9868C79.4214-59.5903 80.1451-59.5903 80.545-59.9868L87.4082-66.8501C87.8501-67.2954 87.8501-67.9736 87.4082-68.419C87.0083-68.8189 86.2813-68.8189 85.9268-68.419ZM42.6626-75.4302C44.0664-75.4302 45.209-76.5728 45.209-77.9766C45.209-79.4224 44.0664-80.5196 42.6626-80.5196C41.21-80.5196 40.1162-79.4224 40.1162-77.9766C40.1162-76.5728 41.21-75.4302 42.6626-75.4302ZM98.8213-40.2973C100.271-40.2973 101.41-41.4365 101.41-42.8892C101.41-44.335 100.271-45.4321 98.8213-45.4321C97.3687-45.4321 96.2749-44.335 96.2749-42.8892C96.2749-41.4365 97.3687-40.2973 98.8213-40.2973ZM97.4473-21.1191C98.8511-21.1191 99.9903-22.2549 99.9903-23.6621C99.9903-25.1113 98.8511-26.2085 97.4473-26.2085C95.9981-26.2085 94.9009-25.1113 94.9009-23.6621C94.9009-22.2549 95.9981-21.1191 97.4473-21.1191ZM58.44-57.4941C59.4043-57.4941 60.2017-58.2461 60.2017-59.2559C60.2017-60.2134 59.4043-61.0142 58.44-61.0142C57.4336-61.0142 56.6782-60.2134 56.6782-59.2559C56.6782-58.2461 57.4336-57.4941 58.44-57.4941ZM95.4873-73.3237C96.4029-73.3237 97.2002-74.1211 97.2002-75.0855C97.2002-76.0884 96.4029-76.8892 95.4873-76.8892C94.4776-76.8892 93.7256-76.0884 93.7256-75.0855C93.7256-74.1211 94.4776-73.3237 95.4873-73.3237ZM86.3575-27.0532C77.44-28.7202 69.0288-28.7202 59.6118-26.917C58.9121-26.7568 58.544-26.231 58.6802-25.706C58.7744-25.1846 59.1358-24.8379 59.8457-24.9526C68.6655-26.665 77.7613-26.623 86.0327-25.0468C86.6905-24.9287 87.1529-25.2754 87.2437-25.8423C87.3345-26.3706 87.0118-26.9385 86.3575-27.0532ZM46.0425-66.9595C45.9278-67.5684 45.3565-67.94 44.8316-67.8457C44.2647-67.7549 43.918-67.2959 44.0327-66.5894C45.6543-58.3633 45.6543-49.2676 43.9419-40.4023C43.8237-39.7412 44.1738-39.331 44.7407-39.2402C45.2168-39.1494 45.7461-39.5142 45.9029-40.1685C47.7061-49.5854 47.7061-58.042 46.0425-66.9595Z"/>
  </g>
 </g>
</svg>
