<?xml version="1.0" encoding="UTF-8"?>
<!--Generator: Apple Native CoreSVG 175.5-->
<!DOCTYPE svg
PUBLIC "-//W3C//DTD SVG 1.1//EN"
       "http://www.w3.org/Graphics/SVG/1.1/DTD/svg11.dtd">
<svg version="1.1" xmlns="http://www.w3.org/2000/svg" xmlns:xlink="http://www.w3.org/1999/xlink" width="3300" height="2200">
 <!--glyph: "uni10130A.medium", point size: 100.0, font version: "18.0d11e1", template writer version: "90"-->
 <g id="Notes">
  <rect height="2200" id="artboard" style="fill:white;opacity:1" width="3300" x="0" y="0"/>
  <line style="fill:none;stroke:black;opacity:1;stroke-width:0.5;" x1="263" x2="3036" y1="292" y2="292"/>
  <text style="stroke:none;fill:black;font-family:sans-serif;font-size:13;font-weight:bold;" transform="matrix(1 0 0 1 263 322)">Weight/Scale Variations</text>
  <text style="stroke:none;fill:black;font-family:sans-serif;font-size:13;text-anchor:middle;" transform="matrix(1 0 0 1 559.711 322)">Ultralight</text>
  <text style="stroke:none;fill:black;font-family:sans-serif;font-size:13;text-anchor:middle;" transform="matrix(1 0 0 1 856.422 322)">Thin</text>
  <text style="stroke:none;fill:black;font-family:sans-serif;font-size:13;text-anchor:middle;" transform="matrix(1 0 0 1 1153.13 322)">Light</text>
  <text style="stroke:none;fill:black;font-family:sans-serif;font-size:13;text-anchor:middle;" transform="matrix(1 0 0 1 1449.84 322)">Regular</text>
  <text style="stroke:none;fill:black;font-family:sans-serif;font-size:13;text-anchor:middle;" transform="matrix(1 0 0 1 1746.56 322)">Medium</text>
  <text style="stroke:none;fill:black;font-family:sans-serif;font-size:13;text-anchor:middle;" transform="matrix(1 0 0 1 2043.27 322)">Semibold</text>
  <text style="stroke:none;fill:black;font-family:sans-serif;font-size:13;text-anchor:middle;" transform="matrix(1 0 0 1 2339.98 322)">Bold</text>
  <text style="stroke:none;fill:black;font-family:sans-serif;font-size:13;text-anchor:middle;" transform="matrix(1 0 0 1 2636.69 322)">Heavy</text>
  <text style="stroke:none;fill:black;font-family:sans-serif;font-size:13;text-anchor:middle;" transform="matrix(1 0 0 1 2933.4 322)">Black</text>
  <line style="fill:none;stroke:black;opacity:1;stroke-width:0.5;" x1="263" x2="3036" y1="1903" y2="1903"/>
  <g transform="matrix(1 0 0 1 263 1933)">
   <path d="M9.24805 0.830078C13.5547 0.830078 17.1387-2.74414 17.1387-7.05078C17.1387-11.3574 13.5449-14.9316 9.23828-14.9316C4.94141-14.9316 1.36719-11.3574 1.36719-7.05078C1.36719-2.74414 4.95117 0.830078 9.24805 0.830078ZM9.24805-0.654297C5.70312-0.654297 2.87109-3.49609 2.87109-7.05078C2.87109-10.6055 5.69336-13.4473 9.23828-13.4473C12.793-13.4473 15.6445-10.6055 15.6445-7.05078C15.6445-3.49609 12.8027-0.654297 9.24805-0.654297ZM5.6543-7.05078C5.6543-6.62109 5.95703-6.32812 6.40625-6.32812L8.50586-6.32812L8.50586-4.20898C8.50586-3.76953 8.79883-3.4668 9.22852-3.4668C9.67773-3.4668 9.9707-3.76953 9.9707-4.20898L9.9707-6.32812L12.0898-6.32812C12.5293-6.32812 12.832-6.62109 12.832-7.05078C12.832-7.49023 12.5293-7.79297 12.0898-7.79297L9.9707-7.79297L9.9707-9.90234C9.9707-10.3516 9.67773-10.6543 9.22852-10.6543C8.79883-10.6543 8.50586-10.3516 8.50586-9.90234L8.50586-7.79297L6.40625-7.79297C5.95703-7.79297 5.6543-7.49023 5.6543-7.05078Z"/>
  </g>
  <g transform="matrix(1 0 0 1 281.867 1933)">
   <path d="M11.709 2.91016C17.1582 2.91016 21.6699-1.61133 21.6699-7.05078C21.6699-12.5 17.1484-17.0117 11.6992-17.0117C6.25977-17.0117 1.74805-12.5 1.74805-7.05078C1.74805-1.61133 6.26953 2.91016 11.709 2.91016ZM11.709 1.25C7.09961 1.25 3.41797-2.44141 3.41797-7.05078C3.41797-11.6602 7.08984-15.3516 11.6992-15.3516C16.3086-15.3516 20.0098-11.6602 20.0098-7.05078C20.0098-2.44141 16.3184 1.25 11.709 1.25ZM7.17773-7.05078C7.17773-6.57227 7.50977-6.25 8.00781-6.25L10.8789-6.25L10.8789-3.36914C10.8789-2.88086 11.2109-2.53906 11.6895-2.53906C12.1777-2.53906 12.5195-2.87109 12.5195-3.36914L12.5195-6.25L15.4004-6.25C15.8887-6.25 16.2305-6.57227 16.2305-7.05078C16.2305-7.53906 15.8887-7.88086 15.4004-7.88086L12.5195-7.88086L12.5195-10.752C12.5195-11.25 12.1777-11.5918 11.6895-11.5918C11.2109-11.5918 10.8789-11.25 10.8789-10.752L10.8789-7.88086L8.00781-7.88086C7.50977-7.88086 7.17773-7.53906 7.17773-7.05078Z"/>
  </g>
  <g transform="matrix(1 0 0 1 305.646 1933)">
   <path d="M14.9707 5.66406C21.9336 5.66406 27.6953-0.0976562 27.6953-7.05078C27.6953-14.0137 21.9238-19.7754 14.9609-19.7754C8.00781-19.7754 2.25586-14.0137 2.25586-7.05078C2.25586-0.0976562 8.01758 5.66406 14.9707 5.66406ZM14.9707 3.84766C8.93555 3.84766 4.08203-1.01562 4.08203-7.05078C4.08203-13.0957 8.92578-17.9492 14.9609-17.9492C21.0059-17.9492 25.8691-13.0957 25.8691-7.05078C25.8691-1.01562 21.0156 3.84766 14.9707 3.84766ZM9.19922-7.05078C9.19922-6.5332 9.57031-6.17188 10.1172-6.17188L14.0625-6.17188L14.0625-2.2168C14.0625-1.67969 14.4336-1.29883 14.9512-1.29883C15.4883-1.29883 15.8594-1.66992 15.8594-2.2168L15.8594-6.17188L19.8145-6.17188C20.3516-6.17188 20.7324-6.5332 20.7324-7.05078C20.7324-7.59766 20.3613-7.96875 19.8145-7.96875L15.8594-7.96875L15.8594-11.9141C15.8594-12.4609 15.4883-12.8418 14.9512-12.8418C14.4336-12.8418 14.0625-12.4609 14.0625-11.9141L14.0625-7.96875L10.1172-7.96875C9.57031-7.96875 9.19922-7.59766 9.19922-7.05078Z"/>
  </g>
  <text style="stroke:none;fill:black;font-family:sans-serif;font-size:13;font-weight:bold;" transform="matrix(1 0 0 1 263 1953)">Design Variations</text>
  <text style="stroke:none;fill:black;font-family:sans-serif;font-size:13;" transform="matrix(1 0 0 1 263 1971)">Symbols are supported in up to nine weights and three scales.</text>
  <text style="stroke:none;fill:black;font-family:sans-serif;font-size:13;" transform="matrix(1 0 0 1 263 1989)">For optimal layout with text and other symbols, vertically align</text>
  <text style="stroke:none;fill:black;font-family:sans-serif;font-size:13;" transform="matrix(1 0 0 1 263 2007)">symbols with the adjacent text.</text>
  <line style="fill:none;stroke:#00AEEF;stroke-width:0.5;opacity:1.0;" x1="776" x2="776" y1="1919" y2="1933"/>
  <g transform="matrix(1 0 0 1 776 1933)">
   <path d="M3.31055 0.15625C3.82812 0.15625 4.08203-0.0390625 4.26758-0.585938L5.52734-4.0332L11.2891-4.0332L12.5488-0.585938C12.7344-0.0390625 12.9883 0.15625 13.4961 0.15625C14.0137 0.15625 14.3457-0.15625 14.3457-0.644531C14.3457-0.810547 14.3164-0.966797 14.2383-1.17188L9.6582-13.3691C9.43359-13.9648 9.0332-14.2676 8.4082-14.2676C7.80273-14.2676 7.39258-13.9746 7.17773-13.3789L2.59766-1.16211C2.51953-0.957031 2.49023-0.800781 2.49023-0.634766C2.49023-0.146484 2.80273 0.15625 3.31055 0.15625ZM6.00586-5.51758L8.37891-12.0898L8.42773-12.0898L10.8008-5.51758Z"/>
  </g>
  <line style="fill:none;stroke:#00AEEF;stroke-width:0.5;opacity:1.0;" x1="793.197" x2="793.197" y1="1919" y2="1933"/>
  <text style="stroke:none;fill:black;font-family:sans-serif;font-size:13;font-weight:bold;" transform="matrix(1 0 0 1 776 1953)">Margins</text>
  <text style="stroke:none;fill:black;font-family:sans-serif;font-size:13;" transform="matrix(1 0 0 1 776 1971)">Leading and trailing margins on the left and right side of each symbol</text>
  <text style="stroke:none;fill:black;font-family:sans-serif;font-size:13;" transform="matrix(1 0 0 1 776 1989)">can be adjusted by modifying the x-location of the margin guidelines.</text>
  <text style="stroke:none;fill:black;font-family:sans-serif;font-size:13;" transform="matrix(1 0 0 1 776 2007)">Modifications are automatically applied proportionally to all</text>
  <text style="stroke:none;fill:black;font-family:sans-serif;font-size:13;" transform="matrix(1 0 0 1 776 2025)">scales and weights.</text>
  <g transform="matrix(1 0 0 1 1289 1933)">
   <path d="M2.8418 1.86523L4.54102 3.57422C5.40039 4.44336 6.38672 4.38477 7.31445 3.35938L18.0078-8.42773L17.041-9.4043L6.42578 2.27539C6.07422 2.67578 5.74219 2.77344 5.27344 2.30469L4.10156 1.14258C3.63281 0.683594 3.74023 0.341797 4.14062-0.0195312L15.6152-10.8203L14.6387-11.7871L3.04688-0.898438C2.06055 0.0195312 1.98242 0.996094 2.8418 1.86523ZM9.25781-16.3281C8.83789-15.918 8.80859-15.3418 9.04297-14.9512C9.27734-14.5898 9.73633-14.3555 10.3809-14.5215C11.8457-14.8633 13.3691-14.9219 14.7949-13.9844L14.209-12.5293C13.8672-11.6992 14.043-11.1133 14.5801-10.5664L16.875-8.25195C17.3633-7.76367 17.7734-7.74414 18.3398-7.8418L19.4043-8.03711L20.0684-7.36328L20.0293-6.80664C19.9902-6.30859 20.1172-5.92773 20.6055-5.44922L21.3672-4.70703C21.8457-4.22852 22.4609-4.19922 22.9297-4.66797L25.8398-7.58789C26.3086-8.05664 26.2891-8.65234 25.8105-9.13086L25.0391-9.89258C24.5605-10.3711 24.1895-10.5273 23.7109-10.4883L23.1348-10.4395L22.4902-11.0742L22.7344-12.1973C22.8613-12.7637 22.7051-13.2031 22.1191-13.7891L19.9219-15.9766C16.582-19.2969 12.1484-19.2188 9.25781-16.3281ZM10.752-15.957C13.1836-17.7344 16.4746-17.4316 18.7012-15.2051L21.1328-12.793C21.3672-12.5586 21.4062-12.373 21.3379-12.0312L21.0156-10.5469L22.5195-9.0625L23.5059-9.12109C23.7598-9.13086 23.8379-9.11133 24.0332-8.91602L24.6094-8.33984L22.168-5.89844L21.5918-6.47461C21.3965-6.66992 21.3672-6.74805 21.377-7.01172L21.4453-7.98828L19.9512-9.47266L18.4277-9.21875C18.1055-9.15039 17.959-9.17969 17.7148-9.41406L15.7129-11.416C15.459-11.6504 15.4297-11.8164 15.5859-12.1875L16.4648-14.2773C14.9023-15.7324 12.8711-16.3574 10.8398-15.7617C10.6836-15.7227 10.625-15.8496 10.752-15.957Z"/>
  </g>
  <text style="stroke:none;fill:black;font-family:sans-serif;font-size:13;font-weight:bold;" transform="matrix(1 0 0 1 1289 1953)">Exporting</text>
  <text style="stroke:none;fill:black;font-family:sans-serif;font-size:13;" transform="matrix(1 0 0 1 1289 1971)">Symbols should be outlined when exporting to ensure the</text>
  <text style="stroke:none;fill:black;font-family:sans-serif;font-size:13;" transform="matrix(1 0 0 1 1289 1989)">design is preserved when submitting to Xcode.</text>
  <text id="template-version" style="stroke:none;fill:black;font-family:sans-serif;font-size:13;text-anchor:end;" transform="matrix(1 0 0 1 3036 1933)">Template v.4.0</text>
  <text style="stroke:none;fill:black;font-family:sans-serif;font-size:13;text-anchor:end;" transform="matrix(1 0 0 1 3036 1951)">Requires Xcode 14 or greater</text>
  <text id="descriptive-name" style="stroke:none;fill:black;font-family:sans-serif;font-size:13;text-anchor:end;" transform="matrix(1 0 0 1 3036 1969)">Generated from figure.indoor.cycle</text>
  <text style="stroke:none;fill:black;font-family:sans-serif;font-size:13;text-anchor:end;" transform="matrix(1 0 0 1 3036 1987)">Typeset at 100 points</text>
  <text style="stroke:none;fill:black;font-family:sans-serif;font-size:13;" transform="matrix(1 0 0 1 263 726)">Small</text>
  <text style="stroke:none;fill:black;font-family:sans-serif;font-size:13;" transform="matrix(1 0 0 1 263 1156)">Medium</text>
  <text style="stroke:none;fill:black;font-family:sans-serif;font-size:13;" transform="matrix(1 0 0 1 263 1586)">Large</text>
 </g>
 <g id="Guides">
  <g id="H-reference" style="fill:#27AAE1;stroke:none;" transform="matrix(1 0 0 1 339 696)">
   <path d="M0.993654 0L3.63775 0L29.3281-67.1323L30.0303-67.1323L30.0303-70.459L28.1226-70.459ZM11.6885-24.4799L46.9815-24.4799L46.2315-26.7285L12.4385-26.7285ZM55.1196 0L57.7637 0L30.6382-70.459L29.4326-70.459L29.4326-67.1323Z"/>
  </g>
  <line id="Baseline-S" style="fill:none;stroke:#27AAE1;opacity:1;stroke-width:0.5;" x1="263" x2="3036" y1="696" y2="696"/>
  <line id="Capline-S" style="fill:none;stroke:#27AAE1;opacity:1;stroke-width:0.5;" x1="263" x2="3036" y1="625.541" y2="625.541"/>
  <g id="H-reference" style="fill:#27AAE1;stroke:none;" transform="matrix(1 0 0 1 339 1126)">
   <path d="M0.993654 0L3.63775 0L29.3281-67.1323L30.0303-67.1323L30.0303-70.459L28.1226-70.459ZM11.6885-24.4799L46.9815-24.4799L46.2315-26.7285L12.4385-26.7285ZM55.1196 0L57.7637 0L30.6382-70.459L29.4326-70.459L29.4326-67.1323Z"/>
  </g>
  <line id="Baseline-M" style="fill:none;stroke:#27AAE1;opacity:1;stroke-width:0.5;" x1="263" x2="3036" y1="1126" y2="1126"/>
  <line id="Capline-M" style="fill:none;stroke:#27AAE1;opacity:1;stroke-width:0.5;" x1="263" x2="3036" y1="1055.54" y2="1055.54"/>
  <g id="H-reference" style="fill:#27AAE1;stroke:none;" transform="matrix(1 0 0 1 339 1556)">
   <path d="M0.993654 0L3.63775 0L29.3281-67.1323L30.0303-67.1323L30.0303-70.459L28.1226-70.459ZM11.6885-24.4799L46.9815-24.4799L46.2315-26.7285L12.4385-26.7285ZM55.1196 0L57.7637 0L30.6382-70.459L29.4326-70.459L29.4326-67.1323Z"/>
  </g>
  <line id="Baseline-L" style="fill:none;stroke:#27AAE1;opacity:1;stroke-width:0.5;" x1="263" x2="3036" y1="1556" y2="1556"/>
  <line id="Capline-L" style="fill:none;stroke:#27AAE1;opacity:1;stroke-width:0.5;" x1="263" x2="3036" y1="1485.54" y2="1485.54"/>
  <line id="left-margin-Regular-M" style="fill:none;stroke:#00AEEF;stroke-width:0.5;opacity:1.0;" x1="1398.8" x2="1398.8" y1="1030.79" y2="1150.12"/>
  <line id="right-margin-Regular-M" style="fill:none;stroke:#00AEEF;stroke-width:0.5;opacity:1.0;" x1="1500.89" x2="1500.89" y1="1030.79" y2="1150.12"/>
 </g>
 <g id="Symbols">
  <g id="Black-L" transform="matrix(1 0 0 1 2864.32 1556)">
   <path d="M106.318-83.7317C114.845-83.7317 121.789-90.697 121.789-99.2439C121.789-107.77 114.845-114.714 106.318-114.714C97.7704-114.714 90.8052-107.77 90.8052-99.2439C90.8052-90.697 97.7704-83.7317 106.318-83.7317ZM72.3327 19.7884C76.7865 19.7884 80.4218 16.174 80.4218 11.8018L80.4218-22.816C80.4218-24.714 79.6848-26.4512 78.5457-27.8679L63.0771-46.8275C62.5221-47.5057 62.6685-48.2656 63.3468-48.6157L81.9118-58.2893C82.6925-58.7199 83.4148-58.471 83.5392-57.6451L85.2036-46.185C85.6421-43.2283 87.3793-41.133 90.38-39.6139L109.192-30.1683C114.984-27.2725 119.485-29.5518 121.119-33.2114C122.731-36.7662 121.712-41.6294 116.741-44.1839L100.441-52.4552L97.8701-71.8673C96.3665-83.2552 83.6203-90.2997 71.7266-84.0726L46.8993-71.079C34.7071-64.7131 33.0647-50.7617 42.1537-41.752L64.4861-19.4804L64.4861 11.8018C64.4861 16.174 68.0421 19.7884 72.3327 19.7884ZM19.348-20.7723C22.189-15.6907 27.5471-14.0936 32.7287-15.2534L47.0079-18.363C49.5196-18.8819 51.192-20.91 51.192-23.5021C51.192-26.1307 49.3004-28.1015 46.7898-28.54L22.4218-32.7523C17.3178-33.6501 14.6089-29.2699 16.9818-25.043ZM29.3281-22.0449L47.1833 31.167L58.2618 27.2521L40.705-25.4664ZM72.1731 44.0837C87.9353 44.0837 100.484 31.3758 100.484 15.8525C100.484 4.98416 94.2828-4.45978 85.2797-9.18211L85.2797 6.96141C87.0644 9.39811 88.0063 12.4034 88.0063 15.8525C88.0063 24.7783 81.1793 31.6053 72.1731 31.6053C63.3496 31.6053 56.3826 24.6175 56.3826 15.8525C56.3826 12.2854 57.5658 9.06085 59.6061 6.48533L59.6061-9.34175C50.3862-4.85949 43.943 4.90374 43.943 15.8525C43.943 31.3746 56.8117 44.0837 72.1731 44.0837ZM85.9651 28.1648L97.2045 31.9044L113.227-17.1216C114.238-20.1119 112.711-23.7479 109.608-24.6773C106.363-25.6651 103.179-23.8283 102.248-20.9329ZM35.0607 35.5946C31.2311 38.0772 32.4793 44.0957 37.0948 44.0957L107.251 44.0957C111.864 44.0957 113.075 38.0528 109.307 35.5946L93.0514 25.0212L78.5875 34.9393L65.839 34.9393L51.2947 25.0212Z"/>
  </g>
  <g id="Heavy-L" transform="matrix(1 0 0 1 2568.44 1556)">
   <path d="M104.955-83.158C113.244-83.158 119.983-89.9269 119.983-98.246C119.983-106.535 113.244-113.274 104.955-113.274C96.6304-113.274 89.8614-106.535 89.8614-98.246C89.8614-89.9269 96.6304-83.158 104.955-83.158ZM71.5588 18.7489C75.8157 18.7489 79.2955 15.2993 79.2955 11.1284L79.2955-23.0602C79.2955-24.8805 78.6043-26.5399 77.511-27.8833L62.1951-46.6492C61.5481-47.4427 61.7359-48.3222 62.5294-48.7368L80.9559-58.3343C81.8656-58.8293 82.7306-58.5253 82.8827-57.5384L84.5245-46.1583C84.9354-43.3252 86.5948-41.3352 89.4996-39.8756L108.072-30.552C113.627-27.7747 117.972-29.9669 119.51-33.4937C121.017-36.893 120.024-41.4914 115.287-43.9224L99.0798-52.1496L96.5176-71.4463C95.0367-82.5149 82.6693-89.3586 71.0767-83.2865L46.5749-70.4738C34.702-64.2767 33.0961-50.7086 41.9479-41.9316L64.069-19.8664L64.069 11.1284C64.069 15.2993 67.4739 18.7489 71.5588 18.7489ZM19.2658-21.7978C22.0153-16.8762 27.1815-15.3474 32.2081-16.4708L46.3019-19.549C48.667-20.0403 50.2247-21.9173 50.2247-24.3628C50.2247-26.8171 48.4615-28.655 46.1021-29.0659L22.0413-33.2285C17.2307-34.0806 14.696-29.9938 16.936-26.005ZM29.5184-22.6L47.1651 29.9087L57.1736 26.3854L39.8072-25.6846ZM71.4035 42.6033C86.7069 42.6033 98.8337 30.3213 98.8337 15.248C98.8337 4.74154 92.8851-4.35873 84.207-8.94429L84.207 5.49013C86.3721 8.09665 87.566 11.4411 87.566 15.248C87.566 24.2924 80.5284 31.33 71.4035 31.33C62.4753 31.33 55.3071 24.1315 55.3071 15.248C55.3071 11.3462 56.7423 7.79633 59.1216 5.06476L59.1216-9.09952C50.2493-4.74961 44.0538 4.66112 44.0538 15.248C44.0538 30.3156 56.4967 42.6033 71.4035 42.6033ZM85.533 27.2395L95.7024 30.6289L111.701-18.2052C112.626-20.9126 111.221-24.1802 108.447-25.0186C105.502-25.9016 102.642-24.2606 101.792-21.6067ZM34.9575 34.9057C31.4428 37.2013 32.5626 42.6595 36.7682 42.6595L106.039 42.6595C110.233 42.6595 111.339 37.1542 107.885 34.9057L92.0199 24.5683L77.8417 34.3005L65.0458 34.3005L50.7872 24.5683Z"/>
  </g>
  <g id="Bold-L" transform="matrix(1 0 0 1 2272.82 1556)">
   <path d="M103.205-82.369C111.202-82.369 117.694-88.8996 117.694-96.9344C117.694-104.931 111.202-111.424 103.205-111.424C95.157-111.424 88.6264-104.931 88.6264-96.9344C88.6264-88.8996 95.157-82.369 103.205-82.369ZM70.5164 17.4655C74.5424 17.4655 77.8375 14.2084 77.8375 10.276L77.8375-23.3227C77.8375-25.0507 77.2001-26.6178 76.1607-27.8764L61.0667-46.3668C60.3193-47.2838 60.5534-48.2945 61.4704-48.7786L79.6831-58.2614C80.7318-58.826 81.7512-58.4603 81.9341-57.296L83.5452-46.0456C83.9253-43.3586 85.4924-41.4918 88.2818-40.1015L106.525-30.9464C111.787-28.3151 115.956-30.4072 117.378-33.7799C118.762-36.9946 117.808-41.2701 113.347-43.555L97.3001-51.7059L94.7531-70.812C93.3028-81.4886 81.3967-88.0864 70.1731-82.2064L46.1156-69.6389C34.6348-63.6493 33.0749-50.5501 41.6347-42.0575L63.4497-20.2981L63.4497 10.276C63.4497 14.2084 66.6776 17.4655 70.5164 17.4655ZM19.1658-22.9316C21.8076-18.2022 26.743-16.758 31.5776-17.8354L45.4186-20.8676C47.6142-21.3281 49.0409-23.028 49.0409-25.3041C49.0409-27.5581 47.4242-29.2421 45.2417-29.6221L21.6023-33.7158C17.1306-34.514 14.7961-30.766 16.8821-27.0545ZM29.7714-23.1647L47.142 28.4234L55.8065 25.3916L38.6931-25.8269ZM70.3687 40.685C85.0811 40.685 96.6482 28.9703 96.6482 14.4727C96.6482 4.45674 91.0592-4.1761 82.8329-8.59261L82.8329 3.72116C85.437 6.52033 86.9236 10.2575 86.9236 14.4727C86.9236 23.6631 79.6396 30.9471 70.3687 30.9471C61.3099 30.9471 53.9031 23.5023 53.9031 14.4727C53.9031 10.1858 55.6309 6.25865 58.403 3.34985L58.403-8.74022C50.0132-4.55174 44.1697 4.37632 44.1697 14.4727C44.1697 28.957 56.0452 40.685 70.3687 40.685ZM84.8461 26.1616L93.6714 29.1058L109.655-19.4977C110.472-21.8591 109.221-24.6583 106.854-25.3816C104.292-26.134 101.832-24.7388 101.082-22.3845ZM34.8046 33.9931C31.6743 36.0582 32.6476 40.8173 36.3387 40.8173L104.399 40.8173C108.063 40.8173 109.046 35.9805 105.984 33.9931L90.625 23.9627L76.8227 33.4494L63.9953 33.4494L50.1124 23.9627Z"/>
  </g>
  <g id="Semibold-L" transform="matrix(1 0 0 1 1976.86 1556)">
   <path d="M101.999-81.8251C109.794-81.8251 116.117-88.1913 116.117-96.0302C116.117-103.826 109.794-110.149 101.999-110.149C94.1412-110.149 87.7749-103.826 87.7749-96.0302C87.7749-88.1913 94.1412-81.8251 101.999-81.8251ZM69.7977 16.5808C73.6646 16.5808 76.8323 13.4564 76.8323 9.68843L76.8323-23.5037C76.8323-25.168 76.2322-26.6714 75.2299-27.8717L60.2888-46.1721C59.4722-47.1743 59.7382-48.2754 60.7404-48.8074L78.8057-58.2112C79.9501-58.8236 81.076-58.4154 81.2801-57.1288L82.8701-45.9678C83.2289-43.3817 84.7324-41.5998 87.4423-40.2573L105.458-31.2183C110.519-28.6877 114.565-30.7107 115.908-33.9773C117.208-37.0646 116.279-41.1176 112.01-43.3016L96.0731-51.4001L93.5366-70.3748C92.1075-80.7812 80.5194-87.2094 69.5501-81.4617L45.799-69.0634C34.5884-63.2168 33.0603-50.4409 41.4187-42.1443L63.0229-20.5957L63.0229 9.68843C63.0229 13.4564 66.1287 16.5808 69.7977 16.5808ZM19.0969-23.7132C21.6644-19.1164 26.4408-17.7304 31.1429-18.776L44.8096-21.7767C46.8884-22.2159 48.2248-23.7937 48.2248-25.953C48.2248-28.069 46.709-29.6468 44.6486-30.0056L21.2997-34.0517C17.0616-34.8128 14.8651-31.2984 16.845-27.778ZM29.9459-23.5541L47.1262 27.3994L54.864 24.7066L37.925-25.9249ZM69.6554 39.3625C83.9603 39.3625 95.1415 28.0389 95.1415 13.9382C95.1415 4.26041 89.8005-4.0502 81.8857-8.35016L81.8857 2.50164C84.7924 5.43362 86.4807 9.44152 86.4807 13.9382C86.4807 23.2293 79.0269 30.6831 69.6554 30.6831C60.5065 30.6831 52.9353 23.0685 52.9353 13.9382C52.9353 9.38589 54.8648 5.19858 57.9076 2.16761L57.9076-8.49251C49.8504-4.41534 44.2496 4.17999 44.2496 13.9382C44.2496 28.0204 55.734 39.3625 69.6554 39.3625ZM84.3726 25.4186L92.2713 28.0557L108.244-20.3887C108.986-22.5116 107.841-24.988 105.755-25.6318C103.459-26.2942 101.273-25.0684 100.593-22.9208ZM34.6992 33.364C31.8338 35.2701 32.7063 39.5473 36.0426 39.5473L103.268 39.5473C106.567 39.5473 107.465 35.1713 104.673 33.364L89.6635 23.5452L76.1202 32.8627L63.271 32.8627L49.6473 23.5452Z"/>
  </g>
  <g id="Medium-L" transform="matrix(1 0 0 1 1680.72 1556)">
   <path d="M101.084-81.4126C108.727-81.4126 114.921-87.6543 114.921-95.3446C114.921-102.987 108.727-109.182 101.084-109.182C93.371-109.182 87.1293-102.987 87.1293-95.3446C87.1293-87.6543 93.371-81.4126 101.084-81.4126ZM69.2528 15.9099C72.999 15.9099 76.0702 12.8861 76.0702 9.24289L76.0702-23.6409C76.0702-25.2569 75.4982-26.7121 74.5241-27.8681L59.6989-46.0245C58.83-47.0913 59.1201-48.2609 60.1868-48.8292L78.1404-58.1731C79.3574-58.8219 80.564-58.3814 80.7842-57.0021L82.3582-45.9089C82.7009-43.3991 84.1561-41.6817 86.8057-40.3753L104.649-31.4245C109.558-28.9702 113.511-30.9409 114.794-34.1269C116.029-37.1177 115.121-41.0019 110.996-43.1095L95.1428-51.1682L92.6143-70.0432C91.2011-80.2447 79.8542-86.5443 69.0778-80.8971L45.5589-68.6269C34.5533-62.8888 33.0492-50.358 41.255-42.2102L62.6992-20.8214L62.6992 9.24289C62.6992 12.8861 65.7125 15.9099 69.2528 15.9099ZM19.0447-24.3059C21.5559-19.8096 26.2116-18.4678 30.8133-19.4893L44.3478-22.4659C46.3381-22.8891 47.606-24.3744 47.606-26.4451C47.606-28.4564 46.1667-29.9536 44.1989-30.2963L21.0702-34.3065C17.0092-35.0393 14.9175-31.7021 16.8168-28.3265ZM30.0781-23.8493L47.1141 26.623L54.1493 24.1871L37.3426-25.9993ZM69.1145 38.3597C83.1105 38.3597 93.9991 27.3327 93.9991 13.533C93.9991 4.11153 88.8461-3.95474 81.1675-8.16632L81.1675 1.57695C84.3037 4.60963 86.1449 8.82282 86.1449 13.533C86.1449 22.9004 78.5623 30.483 69.1145 30.483C59.8973 30.483 52.2014 22.7396 52.2014 13.533C52.2014 8.77933 54.2839 4.39479 57.532 1.27118L57.532-8.3047C49.7269-4.31191 44.3102 4.03112 44.3102 13.533C44.3102 27.3103 55.498 38.3597 69.1145 38.3597ZM84.0136 24.8551L91.2097 27.2595L107.174-21.0643C107.86-23.0064 106.796-25.238 104.922-25.8216C102.826-26.4157 100.85-25.3184 100.222-23.3274ZM34.6193 32.887C31.9548 34.6726 32.7508 38.5843 35.8181 38.5843L102.411 38.5843C105.433 38.5843 106.266 34.5577 103.68 32.887L88.9343 23.2286L75.5875 32.4178L62.7218 32.4178L49.2946 23.2286Z"/>
  </g>
  <g id="Regular-L" transform="matrix(1 0 0 1 1384.75 1556)">
   <path d="M99.8906-80.8747C107.334-80.8747 113.361-86.9538 113.361-94.4503C113.361-101.894 107.334-107.92 99.8906-107.92C92.3664-107.92 86.2872-101.894 86.2872-94.4503C86.2872-86.9538 92.3664-80.8747 99.8906-80.8747ZM68.5421 15.0349C72.1308 15.0349 75.0761 12.1424 75.0761 8.66174L75.0761-23.8199C75.0761-25.373 74.5408-26.7652 73.6034-27.8634L58.9296-45.832C57.9922-46.983 58.3139-48.242 59.4648-48.8577L77.2726-58.1235C78.5844-58.8196 79.8962-58.3371 80.1375-56.8368L81.6906-45.832C82.0122-43.4219 83.4045-41.7884 85.9754-40.5294L103.595-31.6934C108.304-29.3386 112.137-31.2411 113.34-34.3221C114.491-37.187 113.609-40.851 109.674-42.859L93.9293-50.8657L91.4112-69.6108C90.0189-79.545 78.9865-85.6769 68.4617-80.1607L45.2458-68.0577C34.5074-62.461 33.0347-50.25 41.0414-42.296L62.277-21.1158L62.277 8.66174C62.277 12.1424 65.1696 15.0349 68.5421 15.0349ZM18.9766-25.0789C21.4143-20.7137 25.9127-19.4295 30.3834-20.4197L43.7455-23.365C45.6203-23.7671 46.7989-25.1317 46.7989-27.0869C46.7989-28.9616 45.4594-30.3539 43.6123-30.6756L20.7709-34.6387C16.9409-35.3348 14.9858-32.2287 16.7801-29.0421ZM30.2506-24.2343L47.0984 25.6103L53.2172 23.5096L36.583-26.0963ZM68.4089 37.0517C82.002 37.0517 92.509 26.4116 92.509 13.0044C92.509 3.91736 87.6012-3.83022 80.2306-7.92653L80.2306 0.370835C83.6661 3.53487 85.7068 8.01583 85.7068 13.0044C85.7068 22.4714 77.9563 30.2219 68.4089 30.2219C59.1028 30.2219 51.2442 22.3106 51.2442 13.0044C51.2442 7.98817 53.5261 3.34637 57.042 0.101919L57.042-8.05972C49.5659-4.177 44.3892 3.83694 44.3892 13.0044C44.3892 26.3839 55.1902 37.0517 68.4089 37.0517ZM83.5453 24.1202L89.8249 26.2209L105.778-21.9455C106.391-23.6518 105.431-25.564 103.836-26.0691C102.001-26.5742 100.298-25.6444 99.7374-23.8577ZM34.5151 32.2648C32.1127 33.8932 32.8088 37.3283 35.5252 37.3283L101.293 37.3283C103.954 37.3283 104.703 33.7575 102.383 32.2648L87.9833 22.8156L74.8927 31.8376L62.0055 31.8376L48.8345 22.8156Z"/>
  </g>
  <g id="Light-L" transform="matrix(1 0 0 1 1089.13 1556)">
   <path d="M98.2874-79.825C105.54-79.825 111.452-85.7705 111.452-93.0571C111.452-100.31 105.54-106.222 98.2874-106.222C90.9541-106.222 85.0085-100.31 85.0085-93.0571C85.0085-85.7705 90.9541-79.825 98.2874-79.825ZM67.2825 14.1761C70.7948 14.1761 73.6638 11.3408 73.6638 7.95558L73.6638-23.7435C73.6638-25.2584 73.1476-26.6125 72.2293-27.6917L57.918-45.2403C56.9997-46.3531 57.3214-47.5931 58.4342-48.1897L75.8221-57.2455C77.0957-57.9226 78.3694-57.4401 78.6106-55.9588L80.1256-45.2403C80.4472-42.8875 81.8013-41.2922 84.3149-40.0522L101.495-31.4453C106.014-29.186 109.827-31.0693 110.974-34.1122C112.087-36.9008 111.262-40.3739 107.441-42.3246L92.0971-50.1404L89.6171-68.4466C88.2631-78.1327 77.4978-84.1119 67.202-78.7293L44.5587-66.9317C34.0684-61.4686 32.6339-49.5438 40.4498-41.7617L61.1891-21.1158L61.1891 7.95558C61.1891 11.3408 64.0244 14.1761 67.2825 14.1761ZM18.9193-24.9835C21.3188-20.7137 25.7027-19.4868 30.0399-20.4388L43.0775-23.3077C44.9141-23.7098 46.0737-25.0172 46.0737-26.9342C46.0737-28.7708 44.7533-30.1249 42.9634-30.4465L20.6755-34.3142C16.9219-34.9913 15.0048-31.9615 16.761-28.8512ZM30.5369-23.8335L47.0793 25.0569L52.1484 23.3378L35.8005-25.3711ZM67.1684 35.1814C80.208 35.1814 90.0852 25.1901 90.0852 12.2983C90.0852 3.82193 85.7309-3.334 78.9901-7.31581L78.9901-0.507088C82.521 2.67603 84.6381 7.25242 84.6381 12.2983C84.6381 21.8607 76.8112 29.6875 67.1684 29.6875C57.7668 29.6875 49.8128 21.6998 49.8128 12.2983C49.8128 7.20567 52.1711 2.46845 55.7824-0.795089L55.7824-7.4299C48.9743-3.64262 44.332 3.74151 44.332 12.2983C44.332 25.1434 54.4841 35.1814 67.1684 35.1814ZM82.0948 23.8148L87.3248 25.5339L103.354-22.5181C103.891-24.0144 103.046-25.5258 101.736-25.9355C100.246-26.3451 98.8091-25.6062 98.306-24.0295ZM34.2479 31.2533C32.0745 32.729 32.7515 35.6488 35.0672 35.6488L99.2696 35.6488C101.492 35.6488 102.202 32.5551 100.169 31.2533L86.2656 22.1095L73.5758 30.8642L60.8413 30.8642L48.0711 22.1095Z"/>
  </g>
  <g id="Thin-L" transform="matrix(1 0 0 1 793.857 1556)">
   <path d="M96.1671-78.4367C103.168-78.4367 108.928-84.2055 108.928-91.2144C108.928-98.2149 103.168-103.975 96.1671-103.975C89.0862-103.975 83.3173-98.2149 83.3173-91.2144C83.3173-84.2055 89.0862-78.4367 96.1671-78.4367ZM65.6165 13.0402C69.0279 13.0402 71.7959 10.2806 71.7959 7.02163L71.7959-23.6426C71.7959-25.107 71.305-26.4106 70.4119-27.4645L56.5802-44.4578C55.6872-45.5202 56.0088-46.7349 57.0712-47.3063L73.9037-56.0844C75.1269-56.7362 76.35-56.2537 76.5913-54.7977L78.0557-44.4578C78.3774-42.1808 79.681-40.6359 82.1189-39.4212L98.7186-31.1171C102.985-28.984 106.773-30.8421 107.844-33.8345C108.906-36.5221 108.157-39.7429 104.487-41.6178L89.6739-49.1812L87.2444-66.9068C85.9408-76.2648 75.529-82.0421 65.5361-76.8362L43.65-65.4424C33.4879-60.156 32.1039-48.6099 39.6673-41.0549L59.7503-21.1158L59.7503 7.02163C59.7503 10.2806 62.5099 13.0402 65.6165 13.0402ZM18.8436-24.8573C21.1926-20.7137 25.4251-19.5625 29.5855-20.464L42.194-23.232C43.9802-23.6341 45.1145-24.8657 45.1145-26.7323C45.1145-28.5184 43.8193-29.822 42.1052-30.1436L20.5493-33.8851C16.8966-34.5369 15.0301-31.6081 16.7358-28.5988ZM30.9155-23.3035L47.0541 24.3248L50.7349 23.1107L34.7656-24.4119ZM65.5276 32.7077C77.8353 32.7077 86.8794 23.5747 86.8794 11.3643C86.8794 3.69572 83.2572-2.67771 77.3494-6.50807L77.3494-1.66821C81.0065 1.54015 83.2245 6.24274 83.2245 11.3643C83.2245 21.0529 75.2967 28.9808 65.5276 28.9808C55.9999 28.9808 47.9196 20.8921 47.9196 11.3643C47.9196 6.17076 50.3789 1.30733 54.1165-1.98145L54.1165-6.59692C48.1918-2.93585 44.2563 3.6153 44.2563 11.3643C44.2563 23.5027 53.5501 32.7077 65.5276 32.7077ZM80.1765 23.411L84.0181 24.6252L100.149-23.2753C100.585-24.494 99.8906-25.4753 98.9599-25.7588C97.9234-26.0422 96.8402-25.5558 96.4128-24.2567ZM33.8945 29.9155C32.024 31.1892 32.6758 33.4275 34.4614 33.4275L96.5939 33.4275C98.2355 33.4275 98.8958 30.9649 97.2412 29.9155L83.9939 21.1755L71.8341 29.5769L59.3016 29.5769L47.0614 21.1755Z"/>
  </g>
  <g id="Ultralight-L" transform="matrix(1 0 0 1 497.883 1556)">
   <path d="M95.0811-77.7256C101.952-77.7256 107.635-83.404 107.635-90.2707C107.635-97.1418 101.952-102.825 95.0811-102.825C88.1295-102.825 82.4511-97.1418 82.4511-90.2707C82.4511-83.404 88.1295-77.7256 95.0811-77.7256ZM64.7632 12.4584C68.1229 12.4584 70.8392 9.73761 70.8392 6.54327L70.8392-23.5908C70.8392-25.0294 70.3612-26.3072 69.481-27.3481L55.895-44.057C55.0149-45.0935 55.3366-46.2953 56.373-46.8538L72.9211-55.4897C74.1184-56.1286 75.3157-55.6461 75.557-54.203L76.9956-44.057C77.3173-41.8188 78.595-40.2998 80.9941-39.098L97.2964-30.949C101.433-28.8806 105.209-30.7258 106.241-33.6923C107.277-36.3282 106.567-39.4196 102.975-41.2558L88.4327-48.69L86.0291-66.1182C84.7514-75.3081 74.5205-80.9819 64.6828-75.8665L43.1846-64.6796C33.1905-59.4837 31.8324-48.1315 39.2665-40.6929L59.0134-21.1158L59.0134 6.54327C59.0134 9.73761 61.7342 12.4584 64.7632 12.4584ZM18.8048-24.7926C21.128-20.7137 25.2829-19.6013 29.3528-20.4769L41.7415-23.1932C43.5018-23.5953 44.6232-24.7882 44.6232-26.6288C44.6232-28.3891 43.341-29.6668 41.6656-29.9885L20.4846-33.6653C16.8837-34.3042 15.043-31.4271 16.7229-28.4695ZM31.1095-23.0319L47.0412 23.9499L50.0109 22.9943L34.2355-23.9206ZM64.6873 31.4407C76.62 31.4407 85.2375 22.7472 85.2375 10.8859C85.2375 3.63108 81.9901-2.34157 76.509-6.09435L76.509-2.26293C80.2308 0.958356 82.5005 5.72559 82.5005 10.8859C82.5005 20.6392 74.521 28.6188 64.6873 28.6188C55.0948 28.6188 46.95 20.4784 46.95 10.8859C46.95 5.64068 49.461 0.712604 53.2632-2.58911L53.2632-6.17028C47.791-2.57384 44.2175 3.55066 44.2175 10.8859C44.2175 22.6623 53.0718 31.4407 64.6873 31.4407ZM79.1939 23.2041L82.3244 24.1597L98.5068-23.6632C98.8909-24.7396 98.2745-25.4495 97.5377-25.6683C96.7339-25.8871 95.8318-25.5299 95.4432-24.373ZM33.7135 29.2302C31.9981 30.4006 32.637 32.2898 34.1511 32.2898L95.2235 32.2898C96.5677 32.2898 97.2021 30.1503 95.7415 29.2302L82.8303 20.6972L70.9421 28.9175L58.5129 28.9175L46.5443 20.6972Z"/>
  </g>
  <g id="Black-M" transform="matrix(1 0 0 1 2879.31 1126)">
   <path d="M83.324-73.1571C90.1074-73.1571 95.6488-78.704 95.6488-85.4929C95.6488-92.2763 90.1074-97.8177 83.324-97.8177C76.5353-97.8177 70.9884-92.2763 70.9884-85.4929C70.9884-78.704 76.5353-73.1571 83.324-73.1571ZM56.5337 8.17228C60.1431 8.17228 63.0827 5.23809 63.0827 1.69071L63.0827-25.392C63.0827-26.9241 62.475-28.3317 61.5558-29.4897L49.4894-44.288C49.1411-44.7092 49.219-45.1925 49.6403-45.4058L64.0856-52.9373C64.5744-53.2129 65.006-53.0674 65.0788-52.5685L66.3825-43.6599C66.7459-41.2708 68.1535-39.5622 70.5529-38.3367L85.2736-30.9451C89.9387-28.6125 93.5576-30.4507 94.8979-33.395C96.2327-36.2724 95.4271-40.2417 91.3915-42.3192L78.7377-48.7394L76.7433-63.8185C75.5642-72.882 65.3997-78.4915 55.9575-73.552L36.5205-63.3712C26.834-58.3123 25.5354-47.213 32.755-40.056L50.1712-22.6963L50.1712 1.69071C50.1712 5.23809 53.0483 8.17228 56.5337 8.17228ZM15.0525-23.1347C17.3271-19.0732 21.6277-17.7848 25.7572-18.7095L36.9352-21.1353C39.002-21.561 40.3936-23.2543 40.3936-25.3835C40.3936-27.5645 38.8203-29.2004 36.7532-29.5638L17.6851-32.857C13.4892-33.5893 11.2458-29.9541 13.1933-26.4849ZM22.5969-24.4835L36.5679 17.2172L45.9282 13.8993L32.2015-27.3799ZM56.4088 27.2367C68.9398 27.2367 78.9384 17.1133 78.9384 4.76969C78.9384-3.8787 73.9926-11.4105 66.8237-15.1711L66.8237-1.39691C67.8922 0.347536 68.4158 2.39736 68.4158 4.76969C68.4158 11.5959 63.2973 16.7144 56.4088 16.7144C49.65 16.7144 44.4124 11.4713 44.4124 4.76969C44.4124 2.28345 45.1229 0.0519205 46.4251-1.81192L46.4251-15.296C39.0738-11.7226 33.9415-3.941 33.9415 4.76969C33.9415 17.1135 44.1895 27.2367 56.4088 27.2367ZM66.7757 14.6385L76.2606 17.7851L88.7048-20.3469C89.5521-22.8782 88.2785-25.9576 85.6318-26.7429C82.9063-27.5853 80.1976-26.0199 79.4128-23.5975ZM27.2155 20.096C24.0089 22.1593 25.0838 27.2339 28.9574 27.2339L83.8601 27.2339C87.7343 27.2339 88.7576 22.1546 85.6072 20.096L72.7447 11.7428L61.3476 19.5503L51.5322 19.5503L40.0728 11.7428Z"/>
  </g>
  <g id="Heavy-M" transform="matrix(1 0 0 1 2583.31 1126)">
   <path d="M82.139-72.6931C88.7082-72.6931 94.0591-78.0604 94.0591-84.646C94.0591-91.2152 88.7082-96.5661 82.139-96.5661C75.5511-96.5661 70.1838-91.2152 70.1838-84.646C70.1838-78.0604 75.5511-72.6931 82.139-72.6931ZM55.8933 7.23526C59.3173 7.23526 62.112 4.45697 62.112 1.09755L62.112-25.6378C62.112-27.0974 61.5473-28.4325 60.671-29.5206L48.7205-44.1683C48.2805-44.7057 48.3988-45.3077 48.9363-45.5858L63.2849-53.0623C63.9033-53.4026 64.4781-53.2033 64.5778-52.5452L65.8629-43.6884C66.1994-41.4149 67.5344-39.8057 69.8454-38.6366L84.3725-31.343C88.8233-29.1176 92.2915-30.8723 93.5433-33.6903C94.7787-36.4227 93.9942-40.1508 90.176-42.1129L77.5759-48.5075L75.5867-63.5143C74.4262-72.2885 64.6074-77.7159 55.4384-72.9156L36.2668-62.8834C26.8695-57.9772 25.603-47.2262 32.6084-40.2809L49.8638-23.0736L49.8638 1.09755C49.8638 4.45697 52.5984 7.23526 55.8933 7.23526ZM14.9775-24.1459C17.1661-20.232 21.2896-19.0052 25.28-19.8978L36.3067-22.3C38.2337-22.6987 39.5149-24.2496 39.5149-26.2389C39.5149-28.2531 38.0654-29.7626 36.1407-30.0991L17.322-33.3525C13.4057-34.0418 11.3292-30.6863 13.1503-27.443ZM22.7566-25.0631L36.5519 16.0381L44.9631 13.0678L31.396-27.6601ZM55.771 25.962C67.9045 25.962 77.5491 16.195 77.5491 4.24389C77.5491-4.10708 72.7988-11.3575 65.8894-14.995L65.8894-2.7542C67.3211-0.845501 68.084 1.52702 68.084 4.24389C68.084 11.1773 62.7666 16.4946 55.771 16.4946C48.9186 16.4946 43.493 11.0526 43.493 4.24389C43.493 1.43751 44.4428-1.10325 46.0677-3.11787L46.0677-15.1173C38.9946-11.6645 34.0551-4.16938 34.0551 4.24389C34.0551 16.1928 43.9467 25.962 55.771 25.962ZM66.487 13.7622L75.0228 16.6016L87.4368-21.3533C88.2066-23.6275 87.0426-26.3836 84.6903-27.0888C82.2264-27.8376 79.8095-26.4459 79.0998-24.2403ZM27.1393 19.5158C24.2194 21.4104 25.1704 25.9848 28.6805 25.9848L82.8614 25.9848C86.3669 25.9848 87.2908 21.3872 84.4213 19.5158L71.8947 11.3652L60.74 19.0156L50.8642 19.0156L39.6472 11.3652Z"/>
  </g>
  <g id="Bold-M" transform="matrix(1 0 0 1 2287.41 1126)">
   <path d="M80.8135-72.174C87.1431-72.174 92.2808-77.3404 92.2808-83.6986C92.2808-90.0282 87.1431-95.166 80.8135-95.166C74.4501-95.166 69.2837-90.0282 69.2837-83.6986C69.2837-77.3404 74.4501-72.174 80.8135-72.174ZM55.1769 6.18707C58.3936 6.18707 61.0261 3.58317 61.0261 0.434001L61.0261-25.9127C61.0261-27.2913 60.5094-28.5453 59.6813-29.5551L47.8605-44.0344C47.3178-44.7018 47.4814-45.4366 48.1487-45.7871L62.3892-53.202C63.1526-53.6149 63.8875-53.3553 64.0173-52.5192L65.2817-43.7204C65.588-41.5759 66.842-40.078 69.0539-38.972L83.3645-31.7882C87.5757-29.6826 90.8752-31.344 92.028-34.0206C93.1521-36.5908 92.3913-40.0492 88.8164-41.8821L76.2763-48.2481L74.2929-63.174C73.1531-71.6247 63.7211-76.8483 54.8577-72.2036L35.9829-62.3378C26.9092-57.6024 25.6786-47.2409 32.4443-40.5324L49.5199-23.4957L49.5199 0.434001C49.5199 3.58317 52.0952 6.18707 55.1769 6.18707ZM14.8935-25.2772C16.986-21.5284 20.9115-20.3704 24.7461-21.2272L35.6036-23.6028C37.3742-23.9714 38.532-25.3629 38.532-27.1958C38.532-29.0234 37.221-30.3915 35.4556-30.6979L16.9158-33.9068C13.3124-34.5481 11.4225-31.5055 13.1022-28.5147ZM22.9351-25.7115L36.534 14.7191L43.8834 12.1377L30.4949-27.9734ZM55.0575 24.5362C66.7463 24.5362 75.9951 15.1679 75.9951 3.65571C75.9951-4.36255 71.4634-11.2982 64.8443-14.798L64.8443-4.27252C66.6822-2.18009 67.7128 0.553429 67.7128 3.65571C67.7128 10.7089 62.173 16.2487 55.0575 16.2487C48.1004 16.2487 42.4646 10.5843 42.4646 3.65571C42.4646 0.491199 43.682-2.39547 45.6679-4.57876L45.6679-14.9174C38.9059-11.5995 34.1822-4.42486 34.1822 3.65571C34.1822 15.1627 43.675 24.5362 55.0575 24.5362ZM66.1641 12.7819L73.6382 15.2777L86.0184-22.4792C86.7014-24.4657 85.6601-26.8603 83.6371-27.4758C81.4659-28.1198 79.3754-26.9226 78.7496-24.9595ZM27.054 18.8668C24.4548 20.5727 25.2674 24.5875 28.3707 24.5875L81.7443 24.5875C84.8373 24.5875 85.6499 20.5287 83.0947 18.8668L70.9439 10.9429L60.0603 18.4176L50.117 18.4176L39.171 10.9429Z"/>
  </g>
  <g id="Semibold-M" transform="matrix(1 0 0 1 1991.25 1126)">
   <path d="M79.8996-71.8161C86.064-71.8161 91.0549-76.844 91.0549-83.0455C91.0549-89.2098 86.064-94.2007 79.8996-94.2007C73.6911-94.2007 68.6632-89.2098 68.6632-83.0455C68.6632-76.844 73.6911-71.8161 79.8996-71.8161ZM54.6831 5.46445C57.7567 5.46445 60.2775 2.98078 60.2775-0.0234429L60.2775-26.1023C60.2775-27.4249 59.794-28.623 58.9989-29.5789L47.2676-43.9421C46.6541-44.699 46.8489-45.5254 47.6058-45.926L61.7717-53.2984C62.6351-53.7612 63.4804-53.46 63.631-52.5012L64.881-43.7424C65.1666-41.687 66.3646-40.2657 68.5083-39.2033L82.6696-32.0951C86.7156-30.0721 89.8989-31.6692 90.9833-34.2483C92.0308-36.7067 91.2863-39.9791 87.8791-41.7229L75.3804-48.0693L73.4009-62.9394C72.2755-71.167 63.1101-76.2501 54.4574-71.7128L35.7873-61.9617C26.9366-57.344 25.7307-47.2511 32.3312-40.7058L49.2828-23.7866L49.2828-0.0234429C49.2828 2.98078 51.7483 5.46445 54.6831 5.46445ZM14.8357-26.0571C16.8619-22.422 20.6508-21.3115 24.3781-22.1436L35.119-24.5009C36.7816-24.8487 37.8544-26.1305 37.8544-27.8555C37.8544-29.5544 36.6389-30.8251 34.9833-31.1106L16.6358-34.289C13.2481-34.8971 11.4868-32.0702 13.069-29.2536ZM23.0582-26.1585L36.5216 13.8098L43.1391 11.4964L29.8737-28.1895ZM54.5656 23.5532C65.9478 23.5532 74.9237 14.4598 74.9237 3.25023C74.9237-4.53868 70.5428-11.2573 64.1238-14.6621L64.1238-5.31925C66.2418-3.10014 67.4569-0.11776 67.4569 3.25023C67.4569 10.386 61.7637 16.0792 54.5656 16.0792C47.5363 16.0792 41.7555 10.2614 41.7555 3.25023C41.7555-0.161179 43.1575-3.28632 45.3922-5.5859L45.3922-14.7796C38.8448-11.5547 34.2698-4.60098 34.2698 3.25023C34.2698 14.4526 43.4878 23.5532 54.5656 23.5532ZM65.9415 12.1061L72.6837 14.365L85.0406-23.2554C85.6637-25.0435 84.707-27.1889 82.911-27.7425C80.9415-28.3144 79.0761-27.2512 78.5082-25.4552ZM26.9952 18.4193C24.6172 19.9952 25.3342 23.6242 28.1571 23.6242L80.9741 23.6242C83.7828 23.6242 84.5187 19.9369 82.1801 18.4193L70.2885 10.6517L59.5917 18.0053L49.6018 18.0053L38.8427 10.6517Z"/>
  </g>
  <g id="Medium-M" transform="matrix(1 0 0 1 1694.96 1126)">
   <path d="M79.2068-71.5448C85.2459-71.5448 90.1253-76.4677 90.1253-82.5502C90.1253-88.5894 85.2459-93.4688 79.2068-93.4688C73.1156-93.4688 68.1927-88.5894 68.1927-82.5502C68.1927-76.4677 73.1156-71.5448 79.2068-71.5448ZM54.3086 4.91654C57.2739 4.91654 59.7098 2.52402 59.7098-0.370296L59.7098-26.246C59.7098-27.5263 59.2515-28.682 58.4816-29.597L46.818-43.8721C46.1509-44.697 46.3693-45.5928 47.1942-46.0312L61.3035-53.3714C62.2427-53.8722 63.1717-53.5395 63.338-52.4876L64.5772-43.7591C64.847-41.7712 66.0026-40.4081 68.0946-39.3787L82.1427-32.3278C86.0634-30.3674 89.1585-31.9158 90.1913-34.4209C91.1806-36.7946 90.4484-39.9259 87.1683-41.6023L74.7011-47.9337L72.7246-62.7615C71.61-70.82 62.6468-75.7966 54.1538-71.3407L35.6389-61.6765C26.9574-57.148 25.7702-47.2588 32.2455-40.8373L49.103-24.0073L49.103-0.370296C49.103 2.52402 51.4852 4.91654 54.3086 4.91654ZM14.7918-26.6485C16.7677-23.0996 20.4531-22.0252 24.0991-22.8385L34.7515-25.1819C36.3324-25.514 37.3405-26.7125 37.3405-28.3556C37.3405-29.9571 36.1975-31.1539 34.6252-31.4236L16.4234-34.5787C13.1994-35.1617 11.5356-32.4984 13.0439-29.8138ZM23.1516-26.4974L36.5122 13.1204L42.5748 11.0102L29.4027-28.3533ZM54.1926 22.8078C65.3424 22.8078 74.1114 13.9228 74.1114 2.94277C74.1114-4.67222 69.8447-11.2264 63.5775-14.5591L63.5775-6.11292C65.9078-3.79776 67.2628-0.626684 67.2628 2.94277C67.2628 10.1412 61.4534 15.9506 54.1926 15.9506C47.1086 15.9506 41.2179 10.0166 41.2179 2.94277C41.2179-0.65584 42.7598-3.96181 45.1833-6.34954L45.1833-14.6751C38.7984-11.5207 34.3362-4.73452 34.3362 2.94277C34.3362 13.9142 43.3458 22.8078 54.1926 22.8078ZM65.7728 11.5936L71.9599 13.6729L84.2992-23.8439C84.8769-25.4816 83.9843-27.438 82.3604-27.9448C80.544-28.4619 78.8492-27.5003 78.3252-25.8311ZM26.9507 18.0801C24.7402 19.5573 25.3849 22.8938 27.9951 22.8938L80.3902 22.8938C82.9832 22.8938 83.661 19.4881 81.4867 18.0801L69.7915 10.4309L59.2364 17.6926L49.2112 17.6926L38.5938 10.4309Z"/>
  </g>
  <g id="Regular-M" transform="matrix(1 0 0 1 1398.8 1126)">
   <path d="M78.303-71.1909C84.1787-71.1909 88.9129-75.9768 88.9129-81.9043C88.9129-87.78 84.1787-92.5142 78.303-92.5142C72.3649-92.5142 67.579-87.78 67.579-81.9043C67.579-75.9768 72.3649-71.1909 78.303-71.1909ZM53.8202 4.20186C56.644 4.20186 58.9694 1.92824 58.9694-0.822713L58.9694-26.4335C58.9694-27.6585 58.5438-28.7589 57.8067-29.6206L46.2316-43.7808C45.4945-44.6943 45.7437-45.6806 46.6572-46.1685L60.6928-53.4667C61.7309-54.0169 62.769-53.6431 62.9559-52.4698L64.1809-43.7808C64.4301-41.881 65.5305-40.5937 67.5549-39.6074L81.4554-32.6313C85.2128-30.7526 88.1929-32.2374 89.1581-34.6461C90.0715-36.9092 89.3555-39.8566 86.2413-41.4449L73.815-47.7568L71.8424-62.5295C70.742-70.3674 62.0424-75.205 53.7579-70.8553L35.4454-61.3045C26.9845-56.8925 25.8218-47.2689 32.1337-41.0088L48.8685-24.295L48.8685-0.822713C48.8685 1.92824 51.1421 4.20186 53.8202 4.20186ZM14.7346-27.4198C16.6449-23.9835 20.1953-22.956 23.7351-23.7448L34.2721-26.0702C35.7463-26.3817 36.6703-27.4716 36.6703-29.0081C36.6703-30.4823 35.6217-31.5827 34.1581-31.8319L16.1465-34.9567C13.1357-35.5069 11.5992-33.0569 13.0111-30.5446ZM23.2733-26.9395L36.5 12.2211L41.8386 10.376L28.7883-28.5669ZM53.7062 21.8356C64.5527 21.8356 73.0518 13.2225 73.0518 2.54174C73.0518-4.84641 68.9342-11.1859 62.865-14.4248L62.865-7.14814C65.4722-4.70771 67.0097-1.2905 67.0097 2.54174C67.0097 9.82184 61.0486 15.783 53.7062 15.783C46.5507 15.783 40.5167 9.69723 40.5167 2.54174C40.5167-1.30105 42.2411-4.84287 44.9107-7.34561L44.9107-14.5388C38.738-11.4763 34.4228-4.90871 34.4228 2.54174C34.4228 13.2119 43.1606 21.8356 53.7062 21.8356ZM65.5526 10.9252L71.0159 12.7703L83.3321-24.6116C83.8506-26.0531 83.0417-27.763 81.6423-28.2087C80.0254-28.6543 78.5532-27.8253 78.0864-26.3214ZM26.8925 17.6376C24.9008 18.9862 25.451 21.9411 27.7839 21.9411L79.6285 21.9411C81.9403 21.9411 82.5422 18.9028 80.5821 17.6376L69.1432 10.1429L58.773 17.2848L48.7017 17.2848L38.2692 10.1429Z"/>
  </g>
  <g id="Light-M" transform="matrix(1 0 0 1 1103.06 1126)">
   <path d="M76.8657-70.2498C82.5703-70.2498 87.2018-74.9159 87.2018-80.6552C87.2018-86.3598 82.5703-90.9913 76.8657-90.9913C71.0987-90.9913 66.4326-86.3598 66.4326-80.6552C66.4326-74.9159 71.0987-70.2498 76.8657-70.2498ZM52.6909 3.43187C55.4463 3.43187 57.7032 1.20958 57.7032-1.45582L57.7032-26.365C57.7032-27.5558 57.2947-28.622 56.5747-29.4666L45.3247-43.2504C44.6047-44.1296 44.854-45.0988 45.7332-45.5696L59.3924-52.6796C60.3963-53.2127 61.4001-52.8389 61.587-51.6827L62.7778-43.2504C63.027-41.4019 64.0932-40.1489 66.0663-39.1796L79.5732-32.4089C83.1595-30.6157 86.1224-32.0834 87.0363-34.4579C87.9156-36.6526 87.2509-39.4289 84.2393-40.9658L72.1724-47.1066L70.234-61.4858C69.1678-69.1012 60.7078-73.8019 52.6286-69.5719L34.8294-60.295C26.5909-56.0027 25.4625-46.6358 31.6032-40.5297L47.8932-24.295L47.8932-1.45582C47.8932 1.20958 50.1155 3.43187 52.6909 3.43187ZM14.6832-27.3342C16.5593-23.9835 20.007-23.0073 23.4271-23.7619L33.6732-26.0189C35.1132-26.3304 36.0201-27.3689 36.0201-28.8712C36.0201-30.3112 34.9886-31.3773 33.5763-31.6266L16.0609-34.6658C13.1186-35.1989 11.6163-32.8173 12.994-30.3735ZM23.53-26.5801L36.4829 11.7249L40.8804 10.222L28.0868-27.9167ZM52.594 20.1588C62.9443 20.1588 70.8787 12.1274 70.8787 1.90864C70.8787-4.93196 67.2573-10.741 61.7528-13.8772L61.7528-7.93524C64.4456-5.4777 66.0515-1.97494 66.0515 1.90864C66.0515 9.27429 60.0219 15.3039 52.594 15.3039C45.3529 15.3039 39.2334 9.14968 39.2334 1.90864C39.2334-2.0026 41.0262-5.62997 43.7813-8.14982L43.7813-13.9742C38.2075-10.9972 34.3715-4.99427 34.3715 1.90864C34.3715 12.0997 42.5275 20.1588 52.594 20.1588ZM64.2522 10.6515L68.7743 12.1543L81.159-25.1249C81.6091-26.3782 80.9028-27.7288 79.7601-28.0889C78.4512-28.449 77.2185-27.7911 76.8031-26.4754ZM26.653 16.7307C24.8666 17.9424 25.3996 20.4354 27.3732 20.4354L77.8147 20.4354C79.733 20.4354 80.3007 17.8248 78.5973 16.7307L67.6032 9.50981L57.5923 16.4122L47.6579 16.4122L37.5847 9.50981Z"/>
  </g>
  <g id="Thin-M" transform="matrix(1 0 0 1 807.638 1126)">
   <path d="M74.9647-69.0051C80.443-69.0051 84.9387-73.5128 84.9387-79.0032C84.9387-84.4815 80.443-88.9772 74.9647-88.9772C69.4241-88.9772 64.9163-84.4815 64.9163-79.0032C64.9163-73.5128 69.4241-69.0051 74.9647-69.0051ZM51.1973 2.41349C53.8621 2.41349 56.0285 0.259099 56.0285-2.29315L56.0285-26.2745C56.0285-27.42 55.6427-28.4409 54.9453-29.2629L44.1253-42.5488C43.428-43.3828 43.6772-44.3294 44.5112-44.7776L57.6725-51.6386C58.6311-52.149 59.5897-51.7752 59.7766-50.6417L60.9221-42.5488C61.1713-40.7683 62.1922-39.5605 64.0974-38.6139L77.0838-32.1147C80.4438-30.4347 83.3841-31.8797 84.2301-34.209C85.0641-36.3131 84.4673-38.8631 81.5916-40.3321L69.9998-46.2466L68.1067-60.1053C67.0858-67.4265 58.9426-71.9462 51.135-67.8746L34.0147-58.9598C26.0704-54.8259 24.9872-45.7985 30.9017-39.896L46.6032-24.295L46.6032-2.29315C46.6032 0.259099 48.7576 2.41349 51.1973 2.41349ZM14.6153-27.2211C16.4462-23.9835 19.7581-23.0752 23.0197-23.7846L32.8812-25.951C34.2759-26.2625 35.1602-27.2331 35.1602-28.6901C35.1602-30.0849 34.1513-31.1058 32.8068-31.355L15.9478-34.2811C13.096-34.7915 11.639-32.5005 12.9714-30.1472ZM23.8694-26.1049L36.4603 11.0686L39.6131 10.0184L27.1589-27.0568ZM51.123 17.941C60.817 17.941 68.0046 10.679 68.0046 1.0713C68.0046-5.04512 65.0395-10.1526 60.2818-13.153L60.2818-8.97625C63.0877-6.49608 64.7842-2.88016 64.7842 1.0713C64.7842 8.55011 58.6641 14.6702 51.123 14.6702C43.7688 14.6702 37.5361 8.4255 37.5361 1.0713C37.5361-2.93045 39.4195-6.67098 42.2877-9.21346L42.2877-13.2274C37.506-10.3636 34.3036-5.10742 34.3036 1.0713C34.3036 10.6287 41.6902 17.941 51.123 17.941ZM62.5323 10.2894L65.8097 11.3396L78.2849-25.8038C78.6445-26.8082 78.074-27.6835 77.2707-27.9305C76.3692-28.1774 75.4534-27.7458 75.1058-26.6791ZM26.3361 15.5313C24.8213 16.5619 25.3317 18.4439 26.8301 18.4439L75.4159 18.4439C76.8136 18.4439 77.3361 16.399 75.9721 15.5313L65.5664 8.67248L56.0308 15.258L46.2775 15.258L36.6795 8.67248Z"/>
  </g>
  <g id="Ultralight-M" transform="matrix(1 0 0 1 511.588 1126)">
   <path d="M73.991-68.3676C79.3534-68.3676 83.7796-72.7942 83.7796-78.157C83.7796-83.5194 79.3534-87.9456 73.991-87.9456C68.5663-87.9456 64.1397-83.5194 64.1397-78.157C64.1397-72.7942 68.5663-68.3676 73.991-68.3676ZM50.4323 1.89189C53.0507 1.89189 55.1708-0.227735 55.1708-2.72203L55.1708-26.2281C55.1708-27.3505 54.7965-28.3482 54.1108-29.1586L43.511-42.1895C42.8252-43.0003 43.0744-43.9353 43.8852-44.3719L56.7916-51.1054C57.727-51.6043 58.6624-51.2304 58.8493-50.1085L59.9716-42.1895C60.2208-40.4437 61.2186-39.2591 63.089-38.3241L75.8088-31.964C79.0528-30.3419 81.9816-31.7754 82.7928-34.0815C83.6036-36.1392 83.0416-38.5733 80.2354-40.0076L68.8871-45.8061L67.0171-59.3982C66.0194-66.5687 58.0385-70.9957 50.37-67.0053L33.5974-58.2759C25.8038-54.2232 24.7438-45.3696 30.5423-39.5715L45.9425-24.295L45.9425-2.72203C45.9425-0.227735 48.0622 1.89189 50.4323 1.89189ZM14.5806-27.1631C16.3882-23.9835 19.6306-23.11 22.8111-23.7962L32.4755-25.9162C33.847-26.2277 34.7197-27.1636 34.7197-28.5974C34.7197-29.969 33.7224-30.9667 32.4127-31.2159L15.8898-34.084C13.0844-34.5829 11.6506-32.3382 12.9598-30.0313ZM24.0433-25.8615L36.4487 10.7324L38.964 9.91404L26.6837-26.6163ZM50.3695 16.805C59.7274 16.805 66.5325 9.93719 66.5325 0.642426C66.5325-5.10307 63.9035-9.85127 59.5283-12.7821L59.5283-9.50945C62.3922-7.01768 64.1351-3.34381 64.1351 0.642426C64.1351 8.17919 57.9686 14.3457 50.3695 14.3457C42.9574 14.3457 36.6667 8.05458 36.6667 0.642426C36.6667-3.4057 38.5965-7.20418 41.5227-9.75825L41.5227-12.8448C37.1466-10.039 34.2688-5.16538 34.2688 0.642426C34.2688 9.8753 41.2613 16.805 50.3695 16.805ZM61.6513 10.1039L64.2913 10.9223L76.8128-26.1515C77.126-27.0284 76.6251-27.6603 75.9957-27.8493C75.3028-28.0384 74.5492-27.7226 74.2364-26.7834ZM26.1739 14.9169C24.7981 15.8549 25.297 17.4238 26.5519 17.4238L74.1872 17.4238C75.3184 17.4238 75.8176 15.6688 74.6275 14.9169L64.5232 8.2436L55.231 14.6669L45.5704 14.6669L36.2159 8.2436Z"/>
  </g>
  <g id="Black-S" transform="matrix(1 0 0 1 2890.85 696)">
   <path d="M65.5762-65.0391C70.9473-65.0391 75.3418-69.4336 75.3418-74.8047C75.3418-80.1758 70.9473-84.5703 65.5762-84.5703C60.2051-84.5703 55.8105-80.1758 55.8105-74.8047C55.8105-69.4336 60.2051-65.0391 65.5762-65.0391ZM44.4336-0.976562C47.3145-0.976562 49.6582-3.32031 49.6582-6.15234L49.6582-27.4414C49.6582-28.6621 49.1699-29.7852 48.4375-30.7129L38.9648-42.334C38.7207-42.627 38.7695-42.9688 39.0625-43.1152L50.3906-49.0234C50.7324-49.2188 51.0254-49.1211 51.0742-48.7793L52.0996-41.7969C52.3926-39.8926 53.5156-38.5254 55.4199-37.5488L66.9922-31.7383C70.7031-29.8828 73.584-31.3477 74.6582-33.6914C75.7324-35.9863 75.0977-39.1602 71.875-40.8203L61.9629-45.8496L60.4004-57.666C59.4727-64.8438 51.416-69.2871 43.9453-65.3809L28.6621-57.373C20.9961-53.3691 19.9707-44.5801 25.6836-38.916L39.3555-25.293L39.3555-6.15234C39.3555-3.32031 41.6504-0.976562 44.4336-0.976562ZM11.8164-25.4395C13.623-22.2168 17.041-21.1914 20.3125-21.9238L29.1016-23.8281C30.7617-24.1699 31.8848-25.5371 31.8848-27.2461C31.8848-29.0039 30.6152-30.3223 28.9551-30.6152L13.9648-33.2031C10.5957-33.7891 8.78906-30.8594 10.3516-28.0762ZM17.6758-26.6113L28.6621 6.20117L36.2305 3.51562L25.4395-28.9551ZM44.3359 14.0137C54.248 14.0137 62.1582 6.00586 62.1582-3.75977C62.1582-10.5957 58.252-16.5527 52.5879-19.5312L52.5879-8.34961C53.3203-7.03125 53.6621-5.51758 53.6621-3.75977C53.6621 1.5625 49.707 5.51758 44.3359 5.51758C39.0625 5.51758 35.0098 1.46484 35.0098-3.75977C35.0098-5.61523 35.498-7.27539 36.4258-8.69141L36.4258-19.6289C30.6152-16.7969 26.5625-10.6445 26.5625-3.75977C26.5625 6.00586 34.668 14.0137 44.3359 14.0137ZM52.3438 4.10156L60.0098 6.64062L69.7754-23.291C70.459-25.3418 69.4336-27.832 67.2852-28.4668C65.0879-29.1504 62.8906-27.8809 62.2559-25.9277ZM21.3379 8.25195C18.75 9.91211 19.6289 14.0137 22.7539 14.0137L65.918 14.0137C69.043 14.0137 69.873 9.91211 67.334 8.25195L57.1777 1.66016L48.1934 7.8125L40.5273 7.8125L31.4941 1.66016Z"/>
  </g>
  <g id="Heavy-S" transform="matrix(1 0 0 1 2594.62 696)">
   <path d="M64.7464-64.7625C69.9562-64.7625 74.2009-69.0187 74.2009-74.24C74.2009-79.4497 69.9562-83.6945 64.7464-83.6945C59.5251-83.6945 55.2689-79.4497 55.2689-74.24C55.2689-69.0187 59.5251-64.7625 64.7464-64.7625ZM44.0302-1.67955C46.7613-1.67955 48.9898-3.89654 48.9898-6.57875L48.9898-27.6604C48.9898-28.8235 48.5361-29.8889 47.8382-30.759L38.4232-42.2994C38.0984-42.6961 38.1818-43.1416 38.5785-43.3457L49.872-49.2309C50.3291-49.4838 50.7488-49.3401 50.8207-48.86L51.8345-41.8891C52.1045-40.077 53.1699-38.7905 55.005-37.86L66.4621-32.1071C70.0117-30.3323 72.7657-31.728 73.7708-33.968C74.7644-36.1477 74.1411-39.1371 71.0913-40.7051L61.1792-45.7344L59.6167-57.5392C58.7005-64.498 50.9089-68.8031 43.6457-65.0006L28.5238-57.0849C21.0768-53.1963 20.0744-44.6723 25.626-39.1696L39.2172-25.6157L39.2172-6.57875C39.2172-3.89654 41.3969-1.67955 44.0302-1.67955ZM11.7588-26.3153C13.4963-23.2079 16.776-22.2286 19.9437-22.938L28.6406-24.8308C30.1855-25.1495 31.2163-26.4014 31.2163-27.9952C31.2163-29.6147 30.0505-30.8293 28.5056-31.0993L13.6652-33.6641C10.5266-34.2155 8.85821-31.5163 10.317-28.9175ZM17.7795-27.153L28.6506 5.25617L35.5275 2.82416L24.8402-29.2778ZM43.9326 13.1378C53.5681 13.1378 61.2478 5.36049 61.2478-4.12855C61.2478-10.7801 57.4452-16.5643 51.931-19.4506L51.931-9.40986C52.9631-7.95321 53.5008-6.17447 53.5008-4.12855C53.5008 1.27439 49.3843 5.39081 43.9326 5.39081C38.59 5.39081 34.3874 1.17673 34.3874-4.12855C34.3874-6.24908 35.0716-8.16277 36.2644-9.70556L36.2644-19.5482C30.6152-16.8084 26.6662-10.8289 26.6662-4.12855C26.6662 5.36049 34.5412 13.1378 43.9326 13.1378ZM52.2631 3.38705L59.2376 5.70714L68.9687-24.0862C69.5946-25.9411 68.6499-28.2008 66.7205-28.778C64.7076-29.3924 62.7293-28.2496 62.1521-26.4579ZM21.3033 7.87165C18.9344 9.40503 19.7096 13.1378 22.5695 13.1378L65.2956 13.1378C68.1556 13.1378 68.905 9.39351 66.5734 7.87165L56.6476 1.41814L47.8246 7.46677L40.0894 7.46677L31.2176 1.41814Z"/>
  </g>
  <g id="Bold-S" transform="matrix(1 0 0 1 2298.46 696)">
   <path d="M63.8184-64.4531C68.8477-64.4531 72.9248-68.5547 72.9248-73.6084C72.9248-78.6377 68.8477-82.7148 63.8184-82.7148C58.7646-82.7148 54.6631-78.6377 54.6631-73.6084C54.6631-68.5547 58.7646-64.4531 63.8184-64.4531ZM43.5791-2.46582C46.1426-2.46582 48.2422-4.54102 48.2422-7.05566L48.2422-27.9053C48.2422-29.0039 47.8271-30.0049 47.168-30.8105L37.8174-42.2607C37.4023-42.7734 37.5244-43.335 38.0371-43.6035L49.292-49.4629C49.8779-49.7803 50.4395-49.585 50.5371-48.9502L51.5381-41.9922C51.7822-40.2832 52.7832-39.0869 54.541-38.208L65.8691-32.5195C69.2383-30.835 71.8506-32.1533 72.7783-34.2773C73.6816-36.3281 73.0713-39.1113 70.2148-40.5762L60.3027-45.6055L58.7402-57.3975C57.8369-64.1113 50.3418-68.2617 43.3105-64.5752L28.3691-56.7627C21.167-53.0029 20.1904-44.7754 25.5615-39.4531L39.0625-25.9766L39.0625-7.05566C39.0625-4.54102 41.1133-2.46582 43.5791-2.46582ZM11.6943-27.2949C13.3545-24.3164 16.4795-23.3887 19.5312-24.0723L28.125-25.9521C29.541-26.2451 30.4688-27.3682 30.4688-28.833C30.4688-30.2979 29.4189-31.3965 28.0029-31.6406L13.3301-34.1797C10.4492-34.6924 8.93555-32.251 10.2783-29.8584ZM17.8955-27.7588L28.6377 4.19922L34.7412 2.05078L24.1699-29.6387ZM43.4814 12.1582C52.8076 12.1582 60.2295 4.63867 60.2295-4.54102C60.2295-10.9863 56.543-16.5771 51.1963-19.3604L51.1963-10.5957C52.5635-8.98438 53.3203-6.90918 53.3203-4.54102C53.3203 0.952148 49.0234 5.24902 43.4814 5.24902C38.0615 5.24902 33.6914 0.854492 33.6914-4.54102C33.6914-6.95801 34.5947-9.15527 36.084-10.8398L36.084-19.458C30.6152-16.8213 26.7822-11.0352 26.7822-4.54102C26.7822 4.63867 34.3994 12.1582 43.4814 12.1582ZM52.1729 2.58789L58.374 4.66309L68.0664-24.9756C68.6279-26.6113 67.7734-28.6133 66.0889-29.126C64.2822-29.6631 62.5488-28.6621 62.0361-27.0508ZM21.2646 7.44629C19.1406 8.83789 19.7998 12.1582 22.3633 12.1582L64.5996 12.1582C67.1631 12.1582 67.8223 8.81348 65.7227 7.44629L56.0547 1.14746L47.4121 7.08008L39.5996 7.08008L30.9082 1.14746Z"/>
  </g>
  <g id="Semibold-S" transform="matrix(1 0 0 1 2002.13 696)">
   <path d="M63.1785-64.2398C68.0834-64.2398 72.045-68.2348 72.045-73.1729C72.045-78.0778 68.0834-82.0395 63.1785-82.0395C58.2403-82.0395 54.2454-78.0778 54.2454-73.1729C54.2454-68.2348 58.2403-64.2398 63.1785-64.2398ZM43.2681-3.00791C45.716-3.00791 47.7268-4.98535 47.7268-7.38447L47.7268-28.0741C47.7268-29.1283 47.3384-30.0849 46.7059-30.8461L37.3997-42.2341C36.9225-42.8268 37.0712-43.4683 37.6639-43.7812L48.8921-49.6229C49.5669-49.9847 50.2262-49.7538 50.3416-49.0124L51.3337-42.0633C51.5601-40.4254 52.5166-39.2913 54.2211-38.4479L65.4604-32.8039C68.7051-31.1815 71.2196-32.4466 72.094-34.4906C72.9352-36.4525 72.3337-39.0936 69.6105-40.4873L59.6984-45.5166L58.1359-57.2997C57.2415-63.8447 49.9508-67.8885 43.0795-64.2819L28.2625-56.5405C21.2292-52.8696 20.2704-44.8465 25.5171-39.6486L38.9559-26.2254L38.9559-7.38447C38.9559-4.98535 40.9178-3.00791 43.2681-3.00791ZM11.6499-27.9703C13.2567-25.0807 16.2751-24.1885 19.2469-24.8543L27.7695-26.7253C29.0967-27.0005 29.9533-28.0347 29.9533-29.4106C29.9533-30.7688 28.9835-31.7875 27.6563-32.0139L13.099-34.5352C10.3959-35.0212 8.98887-32.7575 10.2517-30.5071ZM17.9755-28.1765L28.6288 3.47051L34.1991 1.51758L23.7078-29.8875ZM43.1704 11.4828C52.2833 11.4828 59.5274 4.14102 59.5274-4.82539C59.5274-11.1285 55.9209-16.586 50.6897-19.2981L50.6897-11.4133C52.288-9.69531 53.1959-7.41572 53.1959-4.82539C53.1959 0.72998 48.7746 5.15127 43.1704 5.15127C37.6972 5.15127 33.2115 0.632324 33.2115-4.82539C33.2115-7.44678 34.2659-9.83955 35.9596-11.6219L35.9596-19.3958C30.6152-16.8302 26.8622-11.1773 26.8622-4.82539C26.8622 4.14102 34.3017 11.4828 43.1704 11.4828ZM52.1106 2.03691L57.7786 3.94326L67.4443-25.5888C67.9614-27.0734 67.1691-28.8977 65.6534-29.3659C63.989-29.8497 62.4244-28.9465 61.9562-27.4596ZM21.238 7.15303C19.2828 8.44688 19.862 11.4828 22.2211 11.4828L64.1197 11.4828C66.4788 11.4828 67.0758 8.41357 65.1361 7.15303L55.6459 0.96084L47.1277 6.81348L39.2619 6.81348L30.6949 0.96084Z"/>
  </g>
  <g id="Medium-S" transform="matrix(1 0 0 1 1705.7 696)">
   <path d="M62.6934-64.0781C67.5039-64.0781 71.3779-67.9922 71.3779-72.8428C71.3779-77.6533 67.5039-81.5273 62.6934-81.5273C57.8428-81.5273 53.9287-77.6533 53.9287-72.8428C53.9287-67.9922 57.8428-64.0781 62.6934-64.0781ZM43.0322-3.41895C45.3926-3.41895 47.3359-5.32227 47.3359-7.63379L47.3359-28.2021C47.3359-29.2227 46.9678-30.1455 46.3555-30.873L37.083-42.2139C36.5586-42.8672 36.7275-43.5693 37.3809-43.916L48.5889-49.7441C49.3311-50.1396 50.0645-49.8818 50.1934-49.0596L51.1787-42.1172C51.3916-40.5332 52.3145-39.4463 53.9785-38.6299L65.1504-33.0195C68.3008-31.4443 70.7412-32.6689 71.5752-34.6523C72.3691-36.5469 71.7744-39.0801 69.1523-40.4199L59.2402-45.4492L57.6777-57.2256C56.79-63.6426 49.6543-67.6055 42.9043-64.0596L28.1816-56.3721C21.2764-52.7686 20.3311-44.9004 25.4834-39.7969L38.875-26.4141L38.875-7.63379C38.875-5.32227 40.7695-3.41895 43.0322-3.41895ZM11.6162-28.4824C13.1826-25.6602 16.1201-24.7949 19.0312-25.4473L27.5-27.3115C28.7598-27.5732 29.5625-28.54 29.5625-29.8486C29.5625-31.126 28.6533-32.084 27.3936-32.2969L12.9238-34.8047C10.3555-35.2705 9.0293-33.1416 10.2314-30.999ZM18.0361-28.4932L28.6221 2.91797L33.7881 1.11328L23.3574-30.0762ZM42.9346 10.9707C51.8857 10.9707 58.9951 3.76367 58.9951-5.04102C58.9951-11.2363 55.4492-16.5928 50.3057-19.251L50.3057-12.0332C52.0791-10.2344 53.1016-7.7998 53.1016-5.04102C53.1016 0.561523 48.5859 5.07715 42.9346 5.07715C37.4209 5.07715 32.8477 0.463867 32.8477-5.04102C32.8477-7.81738 34.0166-10.3584 35.8652-12.2148L35.8652-19.3486C30.6152-16.8369 26.9229-11.2852 26.9229-5.04102C26.9229 3.76367 34.2275 10.9707 42.9346 10.9707ZM52.0635 1.61914L57.3271 3.39746L66.9727-26.0537C67.4561-27.4238 66.7109-29.1133 65.3232-29.5479C63.7666-29.9912 62.3301-29.1621 61.8955-27.7695ZM21.2178 6.93066C19.3906 8.15039 19.9092 10.9707 22.1133 10.9707L63.7559 10.9707C65.96 10.9707 66.5098 8.11035 64.6914 6.93066L55.3359 0.819336L46.9121 6.61133L39.0059 6.61133L30.5332 0.819336Z"/>
  </g>
  <g id="Regular-S" transform="matrix(1 0 0 1 1409.37 696)">
   <path d="M62.0605-63.8672C66.748-63.8672 70.5078-67.6758 70.5078-72.4121C70.5078-77.0996 66.748-80.8594 62.0605-80.8594C57.3242-80.8594 53.5156-77.0996 53.5156-72.4121C53.5156-67.6758 57.3242-63.8672 62.0605-63.8672ZM42.7246-3.95508C44.9707-3.95508 46.8262-5.76172 46.8262-7.95898L46.8262-28.3691C46.8262-29.3457 46.4844-30.2246 45.8984-30.9082L36.6699-42.1875C36.084-42.9199 36.2793-43.7012 37.0117-44.0918L48.1934-49.9023C49.0234-50.3418 49.8535-50.0488 50-49.1211L50.9766-42.1875C51.1719-40.6738 52.0508-39.6484 53.6621-38.8672L64.7461-33.3008C67.7734-31.7871 70.1172-32.959 70.8984-34.8633C71.6309-36.6699 71.0449-39.0625 68.5547-40.332L58.6426-45.3613L57.0801-57.1289C56.2012-63.3789 49.2676-67.2363 42.6758-63.7695L28.0762-56.1523C21.3379-52.6367 20.4102-44.9707 25.4395-39.9902L38.7695-26.6602L38.7695-7.95898C38.7695-5.76172 40.5762-3.95508 42.7246-3.95508ZM11.5723-29.1504C13.0859-26.416 15.918-25.5859 18.75-26.2207L27.1484-28.0762C28.3203-28.3203 29.0527-29.1992 29.0527-30.4199C29.0527-31.5918 28.2227-32.4707 27.0508-32.666L12.6953-35.1562C10.3027-35.5957 9.08203-33.6426 10.2051-31.6406ZM18.1152-28.9062L28.6133 2.19727L33.252 0.585938L22.9004-30.3223ZM42.627 10.3027C51.3672 10.3027 58.3008 3.27148 58.3008-5.32227C58.3008-11.377 54.834-16.6016 49.8047-19.1895L49.8047-12.8418C51.8066-10.9375 52.9785-8.30078 52.9785-5.32227C52.9785 0.341797 48.3398 4.98047 42.627 4.98047C37.0605 4.98047 32.373 0.244141 32.373-5.32227C32.373-8.30078 33.6914-11.0352 35.7422-12.9883L35.7422-19.2871C30.6152-16.8457 27.002-11.4258 27.002-5.32227C27.002 3.27148 34.1309 10.3027 42.627 10.3027ZM52.002 1.07422L56.7383 2.68555L66.3574-26.6602C66.7969-27.8809 66.1133-29.3945 64.8926-29.7852C63.4766-30.1758 62.207-29.4434 61.8164-28.1738ZM21.1914 6.64062C19.5312 7.76367 19.9707 10.3027 21.9727 10.3027L63.2812 10.3027C65.2832 10.3027 65.7715 7.71484 64.1113 6.64062L54.9316 0.634766L46.6309 6.34766L38.6719 6.34766L30.3223 0.634766Z"/>
  </g>
  <g id="Light-S" transform="matrix(1 0 0 1 1113.52 696)">
   <path d="M60.7891-63.0347C65.3252-63.0347 68.9942-66.7373 68.9942-71.3071C68.9942-75.8433 65.3252-79.5122 60.7891-79.5122C56.2041-79.5122 52.5015-75.8433 52.5015-71.3071C52.5015-66.7373 56.2041-63.0347 60.7891-63.0347ZM41.7256-4.63623C43.9111-4.63623 45.7061-6.39746 45.7061-8.51904L45.7061-28.3086C45.7061-29.2549 45.3794-30.1035 44.8086-30.772L35.8677-41.7183C35.2969-42.4204 35.4922-43.1865 36.1943-43.562L47.043-49.2061C47.8428-49.6304 48.6426-49.3374 48.7891-48.4248L49.7354-41.7183C49.9307-40.25 50.7793-39.2549 52.3452-38.4888L63.0811-33.104C65.957-31.666 68.2857-32.8228 69.0215-34.6968C69.7236-36.4429 69.1831-38.6841 66.7837-39.9082L57.1895-44.7861L55.6572-56.2056C54.8086-62.2588 48.0869-65.9951 41.6768-62.6343L27.5313-55.2593C20.9897-51.8496 20.0923-44.4106 24.9702-39.5664L37.9067-26.6602L37.9067-8.51904C37.9067-6.39746 39.668-4.63623 41.7256-4.63623ZM11.5269-29.0747C13.0103-26.416 15.7515-25.6313 18.4775-26.2358L26.6187-28.0308C27.7603-28.2749 28.4775-29.1084 28.4775-30.2988C28.4775-31.4404 27.6626-32.2891 26.5361-32.4844L12.6196-34.8989C10.2876-35.3232 9.09717-33.4307 10.1899-31.4893ZM18.3423-28.5884L28.5981 1.7583L32.4043 0.449708L22.2798-29.7471ZM41.6431 8.81935C49.9443 8.81935 56.3784 2.30274 56.3784-5.88232C56.3784-11.4526 53.3506-16.208 48.8208-18.7051L48.8208-13.5381C50.8984-11.6186 52.1309-8.90625 52.1309-5.88232C52.1309-0.142574 47.4316 4.55664 41.6431 4.55664C36.001 4.55664 31.2378-0.240231 31.2378-5.88232C31.2378-8.92138 32.6167-11.7314 34.7432-13.6997L34.7432-18.7876C30.146-16.4219 26.9565-11.5015 26.9565-5.88232C26.9565 2.28761 33.5708 8.81935 41.6431 8.81935ZM50.8516 0.832033L54.7554 2.14063L64.4351-27.1143C64.814-28.1685 64.2212-29.3643 63.2276-29.6792C62.084-29.9941 61.0264-29.4131 60.6812-28.3101ZM20.9795 5.83839C19.501 6.84034 19.9253 8.97071 21.6094 8.97071L61.6768 8.97071C63.3306 8.97071 63.7886 6.76124 62.3555 5.83839L53.5693 0.0747114L45.5864 5.57569L37.7485 5.57569L29.7168 0.0747114Z"/>
  </g>
  <g id="Thin-S" transform="matrix(1 0 0 1 817.948 696)">
   <path d="M59.1074-61.9336C63.4434-61.9336 66.9922-65.4961 66.9922-69.8457C66.9922-74.1817 63.4434-77.7305 59.1074-77.7305C54.7227-77.7305 51.1602-74.1817 51.1602-69.8457C51.1602-65.4961 54.7227-61.9336 59.1074-61.9336ZM40.4043-5.5371C42.5098-5.5371 44.2246-7.23827 44.2246-9.25976L44.2246-28.2285C44.2246-29.1348 43.918-29.9434 43.3672-30.5918L34.8067-41.0977C34.2559-41.7598 34.4512-42.5059 35.1133-42.8613L45.5215-48.2852C46.2813-48.6895 47.041-48.3965 47.1875-47.5039L48.0938-41.0977C48.2891-39.6895 49.0977-38.7344 50.6035-37.9883L60.8789-32.8438C63.5547-31.5059 65.8633-32.6426 66.5391-34.4766C67.2012-36.1426 66.7207-38.1836 64.4414-39.3477L55.2676-44.0254L53.7754-54.9844C52.9668-60.7774 46.5254-64.3535 40.3555-61.1328L26.8106-54.0781C20.5293-50.8086 19.6719-43.6699 24.3496-39.0059L36.7656-26.6602L36.7656-9.25976C36.7656-7.23827 38.4668-5.5371 40.4043-5.5371ZM11.4668-28.9746C12.9102-26.416 15.5313-25.6914 18.1172-26.2559L25.918-27.9707C27.0195-28.2148 27.7168-28.9883 27.7168-30.1387C27.7168-31.2402 26.9219-32.0488 25.8555-32.2441L12.5195-34.5586C10.2676-34.9629 9.11719-33.1504 10.1699-31.2891ZM18.6426-28.168L28.5781 1.17774L31.2832 0.269534L21.459-28.9863ZM40.3418 6.85745C48.0625 6.85745 53.836 1.0215 53.836-6.62304C53.836-11.5527 51.3887-15.6875 47.5195-18.0645L47.5195-14.459C49.6973-12.5195 51.0098-9.70702 51.0098-6.62304C51.0098-0.783194 46.2305 3.9961 40.3418 3.9961C34.5996 3.9961 29.7363-0.880851 29.7363-6.62304C29.7363-9.74218 31.1953-12.6523 33.4219-14.6406L33.4219-18.127C29.5254-15.8613 26.8965-11.6016 26.8965-6.62304C26.8965 0.986346 32.8301 6.85745 40.3418 6.85745ZM49.3301 0.511723L52.1328 1.41993L61.8926-27.7148C62.1914-28.5488 61.7188-29.3242 61.0254-29.5391C60.2422-29.7539 59.4649-29.373 59.1797-28.4902ZM20.6992 4.77736C19.4609 5.61916 19.8652 7.20901 21.1289 7.20901L59.5547 7.20901C60.7481 7.20901 61.1661 5.50002 60.0332 4.77736L51.7676-0.666005L44.2051 4.5547L36.5274 4.5547L28.916-0.666005Z"/>
  </g>
  <g id="Ultralight-S" transform="matrix(1 0 0 1 521.821 696)">
   <path d="M58.2461-61.3696C62.4795-61.3696 65.9668-64.8604 65.9668-69.0972C65.9668-73.3306 62.4795-76.8179 58.2461-76.8179C53.9639-76.8179 50.4732-73.3306 50.4732-69.0972C50.4732-64.8604 53.9639-61.3696 58.2461-61.3696ZM39.7276-5.99852C41.792-5.99852 43.4658-7.66893 43.4658-9.63915L43.4658-28.1875C43.4658-29.0732 43.1695-29.8613 42.6289-30.4995L34.2632-40.7798C33.7227-41.4214 33.918-42.1572 34.5596-42.5025L44.7422-47.8135C45.4815-48.2075 46.2207-47.9146 46.3672-47.0322L47.253-40.7798C47.4483-39.4024 48.2364-38.4678 49.7115-37.7319L59.751-32.7105C62.3243-31.4238 64.6226-32.5503 65.2676-34.3638C65.9092-35.9888 65.4595-37.9273 63.2417-39.0606L54.2832-43.6358L52.8116-54.3589C52.0235-60.0186 45.7256-63.5127 39.6787-60.3638L26.4414-53.4732C20.2935-50.2754 19.4566-43.2905 24.0317-38.7188L36.1812-26.6602L36.1812-9.63915C36.1812-7.66893 37.8516-5.99852 39.7276-5.99852ZM11.436-28.9233C12.8589-26.416 15.4185-25.7222 17.9326-26.2661L25.5591-27.9399C26.6401-28.1841 27.3272-28.9268 27.3272-30.0566C27.3272-31.1377 26.5425-31.9258 25.5068-32.1211L12.4683-34.3843C10.2573-34.7783 9.12744-33.0068 10.1597-31.1865ZM18.7964-27.9526L28.5679 0.880381L30.709 0.177249L21.0386-28.5967ZM39.6753 5.85257C47.0987 5.85257 52.5337 0.365257 52.5337-7.00243C52.5337-11.604 50.3838-15.4209 46.8531-17.7363L46.8531-14.9306C49.0821-12.9809 50.4356-10.1172 50.4356-7.00243C50.4356-1.11132 45.6153 3.70899 39.6753 3.70899C33.8819 3.70899 28.9673-1.20897 28.9673-7.00243C28.9673-10.1626 30.4673-13.124 32.7451-15.1225L32.7451-17.7886C29.2075-15.5742 26.8657-11.6528 26.8657-7.00243C26.8657 0.319847 32.4507 5.85257 39.6753 5.85257ZM48.5508 0.347662L50.7896 1.05079L60.5904-28.0225C60.8482-28.7436 60.4371-29.3037 59.8975-29.4673C59.2989-29.6309 58.6651-29.3525 58.4107-28.5825ZM20.5557 4.23391C19.4404 4.99367 19.8345 6.30667 20.8828 6.30667L58.4678 6.30667C59.4253 6.30667 59.8228 4.85403 58.8438 4.23391L50.8448-1.0454L43.4976 4.03176L35.9019 4.03176L28.5059-1.0454Z"/>
  </g>
 </g>
</svg>
