<?xml version="1.0" encoding="UTF-8"?>
<!--Generator: Apple Native CoreSVG 175.5-->
<!DOCTYPE svg
PUBLIC "-//W3C//DTD SVG 1.1//EN"
       "http://www.w3.org/Graphics/SVG/1.1/DTD/svg11.dtd">
<svg version="1.1" xmlns="http://www.w3.org/2000/svg" xmlns:xlink="http://www.w3.org/1999/xlink" width="3300" height="2200">
 <!--glyph: "uni101518.medium", point size: 100.0, font version: "18.0d11e1", template writer version: "90"-->
 <g id="Notes">
  <rect height="2200" id="artboard" style="fill:white;opacity:1" width="3300" x="0" y="0"/>
  <line style="fill:none;stroke:black;opacity:1;stroke-width:0.5;" x1="263" x2="3036" y1="292" y2="292"/>
  <text style="stroke:none;fill:black;font-family:sans-serif;font-size:13;font-weight:bold;" transform="matrix(1 0 0 1 263 322)">Weight/Scale Variations</text>
  <text style="stroke:none;fill:black;font-family:sans-serif;font-size:13;text-anchor:middle;" transform="matrix(1 0 0 1 559.711 322)">Ultralight</text>
  <text style="stroke:none;fill:black;font-family:sans-serif;font-size:13;text-anchor:middle;" transform="matrix(1 0 0 1 856.422 322)">Thin</text>
  <text style="stroke:none;fill:black;font-family:sans-serif;font-size:13;text-anchor:middle;" transform="matrix(1 0 0 1 1153.13 322)">Light</text>
  <text style="stroke:none;fill:black;font-family:sans-serif;font-size:13;text-anchor:middle;" transform="matrix(1 0 0 1 1449.84 322)">Regular</text>
  <text style="stroke:none;fill:black;font-family:sans-serif;font-size:13;text-anchor:middle;" transform="matrix(1 0 0 1 1746.56 322)">Medium</text>
  <text style="stroke:none;fill:black;font-family:sans-serif;font-size:13;text-anchor:middle;" transform="matrix(1 0 0 1 2043.27 322)">Semibold</text>
  <text style="stroke:none;fill:black;font-family:sans-serif;font-size:13;text-anchor:middle;" transform="matrix(1 0 0 1 2339.98 322)">Bold</text>
  <text style="stroke:none;fill:black;font-family:sans-serif;font-size:13;text-anchor:middle;" transform="matrix(1 0 0 1 2636.69 322)">Heavy</text>
  <text style="stroke:none;fill:black;font-family:sans-serif;font-size:13;text-anchor:middle;" transform="matrix(1 0 0 1 2933.4 322)">Black</text>
  <line style="fill:none;stroke:black;opacity:1;stroke-width:0.5;" x1="263" x2="3036" y1="1903" y2="1903"/>
  <g transform="matrix(1 0 0 1 263 1933)">
   <path d="M9.24805 0.830078C13.5547 0.830078 17.1387-2.74414 17.1387-7.05078C17.1387-11.3574 13.5449-14.9316 9.23828-14.9316C4.94141-14.9316 1.36719-11.3574 1.36719-7.05078C1.36719-2.74414 4.95117 0.830078 9.24805 0.830078ZM9.24805-0.654297C5.70312-0.654297 2.87109-3.49609 2.87109-7.05078C2.87109-10.6055 5.69336-13.4473 9.23828-13.4473C12.793-13.4473 15.6445-10.6055 15.6445-7.05078C15.6445-3.49609 12.8027-0.654297 9.24805-0.654297ZM5.6543-7.05078C5.6543-6.62109 5.95703-6.32812 6.40625-6.32812L8.50586-6.32812L8.50586-4.20898C8.50586-3.76953 8.79883-3.4668 9.22852-3.4668C9.67773-3.4668 9.9707-3.76953 9.9707-4.20898L9.9707-6.32812L12.0898-6.32812C12.5293-6.32812 12.832-6.62109 12.832-7.05078C12.832-7.49023 12.5293-7.79297 12.0898-7.79297L9.9707-7.79297L9.9707-9.90234C9.9707-10.3516 9.67773-10.6543 9.22852-10.6543C8.79883-10.6543 8.50586-10.3516 8.50586-9.90234L8.50586-7.79297L6.40625-7.79297C5.95703-7.79297 5.6543-7.49023 5.6543-7.05078Z"/>
  </g>
  <g transform="matrix(1 0 0 1 281.867 1933)">
   <path d="M11.709 2.91016C17.1582 2.91016 21.6699-1.61133 21.6699-7.05078C21.6699-12.5 17.1484-17.0117 11.6992-17.0117C6.25977-17.0117 1.74805-12.5 1.74805-7.05078C1.74805-1.61133 6.26953 2.91016 11.709 2.91016ZM11.709 1.25C7.09961 1.25 3.41797-2.44141 3.41797-7.05078C3.41797-11.6602 7.08984-15.3516 11.6992-15.3516C16.3086-15.3516 20.0098-11.6602 20.0098-7.05078C20.0098-2.44141 16.3184 1.25 11.709 1.25ZM7.17773-7.05078C7.17773-6.57227 7.50977-6.25 8.00781-6.25L10.8789-6.25L10.8789-3.36914C10.8789-2.88086 11.2109-2.53906 11.6895-2.53906C12.1777-2.53906 12.5195-2.87109 12.5195-3.36914L12.5195-6.25L15.4004-6.25C15.8887-6.25 16.2305-6.57227 16.2305-7.05078C16.2305-7.53906 15.8887-7.88086 15.4004-7.88086L12.5195-7.88086L12.5195-10.752C12.5195-11.25 12.1777-11.5918 11.6895-11.5918C11.2109-11.5918 10.8789-11.25 10.8789-10.752L10.8789-7.88086L8.00781-7.88086C7.50977-7.88086 7.17773-7.53906 7.17773-7.05078Z"/>
  </g>
  <g transform="matrix(1 0 0 1 305.646 1933)">
   <path d="M14.9707 5.66406C21.9336 5.66406 27.6953-0.0976562 27.6953-7.05078C27.6953-14.0137 21.9238-19.7754 14.9609-19.7754C8.00781-19.7754 2.25586-14.0137 2.25586-7.05078C2.25586-0.0976562 8.01758 5.66406 14.9707 5.66406ZM14.9707 3.84766C8.93555 3.84766 4.08203-1.01562 4.08203-7.05078C4.08203-13.0957 8.92578-17.9492 14.9609-17.9492C21.0059-17.9492 25.8691-13.0957 25.8691-7.05078C25.8691-1.01562 21.0156 3.84766 14.9707 3.84766ZM9.19922-7.05078C9.19922-6.5332 9.57031-6.17188 10.1172-6.17188L14.0625-6.17188L14.0625-2.2168C14.0625-1.67969 14.4336-1.29883 14.9512-1.29883C15.4883-1.29883 15.8594-1.66992 15.8594-2.2168L15.8594-6.17188L19.8145-6.17188C20.3516-6.17188 20.7324-6.5332 20.7324-7.05078C20.7324-7.59766 20.3613-7.96875 19.8145-7.96875L15.8594-7.96875L15.8594-11.9141C15.8594-12.4609 15.4883-12.8418 14.9512-12.8418C14.4336-12.8418 14.0625-12.4609 14.0625-11.9141L14.0625-7.96875L10.1172-7.96875C9.57031-7.96875 9.19922-7.59766 9.19922-7.05078Z"/>
  </g>
  <text style="stroke:none;fill:black;font-family:sans-serif;font-size:13;font-weight:bold;" transform="matrix(1 0 0 1 263 1953)">Design Variations</text>
  <text style="stroke:none;fill:black;font-family:sans-serif;font-size:13;" transform="matrix(1 0 0 1 263 1971)">Symbols are supported in up to nine weights and three scales.</text>
  <text style="stroke:none;fill:black;font-family:sans-serif;font-size:13;" transform="matrix(1 0 0 1 263 1989)">For optimal layout with text and other symbols, vertically align</text>
  <text style="stroke:none;fill:black;font-family:sans-serif;font-size:13;" transform="matrix(1 0 0 1 263 2007)">symbols with the adjacent text.</text>
  <line style="fill:none;stroke:#00AEEF;stroke-width:0.5;opacity:1.0;" x1="776" x2="776" y1="1919" y2="1933"/>
  <g transform="matrix(1 0 0 1 776 1933)">
   <path d="M3.31055 0.15625C3.82812 0.15625 4.08203-0.0390625 4.26758-0.585938L5.52734-4.0332L11.2891-4.0332L12.5488-0.585938C12.7344-0.0390625 12.9883 0.15625 13.4961 0.15625C14.0137 0.15625 14.3457-0.15625 14.3457-0.644531C14.3457-0.810547 14.3164-0.966797 14.2383-1.17188L9.6582-13.3691C9.43359-13.9648 9.0332-14.2676 8.4082-14.2676C7.80273-14.2676 7.39258-13.9746 7.17773-13.3789L2.59766-1.16211C2.51953-0.957031 2.49023-0.800781 2.49023-0.634766C2.49023-0.146484 2.80273 0.15625 3.31055 0.15625ZM6.00586-5.51758L8.37891-12.0898L8.42773-12.0898L10.8008-5.51758Z"/>
  </g>
  <line style="fill:none;stroke:#00AEEF;stroke-width:0.5;opacity:1.0;" x1="793.197" x2="793.197" y1="1919" y2="1933"/>
  <text style="stroke:none;fill:black;font-family:sans-serif;font-size:13;font-weight:bold;" transform="matrix(1 0 0 1 776 1953)">Margins</text>
  <text style="stroke:none;fill:black;font-family:sans-serif;font-size:13;" transform="matrix(1 0 0 1 776 1971)">Leading and trailing margins on the left and right side of each symbol</text>
  <text style="stroke:none;fill:black;font-family:sans-serif;font-size:13;" transform="matrix(1 0 0 1 776 1989)">can be adjusted by modifying the x-location of the margin guidelines.</text>
  <text style="stroke:none;fill:black;font-family:sans-serif;font-size:13;" transform="matrix(1 0 0 1 776 2007)">Modifications are automatically applied proportionally to all</text>
  <text style="stroke:none;fill:black;font-family:sans-serif;font-size:13;" transform="matrix(1 0 0 1 776 2025)">scales and weights.</text>
  <g transform="matrix(1 0 0 1 1289 1933)">
   <path d="M2.8418 1.86523L4.54102 3.57422C5.40039 4.44336 6.38672 4.38477 7.31445 3.35938L18.0078-8.42773L17.041-9.4043L6.42578 2.27539C6.07422 2.67578 5.74219 2.77344 5.27344 2.30469L4.10156 1.14258C3.63281 0.683594 3.74023 0.341797 4.14062-0.0195312L15.6152-10.8203L14.6387-11.7871L3.04688-0.898438C2.06055 0.0195312 1.98242 0.996094 2.8418 1.86523ZM9.25781-16.3281C8.83789-15.918 8.80859-15.3418 9.04297-14.9512C9.27734-14.5898 9.73633-14.3555 10.3809-14.5215C11.8457-14.8633 13.3691-14.9219 14.7949-13.9844L14.209-12.5293C13.8672-11.6992 14.043-11.1133 14.5801-10.5664L16.875-8.25195C17.3633-7.76367 17.7734-7.74414 18.3398-7.8418L19.4043-8.03711L20.0684-7.36328L20.0293-6.80664C19.9902-6.30859 20.1172-5.92773 20.6055-5.44922L21.3672-4.70703C21.8457-4.22852 22.4609-4.19922 22.9297-4.66797L25.8398-7.58789C26.3086-8.05664 26.2891-8.65234 25.8105-9.13086L25.0391-9.89258C24.5605-10.3711 24.1895-10.5273 23.7109-10.4883L23.1348-10.4395L22.4902-11.0742L22.7344-12.1973C22.8613-12.7637 22.7051-13.2031 22.1191-13.7891L19.9219-15.9766C16.582-19.2969 12.1484-19.2188 9.25781-16.3281ZM10.752-15.957C13.1836-17.7344 16.4746-17.4316 18.7012-15.2051L21.1328-12.793C21.3672-12.5586 21.4062-12.373 21.3379-12.0312L21.0156-10.5469L22.5195-9.0625L23.5059-9.12109C23.7598-9.13086 23.8379-9.11133 24.0332-8.91602L24.6094-8.33984L22.168-5.89844L21.5918-6.47461C21.3965-6.66992 21.3672-6.74805 21.377-7.01172L21.4453-7.98828L19.9512-9.47266L18.4277-9.21875C18.1055-9.15039 17.959-9.17969 17.7148-9.41406L15.7129-11.416C15.459-11.6504 15.4297-11.8164 15.5859-12.1875L16.4648-14.2773C14.9023-15.7324 12.8711-16.3574 10.8398-15.7617C10.6836-15.7227 10.625-15.8496 10.752-15.957Z"/>
  </g>
  <text style="stroke:none;fill:black;font-family:sans-serif;font-size:13;font-weight:bold;" transform="matrix(1 0 0 1 1289 1953)">Exporting</text>
  <text style="stroke:none;fill:black;font-family:sans-serif;font-size:13;" transform="matrix(1 0 0 1 1289 1971)">Symbols should be outlined when exporting to ensure the</text>
  <text style="stroke:none;fill:black;font-family:sans-serif;font-size:13;" transform="matrix(1 0 0 1 1289 1989)">design is preserved when submitting to Xcode.</text>
  <text id="template-version" style="stroke:none;fill:black;font-family:sans-serif;font-size:13;text-anchor:end;" transform="matrix(1 0 0 1 3036 1933)">Template v.4.0</text>
  <text style="stroke:none;fill:black;font-family:sans-serif;font-size:13;text-anchor:end;" transform="matrix(1 0 0 1 3036 1951)">Requires Xcode 14 or greater</text>
  <text id="descriptive-name" style="stroke:none;fill:black;font-family:sans-serif;font-size:13;text-anchor:end;" transform="matrix(1 0 0 1 3036 1969)">Generated from theatermask.and.paintbrush</text>
  <text style="stroke:none;fill:black;font-family:sans-serif;font-size:13;text-anchor:end;" transform="matrix(1 0 0 1 3036 1987)">Typeset at 100 points</text>
  <text style="stroke:none;fill:black;font-family:sans-serif;font-size:13;" transform="matrix(1 0 0 1 263 726)">Small</text>
  <text style="stroke:none;fill:black;font-family:sans-serif;font-size:13;" transform="matrix(1 0 0 1 263 1156)">Medium</text>
  <text style="stroke:none;fill:black;font-family:sans-serif;font-size:13;" transform="matrix(1 0 0 1 263 1586)">Large</text>
 </g>
 <g id="Guides">
  <g id="H-reference" style="fill:#27AAE1;stroke:none;" transform="matrix(1 0 0 1 339 696)">
   <path d="M0.993654 0L3.63775 0L29.3281-67.1323L30.0303-67.1323L30.0303-70.459L28.1226-70.459ZM11.6885-24.4799L46.9815-24.4799L46.2315-26.7285L12.4385-26.7285ZM55.1196 0L57.7637 0L30.6382-70.459L29.4326-70.459L29.4326-67.1323Z"/>
  </g>
  <line id="Baseline-S" style="fill:none;stroke:#27AAE1;opacity:1;stroke-width:0.5;" x1="263" x2="3036" y1="696" y2="696"/>
  <line id="Capline-S" style="fill:none;stroke:#27AAE1;opacity:1;stroke-width:0.5;" x1="263" x2="3036" y1="625.541" y2="625.541"/>
  <g id="H-reference" style="fill:#27AAE1;stroke:none;" transform="matrix(1 0 0 1 339 1126)">
   <path d="M0.993654 0L3.63775 0L29.3281-67.1323L30.0303-67.1323L30.0303-70.459L28.1226-70.459ZM11.6885-24.4799L46.9815-24.4799L46.2315-26.7285L12.4385-26.7285ZM55.1196 0L57.7637 0L30.6382-70.459L29.4326-70.459L29.4326-67.1323Z"/>
  </g>
  <line id="Baseline-M" style="fill:none;stroke:#27AAE1;opacity:1;stroke-width:0.5;" x1="263" x2="3036" y1="1126" y2="1126"/>
  <line id="Capline-M" style="fill:none;stroke:#27AAE1;opacity:1;stroke-width:0.5;" x1="263" x2="3036" y1="1055.54" y2="1055.54"/>
  <g id="H-reference" style="fill:#27AAE1;stroke:none;" transform="matrix(1 0 0 1 339 1556)">
   <path d="M0.993654 0L3.63775 0L29.3281-67.1323L30.0303-67.1323L30.0303-70.459L28.1226-70.459ZM11.6885-24.4799L46.9815-24.4799L46.2315-26.7285L12.4385-26.7285ZM55.1196 0L57.7637 0L30.6382-70.459L29.4326-70.459L29.4326-67.1323Z"/>
  </g>
  <line id="Baseline-L" style="fill:none;stroke:#27AAE1;opacity:1;stroke-width:0.5;" x1="263" x2="3036" y1="1556" y2="1556"/>
  <line id="Capline-L" style="fill:none;stroke:#27AAE1;opacity:1;stroke-width:0.5;" x1="263" x2="3036" y1="1485.54" y2="1485.54"/>
  <line id="left-margin-Regular-M" style="fill:none;stroke:#00AEEF;stroke-width:0.5;opacity:1.0;" x1="1379.05" x2="1379.05" y1="1030.79" y2="1150.12"/>
  <line id="right-margin-Regular-M" style="fill:none;stroke:#00AEEF;stroke-width:0.5;opacity:1.0;" x1="1520.64" x2="1520.64" y1="1030.79" y2="1150.12"/>
 </g>
 <g id="Symbols">
  <g id="Black-L" transform="matrix(1 0 0 1 2837.76 1556)">
   <path d="M27.6961-36.0366C35.6584-6.11257 57.4107 8.15011 85.8684 1.90238C88.0292 1.40189 90.1305 0.841803 92.2889 0.340118L91.4718-17.532C86.1391-15.2705 85.8054-15.1805 84.8073-14.8748C64.1678-9.52788 49.7269-18.4654 43.9182-40.266L33.4368-79.3853C32.7138-82.1141 33.7925-84.0814 36.4045-84.746L91.7865-99.6517C94.5166-100.375 96.4243-99.1376 97.1681-96.3671L107.626-57.4271C109.639-49.8904 109.874-43.8267 108.484-37.6782L125.7-52.151C125.303-55.1853 124.621-58.5359 123.748-61.7357L113.207-101.23C109.758-114.073 100.64-119.14 87.6376-115.69L31.9399-100.863C18.859-97.4141 13.6898-88.5328 17.1599-75.5324ZM55.1648-58.9506C59.3162-59.9925 61.2719-58.144 62.9583-58.5473C64.3755-58.8678 64.7848-60.4726 64.2218-62.5635C62.9339-67.708 57.4958-70.7568 52.5145-69.2324C47.2908-67.9445 44.158-62.6476 45.6044-57.6615C46.2465-55.4914 47.4004-54.3119 48.6603-54.6908C50.426-55.1721 51.0705-57.8259 55.1648-58.9506ZM88.473-67.9613C92.6453-69.1616 94.5801-67.1547 96.2665-67.558C97.7033-67.9577 98.1138-69.5625 97.5509-71.5742C96.263-76.7186 90.9624-79.609 85.8423-78.243C80.6979-76.8759 77.4858-71.6582 78.9322-66.6721C79.5744-64.502 80.7074-63.4017 81.9882-63.7222C83.7538-64.2035 84.3984-66.9158 88.473-67.9613ZM82.1478-25.7138C92.8152-28.6185 99.7676-36.6272 100.164-46.5207C100.221-49.3038 97.9204-50.2689 95.4381-48.4496C89.1153-43.9509 81.7179-41.9748 78.2132-41.0491C74.5381-40.0381 67.2532-38.064 59.2952-38.7937C56.412-39.1946 54.6768-37.0329 56.278-34.8067C61.5977-26.4447 71.6169-22.8711 82.1478-25.7138ZM63.4806 32.3835C75.4696 46.2751 105.623 48.4621 120.569 33.3952C133.665 20.3704 133.877 2.9122 121.43-9.43645C109.245-21.5968 93.6452-22.5534 83.1558-11.7869C72.7032-1.27875 78.4355 9.29244 74.7952 12.9983C70.5804 17.2055 66.1197 15.8323 62.4905 19.5564C59.449 22.8475 59.4081 27.5821 63.4806 32.3835ZM83.3235 27.0528C82.5894 26.6828 82.3326 26.0119 82.8026 25.4006C83.4187 24.5957 85.2029 24.007 86.2932 22.4736C93.4927 13.576 89.1193 6.14593 94.3329 0.567166C98.6764-4.06838 104.841-3.71584 110.692 1.39359C116.785 6.81389 116.214 15.0304 109.282 22.2031C101.767 30.0537 90.83 31.0969 83.3235 27.0528ZM124.101 8.22818C132.135 6.38286 138.608 1.17679 144.728-7.46442C155.878-23.3264 165.986-48.0775 174.077-72.728C179.567-89.2816 163.894-101.73 149.643-89.8745C146.258-86.9687 119.104-61.4826 102.251-37.1881C96.4056-28.7429 93.6349-20.9738 94.3698-13.0724L111.709-11.2232C109.813-16.4932 110.532-20.4138 115.782-27.7266C128.378-45.4766 147.267-64.3107 154.617-71.6249C155.432-72.4422 156.347-71.8018 155.962-70.7988C152.567-60.9951 143.736-34.8175 131.195-16.9258C126.635-10.2988 123.384-8.31012 118.452-7.24459ZM130.672-9.7186L143.901-15.8344C141.758-30.198 125.208-42.0798 111.167-39.4997L108.673-24.596C118.43-27.0702 129.402-19.4374 130.672-9.7186Z"/>
  </g>
  <g id="Heavy-L" transform="matrix(1 0 0 1 2542.13 1556)">
   <path d="M27.6508-36.6545C35.4946-7.18708 56.8108 6.77556 84.7826 0.660579C86.8509 0.188192 88.8689-0.33443 90.9259-0.812429L90.1017-16.8252C85.634-14.9458 85.1619-14.8205 84.1631-14.5065C63.1292-9.05534 48.1687-18.3028 42.2652-40.4658L31.7524-79.6474C30.9108-82.8417 32.166-85.1218 35.271-85.9187L90.7816-100.86C93.9815-101.702 96.2114-100.297 97.0831-97.0424L107.555-58.0406C109.429-50.9923 109.76-45.1739 108.651-39.3761L124.001-52.2875C123.621-55.3494 122.958-58.6815 122.064-61.9267L111.501-101.452C108.206-113.748 99.5019-118.573 87.0508-115.272L31.2465-100.406C18.7261-97.1103 13.7847-88.6256 17.1102-76.1856ZM54.2624-59.3992C58.3691-60.4279 60.3518-58.5838 62.0294-58.9915C63.4019-59.3076 63.8377-60.8991 63.2747-62.9901C61.9824-68.1257 56.5889-71.148 51.6254-69.6369C46.4149-68.3445 43.2954-63.0873 44.7373-58.1013C45.3751-55.9356 46.5648-54.7875 47.7933-55.1482C49.5457-55.6251 50.1946-58.279 54.2624-59.3992ZM87.6236-68.4231C91.7605-69.6013 93.713-67.6077 95.3906-68.0154C96.7877-68.4063 97.2291-69.9978 96.6661-72.0139C95.3738-77.1496 90.0998-80.0223 85.0111-78.6607C79.8755-77.2936 76.6811-72.1112 78.1231-67.1252C78.7608-64.9594 79.9204-63.8862 81.179-64.2023C82.9314-64.6792 83.5804-67.3776 87.6236-68.4231ZM81.3343-25.914C92.1258-28.854 99.1451-36.9692 99.5191-47.0317C99.5581-49.7657 97.3067-50.7307 94.8642-48.9562C88.5861-44.4751 81.193-42.397 77.4218-41.3867C73.4447-40.2736 66.0533-38.3663 58.1085-39.1181C55.2695-39.5146 53.5922-37.3882 55.167-35.1891C60.5308-26.6714 70.6565-23.0354 81.3343-25.914ZM62.5503 32.2012C75.0889 45.9476 103.972 47.5316 118.374 32.7648C130.925 20.0891 131.097 3.15764 118.827-8.78832C106.959-20.4443 91.8507-21.2758 81.7993-10.8147C71.8802-0.702603 77.4662 9.61082 73.6121 13.6376C69.4509 17.8303 64.919 16.5294 61.4674 20.1289C58.6548 23.2221 58.5709 27.7168 62.5503 32.2012ZM80.4409 27.3927C79.6014 26.9118 79.3815 26.1393 79.8731 25.5114C80.5235 24.6364 82.7538 24.0335 84.1177 22.0893C90.7713 13.6494 86.5948 6.0358 91.9598 0.212274C96.455-4.69468 103.166-4.36315 109.224 0.945278C115.723 6.71352 115.186 15.3718 108.21 22.7491C100.575 30.9324 88.6423 32.3313 80.4409 27.3927ZM122.37 7.73545C130.05 5.87916 136.168 0.899791 142.078-7.44365C154.431-25.0488 165.402-53.4691 171.935-73.298C177.221-89.0082 162.308-100.789 148.832-89.5229C145.42-86.5772 117.682-60.267 100.985-36.2004C95.3144-28.021 92.6656-20.6656 93.293-13.0537L108.818-11.4218C107.179-16.539 108.151-20.6963 113.149-27.6926C126.593-46.6395 147.817-67.6496 154.006-73.8298C155.144-74.9787 156.575-73.9984 155.969-72.5182C153.077-64.3607 143.224-34.9693 129.903-15.9514C125.419-9.44664 122.081-7.29595 117.293-6.19683ZM129.46-10.0169L141.245-15.4454C138.896-29.1667 122.989-40.5689 109.472-38.3555L107.309-25.0959C116.664-27.3522 128.116-19.3813 129.46-10.0169Z"/>
  </g>
  <g id="Bold-L" transform="matrix(1 0 0 1 2246.77 1556)">
   <path d="M27.5895-37.5197C35.2873-8.60588 56.1102 4.97294 83.5199-1.05511C85.4953-1.50409 87.4282-1.9955 89.3771-2.45771L88.5825-16.0909C85.0637-14.6281 84.3777-14.4419 83.3193-14.1053C61.7639-8.51604 46.158-18.1477 40.1243-40.7937L29.5655-80.0746C28.5779-83.8377 30.0707-86.5319 33.7755-87.4903L89.4996-102.485C93.2759-103.473 95.9277-101.846 96.9533-98.0066L107.448-58.8982C109.176-52.3749 109.615-46.8041 108.814-41.3771L121.813-52.3224C121.464-55.4823 120.816-58.8658 119.877-62.2394L109.276-101.818C106.188-113.371 98.0062-117.896 86.306-114.795L30.3263-99.8669C18.5721-96.7785 13.9149-88.7855 17.0413-77.1117ZM53.0736-60.0643C57.1116-61.0701 59.1326-59.2337 60.7949-59.649C62.0987-59.9575 62.5801-61.5262 62.0172-63.6171C60.7172-68.7375 55.3925-71.7141 50.4594-70.2258C45.2718-68.9258 42.1751-63.7372 43.6094-58.7512C44.2396-56.593 45.4828-55.4909 46.6654-55.8285C48.3949-56.2978 49.0515-58.9517 53.0736-60.0643ZM86.5262-69.1111C90.6022-70.2512 92.5852-68.2804 94.2475-68.6957C95.576-69.0714 96.0707-70.6401 95.5078-72.6638C94.2078-77.7842 88.9795-80.6264 83.9368-79.2725C78.8164-77.9054 75.6525-72.7839 77.0868-67.7979C77.7169-65.6398 78.9222-64.6048 80.1428-64.9132C81.8723-65.3825 82.5289-68.0656 86.5262-69.1111ZM80.2904-26.1674C91.2878-29.1683 98.4139-37.459 98.7498-47.796C98.7658-50.4536 96.5907-51.4187 94.2167-49.7128C88.0074-45.2622 80.622-43.0164 76.416-41.8688C71.9432-40.588 64.3764-38.7875 56.4545-39.5774C53.6917-39.9663 52.106-37.9008 53.635-35.7399C59.075-26.9705 69.3761-23.2353 80.2904-26.1674ZM61.4051 32.1124C74.5157 45.6 101.936 46.3194 115.557 31.9364C127.328 19.7209 127.438 3.47235 115.339-7.92946C103.892-18.8661 89.399-19.5066 79.9527-9.4221C70.7614 0.190829 76.1035 10.0848 72.0476 14.4812C68.0375 18.5989 63.3912 17.3976 60.1623 20.8657C57.619 23.7428 57.5112 27.9827 61.4051 32.1124ZM76.6891 27.9122C75.6594 27.2482 75.4781 26.3006 76.0152 25.6273C76.7414 24.623 79.5324 24.0792 81.2344 21.6353C87.264 13.7341 83.3184 5.97952 88.7859-0.0990717C93.4507-5.37387 100.853-5.09529 107.194 0.414328C114.268 6.59054 113.799 15.8019 106.821 23.4402C99.0552 32.1055 85.7213 33.9424 76.6891 27.9122ZM119.936 7.26991C127.222 5.42811 132.887 0.747852 138.551-7.24912C152.186-26.7079 164.472-59.677 169.276-74.139C174.287-88.7372 160.334-99.6582 147.892-89.1669C144.435-86.1527 115.713-58.4628 99.254-34.7476C93.7831-26.8762 91.3029-20.0505 91.8368-12.7623L105.051-11.4217C103.69-16.3843 104.947-20.841 109.653-27.4752C124.015-47.7263 148.166-71.6122 153.112-76.5801C154.731-78.2258 156.919-76.726 156.007-74.5647C153.647-68.1603 142.266-34.7216 128.126-14.5214C123.696-8.11067 120.251-5.79743 115.595-4.68215ZM127.813-10.0802L137.792-14.6409C135.198-27.6303 119.955-38.5227 107.024-36.7329L105.29-25.5319C114.295-27.5043 126.324-19.1258 127.813-10.0802Z"/>
  </g>
  <g id="Semibold-L" transform="matrix(1 0 0 1 1950.99 1556)">
   <path d="M27.5473-38.1162C35.1443-9.58399 55.6273 3.73022 82.6494-2.23789C84.5607-2.67073 86.435-3.14063 88.3094-3.59196L87.5351-15.5846C84.6705-14.4091 83.8371-14.1809 82.7376-13.8286C60.8226-8.14424 44.7719-18.0407 38.6483-41.0198L28.058-80.369C26.9697-84.5243 28.6263-87.5039 32.7445-88.5736L88.6157-103.606C92.7895-104.694 95.7321-102.913 96.8637-98.6714L107.374-59.4894C109.001-53.328 109.514-47.928 108.926-42.7566L120.305-52.3465C119.977-55.5738 119.34-58.9928 118.37-62.4549L107.742-102.07C104.796-113.111 96.9751-117.43 85.7925-114.466L29.692-99.4955C18.4659-96.5498 14.0047-88.8958 16.9938-77.7502ZM52.254-60.5229C56.2446-61.5129 58.292-59.6817 59.9439-60.1023C61.2002-60.4055 61.7132-61.9584 61.1503-64.0493C59.8451-69.1593 54.5677-72.1043 49.6556-70.6318C44.4838-69.3266 41.4028-64.1852 42.8319-59.1992C43.4568-57.0463 44.7369-55.9758 45.8879-56.2976C47.6017-56.7616 48.2635-59.4155 52.254-60.5229ZM85.7696-69.5853C89.8036-70.6992 91.8076-68.7442 93.4595-69.1647C94.7407-69.5299 95.2722-71.0828 94.7092-73.1118C93.404-78.2217 88.2072-81.0429 83.1961-79.6943C78.0862-78.3271 74.9433-73.2477 76.3724-68.2616C76.9973-66.1088 78.2341-65.1002 79.4284-65.4034C81.1422-65.8674 81.804-68.5399 85.7696-69.5853ZM79.5707-26.3421C90.71-29.385 97.9098-37.7966 98.2195-48.3229C98.2196-50.9279 96.0971-51.8929 93.7704-50.2345C87.6084-45.8049 80.2283-43.4434 75.7226-42.2012C70.9081-40.8047 63.2204-39.0778 55.3143-39.894C52.604-40.2776 51.0814-38.2541 52.5789-36.1197C58.0714-27.1767 68.4934-23.3731 79.5707-26.3421ZM60.6157 32.0512C74.1206 45.3604 100.532 45.4837 113.615 31.3653C124.848 19.4671 124.916 3.68931 112.934-7.33737C101.778-17.7781 87.7088-18.2869 78.6796-8.46204C69.9901 0.806755 75.1641 10.4115 70.9691 15.0628C67.0631 19.1287 62.3379 17.9961 59.2625 21.3736C56.905 24.1018 56.7807 28.166 60.6157 32.0512ZM74.1027 28.2703C72.9417 27.4802 72.7871 26.4117 73.3556 25.7073C74.134 24.6138 77.3116 24.1107 79.2467 21.3222C84.8461 13.7925 81.0597 5.94073 86.5979-0.313712C91.3796-5.8421 99.258-5.60002 105.795 0.0482939C113.264 6.50575 112.843 16.0984 105.864 23.9166C98.0073 32.9141 83.7075 35.0531 74.1027 28.2703ZM118.257 6.94897C125.273 5.11716 130.626 0.643106 136.119-7.11501C150.639-27.8517 163.83-63.9567 167.444-74.7188C172.264-88.5503 158.973-98.8788 147.244-88.9215C143.756-85.8601 114.356-57.2191 98.0603-33.746C92.7275-26.087 90.3634-19.6264 90.833-12.5615L102.454-11.4217C101.285-16.2776 102.738-20.9407 107.242-27.3254C122.237-48.4755 148.406-74.344 152.495-78.4761C154.446-80.4643 157.156-78.6064 156.032-75.9756C154.041-70.7798 141.606-34.5508 126.901-13.5356C122.509-7.18966 118.99-4.76436 114.425-3.63794ZM126.677-10.1238L135.412-14.0864C132.648-26.5711 117.863-37.112 105.336-35.6142L103.899-25.8324C112.662-27.6092 125.089-18.9497 126.677-10.1238Z"/>
  </g>
  <g id="Medium-L" transform="matrix(1 0 0 1 1654.98 1556)">
   <path d="M27.5152-38.5684C35.036-10.3256 55.2611 2.78795 81.9893-3.13472C83.8521-3.55533 85.6819-4.00892 87.4998-4.45199L86.7409-15.2008C84.3724-14.2431 83.4272-13.983 82.2965-13.6189C60.109-7.86233 43.7208-17.9596 37.5292-41.1912L26.9149-80.5923C25.7503-85.0449 27.5311-88.241 31.9627-89.3951L87.9456-104.455C92.4207-105.62 95.5838-103.723 96.7959-99.1754L107.318-59.9376C108.868-54.0507 109.438-48.7801 109.011-43.8025L119.162-52.3648C118.85-55.6433 118.221-59.0892 117.226-62.6184L106.579-102.262C103.742-112.913 96.1932-117.076 85.4032-114.216L29.211-99.2139C18.3854-96.3764 14.0728-88.9794 16.9577-78.2343ZM51.6326-60.8705C55.5873-61.8486 57.6547-60.0214 59.2986-60.446C60.519-60.7452 61.0558-62.2862 60.4929-64.3771C59.1837-69.479 53.9423-72.4002 49.0461-70.9396C43.8862-69.6305 40.8172-64.5249 42.2423-59.5389C42.8632-57.39 44.1713-56.3435 45.2983-56.6532C47.0001-57.1132 47.666-59.7671 51.6326-60.8705ZM85.196-69.9449C89.1981-71.0389 91.2181-69.0958 92.862-69.5204C94.1073-69.8775 94.6667-71.4186 94.1038-73.4515C92.7946-78.5535 87.6216-81.3587 82.6345-80.0141C77.5326-78.6469 74.4056-73.5993 75.8307-68.6133C76.4516-66.4644 77.7123-65.4758 78.8867-65.7751C80.5885-66.2351 81.2543-68.8995 85.196-69.9449ZM79.0251-26.4745C90.272-29.5494 97.5275-38.0526 97.8173-48.7224C97.8054-51.2875 95.7228-52.2526 93.432-50.63C87.3059-46.2164 79.9298-43.7671 75.1968-42.4532C70.1233-40.969 62.3438-39.298 54.4497-40.1341C51.7792-40.5137 50.3045-38.5221 51.7781-36.4076C57.3104-27.3331 67.8241-23.4776 79.0251-26.4745ZM60.0171 32.0048C73.821 45.1787 99.4673 44.8501 112.142 30.9323C122.967 19.2746 123.004 3.85382 111.111-6.88842C100.175-16.9532 86.4272-17.3621 77.7143-7.73408C69.4053 1.27378 74.4517 10.6592 70.1513 15.5038C66.3243 19.5305 61.5393 18.4499 58.5803 21.7588C56.3636 24.374 56.2268 28.305 60.0171 32.0048ZM72.1415 28.5418C70.8811 27.656 70.7467 26.496 71.339 25.7679C72.157 24.6068 75.6276 24.1346 77.7395 21.0849C83.0127 13.8368 79.347 5.91131 84.9388-0.47646C89.8092-6.19713 98.0489-5.98273 104.734-0.229248C112.503 6.44146 112.118 16.3232 105.138 24.2779C97.2127 33.5273 82.1806 35.8952 72.1415 28.5418ZM116.985 6.70562C123.795 4.88139 128.911 0.563683 134.276-7.01332C149.465-28.719 163.343-67.2017 166.054-75.1585C170.73-88.4087 157.94-98.2878 146.753-88.7355C143.241-85.6382 113.328-56.276 97.1552-32.9866C91.9271-25.4886 89.6511-19.3048 90.0718-12.4092L100.485-11.4217C99.4609-16.1966 101.063-21.0164 105.414-27.2117C120.89-49.0435 148.588-76.4154 152.027-79.9137C154.23-82.1616 157.336-80.0322 156.052-77.0453C154.339-72.766 141.105-34.4214 125.972-12.7881C121.609-6.49131 118.033-3.98104 113.537-2.84617ZM125.816-10.1569L133.607-13.6658C130.714-25.7679 116.277-36.0424 104.056-34.7661L102.844-26.0603C111.424-27.6887 124.152-18.8162 125.816-10.1569Z"/>
  </g>
  <g id="Regular-L" transform="matrix(1 0 0 1 1359.19 1556)">
   <path d="M27.4734-39.1583C34.8946-11.293 54.7834 1.55889 81.1284-4.30451C82.9278-4.70916 84.6996-5.14147 86.4438-5.57377L85.7051-14.7001C83.9835-14.0265 82.8925-13.7248 81.7212-13.3453C59.1781-7.49462 42.3499-17.8539 36.0695-41.4148L25.4239-80.8835C24.1597-85.724 26.1025-89.2024 30.943-90.4666L87.0714-105.563C91.9396-106.827 95.3904-104.779 96.7073-99.8328L107.245-60.5223C108.695-54.9934 109.338-49.8916 109.122-45.1668L117.671-52.3886C117.379-55.7338 116.761-59.2148 115.735-62.8316L105.062-102.511C102.366-112.656 95.1734-116.614 84.8954-113.89L28.5836-98.8466C18.2804-96.1501 14.1616-89.0885 16.9107-78.8657ZM50.8221-61.324C54.7299-62.2865 56.8233-60.4645 58.4568-60.8942C59.6304-61.1883 60.1984-62.7137 59.6355-64.8046C58.3211-69.8962 53.1266-72.7862 48.2512-71.3412C43.1068-70.0268 40.0534-64.968 41.4733-59.982C42.089-57.8383 43.4336-56.823 44.5293-57.1171C46.2156-57.5719 46.8866-60.2258 50.8221-61.324ZM84.4478-70.414C88.4084-71.482 90.4491-69.5545 92.0826-69.9842C93.2812-70.331 93.8769-71.8565 93.314-73.8946C91.9996-78.9862 86.8578-81.7707 81.902-80.4312C76.8104-79.064 73.7043-74.058 75.1242-69.072C75.7399-66.9283 77.0317-65.9658 78.1801-66.2598C79.8664-66.7147 80.5374-69.3685 84.4478-70.414ZM78.3133-26.6473C89.7006-29.7637 97.029-38.3865 97.2928-49.2436C97.2651-51.7566 95.2346-52.7216 92.9905-51.146C86.9114-46.7531 79.5404-44.1895 74.511-42.7819C69.0995-41.1833 61.2005-39.5851 53.3219-40.4472C50.7034-40.8216 49.2911-38.8715 50.7336-36.7832C56.3179-27.537 66.9511-23.6139 78.3133-26.6473ZM59.2363 31.9443C73.4303 44.9417 98.0788 44.0236 110.221 30.3675C120.514 19.0236 120.509 4.06839 108.733-6.30284C98.0848-15.8771 84.7555-16.1558 76.4552-6.78457C68.6425 1.88293 73.5226 10.9823 69.0846 16.079C65.3606 20.0545 60.4975 19.0418 57.6905 22.2611C55.6574 24.7291 55.5043 28.4862 59.2363 31.9443ZM69.5834 28.896C68.1933 27.8854 68.0853 26.606 68.7086 25.8469C69.5783 24.5976 73.4312 24.1657 75.7736 20.7753C80.6214 13.8945 77.1131 5.87294 82.7748-0.688741C87.7609-6.66022 96.4717-6.48192 103.35-0.591259C111.511 6.35761 111.172 16.6164 104.191 24.7491C96.1763 34.3271 80.189 36.9937 69.5834 28.896ZM115.325 6.38821C121.867 4.57386 126.674 0.460088 131.871-6.88068C147.935-29.8502 162.708-71.4343 164.241-75.7319C168.73-88.2239 156.594-97.5169 146.113-88.4928C142.569-85.3488 111.986-55.0459 95.9747-31.996C90.8831-24.708 88.722-18.8854 89.079-12.2106L97.9163-11.4217C97.0819-16.0911 98.8788-21.115 103.03-27.0635C119.132-49.7845 148.826-79.1172 151.417-81.7889C153.948-84.3755 157.571-81.8919 156.078-78.4407C154.728-75.3567 140.452-34.2525 124.76-11.8132C120.435-5.58042 116.786-2.95932 112.38-1.81344ZM124.692-10.2001L131.253-13.1173C128.192-24.7204 114.209-34.6473 102.387-33.6597L101.468-26.3576C109.809-27.7924 122.93-18.642 124.692-10.2001Z"/>
  </g>
  <g id="Light-L" transform="matrix(1 0 0 1 1063.46 1556)">
   <path d="M27.3971-40.3988C34.7228-12.8389 54.5735-0.330553 80.7849-6.63291C82.6607-7.09482 84.4897-7.60347 86.272-8.11211L85.8005-15.1008C83.9453-14.3509 82.4345-13.8966 80.8432-13.4216C57.7276-7.41828 40.4414-18.0447 33.9892-42.1591L23.2672-81.8378C21.9076-87.0218 24.1368-90.9583 29.3208-92.3179L85.9454-107.51C91.1762-108.869 95.0659-106.573 96.4592-101.321L107.054-61.7438C108.561-56.0622 109.205-50.7695 108.95-45.8921L115.628-51.5488C115.413-55.3712 114.757-59.3675 113.579-63.5377L102.81-103.351C100.362-112.561 93.5894-116.309 84.2656-113.814L27.553-98.6557C18.2423-96.2074 14.3333-89.4893 16.8153-80.259ZM49.5433-62.4882C53.3176-63.3934 55.4683-61.5905 57.0636-62.0394C58.1036-62.3143 58.7861-63.7825 58.2232-65.8734C56.8897-70.9268 51.8288-73.7023 47.0297-72.3145C41.9426-70.9811 38.9465-66.094 40.3473-61.108C40.9439-58.9834 42.3839-58.0445 43.4033-58.3194C45.0323-58.7552 45.7224-61.4091 49.5433-62.4882ZM83.3981-71.6355C87.206-72.608 89.323-70.7378 90.9184-71.1866C91.9453-71.4952 92.6745-72.9634 92.1116-75.0206C90.7781-80.074 85.7509-82.7822 80.8714-81.4618C75.818-80.0946 72.7882-75.2413 74.189-70.2553C74.7856-68.1307 76.1919-67.2254 77.2449-67.5004C78.874-67.9361 79.5641-70.59 83.3981-71.6355ZM77.359-26.8573C89.2234-30.1263 96.7809-39.1499 96.9493-50.6177C96.9025-52.978 95.0247-53.9431 92.9524-52.501C87.0068-48.1845 79.6549-45.2391 73.6522-43.5262C67.1147-41.5459 58.8149-40.1768 50.9935-41.1342C48.5658-41.4896 47.3444-39.6922 48.6724-37.6611C54.4475-27.8615 65.4816-23.7284 77.359-26.8573ZM58.492 32.765C72.3806 45.0753 96.7237 42.8021 107.645 29.4895C116.716 18.6418 116.597 4.35467 104.629-5.34857C94.4586-13.8159 81.5874-13.732 74.1077-4.60884C67.2302 3.65787 71.5378 11.8221 67.367 16.9951C64.2918 20.5507 59.1807 19.6716 56.5454 22.9482C54.6078 25.4543 54.6263 29.3069 58.492 32.765ZM65.8236 29.8884C63.9182 28.458 63.7911 26.7396 64.5671 25.7896C65.704 24.1778 69.9959 24.2802 72.5673 20.6036C77.3196 13.9136 73.8877 6.35007 79.0723-0.0780126C84.0583-6.50753 93.3417-6.53918 100.583-0.801198C109.603 6.28127 109.473 16.96 102.836 25.3216C94.8404 35.6821 76.811 38.635 65.8236 29.8884ZM111.775 6.99894C118.336 5.37544 122.742 1.58612 127.863-5.65922C143.469-27.9417 160.723-72.694 162.371-77.1824C166.516-88.472 155.163-96.9634 145.884-88.76C142.226-85.4442 109.294-51.8778 93.7226-29.5149C88.6692-22.3033 86.7371-16.9578 87.285-10.2829L94.1184-9.83758C93.2076-14.6215 95.0236-19.8935 99.0989-25.7848C114.99-48.2577 146.917-80.7394 149.909-83.8119C153.3-87.2955 158.2-83.8195 156.288-79.3186C154.728-75.6048 137.703-31.2752 122.393-9.38933C117.858-2.85123 114.133-0.363725 109.517 0.629478ZM122.612-8.27245L127.818-10.4836C124.642-21.9912 110.277-32.109 98.4555-31.2168L97.9559-25.4797C107.004-26.6282 120.411-17.2679 122.612-8.27245Z"/>
  </g>
  <g id="Thin-L" transform="matrix(1 0 0 1 768.049 1556)">
   <path d="M27.2961-42.0396C34.4957-14.8835 54.2958-2.82949 80.3305-9.71241C82.3073-10.25 84.212-10.8597 86.0448-11.4693L85.9267-15.6309C83.8949-14.78 81.8287-14.1238 79.6821-13.5226C55.8092-7.31731 37.9172-18.2972 31.2379-43.1435L20.4149-83.0998C18.9291-88.7382 21.5368-93.2805 27.1752-94.7663L84.4561-110.084C90.1665-111.57 94.6368-108.946 96.1311-103.29L106.802-63.3593C108.385-57.4757 109.028-51.9307 108.723-46.8513L112.928-50.4382C112.813-54.8916 112.107-59.5694 110.726-64.4717L99.8316-104.462C97.7114-112.435 91.4943-115.905 83.4326-113.713L26.1899-98.4033C18.1918-96.2831 14.5605-90.0193 16.6891-82.1016ZM47.8521-64.0279C51.4497-64.8575 53.6761-63.0798 55.221-63.5539C56.0842-63.8036 56.9182-65.196 56.3553-67.2869C54.9966-72.2898 50.1123-74.9139 45.4142-73.6019C40.4029-72.2432 37.4825-67.5833 38.858-62.5973C39.4294-60.4979 40.9956-59.66 41.914-59.9097C43.4673-60.3202 44.1826-62.9741 47.8521-64.0279ZM82.0098-73.2509C85.6158-74.0973 87.8338-72.3028 89.3786-72.7768C90.1783-73.035 91.0843-74.4274 90.5214-76.5099C89.1627-81.5128 84.2869-84.12 79.5083-82.8248C74.5054-81.4577 71.5766-76.8063 72.9521-71.8202C73.5235-69.7209 75.0813-68.8914 76.0081-69.1411C77.5614-69.5516 78.2767-72.2055 82.0098-73.2509ZM76.097-27.1349C88.5924-30.6059 96.4527-40.1596 96.4949-52.4351C96.4229-54.5935 94.747-55.5585 92.9019-54.2932C87.133-50.0776 79.8064-46.6274 72.5163-44.5107C64.4895-42.0255 55.6596-40.9593 47.914-42.043C45.7387-42.3731 44.7698-40.7776 45.9463-38.8222C51.9738-28.2906 63.538-23.8799 76.097-27.1349ZM57.5076 33.8504C70.9923 45.252 94.9315 41.1866 104.237 28.3284C111.693 18.137 111.422 4.7333 99.2023-4.08648C89.6627-11.0898 77.3972-10.5263 71.003-1.73128C65.3623 6.00535 68.9126 12.9327 65.0952 18.2067C62.8783 21.207 57.439 20.5046 55.0309 23.8569C53.2195 26.4135 53.4652 30.3923 57.5076 33.8504ZM60.851 31.201C58.2641 29.2153 58.1117 26.9163 59.0896 25.7139C60.5799 23.6224 65.4523 24.4317 68.3266 20.3764C72.9528 13.9389 69.6218 6.98111 74.1754 0.729726C79.1614-6.3056 89.2021-6.6149 96.9229-1.07886C107.078 6.1803 107.227 17.4143 101.043 26.0789C93.0734 37.4743 72.3432 40.8058 60.851 31.201ZM107.08 7.80668C113.666 6.4356 117.543 3.07539 122.562-4.04375C137.562-25.4175 158.098-74.3599 159.897-79.1008C163.588-88.8001 153.27-96.2314 145.581-89.1134C141.771-85.5704 105.735-47.6876 90.7441-26.2335C85.7412-19.1228 84.112-14.4084 84.9122-7.73352L89.0953-7.74251C88.0835-12.6779 89.9248-18.2781 93.8991-24.0936C109.513-46.2383 144.393-82.885 147.915-86.4876C152.441-91.1575 159.033-86.3689 156.565-80.4797C154.728-75.9329 134.069-27.3375 119.263-6.18362C114.451 0.758351 110.624 3.06916 105.731 3.86043ZM119.861-5.72302L123.274-7.0002C119.947-18.3816 105.077-28.7518 93.2557-27.9859L93.3114-24.3186C103.293-25.0885 117.079-15.4504 119.861-5.72302Z"/>
  </g>
  <g id="Ultralight-L" transform="matrix(1 0 0 1 472.003 1556)">
   <path d="M27.2444-42.8799C34.3793-15.9307 54.1536-4.10944 80.0978-11.2897C82.1263-11.8661 84.0698-12.5275 85.9285-13.1888L85.9914-15.9024C83.869-14.9998 81.5184-14.2401 79.0874-13.5743C54.8266-7.2656 36.6243-18.4264 29.8286-43.6477L18.954-83.7463C17.4035-89.6174 20.2052-94.47 26.0763-96.0204L83.6933-111.403C89.6493-112.954 94.417-110.161 95.963-104.299L106.672-64.1867C108.294-58.1997 108.938-52.5254 108.607-47.3426L111.544-49.8693C111.482-54.646 110.749-59.6729 109.266-64.95L98.306-105.031C96.3539-112.37 90.4212-115.698 83.0059-113.661L25.4918-98.274C18.1659-96.3219 14.6769-90.2909 16.6245-83.0454ZM46.9859-64.8166C50.4929-65.6073 52.7582-63.8426 54.2772-64.3296C55.0499-64.5664 55.9615-65.92 55.3986-68.0109C54.0269-72.988 49.2332-75.5345 44.5868-74.2612C39.6142-72.8896 36.7326-68.3461 38.0952-63.3601C38.6537-61.2736 40.2845-60.4874 41.1512-60.7242C42.6657-61.1218 43.394-63.7756 46.9859-64.8166ZM81.2987-74.0784C84.8012-74.8601 87.071-73.1043 88.59-73.5914C89.2733-73.8236 90.2698-75.1773 89.7069-77.2727C88.3352-82.2498 83.537-84.8052 78.8102-83.523C73.8331-82.1559 70.956-77.6079 72.3186-72.6218C72.8771-70.5354 74.5124-69.7447 75.3746-69.9814C76.8891-70.3791 77.6174-73.0329 81.2987-74.0784ZM75.4505-27.2771C88.2692-30.8515 96.2847-40.6767 96.2622-53.366C96.1773-55.4209 94.6048-56.386 92.876-55.2111C87.1977-51.0473 79.8839-47.3385 71.9345-45.0149C63.1449-42.2712 54.0436-41.36 46.3367-42.5084C44.2907-42.8256 43.451-41.3335 44.55-39.4169C50.7068-28.5104 62.5425-23.9574 75.4505-27.2771ZM57.0034 34.4063C70.2812 45.3425 94.0136 40.3592 102.492 27.7337C109.12 17.8784 108.772 4.92723 96.4226-3.44004C87.2062-9.69349 75.2511-8.88435 69.4127-0.257402C64.4056 7.20773 67.568 13.5016 63.9316 18.8273C62.1543 21.5431 56.5469 20.9312 54.2552 24.3224C52.5084 26.9048 52.8705 30.9482 57.0034 34.4063ZM58.304 31.8733C55.368 29.6031 55.2027 27.0068 56.2841 25.6751C57.9554 23.338 63.1252 24.5093 66.1546 20.26C70.7161 13.9518 67.4368 7.30433 71.6672 1.14345C76.6532-6.20217 87.0818-6.65369 95.0483-1.22107C105.785 6.12859 106.076 17.6471 100.126 26.4667C92.1684 38.3922 70.0548 41.9177 58.304 31.8733ZM104.675 8.2204C111.274 6.97861 114.879 3.83818 119.847-3.21631C134.537-24.1246 156.754-75.2132 158.63-80.0834C162.088-88.9682 152.3-95.8565 145.426-89.2944C141.539-85.635 103.912-45.5415 89.2185-24.5528C84.2415-17.4938 82.7674-13.1026 83.6969-6.42772L86.5224-6.66943C85.459-11.6824 87.3132-17.4506 91.2358-23.2274C106.707-45.204 143.1-83.9839 146.894-87.858C152.002-93.1356 159.46-87.6747 156.707-81.0745C154.728-76.101 132.207-25.3206 117.66-4.54167C112.705 2.60716 108.827 4.82747 103.792 5.51531ZM118.451-4.41722L120.947-5.21603C117.543-16.5328 102.414-27.0323 90.5924-26.331L90.9325-23.7238C101.392-24.2998 115.373-14.5196 118.451-4.41722Z"/>
  </g>
  <g id="Black-M" transform="matrix(1 0 0 1 2858.51 1126)">
   <path d="M21.4858-35.4919C27.7436-11.9574 44.9657-0.696163 67.4124-5.7101C69.1764-6.12975 70.8836-6.60623 72.6483-7.0256L72.0575-22.1802C67.1644-20.0894 66.9681-20.0293 66.1385-19.7867C50.4096-15.7131 39.606-22.4072 35.1641-39.0606L27.0604-69.3428C26.5893-71.1034 27.312-72.4209 28.9585-72.8349L71.822-84.3651C73.5824-84.8363 74.843-83.9883 75.3196-82.2167L83.4184-52.0652C85.1048-45.7857 85.2035-40.8512 83.8805-35.7657L98.5689-48.1083C98.2562-50.4998 97.7065-53.1815 97.0286-55.6965L88.8681-86.2861C86.0972-96.5799 78.7342-100.685 68.3155-97.9139L25.2014-86.4463C14.7199-83.6754 10.5478-76.5004 13.3242-66.0812ZM43.3408-53.3794C46.5774-54.1903 48.0771-52.757 49.386-53.0682C50.5043-53.3177 50.8141-54.5646 50.378-56.1846C49.3814-60.1726 45.1479-62.5419 41.2839-61.3573C37.2332-60.3607 34.8025-56.246 35.9243-52.3831C36.423-50.7006 37.299-49.7701 38.2918-50.0767C39.6634-50.4508 40.1615-52.5069 43.3408-53.3794ZM69.1315-60.3567C72.3736-61.2927 73.8678-59.7342 75.1768-60.0455C76.3008-60.3576 76.6103-61.6045 76.1742-63.1618C75.1776-67.1499 71.0638-69.394 67.0804-68.3346C63.0923-67.2754 60.599-63.2233 61.7208-59.3604C62.2195-57.6779 63.0901-56.81 64.0883-57.0595C65.4599-57.4336 65.9581-59.5468 69.1315-60.3567ZM64.2132-27.7137C72.4356-29.9544 77.7956-36.1218 78.1085-43.7243C78.1659-45.902 76.362-46.6497 74.428-45.2199C69.5092-41.7297 63.7769-40.2349 61.1589-39.5488C58.4186-38.8016 52.8119-37.2458 46.6429-37.8051C44.3971-38.1169 43.0287-36.4325 44.2765-34.6923C48.3858-28.2727 56.1109-25.5292 64.2132-27.7137ZM49.8799 17.4209C58.6545 28.215 83.0655 30.2441 94.9471 18.3599C105.396 8.03616 105.579-5.85167 95.7589-15.6743C86.1104-25.3788 73.6639-26.1785 65.2721-17.6082C56.8422-9.18111 61.3315-0.896341 58.7311 1.7093C55.5075 4.92431 52.0792 3.81647 49.1381 6.81647C46.5981 9.54149 46.6266 13.4286 49.8799 17.4209ZM66.5221 12.8655C65.9742 12.6173 65.7409 12.1254 66.1073 11.6402C66.5913 11.0277 67.6496 10.6562 68.2903 9.78259C74.3242 2.52175 70.7771-3.01492 74.6214-7.10857C77.8563-10.5287 82.2408-10.266 86.6436-6.4992C91.1326-2.5808 90.6881 3.46212 85.4026 8.87422C79.6857 14.7765 71.7923 15.3178 66.5221 12.8655ZM97.1534-1.05479C103.684-2.44916 108.95-6.6334 113.862-13.5711C121.404-24.2688 128.829-40.7204 136.452-63.9878C140.834-77.3745 128.144-87.4844 116.601-77.9038C113.985-75.6633 93.1326-56.1843 80.0006-37.2596C75.3274-30.4987 73.107-24.1888 73.7946-17.8185L88.5162-16.2455C86.8147-20.4751 87.1574-23.3429 91.4313-29.2727C100.433-41.9621 113.362-55.1101 120.109-61.8056C120.579-62.2753 121.018-61.9369 120.852-61.4278C117.762-52.3324 111.426-34.3764 102.432-21.5579C98.806-16.2772 96.3512-14.8939 92.3774-14.1179ZM101.997-14.9476L113.303-20.1807C111.804-31.8479 98.3788-41.4913 87.0503-39.1902L84.8896-26.4428C92.8899-28.5081 101.017-22.8567 101.997-14.9476Z"/>
  </g>
  <g id="Heavy-M" transform="matrix(1 0 0 1 2562.76 1126)">
   <path d="M21.4487-35.9814C27.5993-12.8652 44.3986-1.86557 66.3827-6.70924C68.0492-7.09615 69.6697-7.52895 71.3317-7.91813L70.7093-21.4523C66.6742-19.7421 66.3812-19.6616 65.5897-19.4197C49.5281-15.2583 38.2589-22.2307 33.7401-39.1873L25.6127-69.511C25.0344-71.695 25.9033-73.2759 28.0001-73.8106L70.9435-85.367C73.1297-85.9453 74.6647-84.9563 75.2594-82.7395L83.3659-52.5522C84.9117-46.7643 85.1048-42.0872 84.0596-37.3586L97.0961-48.3191C96.7936-50.6938 96.2657-53.3097 95.5808-55.8181L87.4076-86.4256C84.7642-96.2707 77.7674-100.159 67.8-97.5129L24.6187-86.0165C14.5935-83.3731 10.6247-76.5541 13.2845-66.5912ZM42.5766-53.7106C45.7818-54.5137 47.3026-53.083 48.6065-53.3968C49.6934-53.6437 50.0185-54.883 49.5824-56.5029C48.5833-60.4859 44.3811-62.8398 40.5273-61.6628C36.4844-60.6637 34.0613-56.5721 35.1805-52.7092C35.6767-51.0292 36.579-50.1224 37.5481-50.413C38.912-50.7845 39.4127-52.8406 42.5766-53.7106ZM68.398-60.6955C71.6197-61.6187 73.1241-60.0679 74.4279-60.3817C75.5289-60.6887 75.8564-61.928 75.4202-63.4879C74.4211-67.4708 70.3226-69.7047 66.3629-68.6478C62.38-67.5886 59.8969-63.557 61.0161-59.6941C61.5122-58.0142 62.3981-57.1674 63.3836-57.4143C64.7475-57.7859 65.2482-59.8856 68.398-60.6955ZM63.506-27.89C71.8057-30.1512 77.2099-36.3858 77.5101-44.0971C77.5514-46.2408 75.7814-46.9885 73.8705-45.5901C68.983-42.1101 63.2532-40.5507 60.4644-39.8102C57.5328-38.9984 51.859-37.4868 45.6976-38.0589C43.4774-38.3681 42.1481-36.7041 43.3806-34.9851C47.5154-28.4644 55.3076-25.6793 63.506-27.89ZM49.039 17.1671C58.3791 27.8826 81.5769 29.4472 93.0389 17.8245C103.068 7.79638 103.222-5.63815 93.5922-15.1287C84.2098-24.4424 72.2019-25.1531 64.1626-16.8586C56.1679-8.78163 60.567-0.662567 57.733 2.24974C54.502 5.48936 51.027 4.43984 48.2436 7.31276C45.9184 9.84077 45.8891 13.4847 49.039 17.1671ZM64.0511 13.1063C63.4476 12.7884 63.2522 12.2376 63.6255 11.7538C64.1184 11.1062 65.5724 10.6716 66.4593 9.42271C71.9685 2.59169 68.6068-3.1666 72.6432-7.51184C76.0263-11.1551 80.8917-10.8935 85.4644-6.91809C90.2706-2.67188 89.8408 3.76417 84.4799 9.35517C78.6443 15.5106 69.9653 16.3731 64.0511 13.1063ZM95.7885-1.59281C101.972-3.01551 106.927-7.00806 111.641-13.6635C120.402-26.1286 128.441-45.8748 134.531-64.4112C138.745-77.0844 126.726-86.6153 115.829-77.5353C113.198-75.2719 91.9905-55.2883 78.9712-36.5229C74.4648-30.0148 72.3426-24.0653 72.9074-17.9779L86.0401-16.5858C84.5978-20.6556 85.1856-23.7317 89.2202-29.3574C99.07-43.2397 114.076-58.2245 119.651-63.7745C120.358-64.4856 121.183-63.9064 120.84-63.0276C118.26-55.5995 111.179-34.7995 101.387-20.829C97.8544-15.6959 95.3221-14.1419 91.5088-13.319ZM101.004-15.417L111.024-20.0434C109.334-31.0915 96.5719-40.2485 85.7555-38.297L83.8802-27.0124C91.4225-28.8911 99.9921-22.9287 101.004-15.417Z"/>
  </g>
  <g id="Bold-M" transform="matrix(1 0 0 1 2267.13 1126)">
   <path d="M21.4071-36.5291C27.4379-13.8807 43.7642-3.17373 65.2309-7.82693C66.7882-8.1772 68.3118-8.56115 69.8589-8.91654L69.2012-20.6381C66.1259-19.3536 65.7247-19.2502 64.9758-19.009C48.5419-14.7494 36.7519-22.0332 32.1471-39.329L23.9932-69.6993C23.2951-72.3568 24.3275-74.2325 26.9279-74.902L69.9608-86.4878C72.6234-87.1859 74.4654-86.0391 75.1921-83.3244L83.3071-53.097C84.6957-47.859 84.9943-43.4699 84.2599-39.1404L95.4485-48.5551C95.1575-50.9108 94.654-53.4532 93.9613-55.9541L85.7737-86.5816C83.2731-95.9248 76.6859-99.5701 67.2232-97.0643L23.9668-85.5357C14.4521-83.035 10.7107-76.6142 13.24-67.1618ZM41.7217-54.081C44.8919-54.8756 46.4363-53.4477 47.7345-53.7644C48.7863-54.0084 49.1286-55.2391 48.6924-56.8591C47.6904-60.8363 43.5234-63.1731 39.6811-62.0047C35.6467-61.0027 33.2322-56.9368 34.3485-53.0739C34.8418-51.3968 35.7735-50.5165 36.7161-50.7891C38.0714-51.1578 38.575-53.2139 41.7217-54.081ZM67.5775-61.0745C70.7762-61.9834 72.2921-60.4412 73.5902-60.7579C74.6655-61.0591 75.013-62.2898 74.5768-63.8526C73.5748-67.8298 69.4935-70.0522 65.5603-68.9982C61.5831-67.939 59.1114-63.9303 60.2278-60.0674C60.7211-58.3903 61.6241-57.5672 62.5953-57.8113C63.9506-58.18 64.4542-60.2646 67.5775-61.0745ZM62.7148-28.0873C71.1011-30.3713 76.5547-36.681 76.8406-44.514C76.864-46.6199 75.132-47.3675 73.2467-46.0042C68.3944-42.5357 62.6675-40.9039 59.6876-40.1027C56.542-39.2186 50.793-37.7563 44.6402-38.3427C42.4486-38.6491 41.163-37.008 42.3783-35.3126C46.5417-28.6788 54.4091-25.8472 62.7148-28.0873ZM48.0984 16.8831C58.0711 27.5107 79.9117 28.5557 90.9042 17.2257C100.464 7.52815 100.586-5.39929 91.1685-14.5184C82.0836-23.3949 70.5665-24.006 62.9214-16.02C55.4136-8.33475 59.7118-0.401058 56.6164 2.85431C53.3771 6.12144 49.8498 5.13716 47.243 7.86793C45.1582 10.1756 45.0642 13.5474 48.0984 16.8831ZM61.2869 13.3756C60.6213 12.9797 60.4682 12.3632 60.8494 11.8809C61.3522 11.1941 63.2487 10.6887 64.4112 9.02014C69.3332 2.66991 66.1789-3.33627 70.4302-7.96296C73.9791-11.8557 79.3825-11.5954 84.1452-7.38668C89.3062-2.77376 88.8928 4.10205 83.4478 9.89318C77.4794 16.3316 67.9216 17.5537 61.2869 13.3756ZM94.2617-2.19466C100.056-3.64905 104.665-7.42717 109.156-13.7668C119.28-28.2091 128.008-51.6408 132.381-64.8848C136.409-76.7598 125.14-85.643 114.965-77.1231C112.318-74.834 90.713-54.2859 77.8198-35.6989C73.5-29.4735 71.4874-23.9271 71.9151-18.1563L83.2702-16.9664C82.118-20.8574 82.9799-24.1667 86.7469-29.4522C97.5449-44.669 114.875-61.7084 119.139-65.9769C120.11-66.9582 121.368-66.1096 120.826-64.8173C118.818-59.2543 110.903-35.2728 100.219-20.0135C96.79-15.0458 94.1708-13.3007 90.5371-12.4253ZM99.8933-15.9421L108.474-19.8899C106.571-30.2454 94.5508-38.8581 84.3071-37.2978L82.751-27.6496C89.7811-29.3196 98.8458-23.0091 99.8933-15.9421Z"/>
  </g>
  <g id="Semibold-M" transform="matrix(1 0 0 1 1971.17 1126)">
   <path d="M21.3784-36.9067C27.3266-14.5807 43.3268-4.07556 64.4368-8.59746C65.9189-8.92247 67.3757-9.27274 68.8435-9.60485L68.1615-20.0768C65.7478-19.0857 65.2721-18.9666 64.5526-18.726C47.8621-14.3986 35.713-21.897 31.0489-39.4267L22.8767-69.829C22.096-72.813 23.2411-74.8919 26.1888-75.6544L69.2833-87.2605C72.2744-88.0412 74.328-86.7856 75.1457-83.7276L83.2666-53.4726C84.5468-48.6137 84.9182-44.4231 84.3981-40.3688L94.3127-48.7177C94.0296-51.0603 93.5429-53.5521 92.8448-56.0478L84.6474-86.6891C82.2451-95.6863 75.9403-99.1645 66.8256-96.7551L23.5174-85.2042C14.3547-82.8019 10.77-76.6556 13.2094-67.5551ZM41.1324-54.3364C44.2783-55.125 45.8391-53.6991 47.1333-54.0178C48.1609-54.2599 48.515-55.4846 48.0789-57.1046C47.0749-61.0779 42.9321-63.4028 39.0976-62.2403C35.0691-61.2363 32.6606-57.1882 33.775-53.3253C34.2663-51.6502 35.2182-50.7882 36.1425-51.0484C37.4919-51.4152 37.9975-53.4712 41.1324-54.3364ZM67.0118-61.3358C70.1948-62.2349 71.7185-60.6986 73.0127-61.0172C74.0702-61.3145 74.4315-62.5393 73.9954-64.104C72.9914-68.0773 68.9219-70.2918 65.007-69.2398C61.0337-68.1806 58.5699-64.1876 59.6843-60.3247C60.1756-58.6496 61.0905-57.8428 62.0519-58.0849C63.4013-58.4517 63.9068-60.5259 67.0118-61.3358ZM62.1694-28.2233C70.6154-30.5231 76.103-36.8846 76.379-44.8015C76.3901-46.8811 74.6842-47.6288 72.8167-46.2897C67.9886-42.829 62.2636-41.1475 59.152-40.3043C55.8589-39.3703 50.0581-37.9421 43.9113-38.5384C41.7393-38.8428 40.4839-37.2175 41.6873-35.5384C45.8705-28.8266 53.7896-25.9629 62.1694-28.2233ZM47.45 16.6873C57.8587 27.2543 78.7637 27.9411 89.4326 16.8128C98.6685 7.34323 98.7687-5.23463 89.4975-14.0977C80.6179-22.6727 69.439-23.2152 62.0658-15.4419C54.8936-8.02667 59.1222-0.220774 55.8466 3.27109C52.6016 6.55719 49.0383 5.61789 46.5531 8.25066C44.6341 10.4064 44.4954 13.5906 47.45 16.6873ZM59.3813 13.5613C58.6729 13.1116 58.549 12.4497 58.9355 11.9685C59.4451 11.2546 61.6468 10.7005 62.9992 8.7426C67.5165 2.72384 64.5052-3.45324 68.9046-8.27396C72.5678-12.3387 78.3421-12.0794 83.2358-7.70973C88.6414-2.844 88.2393 4.33498 82.7363 10.2641C76.6763 16.8977 66.5126 18.3675 59.3813 13.5613ZM93.2091-2.60958C98.7349-4.08581 103.105-7.71611 107.443-13.838C118.507-29.6434 127.71-55.6158 130.9-65.2114C134.798-76.536 124.046-84.9727 114.37-76.839C111.711-74.5321 89.8322-53.5949 77.026-35.1308C72.8348-29.1004 70.8978-23.8319 71.2309-18.2793L81.3606-17.2288C80.4083-20.9965 81.4593-24.4665 85.0417-29.5175C96.4935-45.6543 115.426-64.1102 118.786-67.4953C119.939-68.6627 121.495-67.6285 120.817-66.051C119.202-61.7739 110.713-35.5991 99.413-19.4513C96.0562-14.5975 93.3772-12.7208 89.8673-11.8092ZM99.1276-16.3041L106.716-19.7841C104.667-29.6621 93.1574-37.8996 83.3086-36.609L81.9725-28.0888C88.6496-29.615 98.0556-23.0646 99.1276-16.3041Z"/>
  </g>
  <g id="Medium-M" transform="matrix(1 0 0 1 1675.02 1126)">
   <path d="M21.3567-37.193C27.2422-15.1116 42.9952-4.75937 63.8347-9.18171C65.2597-9.48756 66.6659-9.81229 68.0737-10.1267L67.3732-19.6512C65.4612-18.8826 64.929-18.7515 64.2317-18.5113C47.3466-14.1326 34.9253-21.7938 30.2162-39.5007L22.0301-69.9274C21.1868-73.1589 22.4174-75.3919 25.6283-76.2249L68.7696-87.8463C72.0097-88.6896 74.2237-87.3517 75.1105-84.0333L83.2359-53.7574C84.4339-49.186 84.8604-45.1458 84.5028-41.3002L93.4514-48.841C93.1743-51.1738 92.7004-53.6271 91.9983-56.1189L83.7934-86.7707C81.4657-95.5055 75.3749-98.8569 66.5241-96.5206L23.1767-84.9529C14.2808-82.6252 10.815-76.687 13.1861-67.8534ZM40.6855-54.53C43.8131-55.3142 45.3863-53.8898 46.6775-54.2099C47.6867-54.4505 48.0498-55.6708 47.6137-57.2907C46.6082-61.261 42.4837-63.577 38.6553-62.419C34.6313-61.4135 32.2272-57.3788 33.3401-53.5159C33.8299-51.8423 34.7972-50.9942 35.7076-51.2451C37.0525-51.6103 37.5596-53.6663 40.6855-54.53ZM66.5829-61.5339C69.7539-62.4255 71.2836-60.8937 72.5748-61.2138C73.6189-61.5081 73.9906-62.7284 73.5545-64.2946C72.549-68.2649 68.4885-70.4735 64.5874-69.4229C60.6171-68.3638 58.1594-64.3828 59.2722-60.5199C59.7621-58.8462 60.6859-58.0518 61.6398-58.2924C62.9847-58.6576 63.4918-60.724 66.5829-61.5339ZM61.7558-28.3264C70.2471-30.6382 75.7605-37.039 76.0291-45.0194C76.0307-47.0793 74.3447-47.8269 72.4907-46.5061C67.6809-43.0515 61.9574-41.3321 58.7459-40.4571C55.341-39.4854 49.5009-38.083 43.3585-38.6868C41.2016-38.9897 39.9689-37.3763 41.1634-35.7096C45.3615-28.9387 53.3199-26.0507 61.7558-28.3264ZM46.9583 16.5388C57.6977 27.0599 77.8933 27.4751 88.3168 16.4998C97.3073 7.20302 97.3906-5.10977 88.2306-13.7787C79.5065-22.1252 68.5841-22.6156 61.417-15.0036C54.4993-7.79307 58.6752-0.084076 55.2629 3.58712C52.0136 6.8876 48.423 5.9824 46.0301 8.54086C44.2367 10.5814 44.0642 13.6234 46.9583 16.5388ZM57.9364 13.702C57.1954 13.2116 57.0937 12.5153 57.4843 12.0349C57.9991 11.3005 60.4322 10.7095 61.9286 8.53216C66.139 2.76473 63.2361-3.54193 67.7479-8.50977C71.4977-12.705 77.5533-12.4463 82.5463-7.95467C88.1374-2.89725 87.7438 4.5116 82.1968 10.5453C76.0674 17.3269 65.4443 18.9846 57.9364 13.702ZM92.411-2.92418C97.7335-4.41698 101.923-7.93519 106.144-13.8921C117.921-30.731 127.483-58.6298 129.776-65.4589C133.577-76.3664 123.217-84.4645 113.919-76.6236C111.25-74.3032 89.1644-53.0709 76.4241-34.7001C72.3304-28.8174 70.4508-23.7597 70.7122-18.3726L79.9127-17.4277C79.112-21.102 80.3064-24.6939 83.7488-29.567C95.6963-46.4014 115.844-65.9313 118.518-68.6465C119.809-69.9552 121.592-68.7802 120.81-66.9865C119.494-63.6844 110.568-35.8465 98.8021-19.0251C95.4998-14.2577 92.7754-12.2811 89.3593-11.3421ZM98.547-16.5786L105.383-19.7038C103.222-29.2198 92.1009-37.1729 82.5515-36.0867L81.3822-28.4219C87.7916-29.839 97.4564-23.1067 98.547-16.5786Z"/>
  </g>
  <g id="Regular-M" transform="matrix(1 0 0 1 1379.05 1126)">
   <path d="M21.3283-37.5664C27.1322-15.804 42.5626-5.65129 63.0493-9.94377C64.3999-10.2246 65.74-10.5161 67.0695-10.8075L66.3449-19.0961C65.0873-18.6177 64.4813-18.471 63.8131-18.2314C46.6743-13.7856 33.8978-21.6591 29.13-39.5973L20.9259-70.0558C20.0009-73.6101 21.3429-76.044 24.8973-76.9691L68.0996-88.6105C71.6645-89.5355 74.0878-88.0899 75.0646-84.4321L83.1959-54.1289C84.2867-49.9324 84.7851-46.0886 84.6394-42.5151L92.3281-49.0019C92.0588-51.3217 91.6015-53.7249 90.8941-56.2116L82.6794-86.877C80.449-95.2696 74.6375-98.4557 66.1309-96.2147L22.7322-84.6251C14.1844-82.3946 10.8737-76.7279 13.1558-68.2424ZM40.1027-54.7826C43.2063-55.5609 44.7956-54.1384 46.0829-54.4605C47.0682-54.6992 47.4431-55.9136 47.0069-57.5335C45.9995-61.4999 41.8989-63.8042 38.0782-62.6521C34.0601-61.6446 31.6619-57.6275 32.7728-53.7646C33.2607-52.0929 34.248-51.2629 35.1404-51.5015C36.4794-51.8648 36.9884-53.9209 40.1027-54.7826ZM66.0234-61.7924C69.1788-62.6742 70.7164-61.1482 72.0037-61.4703C73.0302-61.7607 73.4156-62.9751 72.9794-64.5433C71.972-68.5097 67.9232-70.7105 64.0402-69.6618C60.0738-68.6027 57.6238-64.6373 58.7348-60.7744C59.2226-59.1027 60.1582-58.3244 61.1023-58.5631C62.4414-58.9263 62.9504-60.9824 66.0234-61.7924ZM61.2164-28.4609C69.7667-30.7883 75.3138-37.2403 75.5726-45.3037C75.562-47.3377 73.9019-48.0853 72.0654-46.7885C67.2795-43.3416 61.558-41.573 58.2162-40.6565C54.6654-39.6355 48.7741-38.2668 42.6376-38.8803C40.5001-39.1813 39.2972-37.5835 40.48-35.9329C44.6976-29.0849 52.7073-26.1652 61.2164-28.4609ZM46.317 16.3452C57.4877 26.8064 76.7579 26.8672 86.8614 16.0915C95.5318 7.02013 95.5931-4.94691 86.578-13.3626C78.0568-21.411 67.469-21.8336 60.5708-14.4318C53.985-7.48838 58.0921 0.0942261 54.5016 3.99932C51.2466 7.31857 47.6204 6.45785 45.3478 8.91939C43.7183 10.8096 43.5018 13.6661 46.317 16.3452ZM56.0517 13.8857C55.2684 13.342 55.1955 12.6009 55.5915 12.1216C56.113 11.3604 58.8479 10.7212 60.5321 8.25768C64.3422 2.81807 61.5807-3.65761 66.239-8.81735C70.1019-13.1827 76.5243-12.9249 81.6469-8.27417C87.4799-2.96672 87.0975 4.74197 81.4931 10.9121C75.2731 17.8867 64.0508 19.7895 56.0517 13.8857ZM91.3699-3.33453C96.4272-4.84895 100.38-8.22095 104.45-13.9625C117.156-32.1495 127.188-62.5611 128.311-65.7819C131.984-76.1451 122.136-83.8015 113.33-76.3425C110.65-74.0046 88.2934-52.3875 75.639-34.1382C71.6726-28.4484 69.8677-23.6655 70.0355-18.4942L78.0242-17.6873C77.4212-21.2396 78.8025-24.9905 82.0624-29.6317C94.6565-47.3759 116.389-68.3067 118.168-70.1482C119.64-71.641 121.718-70.2824 120.8-68.2067C119.874-66.1763 110.38-36.1692 98.0053-18.4691C94.774-13.8143 91.9904-11.7075 88.6968-10.7328ZM97.7898-16.9366L103.645-19.5991C101.339-28.6429 90.7228-36.2249 81.564-35.4054L80.6123-28.8564C86.6724-30.1311 96.6748-23.1615 97.7898-16.9366Z"/>
  </g>
  <g id="Light-M" transform="matrix(1 0 0 1 1083.22 1126)">
   <path d="M21.2599-38.6786C26.9782-17.1899 42.3744-7.34527 62.7413-12.0313C64.1604-12.3635 65.5518-12.7234 66.9155-13.0832L66.4305-19.4554C65.0531-18.9086 64.0707-18.625 63.026-18.2998C45.3739-13.7172 32.1867-21.8302 27.2649-40.2647L18.9924-70.9113C17.9818-74.7737 19.5805-77.6182 23.4429-78.6288L67.09-90.3558C70.98-91.3664 73.7969-89.6984 74.8422-85.7667L83.0247-55.224C84.1669-50.8906 84.6654-46.8757 84.4854-43.1653L90.4972-48.249C90.2963-50.9966 89.8049-53.8618 88.9605-56.8447L80.6603-87.6299C78.6523-95.1841 73.2173-98.1819 65.5663-96.1463L21.8082-84.4539C14.1501-82.446 11.0277-77.0872 13.0703-69.4915ZM38.9562-55.8263C41.9401-56.5533 43.5807-55.148 44.8338-55.4872C45.6993-55.7087 46.1768-56.8718 45.7407-58.4917C44.7162-62.4239 40.7354-64.6255 36.9831-63.5247C33.0163-62.5002 30.6694-58.637 31.7633-54.7741C32.234-53.1196 33.3069-52.358 34.1308-52.5795C35.4186-52.9257 35.9447-54.9817 38.9562-55.8263ZM65.0823-62.8875C68.1009-63.6837 69.7068-62.2091 70.9599-62.5483C71.8324-62.8045 72.3376-63.9676 71.9014-65.5529C70.8769-69.485 66.9308-71.6174 63.1162-70.5858C59.184-69.5267 56.8025-65.6981 57.8963-61.8353C58.3671-60.1807 59.4053-59.4537 60.2639-59.6753C61.5516-60.0214 62.0777-62.0775 65.0823-62.8875ZM60.3608-28.6491C69.3389-31.1134 75.0914-37.9247 75.2646-46.5357C75.2369-48.4328 73.7137-49.1804 72.0312-48.0034C67.3651-44.6249 61.6607-42.5141 57.4462-41.3238C52.8858-39.9606 46.6352-38.7973 40.55-39.4963C38.5837-39.7802 37.5519-38.3193 38.632-36.72C43.0208-29.3758 51.3898-26.2678 60.3608-28.6491ZM45.6497 17.081C56.5466 26.9262 75.543 25.7721 84.5514 15.3044C92.1267 6.67791 92.0853-4.69025 82.8992-12.507C74.8057-19.563 64.6286-19.6605 58.4661-12.4812C52.7188-5.89707 56.3126 0.847107 52.9616 4.82065C50.2884 7.76345 46.4398 7.02251 44.3211 9.53538C42.7772 11.4598 42.7147 14.4019 45.6497 17.081ZM52.6809 14.7754C51.4356 13.8553 51.3456 12.7207 51.8784 12.0702C52.6395 10.9839 55.7679 10.8239 57.6575 8.10368C61.3821 2.83518 58.689-3.22984 62.9195-8.2698C66.7824-13.0458 73.7181-12.9762 79.1658-8.46239C85.7688-3.03516 85.5746 5.04997 80.2782 11.4255C74.0754 19.1016 61.0222 21.2611 52.6809 14.7754ZM88.1873-2.78698C93.2616-4.13029 96.8551-7.2114 100.857-12.8674C113.152-30.4384 125.409-63.6904 126.634-67.0823C129.999-76.3675 120.853-83.3053 113.125-76.5821C110.342-74.0902 85.8807-49.5471 73.6199-31.9138C69.6877-26.2924 68.0882-21.9373 68.4271-16.766L74.6191-16.267C73.9477-19.9221 75.3461-23.8954 78.5376-28.4852C90.9434-46.0071 114.678-69.7611 116.817-71.962C119.058-74.2589 122.282-72.0106 120.988-68.9938C119.874-66.3988 107.916-33.4999 95.8836-16.296C92.4641-11.3675 89.612-9.38045 86.1302-8.54257ZM95.9247-15.2084L100.565-17.2378C98.156-26.196 87.1979-33.9492 78.0391-33.2152L77.4639-28.0692C84.1571-29.0873 94.4162-21.9295 95.9247-15.2084Z"/>
  </g>
  <g id="Thin-M" transform="matrix(1 0 0 1 787.673 1126)">
   <path d="M21.1693-40.1496C26.7745-19.023 42.1255-9.5857 62.334-14.7922C63.8436-15.1923 65.3028-15.6427 66.7118-16.0931L66.5437-19.9307C65.0078-19.2934 63.5275-18.8287 61.985-18.3903C43.6539-13.6267 29.9237-22.0565 24.7982-41.1473L16.4351-72.0429C15.3114-76.3126 17.2496-79.7003 21.5193-80.824L65.7548-92.6641C70.0748-93.7878 73.4122-91.8256 74.548-87.5319L82.7984-56.6723C84.0085-52.1579 84.5069-47.9167 84.2817-44.0253L88.0757-47.2532C87.9654-50.5666 87.4287-54.0429 86.4033-57.682L77.9899-88.6257C76.2761-95.0709 71.339-97.8198 64.8194-96.0558L20.5862-84.2276C14.1049-82.5139 11.2313-77.5625 12.9571-71.1435ZM37.44-57.2068C40.2655-57.8659 41.974-56.4832 43.1818-56.845C43.8889-57.0439 44.5022-58.1391 44.066-59.7591C43.0189-63.646 39.1965-65.7118 35.5348-64.6789C31.6359-63.6317 29.3569-59.9722 30.4281-56.1094C30.8762-54.4774 32.0622-53.8063 32.7956-54.0052C34.0155-54.3288 34.5642-56.3848 37.44-57.2068ZM63.8376-64.3358C66.6751-65.0189 68.3716-63.6122 69.5794-63.974C70.2483-64.1849 70.9118-65.2802 70.4757-66.8881C69.4285-70.775 65.6182-72.8168 61.8942-71.8079C58.0072-70.7487 55.7162-67.1012 56.7874-63.2384C57.2356-61.6064 58.4096-60.9473 59.155-61.1463C60.3748-61.4698 60.9236-63.5259 63.8376-64.3358ZM59.2293-28.898C68.7732-31.5434 74.7972-38.83 74.8572-48.1651C74.8069-49.8811 73.4648-50.6288 71.9859-49.6101C67.4782-46.3222 61.7965-43.7588 56.4278-42.2064C50.5323-40.3906 43.8064-39.4988 37.7891-40.311C36.0491-40.5723 35.2436-39.2924 36.1879-37.761C40.803-29.7605 49.6472-26.4036 59.2293-28.898ZM44.7671 18.0541C55.3019 27.0846 73.9363 24.3238 81.4962 14.2634C87.6232 6.2253 87.4461-4.35079 78.0336-11.3755C70.5059-17.1189 60.8719-16.7864 55.6826-9.90131C51.0442-3.79242 53.959 1.84285 50.9248 5.90691C49.0211 8.35185 44.8783 7.76932 42.9633 10.3501C41.5325 12.3198 41.6737 15.375 44.7671 18.0541ZM48.2226 15.9522C46.3663 14.5343 46.2537 12.8791 46.9676 12.0023C48.0455 10.486 51.6944 10.9597 53.8555 7.9C57.467 2.85781 54.8644-2.66407 58.5292-7.54562C62.3921-12.8647 70.0067-13.0441 75.8843-8.71132C83.5057-3.12568 83.5605 5.45732 78.6714 12.1044C72.4912 20.7084 57.0166 23.2073 48.2226 15.9522ZM83.978-2.06281C89.075-3.1798 92.1932-5.8762 96.1042-11.4191C107.857-28.1753 123.055-65.1841 124.416-68.8022C127.373-76.6617 119.155-82.649 112.853-76.8989C109.935-74.2033 82.6898-45.7904 70.9495-28.9718C67.0625-23.441 65.7346-19.6516 66.2998-14.4803L70.1156-14.3887C69.3537-18.1795 70.7747-22.447 73.8757-26.969C86.0326-44.1966 112.415-71.6847 115.029-74.3608C118.289-77.7214 123.029-74.2962 121.237-70.0348C119.874-66.693 104.657-29.9695 93.0774-13.4219C89.4089-8.13131 86.4664-6.30269 82.7356-5.64585ZM93.458-12.9227L96.4915-14.1148C93.9468-22.9598 82.536-30.9393 73.3772-30.3185L73.2999-27.0282C80.8304-27.7069 91.429-20.3001 93.458-12.9227Z"/>
  </g>
  <g id="Ultralight-M" transform="matrix(1 0 0 1 491.559 1126)">
   <path d="M21.123-40.903C26.6702-19.9619 41.998-10.7332 62.1253-16.2064C63.6813-16.6412 65.1753-17.138 66.6075-17.6348L66.6016-20.1741C64.9846-19.4904 63.2494-18.933 61.4518-18.4367C42.773-13.5803 28.7645-22.1725 23.5347-41.5993L15.1253-72.6224C13.9436-77.1008 16.0557-80.7667 20.534-81.9483L65.0709-93.8464C69.6112-95.0281 73.2152-92.9152 74.3973-88.436L82.6825-57.4142C83.9274-52.807 84.4258-48.4499 84.1774-44.4657L86.8355-46.7432C86.7715-50.3464 86.2116-54.1356 85.0935-58.1109L76.6221-89.1357C75.059-95.0129 70.3769-97.6344 64.4369-96.0094L19.9602-84.1117C14.0817-82.5486 11.3357-77.8059 12.8992-71.9897ZM36.6634-57.9139C39.4077-58.5382 41.151-57.1671 42.3356-57.5405C42.9616-57.7278 43.6444-58.7882 43.2083-60.4082C42.1495-64.2719 38.4083-66.2682 34.7929-65.27C30.9288-64.2113 28.6846-60.6561 29.7442-56.7932C30.1807-55.1729 31.4247-54.5482 32.1117-54.7355C33.2968-55.0474 33.8571-57.1035 36.6634-57.9139ZM63.2001-65.0777C65.9449-65.7028 67.6877-64.3308 68.8724-64.7042C69.4369-64.892 70.1816-65.9524 69.7455-67.5719C68.6867-71.4357 64.9459-73.4311 61.2682-72.4338C57.4045-71.3746 55.1598-67.8199 56.2194-63.957C56.656-62.3367 57.8996-61.7124 58.587-61.8997C59.7721-62.2116 60.3324-64.2677 63.2001-65.0777ZM58.6498-29.0255C68.4834-31.7636 74.6465-39.2936 74.6486-48.9997C74.5867-50.623 73.3372-51.3706 71.9628-50.4331C67.5362-47.1916 61.866-44.3963 55.9062-42.6585C49.3268-40.6109 42.3575-39.8581 36.375-40.7283C34.7508-40.9779 34.0613-39.7908 34.9361-38.2942C39.667-29.9576 48.7547-26.4732 58.6498-29.0255ZM44.315 18.5525C54.6644 27.1657 73.1133 23.5819 79.9314 13.7302C85.3166 5.99348 85.0699-4.17692 75.5415-10.7959C68.3036-15.867 58.9478-15.3143 54.2568-8.57991C50.1864-2.71443 52.7535 2.35287 49.8816 6.4633C48.372 8.65322 44.0785 8.15184 42.2678 10.7674C40.895 12.7603 41.1405 15.8734 44.315 18.5525ZM45.9392 16.555C43.7699 14.882 43.6457 12.9602 44.4523 11.9676C45.6925 10.231 49.608 11.0292 51.9082 7.79568C55.4617 2.8694 52.9055-2.37429 56.2805-7.1747C60.1434-12.772 68.1057-13.0789 74.2036-8.83883C82.3466-3.17205 82.5289 5.66596 77.8484 12.4521C71.6798 21.5314 54.9649 24.2041 45.9392 16.555ZM81.822-1.69188C86.9306-2.69297 89.8054-5.19231 93.67-10.6772C105.144-27.0162 121.849-65.9491 123.28-69.6832C126.029-76.8124 118.286-82.3129 112.714-77.0612C109.726-74.2613 81.0554-43.8662 69.5817-27.465C65.718-21.9805 64.5291-18.4809 65.2103-13.3096L67.8089-13.4266C67.0007-17.287 68.4333-21.7052 71.4879-26.1924C83.5173-43.2693 111.256-72.67 114.113-75.5895C117.895-79.4949 123.412-75.467 121.365-70.568C119.874-66.8437 102.988-28.1613 91.6401-11.9498C87.8441-6.47375 84.8552-4.72628 80.9969-4.16217ZM92.1945-11.752L94.405-12.5152C91.7908-21.3023 80.1482-29.3977 70.9894-28.8348L71.1671-26.495C79.1265-26.9998 89.8989-19.4656 92.1945-11.752Z"/>
  </g>
  <g id="Black-S" transform="matrix(1 0 0 1 2874.46 696)">
   <path d="M16.8457-35.3516C21.7773-16.7969 35.4004-7.91016 53.125-11.9141C54.541-12.2559 55.9082-12.6465 57.3242-12.9883L56.8848-25.2441C52.7832-23.4863 52.6367-23.4375 51.9531-23.2422C39.6973-20.0684 31.3477-25.2441 27.8809-38.2324L21.5332-61.9629C21.1914-63.2324 21.7285-64.209 22.9004-64.502L56.4941-73.5352C57.7637-73.877 58.6914-73.2422 59.0332-71.9727L65.3809-48.3398C66.748-43.2617 66.7969-39.3066 65.6738-35.2051L77.5879-45.2148C77.3438-47.1191 76.9043-49.2676 76.3672-51.2695L69.9707-75.2441C67.7734-83.3984 61.9141-86.6699 53.6621-84.4727L19.873-75.4883C11.5723-73.291 8.25195-67.5781 10.4492-59.3262ZM34.1309-49.4141C36.6699-50.0488 37.8418-48.9258 38.8672-49.1699C39.7461-49.3652 39.9902-50.3418 39.6484-51.6113C38.8672-54.7363 35.5469-56.5918 32.5195-55.6641C29.3457-54.8828 27.4414-51.6602 28.3203-48.6328C28.7109-47.3145 29.3945-46.582 30.1758-46.8262C31.25-47.1191 31.6406-48.7305 34.1309-49.4141ZM54.3457-54.8828C56.8848-55.6152 58.0566-54.3945 59.082-54.6387C59.9609-54.8828 60.2051-55.8594 59.8633-57.0801C59.082-60.2051 55.8594-61.9629 52.7344-61.1328C49.6094-60.3027 47.6562-57.1289 48.5352-54.1016C48.9258-52.7832 49.6094-52.0996 50.3906-52.2949C51.4648-52.5879 51.8555-54.248 54.3457-54.8828ZM50.4883-29.2969C56.9336-31.0547 61.1328-35.8887 61.377-41.8457C61.4258-43.5547 60.0098-44.1406 58.4961-43.0176C54.6387-40.2832 50.1465-39.1113 48.0957-38.5742C45.9473-37.9883 41.5527-36.7676 36.7188-37.207C34.9609-37.4512 33.8867-36.1328 34.8633-34.7656C38.0859-29.7363 44.1406-27.5879 50.4883-29.2969ZM39.3066 6.15234C45.9961 14.5996 65.4785 16.2598 74.8535 6.88477C83.1055-1.26953 83.252-12.2559 75.4883-20.0195C67.8711-27.6855 58.0078-28.3203 51.3672-21.5332C44.6777-14.8438 48.1934-8.34961 46.2402-6.39648C43.75-3.90625 41.0645-4.78516 38.7207-2.39258C36.6699-0.195312 36.7188 2.92969 39.3066 6.15234ZM52.6855 2.44141C52.2461 2.24609 52.0508 1.85547 52.3438 1.46484C52.7344 0.976562 53.4668 0.732422 53.9062 0.146484C58.7891-5.66406 55.957-9.91211 58.8867-13.0371C61.377-15.6738 64.6973-15.4785 68.1152-12.5977C71.582-9.61914 71.2402-4.98047 67.1387-0.78125C62.6953 3.80859 56.6406 4.15039 52.6855 2.44141ZM76.3672-8.25195C81.5918-9.32617 85.791-12.6465 89.6973-18.1641C95.2148-25.9766 100.977-38.0371 107.422-57.7148C110.889-68.3594 100.781-76.416 91.6016-68.7988C89.5508-67.041 73.1934-51.7578 62.8906-36.9141C59.1797-31.543 57.4219-26.5137 58.0078-21.4355L69.9219-20.166C68.5059-23.5352 68.7012-25.7324 72.1191-30.4688C78.9062-40.0391 88.5254-49.9512 94.1895-55.5664C94.5312-55.9082 94.8242-55.6641 94.7266-55.3223C92.1387-47.6562 87.2559-34.2773 80.4688-24.6094C77.5879-20.4102 75.6836-19.3848 72.5098-18.7988ZM80.127-19.0918L89.3066-23.3398C88.1836-32.666 77.4414-40.3809 68.4082-38.4766L66.6504-28.125C73.0957-29.7852 79.3457-25.4395 80.127-19.0918Z"/>
  </g>
  <g id="Heavy-S" transform="matrix(1 0 0 1 2578.47 696)">
   <path d="M16.8227-35.6281C21.6736-17.3961 34.9394-8.69382 52.2837-12.5018C53.6075-12.809 54.8941-13.1536 56.2179-13.4608L55.7208-24.5757C52.3683-23.1521 52.1873-23.1033 51.5843-22.9195C39.1095-19.6881 30.4142-25.0713 26.9013-38.2555L20.5421-61.9975C20.1196-63.5897 20.7489-64.7391 22.2665-65.1243L55.8718-74.169C57.464-74.5915 58.5762-73.8645 59.0102-72.2492L65.3578-48.6164C66.5982-43.9762 66.7277-40.2632 65.8467-36.4843L76.5622-45.4914C76.3181-47.3266 75.9017-49.3598 75.3761-51.2926L68.9796-75.2672C66.863-83.1449 61.2687-86.255 53.2933-84.1384L19.4927-75.1425C11.4685-73.026 8.29805-67.5781 10.4262-59.6028ZM33.6238-49.5639C36.1513-50.1986 37.3347-49.0756 38.3601-49.3197C39.2275-49.5151 39.4716-50.4916 39.1298-51.7611C38.3486-54.8861 35.0398-56.7416 32.0125-55.8139C28.8386-55.0326 26.9343-51.81 27.8132-48.7826C28.2039-47.4643 28.899-46.7434 29.6687-46.976C30.7429-47.269 31.1335-48.8803 33.6238-49.5639ZM53.8386-55.0326C56.3777-55.7651 57.5496-54.5443 58.575-54.7885C59.4539-55.0326 59.698-56.0092 59.3562-57.2299C58.575-60.3549 55.3523-62.1127 52.2388-61.2826C49.1138-60.4526 47.1607-57.2787 48.0396-54.2514C48.4302-52.933 49.1138-52.261 49.8951-52.4563C50.9693-52.7492 51.3599-54.3979 53.8386-55.0326ZM49.9927-29.4236C56.4496-31.1815 60.6603-36.027 60.9045-42.007C60.9418-43.7045 59.5373-44.2904 58.0236-43.1789C54.1777-40.4445 49.6855-39.2611 47.6002-38.7125C45.4171-38.1151 41.0111-36.9059 36.1771-37.3453C34.4193-37.5895 33.3566-36.2711 34.3332-34.9154C37.5558-29.8631 43.622-27.7031 49.9927-29.4236ZM38.6728 5.84118C45.8808 14.3 64.3606 15.7181 73.5167 6.52751C81.5497-1.43087 81.6846-12.106 74.1053-19.6623C66.661-27.1208 57.1204-27.721 50.6872-21.1414C44.2629-14.7055 47.767-8.24589 45.5833-6.03923C43.0124-3.47984 40.3154-4.32418 38.0869-2.04684C36.2089-0.0224455 36.1886 2.88359 38.6728 5.84118ZM51.003 2.5336C50.575 2.32677 50.4143 1.93614 50.6958 1.56856C51.0633 1.09181 52.0839 0.732422 52.7077-0.141627C57.1526-5.60644 54.4704-10.0965 57.619-13.452C60.236-16.227 63.9021-16.0086 67.4238-12.9319C71.0634-9.68829 70.7101-4.7615 66.5048-0.435516C61.9577 4.2811 55.4651 4.86491 51.003 2.5336ZM75.6066-8.78208C80.5315-9.9024 84.5118-13.0959 88.2567-18.383C94.8691-27.7859 100.873-42.3012 105.993-57.9108C109.356-68.0828 99.7325-75.7361 90.9677-68.4531C88.9169-66.6953 72.5249-51.3545 62.2683-36.5683C58.6957-31.4047 56.9955-26.6289 57.4546-21.7928L68.2393-20.6385C67.0538-23.8578 67.4565-26.2049 70.6786-30.6877C78.2148-41.3068 89.3552-52.4289 93.9705-57.0185C94.416-57.464 94.8934-57.1277 94.692-56.59C92.5651-50.4221 87.3596-34.9803 79.8464-24.2636C77.0693-20.2258 75.1074-19.039 72.0949-18.3955ZM79.5162-19.7141L87.7508-23.5242C86.478-32.3318 76.3466-39.6087 67.7513-37.9925L66.1894-28.7127C72.1622-30.2461 78.758-25.6584 79.5162-19.7141Z"/>
  </g>
  <g id="Bold-S" transform="matrix(1 0 0 1 2282.56 696)">
   <path d="M16.7969-35.9375C21.5576-18.0664 34.4238-9.57031 51.3428-13.1592C52.5635-13.4277 53.7598-13.7207 54.9805-13.9893L54.4189-23.8281C51.9043-22.7783 51.6846-22.7295 51.1719-22.5586C38.4521-19.2627 29.3701-24.8779 25.8057-38.2812L19.4336-62.0361C18.9209-63.9893 19.6533-65.332 21.5576-65.8203L55.1758-74.8779C57.1289-75.3906 58.4473-74.5605 58.9844-72.5586L65.332-48.9258C66.4307-44.7754 66.6504-41.333 66.04-37.915L75.415-45.8008C75.1709-47.5586 74.7803-49.4629 74.2676-51.3184L67.8711-75.293C65.8447-82.8613 60.5469-85.791 52.8809-83.7646L19.0674-74.7559C11.3525-72.7295 8.34961-67.5781 10.4004-59.9121ZM33.0566-49.7314C35.5713-50.3662 36.7676-49.2432 37.793-49.4873C38.6475-49.6826 38.8916-50.6592 38.5498-51.9287C37.7686-55.0537 34.4727-56.9092 31.4453-55.9814C28.2715-55.2002 26.3672-51.9775 27.2461-48.9502C27.6367-47.6318 28.3447-46.9238 29.1016-47.1436C30.1758-47.4365 30.5664-49.0479 33.0566-49.7314ZM53.2715-55.2002C55.8105-55.9326 56.9824-54.7119 58.0078-54.9561C58.8867-55.2002 59.1309-56.1768 58.7891-57.3975C58.0078-60.5225 54.7852-62.2803 51.6846-61.4502C48.5596-60.6201 46.6064-57.4463 47.4854-54.4189C47.876-53.1006 48.5596-52.4414 49.3408-52.6367C50.415-52.9297 50.8057-54.5654 53.2715-55.2002ZM49.4385-29.5654C55.9082-31.3232 60.1318-36.1816 60.376-42.1875C60.4004-43.8721 59.0088-44.458 57.4951-43.3594C53.6621-40.625 49.1699-39.4287 47.0459-38.8672C44.8242-38.2568 40.4053-37.0605 35.5713-37.5C33.8135-37.7441 32.7637-36.4258 33.7402-35.083C36.9629-30.0049 43.042-27.832 49.4385-29.5654ZM37.9639 5.49316C45.752 13.9648 63.1104 15.1123 72.0215 6.12793C79.8096-1.61133 79.9316-11.9385 72.5586-19.2627C65.3076-26.4893 56.1279-27.0508 49.9268-20.7031C43.7988-14.5508 47.29-8.12988 44.8486-5.63965C42.1875-3.00293 39.4775-3.80859 37.3779-1.66016C35.6934 0.170898 35.5957 2.83203 37.9639 5.49316ZM49.1211 2.63672C48.7061 2.41699 48.584 2.02637 48.8525 1.68457C49.1943 1.2207 50.5371 0.732422 51.3672-0.463867C55.3223-5.54199 52.8076-10.3027 56.2012-13.916C58.96-16.8457 63.0127-16.6016 66.6504-13.3057C70.4834-9.76562 70.1172-4.5166 65.7959-0.0488281C61.1328 4.80957 54.1504 5.66406 49.1211 2.63672ZM74.7559-9.375C79.3457-10.5469 83.0811-13.5986 86.6455-18.6279C94.4824-29.8096 100.757-47.0703 104.395-58.1299C107.642-67.7734 98.5596-74.9756 90.2588-68.0664C88.208-66.3086 71.7773-50.9033 61.5723-36.1816C58.1543-31.25 56.5186-26.7578 56.8359-22.1924L66.3574-21.167C65.4297-24.2188 66.0645-26.7334 69.0674-30.9326C77.4414-42.7246 90.2832-55.2002 93.7256-58.6426C94.2871-59.2041 94.9707-58.7646 94.6533-58.0078C93.042-53.5156 87.4756-35.7666 79.1504-23.877C76.4893-20.0195 74.4629-18.6523 71.6309-17.9443ZM78.833-20.4102L86.0107-23.7305C84.5703-31.958 75.1221-38.7451 67.0166-37.4512L65.6738-29.3701C71.1182-30.7617 78.1006-25.9033 78.833-20.4102Z"/>
  </g>
  <g id="Semibold-S" transform="matrix(1 0 0 1 1986.4 696)">
   <path d="M16.7791-36.1508C21.4776-18.5285 34.0684-10.1746 50.694-13.6124C51.8437-13.8543 52.9777-14.1117 54.1273-14.3536L53.5214-23.3127C51.5844-22.5206 51.338-22.4718 50.8875-22.3098C37.9989-18.9694 28.6503-24.7446 25.0503-38.299L18.6693-62.0628C18.0944-64.2647 18.8979-65.7408 21.0688-66.3002L54.6959-75.3667C56.8979-75.9416 58.3584-75.0404 58.9666-72.7719L65.3143-49.1391C66.3151-45.3264 66.5971-42.0706 66.1733-38.9015L74.6241-46.0141C74.38-47.7186 74.0071-49.534 73.5033-51.3361L67.1068-75.3107C65.1427-82.6658 60.0492-85.4711 52.5965-83.5069L18.7741-74.4893C11.2726-72.5251 8.38516-67.5781 10.3826-60.1254ZM32.6656-49.847C35.1714-50.4817 36.3766-49.3587 37.402-49.6028C38.2476-49.7981 38.4917-50.7747 38.1499-52.0442C37.3687-55.1692 34.0816-57.0247 31.0543-56.097C27.8805-55.3157 25.9762-52.0931 26.8551-49.0657C27.2457-47.7474 27.9626-47.0482 28.7105-47.2591C29.7848-47.5521 30.1754-49.1634 32.6656-49.847ZM52.8805-55.3157C55.4195-56.0481 56.5914-54.8274 57.6168-55.0716C58.4957-55.3157 58.7398-56.2923 58.398-57.513C57.6168-60.638 54.3941-62.3958 51.3024-61.5657C48.1774-60.7356 46.2243-57.5618 47.1032-54.5345C47.4938-53.2161 48.1774-52.5658 48.9587-52.7611C50.0329-53.0541 50.4235-54.681 52.8805-55.3157ZM49.0563-29.6632C55.535-31.421 59.7675-36.2883 60.0116-42.3119C60.0271-43.9876 58.6444-44.5735 57.1308-43.4838C53.3066-40.7494 48.8145-39.5442 46.6638-38.9738C44.4154-38.3546 39.9876-37.1672 35.1536-37.6066C33.3958-37.8508 32.3549-36.5324 33.3314-35.1985C36.5541-30.1026 42.6421-27.9209 49.0563-29.6632ZM37.4751 5.25322C45.6631 13.7338 62.2483 14.6946 70.9906 5.85244C78.6099-1.73574 78.723-11.8229 71.4922-18.9872C64.3745-26.0538 55.4437-26.5887 49.4024-20.401C43.4789-14.4441 46.9612-8.0499 44.3421-5.36416C41.6187-2.67412 38.8999-3.45312 36.8892-1.39355C35.3379 0.304199 35.1869 2.79648 37.4751 5.25322ZM47.8236 2.70781C47.4175 2.4792 47.3221 2.08857 47.5817 1.76455C47.9058 1.30957 49.4707 0.732422 50.443-0.686035C54.0604-5.49756 51.6612-10.4449 55.2236-14.2359C58.0802-17.2723 62.3995-17.0104 66.1172-13.5634C70.0835-9.81895 69.7084-4.34775 65.3071 0.217773C60.5641 5.17393 53.2439 6.21504 47.8236 2.70781ZM74.1693-9.78379C78.5281-10.9912 82.0946-13.9452 85.5347-18.7968C94.2158-31.2048 100.677-50.3584 103.293-58.281C106.46-67.5602 97.7509-74.4513 89.77-67.7998C87.7192-66.042 71.2619-50.5923 61.0924-35.915C57.7811-31.1434 56.1897-26.8467 56.4094-22.4679L65.06-21.5313C64.31-24.4676 65.1047-27.0978 67.9565-31.1015C76.9082-43.7021 90.923-57.1108 93.5567-59.7623C94.1982-60.4038 95.024-59.8933 94.6267-58.9854C93.3708-55.6484 87.5556-36.3087 78.6705-23.6104C76.0894-19.8773 74.0186-18.3857 71.3109-17.6333ZM78.362-20.89L84.811-23.8727C83.2551-31.7003 74.2778-38.1497 66.5101-37.0779L65.3184-29.8233C70.3983-31.1172 77.6474-26.0722 78.362-20.89Z"/>
  </g>
  <g id="Medium-S" transform="matrix(1 0 0 1 1690.1 696)">
   <path d="M16.7656-36.3125C21.417-18.8789 33.7988-10.6328 50.2021-13.9561C51.2979-14.1777 52.3848-14.4082 53.4805-14.6299L52.8408-22.9219C51.3418-22.3252 51.0752-22.2764 50.6719-22.1211C37.6553-18.7471 28.1045-24.6436 24.4775-38.3125L18.0898-62.083C17.4678-64.4736 18.3252-66.0508 20.6982-66.6641L54.332-75.7373C56.7227-76.3594 58.291-75.4043 58.9531-72.9336L65.3008-49.3008C66.2275-45.7441 66.5566-42.6299 66.2744-39.6494L74.0244-46.1758C73.7803-47.8398 73.4209-49.5879 72.9238-51.3496L66.5273-75.3242C64.6104-82.5176 59.6719-85.2285 52.3809-83.3115L18.5518-74.2871C11.2119-72.3701 8.41211-67.5781 10.3691-60.2871ZM32.3691-49.9346C34.8682-50.5693 36.0801-49.4463 37.1055-49.6904C37.9443-49.8857 38.1885-50.8623 37.8467-52.1318C37.0654-55.2568 33.7852-57.1123 30.7578-56.1846C27.584-55.4033 25.6797-52.1807 26.5586-49.1533C26.9492-47.835 27.6729-47.1426 28.4141-47.3467C29.4883-47.6396 29.8789-49.251 32.3691-49.9346ZM52.584-55.4033C55.123-56.1357 56.2949-54.915 57.3203-55.1592C58.1992-55.4033 58.4434-56.3799 58.1016-57.6006C57.3203-60.7256 54.0977-62.4834 51.0127-61.6533C47.8877-60.8232 45.9346-57.6494 46.8135-54.6221C47.2041-53.3037 47.8877-52.6602 48.6689-52.8555C49.7432-53.1484 50.1338-54.7686 52.584-55.4033ZM48.7666-29.7373C55.252-31.4951 59.4912-36.3691 59.7354-42.4062C59.7441-44.0752 58.3682-44.6611 56.8545-43.5781C53.0371-40.8438 48.5449-39.6318 46.374-39.0547C44.1055-38.4287 39.6709-37.248 34.8369-37.6875C33.0791-37.9316 32.0449-36.6133 33.0215-35.2861C36.2441-30.1768 42.3389-27.9883 48.7666-29.7373ZM37.1045 5.07129C45.5957 13.5586 61.5947 14.3779 70.209 5.64355C77.7002-1.83008 77.8066-11.7354 70.6836-18.7783C63.667-25.7236 54.9248-26.2383 49.0049-20.1719C43.2363-14.3633 46.7119-7.98926 43.958-5.15527C41.1875-2.4248 38.4619-3.18359 36.5186-1.19141C35.0684 0.405273 34.877 2.76953 37.1045 5.07129ZM46.8398 2.76172C46.4404 2.52637 46.3652 2.13574 46.6182 1.8252C46.9287 1.37695 48.6621 0.732422 49.7422-0.854492C53.1035-5.46387 50.792-10.5527 54.4824-14.4785C57.4131-17.5957 61.9346-17.3203 65.7129-13.7588C69.7803-9.85938 69.3984-4.21973 64.9365 0.419922C60.1328 5.4502 52.5566 6.63281 46.8398 2.76172ZM73.7246-10.0938C77.9082-11.3281 81.3467-14.208 84.6924-18.9248C94.0137-32.2627 100.616-52.8516 102.457-58.3955C105.563-67.3984 97.1377-74.0537 89.3994-67.5977C87.3486-65.8398 70.8711-50.3564 60.7285-35.7129C57.498-31.0625 55.9404-26.9141 56.0859-22.6768L64.0762-21.8076C63.4609-24.6562 64.377-27.374 67.1143-31.2295C76.5039-44.4434 91.4082-58.5596 93.4287-60.6113C94.1309-61.3135 95.0645-60.749 94.6064-59.7266C93.6201-57.2656 87.6162-36.7197 78.3066-23.4082C75.7861-19.7695 73.6816-18.1836 71.0684-17.3975ZM78.0049-21.2539L83.9014-23.9805C82.2578-31.5049 73.6377-37.6982 66.126-36.7949L65.0488-30.167C69.8525-31.3867 77.3037-26.2002 78.0049-21.2539Z"/>
  </g>
  <g id="Regular-S" transform="matrix(1 0 0 1 1393.94 696)">
   <path d="M16.748-36.5234C21.3379-19.3359 33.4473-11.2305 49.5605-14.4043C50.5859-14.5996 51.6113-14.7949 52.6367-14.9902L51.9531-22.4121C51.0254-22.0703 50.7324-22.0215 50.3906-21.875C37.207-18.457 27.3926-24.5117 23.7305-38.3301L17.334-62.1094C16.6504-64.7461 17.5781-66.4551 20.2148-67.1387L53.8574-76.2207C56.4941-76.9043 58.2031-75.8789 58.9355-73.1445L65.2832-49.5117C66.1133-46.2891 66.5039-43.3594 66.4062-40.625L73.2422-46.3867C72.998-47.998 72.6562-49.6582 72.168-51.3672L65.7715-75.3418C63.916-82.3242 59.1797-84.9121 52.0996-83.0566L18.2617-74.0234C11.1328-72.168 8.44727-67.5781 10.3516-60.498ZM31.9824-50.0488C34.4727-50.6836 35.6934-49.5605 36.7188-49.8047C37.5488-50 37.793-50.9766 37.4512-52.2461C36.6699-55.3711 33.3984-57.2266 30.3711-56.2988C27.1973-55.5176 25.293-52.2949 26.1719-49.2676C26.5625-47.9492 27.2949-47.2656 28.0273-47.4609C29.1016-47.7539 29.4922-49.3652 31.9824-50.0488ZM52.1973-55.5176C54.7363-56.25 55.9082-55.0293 56.9336-55.2734C57.8125-55.5176 58.0566-56.4941 57.7148-57.7148C56.9336-60.8398 53.7109-62.5977 50.6348-61.7676C47.5098-60.9375 45.5566-57.7637 46.4355-54.7363C46.8262-53.418 47.5098-52.7832 48.291-52.9785C49.3652-53.2715 49.7559-54.8828 52.1973-55.5176ZM48.3887-29.834C54.8828-31.5918 59.1309-36.4746 59.375-42.5293C59.375-44.1895 58.0078-44.7754 56.4941-43.7012C52.6855-40.9668 48.1934-39.7461 45.9961-39.1602C43.7012-38.5254 39.2578-37.3535 34.4238-37.793C32.666-38.0371 31.6406-36.7188 32.6172-35.4004C35.8398-30.2734 41.9434-28.0762 48.3887-29.834ZM36.6211 4.83398C45.5078 13.3301 60.7422 13.9648 69.1895 5.37109C76.5137-1.95312 76.6113-11.6211 69.6289-18.5059C62.7441-25.293 54.248-25.7812 48.4863-19.873C42.9199-14.2578 46.3867-7.91016 43.457-4.88281C40.625-2.09961 37.8906-2.83203 36.0352-0.927734C34.7168 0.537109 34.4727 2.73438 36.6211 4.83398ZM45.5566 2.83203C45.166 2.58789 45.1172 2.19727 45.3613 1.9043C45.6543 1.46484 47.6074 0.732422 48.8281-1.07422C51.8555-5.41992 49.6582-10.6934 53.5156-14.7949C56.543-18.0176 61.3281-17.7246 65.1855-14.0137C69.3848-9.91211 68.9941-4.05273 64.4531 0.683594C59.5703 5.81055 51.6602 7.17773 45.5566 2.83203ZM73.1445-10.498C77.0996-11.7676 80.3711-14.5508 83.5938-19.0918C93.75-33.6426 100.537-56.1035 101.367-58.5449C104.395-67.1875 96.3379-73.5352 88.916-67.334C86.8652-65.5762 70.3613-50.0488 60.2539-35.4492C57.1289-30.957 55.6152-27.002 55.6641-22.9492L62.793-22.168C62.3535-24.9023 63.4277-27.7344 66.0156-31.3965C75.9766-45.4102 92.041-60.4492 93.2617-61.7188C94.043-62.5 95.1172-61.8652 94.5801-60.6934C93.9453-59.375 87.6953-37.2559 77.832-23.1445C75.3906-19.6289 73.2422-17.9199 70.752-17.0898ZM77.5391-21.7285L82.7148-24.1211C80.957-31.25 72.8027-37.1094 65.625-36.4258L64.6973-30.6152C69.1406-31.7383 76.8555-26.3672 77.5391-21.7285Z"/>
  </g>
  <g id="Light-S" transform="matrix(1 0 0 1 1098 696)">
   <path d="M16.6875-37.5073C21.2017-20.562 33.2808-12.729 49.2881-16.251C50.374-16.4917 51.4448-16.7475 52.5005-17.0034L52.0288-22.73C50.9951-22.3276 50.3691-22.1577 49.6943-21.9355C36.0566-18.3965 25.8789-24.6631 22.0806-38.9204L15.6235-62.8662C14.8643-65.7754 16.0191-67.8476 18.9282-68.6069L52.9644-77.7646C55.8887-78.5239 57.9458-77.3017 58.7388-74.3252L65.1318-50.4805C66.0073-47.1367 66.398-44.0557 66.27-41.2002L71.6226-45.7207C71.439-47.7105 71.0669-49.7793 70.4575-51.9272L63.9854-76.0078C62.3267-82.2485 57.9233-84.6699 51.6001-82.9961L17.4443-73.8721C11.1025-72.2134 8.5835-67.896 10.2759-61.603ZM30.9683-50.9722C33.3525-51.5615 34.6187-50.4536 35.6138-50.7129C36.3379-50.8931 36.6729-51.8242 36.3311-53.0937C35.5347-56.1885 32.3691-57.9531 29.4024-57.0708C26.2739-56.2744 24.415-53.188 25.2788-50.1606C25.6543-48.8574 26.4624-48.2344 27.1343-48.4145C28.1631-48.6924 28.5689-50.3037 30.9683-50.9722ZM51.3648-56.4863C53.7827-57.1431 55.0151-55.9678 56.0103-56.227C56.7529-56.4409 57.103-57.3721 56.7612-58.6079C55.9649-61.7026 52.833-63.3999 49.8174-62.585C46.7227-61.7549 44.8301-58.7021 45.6939-55.6748C46.0693-54.3716 46.8438-53.7822 47.5493-53.9624C48.5781-54.2402 48.9839-55.8516 51.3648-56.4863ZM47.6318-30.0005C54.5044-31.8794 58.9341-37.0801 59.1025-43.6191C59.0874-45.1582 57.8413-45.7441 56.4639-44.7759C52.7612-42.102 48.2842-40.5786 45.3149-39.7505C42.127-38.813 37.3657-37.8228 32.5772-38.3379C30.9707-38.5669 30.0967-37.3696 30.9824-36.0967C34.3565-30.5308 40.7778-28.167 47.6318-30.0005ZM36.0308 5.48486C44.6753 13.436 59.6675 12.9961 67.146 4.67481C73.5015-2.25586 73.5083-11.394 66.3745-17.749C59.8682-23.6582 51.7354-23.8589 46.6245-18.1475C41.7998-12.8501 44.8125-7.24415 42.0947-4.15626C39.7774-1.70606 36.8462-2.33252 35.127-0.382817C33.8843 1.1123 33.7764 3.38525 36.0308 5.48486ZM42.5747 3.61913C41.7754 3.04199 41.7115 2.30322 42.0767 1.85889C42.5816 1.13184 44.8828 0.823241 46.2852-1.21045C49.2368-5.40479 47.1001-10.3149 50.5791-14.3106C53.6065-17.8965 58.8457-17.77 62.9907-14.1802C67.8711-9.97266 67.647-3.78028 63.3784 1.13769C58.5108 6.88525 48.981 8.47948 42.5747 3.61913ZM70.3291-10.0137C74.2993-11.1318 77.253-13.6577 80.4151-18.1231C90.208-32.1289 98.9629-57.1025 99.8838-59.6953C102.639-67.3843 95.2026-73.0962 88.7344-67.5459C86.5928-65.6519 68.2271-47.5362 58.4678-33.4815C55.3731-29.0498 54.041-25.4732 54.2412-21.4204L59.7808-20.9116C59.2808-23.7368 60.3701-26.7656 62.8975-30.3823C72.6919-44.1992 90.5274-61.7358 92.0659-63.3232C93.5283-64.8159 95.6167-63.394 94.7466-61.3896C93.9453-59.5718 85.5156-34.8945 75.9551-21.2222C73.3472-17.4644 71.1382-15.8613 68.4815-15.1524ZM75.8892-20.1997L79.9903-22.0322C78.1416-29.0855 69.6846-35.0962 62.5069-34.4883L61.9121-29.919C66.9155-30.8149 74.8574-25.2774 75.8892-20.1997Z"/>
  </g>
  <g id="Thin-S" transform="matrix(1 0 0 1 802.325 696)">
   <path d="M16.6074-38.8086C21.0215-22.1836 33.0605-14.7109 48.9277-18.6933C50.0938-18.9941 51.2246-19.33 52.3203-19.666L52.1289-23.1504C50.9551-22.668 49.8887-22.3379 48.7735-22.0156C34.5352-18.3164 23.877-24.8633 19.8985-39.7012L13.3614-63.8672C12.502-67.1367 13.9571-69.6894 17.2266-70.5488L51.7832-79.8066C55.0879-80.666 57.6055-79.1836 58.4785-75.8867L64.9316-51.7617C65.8672-48.2578 66.2578-44.9765 66.0898-41.9609L69.4805-44.8399C69.377-47.3301 68.9649-49.9395 68.1953-52.668L61.6231-76.8887C60.2246-82.1484 56.2617-84.3496 50.9395-82.916L16.3633-73.6719C11.0625-72.2734 8.76367-68.3164 10.1758-63.0644ZM29.627-52.1933C31.8711-52.7226 33.1973-51.6347 34.1524-51.914C34.7364-52.0742 35.1914-52.9453 34.8496-54.2148C34.0332-57.2695 31.0078-58.914 28.1211-58.0918C25.0528-57.2754 23.2539-54.3691 24.0977-51.3418C24.4531-50.0586 25.3613-49.5156 25.9531-49.6758C26.9219-49.9336 27.3477-51.5449 29.627-52.1933ZM50.2637-57.7676C52.5215-58.3242 53.834-57.209 54.7891-57.4883C55.3516-57.6621 55.8418-58.5332 55.5-59.789C54.6836-62.8437 51.6719-64.4609 48.7363-63.666C45.6817-62.8359 43.8692-59.9433 44.7129-56.916C45.0684-55.6328 45.9629-55.1035 46.5684-55.2637C47.5371-55.5215 47.9629-57.1328 50.2637-57.7676ZM46.6309-30.2207C54.0039-32.2598 58.6738-37.8808 58.7422-45.0605C58.707-46.4394 57.6211-47.0254 56.4238-46.1972C52.8613-43.6035 48.4043-41.6797 44.4141-40.5312C40.045-39.1934 34.8633-38.4434 30.1348-39.0586C28.7285-39.2676 28.0547-38.2305 28.8203-37.0176C32.3946-30.8711 39.2363-28.2871 46.6309-30.2207ZM35.25 6.34569C43.5742 13.5762 58.2461 11.7149 64.4434 3.75392C69.5176-2.65624 69.4044-11.0938 62.0704-16.7481C56.0645-21.4961 48.4122-21.3164 44.1621-15.8653C40.3184-10.9883 42.7305-6.36329 40.293-3.19533C38.6563-1.18555 35.4649-1.67188 33.9258 0.337881C32.7832 1.87304 32.8555 4.24608 35.25 6.34569ZM38.6309 4.66014C37.2911 3.64257 37.2071 2.44336 37.7325 1.79883C38.5176 0.691412 41.2793 0.943358 42.9219-1.39062C45.7735-5.38477 43.7168-9.81446 46.6954-13.6699C49.7227-17.7363 55.5625-17.8301 60.0879-14.4004C65.8692-10.0527 65.8653-3.41993 61.9571 1.73827C57.1094 8.30662 45.4375 10.2011 38.6309 4.66014ZM66.6055-9.37306C70.5958-10.291 73.129-12.4766 76.211-16.8418C85.5235-30.127 96.8809-58.4238 97.9219-61.2168C100.316-67.6445 93.7012-72.5156 88.4941-67.8262C86.2324-65.752 65.4043-44.2129 56.1055-30.8789C53.0508-26.5274 51.959-23.4512 52.3594-19.3985L55.7969-19.25C55.2169-22.1953 56.3262-25.4844 58.7735-29.041C68.3477-42.5977 88.5254-63.4375 90.4844-65.4453C92.8477-67.8789 96.2773-65.416 94.9668-62.3105C93.9453-59.832 82.6329-31.7715 73.4727-18.6797C70.6446-14.6016 68.3555-13.1387 65.4786-12.5899ZM73.7071-18.1778L76.3868-19.2696C74.418-26.2227 65.5606-32.4336 58.3829-31.9258L58.2286-28.9981C63.9727-29.5938 72.2149-23.836 73.7071-18.1778Z"/>
  </g>
  <g id="Ultralight-S" transform="matrix(1 0 0 1 506.142 696)">
   <path d="M16.5664-39.4751C20.9292-23.0141 32.9478-15.726 48.7432-19.9443C49.9502-20.2758 51.1118-20.6528 52.228-21.0297L52.1802-23.3657C50.9346-22.8423 49.6426-22.4302 48.3018-22.0566C33.7559-18.2754 22.8516-24.9658 18.7808-40.1011L12.2027-64.3799C11.292-67.834 12.9009-70.6328 16.355-71.5434L51.1782-80.8525C54.6777-81.7631 57.4312-80.1474 58.3452-76.6865L64.8291-52.4179C65.7954-48.832 66.186-45.4482 65.9976-42.3506L68.3833-44.3887C68.3208-47.1353 67.8882-50.0215 67.0367-53.0474L60.4131-77.3398C59.148-82.0972 55.4107-84.1856 50.6011-82.875L15.8096-73.5693C11.042-72.3042 8.85595-68.5317 10.1245-63.813ZM28.94-52.8188C31.1123-53.3174 32.4693-52.2397 33.4038-52.5293C33.916-52.6792 34.4326-53.5195 34.0908-54.789C33.2642-57.8232 30.3106-59.4062 27.4649-58.6147C24.4273-57.7881 22.6592-54.9741 23.4927-51.9468C23.8379-50.6738 24.7974-50.1719 25.3482-50.3218C26.2862-50.5693 26.7222-52.1806 28.94-52.8188ZM49.6997-58.4238C51.8755-58.9292 53.229-57.8447 54.1636-58.1343C54.6338-58.2876 55.1958-59.1279 54.854-60.394C54.0274-63.4282 51.0772-65.0044 48.1826-64.2197C45.1485-63.3896 43.377-60.5791 44.2105-57.5517C44.5557-56.2788 45.5117-55.7802 46.0659-55.9302C47.0039-56.1777 47.44-57.789 49.6997-58.4238ZM46.1182-30.3335C53.7476-32.4546 58.5405-38.291 58.5576-45.7988C58.5122-47.0957 57.5083-47.6816 56.4033-46.9253C52.9126-44.3725 48.4658-42.2436 43.9527-40.9311C38.9786-39.3882 33.5816-38.7612 28.8838-39.4277C27.5801-39.6265 27.0088-38.6714 27.7129-37.4892C31.3897-31.0454 38.4468-28.3486 46.1182-30.3335ZM34.8501 6.78661C43.0103 13.6479 57.5181 11.0586 63.0591 3.28224C67.4771-2.86132 67.3023-10.9399 59.8658-16.2354C54.1163-20.3887 46.71-20.0142 42.9009-14.6963C39.5596-10.0347 41.6641-5.91213 39.3701-2.70314C38.0821-0.918955 34.7573-1.33351 33.3106 0.707018C32.2193 2.26268 32.3838 4.687 34.8501 6.78661ZM36.6109 5.19334C34.9942 3.95018 34.9 2.51513 35.5074 1.76807C36.4361 0.465828 39.4337 1.00488 41.1993-1.48291C43.9996-5.37451 41.9839-9.55811 44.7061-13.3418C47.7335-17.6543 53.8809-17.8608 58.6011-14.5132C64.8438-10.0937 64.9527-3.23536 61.229 2.04589C56.3916 9.03464 43.6226 11.083 36.6109 5.19334ZM64.6983-9.04493C68.6988-9.86037 71.0167-11.8716 74.0577-16.1856C83.1241-29.1016 95.8145-59.1006 96.917-61.9961C99.127-67.7778 92.9322-72.2183 88.3711-67.9697C86.0479-65.8032 63.9585-42.5108 54.8956-29.5459C51.8614-25.2354 50.8926-22.4156 51.3955-18.3628L53.7564-18.399C53.1353-21.4058 54.255-24.8281 56.6612-28.354C66.1226-41.7774 87.5-64.3091 89.6743-66.5322C92.499-69.4477 96.6157-66.4516 95.0796-62.7822C93.9453-59.9653 81.1563-30.1719 72.2012-17.3775C69.2603-13.1353 66.9302-11.7442 63.9405-11.2774ZM72.5894-17.1421L74.5411-17.8545C72.5108-24.7564 63.4483-31.0699 56.2706-30.6133L56.3419-28.5264C62.4654-28.9683 70.8614-23.0977 72.5894-17.1421Z"/>
  </g>
 </g>
</svg>
