<?xml version="1.0" encoding="UTF-8"?>
<!--Generator: Apple Native CoreSVG 175.5-->
<!DOCTYPE svg
PUBLIC "-//W3C//DTD SVG 1.1//EN"
       "http://www.w3.org/Graphics/SVG/1.1/DTD/svg11.dtd">
<svg version="1.1" xmlns="http://www.w3.org/2000/svg" xmlns:xlink="http://www.w3.org/1999/xlink" width="3300" height="2200">
 <!--glyph: "uni1012F4.medium", point size: 100.0, font version: "18.0d11e1", template writer version: "90"-->
 <style>.monochrome-0 {fill:#000000}

.SFSymbolsPreview000000 {fill:#000000;opacity:1.0}
</style>
 <g id="Notes">
  <rect height="2200" id="artboard" style="fill:white;opacity:1" width="3300" x="0" y="0"/>
  <line style="fill:none;stroke:black;opacity:1;stroke-width:0.5;" x1="263" x2="3036" y1="292" y2="292"/>
  <text style="stroke:none;fill:black;font-family:sans-serif;font-size:13;font-weight:bold;" transform="matrix(1 0 0 1 263 322)">Weight/Scale Variations</text>
  <text style="stroke:none;fill:black;font-family:sans-serif;font-size:13;text-anchor:middle;" transform="matrix(1 0 0 1 559.711 322)">Ultralight</text>
  <text style="stroke:none;fill:black;font-family:sans-serif;font-size:13;text-anchor:middle;" transform="matrix(1 0 0 1 856.422 322)">Thin</text>
  <text style="stroke:none;fill:black;font-family:sans-serif;font-size:13;text-anchor:middle;" transform="matrix(1 0 0 1 1153.13 322)">Light</text>
  <text style="stroke:none;fill:black;font-family:sans-serif;font-size:13;text-anchor:middle;" transform="matrix(1 0 0 1 1449.84 322)">Regular</text>
  <text style="stroke:none;fill:black;font-family:sans-serif;font-size:13;text-anchor:middle;" transform="matrix(1 0 0 1 1746.56 322)">Medium</text>
  <text style="stroke:none;fill:black;font-family:sans-serif;font-size:13;text-anchor:middle;" transform="matrix(1 0 0 1 2043.27 322)">Semibold</text>
  <text style="stroke:none;fill:black;font-family:sans-serif;font-size:13;text-anchor:middle;" transform="matrix(1 0 0 1 2339.98 322)">Bold</text>
  <text style="stroke:none;fill:black;font-family:sans-serif;font-size:13;text-anchor:middle;" transform="matrix(1 0 0 1 2636.69 322)">Heavy</text>
  <text style="stroke:none;fill:black;font-family:sans-serif;font-size:13;text-anchor:middle;" transform="matrix(1 0 0 1 2933.4 322)">Black</text>
  <line style="fill:none;stroke:black;opacity:1;stroke-width:0.5;" x1="263" x2="3036" y1="1903" y2="1903"/>
  <g transform="matrix(1 0 0 1 263 1933)">
   <path d="M9.24805 0.830078C13.5547 0.830078 17.1387-2.74414 17.1387-7.05078C17.1387-11.3574 13.5449-14.9316 9.23828-14.9316C4.94141-14.9316 1.36719-11.3574 1.36719-7.05078C1.36719-2.74414 4.95117 0.830078 9.24805 0.830078ZM9.24805-0.654297C5.70312-0.654297 2.87109-3.49609 2.87109-7.05078C2.87109-10.6055 5.69336-13.4473 9.23828-13.4473C12.793-13.4473 15.6445-10.6055 15.6445-7.05078C15.6445-3.49609 12.8027-0.654297 9.24805-0.654297ZM5.6543-7.05078C5.6543-6.62109 5.95703-6.32812 6.40625-6.32812L8.50586-6.32812L8.50586-4.20898C8.50586-3.76953 8.79883-3.4668 9.22852-3.4668C9.67773-3.4668 9.9707-3.76953 9.9707-4.20898L9.9707-6.32812L12.0898-6.32812C12.5293-6.32812 12.832-6.62109 12.832-7.05078C12.832-7.49023 12.5293-7.79297 12.0898-7.79297L9.9707-7.79297L9.9707-9.90234C9.9707-10.3516 9.67773-10.6543 9.22852-10.6543C8.79883-10.6543 8.50586-10.3516 8.50586-9.90234L8.50586-7.79297L6.40625-7.79297C5.95703-7.79297 5.6543-7.49023 5.6543-7.05078Z"/>
  </g>
  <g transform="matrix(1 0 0 1 281.867 1933)">
   <path d="M11.709 2.91016C17.1582 2.91016 21.6699-1.61133 21.6699-7.05078C21.6699-12.5 17.1484-17.0117 11.6992-17.0117C6.25977-17.0117 1.74805-12.5 1.74805-7.05078C1.74805-1.61133 6.26953 2.91016 11.709 2.91016ZM11.709 1.25C7.09961 1.25 3.41797-2.44141 3.41797-7.05078C3.41797-11.6602 7.08984-15.3516 11.6992-15.3516C16.3086-15.3516 20.0098-11.6602 20.0098-7.05078C20.0098-2.44141 16.3184 1.25 11.709 1.25ZM7.17773-7.05078C7.17773-6.57227 7.50977-6.25 8.00781-6.25L10.8789-6.25L10.8789-3.36914C10.8789-2.88086 11.2109-2.53906 11.6895-2.53906C12.1777-2.53906 12.5195-2.87109 12.5195-3.36914L12.5195-6.25L15.4004-6.25C15.8887-6.25 16.2305-6.57227 16.2305-7.05078C16.2305-7.53906 15.8887-7.88086 15.4004-7.88086L12.5195-7.88086L12.5195-10.752C12.5195-11.25 12.1777-11.5918 11.6895-11.5918C11.2109-11.5918 10.8789-11.25 10.8789-10.752L10.8789-7.88086L8.00781-7.88086C7.50977-7.88086 7.17773-7.53906 7.17773-7.05078Z"/>
  </g>
  <g transform="matrix(1 0 0 1 305.646 1933)">
   <path d="M14.9707 5.66406C21.9336 5.66406 27.6953-0.0976562 27.6953-7.05078C27.6953-14.0137 21.9238-19.7754 14.9609-19.7754C8.00781-19.7754 2.25586-14.0137 2.25586-7.05078C2.25586-0.0976562 8.01758 5.66406 14.9707 5.66406ZM14.9707 3.84766C8.93555 3.84766 4.08203-1.01562 4.08203-7.05078C4.08203-13.0957 8.92578-17.9492 14.9609-17.9492C21.0059-17.9492 25.8691-13.0957 25.8691-7.05078C25.8691-1.01562 21.0156 3.84766 14.9707 3.84766ZM9.19922-7.05078C9.19922-6.5332 9.57031-6.17188 10.1172-6.17188L14.0625-6.17188L14.0625-2.2168C14.0625-1.67969 14.4336-1.29883 14.9512-1.29883C15.4883-1.29883 15.8594-1.66992 15.8594-2.2168L15.8594-6.17188L19.8145-6.17188C20.3516-6.17188 20.7324-6.5332 20.7324-7.05078C20.7324-7.59766 20.3613-7.96875 19.8145-7.96875L15.8594-7.96875L15.8594-11.9141C15.8594-12.4609 15.4883-12.8418 14.9512-12.8418C14.4336-12.8418 14.0625-12.4609 14.0625-11.9141L14.0625-7.96875L10.1172-7.96875C9.57031-7.96875 9.19922-7.59766 9.19922-7.05078Z"/>
  </g>
  <text style="stroke:none;fill:black;font-family:sans-serif;font-size:13;font-weight:bold;" transform="matrix(1 0 0 1 263 1953)">Design Variations</text>
  <text style="stroke:none;fill:black;font-family:sans-serif;font-size:13;" transform="matrix(1 0 0 1 263 1971)">Symbols are supported in up to nine weights and three scales.</text>
  <text style="stroke:none;fill:black;font-family:sans-serif;font-size:13;" transform="matrix(1 0 0 1 263 1989)">For optimal layout with text and other symbols, vertically align</text>
  <text style="stroke:none;fill:black;font-family:sans-serif;font-size:13;" transform="matrix(1 0 0 1 263 2007)">symbols with the adjacent text.</text>
  <line style="fill:none;stroke:#00AEEF;stroke-width:0.5;opacity:1.0;" x1="776" x2="776" y1="1919" y2="1933"/>
  <g transform="matrix(1 0 0 1 776 1933)">
   <path d="M3.31055 0.15625C3.82812 0.15625 4.08203-0.0390625 4.26758-0.585938L5.52734-4.0332L11.2891-4.0332L12.5488-0.585938C12.7344-0.0390625 12.9883 0.15625 13.4961 0.15625C14.0137 0.15625 14.3457-0.15625 14.3457-0.644531C14.3457-0.810547 14.3164-0.966797 14.2383-1.17188L9.6582-13.3691C9.43359-13.9648 9.0332-14.2676 8.4082-14.2676C7.80273-14.2676 7.39258-13.9746 7.17773-13.3789L2.59766-1.16211C2.51953-0.957031 2.49023-0.800781 2.49023-0.634766C2.49023-0.146484 2.80273 0.15625 3.31055 0.15625ZM6.00586-5.51758L8.37891-12.0898L8.42773-12.0898L10.8008-5.51758Z"/>
  </g>
  <line style="fill:none;stroke:#00AEEF;stroke-width:0.5;opacity:1.0;" x1="793.197" x2="793.197" y1="1919" y2="1933"/>
  <text style="stroke:none;fill:black;font-family:sans-serif;font-size:13;font-weight:bold;" transform="matrix(1 0 0 1 776 1953)">Margins</text>
  <text style="stroke:none;fill:black;font-family:sans-serif;font-size:13;" transform="matrix(1 0 0 1 776 1971)">Leading and trailing margins on the left and right side of each symbol</text>
  <text style="stroke:none;fill:black;font-family:sans-serif;font-size:13;" transform="matrix(1 0 0 1 776 1989)">can be adjusted by modifying the x-location of the margin guidelines.</text>
  <text style="stroke:none;fill:black;font-family:sans-serif;font-size:13;" transform="matrix(1 0 0 1 776 2007)">Modifications are automatically applied proportionally to all</text>
  <text style="stroke:none;fill:black;font-family:sans-serif;font-size:13;" transform="matrix(1 0 0 1 776 2025)">scales and weights.</text>
  <g transform="matrix(1 0 0 1 1289 1933)">
   <path d="M2.8418 1.86523L4.54102 3.57422C5.40039 4.44336 6.38672 4.38477 7.31445 3.35938L18.0078-8.42773L17.041-9.4043L6.42578 2.27539C6.07422 2.67578 5.74219 2.77344 5.27344 2.30469L4.10156 1.14258C3.63281 0.683594 3.74023 0.341797 4.14062-0.0195312L15.6152-10.8203L14.6387-11.7871L3.04688-0.898438C2.06055 0.0195312 1.98242 0.996094 2.8418 1.86523ZM9.25781-16.3281C8.83789-15.918 8.80859-15.3418 9.04297-14.9512C9.27734-14.5898 9.73633-14.3555 10.3809-14.5215C11.8457-14.8633 13.3691-14.9219 14.7949-13.9844L14.209-12.5293C13.8672-11.6992 14.043-11.1133 14.5801-10.5664L16.875-8.25195C17.3633-7.76367 17.7734-7.74414 18.3398-7.8418L19.4043-8.03711L20.0684-7.36328L20.0293-6.80664C19.9902-6.30859 20.1172-5.92773 20.6055-5.44922L21.3672-4.70703C21.8457-4.22852 22.4609-4.19922 22.9297-4.66797L25.8398-7.58789C26.3086-8.05664 26.2891-8.65234 25.8105-9.13086L25.0391-9.89258C24.5605-10.3711 24.1895-10.5273 23.7109-10.4883L23.1348-10.4395L22.4902-11.0742L22.7344-12.1973C22.8613-12.7637 22.7051-13.2031 22.1191-13.7891L19.9219-15.9766C16.582-19.2969 12.1484-19.2188 9.25781-16.3281ZM10.752-15.957C13.1836-17.7344 16.4746-17.4316 18.7012-15.2051L21.1328-12.793C21.3672-12.5586 21.4062-12.373 21.3379-12.0312L21.0156-10.5469L22.5195-9.0625L23.5059-9.12109C23.7598-9.13086 23.8379-9.11133 24.0332-8.91602L24.6094-8.33984L22.168-5.89844L21.5918-6.47461C21.3965-6.66992 21.3672-6.74805 21.377-7.01172L21.4453-7.98828L19.9512-9.47266L18.4277-9.21875C18.1055-9.15039 17.959-9.17969 17.7148-9.41406L15.7129-11.416C15.459-11.6504 15.4297-11.8164 15.5859-12.1875L16.4648-14.2773C14.9023-15.7324 12.8711-16.3574 10.8398-15.7617C10.6836-15.7227 10.625-15.8496 10.752-15.957Z"/>
  </g>
  <text style="stroke:none;fill:black;font-family:sans-serif;font-size:13;font-weight:bold;" transform="matrix(1 0 0 1 1289 1953)">Exporting</text>
  <text style="stroke:none;fill:black;font-family:sans-serif;font-size:13;" transform="matrix(1 0 0 1 1289 1971)">Symbols should be outlined when exporting to ensure the</text>
  <text style="stroke:none;fill:black;font-family:sans-serif;font-size:13;" transform="matrix(1 0 0 1 1289 1989)">design is preserved when submitting to Xcode.</text>
  <text id="template-version" style="stroke:none;fill:black;font-family:sans-serif;font-size:13;text-anchor:end;" transform="matrix(1 0 0 1 3036 1933)">Template v.4.0</text>
  <text style="stroke:none;fill:black;font-family:sans-serif;font-size:13;text-anchor:end;" transform="matrix(1 0 0 1 3036 1951)">Requires Xcode 14 or greater</text>
  <text id="descriptive-name" style="stroke:none;fill:black;font-family:sans-serif;font-size:13;text-anchor:end;" transform="matrix(1 0 0 1 3036 1969)">Generated from sailboat</text>
  <text style="stroke:none;fill:black;font-family:sans-serif;font-size:13;text-anchor:end;" transform="matrix(1 0 0 1 3036 1987)">Typeset at 100 points</text>
  <text style="stroke:none;fill:black;font-family:sans-serif;font-size:13;" transform="matrix(1 0 0 1 263 726)">Small</text>
  <text style="stroke:none;fill:black;font-family:sans-serif;font-size:13;" transform="matrix(1 0 0 1 263 1156)">Medium</text>
  <text style="stroke:none;fill:black;font-family:sans-serif;font-size:13;" transform="matrix(1 0 0 1 263 1586)">Large</text>
 </g>
 <g id="Guides">
  <g id="H-reference" style="fill:#27AAE1;stroke:none;" transform="matrix(1 0 0 1 339 696)">
   <path d="M0.993654 0L3.63775 0L29.3281-67.1323L30.0303-67.1323L30.0303-70.459L28.1226-70.459ZM11.6885-24.4799L46.9815-24.4799L46.2315-26.7285L12.4385-26.7285ZM55.1196 0L57.7637 0L30.6382-70.459L29.4326-70.459L29.4326-67.1323Z"/>
  </g>
  <line id="Baseline-S" style="fill:none;stroke:#27AAE1;opacity:1;stroke-width:0.5;" x1="263" x2="3036" y1="696" y2="696"/>
  <line id="Capline-S" style="fill:none;stroke:#27AAE1;opacity:1;stroke-width:0.5;" x1="263" x2="3036" y1="625.541" y2="625.541"/>
  <g id="H-reference" style="fill:#27AAE1;stroke:none;" transform="matrix(1 0 0 1 339 1126)">
   <path d="M0.993654 0L3.63775 0L29.3281-67.1323L30.0303-67.1323L30.0303-70.459L28.1226-70.459ZM11.6885-24.4799L46.9815-24.4799L46.2315-26.7285L12.4385-26.7285ZM55.1196 0L57.7637 0L30.6382-70.459L29.4326-70.459L29.4326-67.1323Z"/>
  </g>
  <line id="Baseline-M" style="fill:none;stroke:#27AAE1;opacity:1;stroke-width:0.5;" x1="263" x2="3036" y1="1126" y2="1126"/>
  <line id="Capline-M" style="fill:none;stroke:#27AAE1;opacity:1;stroke-width:0.5;" x1="263" x2="3036" y1="1055.54" y2="1055.54"/>
  <g id="H-reference" style="fill:#27AAE1;stroke:none;" transform="matrix(1 0 0 1 339 1556)">
   <path d="M0.993654 0L3.63775 0L29.3281-67.1323L30.0303-67.1323L30.0303-70.459L28.1226-70.459ZM11.6885-24.4799L46.9815-24.4799L46.2315-26.7285L12.4385-26.7285ZM55.1196 0L57.7637 0L30.6382-70.459L29.4326-70.459L29.4326-67.1323Z"/>
  </g>
  <line id="Baseline-L" style="fill:none;stroke:#27AAE1;opacity:1;stroke-width:0.5;" x1="263" x2="3036" y1="1556" y2="1556"/>
  <line id="Capline-L" style="fill:none;stroke:#27AAE1;opacity:1;stroke-width:0.5;" x1="263" x2="3036" y1="1485.54" y2="1485.54"/>
  <line id="left-margin-Ultralight-S" style="fill:none;stroke:#00AEEF;stroke-width:0.5;opacity:1.0;" x1="508.23" x2="508.23" y1="600.785" y2="720.121"/>
  <line id="right-margin-Ultralight-S" style="fill:none;stroke:#00AEEF;stroke-width:0.5;opacity:1.0;" x1="611.193" x2="611.193" y1="600.785" y2="720.121"/>
  <line id="left-margin-Regular-S" style="fill:none;stroke:#00AEEF;stroke-width:0.5;opacity:1.0;" x1="1395.55" x2="1395.55" y1="600.785" y2="720.121"/>
  <line id="right-margin-Regular-S" style="fill:none;stroke:#00AEEF;stroke-width:0.5;opacity:1.0;" x1="1504.14" x2="1504.14" y1="600.785" y2="720.121"/>
  <line id="left-margin-Black-S" style="fill:none;stroke:#00AEEF;stroke-width:0.5;opacity:1.0;" x1="2876.98" x2="2876.98" y1="600.785" y2="720.121"/>
  <line id="right-margin-Black-S" style="fill:none;stroke:#00AEEF;stroke-width:0.5;opacity:1.0;" x1="2989.82" x2="2989.82" y1="600.785" y2="720.121"/>
 </g>
 <g id="Symbols">
  <g id="Black-S" transform="matrix(1 0 0 1 2876.98 696)">
   <path class="monochrome-0 SFSymbolsPreview000000" d="M10.2539-4.49219L13.4766 5.51758C14.209 7.86133 15.332 9.66797 16.748 10.9863L24.6094 3.75977C23.4863 3.66211 22.8027 3.07617 22.4121 1.66016L21.0449-3.61328C20.9473-4.00391 21.0449-4.24805 21.3867-4.24805L89.0625-4.24805C89.3066-4.24805 89.4043-4.00391 89.2578-3.80859L84.9121 1.80664C84.3262 2.53906 83.6426 3.02734 82.8613 3.32031L89.502 10.5469C90.3809 9.86328 91.2109 9.0332 91.9922 8.10547L100.879-2.97852C104.932-8.00781 101.758-14.1113 95.3125-14.1113L17.041-14.1113C11.5234-14.1113 8.54492-9.76562 10.2539-4.49219ZM54.8828 17.4805C67.334 17.4805 68.5547 9.375 73.7793 9.375C79.0039 9.375 79.834 17.4805 93.5059 17.4805L97.8027 17.4805C100.732 17.4805 103.076 15.1367 103.076 12.207C103.076 9.32617 100.732 6.98242 97.8027 6.98242L93.5059 6.98242C91.0156 6.98242 89.0137 6.10352 85.4004 3.51562C82.8125 1.61133 79.0039-1.12305 73.7793-1.12305C68.5547-1.12305 64.7461 1.61133 62.1582 3.51562C59.375 5.56641 57.6172 6.98242 54.8828 6.98242C52.1484 6.98242 50.3906 5.56641 47.6074 3.51562C45.0195 1.61133 41.2109-1.12305 35.9863-1.12305C30.7617-1.12305 26.9531 1.61133 24.3652 3.51562C20.752 6.10352 18.75 6.98242 16.2598 6.98242L15.8691 6.98242C12.9395 6.98242 10.5957 9.32617 10.5957 12.207C10.5957 15.1367 12.9395 17.4805 15.8691 17.4805L16.2598 17.4805C29.9316 17.4805 30.7617 9.375 35.9863 9.375C41.2109 9.375 42.4316 17.4805 54.8828 17.4805ZM19.3848-19.6289L54.7852-19.6289L54.7852-29.8828L31.3965-29.8828C30.8105-29.8828 30.8105-30.2246 31.2012-30.5176C43.2129-40.5762 56.2012-64.4043 58.0566-79.6387L48.291-82.8613C48.7305-69.043 32.0801-41.2109 15.8203-31.3965C10.0586-27.9297 12.793-19.6289 19.3848-19.6289ZM54.9805-19.6289L72.998-19.6289C85.6934-19.6289 93.457-28.3691 93.457-39.502C93.457-58.0078 73.4375-78.0762 57.373-85.498L52.1484-76.416C67.8711-70.8984 83.252-52.9297 83.252-40.5273C83.252-35.0098 79.5898-29.8828 73.0469-29.8828L54.9805-29.8828ZM48.291-13.8184L58.4961-13.8184L58.4961-82.8613C58.4961-85.6934 56.1523-87.9883 53.3691-87.9883C50.5371-87.9883 48.291-85.6934 48.291-82.8613ZM58.8379-75.7324C69.9707-61.1816 68.5547-36.4258 57.3242-29.541L62.0117-20.9473C77.6367-30.0781 81.1523-57.8613 68.5059-77.4414Z"/>
  </g>
  <g id="Regular-S" transform="matrix(1 0 0 1 1395.55 696)">
   <path class="monochrome-0 SFSymbolsPreview000000" d="M10.0586-7.27539L13.3789 4.54102C13.9648 6.44531 14.7461 7.86133 15.7715 8.93555L21.4355 5.27344C20.1172 4.73633 19.1895 3.66211 18.7012 2.00195L16.2598-7.66602C16.1133-8.1543 16.2598-8.49609 16.748-8.49609L90.918-8.49609C91.3574-8.49609 91.5039-8.10547 91.1133-7.71484L82.959 1.95312C81.7383 3.32031 80.8105 4.54102 78.418 5.17578L83.6426 9.08203C85.7422 7.61719 87.3047 5.56641 89.3066 3.17383L97.5098-6.49414C100.439-9.96094 98.1445-14.3555 93.6035-14.3555L15.1855-14.3555C10.8398-14.3555 8.98438-11.2793 10.0586-7.27539ZM50.8789 13.3789C61.6211 13.3789 63.2812 5.61523 69.043 5.61523C74.9512 5.61523 75.9277 13.3789 88.1836 13.3789L92.2363 13.3789C93.9453 13.3789 95.3125 12.0605 95.3125 10.3516C95.3125 8.64258 93.9453 7.27539 92.2363 7.27539L88.1836 7.27539C84.2285 7.27539 81.9824 5.66406 79.1016 3.61328C76.6113 1.80664 73.4375-0.488281 69.043-0.488281C64.5508-0.488281 61.3281 1.95312 58.8379 3.80859C56.2012 5.81055 54.1992 7.27539 50.8789 7.27539C47.6074 7.27539 45.6055 5.81055 42.9688 3.80859C40.4785 1.95312 37.2559-0.488281 32.7148-0.488281C28.3691-0.488281 25.1953 1.80664 22.7051 3.61328C19.8242 5.66406 17.5781 7.27539 13.5742 7.27539L13.3789 7.27539C11.7188 7.27539 10.3516 8.64258 10.3516 10.3516C10.3516 12.0605 11.7188 13.3789 13.3789 13.3789L13.5742 13.3789C25.8301 13.3789 26.8066 5.61523 32.7148 5.61523C38.4766 5.61523 40.1855 13.3789 50.8789 13.3789ZM19.7266-24.0723L49.5605-24.0723L49.5605-29.9805L25.6836-29.9805C25.1953-29.9805 25.0488-30.4199 25.3906-30.7129C37.3535-39.7949 50.1465-62.6465 52.5391-78.9551L47.2656-82.8613C47.6562-69.7266 34.8145-44.5801 17.3828-31.8848C13.3301-28.9551 15.6738-24.0723 19.7266-24.0723ZM50.6348-24.0723L66.5039-24.0723C78.2715-24.0723 84.7656-30.1758 84.7656-39.8438C84.7656-56.6406 67.2363-75.0488 51.7578-82.959L48.8281-77.8809C61.8164-72.3633 78.9551-55.6152 78.9551-40.8203C78.9551-34.2285 74.4629-29.9805 66.5527-29.9805L50.6348-29.9805ZM47.2656-10.6934L53.125-10.6934L53.125-83.2031C53.125-84.8145 51.8066-86.1328 50.1953-86.1328C48.584-86.1328 47.2656-84.8145 47.2656-83.2031ZM53.2227-75.6836C66.2598-57.2754 61.8652-35.3516 50.1953-29.4434L51.3184-24.3164C68.0664-31.9336 72.168-55.6641 58.1543-76.5137Z"/>
  </g>
  <g id="Ultralight-S" transform="matrix(1 0 0 1 508.23 696)">
   <path class="monochrome-0 SFSymbolsPreview000000" d="M11.0576-6.27638L14.2871 2.6338C15.0547 4.76515 15.8813 6.18117 17.1338 7.07375L19.1651 5.68213C17.8013 5.0542 17.0098 3.88916 16.2945 1.91113L13.2627-6.80323C12.7984-8.10889 13.4444-8.95019 14.7954-8.95019L89.4649-8.95019C90.9941-8.95019 91.2769-7.56055 90.4321-6.76124L81.8237 1.86231C80.0581 3.54736 78.5855 4.81347 76.6016 5.53906L78.7383 6.94777C80.4292 6.02784 81.9009 4.74903 83.5396 3.0376L92.1968-5.63135C93.9913-7.41799 93.5127-11.086 89.4712-11.086L14.7314-11.086C11.4756-11.086 10.0288-9.14504 11.0576-6.27638ZM48.3814 9.60989C57.5796 9.60989 59.1035 1.84622 66.5454 1.84622C74.1338 1.84622 75.2012 9.60989 85.6861 9.60989L88.876 9.60989C89.4497 9.60989 89.9541 9.15432 89.9541 8.53517C89.9541 7.96143 89.4497 7.45703 88.876 7.45703L85.6861 7.45703C81.0498 7.45703 78.3496 5.43701 75.4688 3.43164C72.9785 1.625 70.3042-0.306642 66.5454-0.306642C62.689-0.306642 60.0112 1.72608 57.521 3.58154C54.8843 5.5835 52.3374 7.45703 48.3814 7.45703C44.4287 7.45703 41.8819 5.5835 39.2451 3.58154C36.7549 1.72608 34.0772-0.306642 30.2173-0.306642C26.4619-0.306642 23.833 1.625 21.3428 3.43164C18.4619 5.43701 15.7163 7.45703 11.0767 7.45703L10.8814 7.45703C10.311 7.45703 9.80664 7.96143 9.80664 8.53517C9.80664 9.15432 10.311 9.60989 10.8814 9.60989L11.0767 9.60989C21.5616 9.60989 22.6289 1.84622 30.2173 1.84622C37.6592 1.84622 39.1865 9.60989 48.3814 9.60989ZM18.5005-21.8926L44.7017-21.8926L44.7017-24.0318L19.1446-24.0318C18.6109-24.0318 18.5098-24.5621 18.8062-24.7642C37.0811-38.0693 45.878-60.2852 46.0001-72.7339L43.9053-72.9166C43.8872-60.9625 35.4956-39.4488 17.292-26.3448C15.0102-24.732 15.9917-21.8926 18.5005-21.8926ZM45.0948-21.8926L59.9649-21.8926C70.461-21.8926 76.3648-26.9517 76.3648-35.8023C76.3648-49.4659 62.7862-67.1475 45.8999-76.4654L44.8775-74.6568C57.9112-68.231 74.2325-50.2569 74.2325-35.8706C74.2325-29.0518 68.7867-24.0318 60.0137-24.0318L45.0948-24.0318ZM43.9053-9.87598L46.0411-9.87598L46.0411-79.1617C46.0411-79.774 45.5401-80.2295 44.9732-80.2295C44.3609-80.2295 43.9053-79.774 43.9053-79.1617ZM50.8613-71.3697C62.3091-53.9605 59.6402-30.856 45.8814-23.9942L46.7774-22.0913C61.6636-29.4361 64.7208-53.3028 53.1592-71.7002Z"/>
  </g>
 </g>
</svg>
