<?xml version="1.0" encoding="UTF-8"?>
<!--Generator: Apple Native CoreSVG 175.5-->
<!DOCTYPE svg
PUBLIC "-//W3C//DTD SVG 1.1//EN"
       "http://www.w3.org/Graphics/SVG/1.1/DTD/svg11.dtd">
<svg version="1.1" xmlns="http://www.w3.org/2000/svg" xmlns:xlink="http://www.w3.org/1999/xlink" width="3300" height="2200">
 <!--glyph: "uni101407.medium", point size: 100.0, font version: "18.0d11e1", template writer version: "90"-->
 <style>.monochrome-0 {fill:#000000}

.SFSymbolsPreview000000 {fill:#000000;opacity:1.0}
</style>
 <g id="Notes">
  <rect height="2200" id="artboard" style="fill:white;opacity:1" width="3300" x="0" y="0"/>
  <line style="fill:none;stroke:black;opacity:1;stroke-width:0.5;" x1="263" x2="3036" y1="292" y2="292"/>
  <text style="stroke:none;fill:black;font-family:sans-serif;font-size:13;font-weight:bold;" transform="matrix(1 0 0 1 263 322)">Weight/Scale Variations</text>
  <text style="stroke:none;fill:black;font-family:sans-serif;font-size:13;text-anchor:middle;" transform="matrix(1 0 0 1 559.711 322)">Ultralight</text>
  <text style="stroke:none;fill:black;font-family:sans-serif;font-size:13;text-anchor:middle;" transform="matrix(1 0 0 1 856.422 322)">Thin</text>
  <text style="stroke:none;fill:black;font-family:sans-serif;font-size:13;text-anchor:middle;" transform="matrix(1 0 0 1 1153.13 322)">Light</text>
  <text style="stroke:none;fill:black;font-family:sans-serif;font-size:13;text-anchor:middle;" transform="matrix(1 0 0 1 1449.84 322)">Regular</text>
  <text style="stroke:none;fill:black;font-family:sans-serif;font-size:13;text-anchor:middle;" transform="matrix(1 0 0 1 1746.56 322)">Medium</text>
  <text style="stroke:none;fill:black;font-family:sans-serif;font-size:13;text-anchor:middle;" transform="matrix(1 0 0 1 2043.27 322)">Semibold</text>
  <text style="stroke:none;fill:black;font-family:sans-serif;font-size:13;text-anchor:middle;" transform="matrix(1 0 0 1 2339.98 322)">Bold</text>
  <text style="stroke:none;fill:black;font-family:sans-serif;font-size:13;text-anchor:middle;" transform="matrix(1 0 0 1 2636.69 322)">Heavy</text>
  <text style="stroke:none;fill:black;font-family:sans-serif;font-size:13;text-anchor:middle;" transform="matrix(1 0 0 1 2933.4 322)">Black</text>
  <line style="fill:none;stroke:black;opacity:1;stroke-width:0.5;" x1="263" x2="3036" y1="1903" y2="1903"/>
  <g transform="matrix(1 0 0 1 263 1933)">
   <path d="M9.24805 0.830078C13.5547 0.830078 17.1387-2.74414 17.1387-7.05078C17.1387-11.3574 13.5449-14.9316 9.23828-14.9316C4.94141-14.9316 1.36719-11.3574 1.36719-7.05078C1.36719-2.74414 4.95117 0.830078 9.24805 0.830078ZM9.24805-0.654297C5.70312-0.654297 2.87109-3.49609 2.87109-7.05078C2.87109-10.6055 5.69336-13.4473 9.23828-13.4473C12.793-13.4473 15.6445-10.6055 15.6445-7.05078C15.6445-3.49609 12.8027-0.654297 9.24805-0.654297ZM5.6543-7.05078C5.6543-6.62109 5.95703-6.32812 6.40625-6.32812L8.50586-6.32812L8.50586-4.20898C8.50586-3.76953 8.79883-3.4668 9.22852-3.4668C9.67773-3.4668 9.9707-3.76953 9.9707-4.20898L9.9707-6.32812L12.0898-6.32812C12.5293-6.32812 12.832-6.62109 12.832-7.05078C12.832-7.49023 12.5293-7.79297 12.0898-7.79297L9.9707-7.79297L9.9707-9.90234C9.9707-10.3516 9.67773-10.6543 9.22852-10.6543C8.79883-10.6543 8.50586-10.3516 8.50586-9.90234L8.50586-7.79297L6.40625-7.79297C5.95703-7.79297 5.6543-7.49023 5.6543-7.05078Z"/>
  </g>
  <g transform="matrix(1 0 0 1 281.867 1933)">
   <path d="M11.709 2.91016C17.1582 2.91016 21.6699-1.61133 21.6699-7.05078C21.6699-12.5 17.1484-17.0117 11.6992-17.0117C6.25977-17.0117 1.74805-12.5 1.74805-7.05078C1.74805-1.61133 6.26953 2.91016 11.709 2.91016ZM11.709 1.25C7.09961 1.25 3.41797-2.44141 3.41797-7.05078C3.41797-11.6602 7.08984-15.3516 11.6992-15.3516C16.3086-15.3516 20.0098-11.6602 20.0098-7.05078C20.0098-2.44141 16.3184 1.25 11.709 1.25ZM7.17773-7.05078C7.17773-6.57227 7.50977-6.25 8.00781-6.25L10.8789-6.25L10.8789-3.36914C10.8789-2.88086 11.2109-2.53906 11.6895-2.53906C12.1777-2.53906 12.5195-2.87109 12.5195-3.36914L12.5195-6.25L15.4004-6.25C15.8887-6.25 16.2305-6.57227 16.2305-7.05078C16.2305-7.53906 15.8887-7.88086 15.4004-7.88086L12.5195-7.88086L12.5195-10.752C12.5195-11.25 12.1777-11.5918 11.6895-11.5918C11.2109-11.5918 10.8789-11.25 10.8789-10.752L10.8789-7.88086L8.00781-7.88086C7.50977-7.88086 7.17773-7.53906 7.17773-7.05078Z"/>
  </g>
  <g transform="matrix(1 0 0 1 305.646 1933)">
   <path d="M14.9707 5.66406C21.9336 5.66406 27.6953-0.0976562 27.6953-7.05078C27.6953-14.0137 21.9238-19.7754 14.9609-19.7754C8.00781-19.7754 2.25586-14.0137 2.25586-7.05078C2.25586-0.0976562 8.01758 5.66406 14.9707 5.66406ZM14.9707 3.84766C8.93555 3.84766 4.08203-1.01562 4.08203-7.05078C4.08203-13.0957 8.92578-17.9492 14.9609-17.9492C21.0059-17.9492 25.8691-13.0957 25.8691-7.05078C25.8691-1.01562 21.0156 3.84766 14.9707 3.84766ZM9.19922-7.05078C9.19922-6.5332 9.57031-6.17188 10.1172-6.17188L14.0625-6.17188L14.0625-2.2168C14.0625-1.67969 14.4336-1.29883 14.9512-1.29883C15.4883-1.29883 15.8594-1.66992 15.8594-2.2168L15.8594-6.17188L19.8145-6.17188C20.3516-6.17188 20.7324-6.5332 20.7324-7.05078C20.7324-7.59766 20.3613-7.96875 19.8145-7.96875L15.8594-7.96875L15.8594-11.9141C15.8594-12.4609 15.4883-12.8418 14.9512-12.8418C14.4336-12.8418 14.0625-12.4609 14.0625-11.9141L14.0625-7.96875L10.1172-7.96875C9.57031-7.96875 9.19922-7.59766 9.19922-7.05078Z"/>
  </g>
  <text style="stroke:none;fill:black;font-family:sans-serif;font-size:13;font-weight:bold;" transform="matrix(1 0 0 1 263 1953)">Design Variations</text>
  <text style="stroke:none;fill:black;font-family:sans-serif;font-size:13;" transform="matrix(1 0 0 1 263 1971)">Symbols are supported in up to nine weights and three scales.</text>
  <text style="stroke:none;fill:black;font-family:sans-serif;font-size:13;" transform="matrix(1 0 0 1 263 1989)">For optimal layout with text and other symbols, vertically align</text>
  <text style="stroke:none;fill:black;font-family:sans-serif;font-size:13;" transform="matrix(1 0 0 1 263 2007)">symbols with the adjacent text.</text>
  <line style="fill:none;stroke:#00AEEF;stroke-width:0.5;opacity:1.0;" x1="776" x2="776" y1="1919" y2="1933"/>
  <g transform="matrix(1 0 0 1 776 1933)">
   <path d="M3.31055 0.15625C3.82812 0.15625 4.08203-0.0390625 4.26758-0.585938L5.52734-4.0332L11.2891-4.0332L12.5488-0.585938C12.7344-0.0390625 12.9883 0.15625 13.4961 0.15625C14.0137 0.15625 14.3457-0.15625 14.3457-0.644531C14.3457-0.810547 14.3164-0.966797 14.2383-1.17188L9.6582-13.3691C9.43359-13.9648 9.0332-14.2676 8.4082-14.2676C7.80273-14.2676 7.39258-13.9746 7.17773-13.3789L2.59766-1.16211C2.51953-0.957031 2.49023-0.800781 2.49023-0.634766C2.49023-0.146484 2.80273 0.15625 3.31055 0.15625ZM6.00586-5.51758L8.37891-12.0898L8.42773-12.0898L10.8008-5.51758Z"/>
  </g>
  <line style="fill:none;stroke:#00AEEF;stroke-width:0.5;opacity:1.0;" x1="793.197" x2="793.197" y1="1919" y2="1933"/>
  <text style="stroke:none;fill:black;font-family:sans-serif;font-size:13;font-weight:bold;" transform="matrix(1 0 0 1 776 1953)">Margins</text>
  <text style="stroke:none;fill:black;font-family:sans-serif;font-size:13;" transform="matrix(1 0 0 1 776 1971)">Leading and trailing margins on the left and right side of each symbol</text>
  <text style="stroke:none;fill:black;font-family:sans-serif;font-size:13;" transform="matrix(1 0 0 1 776 1989)">can be adjusted by modifying the x-location of the margin guidelines.</text>
  <text style="stroke:none;fill:black;font-family:sans-serif;font-size:13;" transform="matrix(1 0 0 1 776 2007)">Modifications are automatically applied proportionally to all</text>
  <text style="stroke:none;fill:black;font-family:sans-serif;font-size:13;" transform="matrix(1 0 0 1 776 2025)">scales and weights.</text>
  <g transform="matrix(1 0 0 1 1289 1933)">
   <path d="M2.8418 1.86523L4.54102 3.57422C5.40039 4.44336 6.38672 4.38477 7.31445 3.35938L18.0078-8.42773L17.041-9.4043L6.42578 2.27539C6.07422 2.67578 5.74219 2.77344 5.27344 2.30469L4.10156 1.14258C3.63281 0.683594 3.74023 0.341797 4.14062-0.0195312L15.6152-10.8203L14.6387-11.7871L3.04688-0.898438C2.06055 0.0195312 1.98242 0.996094 2.8418 1.86523ZM9.25781-16.3281C8.83789-15.918 8.80859-15.3418 9.04297-14.9512C9.27734-14.5898 9.73633-14.3555 10.3809-14.5215C11.8457-14.8633 13.3691-14.9219 14.7949-13.9844L14.209-12.5293C13.8672-11.6992 14.043-11.1133 14.5801-10.5664L16.875-8.25195C17.3633-7.76367 17.7734-7.74414 18.3398-7.8418L19.4043-8.03711L20.0684-7.36328L20.0293-6.80664C19.9902-6.30859 20.1172-5.92773 20.6055-5.44922L21.3672-4.70703C21.8457-4.22852 22.4609-4.19922 22.9297-4.66797L25.8398-7.58789C26.3086-8.05664 26.2891-8.65234 25.8105-9.13086L25.0391-9.89258C24.5605-10.3711 24.1895-10.5273 23.7109-10.4883L23.1348-10.4395L22.4902-11.0742L22.7344-12.1973C22.8613-12.7637 22.7051-13.2031 22.1191-13.7891L19.9219-15.9766C16.582-19.2969 12.1484-19.2188 9.25781-16.3281ZM10.752-15.957C13.1836-17.7344 16.4746-17.4316 18.7012-15.2051L21.1328-12.793C21.3672-12.5586 21.4062-12.373 21.3379-12.0312L21.0156-10.5469L22.5195-9.0625L23.5059-9.12109C23.7598-9.13086 23.8379-9.11133 24.0332-8.91602L24.6094-8.33984L22.168-5.89844L21.5918-6.47461C21.3965-6.66992 21.3672-6.74805 21.377-7.01172L21.4453-7.98828L19.9512-9.47266L18.4277-9.21875C18.1055-9.15039 17.959-9.17969 17.7148-9.41406L15.7129-11.416C15.459-11.6504 15.4297-11.8164 15.5859-12.1875L16.4648-14.2773C14.9023-15.7324 12.8711-16.3574 10.8398-15.7617C10.6836-15.7227 10.625-15.8496 10.752-15.957Z"/>
  </g>
  <text style="stroke:none;fill:black;font-family:sans-serif;font-size:13;font-weight:bold;" transform="matrix(1 0 0 1 1289 1953)">Exporting</text>
  <text style="stroke:none;fill:black;font-family:sans-serif;font-size:13;" transform="matrix(1 0 0 1 1289 1971)">Symbols should be outlined when exporting to ensure the</text>
  <text style="stroke:none;fill:black;font-family:sans-serif;font-size:13;" transform="matrix(1 0 0 1 1289 1989)">design is preserved when submitting to Xcode.</text>
  <text id="template-version" style="stroke:none;fill:black;font-family:sans-serif;font-size:13;text-anchor:end;" transform="matrix(1 0 0 1 3036 1933)">Template v.4.0</text>
  <text style="stroke:none;fill:black;font-family:sans-serif;font-size:13;text-anchor:end;" transform="matrix(1 0 0 1 3036 1951)">Requires Xcode 14 or greater</text>
  <text id="descriptive-name" style="stroke:none;fill:black;font-family:sans-serif;font-size:13;text-anchor:end;" transform="matrix(1 0 0 1 3036 1969)">Generated from popcorn</text>
  <text style="stroke:none;fill:black;font-family:sans-serif;font-size:13;text-anchor:end;" transform="matrix(1 0 0 1 3036 1987)">Typeset at 100 points</text>
  <text style="stroke:none;fill:black;font-family:sans-serif;font-size:13;" transform="matrix(1 0 0 1 263 726)">Small</text>
  <text style="stroke:none;fill:black;font-family:sans-serif;font-size:13;" transform="matrix(1 0 0 1 263 1156)">Medium</text>
  <text style="stroke:none;fill:black;font-family:sans-serif;font-size:13;" transform="matrix(1 0 0 1 263 1586)">Large</text>
 </g>
 <g id="Guides">
  <g id="H-reference" style="fill:#27AAE1;stroke:none;" transform="matrix(1 0 0 1 339 696)">
   <path d="M0.993654 0L3.63775 0L29.3281-67.1323L30.0303-67.1323L30.0303-70.459L28.1226-70.459ZM11.6885-24.4799L46.9815-24.4799L46.2315-26.7285L12.4385-26.7285ZM55.1196 0L57.7637 0L30.6382-70.459L29.4326-70.459L29.4326-67.1323Z"/>
  </g>
  <line id="Baseline-S" style="fill:none;stroke:#27AAE1;opacity:1;stroke-width:0.5;" x1="263" x2="3036" y1="696" y2="696"/>
  <line id="Capline-S" style="fill:none;stroke:#27AAE1;opacity:1;stroke-width:0.5;" x1="263" x2="3036" y1="625.541" y2="625.541"/>
  <g id="H-reference" style="fill:#27AAE1;stroke:none;" transform="matrix(1 0 0 1 339 1126)">
   <path d="M0.993654 0L3.63775 0L29.3281-67.1323L30.0303-67.1323L30.0303-70.459L28.1226-70.459ZM11.6885-24.4799L46.9815-24.4799L46.2315-26.7285L12.4385-26.7285ZM55.1196 0L57.7637 0L30.6382-70.459L29.4326-70.459L29.4326-67.1323Z"/>
  </g>
  <line id="Baseline-M" style="fill:none;stroke:#27AAE1;opacity:1;stroke-width:0.5;" x1="263" x2="3036" y1="1126" y2="1126"/>
  <line id="Capline-M" style="fill:none;stroke:#27AAE1;opacity:1;stroke-width:0.5;" x1="263" x2="3036" y1="1055.54" y2="1055.54"/>
  <g id="H-reference" style="fill:#27AAE1;stroke:none;" transform="matrix(1 0 0 1 339 1556)">
   <path d="M0.993654 0L3.63775 0L29.3281-67.1323L30.0303-67.1323L30.0303-70.459L28.1226-70.459ZM11.6885-24.4799L46.9815-24.4799L46.2315-26.7285L12.4385-26.7285ZM55.1196 0L57.7637 0L30.6382-70.459L29.4326-70.459L29.4326-67.1323Z"/>
  </g>
  <line id="Baseline-L" style="fill:none;stroke:#27AAE1;opacity:1;stroke-width:0.5;" x1="263" x2="3036" y1="1556" y2="1556"/>
  <line id="Capline-L" style="fill:none;stroke:#27AAE1;opacity:1;stroke-width:0.5;" x1="263" x2="3036" y1="1485.54" y2="1485.54"/>
  <line id="left-margin-Ultralight-S" style="fill:none;stroke:#00AEEF;stroke-width:0.5;opacity:1.0;" x1="518.976" x2="518.976" y1="600.785" y2="720.121"/>
  <line id="right-margin-Ultralight-S" style="fill:none;stroke:#00AEEF;stroke-width:0.5;opacity:1.0;" x1="600.446" x2="600.446" y1="600.785" y2="720.121"/>
  <line id="left-margin-Regular-S" style="fill:none;stroke:#00AEEF;stroke-width:0.5;opacity:1.0;" x1="1407" x2="1407" y1="600.785" y2="720.121"/>
  <line id="right-margin-Regular-S" style="fill:none;stroke:#00AEEF;stroke-width:0.5;opacity:1.0;" x1="1492.69" x2="1492.69" y1="600.785" y2="720.121"/>
  <line id="left-margin-Black-S" style="fill:none;stroke:#00AEEF;stroke-width:0.5;opacity:1.0;" x1="2888.62" x2="2888.62" y1="600.785" y2="720.121"/>
  <line id="right-margin-Black-S" style="fill:none;stroke:#00AEEF;stroke-width:0.5;opacity:1.0;" x1="2978.18" x2="2978.18" y1="600.785" y2="720.121"/>
 </g>
 <g id="Symbols">
  <g id="Black-S" transform="matrix(1 0 0 1 2888.62 696)">
   <path class="monochrome-0 SFSymbolsPreview000000" d="M29.6387 8.69141L54.6387 8.69141L49.7559-1.07422L43.1641-1.07422L39.0137-47.0215C38.7207-50.3906 41.2598-53.0273 44.7754-53.0273C48.291-53.0273 50.8301-50.3906 50.5371-47.0215L46.7773-5.61523L57.1777-12.5L60.2539-46.4355C60.498-49.2188 62.4023-51.0742 64.7949-51.0742C68.3105-51.0742 70.3125-48.6328 69.6289-45.2148L64.502-18.6523L74.3652-18.6523L79.1992-44.2383C81.0547-54.1504 73.4375-60.8398 64.7949-60.8398C61.6699-60.8398 58.7891-59.8145 56.4941-58.0566C53.7109-61.0352 49.6094-62.793 44.7754-62.793C39.9414-62.793 35.8398-61.0352 33.0566-58.0566C30.7617-59.8145 27.8809-60.8398 24.7559-60.8398C16.1133-60.8398 8.49609-54.1504 10.3516-44.2383L18.3594-2.00195C19.5801 4.54102 22.9492 8.69141 29.6387 8.69141ZM66.1621 15.1367C70.2637 15.1367 74.1699 12.9883 76.416 9.52148C81.4453 7.91016 84.9609 3.07617 84.9609-2.24609C84.9609-6.68945 82.5195-10.9863 77.9297-13.1348C77.9297-19.4824 72.7051-23.584 66.1621-23.584C59.7168-23.584 54.7852-19.6289 53.9551-14.0137C48.8281-12.3535 45.3125-7.61719 45.3125-2.24609C45.3125 3.90625 49.7559 9.08203 55.8105 10.0098C58.3496 13.1836 62.2559 15.1367 66.1621 15.1367ZM30.3711-1.07422C29.0527-1.07422 28.3691-1.66016 28.125-2.83203L19.9219-45.2148C19.2383-48.6328 21.2402-51.0742 24.7559-51.0742C27.1484-51.0742 29.0527-49.2188 29.2969-46.4355L33.3984-1.07422ZM19.2871-48.7793L22.0215-57.5195C19.6777-57.8125 18.6035-59.2773 18.6035-61.377C18.6035-63.6719 21.4355-66.6992 25.9766-64.8926C25.3418-67.9199 29.541-71.0938 33.1543-69.7266C31.8848-73.4863 33.9355-76.8066 38.0859-76.8066C41.7969-76.8066 43.3594-73.2422 42.6758-70.1172C45.1172-72.2656 51.7578-71.8262 53.5156-68.2617C53.9551-71.875 56.4453-73.2422 58.8379-73.2422C61.8164-73.2422 64.6973-70.8008 63.5254-66.9922C68.0664-67.5781 71.0449-65.1855 71.0449-61.6211C71.0449-59.5703 69.1406-57.7148 66.8945-57.4707L70.7031-49.1699C75.9766-51.0254 79.7852-56.1523 79.7852-62.1094C79.7852-69.6289 75.2441-74.9512 68.457-75.4395C66.2109-79.6875 62.7441-81.9336 58.4473-81.9336C55.5664-81.9336 52.8809-81.0059 50.7324-79.2969C50.0977-79.4434 49.3652-79.4922 48.7305-79.4434C46.582-83.252 42.5293-85.6445 38.0859-85.6445C32.5684-85.6445 27.9297-82.5195 26.709-78.2227C24.2676-77.8809 22.0703-75.7812 21.582-73.3887C15.0391-73.1445 9.76562-67.7246 9.76562-61.0352C9.76562-55.1758 13.8672-50.1465 19.2871-48.7793ZM66.1621 8.05664C63.3301 8.05664 60.3516 6.29883 60.3516 2.63672C56.5918 3.95508 52.3438 2.00195 52.3438-2.24609C52.3438-6.83594 55.8105-9.13086 61.0352-8.00781C59.5703-11.4746 61.2305-16.5039 66.1621-16.5039C70.8496-16.5039 72.8516-11.8164 71.4844-7.95898C75.4883-8.54492 77.6855-5.41992 77.6855-2.34375C77.6855 0.488281 75.7324 3.32031 71.4355 2.92969C71.6797 5.95703 68.8965 8.05664 66.1621 8.05664Z"/>
  </g>
  <g id="Regular-S" transform="matrix(1 0 0 1 1407 696)">
   <path class="monochrome-0 SFSymbolsPreview000000" d="M27.7344 7.12891L50.7812 7.12891L50.7324 0.634766L39.7461 0.634766L35.4492-46.8262C35.0098-51.6113 37.8906-54.6387 42.8223-54.6387C47.8027-54.6387 50.6836-51.6113 50.2441-46.8262L46.5332-5.37109L53.2227-8.39844L56.6895-46.582C57.0312-50.5859 59.6191-52.6855 62.8418-52.6855C66.5527-52.6855 70.2637-49.8535 69.2871-44.873L64.1113-18.1641L70.7031-18.1152L75.6836-44.5312C77.3926-53.3691 70.6055-59.1797 62.8418-59.1797C59.5215-59.1797 56.543-57.8613 54.3457-55.6641C51.9531-59.0332 47.9004-61.1328 42.8223-61.1328C37.793-61.1328 33.7402-59.0332 31.3477-55.6641C29.1504-57.8613 26.1719-59.1797 22.8027-59.1797C15.0879-59.1797 8.30078-53.3691 10.0098-44.5312L18.0176-2.14844C19.1406 3.71094 21.9727 7.12891 27.7344 7.12891ZM64.0625 13.7695C67.8223 13.7695 71.2891 11.7188 73.0957 8.54492C77.6367 7.27539 80.9082 3.07617 80.9082-1.70898C80.9082-6.00586 78.2715-9.7168 74.707-11.7676C74.3652-17.334 69.7266-20.8984 64.0625-20.8984C58.4473-20.8984 53.8574-17.4316 53.418-12.0117C48.7793-10.8398 45.3125-6.64062 45.3125-1.70898C45.3125 3.80859 49.5117 8.30078 54.834 8.88672C56.9336 11.8164 60.4004 13.7695 64.0625 13.7695ZM27.9297 0.634766C26.0742 0.634766 24.9512-0.488281 24.6094-2.39258L16.4062-44.873C15.4297-49.8535 19.1406-52.6855 22.8027-52.6855C26.0742-52.6855 28.6621-50.5859 29.0039-46.582L33.252 0.634766ZM17.3828-51.416L19.873-57.3242C17.9199-57.8613 16.5039-59.6191 16.5039-61.7188C16.5039-65.332 20.6543-67.4805 24.4629-65.918C24.0723-69.873 28.2227-72.6074 32.0312-70.5566C30.4688-75.4395 33.3496-77.9785 36.377-77.9785C39.3555-77.9785 42.4805-75.6836 41.748-71.0449C44.2871-72.6562 48.5352-72.3633 50.7812-70.7031C51.7578-73.0469 53.8086-74.4141 56.2988-74.4141C59.7656-74.4141 61.3281-71.6797 61.3281-67.7734C65.9668-68.457 69.1895-66.6504 69.1895-62.3047C69.1895-60.0098 67.334-57.9102 64.9902-57.373L68.4082-51.8066C72.5098-53.6621 75.3906-57.9102 75.3906-62.7441C75.3906-69.5801 71.1914-74.3164 64.9414-74.5117C63.1348-78.2715 60.2051-80.7129 55.957-80.7129C53.3203-80.7129 50.8301-79.834 48.9258-78.125C48.0957-78.3203 46.9238-78.418 45.9961-78.2715C44.2383-81.9824 40.5273-84.2773 36.377-84.2773C30.6641-84.2773 27.002-80.7129 26.3672-77.2949C23.584-77.4414 21.3867-74.7559 21.3867-72.5098C15.332-72.7539 10.3027-67.8711 10.3027-61.7188C10.3027-57.0801 13.2324-52.9297 17.3828-51.416ZM64.0625 8.20312C61.3281 8.20312 58.4961 6.49414 58.5449 2.97852C54.8828 4.24805 50.8301 2.34375 50.8301-1.70898C50.8301-6.00586 54.1504-8.25195 59.082-7.22656C57.7148-10.5957 59.375-15.332 64.0625-15.332C68.5547-15.332 70.5078-10.8887 69.2383-7.12891C72.8027-7.61719 75.1953-5.32227 75.1953-1.46484C75.1953 1.75781 72.8027 3.61328 69.1406 3.27148C69.3848 6.15234 66.6992 8.20312 64.0625 8.20312Z"/>
  </g>
  <g id="Ultralight-S" transform="matrix(1 0 0 1 518.976 696)">
   <path class="monochrome-0 SFSymbolsPreview000000" d="M25.8272 6.35694L53.5058 6.35694L52.5488 4.17673L35.6592 4.17673L31.1807-45.2822C30.6504-51.3389 34.5303-55.4106 40.7334-55.4106C46.9399-55.4106 50.8198-51.3389 50.2896-45.2822L47.0327-9.27634L49.2266-9.89696L52.4209-45.356C52.899-50.5859 56.4405-53.4575 60.7529-53.4575C66.8706-53.4575 70.4907-49.4448 69.3779-43.6016L64.3838-17.6646L66.3438-16.4805L71.4605-43.5776C72.8062-50.69 68.2896-55.6377 60.7529-55.6377C56.8423-55.6377 53.6822-53.9107 51.7119-50.3057C50.5-54.6285 46.1294-57.5908 40.7334-57.5908C35.3408-57.5908 30.9702-54.6285 29.7583-50.3057C27.7881-53.9107 24.6279-55.6377 20.7139-55.6377C13.1807-55.6377 8.66406-50.69 10.0098-43.5776L18.3809 0.66697C19.1406 4.66454 21.7002 6.35694 25.8272 6.35694ZM60.0664 10.2276C63.6446 10.2276 66.9297 7.72269 67.6011 4.45804C72.1875 4.23293 74.8233 0.851092 74.8233-3.20751C74.8233-6.86865 72.3682-9.85303 68.94-10.3599C69.3247-15.7446 65.4126-19.9448 60.0664-19.9448C55.1324-19.9448 51.3145-16.251 51.3291-11.603C47.1445-10.9761 43.8594-7.36718 43.8594-3.34374C43.8594 1.44728 47.7407 4.94046 52.6543 4.66361C52.8921 7.77493 56.1319 10.2276 60.0664 10.2276ZM25.8408 4.17673C22.8501 4.17673 21.0459 3.18991 20.5225 0.33201L12.0923-43.6016C10.9795-49.4448 14.5996-53.4575 20.7139-53.4575C24.9844-53.4575 28.5713-50.5859 29.0493-45.356L33.479 4.17673ZM14.3858-52.7329L16.1494-54.2818C13.9239-55.2276 12.5078-57.4849 12.5078-60.3565C12.5078-63.9697 15.5684-67.4805 20.9663-67.4165C19.7583-71.1899 23.1368-74.8779 27.5357-73.3266C27.835-76.166 30.5342-78.5688 34.2881-78.5688C37.8115-78.5688 41.0728-75.7744 41.0669-71.6807C43.2881-73.4282 47.082-73.0444 48.5108-71.4751C49.5781-73.728 51.6289-75.0044 53.8921-75.0044C57.2681-75.0044 59.9204-72.1338 59.4663-68.5C64.4683-69.7285 68.917-66.0601 68.917-61.2149C68.917-58.2388 67.1978-55.7305 64.7632-54.5122L66.5918-53.0781C69.2857-54.7974 71.0767-57.8193 71.0767-61.2456C71.0767-66.6284 66.7867-70.9107 61.4449-70.9243C60.7735-74.5025 57.6621-77.1709 53.8682-77.1709C51.4585-77.1709 49.2861-76.065 47.8359-74.4014C46.3247-75.0054 44.4263-75.0122 42.6358-74.5479C41.4229-78.2588 38.1206-80.7354 34.2881-80.7354C30.2554-80.7354 26.9565-78.4878 26.1855-75.5239C22.6304-76.4424 18.98-73.8023 18.98-69.4673C14.2422-69.439 10.3481-65.1465 10.3481-60.3565C10.3481-56.8984 11.8247-54.2012 14.3858-52.7329ZM60.0664 8.11231C56.333 8.11231 53.9097 5.67676 54.5943 2.4336C49.8423 3.47608 46.0166 0.936046 46.0166-3.34374C46.0166-6.91406 49.2461-9.75048 53.4058-9.81492C52.7198-14.2285 55.5606-17.7842 60.0664-17.7842C64.8311-17.7842 67.7832-13.7949 66.7407-8.89989C70.2598-8.75243 72.6978-6.32128 72.6978-3.19042C72.6978 0.486338 70.5777 2.7959 65.9619 2.49952C65.752 5.65284 63.1573 8.11231 60.0664 8.11231Z"/>
  </g>
 </g>
</svg>
