<?xml version="1.0" encoding="UTF-8"?>
<!--Generator: Apple Native CoreSVG 175.5-->
<!DOCTYPE svg
PUBLIC "-//W3C//DTD SVG 1.1//EN"
       "http://www.w3.org/Graphics/SVG/1.1/DTD/svg11.dtd">
<svg version="1.1" xmlns="http://www.w3.org/2000/svg" xmlns:xlink="http://www.w3.org/1999/xlink" width="3300" height="2200">
 <!--glyph: "uni101540.medium", point size: 100.0, font version: "18.0d11e1", template writer version: "90"-->
 <g id="Notes">
  <rect height="2200" id="artboard" style="fill:white;opacity:1" width="3300" x="0" y="0"/>
  <line style="fill:none;stroke:black;opacity:1;stroke-width:0.5;" x1="263" x2="3036" y1="292" y2="292"/>
  <text style="stroke:none;fill:black;font-family:sans-serif;font-size:13;font-weight:bold;" transform="matrix(1 0 0 1 263 322)">Weight/Scale Variations</text>
  <text style="stroke:none;fill:black;font-family:sans-serif;font-size:13;text-anchor:middle;" transform="matrix(1 0 0 1 559.711 322)">Ultralight</text>
  <text style="stroke:none;fill:black;font-family:sans-serif;font-size:13;text-anchor:middle;" transform="matrix(1 0 0 1 856.422 322)">Thin</text>
  <text style="stroke:none;fill:black;font-family:sans-serif;font-size:13;text-anchor:middle;" transform="matrix(1 0 0 1 1153.13 322)">Light</text>
  <text style="stroke:none;fill:black;font-family:sans-serif;font-size:13;text-anchor:middle;" transform="matrix(1 0 0 1 1449.84 322)">Regular</text>
  <text style="stroke:none;fill:black;font-family:sans-serif;font-size:13;text-anchor:middle;" transform="matrix(1 0 0 1 1746.56 322)">Medium</text>
  <text style="stroke:none;fill:black;font-family:sans-serif;font-size:13;text-anchor:middle;" transform="matrix(1 0 0 1 2043.27 322)">Semibold</text>
  <text style="stroke:none;fill:black;font-family:sans-serif;font-size:13;text-anchor:middle;" transform="matrix(1 0 0 1 2339.98 322)">Bold</text>
  <text style="stroke:none;fill:black;font-family:sans-serif;font-size:13;text-anchor:middle;" transform="matrix(1 0 0 1 2636.69 322)">Heavy</text>
  <text style="stroke:none;fill:black;font-family:sans-serif;font-size:13;text-anchor:middle;" transform="matrix(1 0 0 1 2933.4 322)">Black</text>
  <line style="fill:none;stroke:black;opacity:1;stroke-width:0.5;" x1="263" x2="3036" y1="1903" y2="1903"/>
  <g transform="matrix(1 0 0 1 263 1933)">
   <path d="M9.24805 0.830078C13.5547 0.830078 17.1387-2.74414 17.1387-7.05078C17.1387-11.3574 13.5449-14.9316 9.23828-14.9316C4.94141-14.9316 1.36719-11.3574 1.36719-7.05078C1.36719-2.74414 4.95117 0.830078 9.24805 0.830078ZM9.24805-0.654297C5.70312-0.654297 2.87109-3.49609 2.87109-7.05078C2.87109-10.6055 5.69336-13.4473 9.23828-13.4473C12.793-13.4473 15.6445-10.6055 15.6445-7.05078C15.6445-3.49609 12.8027-0.654297 9.24805-0.654297ZM5.6543-7.05078C5.6543-6.62109 5.95703-6.32812 6.40625-6.32812L8.50586-6.32812L8.50586-4.20898C8.50586-3.76953 8.79883-3.4668 9.22852-3.4668C9.67773-3.4668 9.9707-3.76953 9.9707-4.20898L9.9707-6.32812L12.0898-6.32812C12.5293-6.32812 12.832-6.62109 12.832-7.05078C12.832-7.49023 12.5293-7.79297 12.0898-7.79297L9.9707-7.79297L9.9707-9.90234C9.9707-10.3516 9.67773-10.6543 9.22852-10.6543C8.79883-10.6543 8.50586-10.3516 8.50586-9.90234L8.50586-7.79297L6.40625-7.79297C5.95703-7.79297 5.6543-7.49023 5.6543-7.05078Z"/>
  </g>
  <g transform="matrix(1 0 0 1 281.867 1933)">
   <path d="M11.709 2.91016C17.1582 2.91016 21.6699-1.61133 21.6699-7.05078C21.6699-12.5 17.1484-17.0117 11.6992-17.0117C6.25977-17.0117 1.74805-12.5 1.74805-7.05078C1.74805-1.61133 6.26953 2.91016 11.709 2.91016ZM11.709 1.25C7.09961 1.25 3.41797-2.44141 3.41797-7.05078C3.41797-11.6602 7.08984-15.3516 11.6992-15.3516C16.3086-15.3516 20.0098-11.6602 20.0098-7.05078C20.0098-2.44141 16.3184 1.25 11.709 1.25ZM7.17773-7.05078C7.17773-6.57227 7.50977-6.25 8.00781-6.25L10.8789-6.25L10.8789-3.36914C10.8789-2.88086 11.2109-2.53906 11.6895-2.53906C12.1777-2.53906 12.5195-2.87109 12.5195-3.36914L12.5195-6.25L15.4004-6.25C15.8887-6.25 16.2305-6.57227 16.2305-7.05078C16.2305-7.53906 15.8887-7.88086 15.4004-7.88086L12.5195-7.88086L12.5195-10.752C12.5195-11.25 12.1777-11.5918 11.6895-11.5918C11.2109-11.5918 10.8789-11.25 10.8789-10.752L10.8789-7.88086L8.00781-7.88086C7.50977-7.88086 7.17773-7.53906 7.17773-7.05078Z"/>
  </g>
  <g transform="matrix(1 0 0 1 305.646 1933)">
   <path d="M14.9707 5.66406C21.9336 5.66406 27.6953-0.0976562 27.6953-7.05078C27.6953-14.0137 21.9238-19.7754 14.9609-19.7754C8.00781-19.7754 2.25586-14.0137 2.25586-7.05078C2.25586-0.0976562 8.01758 5.66406 14.9707 5.66406ZM14.9707 3.84766C8.93555 3.84766 4.08203-1.01562 4.08203-7.05078C4.08203-13.0957 8.92578-17.9492 14.9609-17.9492C21.0059-17.9492 25.8691-13.0957 25.8691-7.05078C25.8691-1.01562 21.0156 3.84766 14.9707 3.84766ZM9.19922-7.05078C9.19922-6.5332 9.57031-6.17188 10.1172-6.17188L14.0625-6.17188L14.0625-2.2168C14.0625-1.67969 14.4336-1.29883 14.9512-1.29883C15.4883-1.29883 15.8594-1.66992 15.8594-2.2168L15.8594-6.17188L19.8145-6.17188C20.3516-6.17188 20.7324-6.5332 20.7324-7.05078C20.7324-7.59766 20.3613-7.96875 19.8145-7.96875L15.8594-7.96875L15.8594-11.9141C15.8594-12.4609 15.4883-12.8418 14.9512-12.8418C14.4336-12.8418 14.0625-12.4609 14.0625-11.9141L14.0625-7.96875L10.1172-7.96875C9.57031-7.96875 9.19922-7.59766 9.19922-7.05078Z"/>
  </g>
  <text style="stroke:none;fill:black;font-family:sans-serif;font-size:13;font-weight:bold;" transform="matrix(1 0 0 1 263 1953)">Design Variations</text>
  <text style="stroke:none;fill:black;font-family:sans-serif;font-size:13;" transform="matrix(1 0 0 1 263 1971)">Symbols are supported in up to nine weights and three scales.</text>
  <text style="stroke:none;fill:black;font-family:sans-serif;font-size:13;" transform="matrix(1 0 0 1 263 1989)">For optimal layout with text and other symbols, vertically align</text>
  <text style="stroke:none;fill:black;font-family:sans-serif;font-size:13;" transform="matrix(1 0 0 1 263 2007)">symbols with the adjacent text.</text>
  <line style="fill:none;stroke:#00AEEF;stroke-width:0.5;opacity:1.0;" x1="776" x2="776" y1="1919" y2="1933"/>
  <g transform="matrix(1 0 0 1 776 1933)">
   <path d="M3.31055 0.15625C3.82812 0.15625 4.08203-0.0390625 4.26758-0.585938L5.52734-4.0332L11.2891-4.0332L12.5488-0.585938C12.7344-0.0390625 12.9883 0.15625 13.4961 0.15625C14.0137 0.15625 14.3457-0.15625 14.3457-0.644531C14.3457-0.810547 14.3164-0.966797 14.2383-1.17188L9.6582-13.3691C9.43359-13.9648 9.0332-14.2676 8.4082-14.2676C7.80273-14.2676 7.39258-13.9746 7.17773-13.3789L2.59766-1.16211C2.51953-0.957031 2.49023-0.800781 2.49023-0.634766C2.49023-0.146484 2.80273 0.15625 3.31055 0.15625ZM6.00586-5.51758L8.37891-12.0898L8.42773-12.0898L10.8008-5.51758Z"/>
  </g>
  <line style="fill:none;stroke:#00AEEF;stroke-width:0.5;opacity:1.0;" x1="793.197" x2="793.197" y1="1919" y2="1933"/>
  <text style="stroke:none;fill:black;font-family:sans-serif;font-size:13;font-weight:bold;" transform="matrix(1 0 0 1 776 1953)">Margins</text>
  <text style="stroke:none;fill:black;font-family:sans-serif;font-size:13;" transform="matrix(1 0 0 1 776 1971)">Leading and trailing margins on the left and right side of each symbol</text>
  <text style="stroke:none;fill:black;font-family:sans-serif;font-size:13;" transform="matrix(1 0 0 1 776 1989)">can be adjusted by modifying the x-location of the margin guidelines.</text>
  <text style="stroke:none;fill:black;font-family:sans-serif;font-size:13;" transform="matrix(1 0 0 1 776 2007)">Modifications are automatically applied proportionally to all</text>
  <text style="stroke:none;fill:black;font-family:sans-serif;font-size:13;" transform="matrix(1 0 0 1 776 2025)">scales and weights.</text>
  <g transform="matrix(1 0 0 1 1289 1933)">
   <path d="M2.8418 1.86523L4.54102 3.57422C5.40039 4.44336 6.38672 4.38477 7.31445 3.35938L18.0078-8.42773L17.041-9.4043L6.42578 2.27539C6.07422 2.67578 5.74219 2.77344 5.27344 2.30469L4.10156 1.14258C3.63281 0.683594 3.74023 0.341797 4.14062-0.0195312L15.6152-10.8203L14.6387-11.7871L3.04688-0.898438C2.06055 0.0195312 1.98242 0.996094 2.8418 1.86523ZM9.25781-16.3281C8.83789-15.918 8.80859-15.3418 9.04297-14.9512C9.27734-14.5898 9.73633-14.3555 10.3809-14.5215C11.8457-14.8633 13.3691-14.9219 14.7949-13.9844L14.209-12.5293C13.8672-11.6992 14.043-11.1133 14.5801-10.5664L16.875-8.25195C17.3633-7.76367 17.7734-7.74414 18.3398-7.8418L19.4043-8.03711L20.0684-7.36328L20.0293-6.80664C19.9902-6.30859 20.1172-5.92773 20.6055-5.44922L21.3672-4.70703C21.8457-4.22852 22.4609-4.19922 22.9297-4.66797L25.8398-7.58789C26.3086-8.05664 26.2891-8.65234 25.8105-9.13086L25.0391-9.89258C24.5605-10.3711 24.1895-10.5273 23.7109-10.4883L23.1348-10.4395L22.4902-11.0742L22.7344-12.1973C22.8613-12.7637 22.7051-13.2031 22.1191-13.7891L19.9219-15.9766C16.582-19.2969 12.1484-19.2188 9.25781-16.3281ZM10.752-15.957C13.1836-17.7344 16.4746-17.4316 18.7012-15.2051L21.1328-12.793C21.3672-12.5586 21.4062-12.373 21.3379-12.0312L21.0156-10.5469L22.5195-9.0625L23.5059-9.12109C23.7598-9.13086 23.8379-9.11133 24.0332-8.91602L24.6094-8.33984L22.168-5.89844L21.5918-6.47461C21.3965-6.66992 21.3672-6.74805 21.377-7.01172L21.4453-7.98828L19.9512-9.47266L18.4277-9.21875C18.1055-9.15039 17.959-9.17969 17.7148-9.41406L15.7129-11.416C15.459-11.6504 15.4297-11.8164 15.5859-12.1875L16.4648-14.2773C14.9023-15.7324 12.8711-16.3574 10.8398-15.7617C10.6836-15.7227 10.625-15.8496 10.752-15.957Z"/>
  </g>
  <text style="stroke:none;fill:black;font-family:sans-serif;font-size:13;font-weight:bold;" transform="matrix(1 0 0 1 1289 1953)">Exporting</text>
  <text style="stroke:none;fill:black;font-family:sans-serif;font-size:13;" transform="matrix(1 0 0 1 1289 1971)">Symbols should be outlined when exporting to ensure the</text>
  <text style="stroke:none;fill:black;font-family:sans-serif;font-size:13;" transform="matrix(1 0 0 1 1289 1989)">design is preserved when submitting to Xcode.</text>
  <text id="template-version" style="stroke:none;fill:black;font-family:sans-serif;font-size:13;text-anchor:end;" transform="matrix(1 0 0 1 3036 1933)">Template v.4.0</text>
  <text style="stroke:none;fill:black;font-family:sans-serif;font-size:13;text-anchor:end;" transform="matrix(1 0 0 1 3036 1951)">Requires Xcode 14 or greater</text>
  <text id="descriptive-name" style="stroke:none;fill:black;font-family:sans-serif;font-size:13;text-anchor:end;" transform="matrix(1 0 0 1 3036 1969)">Generated from figure.socialdance</text>
  <text style="stroke:none;fill:black;font-family:sans-serif;font-size:13;text-anchor:end;" transform="matrix(1 0 0 1 3036 1987)">Typeset at 100 points</text>
  <text style="stroke:none;fill:black;font-family:sans-serif;font-size:13;" transform="matrix(1 0 0 1 263 726)">Small</text>
  <text style="stroke:none;fill:black;font-family:sans-serif;font-size:13;" transform="matrix(1 0 0 1 263 1156)">Medium</text>
  <text style="stroke:none;fill:black;font-family:sans-serif;font-size:13;" transform="matrix(1 0 0 1 263 1586)">Large</text>
 </g>
 <g id="Guides">
  <g id="H-reference" style="fill:#27AAE1;stroke:none;" transform="matrix(1 0 0 1 339 696)">
   <path d="M0.993654 0L3.63775 0L29.3281-67.1323L30.0303-67.1323L30.0303-70.459L28.1226-70.459ZM11.6885-24.4799L46.9815-24.4799L46.2315-26.7285L12.4385-26.7285ZM55.1196 0L57.7637 0L30.6382-70.459L29.4326-70.459L29.4326-67.1323Z"/>
  </g>
  <line id="Baseline-S" style="fill:none;stroke:#27AAE1;opacity:1;stroke-width:0.5;" x1="263" x2="3036" y1="696" y2="696"/>
  <line id="Capline-S" style="fill:none;stroke:#27AAE1;opacity:1;stroke-width:0.5;" x1="263" x2="3036" y1="625.541" y2="625.541"/>
  <g id="H-reference" style="fill:#27AAE1;stroke:none;" transform="matrix(1 0 0 1 339 1126)">
   <path d="M0.993654 0L3.63775 0L29.3281-67.1323L30.0303-67.1323L30.0303-70.459L28.1226-70.459ZM11.6885-24.4799L46.9815-24.4799L46.2315-26.7285L12.4385-26.7285ZM55.1196 0L57.7637 0L30.6382-70.459L29.4326-70.459L29.4326-67.1323Z"/>
  </g>
  <line id="Baseline-M" style="fill:none;stroke:#27AAE1;opacity:1;stroke-width:0.5;" x1="263" x2="3036" y1="1126" y2="1126"/>
  <line id="Capline-M" style="fill:none;stroke:#27AAE1;opacity:1;stroke-width:0.5;" x1="263" x2="3036" y1="1055.54" y2="1055.54"/>
  <g id="H-reference" style="fill:#27AAE1;stroke:none;" transform="matrix(1 0 0 1 339 1556)">
   <path d="M0.993654 0L3.63775 0L29.3281-67.1323L30.0303-67.1323L30.0303-70.459L28.1226-70.459ZM11.6885-24.4799L46.9815-24.4799L46.2315-26.7285L12.4385-26.7285ZM55.1196 0L57.7637 0L30.6382-70.459L29.4326-70.459L29.4326-67.1323Z"/>
  </g>
  <line id="Baseline-L" style="fill:none;stroke:#27AAE1;opacity:1;stroke-width:0.5;" x1="263" x2="3036" y1="1556" y2="1556"/>
  <line id="Capline-L" style="fill:none;stroke:#27AAE1;opacity:1;stroke-width:0.5;" x1="263" x2="3036" y1="1485.54" y2="1485.54"/>
  <line id="left-margin-Regular-M" style="fill:none;stroke:#00AEEF;stroke-width:0.5;opacity:1.0;" x1="1377.15" x2="1377.15" y1="1030.79" y2="1150.12"/>
  <line id="right-margin-Regular-M" style="fill:none;stroke:#00AEEF;stroke-width:0.5;opacity:1.0;" x1="1522.54" x2="1522.54" y1="1030.79" y2="1150.12"/>
 </g>
 <g id="Symbols">
  <g id="Black-L" transform="matrix(1 0 0 1 2833.12 1556)">
   <path d="M62.6576-78.9389C70.7839-78.9389 77.3471-85.5836 77.3471-93.6296C77.3471-101.756 70.7839-108.32 62.6576-108.32C54.5897-108.32 47.9669-101.756 47.9669-93.6296C47.9669-85.5836 54.5897-78.9389 62.6576-78.9389ZM142.638-81.6248C150.743-81.6248 157.329-88.2696 157.329-96.3155C157.329-104.441 150.743-111.026 142.638-111.026C134.57-111.026 127.948-104.441 127.948-96.3155C127.948-88.2696 134.57-81.6248 142.638-81.6248ZM23.5517-60.055L36.9399-59.0107C37.5761-58.9303 37.9262-58.5217 37.9262-57.8052L37.9262-32.9853C37.9262-27.7364 39.649-22.3927 42.8546-18.3257L58.8498 2.1658L50.681 29.2786C49.4031 33.5716 51.8784 38.1046 56.0314 39.2437C60.0467 40.44 64.6161 38.4835 65.9745 33.8701L74.7567 4.39932C74.8591 4.0712 74.9396 3.7055 74.998 3.37738L98.7101 33.4759C101.424 36.8711 106.615 37.4912 109.908 34.7174C113.325 31.8995 113.983 27.0084 111.266 23.6133L66.4934-33.0945L68.5003-52.6298C68.6027-53.4117 69.2446-53.667 69.8656-53.3169L85.2186-45.6526C86.3797-45.0324 88.5178-44.5135 90.277-44.5135L117.303-44.5135C119.063-44.5135 121.077-45.1921 122.436-46.3895L133.496-56.0399C134.095-56.5949 134.817-56.346 135.065-55.6458L141.017-39.2579L115.186-32.1101C111.953-31.2123 109.594-28.5541 109.236-25.1601L106.462 2.38439C105.943 7.63357 110.456 11.0508 114.369 11.0508C118.443 11.0508 121.859 8.03567 122.297 3.90234L124.553-17.5524L140.411-19.9535L132.299-3.74756C131.219-1.58745 130.619 0.968332 131.597 3.38409L144.051 34.5498C145.809 39.0024 150.681 40.5204 154.455 39.0024C158.448 37.4041 160.543 32.731 158.887 28.6012L148.009 1.48605L162.924-19.7489C166.99-25.4959 168.531-32.8465 167.289-39.6365L164.961-52.5197C164.815-53.3677 165.479-53.9667 166.384-53.6386L173.933-51.0895C180.088-48.9722 185.014-52.9811 184.415-59.1942L181.248-90.6208C180.808-95.0061 176.793-98.2505 172.524-97.7924C168.213-97.3343 164.914-93.2921 165.354-88.964L167.245-70.0779L150.206-75.7517C142.214-78.4164 133.584-76.9336 126.934-71.2254L114.369-60.4051L91.2917-60.4051L71.3695-70.3564C68.2235-71.9404 65.0399-72.8602 61.5151-73.1015L34.7947-75.1304L40.9266-93.4239C42.3642-97.6585 40.0873-102.229 35.8759-103.587C31.7802-104.887 27.2095-102.69 25.8512-98.5563L16.4641-70.5389C14.8073-65.5882 18.3413-60.435 23.5517-60.055Z"/>
  </g>
  <g id="Heavy-L" transform="matrix(1 0 0 1 2538.07 1556)">
   <path d="M61.6037-78.39C69.5017-78.39 75.8686-84.8429 75.8686-92.6605C75.8686-100.559 69.5017-106.931 61.6037-106.931C53.7503-106.931 47.3332-100.559 47.3332-92.6605C47.3332-84.8429 53.7503-78.39 61.6037-78.39ZM140.488-81.0594C148.356-81.0594 154.758-87.5122 154.758-95.3298C154.758-103.222 148.356-109.625 140.488-109.625C132.634-109.625 126.223-103.222 126.223-95.3298C126.223-87.5122 132.634-81.0594 140.488-81.0594ZM23.2131-60.181L36.5411-59.1412C37.2451-59.0607 37.6598-58.6015 37.6598-57.8171L37.6598-33.2019C37.6598-28.0623 39.3462-22.8692 42.4834-18.8888L58.3533 1.45103L50.2424 28.3492C49.0241 32.4453 51.3803 36.7771 55.3458 37.8703C59.1918 39.0027 63.5324 37.1377 64.8312 32.7256L73.6338 3.26661C73.75 2.88778 73.8304 2.4945 73.875 2.11567L97.6244 32.2393C100.211 35.4834 105.159 36.0854 108.287 33.4488C111.567 30.7407 112.183 26.0785 109.585 22.8344L65.3225-33.2284L67.3162-52.6716C67.4324-53.5869 68.217-53.948 68.9715-53.5334L84.2037-45.9408C85.3328-45.3389 87.3887-44.8475 89.084-44.8475L115.104-44.8475C116.8-44.8475 118.709-45.4941 120.008-46.632L130.997-56.1881C131.716-56.8351 132.581-56.5311 132.879-55.7018L138.859-39.2044L113.079-32.0919C110.001-31.2399 107.734-28.687 107.404-25.4485L104.614 2.54349C104.123 7.53627 108.43 10.8161 112.16 10.8161C116.051 10.8161 119.325 7.93837 119.736 3.99747L122.034-18.1887L138.377-20.6686L130.159-4.21529C129.11-2.12356 128.538 0.313113 129.471 2.61913L141.762 33.3777C143.451 37.6291 148.089 39.0831 151.694 37.6291C155.504 36.0947 157.494 31.6323 155.915 27.7082L145.123 0.798845L159.944-20.2893C163.919-25.8901 165.414-33.0769 164.204-39.712L161.889-52.4926C161.707-53.5153 162.527-54.2339 163.589-53.8551L171.098-51.3287C177.006-49.3029 181.671-53.0918 181.099-59.044L177.982-90.0684C177.566-94.3011 173.72-97.364 169.671-96.9285C165.555-96.493 162.399-92.6831 162.816-88.4894L164.726-69.4474L147.522-75.1775C139.698-77.7875 131.287-76.3368 124.783-70.756L112.307-60.0024L90.0252-60.0024L70.3055-69.85C67.2186-71.4114 64.1172-72.2992 60.6696-72.5405L33.9526-74.5699L40.1182-92.9504C41.4918-97.0019 39.3108-101.348 35.3007-102.647C31.3743-103.901 27.028-101.795 25.7293-97.854L16.4503-70.1935C14.8713-65.481 18.2404-60.5473 23.2131-60.181Z"/>
  </g>
  <g id="Bold-L" transform="matrix(1 0 0 1 2243.48 1556)">
   <path d="M60.3124-77.669C67.9336-77.669 74.0621-83.8912 74.0621-91.432C74.0621-99.0532 67.9336-105.195 60.3124-105.195C52.7203-105.195 46.5494-99.0532 46.5494-91.432C46.5494-83.8912 52.7203-77.669 60.3124-77.669ZM137.665-80.293C145.248-80.293 151.428-86.5151 151.428-94.0559C151.428-101.664 145.248-107.844 137.665-107.844C130.073-107.844 123.915-101.664 123.915-94.0559C123.915-86.5151 130.073-80.293 137.665-80.293ZM22.8129-60.223L36.012-59.1907C36.808-59.1103 37.2921-58.597 37.2921-57.7206L37.2921-33.4336C37.2921-28.4322 38.9324-23.4235 41.9851-19.5507L57.6641 0.55242L49.6447 27.1221C48.4957 30.9873 50.7134 35.0805 54.4557 36.1199C58.1017 37.1753 62.1729 35.4182 63.4023 31.2445L72.1982 1.89781C72.3299 1.46491 72.4103 1.0408 72.4395 0.607902L96.1531 30.658C98.5855 33.725 103.249 34.3039 106.184 31.829C109.303 29.2517 109.873 24.8588 107.414 21.7918L63.8629-33.3676L65.8337-52.6433C65.9653-53.7052 66.9043-54.1821 67.8054-53.698L82.8542-46.2124C83.9448-45.6335 85.9008-45.173 87.5191-45.173L112.339-45.173C113.958-45.173 115.744-45.7811 116.974-46.8497L127.848-56.2681C128.698-57.0155 129.718-56.6498 130.07-55.6816L136.066-39.1204L110.421-32.0689C107.529-31.2707 105.369-28.841 105.07-25.7872L102.273 2.60905C101.812 7.30161 105.881 10.4199 109.395 10.4199C113.07 10.4199 116.175 7.70371 116.555 3.98612L118.892-18.9354L135.723-21.4927L127.411-4.82149C126.401-2.81429 125.86-0.516202 126.738 1.65903L138.807 31.8659C140.412 35.8787 144.78 37.2558 148.185 35.8787C151.78 34.4212 153.647 30.2051 152.16 26.5272L141.497-0.0689264L156.166-20.9206C160.026-26.3445 161.467-33.324 160.296-39.767L158.004-52.3872C157.783-53.6027 158.773-54.4526 160.004-54.0197L167.445-51.5239C173.06-49.6059 177.418-53.1406 176.877-58.785L173.829-89.2579C173.435-93.3358 169.789-96.1609 166.002-95.7561C162.125-95.3512 159.123-91.8331 159.517-87.7712L161.442-68.619L144.113-74.3959C136.504-76.9368 128.362-75.5245 122.042-70.105L109.704-59.4583L88.3757-59.4583L68.9468-69.1604C65.9365-70.6911 62.9351-71.5405 59.5872-71.7817L32.9598-73.8038L39.1416-92.2173C40.4382-96.0533 38.3726-100.138 34.6011-101.367C30.8747-102.567 26.7903-100.569 25.5608-96.8515L16.4349-69.6813C14.9482-65.246 18.1248-60.5739 22.8129-60.223Z"/>
  </g>
  <g id="Semibold-L" transform="matrix(1 0 0 1 1948.22 1556)">
   <path d="M59.4221-77.172C66.8525-77.172 72.8167-83.235 72.8167-90.585C72.8167-98.0154 66.8525-103.998 59.4221-103.998C52.0103-103.998 46.0091-98.0154 46.0091-90.585C46.0091-83.235 52.0103-77.172 59.4221-77.172ZM135.719-79.7647C143.106-79.7647 149.132-85.8278 149.132-93.1777C149.132-100.59 143.106-106.616 135.719-106.616C128.307-106.616 122.325-100.59 122.325-93.1777C122.325-85.8278 128.307-79.7647 135.719-79.7647ZM22.5371-60.2519L35.6473-59.2249C36.5066-59.1445 37.0386-58.5939 37.0386-57.6541L37.0386-33.5933C37.0386-28.6871 38.6472-23.8057 41.6416-20.007L57.1889-0.0670766L49.2327 26.2762C48.1315 29.9822 50.2536 33.9109 53.8421 34.9132C57.3501 35.9156 61.2356 34.2327 62.4173 30.2235L71.2086 0.95416C71.3509 0.483995 71.4313 0.0386225 71.4499-0.431542L95.1387 29.5678C97.4651 32.5128 101.932 33.0758 104.735 30.7124C107.742 28.2252 108.28 24.018 105.917 21.073L62.8566-33.4635L64.8116-52.6238C64.9539-53.7868 65.9993-54.3435 67.0014-53.8115L81.9238-46.3996C82.988-45.8366 84.8751-45.3974 86.4404-45.3974L110.433-45.3974C111.999-45.3974 113.7-45.979 114.882-46.9998L125.678-56.3233C126.618-57.1399 127.744-56.7316 128.133-55.6676L134.141-39.0625L108.59-32.053C105.824-31.292 103.739-28.9472 103.461-26.0207L100.658 2.65425C100.219 7.13984 104.123 10.1467 107.488 10.1467C111.015 10.1467 114.003 7.54194 114.362 3.9783L116.726-19.4501L133.893-22.0609L125.516-5.2394C124.533-3.29047 124.013-1.08793 124.854 0.997139L136.77 30.8236C138.317 34.672 142.499 35.996 145.766 34.672C149.212 33.2675 150.994 29.2212 149.571 25.713L138.998-0.667163L153.562-21.3558C157.342-26.6578 158.746-33.4943 157.602-39.8049L155.325-52.3146C155.077-53.6631 156.185-54.6033 157.533-54.1331L164.926-51.6585C170.34-49.8148 174.485-53.1743 173.966-58.6065L170.965-88.6991C170.588-92.6703 167.08-95.3315 163.473-94.9478C159.76-94.5641 156.865-91.2472 157.242-87.276L159.179-68.0479L141.763-73.8571C134.302-76.3504 126.346-74.9646 120.153-69.6562L107.909-59.0831L87.2385-59.0831L68.01-68.685C65.0527-70.1945 62.1202-71.0174 58.841-71.2587L32.2754-73.2756L38.4683-91.7119C39.7119-95.3994 37.7258-99.3034 34.1187-100.485C30.5303-101.648 26.6263-99.724 25.4446-96.1604L16.4242-69.3282C15.0012-65.084 18.0452-60.5922 22.5371-60.2519Z"/>
  </g>
  <g id="Medium-L" transform="matrix(1 0 0 1 1652.62 1556)">
   <path d="M58.7471-76.7951C66.0328-76.7951 71.8724-82.7375 71.8724-89.9428C71.8724-97.2285 66.0328-103.091 58.7471-103.091C51.4719-103.091 45.5994-97.2285 45.5994-89.9428C45.5994-82.7375 51.4719-76.7951 58.7471-76.7951ZM134.244-79.3641C141.482-79.3641 147.391-85.3066 147.391-92.5118C147.391-99.7751 141.482-105.685 134.244-105.685C126.968-105.685 121.118-99.7751 121.118-92.5118C121.118-85.3066 126.968-79.3641 134.244-79.3641ZM22.3279-60.2738L35.3707-59.2508C36.2781-59.1704 36.8464-58.5916 36.8464-57.6037L36.8464-33.7144C36.8464-28.8805 38.4309-24.0955 41.3811-20.353L56.8286-0.536804L48.9203 25.6347C47.8553 29.22 49.9049 33.0241 53.3768 33.9982C56.7803 34.9604 60.525 33.3338 61.6704 29.4493L70.4582 0.238647C70.6086-0.259776 70.689-0.721269 70.6995-1.21969L94.3696 28.7412C96.6156 31.5936 100.934 32.1446 103.636 29.8656C106.558 27.4468 107.072 23.3805 104.781 20.528L62.0936-33.5362L64.0367-52.6091C64.187-53.8486 65.3132-54.4658 66.3919-53.8975L81.2184-46.5416C82.2624-45.9906 84.0973-45.5675 85.6224-45.5675L108.988-45.5675C110.513-45.5675 112.15-46.129 113.296-47.1136L124.032-56.3652C125.04-57.2341 126.247-56.7937 126.665-55.657L132.681-39.0186L107.201-32.041C104.532-31.3081 102.503-29.0277 102.241-26.1977L99.4339 2.68852C99.0107 7.01718 102.79 9.93953 106.043 9.93953C109.457 9.93953 112.357 7.41928 112.699 3.97236L115.083-19.8404L132.506-22.4916L124.08-5.55627C123.116-3.65153 122.613-1.52143 123.426 0.495268L135.226 30.0333C136.728 33.757 140.77 35.0408 143.932 33.757C147.266 32.3927 148.983 28.4752 147.608 25.0957L137.103-1.12077L151.587-21.6857C155.307-26.8953 156.683-33.6235 155.559-39.8336L153.294-52.2595C153.026-53.7088 154.222-54.7176 155.659-54.2192L163.017-51.7606C168.278-49.9732 172.262-53.1999 171.758-58.4711L168.794-88.2754C168.429-92.1657 165.025-94.7026 161.555-94.3349C157.967-93.9672 155.153-90.8029 155.518-86.9006L157.462-67.6149L139.981-73.4485C132.632-75.9057 124.817-74.54 118.72-69.3159L106.548-58.7987L86.3763-58.7987L67.2997-68.3245C64.3825-69.818 61.5022-70.6208 58.2753-70.8621L31.7565-72.8751L37.9578-91.3287C39.1612-94.9035 37.2354-98.6707 33.753-99.8161C30.2692-100.951 26.502-99.0833 25.3565-95.6364L16.4162-69.0605C15.0414-64.9611 17.9848-60.606 22.3279-60.2738Z"/>
  </g>
  <g id="Regular-L" transform="matrix(1 0 0 1 1357.35 1556)">
   <path d="M57.8666-76.3035C64.9636-76.3035 70.6407-82.0886 70.6407-89.1051C70.6407-96.2021 64.9636-101.907 57.8666-101.907C50.7697-101.907 45.065-96.2021 45.065-89.1051C45.065-82.0886 50.7697-76.3035 57.8666-76.3035ZM132.319-78.8416C139.363-78.8416 145.121-84.6267 145.121-91.6433C145.121-98.7126 139.363-104.47 132.319-104.47C125.222-104.47 119.545-98.7126 119.545-91.6433C119.545-84.6267 125.222-78.8416 132.319-78.8416ZM22.0551-60.3025L35.0099-59.2847C35.9801-59.2042 36.5958-58.5885 36.5958-57.538L36.5958-33.8724C36.5958-29.1327 38.1489-24.4734 41.0414-20.8043L56.3587-1.14949L48.5128 24.7981C47.495 28.2259 49.4502 31.8674 52.77 32.8048C56.037 33.7145 59.598 32.1614 60.6962 28.4395L69.4795-0.69463C69.6403-1.22991 69.7207-1.71243 69.7207-2.24772L93.3663 27.663C95.5075 30.3947 99.6315 30.93 102.202 28.7612C105.014 26.4316 105.497 22.5489 103.301 19.8172L61.0983-33.6311L63.0259-52.5898C63.1867-53.9293 64.4181-54.6254 65.5968-54.0097L80.2983-46.7268C81.3161-46.1915 83.0828-45.7894 84.5555-45.7894L107.103-45.7894C108.576-45.7894 110.129-46.3247 111.227-47.2621L121.885-56.4197C122.983-57.3571 124.295-56.8746 124.75-55.6432L130.776-38.9614L105.389-32.0252C102.846-31.3291 100.891-29.1327 100.649-26.4286L97.8371 2.73322C97.435 6.85719 101.051 9.66934 104.158 9.66934C107.425 9.66934 110.209 7.25929 110.531 3.96463L112.941-20.3495L130.696-23.0535L122.206-5.96959C121.269-4.12248 120.787-2.08688 121.563-0.159347L133.211 29.0025C134.656 32.5635 138.514 33.7949 141.54 32.5635C144.726 31.2517 146.36 27.5022 145.048 24.2905L134.631-1.71243L149.011-22.1161C152.652-27.2052 153.992-33.7919 152.894-39.8711L150.645-52.1877C150.351-53.7684 151.662-54.8667 153.215-54.3314L160.526-51.8937C165.587-50.1798 169.362-53.2332 168.879-58.2945L165.962-87.7227C165.612-91.5075 162.345-93.8823 159.053-93.5355C155.628-93.1887 152.919-90.2234 153.268-86.4109L155.223-67.0501L137.657-72.9156C130.454-75.3257 122.822-73.9862 116.851-68.8721L104.773-58.4277L85.2516-58.4277L66.3733-67.8543C63.5084-69.3269 60.6962-70.1035 57.5373-70.3447L31.0796-72.3527L37.2919-90.8289C38.4429-94.2567 36.5958-97.8454 33.276-98.9436C29.9286-100.042 26.3399-98.2475 25.2417-94.9529L16.4057-68.7112C15.0938-64.8009 17.906-60.6241 22.0551-60.3025Z"/>
  </g>
  <g id="Light-L" transform="matrix(1 0 0 1 1062.46 1556)">
   <path d="M57.0651-75.5401C64.0093-75.5401 69.5528-81.2107 69.5528-88.0745C69.5528-95.0188 64.0093-100.609 57.0651-100.609C50.1208-100.609 44.5306-95.0188 44.5306-88.0745C44.5306-81.2107 50.1208-75.5401 57.0651-75.5401ZM129.342-77.8873C136.252-77.8873 141.876-83.558 141.876-90.4218C141.876-97.3194 136.252-102.943 129.342-102.943C122.397-102.943 116.854-97.3194 116.854-90.4218C116.854-83.558 122.397-77.8873 129.342-77.8873ZM21.9024-59.5963L34.4183-58.5976C35.5029-58.5172 36.0996-57.9206 36.0996-56.7555L36.0996-33.796C36.0996-29.1709 37.6145-24.6261 40.4498-21.0333L55.4044-1.85565L47.7494 23.4621C46.7507 26.8136 48.6677 30.3597 51.8921 31.278C55.0827 32.1495 58.5483 30.6346 59.6275 27.0081L68.2008-1.41987C68.3616-1.93607 68.442-2.41859 68.442-2.93479L91.5342 26.2507C93.5989 28.9252 97.6275 29.4414 100.141 27.3298C102.896 25.0575 103.379 21.2702 101.22 18.5957L60.0296-33.5548L61.8998-52.0554C62.0607-53.3758 63.2539-54.0528 64.4135-53.4562L78.7715-46.3642C79.7702-45.848 81.4796-45.4459 82.9141-45.4459L104.927-45.4459C106.362-45.4459 107.877-45.9621 108.956-46.8804L119.366-55.809C120.445-56.7273 121.718-56.2448 122.154-55.0516L128.066-38.7896L103.251-32.0062C100.784-31.3291 98.8675-29.1709 98.6262-26.5431L95.8713 1.93164C95.4692 5.96018 99.0283 8.71508 102.058 8.71508C105.249 8.71508 107.957 6.36228 108.279 3.12487L110.631-20.5976L127.986-23.2253L119.687-6.56123C118.769-4.77138 118.286-2.77395 119.044-0.903673L130.406 27.5711C131.793 31.0367 135.594 32.2299 138.543 31.0367C141.654 29.763 143.249 26.0899 141.975 22.9927L131.807-2.41859L145.843-22.307C149.389-27.3006 150.709-33.7156 149.63-39.6612L147.438-51.6533C147.163-53.215 148.437-54.2941 149.952-53.7779L157.091-51.3784C162.037-49.7026 165.698-52.6988 165.215-57.6456L162.393-86.3486C162.024-90.2479 158.834-92.3745 155.656-92.0659C152.364-91.7573 149.617-89.021 149.986-85.0749L151.903-66.1722L134.756-71.9232C127.744-74.276 120.284-72.9556 114.465-67.9751L102.655-57.7597L83.5912-57.7597L65.1709-66.9764C62.3824-68.4109 59.6275-69.1683 56.564-69.4096L30.7169-71.3603L36.7766-89.3784C37.8894-92.7299 36.0996-96.2423 32.8752-97.3214C29.6041-98.4005 26.0918-96.6444 25.0126-93.4069L16.4057-67.8142C15.132-63.9802 17.8869-59.918 21.9024-59.5963Z"/>
  </g>
  <g id="Thin-L" transform="matrix(1 0 0 1 768.16 1556)">
   <path d="M56.0049-74.5304C62.7472-74.5304 68.114-80.0496 68.114-86.7115C68.114-93.4538 62.7472-98.8926 56.0049-98.8926C49.2626-98.8926 43.8238-93.4538 43.8238-86.7115C43.8238-80.0496 49.2626-74.5304 56.0049-74.5304ZM125.404-76.6253C132.138-76.6253 137.585-82.1444 137.585-88.8063C137.585-95.4767 132.138-100.924 125.404-100.924C118.662-100.924 113.295-95.4767 113.295-88.8063C113.295-82.1444 118.662-76.6253 125.404-76.6253ZM21.7004-58.6624L33.6358-57.6889C34.8719-57.6085 35.4433-57.0371 35.4433-55.7206L35.4433-33.695C35.4433-29.2213 36.9077-24.828 39.6673-21.3362L54.1423-2.7896L46.7397 21.6952C45.7663 24.9457 47.6328 28.3656 50.7309 29.2586C53.8206 30.0797 57.16 28.6152 58.2139 25.115L66.5096-2.37906C66.6704-2.87002 66.7508-3.35254 66.7508-3.84349L89.1109 24.3828C91.0748 26.9815 94.9771 27.4725 97.415 25.4367C100.094 23.24 100.577 19.579 98.4689 16.9802L58.616-33.4538L60.4106-51.3486C60.5714-52.6438 61.7142-53.2956 62.8485-52.7242L76.7521-45.8846C77.7256-45.3936 79.3593-44.9915 80.7433-44.9915L102.05-44.9915C103.434-44.9915 104.898-45.4825 105.952-46.3755L116.034-55.0013C117.088-55.8943 118.311-55.4118 118.721-54.2691L124.482-38.5624L100.424-31.9809C98.0584-31.3291 96.1918-29.2213 95.9506-26.6946L93.2714 0.871482C92.8693 4.77382 96.3527 7.45298 99.2815 7.45298C102.371 7.45298 104.978 5.17592 105.3 2.01423L107.577-20.9257L124.401-23.4525L116.355-7.34373C115.462-5.6296 114.98-3.68265 115.712-1.8881L126.695 25.678C128.007 29.0173 131.732 30.1601 134.58 29.0173C137.59 27.7942 139.134 24.222 137.911 21.2762L128.071-3.35254L141.653-22.5594C145.073-27.4268 146.368-33.6146 145.314-39.3835L143.198-50.9465C142.948-52.483 144.171-53.5368 145.636-53.0459L152.547-50.6968C157.343-49.0716 160.851-51.992 160.369-56.7874L157.673-84.5312C157.279-88.582 154.189-90.3804 151.163-90.1223C148.048-89.8642 145.25-87.4308 145.644-83.308L147.51-65.011L130.919-70.6106C124.16-72.8877 116.927-71.5925 111.31-66.7887L99.8529-56.8762L81.3951-56.8762L63.5807-65.8152C60.8931-67.1992 58.2139-67.9315 55.2766-68.1727L30.2373-70.0477L36.0951-87.46C37.1574-90.7106 35.4433-94.1219 32.3451-95.1758C29.175-96.2297 25.7636-94.524 24.7097-91.3624L16.4057-66.6279C15.1825-62.8948 17.8617-58.984 21.7004-58.6624Z"/>
  </g>
  <g id="Ultralight-L" transform="matrix(1 0 0 1 472.683 1556)">
   <path d="M55.4619-74.0132C62.1008-74.0132 67.3771-79.4548 67.3771-86.0133C67.3771-92.6522 62.1008-98.0134 55.4619-98.0134C48.823-98.0134 43.4618-92.6522 43.4618-86.0133C43.4618-79.4548 48.823-74.0132 55.4619-74.0132ZM123.387-75.9788C130.031-75.9788 135.387-81.4204 135.387-87.9789C135.387-94.5329 130.031-99.8896 123.387-99.8896C116.748-99.8896 111.472-94.5329 111.472-87.9789C111.472-81.4204 116.748-75.9788 123.387-75.9788ZM21.597-58.184L33.235-57.2234C34.5487-57.143 35.1071-56.5846 35.1071-55.1905L35.1071-33.6433C35.1071-29.2472 36.5457-24.9315 39.2665-21.4914L53.4959-3.26796L46.2226 20.7902C45.262 23.989 47.1027 27.3442 50.1362 28.2243C53.1742 29.0195 56.449 27.581 57.4899 24.1454L65.6433-2.87035C65.8042-3.34838 65.8846-3.8309 65.8846-4.30893L87.8698 23.4261C89.7819 25.986 93.6196 26.4641 96.0187 24.467C98.6591 22.3092 99.1416 18.7127 97.0597 16.1528L57.892-33.4021L59.6478-50.9866C59.8086-52.2689 60.9255-52.9077 62.0469-52.3493L75.7178-45.6389C76.6784-45.1609 78.2733-44.7588 79.6315-44.7588L100.576-44.7588C101.934-44.7588 103.372-45.2368 104.413-46.117L114.327-54.5876C115.368-55.4677 116.565-54.9852 116.963-53.8683L122.646-38.4461L98.9763-31.968C96.6621-31.3291 94.8214-29.2472 94.5801-26.7721L91.9398 0.328475C91.5377 4.16617 94.9822 6.80655 97.8594 6.80655C100.897 6.80655 103.453 4.56827 103.775 1.44537L106.013-21.0938L122.565-23.5688L114.649-7.74452C113.769-6.06918 113.286-4.14809 114.005-2.39232L124.795 24.7083C126.068 27.983 129.754 29.0999 132.55 27.983C135.508 26.7857 137.027 23.2652 135.83 20.3971L126.157-3.8309L139.507-22.6887C142.862-27.4914 144.144-33.5629 143.103-39.2413L141.026-50.5845C140.789-52.108 141.986-53.149 143.425-52.671L150.22-50.3478C154.938-48.7484 158.369-51.63 157.886-56.3478L155.255-83.6003C154.848-87.7287 151.81-89.3591 148.862-89.1268C145.837-88.8945 143.014-86.6163 143.42-82.403L145.261-64.4163L128.954-69.9383C122.324-72.1766 115.207-70.8944 109.694-66.1811L98.4178-56.4237L80.2703-56.4237L62.7662-65.2205C60.1303-66.5787 57.4899-67.298 54.6173-67.5392L29.9917-69.3754L35.746-86.4774C36.7825-89.6763 35.1071-93.0359 32.0736-94.0769C28.9552-95.1179 25.5956-93.438 24.5546-90.3151L16.4057-66.0202C15.2084-62.3389 17.8487-58.5057 21.597-58.184Z"/>
  </g>
  <g id="Black-M" transform="matrix(1 0 0 1 2854.53 1126)">
   <path d="M49.3406-69.4612C55.8119-69.4612 61.0473-74.7586 61.0473-81.1677C61.0473-87.639 55.8119-92.8741 49.3406-92.8741C42.9264-92.8741 37.6342-87.639 37.6342-81.1677C37.6342-74.7586 42.9264-69.4612 49.3406-69.4612ZM111.952-71.5305C118.418-71.5305 123.658-76.8279 123.658-83.237C123.658-89.7086 118.418-94.9492 111.952-94.9492C105.538-94.9492 100.245-89.7086 100.245-83.237C100.245-76.8279 105.538-71.5305 111.952-71.5305ZM18.5168-54.2588L28.8815-53.4486C29.3316-53.3863 29.5448-53.1159 29.5448-52.6036L29.5448-33.2943C29.5448-29.1494 30.9056-24.8956 33.4402-21.6806L45.8908-5.73917L39.5381 15.3654C38.4995 18.8502 40.5145 22.5222 43.8801 23.4414C47.1261 24.418 50.85 22.8288 51.9509 19.0945L58.709-3.65217C58.7765-3.8602 58.8388-4.11983 58.8959-4.32786L77.1596 18.8708C79.362 21.6233 83.5791 22.1168 86.2641 19.8576C89.0218 17.5879 89.5669 13.6148 87.365 10.8624L52.3767-33.4499L53.9351-48.602C54.0026-49.0905 54.372-49.1947 54.7359-48.9815L66.6879-43.0078C67.6123-42.5143 69.3317-42.0886 70.7444-42.0886L92.4748-42.0886C93.8876-42.0886 95.5339-42.6392 96.6349-43.6155L105.231-51.1422C105.59-51.4904 106.022-51.345 106.167-50.9185L110.738-38.3732L90.761-32.8258C88.1328-32.0935 86.2321-29.9488 85.931-27.196L83.8014-6.33378C83.3756-2.05958 87.0419 0.698105 90.2203 0.698105C93.5234 0.698105 96.2814-1.74806 96.6448-5.10796L98.3487-21.021L110.162-22.8031L103.996-10.5173C103.134-8.79275 102.646-6.71549 103.441-4.75735L113.19 19.6448C114.603 23.2545 118.571 24.4803 121.63 23.2545C124.87 21.9664 126.579 18.1753 125.234 14.8145L116.767-6.28949L128.356-22.7975C131.571-27.3625 132.802-33.1749 131.815-38.5505L130.007-48.5759C129.929-49.0801 130.304-49.4387 130.865-49.2307L136.724-47.2416C141.689-45.5277 145.715-48.8149 145.227-53.8371L142.743-78.4319C142.38-81.9762 139.134-84.6121 135.654-84.2429C132.163-83.8737 129.48-80.5736 129.843-77.0867L131.287-62.6509L118.285-66.9829C111.974-69.0864 105.123-67.9128 99.8664-63.399L90.091-54.9897L71.5909-54.9897L56.0444-62.7601C53.5667-64.0015 51.0374-64.739 48.2531-64.9259L27.6314-66.4896L32.3326-80.5256C33.4961-83.9533 31.6574-87.6769 28.2346-88.7778C24.9263-89.8216 21.2027-88.0455 20.1018-84.6856L12.7673-62.7605C11.422-58.7306 14.2939-54.5651 18.5168-54.2588Z"/>
  </g>
  <g id="Heavy-M" transform="matrix(1 0 0 1 2559.27 1126)">
   <path d="M48.3843-68.9951C54.6465-68.9951 59.7023-74.1155 59.7023-80.3154C59.7023-86.5777 54.6465-91.6357 48.3843-91.6357C42.1657-91.6357 37.064-86.5777 37.064-80.3154C37.064-74.1155 42.1657-68.9951 48.3843-68.9951ZM110.125-71.0658C116.371-71.0658 121.445-76.1862 121.445-82.3861C121.445-88.6461 116.371-93.7205 110.125-93.7205C103.906-93.7205 98.8068-88.6461 98.8068-82.3861C98.8068-76.1862 103.906-71.0658 110.125-71.0658ZM18.1999-54.4472L28.5462-53.6395C29.052-53.5772 29.3301-53.2555 29.3301-52.6874L29.3301-33.5131C29.3301-29.4644 30.6589-25.3472 33.1318-22.2099L45.4935-6.37276L39.1799 14.5801C38.1977 17.8795 40.0997 21.3635 43.2909 22.2397C46.3785 23.1573 49.8874 21.6541 50.9319 18.1077L57.7292-4.69256C57.8102-4.95193 57.8725-5.23852 57.9161-5.49789L76.2674 17.7923C78.3518 20.4024 82.3405 20.8798 84.8696 18.7495C87.4983 16.5819 88.003 12.8237 85.914 10.2136L51.3307-33.5879L52.8815-48.6921C52.9625-49.3128 53.4749-49.5223 53.971-49.2442L65.8365-43.3231C66.7315-42.8456 68.3758-42.4468 69.7295-42.4468L90.526-42.4468C91.8797-42.4468 93.4266-42.9679 94.4711-43.8878L103.021-51.3433C103.498-51.7833 104.073-51.584 104.27-51.0279L108.879-38.3367L88.8981-32.8098C86.4149-32.1205 84.6001-30.0751 84.326-27.4674L82.1771-6.1043C81.7783-2.07195 85.2482 0.556788 88.2547 0.556788C91.3859 0.556788 94.0124-1.76043 94.3488-4.93749L96.099-21.6202L108.425-23.4864L102.136-10.92C101.303-9.25698 100.842-7.29263 101.594-5.43648L111.211 18.6311C112.562 22.0528 116.306 23.2196 119.207 22.0528C122.276 20.8237 123.885 17.2315 122.612 14.0612L114.206-6.89614L125.735-23.3081C128.87-27.7392 130.058-33.4072 129.1-38.6436L127.3-48.5987C127.184-49.2754 127.716-49.7528 128.434-49.4934L134.27-47.5229C139.004-45.895 142.785-48.9724 142.324-53.7501L139.88-78.0188C139.541-81.4032 136.454-83.8846 133.178-83.534C129.867-83.1834 127.326-80.0891 127.665-76.746L129.131-62.1155L115.929-66.513C109.764-68.5685 103.112-67.4244 97.9837-63.0228L88.2711-54.6577L70.5061-54.6577L55.1153-62.346C52.6882-63.5689 50.234-64.2769 47.5163-64.4638L26.8417-66.0333L31.5898-80.1965C32.6943-83.4523 30.9441-86.9635 27.7093-88.008C24.5594-89.0089 21.0482-87.3187 20.0037-84.1416L12.7538-62.5056C11.481-58.7015 14.197-54.74 18.1999-54.4472Z"/>
  </g>
  <g id="Bold-M" transform="matrix(1 0 0 1 2264.19 1126)">
   <path d="M47.3145-68.4737C53.3429-68.4737 58.1978-73.3961 58.1978-79.3621C58.1978-85.3904 53.3429-90.2504 47.3145-90.2504C41.3148-90.2504 36.4262-85.3904 36.4262-79.3621C36.4262-73.3961 41.3148-68.4737 47.3145-68.4737ZM108.081-70.546C114.081-70.546 118.969-75.4683 118.969-81.4343C118.969-87.4575 114.081-92.3461 108.081-92.3461C102.081-92.3461 97.1977-87.4575 97.1977-81.4343C97.1977-75.4683 102.081-70.546 108.081-70.546ZM17.8454-54.6579L28.1712-53.8531C28.7394-53.7908 29.0899-53.4117 29.0899-52.7811L29.0899-33.7579C29.0899-29.8168 30.3828-25.8524 32.7869-22.8019L45.049-7.08153L38.779 13.7016C37.86 16.7936 39.6358 20.0673 42.6318 20.8955C45.5421 21.7471 48.8106 20.34 49.792 17.0039L56.6332-5.85639C56.7292-6.17319 56.7915-6.48993 56.8201-6.80673L75.2692 16.5858C77.2216 19.0366 80.9549 19.4961 83.3096 17.51C85.7941 15.4565 86.2535 11.9387 84.2909 9.48793L50.1606-33.7423L51.7028-48.7929C51.7989-49.5614 52.4714-49.8887 53.1154-49.5381L64.8842-43.6757C65.7461-43.2161 67.3065-42.8475 68.5942-42.8475L88.3459-42.8475C89.6336-42.8475 91.0693-43.3356 92.0506-44.1923L100.548-51.5683C101.158-52.111 101.893-51.8514 102.148-51.1503L106.8-38.2959L86.8142-32.7919C84.4932-32.1506 82.7745-30.2165 82.5305-27.7709L80.36-5.84759C79.9914-2.0858 83.2417 0.398704 86.0559 0.398704C88.9948 0.398704 91.4741-1.77427 91.7805-4.74679L93.5823-22.2905L106.481-24.2508L100.055-11.3704C99.2555-9.77628 98.8246-7.93824 99.5281-6.19619L108.997 17.4971C110.279 20.7086 113.774 21.8094 116.497 20.7086C119.373 19.5455 120.871 16.1757 119.68 13.2186L111.341-7.57476L122.803-23.8794C125.848-28.1604 126.988-33.6671 126.064-38.7478L124.272-48.6241C124.114-49.4939 124.82-50.1041 125.714-49.7873L131.524-47.8376C136-46.3059 139.507-49.1486 139.076-53.6529L136.677-77.5566C136.366-80.7622 133.456-83.0708 130.408-82.741C127.297-82.4112 124.917-79.5472 125.228-76.3649L126.719-61.5167L113.293-65.9875C107.293-67.9891 100.862-66.878 95.8777-62.602L86.2352-54.2862L69.2925-54.2862L54.0759-61.8828C51.7055-63.0849 49.3352-63.7599 46.6922-63.9468L25.9583-65.5228L30.7589-79.8284C31.7974-82.8919 30.1462-86.1656 27.1216-87.1469C24.1491-88.0997 20.8753-86.5056 19.894-83.5331L12.7387-62.2205C11.5471-58.669 14.0886-54.9357 17.8454-54.6579Z"/>
  </g>
  <g id="Semibold-M" transform="matrix(1 0 0 1 1968.6 1126)">
   <path d="M46.5771-68.1143C52.4441-68.1143 57.1605-72.9001 57.1605-78.7049C57.1605-84.5719 52.4441-89.2954 46.5771-89.2954C40.7281-89.2954 35.9865-84.5719 35.9865-78.7049C35.9865-72.9001 40.7281-68.1143 46.5771-68.1143ZM106.672-70.1876C112.502-70.1876 117.262-74.9734 117.262-80.7782C117.262-86.6381 112.502-91.3986 106.672-91.3986C100.823-91.3986 96.0883-86.6381 96.0883-80.7782C96.0883-74.9734 100.823-70.1876 106.672-70.1876ZM17.601-54.8032L27.9126-54.0003C28.5238-53.938 28.9243-53.5193 28.9243-52.8458L28.9243-33.9267C28.9243-30.0598 30.1925-26.2007 32.5491-23.2101L44.7426-7.57014L38.5027 13.0959C37.6273 16.0449 39.3159 19.1738 42.1774 19.9688C44.9655 20.7749 48.0683 19.434 49.0061 16.2429L55.8776-6.65872C55.984-7.01512 56.0463-7.35264 56.0645-7.70904L74.5812 15.7541C76.4425 18.095 79.9996 18.5421 82.2341 16.6555C84.6192 14.6806 85.0475 11.3286 83.1719 8.98764L49.3539-33.8487L50.8902-48.8624C50.9967-49.7329 51.7796-50.1412 52.5255-49.7407L64.2277-43.9188C65.0668-43.4716 66.5693-43.1238 67.8115-43.1238L86.8429-43.1238C88.0851-43.1238 89.4441-43.5891 90.3819-44.4023L98.8434-51.7235C99.5452-52.3369 100.39-52.0357 100.685-51.2346L105.367-38.2678L85.3775-32.7795C83.1683-32.1714 81.516-30.314 81.2927-27.9802L79.1074-5.67062C78.7596-2.09534 81.8584 0.289722 84.5401 0.289722C87.3463 0.289722 89.7243-1.78382 90.0098-4.61533L91.8473-22.7526L105.141-24.7777L98.6206-11.6809C97.8437-10.1343 97.4336-8.38332 98.104-6.71993L107.47 16.7153C108.705 19.7819 112.027 20.8372 114.629 19.7819C117.373 18.6643 118.794 15.4479 117.658 12.6377L109.365-8.04259L120.782-24.2732C123.765-28.4509 124.872-33.8462 123.971-38.8197L122.185-48.6416C121.997-49.6446 122.824-50.3463 123.838-49.9899L129.631-48.0545C133.929-46.5891 137.248-49.27 136.838-53.5858L134.469-77.238C134.177-80.3203 131.389-82.5097 128.498-82.1943C125.526-81.8788 123.256-79.1735 123.549-76.1022L125.056-61.1039L111.476-65.6251C105.59-67.5897 99.3116-66.5013 94.4258-62.3119L84.8317-54.0302L68.4559-54.0302L53.3593-61.5635C51.028-62.7512 48.7156-63.4035 46.124-63.5904L25.3493-65.1708L30.1861-79.5746C31.1791-82.5055 29.5961-85.6154 26.7165-86.5532C23.8661-87.4729 20.7562-85.9451 19.8184-83.1136L12.7283-62.0239C11.5926-58.6465 14.0139-55.0705 17.601-54.8032Z"/>
  </g>
  <g id="Medium-M" transform="matrix(1 0 0 1 1672.75 1126)">
   <path d="M46.0179-67.8418C51.7627-67.8418 56.374-72.524 56.374-78.2065C56.374-83.9513 51.7627-88.5713 46.0179-88.5713C40.2834-88.5713 35.6531-83.9513 35.6531-78.2065C35.6531-72.524 40.2834-67.8418 46.0179-67.8418ZM105.603-69.9159C111.305-69.9159 115.968-74.5981 115.968-80.2806C115.968-86.0168 111.305-90.6802 105.603-90.6802C99.8688-90.6802 95.2472-86.0168 95.2472-80.2806C95.2472-74.5981 99.8688-69.9159 105.603-69.9159ZM17.4157-54.9133L27.7165-54.1119C28.3604-54.0496 28.7988-53.6009 28.7988-52.8948L28.7988-34.0547C28.7988-30.244 30.0482-26.4648 32.3688-23.5195L44.5103-7.94064L38.2932 12.6367C37.4508 15.4773 39.0734 18.4962 41.8328 19.2661C44.5283 20.0377 47.5054 18.7471 48.4102 15.6659L55.3046-7.26709C55.419-7.65351 55.4813-8.00678 55.4916-8.39321L74.0594 15.1234C75.8518 17.381 79.2754 17.8188 81.4187 16.0076C83.7283 14.0923 84.133 10.8659 82.3234 8.6083L48.7423-33.9294L50.2741-48.915C50.3884-49.8629 51.2551-50.3328 52.0782-49.8943L63.7298-44.1031C64.5518-43.6653 66.0104-43.3333 67.2181-43.3333L85.7033-43.3333C86.911-43.3333 88.2119-43.7813 89.1166-44.5615L97.5508-51.8411C98.322-52.5082 99.2509-52.1755 99.5751-51.2986L104.28-38.2464L84.2882-32.7701C82.1637-32.1872 80.5617-30.3879 80.3542-28.1389L78.1576-5.53643C77.8255-2.10257 80.8096 0.207088 83.3907 0.207088C86.0964 0.207088 88.3975-1.79105 88.6673-4.51565L90.5318-23.1029L104.125-25.1772L97.5329-11.9164C96.7732-10.4057 96.3789-8.7208 97.0241-7.11704L106.313 16.1226C107.512 19.0792 110.703 20.1 113.212 19.0792C115.855 17.9961 117.219 14.896 116.125 12.1972L107.868-8.39732L119.249-24.5718C122.186-28.6711 123.268-33.9821 122.383-38.8741L120.602-48.6549C120.392-49.7588 121.311-50.53 122.417-50.1435L128.196-48.219C132.359-46.8039 135.535-49.3621 135.14-53.535L132.795-76.9964C132.517-79.9853 129.821-82.0843 127.05-81.7797C124.183-81.4751 121.997-78.8902 122.275-75.903L123.795-60.7908L110.099-65.3504C104.298-67.2869 98.1357-66.2158 93.3249-62.0919L83.7675-53.836L67.8216-53.836L52.816-61.3214C50.5143-62.4982 48.2458-63.1332 45.6932-63.3202L24.8876-64.904L29.7518-79.3822C30.7102-82.2125 29.1791-85.1983 26.4094-86.1031C23.6516-86.9976 20.6658-85.5201 19.7611-82.7955L12.7204-61.8748C11.6271-58.6295 13.9573-55.1728 17.4157-54.9133Z"/>
  </g>
  <g id="Regular-M" transform="matrix(1 0 0 1 1377.15 1126)">
   <path d="M45.2885-67.4863C50.8738-67.4863 55.3482-72.0335 55.3482-77.5565C55.3482-83.1418 50.8738-87.6268 45.2885-87.6268C39.7032-87.6268 35.2182-83.1418 35.2182-77.5565C35.2182-72.0335 39.7032-67.4863 45.2885-67.4863ZM104.21-69.5614C109.743-69.5614 114.28-74.1087 114.28-79.6317C114.28-85.2064 109.743-89.7431 104.21-89.7431C98.6244-89.7431 94.15-85.2064 94.15-79.6317C94.15-74.1087 98.6244-69.5614 104.21-69.5614ZM17.174-55.057L27.4608-54.2576C28.1472-54.1953 28.635-53.7074 28.635-52.9587L28.635-34.2216C28.635-30.4843 29.86-26.8093 32.1337-23.9232L44.2072-8.42388L38.02 12.0377C37.2205 14.7369 38.7571 17.6125 41.3834 18.3496C43.958 19.0761 46.7713 17.8511 47.633 14.9133L54.5573-8.06061C54.6819-8.48619 54.7443-8.86002 54.7443-9.2856L73.3789 14.3008C75.0812 16.4498 78.3306 16.8754 80.355 15.1625C82.5663 13.325 82.9402 10.2625 81.2167 8.1135L47.9445-34.0347L49.4705-48.9838C49.5951-50.0324 50.5708-50.5826 51.4949-50.0947L63.0805-44.3436C63.8799-43.918 65.2813-43.6065 66.444-43.6065L84.2169-43.6065C85.3796-43.6065 86.6046-44.032 87.4663-44.7692L95.8649-51.9945C96.7266-52.7316 97.7647-52.3578 98.1279-51.382L102.862-38.2186L82.8673-32.7579C80.8535-32.2077 79.3169-30.4843 79.13-28.3458L76.9187-5.36141C76.6072-2.11201 79.4416 0.0993036 81.8915 0.0993036C84.4661 0.0993036 86.6669-1.80049 86.9161-4.38563L88.8159-23.5599L102.8-25.6984L96.1141-12.2235C95.377-10.7598 95.0032-9.16099 95.6157-7.63503L104.803 15.3494C105.955 18.1627 108.977 19.1384 111.364 18.1627C113.876 17.1246 115.164 14.1762 114.126 11.6227L105.914-8.86002L117.25-24.9613C120.126-28.9583 121.175-34.1593 120.313-38.9452L118.538-48.6722C118.299-49.9078 119.337-50.7695 120.562-50.3439L126.324-48.4336C130.31-47.084 133.3-49.4822 132.926-53.4687L130.611-76.6812C130.352-79.5483 127.777-81.5295 125.161-81.239C122.431-80.9486 120.354-78.5207 120.614-75.6432L122.15-60.3825L108.302-64.9921C102.613-66.8919 96.602-65.8432 91.8889-61.805L82.3794-53.5828L66.9942-53.5828L52.1074-61.0056C49.8443-62.1683 47.633-62.7808 45.1312-62.9677L24.2853-64.5559L29.1852-79.1312C30.0987-81.8304 28.635-84.6542 26.0087-85.516C23.3718-86.3777 20.548-84.9658 19.6863-82.3806L12.7102-61.6804C11.6721-58.6073 13.8834-55.3062 17.174-55.057Z"/>
  </g>
  <g id="Light-M" transform="matrix(1 0 0 1 1082.07 1126)">
   <path d="M44.5698-66.8018C50.0183-66.8018 54.3729-71.2464 54.3729-76.6325C54.3729-82.081 50.0183-86.4632 44.5698-86.4632C39.1214-86.4632 34.7391-82.081 34.7391-76.6325C34.7391-71.2464 39.1214-66.8018 44.5698-66.8018ZM101.54-68.7059C106.954-68.7059 111.371-73.1504 111.371-78.5366C111.371-83.9573 106.954-88.3742 101.54-88.3742C96.092-88.3742 91.7374-83.9573 91.7374-78.5366C91.7374-73.1504 96.092-68.7059 101.54-68.7059ZM17.0371-54.4239L26.9304-53.6416C27.7194-53.5793 28.1902-53.1085 28.1902-52.2572L28.1902-34.1531C28.1902-30.5185 29.3809-26.9462 31.6032-24.1285L43.3517-9.05699L37.3355 10.8399C36.5532 13.4707 38.0555 16.2607 40.5963 16.9807C43.1024 17.673 45.8302 16.4823 46.6748 13.6299L53.4109-8.71082C53.5355-9.11929 53.5978-9.49312 53.5978-9.90159L71.7362 13.0346C73.3701 15.1322 76.534 15.5407 78.507 13.8792C80.667 12.093 81.0408 9.11608 79.3516 7.0184L46.9863-33.9662L48.4609-48.5047C48.5855-49.5362 49.5271-50.0693 50.434-49.5985L61.7117-44.0185C62.494-43.61 63.844-43.2985 64.9724-43.2985L82.2663-43.2985C83.3947-43.2985 84.5855-43.7069 85.4301-44.4269L93.6062-51.4469C94.4508-52.1669 95.4547-51.7931 95.8009-50.8516L100.432-38.0646L80.9509-32.7408C79.0055-32.2077 77.5032-30.5185 77.3163-28.4485L75.1563-6.08006C74.8448-2.91623 77.6278-0.756243 80.0093-0.756243C82.5155-0.756243 84.6478-2.6047 84.897-5.13851L86.7455-23.7824L100.37-25.8524L93.8555-12.7539C93.1355-11.3416 92.7616-9.77698 93.357-8.30235L102.288 14.0661C103.389 16.7938 106.359 17.7353 108.678 16.7938C111.122 15.7899 112.375 12.9099 111.371 10.4591L103.382-9.49312L114.41-25.1324C117.2-29.0439 118.232-34.0908 117.387-38.7569L115.663-48.1931C115.442-49.4116 116.445-50.2562 117.636-49.8477L123.244-47.9716C127.128-46.6562 130.015-49.0031 129.641-52.8869L127.412-75.4493C127.135-78.4189 124.629-80.1777 122.115-79.9215C119.505-79.6653 117.394-77.4427 117.671-74.4454L119.173-59.5954L105.701-64.1023C100.183-65.9508 94.3262-64.9192 89.7501-61.0008L80.4801-52.9839L65.5055-52.9839L51.0294-60.2185C48.8347-61.3469 46.6748-61.9423 44.2586-62.1292L23.9602-63.6662L28.7232-77.8308C29.6025-80.4616 28.1902-83.2169 25.6494-84.0615C23.0809-84.9061 20.3256-83.5284 19.4809-80.9946L12.7102-60.8762C11.7063-57.8716 13.8663-54.6731 17.0371-54.4239Z"/>
  </g>
  <g id="Thin-M" transform="matrix(1 0 0 1 787.519 1126)">
   <path d="M43.6194-65.8966C48.8867-65.8966 53.0829-70.2054 53.0829-75.4105C53.0829-80.6779 48.8867-84.9243 43.6194-84.9243C38.352-84.9243 34.1055-80.6779 34.1055-75.4105C34.1055-70.2054 38.352-65.8966 43.6194-65.8966ZM98.01-67.5743C103.265-67.5743 107.524-71.8831 107.524-77.0882C107.524-82.3053 103.265-86.5638 98.01-86.5638C92.7426-86.5638 88.5464-82.3053 88.5464-77.0882C88.5464-71.8831 92.7426-67.5743 98.01-67.5743ZM16.8561-53.5865L26.2288-52.8269C27.1536-52.7646 27.6018-52.3164 27.6018-51.3293L27.6018-34.0626C27.6018-30.5638 28.7473-27.1272 30.9017-24.4001L42.2201-9.89432L36.4303 9.25579C35.6706 11.796 37.1277 14.4729 39.5553 15.1702C41.9709 15.8173 44.5855 14.6718 45.4074 11.9326L51.8947-9.57079C52.0193-9.95663 52.0816-10.3305 52.0816-10.7163L69.5637 11.3599C71.1071 13.3897 74.1578 13.7755 76.0629 12.1819C78.155 10.4636 78.5289 7.59983 76.8849 5.57004L45.719-33.8757L47.1257-47.871C47.2503-48.8799 48.1466-49.3903 49.0309-48.9422L59.9012-43.5885C60.6609-43.2026 61.943-42.8911 63.0262-42.8911L79.6864-42.8911C80.7696-42.8911 81.9151-43.277 82.7371-43.9743L90.619-50.7228C91.441-51.4201 92.3996-51.0463 92.7231-50.15L97.2188-37.8609L78.4163-32.7182C76.5614-32.2077 75.1043-30.5638 74.9174-28.5843L72.8253-7.03055C72.5138-3.97986 75.2289-1.88777 77.52-1.88777C79.9356-1.88777 81.9774-3.66834 82.2266-6.13426L84.0072-24.0766L97.1565-26.0561L90.8682-13.4555C90.1709-12.111 89.797-10.5917 90.3698-9.18495L98.9611 12.3688C99.994 14.9833 102.896 15.8796 105.125 14.9833C107.478 14.0247 108.686 11.2353 107.727 8.92024L100.032-10.3305L110.653-25.3587C113.33-29.157 114.339-34.0003 113.517-38.508L111.861-47.5595C111.662-48.7553 112.621-49.5773 113.766-49.1914L119.17-47.3606C122.918-46.0904 125.67-48.3694 125.296-52.1175L123.18-73.8199C122.88-76.9253 120.465-78.3899 118.087-78.1789C115.636-77.968 113.479-76.017 113.778-72.8613L115.235-58.5544L102.261-62.9255C96.9696-64.7061 91.3164-63.6972 86.9212-59.9371L77.9681-52.1918L63.5367-52.1918L49.6036-59.1775C47.4995-60.2607 45.4074-60.8334 43.1044-61.0203L23.5302-62.4894L28.1122-76.1109C28.9462-78.6511 27.6018-81.316 25.1741-82.1379C22.6962-82.9599 20.0314-81.6275 19.2094-79.1616L12.7102-59.8125C11.7516-56.8985 13.8437-53.8358 16.8561-53.5865Z"/>
  </g>
  <g id="Ultralight-M" transform="matrix(1 0 0 1 491.915 1126)">
   <path d="M43.1325-65.4329C48.3072-65.4329 52.4222-69.6722 52.4222-74.7845C52.4222-79.9592 48.3072-84.1361 43.1325-84.1361C37.9579-84.1361 33.7809-79.9592 33.7809-74.7845C33.7809-69.6722 37.9579-65.4329 43.1325-65.4329ZM96.2018-66.9948C101.376-66.9948 105.553-71.234 105.553-76.3464C105.553-81.4591 101.376-85.6365 96.2018-85.6365C91.0271-85.6365 86.9121-81.4591 86.9121-76.3464C86.9121-71.234 91.0271-66.9948 96.2018-66.9948ZM16.7633-53.1577L25.8695-52.4096C26.8638-52.3473 27.3004-51.9107 27.3004-50.8541L27.3004-34.0162C27.3004-30.587 28.4227-27.22 30.5423-24.5392L41.6406-10.3232L35.9666 8.4444C35.2186 10.9383 36.6524 13.5572 39.0221 14.2429C41.3914 14.8668 43.948 13.7445 44.7583 11.0633L51.118-10.0113C51.2426-10.3855 51.305-10.7593 51.305-11.1336L68.4509 10.5021C69.9479 12.4972 72.9407 12.8714 74.8111 11.3125C76.8684 9.62903 77.2422 6.82322 75.6215 4.8282L45.0699-33.8293L46.4418-47.5465C46.5664-48.5437 47.4395-49.0426 48.3122-48.6061L58.9739-43.3682C59.722-42.994 60.9693-42.6825 62.0294-42.6825L78.365-42.6825C79.425-42.6825 80.5473-43.0567 81.3577-43.7425L89.0889-50.3518C89.8993-51.0376 90.8347-50.6638 91.1467-49.7907L95.5728-37.7566L77.118-32.7066C75.3095-32.2077 73.8757-30.587 73.6887-28.6538L71.6314-7.51738C71.3199-4.52465 74.0003-2.46734 76.2449-2.46734C78.6142-2.46734 80.6096-4.21313 80.8588-6.64428L82.6046-24.2272L95.5105-26.1604L89.3382-13.8148C88.6524-12.5051 88.2786-11.009 88.8397-9.63701L97.2572 11.4994C98.2553 14.056 101.123 14.9291 103.305 14.056C105.612 13.1206 106.797 10.3775 105.861 8.13203L98.3168-10.7593L108.729-25.4746C111.348-29.215 112.345-33.9539 111.535-38.3805L109.914-47.2349C109.727-48.4191 110.662-49.2295 111.784-48.8553L117.084-47.0476C120.762-45.8007 123.444-48.0449 123.07-51.7234L121.012-72.9853C120.701-76.1603 118.332-77.4742 116.024-77.2864C113.653-77.0987 111.474-75.2868 111.785-72.0499L113.219-58.0212L100.499-62.3228C95.3236-64.0686 89.7747-63.0713 85.4723-59.3923L76.6815-51.7861L62.5282-51.7861L48.8734-58.6443C46.8156-59.7043 44.7583-60.2654 42.5133-60.4524L23.3099-61.8866L27.7993-75.2299C28.6101-77.7238 27.3004-80.3423 24.9307-81.1527C22.4991-81.963 19.8807-80.6538 19.0703-78.2227L12.7102-59.2677C11.7747-56.4 13.8321-53.4069 16.7633-53.1577Z"/>
  </g>
  <g id="Black-S" transform="matrix(1 0 0 1 2871.24 696)">
   <path d="M38.916-62.1582C44.043-62.1582 48.1934-66.3574 48.1934-71.4355C48.1934-76.5625 44.043-80.7129 38.916-80.7129C33.8379-80.7129 29.6387-76.5625 29.6387-71.4355C29.6387-66.3574 33.8379-62.1582 38.916-62.1582ZM88.1348-63.7695C93.2617-63.7695 97.4121-67.9688 97.4121-73.0469C97.4121-78.1738 93.2617-82.3242 88.1348-82.3242C83.0566-82.3242 78.8574-78.1738 78.8574-73.0469C78.8574-67.9688 83.0566-63.7695 88.1348-63.7695ZM14.5996-50.0488L22.7051-49.4141C23.0469-49.3652 23.1934-49.1699 23.1934-48.7793L23.1934-33.6426C23.1934-30.3711 24.2676-27.002 26.2695-24.4629L36.0352-11.9629L31.0547 4.58984C30.2246 7.37305 31.8359 10.3027 34.5215 11.0352C37.1094 11.8164 40.0879 10.5469 40.9668 7.56836L46.2402-10.2051C46.2891-10.3516 46.3379-10.5469 46.3867-10.6934L60.6445 7.42188C62.4023 9.61914 65.7715 10.0098 67.9199 8.20312C70.1172 6.39648 70.5566 3.22266 68.7988 1.02539L41.3086-33.7891L42.5293-45.6543C42.5781-45.9961 42.8223-46.0449 43.0664-45.8984L52.4414-41.2109C53.1738-40.8203 54.541-40.4785 55.6641-40.4785L72.9492-40.4785C74.0723-40.4785 75.3906-40.918 76.2695-41.6992L83.0078-47.6074C83.252-47.8516 83.5449-47.7539 83.6426-47.4609L87.207-37.6953L71.582-33.3496C69.4824-32.7637 67.9688-31.0547 67.7246-28.8574L66.0645-12.6953C65.7227-9.27734 68.6523-7.08008 71.1914-7.08008C73.8281-7.08008 76.0254-9.0332 76.3184-11.7188L77.6367-23.9258L86.7188-25.293L81.9336-15.7715C81.25-14.4043 80.8594-12.7441 81.4941-11.1816L89.1602 8.00781C90.2832 10.8887 93.457 11.8652 95.8984 10.8887C98.4863 9.86328 99.8535 6.83594 98.7793 4.15039L92.1387-12.4023L101.221-25.3418C103.76-28.9551 104.736-33.5449 103.955-37.793L102.539-45.6543C102.49-45.9961 102.734-46.2402 103.125-46.0938L107.715-44.5312C111.67-43.1641 114.893-45.8008 114.502-49.8047L112.549-69.1406C112.256-71.9727 109.668-74.0723 106.885-73.7793C104.102-73.4863 101.953-70.8496 102.246-68.0664L103.369-56.8359L93.2617-60.2051C88.2812-61.8652 82.8613-60.9375 78.7109-57.373L71.0449-50.7812L56.3477-50.7812L44.1406-56.8848C42.1875-57.8613 40.1855-58.4473 37.9883-58.5938L21.875-59.8145L25.5371-70.752C26.4648-73.4863 25-76.4648 22.2656-77.3438C19.6289-78.1738 16.6504-76.7578 15.7715-74.0723L10.0098-56.8359C8.93555-53.6133 11.2305-50.293 14.5996-50.0488Z"/>
  </g>
  <g id="Heavy-S" transform="matrix(1 0 0 1 2575.57 696)">
   <path d="M38.19-61.847C43.1556-61.847 47.1677-65.908 47.1677-70.8248C47.1677-75.7904 43.1556-79.8025 38.19-79.8025C33.2617-79.8025 29.2123-75.7904 29.2123-70.8248C29.2123-65.908 33.2617-61.847 38.19-61.847ZM86.9132-63.4814C91.8673-63.4814 95.8909-67.5423 95.8909-72.4591C95.8909-77.4247 91.8673-81.4484 86.9132-81.4484C81.9849-81.4484 77.9355-77.4247 77.9355-72.4591C77.9355-67.5423 81.9849-63.4814 86.9132-63.4814ZM14.3461-50.2908L22.4861-49.6561C22.8625-49.6072 23.0666-49.3658 23.0666-48.9406L23.0666-33.8385C23.0666-30.6362 24.1178-27.3707 26.0736-24.8893L35.8047-12.4239L30.8357 4.07124C30.0517 6.70463 31.5709 9.4845 34.1181 10.1823C36.5792 10.9175 39.3849 9.71711 40.2177 6.88842L45.5488-11.0118C45.6091-11.2044 45.6579-11.4227 45.6953-11.6153L60.0914 6.66126C61.757 8.74328 64.9417 9.12238 66.9634 7.41946C69.0569 5.69349 69.4618 2.69253 67.7962 0.61051L40.5365-33.9158L41.7572-45.7926C41.8175-46.2496 42.1884-46.3907 42.5478-46.1865L51.8882-41.5221C52.5976-41.143 53.9072-40.8242 54.9841-40.8242L71.5317-40.8242C72.6087-40.8242 73.8463-41.2407 74.6792-41.9758L81.4059-47.8494C81.7538-48.1742 82.1735-48.0305 82.3173-47.6223L85.9278-37.6838L70.2337-33.3381C68.2493-32.7867 66.8048-31.1584 66.5837-29.0764L64.9005-12.4072C64.5817-9.18515 67.3501-7.0916 69.7508-7.0916C72.2493-7.0916 74.3428-8.94101 74.6127-11.4767L75.9772-24.4098L85.5433-25.8577L80.6313-16.0481C79.9708-14.727 79.6032-13.159 80.2034-11.6772L87.7887 7.30482C88.8657 10.0359 91.8551 10.9663 94.1698 10.0359C96.6194 9.05657 97.9059 6.19057 96.8893 3.65484L90.2717-12.8403L99.3422-25.7567C101.824-29.2662 102.766-33.7524 102.007-37.8967L100.591-45.735C100.508-46.2266 100.89-46.5744 101.419-46.3819L106.009-44.8309C109.78-43.5328 112.807-45.9967 112.439-49.8047L110.509-68.9447C110.239-71.6269 107.778-73.6228 105.156-73.3414C102.511-73.0599 100.49-70.573 100.759-67.9281L101.906-56.4787L91.5791-59.917C86.7024-61.5425 81.4323-60.6379 77.3741-57.1541L69.7311-50.5738L55.6101-50.5738L43.4837-56.6312C41.5652-57.5963 39.6208-58.1592 37.4697-58.3056L21.2412-59.5379L24.9609-70.6367C25.8425-73.2328 24.4468-76.0384 21.8623-76.8712C19.3523-77.6668 16.5467-76.3199 15.7139-73.7842L9.99824-56.7207C8.98164-53.6824 11.1498-50.5235 14.3461-50.2908Z"/>
  </g>
  <g id="Bold-S" transform="matrix(1 0 0 1 2280.02 696)">
   <path d="M37.3779-61.499C42.1631-61.499 46.0205-65.4053 46.0205-70.1416C46.0205-74.9268 42.1631-78.7842 37.3779-78.7842C32.6172-78.7842 28.7354-74.9268 28.7354-70.1416C28.7354-65.4053 32.6172-61.499 37.3779-61.499ZM85.5469-63.1592C90.3076-63.1592 94.1895-67.0654 94.1895-71.8018C94.1895-76.5869 90.3076-80.4688 85.5469-80.4688C80.7861-80.4688 76.9043-76.5869 76.9043-71.8018C76.9043-67.0654 80.7861-63.1592 85.5469-63.1592ZM14.0625-50.5615L22.2412-49.9268C22.6562-49.8779 22.9248-49.585 22.9248-49.1211L22.9248-34.0576C22.9248-30.9326 23.9502-27.7832 25.8545-25.3662L35.5469-12.9395L30.5908 3.49121C29.8584 5.95703 31.2744 8.56934 33.667 9.22852C35.9863 9.91211 38.5986 8.78906 39.3799 6.12793L44.7754-11.9141C44.8486-12.1582 44.8975-12.4023 44.9219-12.6465L59.4727 5.81055C61.0352 7.76367 64.0137 8.12988 65.8936 6.54297C67.8711 4.90723 68.2373 2.09961 66.6748 0.146484L39.6729-34.0576L40.8936-45.9473C40.9668-46.5332 41.4795-46.7773 41.9678-46.5088L51.2695-41.8701C51.9531-41.5039 53.1982-41.2109 54.2236-41.2109L69.9463-41.2109C70.9717-41.2109 72.1191-41.6016 72.9004-42.2852L79.6143-48.1201C80.0781-48.5352 80.6396-48.3398 80.835-47.8027L84.4971-37.6709L68.7256-33.3252C66.8701-32.8125 65.5029-31.2744 65.3076-29.3213L63.5986-12.085C63.3057-9.08203 65.8936-7.10449 68.1396-7.10449C70.4834-7.10449 72.4609-8.83789 72.7051-11.2061L74.1211-24.9512L84.2285-26.4893L79.1748-16.3574C78.54-15.0879 78.1982-13.623 78.7598-12.2314L86.2549 6.51855C87.2803 9.08203 90.0635 9.96094 92.2363 9.08203C94.5312 8.1543 95.7275 5.46875 94.7754 3.10059L88.1836-13.3301L97.2412-26.2207C99.6582-29.6143 100.562-33.9844 99.8291-38.0127L98.4131-45.8252C98.291-46.4844 98.8281-46.9482 99.5117-46.7041L104.102-45.166C107.666-43.9453 110.474-46.2158 110.132-49.8047L108.228-68.7256C107.983-71.2402 105.664-73.1201 103.223-72.8516C100.732-72.583 98.8525-70.2637 99.0967-67.7734L100.269-56.0791L89.6973-59.5947C84.9365-61.1816 79.834-60.3027 75.8789-56.9092L68.2617-50.3418L54.7852-50.3418L42.749-56.3477C40.8691-57.2998 38.9893-57.8369 36.8896-57.9834L20.5322-59.2285L24.3164-70.5078C25.1465-72.9492 23.8281-75.5615 21.4111-76.3428C19.043-77.0996 16.4307-75.8301 15.6494-73.4619L9.98535-56.5918C9.0332-53.7598 11.0596-50.7812 14.0625-50.5615Z"/>
  </g>
  <g id="Semibold-S" transform="matrix(1 0 0 1 1984.11 696)">
   <path d="M36.8181-61.2591C41.4788-61.2591 45.2296-65.0587 45.2296-69.6706C45.2296-74.3313 41.4788-78.0821 36.8181-78.0821C32.1729-78.0821 28.4065-74.3313 28.4065-69.6706C28.4065-65.0587 32.1729-61.2591 36.8181-61.2591ZM84.6049-62.937C89.2323-62.937 93.0164-66.7366 93.0164-71.3485C93.0164-76.0093 89.2323-79.7934 84.6049-79.7934C79.9597-79.7934 76.1934-76.0093 76.1934-71.3485C76.1934-66.7366 79.9597-62.937 84.6049-62.937ZM13.867-50.7481L22.0724-50.1134C22.5141-50.0646 22.8271-49.736 22.8271-49.2455L22.8271-34.2087C22.8271-31.137 23.8347-28.0676 25.7034-25.695L35.3691-13.2949L30.422 3.09131C29.7251 5.4416 31.07 7.93838 33.356 8.5709C35.5775 9.21895 38.0565 8.14922 38.8022 5.60361L44.2422-12.5361C44.3243-12.8158 44.3731-13.0777 44.3887-13.3574L59.0461 5.22402C60.5375 7.08828 63.3738 7.44561 65.156 5.93867C67.0535 4.36514 67.3931 1.69082 65.9017-0.173438L39.0774-34.1554L40.2981-46.0539C40.3803-46.7287 40.9907-47.0439 41.5679-46.731L50.843-42.1101C51.5088-41.7527 52.7095-41.4775 53.6993-41.4775L68.8532-41.4775C69.8431-41.4775 70.9283-41.8504 71.674-42.4984L78.379-48.3067C78.9229-48.784 79.5821-48.5531 79.813-47.9271L83.5106-37.662L67.6858-33.3163C65.9192-32.8303 64.6054-31.3544 64.4278-29.4901L62.7011-11.8628C62.4259-9.01094 64.8894-7.11338 67.0288-7.11338C69.2659-7.11338 71.1635-8.7668 71.3898-11.0194L72.8414-25.3244L83.3221-26.9247L78.1706-16.5707C77.5536-15.3367 77.2296-13.943 77.7645-12.6136L85.1974 5.97646C86.1872 8.42441 88.8282 9.26777 90.9033 8.42441C93.0916 7.53223 94.2257 4.97109 93.318 2.71846L86.7439-13.6678L95.7927-26.5406C98.1652-29.8542 99.0419-34.1443 98.3272-38.0927L96.9112-45.8874C96.7625-46.6621 97.4062-47.206 98.1965-46.9263L102.786-45.3971C106.209-44.2297 108.865-46.3669 108.541-49.8047L106.655-68.5745C106.428-70.9736 104.207-72.7735 101.89-72.5139C99.5061-72.2542 97.7239-70.0504 97.9503-67.6668L99.1399-55.8036L88.3998-59.3726C83.719-60.9328 78.732-60.0717 74.848-56.7403L67.2486-50.1818L54.2164-50.1818L42.2425-56.1521C40.3893-57.0954 38.5538-57.6147 36.4897-57.7612L20.0435-59.0152L23.8721-70.4189C24.6666-72.7537 23.4016-75.2327 21.1001-75.9784C18.8297-76.7086 16.3507-75.4924 15.605-73.2397L9.97646-56.5029C9.06875-53.8131 10.9974-50.959 13.867-50.7481Z"/>
  </g>
  <g id="Medium-S" transform="matrix(1 0 0 1 1688 696)">
   <path d="M36.3936-61.0771C40.96-61.0771 44.6299-64.7959 44.6299-69.3135C44.6299-73.8799 40.96-77.5498 36.3936-77.5498C31.8359-77.5498 28.1572-73.8799 28.1572-69.3135C28.1572-64.7959 31.8359-61.0771 36.3936-61.0771ZM83.8906-62.7686C88.417-62.7686 92.127-66.4873 92.127-71.0049C92.127-75.5713 88.417-79.2812 83.8906-79.2812C79.333-79.2812 75.6543-75.5713 75.6543-71.0049C75.6543-66.4873 79.333-62.7686 83.8906-62.7686ZM13.7188-50.8896L21.9443-50.2549C22.4062-50.2061 22.7529-49.8506 22.7529-49.3398L22.7529-34.3232C22.7529-31.292 23.7471-28.2832 25.5889-25.9443L35.2344-13.5645L30.2939 2.78809C29.624 5.05078 30.915 7.45996 33.1201 8.07227C35.2676 8.69336 37.6455 7.66406 38.3643 5.20605L43.8379-13.0078C43.9268-13.3145 43.9756-13.5898 43.9844-13.8965L58.7227 4.7793C60.1602 6.57617 62.8887 6.92676 64.5967 5.48047C66.4336 3.9541 66.7529 1.38086 65.3154-0.416016L38.626-34.2295L39.8467-46.1348C39.9355-46.877 40.6201-47.2461 41.2646-46.8994L50.5195-42.292C51.1719-41.9414 52.3389-41.6797 53.3018-41.6797L68.0244-41.6797C68.9873-41.6797 70.0254-42.0391 70.7441-42.6602L77.4424-48.4482C78.0469-48.9727 78.7803-48.7148 79.0381-48.0215L82.7627-37.6553L66.8975-33.3096C65.1982-32.8438 63.9248-31.415 63.7607-29.6182L62.0205-11.6943C61.7588-8.95703 64.1279-7.12012 66.1865-7.12012C68.3428-7.12012 70.1797-8.71289 70.3926-10.8779L71.8711-25.6074L82.6348-27.2549L77.4092-16.7324C76.8057-15.5254 76.4951-14.1855 77.0098-12.9033L84.3955 5.56543C85.3584 7.92578 87.8916 8.74219 89.8926 7.92578C92 7.06055 93.0869 4.59375 92.2129 2.42871L85.6523-13.9238L94.6943-26.7832C97.0332-30.0361 97.8896-34.2656 97.1885-38.1533L95.7725-45.9346C95.6035-46.7969 96.3281-47.4014 97.1992-47.0947L101.789-45.5723C105.104-44.4453 107.646-46.4814 107.335-49.8047L105.462-68.46C105.249-70.7715 103.102-72.5107 100.879-72.2578C98.5762-72.0049 96.8682-69.8887 97.0811-67.5859L98.2842-55.5947L87.416-59.2041C82.7959-60.7441 77.8965-59.8965 74.0664-56.6123L66.4805-50.0605L53.7852-50.0605L41.8584-56.0039C40.0254-56.9404 38.2236-57.4463 36.1865-57.5928L19.6729-58.8535L23.5352-70.3516C24.3027-72.6055 23.0781-74.9834 20.8643-75.7021C18.668-76.4121 16.29-75.2363 15.5713-73.0713L9.96973-56.4355C9.0957-53.8535 10.9502-51.0938 13.7188-50.8896Z"/>
  </g>
  <g id="Regular-S" transform="matrix(1 0 0 1 1392.08 696)">
   <path d="M35.8398-60.8398C40.2832-60.8398 43.8477-64.4531 43.8477-68.8477C43.8477-73.291 40.2832-76.8555 35.8398-76.8555C31.3965-76.8555 27.832-73.291 27.832-68.8477C27.832-64.4531 31.3965-60.8398 35.8398-60.8398ZM82.959-62.5488C87.3535-62.5488 90.9668-66.1621 90.9668-70.5566C90.9668-75 87.3535-78.6133 82.959-78.6133C78.5156-78.6133 74.9512-75 74.9512-70.5566C74.9512-66.1621 78.5156-62.5488 82.959-62.5488ZM13.5254-51.0742L21.7773-50.4395C22.2656-50.3906 22.6562-50 22.6562-49.4629L22.6562-34.4727C22.6562-31.4941 23.6328-28.5645 25.4395-26.2695L35.0586-13.916L30.127 2.39258C29.4922 4.54102 30.7129 6.83594 32.8125 7.42188C34.8633 8.00781 37.1094 7.03125 37.793 4.6875L43.3105-13.623C43.4082-13.9648 43.457-14.2578 43.457-14.5996L58.3008 4.19922C59.668 5.9082 62.2559 6.25 63.8672 4.88281C65.625 3.41797 65.918 0.976562 64.5508-0.732422L38.0371-34.3262L39.2578-46.2402C39.3555-47.0703 40.1367-47.5098 40.8691-47.1191L50.0977-42.5293C50.7324-42.1875 51.8555-41.9434 52.7832-41.9434L66.9434-41.9434C67.8711-41.9434 68.8477-42.2852 69.5312-42.8711L76.2207-48.6328C76.9043-49.2188 77.7344-48.9258 78.0273-48.1445L81.7871-37.6465L65.8691-33.3008C64.2578-32.8613 63.0371-31.4941 62.8906-29.7852L61.1328-11.4746C60.8887-8.88672 63.1348-7.12891 65.0879-7.12891C67.1387-7.12891 68.8965-8.64258 69.0918-10.6934L70.6055-25.9766L81.7383-27.6855L76.416-16.9434C75.8301-15.7715 75.5371-14.502 76.0254-13.2812L83.3496 5.0293C84.2773 7.27539 86.6699 8.05664 88.5742 7.27539C90.5762 6.44531 91.6016 4.10156 90.7715 2.05078L84.2285-14.2578L93.2617-27.0996C95.5566-30.2734 96.3867-34.4238 95.7031-38.2324L94.2871-45.9961C94.0918-46.9727 94.9219-47.6562 95.8984-47.3145L100.488-45.8008C103.662-44.7266 106.055-46.6309 105.762-49.8047L103.906-68.3105C103.711-70.5078 101.66-72.168 99.5605-71.9238C97.3633-71.6797 95.752-69.6777 95.9473-67.4805L97.168-55.3223L86.1328-58.9844C81.5918-60.498 76.8066-59.668 73.0469-56.4453L65.4785-49.9023L53.2227-49.9023L41.3574-55.8105C39.5508-56.7383 37.793-57.2266 35.791-57.373L19.1895-58.6426L23.0957-70.2637C23.8281-72.4121 22.6562-74.6582 20.5566-75.3418C18.457-76.0254 16.2109-74.9023 15.5273-72.8516L9.96094-56.3477C9.13086-53.9062 10.8887-51.2695 13.5254-51.0742Z"/>
  </g>
  <g id="Light-S" transform="matrix(1 0 0 1 1096.82 696)">
   <path d="M35.2041-60.2344C39.5264-60.2344 42.9849-63.7568 42.9849-68.0303C42.9849-72.3525 39.5264-75.8262 35.2041-75.8262C30.8818-75.8262 27.4082-72.3525 27.4082-68.0303C27.4082-63.7568 30.8818-60.2344 35.2041-60.2344ZM80.5977-61.792C84.8862-61.792 88.3936-65.3145 88.3936-69.5879C88.3936-73.895 84.8862-77.4024 80.5977-77.4024C76.2754-77.4024 72.8169-73.895 72.8169-69.5879C72.8169-65.3145 76.2754-61.792 80.5977-61.792ZM13.4043-50.5142L21.3081-49.8945C21.8872-49.8457 22.2627-49.4702 22.2627-48.8423L22.2627-34.4121C22.2627-31.5244 23.209-28.6855 24.9702-26.4512L34.3018-14.4761L29.5215 1.33302C28.9019 3.42091 30.0923 5.64015 32.1162 6.21095C34.1065 6.76661 36.2769 5.82032 36.9453 3.55226L42.2964-14.1982C42.3941-14.5249 42.4429-14.8179 42.4429-15.1445L56.8477 3.07911C58.1543 4.74268 60.6665 5.06935 62.2324 3.74757C63.9448 2.32813 64.2378-0.0375897 62.9009-1.70116L37.1895-34.2656L38.3648-45.8164C38.4624-46.6314 39.2134-47.0557 39.9307-46.6802L48.8867-42.2417C49.5064-41.915 50.584-41.6709 51.4815-41.6709L65.2178-41.6709C66.1152-41.6709 67.0615-41.9976 67.73-42.5684L74.2227-48.1484C74.8911-48.7192 75.6909-48.4263 75.9688-47.6753L79.6377-37.5103L64.1738-33.2856C62.6231-32.8613 61.4326-31.5244 61.2861-29.876L59.5737-12.1103C59.3296-9.59814 61.5303-7.88574 63.4229-7.88574C65.4131-7.88574 67.1104-9.354 67.3057-11.3594L68.7739-26.1733L79.5889-27.8218L74.418-17.4126C73.8472-16.2861 73.5542-15.0469 74.0274-13.8716L81.1245 3.89405C82.0069 6.06446 84.354 6.81544 86.1978 6.06446C88.1392 5.26466 89.1343 2.98145 88.3345 1.02149L81.9883-14.8179L90.749-27.251C92.9683-30.3491 93.7832-34.3633 93.1148-38.0659L91.7442-45.5723C91.564-46.5337 92.3638-47.2022 93.3101-46.8755L97.7637-45.3921C100.847-44.3481 103.148-46.207 102.855-49.29L101.076-67.2207C100.865-69.5088 98.875-70.9722 96.8662-70.7583C94.7749-70.5444 93.1333-68.7241 93.3438-66.4209L94.5342-54.626L83.832-58.1973C79.4424-59.6655 74.7935-58.8506 71.1548-55.7339L63.7984-49.3726L51.9058-49.3726L40.4038-55.1143C38.6577-56.0117 36.9453-56.4849 35.019-56.6314L18.9019-57.8555L22.687-69.1133C23.3892-71.2012 22.2627-73.3867 20.2388-74.0552C18.1997-74.7236 16.0142-73.6309 15.3457-71.6255L9.96094-55.6362C9.16113-53.2554 10.8735-50.7095 13.4043-50.5142Z"/>
  </g>
  <g id="Thin-S" transform="matrix(1 0 0 1 802.016 696)">
   <path d="M34.3633-59.4336C38.5254-59.4336 41.8438-62.836 41.8438-66.9492C41.8438-71.1113 38.5254-74.4649 34.3633-74.4649C30.2012-74.4649 26.8477-71.1113 26.8477-66.9492C26.8477-62.836 30.2012-59.4336 34.3633-59.4336ZM77.4747-60.791C81.6231-60.791 84.9903-64.1934 84.9903-68.3067C84.9903-72.4336 81.6231-75.8008 77.4747-75.8008C73.3125-75.8008 69.9942-72.4336 69.9942-68.3067C69.9942-64.1934 73.3125-60.791 77.4747-60.791ZM13.2441-49.7734L20.6875-49.1738C21.3867-49.125 21.7422-48.7695 21.7422-48.0215L21.7422-34.332C21.7422-31.5645 22.6484-28.8457 24.3496-26.6914L33.3008-15.2168L28.7207-0.06834C28.1211 1.93947 29.2715 4.05862 31.1953 4.6094C33.1055 5.12502 35.1758 4.21877 35.8242 2.0508L40.9551-14.959C41.0528-15.2656 41.1016-15.5586 41.1016-15.8652L54.9258 1.59768C56.1524 3.20119 58.5645 3.50783 60.0703 2.24611C61.7227 0.886739 62.0157-1.37889 60.7188-2.9824L36.0684-34.1855L37.1836-45.2559C37.2813-46.0508 37.9922-46.4551 38.6895-46.0996L47.2852-41.8613C47.8848-41.5547 48.9024-41.3106 49.7598-41.3106L62.9356-41.3106C63.793-41.3106 64.6993-41.6172 65.3477-42.168L71.5801-47.5078C72.2286-48.0586 72.9883-47.7656 73.2461-47.0547L76.795-37.3301L61.9317-33.2656C60.461-32.8613 59.3106-31.5645 59.1641-29.9961L57.5117-12.9512C57.2676-10.539 59.4082-8.8867 61.2207-8.8867C63.1309-8.8867 64.7481-10.2949 64.9434-12.2402L66.3516-26.4336L76.7461-28.002L71.7754-18.0332C71.2246-16.9668 70.9317-15.7676 71.3848-14.6523L78.1817 2.3926C79.0039 4.46291 81.2911 5.17385 83.0547 4.46291C84.9161 3.70315 85.8711 1.50002 85.1114-0.339825L79.0254-15.5586L87.4258-27.4512C89.545-30.4492 90.3399-34.2832 89.6915-37.8457L88.3809-45.0117C88.2207-45.9531 88.9805-46.6016 89.8868-46.2949L94.1602-44.8516C97.1231-43.8477 99.3047-45.6465 99.0118-48.6094L97.3321-65.7793C97.1016-68.1875 95.1915-69.3906 93.3028-69.2168C91.3516-69.043 89.67-67.4629 89.9004-65.0196L91.0508-53.7051L80.7891-57.1563C76.5996-58.5645 72.1309-57.7695 68.6524-54.793L61.5762-48.6719L50.1641-48.6719L39.1426-54.1934C37.4766-55.0508 35.8242-55.5039 33.9981-55.6504L18.5215-56.8145L22.1465-67.5918C22.8086-69.5996 21.7422-71.7051 19.8184-72.3535C17.8594-73.002 15.7539-71.9492 15.1055-70.0039L9.96094-54.6953C9.20117-52.3945 10.8535-49.9688 13.2441-49.7734Z"/>
  </g>
  <g id="Ultralight-S" transform="matrix(1 0 0 1 506.284 696)">
   <path d="M33.9326-59.0235C38.0127-59.0235 41.2593-62.3643 41.2593-66.3955C41.2593-70.4756 38.0127-73.7676 33.9326-73.7676C29.8526-73.7676 26.5606-70.4756 26.5606-66.3955C26.5606-62.3643 29.8526-59.0235 33.9326-59.0235ZM75.8751-60.2783C79.9517-60.2783 83.2471-63.6192 83.2471-67.6504C83.2471-71.6851 79.9517-74.9805 75.8751-74.9805C71.795-74.9805 68.5484-71.6851 68.5484-67.6504C68.5484-63.6192 71.795-60.2783 75.8751-60.2783ZM13.1621-49.3941L20.3696-48.8047C21.1304-48.7559 21.4756-48.4107 21.4756-47.6011L21.4756-34.291C21.4756-31.585 22.3613-28.9277 24.0317-26.8144L32.7881-15.5962L28.3106-0.786108C27.7212 1.18069 28.8511 3.24856 30.7236 3.78909C32.5928 4.28421 34.6118 3.39847 35.25 1.28177L40.2681-15.3486C40.3657-15.645 40.4146-15.938 40.4146-16.2344L53.9414 0.838894C55.127 2.41165 57.4878 2.70804 58.9629 1.47708C60.5845 0.148463 60.8775-2.06589 59.6011-3.63865L35.4942-34.1445L36.5786-44.9688C36.6763-45.7534 37.3667-46.1475 38.0537-45.8023L46.4649-41.6665C47.0542-41.3701 48.041-41.126 48.878-41.126L61.7666-41.126C62.6036-41.126 63.4893-41.4224 64.1275-41.9629L70.2266-47.1797C70.8648-47.7202 71.6041-47.4273 71.8516-46.7368L75.3389-37.2378L60.7832-33.2554C59.3536-32.8613 58.2237-31.585 58.0772-30.0576L56.4556-13.3818C56.2115-11.021 58.3213-9.3994 60.0928-9.3994C61.962-9.3994 63.5381-10.7768 63.7334-12.6914L65.1109-26.5669L75.2901-28.0942L70.4219-18.3511C69.8814-17.3154 69.5884-16.1367 70.0313-15.0522L76.6744 1.62356C77.4659 3.64261 79.7222 4.33304 81.4449 3.64261C83.2652 2.90335 84.1998 0.741237 83.4605-1.03709L77.5079-15.938L85.7237-27.5537C87.7916-30.5005 88.5762-34.2422 87.938-37.7329L86.6583-44.7246C86.5084-45.6558 87.2476-46.294 88.1334-45.9976L92.3145-44.5747C95.2159-43.5913 97.336-45.3594 97.043-48.2608L95.4146-65.041C95.1739-67.5108 93.3048-68.5806 91.4776-68.4273C89.5982-68.274 87.8961-66.8169 88.1368-64.3018L89.2667-53.2334L79.2305-56.6231C75.1436-58.0005 70.7671-57.2158 67.3707-54.3111L60.438-48.313L49.272-48.313L38.4966-53.7217C36.8716-54.5586 35.25-55.0015 33.4751-55.148L18.3267-56.2813L21.8696-66.8125C22.5112-68.7793 21.4756-70.8438 19.603-71.482C17.6851-72.1201 15.6206-71.0879 14.9824-69.1734L9.96094-54.2134C9.22168-51.9536 10.8433-49.5894 13.1621-49.3941Z"/>
  </g>
 </g>
</svg>
