<?xml version="1.0" encoding="UTF-8"?>
<!--Generator: Apple Native CoreSVG 175.5-->
<!DOCTYPE svg
PUBLIC "-//W3C//DTD SVG 1.1//EN"
       "http://www.w3.org/Graphics/SVG/1.1/DTD/svg11.dtd">
<svg version="1.1" xmlns="http://www.w3.org/2000/svg" xmlns:xlink="http://www.w3.org/1999/xlink" width="3300" height="2200">
 <!--glyph: "uni101554.medium", point size: 100.0, font version: "18.0d11e1", template writer version: "90"-->
 <g id="Notes">
  <rect height="2200" id="artboard" style="fill:white;opacity:1" width="3300" x="0" y="0"/>
  <line style="fill:none;stroke:black;opacity:1;stroke-width:0.5;" x1="263" x2="3036" y1="292" y2="292"/>
  <text style="stroke:none;fill:black;font-family:sans-serif;font-size:13;font-weight:bold;" transform="matrix(1 0 0 1 263 322)">Weight/Scale Variations</text>
  <text style="stroke:none;fill:black;font-family:sans-serif;font-size:13;text-anchor:middle;" transform="matrix(1 0 0 1 559.711 322)">Ultralight</text>
  <text style="stroke:none;fill:black;font-family:sans-serif;font-size:13;text-anchor:middle;" transform="matrix(1 0 0 1 856.422 322)">Thin</text>
  <text style="stroke:none;fill:black;font-family:sans-serif;font-size:13;text-anchor:middle;" transform="matrix(1 0 0 1 1153.13 322)">Light</text>
  <text style="stroke:none;fill:black;font-family:sans-serif;font-size:13;text-anchor:middle;" transform="matrix(1 0 0 1 1449.84 322)">Regular</text>
  <text style="stroke:none;fill:black;font-family:sans-serif;font-size:13;text-anchor:middle;" transform="matrix(1 0 0 1 1746.56 322)">Medium</text>
  <text style="stroke:none;fill:black;font-family:sans-serif;font-size:13;text-anchor:middle;" transform="matrix(1 0 0 1 2043.27 322)">Semibold</text>
  <text style="stroke:none;fill:black;font-family:sans-serif;font-size:13;text-anchor:middle;" transform="matrix(1 0 0 1 2339.98 322)">Bold</text>
  <text style="stroke:none;fill:black;font-family:sans-serif;font-size:13;text-anchor:middle;" transform="matrix(1 0 0 1 2636.69 322)">Heavy</text>
  <text style="stroke:none;fill:black;font-family:sans-serif;font-size:13;text-anchor:middle;" transform="matrix(1 0 0 1 2933.4 322)">Black</text>
  <line style="fill:none;stroke:black;opacity:1;stroke-width:0.5;" x1="263" x2="3036" y1="1903" y2="1903"/>
  <g transform="matrix(1 0 0 1 263 1933)">
   <path d="M9.24805 0.830078C13.5547 0.830078 17.1387-2.74414 17.1387-7.05078C17.1387-11.3574 13.5449-14.9316 9.23828-14.9316C4.94141-14.9316 1.36719-11.3574 1.36719-7.05078C1.36719-2.74414 4.95117 0.830078 9.24805 0.830078ZM9.24805-0.654297C5.70312-0.654297 2.87109-3.49609 2.87109-7.05078C2.87109-10.6055 5.69336-13.4473 9.23828-13.4473C12.793-13.4473 15.6445-10.6055 15.6445-7.05078C15.6445-3.49609 12.8027-0.654297 9.24805-0.654297ZM5.6543-7.05078C5.6543-6.62109 5.95703-6.32812 6.40625-6.32812L8.50586-6.32812L8.50586-4.20898C8.50586-3.76953 8.79883-3.4668 9.22852-3.4668C9.67773-3.4668 9.9707-3.76953 9.9707-4.20898L9.9707-6.32812L12.0898-6.32812C12.5293-6.32812 12.832-6.62109 12.832-7.05078C12.832-7.49023 12.5293-7.79297 12.0898-7.79297L9.9707-7.79297L9.9707-9.90234C9.9707-10.3516 9.67773-10.6543 9.22852-10.6543C8.79883-10.6543 8.50586-10.3516 8.50586-9.90234L8.50586-7.79297L6.40625-7.79297C5.95703-7.79297 5.6543-7.49023 5.6543-7.05078Z"/>
  </g>
  <g transform="matrix(1 0 0 1 281.867 1933)">
   <path d="M11.709 2.91016C17.1582 2.91016 21.6699-1.61133 21.6699-7.05078C21.6699-12.5 17.1484-17.0117 11.6992-17.0117C6.25977-17.0117 1.74805-12.5 1.74805-7.05078C1.74805-1.61133 6.26953 2.91016 11.709 2.91016ZM11.709 1.25C7.09961 1.25 3.41797-2.44141 3.41797-7.05078C3.41797-11.6602 7.08984-15.3516 11.6992-15.3516C16.3086-15.3516 20.0098-11.6602 20.0098-7.05078C20.0098-2.44141 16.3184 1.25 11.709 1.25ZM7.17773-7.05078C7.17773-6.57227 7.50977-6.25 8.00781-6.25L10.8789-6.25L10.8789-3.36914C10.8789-2.88086 11.2109-2.53906 11.6895-2.53906C12.1777-2.53906 12.5195-2.87109 12.5195-3.36914L12.5195-6.25L15.4004-6.25C15.8887-6.25 16.2305-6.57227 16.2305-7.05078C16.2305-7.53906 15.8887-7.88086 15.4004-7.88086L12.5195-7.88086L12.5195-10.752C12.5195-11.25 12.1777-11.5918 11.6895-11.5918C11.2109-11.5918 10.8789-11.25 10.8789-10.752L10.8789-7.88086L8.00781-7.88086C7.50977-7.88086 7.17773-7.53906 7.17773-7.05078Z"/>
  </g>
  <g transform="matrix(1 0 0 1 305.646 1933)">
   <path d="M14.9707 5.66406C21.9336 5.66406 27.6953-0.0976562 27.6953-7.05078C27.6953-14.0137 21.9238-19.7754 14.9609-19.7754C8.00781-19.7754 2.25586-14.0137 2.25586-7.05078C2.25586-0.0976562 8.01758 5.66406 14.9707 5.66406ZM14.9707 3.84766C8.93555 3.84766 4.08203-1.01562 4.08203-7.05078C4.08203-13.0957 8.92578-17.9492 14.9609-17.9492C21.0059-17.9492 25.8691-13.0957 25.8691-7.05078C25.8691-1.01562 21.0156 3.84766 14.9707 3.84766ZM9.19922-7.05078C9.19922-6.5332 9.57031-6.17188 10.1172-6.17188L14.0625-6.17188L14.0625-2.2168C14.0625-1.67969 14.4336-1.29883 14.9512-1.29883C15.4883-1.29883 15.8594-1.66992 15.8594-2.2168L15.8594-6.17188L19.8145-6.17188C20.3516-6.17188 20.7324-6.5332 20.7324-7.05078C20.7324-7.59766 20.3613-7.96875 19.8145-7.96875L15.8594-7.96875L15.8594-11.9141C15.8594-12.4609 15.4883-12.8418 14.9512-12.8418C14.4336-12.8418 14.0625-12.4609 14.0625-11.9141L14.0625-7.96875L10.1172-7.96875C9.57031-7.96875 9.19922-7.59766 9.19922-7.05078Z"/>
  </g>
  <text style="stroke:none;fill:black;font-family:sans-serif;font-size:13;font-weight:bold;" transform="matrix(1 0 0 1 263 1953)">Design Variations</text>
  <text style="stroke:none;fill:black;font-family:sans-serif;font-size:13;" transform="matrix(1 0 0 1 263 1971)">Symbols are supported in up to nine weights and three scales.</text>
  <text style="stroke:none;fill:black;font-family:sans-serif;font-size:13;" transform="matrix(1 0 0 1 263 1989)">For optimal layout with text and other symbols, vertically align</text>
  <text style="stroke:none;fill:black;font-family:sans-serif;font-size:13;" transform="matrix(1 0 0 1 263 2007)">symbols with the adjacent text.</text>
  <line style="fill:none;stroke:#00AEEF;stroke-width:0.5;opacity:1.0;" x1="776" x2="776" y1="1919" y2="1933"/>
  <g transform="matrix(1 0 0 1 776 1933)">
   <path d="M3.31055 0.15625C3.82812 0.15625 4.08203-0.0390625 4.26758-0.585938L5.52734-4.0332L11.2891-4.0332L12.5488-0.585938C12.7344-0.0390625 12.9883 0.15625 13.4961 0.15625C14.0137 0.15625 14.3457-0.15625 14.3457-0.644531C14.3457-0.810547 14.3164-0.966797 14.2383-1.17188L9.6582-13.3691C9.43359-13.9648 9.0332-14.2676 8.4082-14.2676C7.80273-14.2676 7.39258-13.9746 7.17773-13.3789L2.59766-1.16211C2.51953-0.957031 2.49023-0.800781 2.49023-0.634766C2.49023-0.146484 2.80273 0.15625 3.31055 0.15625ZM6.00586-5.51758L8.37891-12.0898L8.42773-12.0898L10.8008-5.51758Z"/>
  </g>
  <line style="fill:none;stroke:#00AEEF;stroke-width:0.5;opacity:1.0;" x1="793.197" x2="793.197" y1="1919" y2="1933"/>
  <text style="stroke:none;fill:black;font-family:sans-serif;font-size:13;font-weight:bold;" transform="matrix(1 0 0 1 776 1953)">Margins</text>
  <text style="stroke:none;fill:black;font-family:sans-serif;font-size:13;" transform="matrix(1 0 0 1 776 1971)">Leading and trailing margins on the left and right side of each symbol</text>
  <text style="stroke:none;fill:black;font-family:sans-serif;font-size:13;" transform="matrix(1 0 0 1 776 1989)">can be adjusted by modifying the x-location of the margin guidelines.</text>
  <text style="stroke:none;fill:black;font-family:sans-serif;font-size:13;" transform="matrix(1 0 0 1 776 2007)">Modifications are automatically applied proportionally to all</text>
  <text style="stroke:none;fill:black;font-family:sans-serif;font-size:13;" transform="matrix(1 0 0 1 776 2025)">scales and weights.</text>
  <g transform="matrix(1 0 0 1 1289 1933)">
   <path d="M2.8418 1.86523L4.54102 3.57422C5.40039 4.44336 6.38672 4.38477 7.31445 3.35938L18.0078-8.42773L17.041-9.4043L6.42578 2.27539C6.07422 2.67578 5.74219 2.77344 5.27344 2.30469L4.10156 1.14258C3.63281 0.683594 3.74023 0.341797 4.14062-0.0195312L15.6152-10.8203L14.6387-11.7871L3.04688-0.898438C2.06055 0.0195312 1.98242 0.996094 2.8418 1.86523ZM9.25781-16.3281C8.83789-15.918 8.80859-15.3418 9.04297-14.9512C9.27734-14.5898 9.73633-14.3555 10.3809-14.5215C11.8457-14.8633 13.3691-14.9219 14.7949-13.9844L14.209-12.5293C13.8672-11.6992 14.043-11.1133 14.5801-10.5664L16.875-8.25195C17.3633-7.76367 17.7734-7.74414 18.3398-7.8418L19.4043-8.03711L20.0684-7.36328L20.0293-6.80664C19.9902-6.30859 20.1172-5.92773 20.6055-5.44922L21.3672-4.70703C21.8457-4.22852 22.4609-4.19922 22.9297-4.66797L25.8398-7.58789C26.3086-8.05664 26.2891-8.65234 25.8105-9.13086L25.0391-9.89258C24.5605-10.3711 24.1895-10.5273 23.7109-10.4883L23.1348-10.4395L22.4902-11.0742L22.7344-12.1973C22.8613-12.7637 22.7051-13.2031 22.1191-13.7891L19.9219-15.9766C16.582-19.2969 12.1484-19.2188 9.25781-16.3281ZM10.752-15.957C13.1836-17.7344 16.4746-17.4316 18.7012-15.2051L21.1328-12.793C21.3672-12.5586 21.4062-12.373 21.3379-12.0312L21.0156-10.5469L22.5195-9.0625L23.5059-9.12109C23.7598-9.13086 23.8379-9.11133 24.0332-8.91602L24.6094-8.33984L22.168-5.89844L21.5918-6.47461C21.3965-6.66992 21.3672-6.74805 21.377-7.01172L21.4453-7.98828L19.9512-9.47266L18.4277-9.21875C18.1055-9.15039 17.959-9.17969 17.7148-9.41406L15.7129-11.416C15.459-11.6504 15.4297-11.8164 15.5859-12.1875L16.4648-14.2773C14.9023-15.7324 12.8711-16.3574 10.8398-15.7617C10.6836-15.7227 10.625-15.8496 10.752-15.957Z"/>
  </g>
  <text style="stroke:none;fill:black;font-family:sans-serif;font-size:13;font-weight:bold;" transform="matrix(1 0 0 1 1289 1953)">Exporting</text>
  <text style="stroke:none;fill:black;font-family:sans-serif;font-size:13;" transform="matrix(1 0 0 1 1289 1971)">Symbols should be outlined when exporting to ensure the</text>
  <text style="stroke:none;fill:black;font-family:sans-serif;font-size:13;" transform="matrix(1 0 0 1 1289 1989)">design is preserved when submitting to Xcode.</text>
  <text id="template-version" style="stroke:none;fill:black;font-family:sans-serif;font-size:13;text-anchor:end;" transform="matrix(1 0 0 1 3036 1933)">Template v.4.0</text>
  <text style="stroke:none;fill:black;font-family:sans-serif;font-size:13;text-anchor:end;" transform="matrix(1 0 0 1 3036 1951)">Requires Xcode 14 or greater</text>
  <text id="descriptive-name" style="stroke:none;fill:black;font-family:sans-serif;font-size:13;text-anchor:end;" transform="matrix(1 0 0 1 3036 1969)">Generated from fossil.shell</text>
  <text style="stroke:none;fill:black;font-family:sans-serif;font-size:13;text-anchor:end;" transform="matrix(1 0 0 1 3036 1987)">Typeset at 100 points</text>
  <text style="stroke:none;fill:black;font-family:sans-serif;font-size:13;" transform="matrix(1 0 0 1 263 726)">Small</text>
  <text style="stroke:none;fill:black;font-family:sans-serif;font-size:13;" transform="matrix(1 0 0 1 263 1156)">Medium</text>
  <text style="stroke:none;fill:black;font-family:sans-serif;font-size:13;" transform="matrix(1 0 0 1 263 1586)">Large</text>
 </g>
 <g id="Guides">
  <g id="H-reference" style="fill:#27AAE1;stroke:none;" transform="matrix(1 0 0 1 339 696)">
   <path d="M0.993654 0L3.63775 0L29.3281-67.1323L30.0303-67.1323L30.0303-70.459L28.1226-70.459ZM11.6885-24.4799L46.9815-24.4799L46.2315-26.7285L12.4385-26.7285ZM55.1196 0L57.7637 0L30.6382-70.459L29.4326-70.459L29.4326-67.1323Z"/>
  </g>
  <line id="Baseline-S" style="fill:none;stroke:#27AAE1;opacity:1;stroke-width:0.5;" x1="263" x2="3036" y1="696" y2="696"/>
  <line id="Capline-S" style="fill:none;stroke:#27AAE1;opacity:1;stroke-width:0.5;" x1="263" x2="3036" y1="625.541" y2="625.541"/>
  <g id="H-reference" style="fill:#27AAE1;stroke:none;" transform="matrix(1 0 0 1 339 1126)">
   <path d="M0.993654 0L3.63775 0L29.3281-67.1323L30.0303-67.1323L30.0303-70.459L28.1226-70.459ZM11.6885-24.4799L46.9815-24.4799L46.2315-26.7285L12.4385-26.7285ZM55.1196 0L57.7637 0L30.6382-70.459L29.4326-70.459L29.4326-67.1323Z"/>
  </g>
  <line id="Baseline-M" style="fill:none;stroke:#27AAE1;opacity:1;stroke-width:0.5;" x1="263" x2="3036" y1="1126" y2="1126"/>
  <line id="Capline-M" style="fill:none;stroke:#27AAE1;opacity:1;stroke-width:0.5;" x1="263" x2="3036" y1="1055.54" y2="1055.54"/>
  <g id="H-reference" style="fill:#27AAE1;stroke:none;" transform="matrix(1 0 0 1 339 1556)">
   <path d="M0.993654 0L3.63775 0L29.3281-67.1323L30.0303-67.1323L30.0303-70.459L28.1226-70.459ZM11.6885-24.4799L46.9815-24.4799L46.2315-26.7285L12.4385-26.7285ZM55.1196 0L57.7637 0L30.6382-70.459L29.4326-70.459L29.4326-67.1323Z"/>
  </g>
  <line id="Baseline-L" style="fill:none;stroke:#27AAE1;opacity:1;stroke-width:0.5;" x1="263" x2="3036" y1="1556" y2="1556"/>
  <line id="Capline-L" style="fill:none;stroke:#27AAE1;opacity:1;stroke-width:0.5;" x1="263" x2="3036" y1="1485.54" y2="1485.54"/>
  <line id="left-margin-Regular-M" style="fill:none;stroke:#00AEEF;stroke-width:0.5;opacity:1.0;" x1="1377.48" x2="1377.48" y1="1030.79" y2="1150.12"/>
  <line id="right-margin-Regular-M" style="fill:none;stroke:#00AEEF;stroke-width:0.5;opacity:1.0;" x1="1522.21" x2="1522.21" y1="1030.79" y2="1150.12"/>
 </g>
 <g id="Symbols">
  <g id="Black-L" transform="matrix(1 0 0 1 2832.15 1556)">
   <path d="M96.203 35.8966C144.345 35.8966 181.061 2.68696 190.948-41.416C192.612-48.8793 187.378-54.9843 179.654-54.9843L115.54-54.9843L115.54-36.5802L181.853-36.5802L173.198-45.5191C164.33-8.08815 134.98 17.5509 96.203 17.5509C56.8305 17.5509 29.5824-6.51538 29.5824-40.8331C29.5824-67.5859 49.2108-87.9295 74.5516-87.9295C93.9108-87.9295 108.677-74.2755 108.677-56.4143C108.677-39.9932 96.889-31.3165 85.7045-31.3165C75.7414-31.3165 67.0531-38.0794 67.0531-48.3629C67.0531-55.9922 71.969-61.8268 79.1499-61.8268C84.8456-61.8268 88.0154-58.5276 88.0154-54.7516C88.0154-51.4613 86.0226-49.3804 83.3901-49.3804C81.8897-49.3804 81.0748-49.8758 79.9606-50.5268C79.1636-51.1042 78.2445-51.5544 76.74-51.5544C73.8065-51.5544 71.7695-49.3139 71.7695-46.2225C71.7695-41.9754 75.8793-36.7587 83.4437-36.7587C92.6724-36.7587 100.228-43.5288 100.228-54.1675C100.228-65.2215 90.9264-74.0397 79.1499-74.0397C65.9478-74.0397 54.1977-62.8017 54.1977-47.7204C54.1977-29.8682 68.4451-15.7744 86.931-15.7744C116.788-15.7744 127.023-42.7102 127.023-56.4143C127.023-84.6142 104.25-106.275 74.5516-106.275C38.9525-106.275 11.2588-77.9038 11.2588-40.8331C11.2588 4.21255 46.1205 35.8966 96.203 35.8966ZM110.559-90.2446L85.5295-68.0563L93.1962-59.5684L118.11-81.5826ZM70.5229-102.048L70.5229-68.3506L82.0032-68.3506L82.0032-102.048ZM34.1866-84.5537L59.9754-58.6857L67.35-67.4864L42.2645-92.6512ZM22.4504-43.68L59.6665-43.68L59.6665-55.1019L22.4504-55.1019ZM38.9397 3.99328L71.4164-28.5407L63.2605-36.6382L30.8081-4.08582ZM79.7666 27.217L91.2105 27.217L91.2105-24.2228L79.7666-24.2228ZM141.68 13.8768L149.835 5.80011L107.644-36.5475L99.5088-28.45Z"/>
  </g>
  <g id="Heavy-L" transform="matrix(1 0 0 1 2537.37 1556)">
   <path d="M94.1081 34.3392C141.399 34.3392 177.389 1.77761 187.112-41.597C188.63-48.3681 183.952-53.8405 176.915-53.8405L113.77-53.8405L113.77-37.5449L178.88-37.5449L171.387-45.1399C162.505-7.65789 132.885 18.0883 94.1081 18.0883C54.6291 18.0883 27.474-6.17612 27.474-40.7917C27.474-68.0248 47.3131-88.4668 73.0493-88.4668C92.7594-88.4668 107.589-74.7961 107.589-56.6624C107.589-40.3598 96.1925-31.0135 84.3511-31.0135C73.9358-31.0135 65.3444-38.0202 65.3444-48.2526C65.3444-55.9781 70.3658-61.8817 77.6063-61.8817C83.3849-61.8817 86.6784-58.508 86.6784-54.4621C86.6784-51.0625 84.616-48.8569 81.8328-48.8569C80.0566-48.8569 79.2019-49.5481 78.1847-50.3485C77.4142-51.0605 76.5029-51.5801 74.9637-51.5801C72.2663-51.5801 70.2393-49.5023 70.2393-46.4558C70.2393-42.2374 74.2857-36.9789 81.8549-36.9789C90.89-36.9789 98.244-43.642 98.244-54.0159C98.244-64.8536 89.1622-73.4472 77.6063-73.4472C64.6387-73.4472 53.288-62.4073 53.288-47.7618C53.288-30.52 67.1251-16.9044 85.2881-16.9044C113.741-16.9044 123.84-42.5274 123.84-56.6624C123.84-83.9788 101.942-104.718 73.0493-104.718C38.2109-104.718 11.2588-77.1773 11.2588-40.7917C11.2588 3.29436 45.1484 34.3392 94.1081 34.3392ZM107.995-89.5721L83.4499-67.1832L90.5004-59.4911L114.962-81.7518ZM69.2486-100.999L69.2486-67.3358L79.7118-67.3358L79.7118-100.999ZM33.6771-84.1534L59.2215-58.5342L66.0489-66.4795L41.0512-91.5521ZM21.474-43.7979L58.5552-43.7979L58.5552-54.2164L21.474-54.2164ZM37.2603 3.18323L69.2311-28.8266L61.7878-36.2252L29.864-4.19648ZM78.5162 26.3821L88.9705 26.3821L88.9705-24.101L78.5162-24.101ZM139.555 13.0773L146.998 5.70886L105.493-35.9347L98.0795-28.5361Z"/>
  </g>
  <g id="Bold-L" transform="matrix(1 0 0 1 2242.96 1556)">
   <path d="M91.6227 32.4553C137.906 32.4553 173.012 0.685427 182.542-41.8422C183.876-47.7454 179.896-52.4191 173.727-52.4191L111.609-52.4191L111.609-38.7658L175.43-38.7658L169.374-44.7531C160.477-7.0829 130.467 18.8312 91.6227 18.8312C51.9683 18.8312 24.8316-5.71632 24.8316-40.7454C24.8316-68.548 44.9842-89.2098 71.2271-89.2098C91.375-89.2098 106.37-75.4267 106.37-56.9399C106.37-40.7162 95.3169-30.5327 82.6685-30.5327C71.7072-30.5327 63.1492-37.8764 63.1492-48.1293C63.1492-56.0372 68.3609-62.0849 75.7378-62.0849C81.6759-62.0849 85.1827-58.5743 85.1827-54.1383C85.1827-50.5334 82.9836-48.1294 79.9488-48.1294C77.7971-48.1294 76.8739-49.0663 75.9572-50.0661C75.2324-50.9098 74.3512-51.4991 72.8107-51.4991C70.4202-51.4991 68.4607-49.6435 68.4607-46.7328C68.4607-42.5974 72.4227-37.3672 79.9251-37.3672C88.6846-37.3672 95.7404-43.8624 95.7404-53.8463C95.7404-64.3778 86.9798-72.6426 75.7378-72.6426C63.0993-72.6426 52.2703-61.8858 52.2703-47.808C52.2703-31.3269 65.6002-18.3104 83.2817-18.3104C109.864-18.3104 119.994-42.1703 119.994-56.9399C119.994-83.1503 99.0986-102.834 71.2271-102.834C37.3411-102.834 11.2588-76.2336 11.2588-40.7454C11.2588 2.18695 44.0315 32.4553 91.6227 32.4553ZM104.918-88.6378L81.1663-66.2786L87.3964-59.6L111.103-81.8848ZM67.7776-99.7082L67.7776-66.3291L76.921-66.3291L76.921-99.7082ZM33.0992-83.7137L58.314-58.4316L64.3981-65.2943L39.5602-90.1994ZM20.1408-43.8842L57.1648-43.8842L57.1648-52.9985L20.1408-52.9985ZM35.1407 2.22889L66.6231-29.2695L60.1082-35.7552L28.7034-4.24533ZM77.1281 25.4269L86.2935 25.4269L86.2935-23.9996L77.1281-23.9996ZM137.143 12.183L143.658 5.73526L102.893-35.1368L96.4165-28.6511Z"/>
  </g>
  <g id="Semibold-L" transform="matrix(1 0 0 1 1947.83 1556)">
   <path d="M89.9094 31.1565C135.498 31.1565 169.994-0.0675175 179.391-42.0113C180.598-47.3161 177.101-51.4392 171.53-51.4392L110.12-51.4392L110.12-39.6075L173.052-39.6075L167.986-44.4865C159.078-6.68651 128.8 19.3434 89.9094 19.3434C50.1341 19.3434 23.01-5.39933 23.01-40.7136C23.01-68.9086 43.3787-89.722 69.9708-89.722C90.4206-89.722 105.531-75.8613 105.531-57.1313C105.531-40.962 94.7133-30.2012 81.5085-30.2012C70.1709-30.2012 61.6359-37.7773 61.6359-48.0442C61.6359-56.0779 66.9787-62.225 74.4496-62.225C80.4978-62.225 84.1516-58.62 84.1516-53.9151C84.1516-50.1686 81.8582-47.6278 78.65-47.6278C76.2395-47.6278 75.269-48.7342 74.4216-49.8714C73.7283-50.8059 72.8678-51.4432 71.3265-51.4432C69.1476-51.4432 67.2345-49.7408 67.2345-46.9237C67.2345-42.8456 71.1384-37.6349 78.5947-37.6349C87.1643-37.6349 94.0145-44.0143 94.0145-53.7293C94.0145-64.0498 85.4754-72.0879 74.4496-72.0879C62.0381-72.0879 51.5687-61.5263 51.5687-47.8399C51.5687-31.8831 64.549-19.2796 81.8985-19.2796C107.191-19.2796 117.344-41.9241 117.344-57.1313C117.344-82.579 97.1383-101.535 69.9708-101.535C36.7414-101.535 11.2588-75.583 11.2588-40.7136C11.2588 1.4235 43.2616 31.1565 89.9094 31.1565ZM102.797-87.9937L79.5921-65.655L85.2566-59.675L108.443-81.9765ZM66.7635-98.8181L66.7635-65.6351L74.9971-65.6351L74.9971-98.8181ZM32.7007-83.4105L57.6884-58.3609L63.26-64.4772L38.5322-89.2669ZM19.2217-43.9438L56.2063-43.9438L56.2063-52.1588L19.2217-52.1588ZM33.6795 1.57098L64.8252-29.5748L58.9503-35.4312L27.9034-4.27901ZM76.1711 24.7683L84.448 24.7683L84.448-23.9297L76.1711-23.9297ZM135.48 11.5665L141.355 5.75346L101.102-34.5867L95.27-28.7303Z"/>
  </g>
  <g id="Medium-L" transform="matrix(1 0 0 1 1652.32 1556)">
   <path d="M88.6102 30.1717C133.671 30.1717 167.706-0.638432 177.003-42.1394C178.113-46.9905 174.981-50.6962 169.863-50.6962L108.991-50.6962L108.991-40.2457L171.248-40.2457L166.934-44.2843C158.018-6.38594 127.536 19.7317 88.6102 19.7317C48.7433 19.7317 21.6288-5.15897 21.6288-40.6894C21.6288-69.1821 42.1613-90.1103 69.0182-90.1103C89.6969-90.1103 104.894-76.1909 104.894-57.2764C104.894-41.1484 94.2556-29.9499 80.629-29.9499C69.0059-29.9499 60.4884-37.7021 60.4884-47.9797C60.4884-56.1088 65.9306-62.3313 73.4729-62.3313C79.6044-62.3313 83.3698-58.6547 83.3698-53.7458C83.3698-49.892 81.0049-47.2475 77.6652-47.2475C75.0584-47.2475 74.0521-48.4824 73.2572-49.7238C72.5878-50.7271 71.7431-51.4009 70.2011-51.4009C68.1826-51.4009 66.3048-49.8146 66.3048-47.0685C66.3048-43.0338 70.1646-37.8379 77.5859-37.8379C86.0115-37.8379 92.7058-44.1294 92.7058-53.6407C92.7058-63.8011 84.3346-71.6673 73.4729-71.6673C61.2335-71.6673 51.0367-61.2537 51.0367-47.8641C51.0367-32.3048 63.7519-20.0146 80.8497-20.0146C105.164-20.0146 115.334-41.7375 115.334-57.2764C115.334-82.1459 95.6519-100.55 69.0182-100.55C36.2867-100.55 11.2588-75.0896 11.2588-40.6894C11.2588 0.84462 42.6777 30.1717 88.6102 30.1717ZM101.189-87.5053L78.3984-65.1822L83.6341-59.732L106.426-82.046ZM65.9946-98.1432L65.9946-65.1089L73.5383-65.1089L73.5383-98.1432ZM32.3986-83.1807L57.214-58.3073L62.3971-63.8576L37.7528-88.5598ZM18.5249-43.9889L55.4795-43.9889L55.4795-51.5221L18.5249-51.5221ZM32.5716 1.07213L63.462-29.8063L58.0723-35.1855L27.2967-4.30454ZM75.4455 24.269L83.0486 24.269L83.0486-23.8767L75.4455-23.8767ZM134.219 11.099L139.609 5.76726L99.7429-34.1696L94.4006-28.7905Z"/>
  </g>
  <g id="Regular-L" transform="matrix(1 0 0 1 1357.18 1556)">
   <path d="M86.9157 28.8872C131.29 28.8872 164.721-1.3831 173.887-42.3066C174.872-46.566 172.216-49.727 167.69-49.727L107.518-49.727L107.518-41.0782L168.896-41.0782L165.562-44.0206C156.635-5.99391 125.887 20.2383 86.9157 20.2383C46.9291 20.2383 19.8272-4.84547 19.8272-40.6578C19.8272-69.5388 40.5734-90.6169 67.7757-90.6169C88.753-90.6169 104.063-76.6208 104.063-57.4656C104.063-41.3914 93.6586-29.6221 79.4818-29.6221C67.4864-29.6221 58.9917-37.604 58.9917-47.8956C58.9917-56.1491 64.5637-62.4699 72.1988-62.4699C78.4392-62.4699 82.35-58.7 82.35-53.525C82.35-49.5313 79.8919-46.7515 76.3807-46.7515C73.5179-46.7515 72.4648-48.154 71.7385-49.5313C71.1002-50.6244 70.276-51.3456 68.7331-51.3456C66.9239-51.3456 65.0921-49.9108 65.0921-47.2574C65.0921-43.2793 68.8944-38.1026 76.2701-38.1026C84.5078-38.1026 90.9989-44.2797 90.9989-53.525C90.9989-63.4767 82.8466-71.1187 72.1988-71.1187C60.1839-71.1187 50.3429-60.8982 50.3429-47.8956C50.3429-32.8549 62.7122-20.9732 79.4818-20.9732C102.521-20.9732 112.712-41.494 112.712-57.4656C112.712-81.581 93.7131-99.2657 67.7757-99.2657C35.6937-99.2657 11.2588-74.4462 11.2588-40.6578C11.2588 0.0895626 41.9162 28.8872 86.9157 28.8872ZM99.0915-86.8683L76.8414-64.5655L81.5177-59.8062L103.795-82.1367ZM64.9917-97.2629L64.9917-64.4225L71.6355-64.4225L71.6355-97.2629ZM32.0046-82.8808L56.5952-58.2374L61.2715-63.0495L36.7362-87.6376ZM17.6159-44.0478L54.5316-44.0478L54.5316-50.6917L17.6159-50.6917ZM31.1264 0.421443L61.6838-30.1083L56.9271-34.8651L26.5054-4.33784ZM74.4991 23.6177L81.2233 23.6177L81.2233-23.8075L74.4991-23.8075ZM132.575 10.4892L137.331 5.78526L97.9707-33.6256L93.2667-28.8689Z"/>
  </g>
  <g id="Light-L" transform="matrix(1 0 0 1 1061.48 1556)">
   <path d="M85.9042 27.8756C129.877 27.8756 162.794-1.91749 171.902-42.612C172.734-46.2033 170.632-48.7155 166.812-48.7155L106.239-48.7155L106.239-42.0897L168.018-42.0897L165.657-44.2878C156.731-5.32592 125.353 21.2498 85.9042 21.2498C45.5168 21.2498 17.8042-4.27291 17.8042-40.6578C17.8042-69.7678 39.1038-91.6284 66.7642-91.6284C88.0659-91.6284 104.063-76.9644 104.063-57.4656C104.063-41.0097 92.9715-28.6105 78.2794-28.6105C65.9978-28.6105 56.9687-37.0506 56.9687-47.8956C56.9687-56.6835 63.0559-63.4814 71.1873-63.4814C77.9048-63.4814 82.35-59.3298 82.35-53.525C82.35-48.9396 79.472-45.74 75.3692-45.74C72.0293-45.74 70.8044-47.3333 70.0208-48.9396C69.4971-49.8992 68.8255-50.5631 67.5499-50.5631C66.046-50.5631 64.6149-49.4146 64.6149-47.3719C64.6149-43.7565 68.3218-39.1142 75.1822-39.1142C83.0001-39.1142 88.9758-44.9477 88.9758-53.525C88.9758-63.0186 81.358-70.1072 71.1873-70.1072C59.6495-70.1072 50.3429-60.3256 50.3429-47.8956C50.3429-33.4084 62.3687-21.9847 78.2794-21.9847C99.1808-21.9847 110.689-40.4061 110.689-57.4656C110.689-80.7412 91.8428-98.2542 66.7642-98.2542C35.4074-98.2542 11.2588-73.511 11.2588-40.6578C11.2588-0.482996 41.7063 27.8756 85.9042 27.8756ZM97.6028-85.5705L77.1468-65.0808L80.8879-61.1994L101.391-81.7359ZM64.6672-96.4231L64.6672-65.3386L70.0133-65.3386L70.0133-96.4231ZM31.9473-82.9381L56.1372-58.7146L59.8783-62.6296L35.7819-86.7597ZM15.8982-43.7234L53.4819-43.7234L53.4819-49.0694L15.8982-49.0694ZM29.4088 0.0779077L60.5196-30.9862L56.6981-34.8078L25.7611-3.80346ZM74.5754 23.465L80.0019 23.465L80.0019-24.0556L74.5754-24.0556ZM132.326 10.4892L136.148 6.70135L96.5965-32.824L92.8087-29.0025Z"/>
  </g>
  <g id="Thin-L" transform="matrix(1 0 0 1 766.106 1556)">
   <path d="M84.5664 26.5378C128.009 26.5378 160.244-2.62426 169.277-43.0159C169.907-45.7237 168.537-47.3777 165.651-47.3777L104.548-47.3777L104.548-43.4275L166.857-43.4275L165.784-44.6411C156.857-4.44246 124.646 22.5876 84.5664 22.5876C43.6489 22.5876 15.1286-3.51566 15.1286-40.6578C15.1286-70.0707 37.1602-92.9662 65.4264-92.9662C87.1572-92.9662 104.063-77.4187 104.063-57.4656C104.063-40.5049 92.0628-27.2727 76.6891-27.2727C64.0289-27.2727 54.2931-36.3185 54.2931-47.8956C54.2931-57.3902 61.0618-64.8192 69.8495-64.8192C77.1981-64.8192 82.35-60.1627 82.35-53.525C82.35-48.1572 78.9167-44.4022 74.0313-44.4022C70.0604-44.4022 68.6084-46.2479 67.749-48.1572C67.3768-48.94 66.9072-49.5282 65.9849-49.5282C64.8848-49.5282 63.9839-48.7583 63.9839-47.5233C63.9839-44.3875 67.5646-40.452 73.7434-40.452C81.006-40.452 86.3002-45.8311 86.3002-53.525C86.3002-62.4128 79.3891-68.7694 69.8495-68.7694C58.9428-68.7694 50.3429-59.5683 50.3429-47.8956C50.3429-34.1404 61.9144-23.3225 76.6891-23.3225C94.7634-23.3225 108.014-38.9674 108.014-57.4656C108.014-79.6306 89.3691-96.9164 65.4264-96.9164C35.0288-96.9164 11.2588-72.2741 11.2588-40.6578C11.2588-1.24025 41.4286 26.5378 84.5664 26.5378ZM95.6339-83.8541L77.5507-65.7623L80.055-63.0421L98.2102-81.2058ZM64.2381-95.3125L64.2381-66.5502L67.8677-66.5502L67.8677-95.3125ZM31.8716-83.0138L55.5314-59.3456L58.0357-62.0743L34.5199-85.5985ZM13.6264-43.2943L52.0936-43.2943L52.0936-46.9239L13.6264-46.9239ZM27.137-0.376445L58.9799-32.1474L56.3952-34.7321L24.7767-3.09669ZM74.6764 23.2631L78.3864 23.2631L78.3864-24.3838L74.6764-24.3838ZM131.998 10.4892L134.583 7.91296L94.7791-31.7639L92.2029-29.1792Z"/>
  </g>
  <g id="Ultralight-L" transform="matrix(1 0 0 1 470.08 1556)">
   <path d="M83.8811 25.8526C127.053 25.8526 158.939-2.98627 167.932-43.2227C168.459-45.4781 167.463-46.6925 165.056-46.6925L103.682-46.6925L103.682-44.1127L166.263-44.1127L165.848-44.8221C156.922-3.98995 124.284 23.2728 83.8811 23.2728C42.6922 23.2728 13.7581-3.1278 13.7581-40.6578C13.7581-70.2259 36.1647-93.6514 64.7412-93.6514C86.6918-93.6514 104.063-77.6514 104.063-57.4656C104.063-40.2463 91.5974-26.5875 75.8746-26.5875C63.0205-26.5875 52.9226-35.9436 52.9226-47.8956C52.9226-57.7522 60.0404-65.5044 69.1643-65.5044C76.8361-65.5044 82.35-60.5894 82.35-53.525C82.35-47.7564 78.6323-43.7169 73.3461-43.7169C69.052-43.7169 67.4836-45.692 66.5855-47.7564C66.2907-48.4487 65.9246-48.9982 65.1833-48.9982C64.2901-48.9982 63.6607-48.4222 63.6607-47.6009C63.6607-44.7107 67.1767-41.1372 73.0065-41.1372C79.9846-41.1372 84.9297-46.2836 84.9297-53.525C84.9297-62.1026 78.3807-68.0842 69.1643-68.0842C58.5808-68.0842 50.3429-59.1805 50.3429-47.8956C50.3429-34.5154 61.6816-24.0078 75.8746-24.0078C92.5009-24.0078 106.643-38.2304 106.643-57.4656C106.643-79.0617 88.1021-96.2312 64.7412-96.2312C34.8349-96.2312 11.2588-71.6406 11.2588-40.6578C11.2588-1.62811 41.2864 25.8526 83.8811 25.8526ZM94.6255-82.9749L77.7575-66.1114L79.6283-63.9859L96.5812-80.9343ZM64.0183-94.7436L64.0183-67.1708L66.7688-67.1708L66.7688-94.7436ZM31.8328-83.0526L55.2211-59.6688L57.0919-61.7899L33.8734-85.0038ZM12.4629-43.0745L51.3825-43.0745L51.3825-45.8249L12.4629-45.8249ZM25.9734-0.609162L58.1912-32.7421L56.24-34.6933L24.2724-2.73468ZM74.7281 23.1596L77.559 23.1596L77.559-24.5518L74.7281-24.5518ZM131.83 10.4892L133.781 8.53354L93.8483-31.2209L91.8926-29.2697Z"/>
  </g>
  <g id="Black-M" transform="matrix(1 0 0 1 2853.43 1126)">
   <path d="M76.1959 21.0762C114.17 21.0762 143.17-5.14491 150.964-39.9083C152.357-46.1948 147.9-51.3803 141.421-51.3803L90.8626-51.3803L90.8626-35.584L143.326-35.584L135.753-43.5635C128.894-14.4812 106.303 5.33698 76.1959 5.33698C45.7296 5.33698 24.4567-13.1975 24.4567-39.6063C24.4567-59.9511 39.5575-75.7337 58.9122-75.7337C73.6532-75.7337 85.1329-65.0792 85.1329-51.429C85.1329-38.5534 75.5696-32.3213 67.3991-32.3213C60.0302-32.3213 53.1433-37.4133 53.1433-45.4993C53.1433-51.3999 56.931-55.9254 62.5102-55.9254C66.9164-55.9254 69.3383-53.3818 69.3383-50.6028C69.3383-48.0675 67.7974-46.5057 65.8072-46.5057C64.8172-46.5057 64.1967-46.7471 63.2423-47.154C62.6176-47.4677 61.9196-47.749 60.82-47.749C58.3857-47.749 56.8532-45.9121 56.8532-43.5613C56.8532-40.2952 60.0789-36.3619 65.8654-36.3619C73.1248-36.3619 79.0825-41.6525 79.0825-50.0319C79.0825-58.7197 71.7591-65.6695 62.5102-65.6695C52.1452-65.6695 42.7711-56.8522 42.7711-44.8712C42.7711-30.5906 54.1153-19.3227 68.5981-19.3227C92.6472-19.3227 100.872-41.0349 100.872-51.429C100.872-73.9223 82.4962-91.4729 58.9122-91.4729C30.7768-91.4729 8.72266-68.7886 8.72266-39.6063C8.72266-3.96055 36.5385 21.0762 76.1959 21.0762ZM87.6562-78.2541L68.092-61.4821L74.4345-54.3411L93.8842-70.9415ZM55.6882-87.7846L55.6882-61.8861L65.2808-61.8861L65.2808-87.7846ZM26.9159-73.7948L47.0513-53.5968L53.1083-61.0288L33.6575-80.5422ZM17.9997-41.6311L47.039-41.6311L47.039-51.1666L17.9997-51.1666ZM31.3788-4.19233L57.0498-29.9207L50.2453-36.6681L24.5789-10.9337ZM62.8836 13.8472L72.4242 13.8472L72.4242-26.8404L62.8836-26.8404ZM111.558 3.50231L118.362-3.2396L85.0589-36.6687L78.2599-29.9213Z"/>
  </g>
  <g id="Heavy-M" transform="matrix(1 0 0 1 2558.52 1126)">
   <path d="M74.2413 19.6471C111.421 19.6471 139.758-5.98456 147.397-40.057C148.662-45.7285 144.696-50.3555 138.824-50.3555L89.2495-50.3555L89.2495-36.4337L140.5-36.4337L133.974-43.1681C127.102-14.1222 104.304 5.76894 74.2413 5.76894C43.7078 5.76894 22.5822-12.9186 22.5822-39.5659C22.5822-60.3591 37.8379-76.1656 57.537-76.1656C72.5909-76.1656 84.0684-65.5565 84.0684-51.6715C84.0684-38.9469 74.952-32.1184 66.187-32.1184C58.4024-32.1184 51.6595-37.4065 51.6595-45.3915C51.6595-51.3367 55.5028-55.8857 61.0946-55.8857C65.5377-55.8857 68.0313-53.3045 68.0313-50.3199C68.0313-47.7322 66.461-46.0872 64.3781-46.0872C63.1625-46.0872 62.519-46.5024 61.6647-47.0343C61.0553-47.4918 60.3508-47.8463 59.1927-47.8463C56.9611-47.8463 55.4014-46.142 55.4014-43.7788C55.4014-40.5074 58.5738-36.484 64.4126-36.484C71.5215-36.484 77.3292-41.7016 77.3292-49.8836C77.3292-58.4023 70.1717-65.1837 61.0946-65.1837C50.9147-65.1837 41.8818-56.5195 41.8818-44.9116C41.8818-31.1768 52.8565-20.334 67.103-20.334C89.9764-20.334 97.9466-40.9565 97.9466-51.6715C97.9466-73.3786 80.413-90.0438 57.537-90.0438C30.0782-90.0438 8.72266-68.1648 8.72266-39.5659C8.72266-4.80532 35.6076 19.6471 74.2413 19.6471ZM85.2873-77.7164L66.0308-60.581L71.8573-54.137L91.0288-71.1438ZM54.4724-86.8366L54.4724-60.8095L63.1904-60.8095L63.1904-86.8366ZM26.4231-73.3982L46.3566-53.4047L51.9649-60.0832L32.5595-79.5487ZM17.2036-41.7763L46.0495-41.7763L46.0495-50.4507L17.2036-50.4507ZM29.8955-4.95252L55.0208-30.1191L48.8267-36.2696L23.7246-11.0912ZM61.6541 13.0452L70.3472 13.0452L70.3472-26.6985L61.6541-26.6985ZM109.503 2.72078L115.697-3.41331L83.0827-36.1436L76.905-29.9931Z"/>
  </g>
  <g id="Bold-M" transform="matrix(1 0 0 1 2263.81 1126)">
   <path d="M72.0548 18.0485C108.345 18.0485 135.942-6.92383 143.406-40.2234C144.528-45.2069 141.113-49.2091 135.919-49.2091L87.4451-49.2091L87.4451-37.3841L137.339-37.3841L131.983-42.7257C125.096-13.7207 102.069 6.25215 72.0548 6.25215C41.4462 6.25215 20.4853-12.6067 20.4853-39.5207C20.4853-60.8155 35.9144-76.6488 55.9987-76.6488C71.4027-76.6488 82.8776-66.0903 82.8776-51.9429C82.8776-39.3872 74.2612-31.8914 64.8311-31.8914C56.5815-31.8914 49.9997-37.3989 49.9997-45.2709C49.9997-51.266 53.9052-55.8414 59.5111-55.8414C63.9955-55.8414 66.5692-53.218 66.5692-50.0033C66.5692-47.3572 64.9661-45.6191 62.7795-45.6191C61.3115-45.6191 60.6422-46.2287 59.9-46.9004C59.3077-47.5188 58.5959-47.9551 57.3724-47.9551C55.3674-47.9551 53.7773-46.3993 53.7773-44.022C53.7773-40.7447 56.8903-36.6205 62.7875-36.6205C69.7279-36.6205 75.368-41.7564 75.368-49.7178C75.368-58.0472 68.3961-64.6402 59.5111-64.6402C49.5383-64.6402 40.8869-56.1473 40.8869-44.9568C40.8869-31.8325 51.4484-21.4654 65.4306-21.4654C86.9888-21.4654 94.6739-40.8688 94.6739-51.9429C94.6739-72.7704 78.0827-88.4452 55.9987-88.4452C29.2967-88.4452 8.72266-67.4669 8.72266-39.5207C8.72266-5.75031 34.5662 18.0485 72.0548 18.0485ZM82.6374-77.115L63.7251-59.5729L68.9743-53.9086L87.8346-71.3702ZM53.1124-85.7762L53.1124-59.6053L60.8521-59.6053L60.8521-85.7762ZM25.8719-72.9546L45.5795-53.1898L50.6859-59.0254L31.3312-78.4373ZM16.3131-41.9387L44.9425-41.9387L44.9425-49.6499L16.3131-49.6499ZM28.2363-5.80289L52.7511-30.3411L47.2398-35.8239L22.769-11.2673ZM60.2788 12.148L68.0237 12.148L68.0237-26.5397L60.2788-26.5397ZM107.205 1.84652L112.716-3.60764L80.872-35.5562L75.3893-30.0734Z"/>
  </g>
  <g id="Semibold-M" transform="matrix(1 0 0 1 1968.48 1126)">
   <path d="M70.5474 16.9464C106.225 16.9464 133.312-7.57136 140.655-40.3381C141.678-44.8473 138.642-48.4187 133.916-48.4187L86.201-48.4187L86.201-38.0394L135.159-38.0394L130.611-42.4208C123.713-13.4438 100.527 6.58527 70.5474 6.58527C39.887 6.58527 19.0397-12.3917 19.0397-39.4895C19.0397-61.1301 34.5883-76.9819 54.9381-76.9819C70.5835-76.9819 82.0566-66.4583 82.0566-52.1299C82.0566-39.6906 73.7849-31.735 63.8963-31.735C55.3262-31.735 48.8555-37.3937 48.8555-45.1877C48.8555-51.2173 52.8038-55.8108 58.4194-55.8108C62.9323-55.8108 65.5612-53.1583 65.5612-49.7851C65.5612-47.0986 63.9355-45.2964 61.6774-45.2964C60.0354-45.2964 59.3484-46.04 58.6834-46.8081C58.103-47.5374 57.3862-48.0302 56.1174-48.0302C54.2687-48.0302 52.6577-46.5766 52.6577-44.1897C52.6577-40.9083 55.7296-36.7146 61.6671-36.7146C68.4914-36.7146 74.0159-41.7943 74.0159-49.6035C74.0159-57.8025 67.1719-64.2655 58.4194-64.2655C48.5895-64.2655 40.2011-55.8907 40.2011-44.988C40.2011-32.2846 50.4777-22.2454 64.2776-22.2454C84.9291-22.2454 92.4178-40.8084 92.4178-52.1299C92.4178-72.3511 76.4763-87.3431 54.9381-87.3431C28.7579-87.3431 8.72266-66.9858 8.72266-39.4895C8.72266-6.40178 33.8483 16.9464 70.5474 16.9464ZM80.8106-76.7003L62.1356-58.8779L66.9868-53.7512L85.6326-71.5262ZM52.1748-85.0452L52.1748-58.7751L59.2401-58.7751L59.2401-85.0452ZM25.4919-72.6487L45.0438-53.0417L49.8042-58.2962L30.4844-77.6712ZM15.6992-42.0507L44.1794-42.0507L44.1794-49.0978L15.6992-49.0978ZM27.0924-6.38914L51.1864-30.4942L46.1458-35.5167L22.1102-11.3888ZM59.3307 11.5295L66.4219 11.5295L66.4219-26.4303L59.3307-26.4303ZM105.621 1.24381L110.661-3.7416L79.3479-35.1512L74.3444-30.1288Z"/>
  </g>
  <g id="Medium-M" transform="matrix(1 0 0 1 1672.82 1126)">
   <path d="M69.4044 16.1108C104.617 16.1108 131.317-8.06234 138.569-40.425C139.517-44.5746 136.769-47.8194 132.398-47.8194L85.2578-47.8194L85.2578-38.5362L133.507-38.5362L129.571-42.1896C122.665-13.2339 99.3587 6.83785 69.4044 6.83785C38.7048 6.83785 17.9435-12.2287 17.9435-39.4659C17.9435-61.3687 33.5829-77.2345 54.134-77.2345C69.9624-77.2345 81.4342-66.7374 81.4342-52.2717C81.4342-39.9208 73.4238-31.6163 63.1875-31.6163C54.3744-31.6163 47.9879-37.3897 47.9879-45.1247C47.9879-51.1804 51.9687-55.7876 57.5916-55.7876C62.1262-55.7876 64.7969-53.1131 64.7969-49.6196C64.7969-46.9026 63.1541-45.0517 60.8417-45.0517C59.0678-45.0517 58.3673-45.8969 57.7609-46.7381C57.1894-47.5515 56.4688-48.0871 55.1659-48.0871C53.4356-48.0871 51.8088-46.7111 51.8088-44.3169C51.8088-41.0323 54.8495-36.7859 60.8176-36.7859C67.5538-36.7859 72.9907-41.823 72.9907-49.5169C72.9907-57.6169 66.2438-63.9814 57.5916-63.9814C47.87-63.9814 39.681-55.6961 39.681-45.0116C39.681-32.6273 49.7416-22.8367 63.4033-22.8367C83.3674-22.8367 90.7071-40.7626 90.7071-52.2717C90.7071-72.0332 75.2582-86.5074 54.134-86.5074C28.3494-86.5074 8.72266-66.621 8.72266-39.4659C8.72266-6.89575 33.3039 16.1108 69.4044 16.1108ZM79.4254-76.3859L60.9303-58.351L65.4798-53.6319L83.9629-71.6445ZM51.4639-84.4909L51.4639-58.1456L58.0178-58.1456L58.0178-84.4909ZM25.2038-72.4168L44.6376-52.9293L49.1356-57.7433L29.8423-77.0903ZM15.2337-42.1356L43.6008-42.1356L43.6008-48.6792L15.2337-48.6792ZM26.2251-6.83365L50-30.6102L45.3163-35.2837L21.6106-11.4808ZM58.6118 11.0606L65.2074 11.0606L65.2074-26.3473L58.6118-26.3473ZM104.419 0.786809L109.103-3.84318L78.1923-34.8442L73.5521-30.1708Z"/>
  </g>
  <g id="Regular-M" transform="matrix(1 0 0 1 1377.48 1126)">
   <path d="M67.9136 15.0208C102.52 15.0208 128.715-8.70275 135.848-40.5384C136.699-44.219 134.325-47.0378 130.417-47.0378L84.0275-47.0378L84.0275-39.1843L131.351-39.1843L128.213-41.888C121.298-12.9601 97.8345 7.16731 67.9136 7.16731C37.1628 7.16731 16.5138-12.016 16.5138-39.4351C16.5138-61.6798 32.2714-77.564 53.0851-77.564C69.1522-77.564 80.6223-67.1013 80.6223-52.4567C80.6223-40.2209 72.9528-31.4616 62.263-31.4616C53.1329-31.4616 46.8562-37.3845 46.8562-45.0425C46.8562-51.1322 50.8794-55.7573 56.5119-55.7573C61.0747-55.7573 63.8-53.0541 63.8-49.4038C63.8-46.6468 62.1349-44.7325 59.7517-44.7325C57.8057-44.7325 57.0877-45.7103 56.5576-46.6468C55.9979-47.5699 55.2723-48.1613 53.9247-48.1613C52.349-48.1613 50.7015-46.8865 50.7015-44.4827C50.7015-41.1941 53.7016-36.879 59.7095-36.879C66.3309-36.879 71.6535-41.8604 71.6535-49.4038C71.6535-57.3748 65.0331-63.6108 56.5119-63.6108C46.9315-63.6108 39.0027-55.4424 39.0027-45.0425C39.0027-33.0744 48.7816-23.6081 62.263-23.6081C81.3303-23.6081 88.4757-40.7028 88.4757-52.4567C88.4757-71.6185 73.6693-85.4175 53.0851-85.4175C27.8165-85.4175 8.72266-66.1452 8.72266-39.4351C8.72266-7.54007 32.5939 15.0208 67.9136 15.0208ZM77.6186-75.9758L59.3583-57.6637L63.5141-53.4762L81.785-71.7988ZM50.5366-83.7679L50.5366-57.3245L56.4235-57.3245L56.4235-83.7679ZM24.8279-72.1144L44.1077-52.7828L48.2636-57.0221L29.0049-76.3325ZM14.6266-42.2463L42.8461-42.2463L42.8461-48.1331L14.6266-48.1331ZM25.0938-7.41345L48.4525-30.7616L44.2343-34.9798L20.959-11.601ZM57.674 10.4489L63.6232 10.4489L63.6232-26.239L57.674-26.239ZM102.852 0.190723L107.071-3.97568L76.6851-34.4437L72.5187-30.2255Z"/>
  </g>
  <g id="Light-M" transform="matrix(1 0 0 1 1081.67 1126)">
   <path d="M67.0068 14.1139C101.254 14.1139 126.987-9.18186 134.069-40.8122C134.782-43.8939 132.905-46.1309 129.63-46.1309L82.881-46.1309L82.881-40.0912L130.564-40.0912L128.299-42.1276C121.383-12.3612 97.3553 8.07419 67.0068 8.07419C35.8966 8.07419 14.7001-11.5027 14.7001-39.4351C14.7001-61.8852 30.9538-78.4709 52.1783-78.4709C68.5362-78.4709 80.6223-67.4093 80.6223-52.4567C80.6223-39.8787 72.3368-30.5547 61.185-30.5547C51.7982-30.5547 45.0424-36.8883 45.0424-45.0425C45.0424-51.6114 49.5276-56.6642 55.605-56.6642C60.5956-56.6642 63.8-53.6188 63.8-49.4038C63.8-46.1164 61.7584-43.8256 58.8449-43.8256C56.4711-43.8256 55.5991-44.9745 55.0176-46.1164C54.5606-46.9196 53.9719-47.4597 52.8639-47.4597C51.5619-47.4597 50.2737-46.4416 50.2737-44.5854C50.2737-41.6219 53.1883-37.7859 58.7342-37.7859C64.9792-37.7859 69.8397-42.4593 69.8397-49.4038C69.8397-56.9641 63.6984-62.7039 55.605-62.7039C46.4524-62.7039 39.0027-54.929 39.0027-45.0425C39.0027-33.5707 48.4736-24.515 61.185-24.515C78.3359-24.515 86.662-39.7275 86.662-52.4567C86.662-70.8656 71.9924-84.5106 52.1783-84.5106C27.5599-84.5106 8.72266-65.3068 8.72266-39.4351C8.72266-8.05339 32.4057 14.1139 67.0068 14.1139ZM76.284-74.8122L59.632-58.1257L62.9495-54.7253L79.629-71.4395ZM50.2458-83.015L50.2458-58.1458L54.969-58.1458L54.969-83.015ZM24.7766-72.1657L43.6971-53.2106L47.0145-56.6456L28.1493-75.5454ZM13.0866-41.9554L41.905-41.9554L41.905-46.6787L13.0866-46.6787ZM23.5538-7.72145L47.4087-31.5487L44.029-34.9284L20.2917-11.1219ZM57.7425 10.312L62.5281 10.312L62.5281-26.4615L57.7425-26.4615ZM102.63 0.190723L106.01-3.15435L75.4531-33.725L72.108-30.3453Z"/>
  </g>
  <g id="Thin-M" transform="matrix(1 0 0 1 786.16 1126)">
   <path d="M65.8073 12.9145C99.5795 12.9145 124.701-9.81552 131.715-41.1743C132.248-43.4639 131.027-44.9315 128.589-44.9315L81.3648-44.9315L81.3648-41.2906L129.523-41.2906L128.412-42.4444C121.496-11.5692 96.7217 9.27361 65.8073 9.27361C34.2219 9.27361 12.3012-10.8237 12.3012-39.4351C12.3012-62.1567 29.2113-79.6703 50.9788-79.6703C67.7215-79.6703 80.6223-67.8167 80.6223-52.4567C80.6223-39.4261 71.5221-29.3553 59.7593-29.3553C50.033-29.3553 42.6436-36.232 42.6436-45.0425C42.6436-52.245 47.7398-57.8637 54.4056-57.8637C59.9619-57.8637 63.8-54.3656 63.8-49.4038C63.8-45.4149 61.2606-42.6262 57.6454-42.6262C54.7059-42.6262 53.6302-44.0014 52.9809-45.4149C52.6596-46.0597 52.252-46.5319 51.4608-46.5319C50.5209-46.5319 49.7079-45.8532 49.7079-44.7212C49.7079-42.1877 52.5094-38.9853 57.4443-38.9853C63.1913-38.9853 67.4409-43.2514 67.4409-49.4038C67.4409-56.421 61.9332-61.5045 54.4056-61.5045C45.8188-61.5045 39.0027-54.2501 39.0027-45.0425C39.0027-34.2269 48.0662-25.7144 59.7593-25.7144C74.3756-25.7144 84.2631-38.4375 84.2631-52.4567C84.2631-69.8698 69.7746-83.3112 50.9788-83.3112C27.2204-83.3112 8.72266-64.1979 8.72266-39.4351C8.72266-8.73231 32.1567 12.9145 65.8073 12.9145ZM74.5188-73.2734L59.9941-58.7367L62.2026-56.3773L76.7776-70.9643ZM49.861-82.0193L49.861-59.2321L53.0454-59.2321L53.0454-82.0193ZM24.7087-72.2336L43.1539-53.7764L45.3624-56.1478L27.0178-74.5044ZM11.0498-41.5707L40.6603-41.5707L40.6603-44.7551L11.0498-44.7551ZM21.517-8.1288L46.0282-32.5897L43.7574-34.8605L19.4091-10.4882ZM57.833 10.131L61.0797 10.131L61.0797-26.7557L57.833-26.7557ZM102.336 0.190723L104.607-2.06809L73.8237-32.7745L71.5649-30.5037Z"/>
  </g>
  <g id="Ultralight-M" transform="matrix(1 0 0 1 490.063 1126)">
   <path d="M65.193 12.3001C98.7218 12.3001 123.53-10.1401 130.51-41.3598C130.949-43.2436 130.065-44.3171 128.055-44.3171L80.5882-44.3171L80.5882-41.9049L128.99-41.9049L128.47-42.6067C121.554-11.1635 96.3971 9.88795 65.193 9.88795C33.3641 9.88795 11.0725-10.476 11.0725-39.4351C11.0725-62.2958 28.3187-80.2846 50.3645-80.2846C67.3042-80.2846 80.6223-68.0253 80.6223-52.4567C80.6223-39.1943 71.1048-28.741 59.0291-28.741C49.1289-28.741 41.4149-35.8959 41.4149-45.0425C41.4149-52.5696 46.8241-58.478 53.7912-58.478C59.6374-58.478 63.8-54.7481 63.8-49.4038C63.8-45.0555 61.0055-42.0119 57.0311-42.0119C53.8018-42.0119 52.6218-43.503 51.9377-45.0555C51.6859-45.6192 51.371-46.0566 50.7421-46.0566C49.9877-46.0566 49.4181-45.5519 49.4181-44.7907C49.4181-42.4775 52.1616-39.5997 56.7836-39.5997C62.2756-39.5997 66.2122-43.657 66.2122-49.4038C66.2122-56.1428 61.0291-60.8902 53.7912-60.8902C45.4942-60.8902 39.0027-53.9024 39.0027-45.0425C39.0027-34.5631 47.8576-26.3288 59.0291-26.3288C72.3471-26.3288 83.0345-37.7768 83.0345-52.4567C83.0345-69.3598 68.6387-82.6968 50.3645-82.6968C27.0465-82.6968 8.72266-63.6299 8.72266-39.4351C8.72266-9.08005 32.0292 12.3001 65.193 12.3001ZM73.6147-72.4852L60.1796-59.0497L61.8201-57.2235L75.3171-70.7208ZM49.664-81.5092L49.664-59.7885L52.0602-59.7885L52.0602-81.5092ZM24.6739-72.2684L42.8757-54.0661L44.5163-55.8928L26.4382-73.9712ZM10.0066-41.3737L40.0228-41.3737L40.0228-43.7699L10.0066-43.7699ZM20.4738-8.33744L45.3212-33.1229L43.6183-34.8258L18.957-10.1636ZM57.8794 10.0382L60.3379 10.0382L60.3379-26.9063L57.8794-26.9063ZM102.185 0.190723L103.888-1.5117L72.9891-32.2877L71.2867-30.5848Z"/>
  </g>
  <g id="Black-S" transform="matrix(1 0 0 1 2870.24 696)">
   <path d="M60.2539 9.27734C90.2344 9.27734 113.135-11.4258 119.287-38.8672C120.41-43.9453 116.797-48.1445 111.572-48.1445L71.6309-48.1445L71.6309-35.3027L113.135-35.3027L106.934-41.8945C101.562-19.043 83.8867-3.51562 60.2539-3.51562C36.377-3.51562 19.6289-18.0176 19.6289-38.6719C19.6289-54.4922 31.4453-66.8945 46.5332-66.8945C58.0078-66.8945 67.041-58.4961 67.041-47.8516C67.041-37.6953 59.375-32.959 53.125-32.959C47.4609-32.959 41.9922-36.9141 41.9922-43.3105C41.9922-47.9492 44.9707-51.5137 49.3652-51.5137C52.832-51.5137 54.7363-49.5117 54.7363-47.3633C54.7363-45.3613 53.5156-44.1406 51.9531-44.1406C51.2207-44.1406 50.7324-44.2871 49.9512-44.5801C49.4629-44.7754 48.9258-44.9707 48.0957-44.9707C46.1426-44.9707 44.9707-43.5059 44.9707-41.6992C44.9707-39.1602 47.5098-36.1328 52.002-36.1328C57.7148-36.1328 62.4023-40.2832 62.4023-46.875C62.4023-53.7109 56.6406-59.1797 49.3652-59.1797C41.2109-59.1797 33.7891-52.2461 33.7891-42.7734C33.7891-31.4453 42.7734-22.5098 54.1504-22.5098C73.2422-22.5098 79.834-39.7461 79.834-47.8516C79.834-65.6738 65.1855-79.6875 46.5332-79.6875C24.3164-79.6875 6.83594-61.6699 6.83594-38.6719C6.83594-10.498 28.9062 9.27734 60.2539 9.27734ZM69.3359-69.043L54.0039-56.1035L59.082-50.3418L74.3164-63.1348ZM43.9941-76.6602L43.9941-56.4941L51.709-56.4941L51.709-76.6602ZM21.2402-65.5762L37.0605-49.707L41.8945-55.7129L26.6602-70.9961ZM14.2578-40.1855L37.1094-40.1855L37.1094-47.8516L14.2578-47.8516ZM24.9512-10.6934L45.2637-31.0547L39.7949-36.4746L19.4824-16.1133ZM49.6582 3.4668L57.3242 3.4668L57.3242-28.7109L49.6582-28.7109ZM88.0371-4.63867L93.5059-10.0586L67.1875-36.4746L61.7188-31.0547Z"/>
  </g>
  <g id="Heavy-S" transform="matrix(1 0 0 1 2574.95 696)">
   <path d="M58.6981 8.171C88.0447 8.171 110.438-12.0827 116.464-38.9594C117.494-43.5881 114.238-47.3839 109.452-47.3839L70.3977-47.3839L70.3977-35.9135L110.818-35.9135L105.401-41.5257C100.018-18.8125 82.2387-3.26209 58.6981-3.26209C34.8096-3.26209 18.2575-17.8447 18.2575-38.6373C18.2575-54.8149 30.143-67.1481 45.473-67.1481C57.1781-67.1481 66.1306-58.8649 66.1306-48.059C66.1306-38.0756 58.9255-32.9014 52.2261-32.9014C46.2393-32.9014 40.955-36.9717 40.955-43.2184C40.955-47.834 43.922-51.3639 48.2704-51.3639C51.7142-51.3639 53.6185-49.3734 53.6185-47.1213C53.6185-45.1424 52.4208-43.8986 50.8468-43.8986C49.9761-43.8986 49.4878-44.1719 48.7987-44.5455C48.3104-44.8791 47.7503-45.1436 46.8395-45.1436C45.0247-45.1436 43.7837-43.7594 43.7837-41.8721C43.7837-39.2869 46.2882-36.1213 50.8841-36.1213C56.5163-36.1213 61.1347-40.2486 61.1347-46.7482C61.1347-53.492 55.4536-58.8801 48.2704-58.8801C40.2198-58.8801 33.0284-52.0271 33.0284-42.808C33.0284-31.8832 41.7362-23.2589 53.0095-23.2589C71.3407-23.2589 77.5637-39.8037 77.5637-48.059C77.5637-65.305 63.6182-78.5812 45.473-78.5812C23.7517-78.5812 6.83594-61.2435 6.83594-38.6373C6.83594-11.1549 28.1341 8.171 58.6981 8.171ZM67.4805-68.7318L52.2061-55.2738L56.95-50.0076L72.1498-63.3537ZM42.9915-75.9456L42.9915-55.4685L50.1071-55.4685L50.1071-75.9456ZM20.8254-65.2304L36.5189-49.4881L41.0763-54.9523L25.8304-70.247ZM13.7738-40.3469L36.3833-40.3469L36.3833-47.4252L13.7738-47.4252ZM23.8794-11.3042L43.6618-31.1238L38.6079-36.1404L18.8371-16.3092ZM48.598 2.79838L55.6877 2.79838L55.6877-28.5611L48.598-28.5611ZM86.3084-5.30709L91.3623-10.3121L65.6547-36.1174L60.6124-31.1008Z"/>
  </g>
  <g id="Bold-S" transform="matrix(1 0 0 1 2279.82 696)">
   <path d="M56.958 6.93359C85.5957 6.93359 107.422-12.8174 113.306-39.0625C114.233-43.1885 111.377-46.5332 107.08-46.5332L69.0186-46.5332L69.0186-36.5967L108.228-36.5967L103.687-41.1133C98.291-18.5547 80.3955-2.97852 56.958-2.97852C33.0566-2.97852 16.7236-17.6514 16.7236-38.5986C16.7236-55.1758 28.6865-67.4316 44.2871-67.4316C56.25-67.4316 65.1123-59.2773 65.1123-48.291C65.1123-38.501 58.4229-32.8369 51.2207-32.8369C44.873-32.8369 39.7949-37.0361 39.7949-43.1152C39.7949-47.7051 42.749-51.1963 47.0459-51.1963C50.4639-51.1963 52.3682-49.2188 52.3682-46.8506C52.3682-44.8975 51.1963-43.6279 49.6094-43.6279C48.584-43.6279 48.0957-44.043 47.5098-44.5068C47.0215-44.9951 46.4355-45.3369 45.4346-45.3369C43.7744-45.3369 42.4561-44.043 42.4561-42.0654C42.4561-39.4287 44.9219-36.1084 49.6338-36.1084C55.1758-36.1084 59.7168-40.21 59.7168-46.6064C59.7168-53.2471 54.126-58.5449 47.0459-58.5449C39.1113-58.5449 32.1777-51.7822 32.1777-42.8467C32.1777-32.373 40.5762-24.0967 51.7334-24.0967C69.2139-24.0967 75.0244-39.8682 75.0244-48.291C75.0244-64.8926 61.8652-77.3438 44.2871-77.3438C23.1201-77.3438 6.83594-60.7666 6.83594-38.5986C6.83594-11.8896 27.2705 6.93359 56.958 6.93359ZM65.4053-68.3838L50.1953-54.3457L54.5654-49.6338L69.7266-63.5986ZM41.8701-75.1465L41.8701-54.3213L48.3154-54.3213L48.3154-75.1465ZM20.3613-64.8438L35.9131-49.2432L40.1611-54.1016L24.9023-69.4092ZM13.2324-40.5273L35.5713-40.5273L35.5713-46.9482L13.2324-46.9482ZM22.6807-11.9873L41.8701-31.2012L37.2803-35.7666L18.1152-16.5283ZM47.4121 2.05078L53.8574 2.05078L53.8574-28.3936L47.4121-28.3936ZM84.375-6.05469L88.9648-10.5957L63.9404-35.7178L59.375-31.1523Z"/>
  </g>
  <g id="Semibold-S" transform="matrix(1 0 0 1 1984.2 696)">
   <path d="M55.7583 6.08047C83.9072 6.08047 105.342-13.3239 111.128-39.1336C111.985-42.913 109.404-45.9467 105.445-45.9467L68.0677-45.9467L68.0677-37.0677L106.441-37.0677L102.505-40.8289C97.1002-18.377 79.1247-2.78301 55.7583-2.78301C31.848-2.78301 15.6661-17.5181 15.6661-38.572C15.6661-55.4246 27.6823-67.6271 43.4695-67.6271C55.6102-67.6271 64.4103-59.5617 64.4103-48.451C64.4103-38.7942 58.0763-32.7925 50.5275-32.7925C43.9311-32.7925 38.9951-37.0806 38.9951-43.0441C38.9951-47.6162 41.9403-51.0808 46.2017-51.0808C49.6019-51.0808 51.5062-49.1121 51.5062-46.664C51.5062-44.7286 50.3521-43.4413 48.7563-43.4413C47.6242-43.4413 47.1359-43.9541 46.6211-44.4802C46.1328-45.0751 45.5291-45.4702 44.4659-45.4702C42.9124-45.4702 41.5407-44.2385 41.5407-42.1987C41.5407-39.5265 43.9799-36.0995 48.7718-36.0995C54.2516-36.0995 58.7393-40.1833 58.7393-46.5087C58.7393-53.0782 53.2106-58.3139 46.2017-58.3139C38.3471-58.3139 31.5912-51.6134 31.5912-42.8733C31.5912-32.7107 39.7764-24.6743 50.8536-24.6743C67.7476-24.6743 73.2737-39.9126 73.2737-48.451C73.2737-64.6082 60.6566-76.4906 43.4695-76.4906C22.6847-76.4906 6.83594-60.4378 6.83594-38.572C6.83594-12.3962 26.6751 6.08047 55.7583 6.08047ZM63.9745-68.1438L48.809-53.7059L52.9214-49.3761L68.0559-63.7675ZM41.097-74.5955L41.097-53.5304L47.0802-53.5304L47.0802-74.5955ZM20.0414-64.5771L35.4954-49.0743L39.5302-53.515L24.2625-68.8315ZM12.8592-40.6518L35.0114-40.6518L35.0114-46.6194L12.8592-46.6194ZM21.8542-12.4583L40.6349-31.2545L36.3649-35.5089L17.6176-16.6794ZM46.5945 1.53535L52.5955 1.53535L52.5955-28.278L46.5945-28.278ZM83.042-6.57012L87.3119-10.7912L62.7585-35.4423L58.5219-31.1879Z"/>
  </g>
  <g id="Medium-S" transform="matrix(1 0 0 1 1688.32 696)">
   <path d="M54.8486 5.43359C82.627 5.43359 103.766-13.708 109.478-39.1875C110.28-42.7041 107.908-45.502 104.205-45.502L67.3467-45.502L67.3467-37.4248L105.087-37.4248L101.608-40.6133C96.1973-18.2422 78.1611-2.63477 54.8486-2.63477C30.9316-2.63477 14.8643-17.417 14.8643-38.5518C14.8643-55.6133 26.9209-67.7754 42.8496-67.7754C55.125-67.7754 63.8779-59.7773 63.8779-48.5723C63.8779-39.0166 57.8135-32.7588 50.002-32.7588C43.2168-32.7588 38.3887-37.1143 38.3887-42.9902C38.3887-47.5488 41.3271-50.9932 45.5615-50.9932C48.9482-50.9932 50.8525-49.0312 50.8525-46.5225C50.8525-44.6006 49.7119-43.2998 48.1094-43.2998C46.8965-43.2998 46.4082-43.8867 45.9473-44.46C45.459-45.1357 44.8418-45.5713 43.7314-45.5713C42.2588-45.5713 40.8467-44.3867 40.8467-42.2998C40.8467-39.6006 43.2656-36.0928 48.1182-36.0928C53.5508-36.0928 57.998-40.1631 57.998-46.4346C57.998-52.9502 52.5166-58.1387 45.5615-58.1387C37.7676-58.1387 31.1465-51.4854 31.1465-42.8936C31.1465-32.9668 39.1699-25.1123 50.1865-25.1123C66.6357-25.1123 71.9463-39.9463 71.9463-48.5723C71.9463-64.3926 59.7402-75.8438 42.8496-75.8438C22.3545-75.8438 6.83594-60.1885 6.83594-38.5518C6.83594-12.7803 26.2236 5.43359 54.8486 5.43359ZM62.8896-67.9619L47.7578-53.2207L51.6748-49.1807L66.7891-63.8955ZM40.5107-74.1777L40.5107-52.9307L46.1436-52.9307L46.1436-74.1777ZM19.7988-64.375L35.1787-48.9463L39.0518-53.0703L23.7773-68.3936ZM12.5762-40.7461L34.5869-40.7461L34.5869-46.3701L12.5762-46.3701ZM21.2275-12.8154L39.6982-31.2949L35.6709-35.3135L17.2402-16.7939ZM45.9746 1.14453L51.6387 1.14453L51.6387-28.1904L45.9746-28.1904ZM82.0312-6.96094L86.0586-10.9395L61.8623-35.2334L57.875-31.2148Z"/>
  </g>
  <g id="Regular-S" transform="matrix(1 0 0 1 1392.69 696)">
   <path d="M53.6621 4.58984C80.957 4.58984 101.709-14.209 107.324-39.2578C108.057-42.4316 105.957-44.9219 102.588-44.9219L66.4062-44.9219L66.4062-37.8906L103.32-37.8906L100.439-40.332C95.0195-18.0664 76.9043-2.44141 53.6621-2.44141C29.7363-2.44141 13.8184-17.2852 13.8184-38.5254C13.8184-55.8594 25.9277-67.9688 42.041-67.9688C54.4922-67.9688 63.1836-60.0586 63.1836-48.7305C63.1836-39.3066 57.4707-32.7148 49.3164-32.7148C42.2852-32.7148 37.5977-37.1582 37.5977-42.9199C37.5977-47.4609 40.5273-50.8789 44.7266-50.8789C48.0957-50.8789 50-48.9258 50-46.3379C50-44.4336 48.877-43.1152 47.2656-43.1152C45.9473-43.1152 45.459-43.7988 45.0684-44.4336C44.5801-45.2148 43.9453-45.7031 42.7734-45.7031C41.4062-45.7031 39.9414-44.5801 39.9414-42.4316C39.9414-39.6973 42.334-36.084 47.2656-36.084C52.6367-36.084 57.0312-40.1367 57.0312-46.3379C57.0312-52.7832 51.6113-57.9102 44.7266-57.9102C37.0117-57.9102 30.5664-51.3184 30.5664-42.9199C30.5664-33.3008 38.3789-25.6836 49.3164-25.6836C65.1855-25.6836 70.2148-39.9902 70.2148-48.7305C70.2148-64.1113 58.5449-75 42.041-75C21.9238-75 6.83594-59.8633 6.83594-38.5254C6.83594-13.2812 25.6348 4.58984 53.6621 4.58984ZM61.4746-67.7246L46.3867-52.5879L50.0488-48.9258L65.1367-64.0625ZM39.7461-73.6328L39.7461-52.1484L44.9219-52.1484L44.9219-73.6328ZM19.4824-64.1113L34.7656-48.7793L38.4277-52.4902L23.1445-67.8223ZM12.207-40.8691L34.0332-40.8691L34.0332-46.0449L12.207-46.0449ZM20.4102-13.2812L38.4766-31.3477L34.7656-35.0586L16.748-16.9434ZM45.166 0.634766L50.3906 0.634766L50.3906-28.0762L45.166-28.0762ZM80.7129-7.4707L84.4238-11.1328L60.6934-34.9609L57.0312-31.25Z"/>
  </g>
  <g id="Light-S" transform="matrix(1 0 0 1 1096.78 696)">
   <path d="M52.8599 3.7876C79.8369 3.7876 100.18-14.6328 105.75-39.5C106.361-42.144 104.701-44.1196 101.892-44.1196L65.3921-44.1196L65.3921-38.6929L102.624-38.6929L100.515-40.5439C95.0952-17.5366 76.4805-1.63917 52.8599-1.63917C28.6162-1.63917 12.2139-16.8311 12.2139-38.5254C12.2139-56.041 24.7622-68.771 41.2388-68.771C53.9473-68.771 63.1836-60.3311 63.1836-48.7305C63.1836-39.0039 56.9258-31.9126 48.3628-31.9126C41.1045-31.9126 35.9932-36.7192 35.9932-42.9199C35.9932-47.8848 39.3316-51.6811 43.9243-51.6811C47.6719-51.6811 50-49.4253 50-46.3379C50-43.9644 48.5439-42.313 46.4634-42.313C44.7666-42.313 44.1421-43.148 43.7061-43.9644C43.3086-44.6397 42.7949-45.0825 41.835-45.0825C40.71-45.0825 39.563-44.1865 39.563-42.5225C39.563-40.0757 41.8799-36.8862 46.4028-36.8862C51.4409-36.8862 55.4268-40.6665 55.4268-46.3379C55.4268-52.4199 50.4307-57.1079 43.9243-57.1079C36.5879-57.1079 30.5664-50.8643 30.5664-42.9199C30.5664-33.7397 38.1064-26.4858 48.3628-26.4858C62.5366-26.4858 68.6104-39.1274 68.6104-48.7305C68.6104-63.4453 57.0615-74.1978 41.2388-74.1978C21.6968-74.1978 6.83594-59.1216 6.83594-38.5254C6.83594-13.7353 25.4683 3.7876 52.8599 3.7876ZM60.294-66.6953L46.6289-52.9966L49.5493-50.0308L63.2295-63.7446ZM39.4888-72.9668L39.4888-52.875L43.6353-52.875L43.6353-72.9668ZM19.437-64.1567L34.4023-49.1577L37.3228-52.1572L22.3877-67.126ZM10.8447-40.6118L33.2007-40.6118L33.2007-44.7583L10.8447-44.7583ZM19.0479-13.5537L37.5532-32.0439L34.584-35.0132L16.1577-16.5195ZM45.2266 0.513673L49.4219 0.513673L49.4219-28.2729L45.2266-28.2729ZM80.5161-7.4707L83.4854-10.4063L59.6035-34.3252L56.668-31.356Z"/>
  </g>
  <g id="Thin-S" transform="matrix(1 0 0 1 801.132 696)">
   <path d="M51.7988 2.72658C78.3555 2.72658 98.1582-15.1934 103.668-39.8203C104.119-41.7637 103.039-43.0586 100.971-43.0586L64.0508-43.0586L64.0508-39.7539L101.703-39.7539L100.615-40.8242C95.1953-16.8359 75.9199-0.57814 51.7988-0.57814C27.1348-0.57814 10.0918-16.2305 10.0918-38.5254C10.0918-56.2812 23.2207-69.832 40.1777-69.832C53.2266-69.832 63.1836-60.6914 63.1836-48.7305C63.1836-38.6035 56.2051-30.8516 47.1016-30.8516C39.543-30.8516 33.8711-36.1387 33.8711-42.9199C33.8711-48.4453 37.75-52.7422 42.8633-52.7422C47.1113-52.7422 50-50.0859 50-46.3379C50-43.3438 48.1035-41.252 45.4024-41.252C43.2051-41.252 42.4004-42.2871 41.9043-43.3438C41.627-43.8789 41.2735-44.2617 40.5938-44.2617C39.7891-44.2617 39.0625-43.666 39.0625-42.6426C39.0625-40.5762 41.2793-37.9473 45.2617-37.9473C49.8594-37.9473 53.3047-41.3672 53.3047-46.3379C53.3047-51.9395 48.8692-56.0469 42.8633-56.0469C36.0274-56.0469 30.5664-50.2637 30.5664-42.9199C30.5664-34.3203 37.7461-27.5469 47.1016-27.5469C59.0333-27.5469 66.4883-37.9863 66.4883-48.7305C66.4883-62.5645 55.0996-73.1367 40.1777-73.1367C21.3965-73.1367 6.83594-58.1406 6.83594-38.5254C6.83594-14.3359 25.248 2.72658 51.7988 2.72658ZM58.7324-65.334L46.9492-53.5371L48.8887-51.4922L60.7071-63.3242ZM39.1484-72.0859L39.1484-53.8359L41.9336-53.8359L41.9336-72.0859ZM19.377-64.2168L33.9219-49.6582L35.8613-51.7168L21.3867-66.2051ZM9.04299-40.2715L32.0996-40.2715L32.0996-43.0567L9.04299-43.0567ZM17.2461-13.9141L36.332-32.9648L34.3438-34.9531L15.377-15.959ZM45.3066 0.353518L48.1406 0.353518L48.1406-28.5332L45.3066-28.5332ZM80.2559-7.4707L82.2442-9.44533L58.1621-33.4844L56.1875-31.4961Z"/>
  </g>
  <g id="Ultralight-S" transform="matrix(1 0 0 1 504.965 696)">
   <path d="M51.2554 2.18312C77.5967 2.18312 97.1226-15.4805 102.602-39.9844C102.971-41.5689 102.188-42.5152 100.499-42.5152L63.3638-42.5152L63.3638-40.2973L101.231-40.2973L100.667-40.9678C95.2466-16.4771 75.6328-0.0346869 51.2554-0.0346869C26.376-0.0346869 9.00492-15.9229 9.00492-38.5254C9.00492-56.4043 22.4312-70.3755 39.6343-70.3755C52.8574-70.3755 63.1836-60.876 63.1836-48.7305C63.1836-38.3984 55.836-30.3081 46.4556-30.3081C38.7432-30.3081 32.7842-35.8413 32.7842-42.9199C32.7842-48.7324 36.94-53.2856 42.3198-53.2856C46.8242-53.2856 50-50.4243 50-46.3379C50-43.0259 47.8779-40.7085 44.8589-40.7085C42.4053-40.7085 41.5083-41.8462 40.9815-43.0259C40.7657-43.4893 40.4942-43.8413 39.958-43.8413C39.3174-43.8413 38.8062-43.3994 38.8062-42.7041C38.8062-40.8325 40.9717-38.4907 44.6773-38.4907C49.0493-38.4907 52.2178-41.7261 52.2178-46.3379C52.2178-51.6934 48.0694-55.5034 42.3198-55.5034C35.7402-55.5034 30.5664-49.9561 30.5664-42.9199C30.5664-34.6177 37.5615-28.0903 46.4556-28.0903C57.2388-28.0903 65.4014-37.4019 65.4014-48.7305C65.4014-62.1133 54.0948-72.5933 39.6343-72.5933C21.2427-72.5933 6.83594-57.6382 6.83594-38.5254C6.83594-14.6435 25.1353 2.18312 51.2554 2.18312ZM57.9326-64.6367L47.1133-53.814L48.5503-52.2407L59.4151-63.1089ZM38.9741-71.6348L38.9741-54.3281L41.062-54.3281L41.062-71.6348ZM19.3462-64.2476L33.6758-49.9145L35.1128-51.4912L20.874-65.7334ZM8.12015-40.0972L31.5357-40.0972L31.5357-42.1851L8.12015-42.1851ZM16.3233-14.0986L35.7066-33.4365L34.2207-34.9224L14.9771-15.6719ZM45.3477 0.271487L47.4844 0.271487L47.4844-28.6665L45.3477-28.6665ZM80.1226-7.4707L81.6084-8.95314L57.4239-33.0537L55.9414-31.5679Z"/>
  </g>
 </g>
</svg>
