<?xml version="1.0" encoding="UTF-8"?>
<!--Generator: Apple Native CoreSVG 232.5-->
<!DOCTYPE svg
PUBLIC "-//W3C//DTD SVG 1.1//EN"
       "http://www.w3.org/Graphics/SVG/1.1/DTD/svg11.dtd">
<svg version="1.1" xmlns="http://www.w3.org/2000/svg" xmlns:xlink="http://www.w3.org/1999/xlink" width="3300" height="2200">
 <!--glyph: "uni101655.medium", point size: 100.0, font version: "19.2d2e1", template writer version: "128"-->
 <style>.monochrome-0 {-sfsymbols-motion-group:1}
.monochrome-1 {-sfsymbols-motion-group:1}
.monochrome-2 {-sfsymbols-motion-group:0}
.monochrome-3 {-sfsymbols-motion-group:0}

.multicolor-0:tintColor {-sfsymbols-motion-group:1}
.multicolor-1:tintColor {-sfsymbols-motion-group:1}
.multicolor-2:tintColor {-sfsymbols-motion-group:0}
.multicolor-3:tintColor {-sfsymbols-motion-group:0}

.hierarchical-0:secondary {-sfsymbols-motion-group:1}
.hierarchical-1:primary {-sfsymbols-motion-group:1}
.hierarchical-2:secondary {-sfsymbols-motion-group:0}
.hierarchical-3:primary {-sfsymbols-motion-group:0}

.SFSymbolsPreviewWireframe {fill:none;opacity:1.0;stroke:black;stroke-width:0.5}
</style>
 <g id="Notes">
  <rect height="2200" id="artboard" style="fill:white;opacity:1" width="3300" x="0" y="0"/>
  <line style="fill:none;stroke:black;opacity:1;stroke-width:0.5;" x1="263" x2="3036" y1="292" y2="292"/>
  <text style="stroke:none;fill:black;font-family:sans-serif;font-size:13;font-weight:bold;" transform="matrix(1 0 0 1 263 322)">Weight/Scale Variations</text>
  <text style="stroke:none;fill:black;font-family:sans-serif;font-size:13;text-anchor:middle;" transform="matrix(1 0 0 1 559.711 322)">Ultralight</text>
  <text style="stroke:none;fill:black;font-family:sans-serif;font-size:13;text-anchor:middle;" transform="matrix(1 0 0 1 856.422 322)">Thin</text>
  <text style="stroke:none;fill:black;font-family:sans-serif;font-size:13;text-anchor:middle;" transform="matrix(1 0 0 1 1153.13 322)">Light</text>
  <text style="stroke:none;fill:black;font-family:sans-serif;font-size:13;text-anchor:middle;" transform="matrix(1 0 0 1 1449.84 322)">Regular</text>
  <text style="stroke:none;fill:black;font-family:sans-serif;font-size:13;text-anchor:middle;" transform="matrix(1 0 0 1 1746.56 322)">Medium</text>
  <text style="stroke:none;fill:black;font-family:sans-serif;font-size:13;text-anchor:middle;" transform="matrix(1 0 0 1 2043.27 322)">Semibold</text>
  <text style="stroke:none;fill:black;font-family:sans-serif;font-size:13;text-anchor:middle;" transform="matrix(1 0 0 1 2339.98 322)">Bold</text>
  <text style="stroke:none;fill:black;font-family:sans-serif;font-size:13;text-anchor:middle;" transform="matrix(1 0 0 1 2636.69 322)">Heavy</text>
  <text style="stroke:none;fill:black;font-family:sans-serif;font-size:13;text-anchor:middle;" transform="matrix(1 0 0 1 2933.4 322)">Black</text>
  <line style="fill:none;stroke:black;opacity:1;stroke-width:0.5;" x1="263" x2="3036" y1="1903" y2="1903"/>
  <g transform="matrix(0.2 0 0 0.2 263 1933)">
   <path d="m46.2402 4.15039c21.5332 0 39.4531-17.8711 39.4531-39.4043s-17.9688-39.4043-39.502-39.4043c-21.4844 0-39.3555 17.8711-39.3555 39.4043s17.9199 39.4043 39.4043 39.4043Zm0-7.42188c-17.7246 0-31.8848-14.209-31.8848-31.9824s14.1113-31.9824 31.8359-31.9824c17.7734 0 32.0312 14.209 32.0312 31.9824s-14.209 31.9824-31.9824 31.9824Zm-17.9688-31.9824c0 2.14844 1.51367 3.61328 3.75977 3.61328h10.498v10.5957c0 2.19727 1.46484 3.71094 3.61328 3.71094 2.24609 0 3.71094-1.51367 3.71094-3.71094v-10.5957h10.5957c2.19727 0 3.71094-1.46484 3.71094-3.61328 0-2.19727-1.51367-3.71094-3.71094-3.71094h-10.5957v-10.5469c0-2.24609-1.46484-3.75977-3.71094-3.75977-2.14844 0-3.61328 1.51367-3.61328 3.75977v10.5469h-10.498c-2.24609 0-3.75977 1.51367-3.75977 3.71094Z"/>
  </g>
  <g transform="matrix(0.2 0 0 0.2 281.506 1933)">
   <path d="m58.5449 14.5508c27.2461 0 49.8047-22.6074 49.8047-49.8047 0-27.2461-22.6074-49.8047-49.8535-49.8047-27.1973 0-49.7559 22.5586-49.7559 49.8047 0 27.1973 22.6074 49.8047 49.8047 49.8047Zm0-8.30078c-23.0469 0-41.4551-18.457-41.4551-41.5039s18.3594-41.5039 41.4062-41.5039 41.5527 18.457 41.5527 41.5039-18.457 41.5039-41.5039 41.5039Zm-22.6562-41.5039c0 2.39258 1.66016 4.00391 4.15039 4.00391h14.3555v14.4043c0 2.44141 1.66016 4.15039 4.05273 4.15039 2.44141 0 4.15039-1.66016 4.15039-4.15039v-14.4043h14.4043c2.44141 0 4.15039-1.61133 4.15039-4.00391 0-2.44141-1.70898-4.15039-4.15039-4.15039h-14.4043v-14.3555c0-2.49023-1.70898-4.19922-4.15039-4.19922-2.39258 0-4.05273 1.70898-4.05273 4.19922v14.3555h-14.3555c-2.49023 0-4.15039 1.70898-4.15039 4.15039Z"/>
  </g>
  <g transform="matrix(0.2 0 0 0.2 304.924 1933)">
   <path d="m74.8535 28.3203c34.8145 0 63.623-28.8086 63.623-63.5742 0-34.8145-28.8574-63.623-63.6719-63.623-34.7656 0-63.5254 28.8086-63.5254 63.623 0 34.7656 28.8086 63.5742 63.5742 63.5742Zm0-9.08203c-30.1758 0-54.4434-24.3164-54.4434-54.4922 0-30.2246 24.2188-54.4922 54.3945-54.4922 30.2246 0 54.541 24.2676 54.541 54.4922 0 30.1758-24.2676 54.4922-54.4922 54.4922Zm-28.8574-54.4922c0 2.58789 1.85547 4.39453 4.58984 4.39453h19.7266v19.7754c0 2.68555 1.85547 4.58984 4.44336 4.58984 2.68555 0 4.54102-1.85547 4.54102-4.58984v-19.7754h19.7754c2.68555 0 4.58984-1.80664 4.58984-4.39453 0-2.73438-1.85547-4.58984-4.58984-4.58984h-19.7754v-19.7266c0-2.73438-1.85547-4.63867-4.54102-4.63867-2.58789 0-4.44336 1.9043-4.44336 4.63867v19.7266h-19.7266c-2.73438 0-4.58984 1.85547-4.58984 4.58984Z"/>
  </g>
  <text style="stroke:none;fill:black;font-family:sans-serif;font-size:13;font-weight:bold;" transform="matrix(1 0 0 1 263 1953)">Design Variations</text>
  <text style="stroke:none;fill:black;font-family:sans-serif;font-size:13;" transform="matrix(1 0 0 1 263 1971)">Symbols are supported in up to nine weights and three scales.</text>
  <text style="stroke:none;fill:black;font-family:sans-serif;font-size:13;" transform="matrix(1 0 0 1 263 1989)">For optimal layout with text and other symbols, vertically align</text>
  <text style="stroke:none;fill:black;font-family:sans-serif;font-size:13;" transform="matrix(1 0 0 1 263 2007)">symbols with the adjacent text.</text>
  <line style="fill:none;stroke:#00AEEF;stroke-width:0.5;opacity:1.0;" x1="776" x2="776" y1="1919" y2="1933"/>
  <g transform="matrix(0.2 0 0 0.2 776 1933)">
   <path d="m16.5527 0.78125c2.58789 0 3.85742-0.976562 4.78516-3.71094l6.29883-17.2363h28.8086l6.29883 17.2363c0.927734 2.73438 2.19727 3.71094 4.73633 3.71094 2.58789 0 4.24805-1.5625 4.24805-4.00391 0-0.830078-0.146484-1.61133-0.537109-2.63672l-22.9004-60.9863c-1.12305-2.97852-3.125-4.49219-6.25-4.49219-3.02734 0-5.07812 1.46484-6.15234 4.44336l-22.9004 61.084c-0.390625 1.02539-0.537109 1.80664-0.537109 2.63672 0 2.44141 1.5625 3.95508 4.10156 3.95508Zm13.4766-28.3691 11.8652-32.8613h0.244141l11.8652 32.8613Z"/>
  </g>
  <line style="fill:none;stroke:#00AEEF;stroke-width:0.5;opacity:1.0;" x1="792.836" x2="792.836" y1="1919" y2="1933"/>
  <text style="stroke:none;fill:black;font-family:sans-serif;font-size:13;font-weight:bold;" transform="matrix(1 0 0 1 776 1953)">Margins</text>
  <text style="stroke:none;fill:black;font-family:sans-serif;font-size:13;" transform="matrix(1 0 0 1 776 1971)">Leading and trailing margins on the left and right side of each symbol</text>
  <text style="stroke:none;fill:black;font-family:sans-serif;font-size:13;" transform="matrix(1 0 0 1 776 1989)">can be adjusted by modifying the x-location of the margin guidelines.</text>
  <text style="stroke:none;fill:black;font-family:sans-serif;font-size:13;" transform="matrix(1 0 0 1 776 2007)">Modifications are automatically applied proportionally to all</text>
  <text style="stroke:none;fill:black;font-family:sans-serif;font-size:13;" transform="matrix(1 0 0 1 776 2025)">scales and weights.</text>
  <g transform="matrix(0.2 0 0 0.2 1289 1933)">
   <path d="m14.209 9.32617 8.49609 8.54492c4.29688 4.3457 9.22852 4.05273 13.8672-1.07422l53.4668-58.9355-4.83398-4.88281-53.0762 58.3984c-1.75781 2.00195-3.41797 2.49023-5.76172 0.146484l-5.85938-5.81055c-2.34375-2.29492-1.80664-4.00391 0.195312-5.81055l57.373-54.0039-4.88281-4.83398-57.959 54.4434c-4.93164 4.58984-5.32227 9.47266-1.02539 13.8184Zm32.0801-90.9668c-2.09961 2.05078-2.24609 4.93164-1.07422 6.88477 1.17188 1.80664 3.4668 2.97852 6.68945 2.14844 7.32422-1.70898 14.9414-2.00195 22.0703 2.68555l-2.92969 7.27539c-1.70898 4.15039-0.830078 7.08008 1.85547 9.81445l11.4746 11.5723c2.44141 2.44141 4.49219 2.53906 7.32422 2.05078l5.32227-0.976562 3.32031 3.36914-0.195312 2.7832c-0.195312 2.49023 0.439453 4.39453 2.88086 6.78711l3.80859 3.71094c2.39258 2.39258 5.46875 2.53906 7.8125 0.195312l14.5508-14.5996c2.34375-2.34375 2.24609-5.32227-0.146484-7.71484l-3.85742-3.80859c-2.39258-2.39258-4.24805-3.17383-6.64062-2.97852l-2.88086 0.244141-3.22266-3.17383 1.2207-5.61523c0.634766-2.83203-0.146484-5.0293-3.07617-7.95898l-10.9863-10.9375c-16.6992-16.6016-38.8672-16.2109-53.3203-1.75781Zm7.4707 1.85547c12.1582-8.88672 28.6133-7.37305 39.7461 3.75977l12.1582 12.0605c1.17188 1.17188 1.36719 2.09961 1.02539 3.80859l-1.61133 7.42188 7.51953 7.42188 4.93164-0.292969c1.26953-0.0488281 1.66016 0.0488281 2.63672 1.02539l2.88086 2.88086-12.207 12.207-2.88086-2.88086c-0.976562-0.976562-1.12305-1.36719-1.07422-2.68555l0.341797-4.88281-7.4707-7.42188-7.61719 1.26953c-1.61133 0.341797-2.34375 0.195312-3.56445-0.976562l-10.0098-10.0098c-1.26953-1.17188-1.41602-2.00195-0.634766-3.85742l4.39453-10.4492c-7.8125-7.27539-17.9688-10.4004-28.125-7.42188-0.78125 0.195312-1.07422-0.439453-0.439453-0.976562Z"/>
  </g>
  <text style="stroke:none;fill:black;font-family:sans-serif;font-size:13;font-weight:bold;" transform="matrix(1 0 0 1 1289 1953)">Exporting</text>
  <text style="stroke:none;fill:black;font-family:sans-serif;font-size:13;" transform="matrix(1 0 0 1 1289 1971)">Symbols should be outlined when exporting to ensure the</text>
  <text style="stroke:none;fill:black;font-family:sans-serif;font-size:13;" transform="matrix(1 0 0 1 1289 1989)">design is preserved when submitting to Xcode.</text>
  <text id="template-version" style="stroke:none;fill:black;font-family:sans-serif;font-size:13;text-anchor:end;" transform="matrix(1 0 0 1 3036 1933)">Template v.5.0</text>
  <text style="stroke:none;fill:black;font-family:sans-serif;font-size:13;text-anchor:end;" transform="matrix(1 0 0 1 3036 1951)">Requires Xcode 15 or greater</text>
  <text id="descriptive-name" style="stroke:none;fill:black;font-family:sans-serif;font-size:13;text-anchor:end;" transform="matrix(1 0 0 1 3036 1969)">Generated from checklist.checked</text>
  <text style="stroke:none;fill:black;font-family:sans-serif;font-size:13;text-anchor:end;" transform="matrix(1 0 0 1 3036 1987)">Typeset at 100.0 points</text>
  <text style="stroke:none;fill:black;font-family:sans-serif;font-size:13;" transform="matrix(1 0 0 1 263 726)">Small</text>
  <text style="stroke:none;fill:black;font-family:sans-serif;font-size:13;" transform="matrix(1 0 0 1 263 1156)">Medium</text>
  <text style="stroke:none;fill:black;font-family:sans-serif;font-size:13;" transform="matrix(1 0 0 1 263 1586)">Large</text>
 </g>
 <g id="Guides">
  <g id="H-reference" style="fill:#27AAE1;stroke:none;" transform="matrix(1 0 0 1 339 696)">
   <path d="M0.993654 0L3.63775 0L29.3281-67.1323L30.0303-67.1323L30.0303-70.459L28.1226-70.459ZM11.6885-24.4799L46.9815-24.4799L46.2315-26.7285L12.4385-26.7285ZM55.1196 0L57.7637 0L30.6382-70.459L29.4326-70.459L29.4326-67.1323Z"/>
  </g>
  <line id="Baseline-S" style="fill:none;stroke:#27AAE1;opacity:1;stroke-width:0.5;" x1="263" x2="3036" y1="696" y2="696"/>
  <line id="Capline-S" style="fill:none;stroke:#27AAE1;opacity:1;stroke-width:0.5;" x1="263" x2="3036" y1="625.541" y2="625.541"/>
  <g id="H-reference" style="fill:#27AAE1;stroke:none;" transform="matrix(1 0 0 1 339 1126)">
   <path d="M0.993654 0L3.63775 0L29.3281-67.1323L30.0303-67.1323L30.0303-70.459L28.1226-70.459ZM11.6885-24.4799L46.9815-24.4799L46.2315-26.7285L12.4385-26.7285ZM55.1196 0L57.7637 0L30.6382-70.459L29.4326-70.459L29.4326-67.1323Z"/>
  </g>
  <line id="Baseline-M" style="fill:none;stroke:#27AAE1;opacity:1;stroke-width:0.5;" x1="263" x2="3036" y1="1126" y2="1126"/>
  <line id="Capline-M" style="fill:none;stroke:#27AAE1;opacity:1;stroke-width:0.5;" x1="263" x2="3036" y1="1055.54" y2="1055.54"/>
  <g id="H-reference" style="fill:#27AAE1;stroke:none;" transform="matrix(1 0 0 1 339 1556)">
   <path d="M0.993654 0L3.63775 0L29.3281-67.1323L30.0303-67.1323L30.0303-70.459L28.1226-70.459ZM11.6885-24.4799L46.9815-24.4799L46.2315-26.7285L12.4385-26.7285ZM55.1196 0L57.7637 0L30.6382-70.459L29.4326-70.459L29.4326-67.1323Z"/>
  </g>
  <line id="Baseline-L" style="fill:none;stroke:#27AAE1;opacity:1;stroke-width:0.5;" x1="263" x2="3036" y1="1556" y2="1556"/>
  <line id="Capline-L" style="fill:none;stroke:#27AAE1;opacity:1;stroke-width:0.5;" x1="263" x2="3036" y1="1485.54" y2="1485.54"/>
  <line id="left-margin-Ultralight-S" style="fill:none;stroke:#00AEEF;stroke-width:0.5;opacity:1.0;" x1="508.795" x2="508.795" y1="600.785" y2="720.121"/>
  <line id="right-margin-Ultralight-S" style="fill:none;stroke:#00AEEF;stroke-width:0.5;opacity:1.0;" x1="610.627" x2="610.627" y1="600.785" y2="720.121"/>
  <line id="left-margin-Regular-S" style="fill:none;stroke:#00AEEF;stroke-width:0.5;opacity:1.0;" x1="1396.82" x2="1396.82" y1="600.785" y2="720.121"/>
  <line id="right-margin-Regular-S" style="fill:none;stroke:#00AEEF;stroke-width:0.5;opacity:1.0;" x1="1502.87" x2="1502.87" y1="600.785" y2="720.121"/>
  <line id="left-margin-Black-S" style="fill:none;stroke:#00AEEF;stroke-width:0.5;opacity:1.0;" x1="2874.83" x2="2874.83" y1="600.785" y2="720.121"/>
  <line id="right-margin-Black-S" style="fill:none;stroke:#00AEEF;stroke-width:0.5;opacity:1.0;" x1="2991.97" x2="2991.97" y1="600.785" y2="720.121"/>
 </g>
 <g id="Symbols">
  <g id="Black-S" transform="matrix(1 0 0 1 2874.83 696)">
   <path class="monochrome-0 multicolor-0:tintColor hierarchical-0:secondary SFSymbolsPreviewWireframe" d="M62.793-7.27539L101.66-7.27539C104.834-7.27539 107.373-9.81445 107.373-12.9883C107.373-16.1621 104.834-18.7012 101.66-18.7012L62.793-18.7012C59.6191-18.7012 57.0801-16.1621 57.0801-12.9883C57.0801-9.81445 59.6191-7.27539 62.793-7.27539Z"/>
   <path class="monochrome-1 multicolor-1:tintColor hierarchical-1:primary SFSymbolsPreviewWireframe" d="M28.4668 5.27344C38.6719 5.27344 47.168-3.125 47.168-13.3789C47.168-23.6816 38.7695-32.0801 28.4668-32.0801C18.1152-32.0801 9.76562-23.6816 9.76562-13.3789C9.76562-3.125 18.1152 5.27344 28.4668 5.27344ZM26.2207-3.27148C25.0977-3.27148 24.1699-3.80859 23.5352-4.58984L19.2383-9.61914C18.6523-10.3516 18.4082-10.8398 18.4082-11.5234C18.4082-13.1836 19.6777-14.4043 21.2402-14.4043C22.2168-14.4043 22.7539-14.0137 23.3887-13.3301L26.2207-10.2539L33.0078-20.9961C33.6914-22.1191 34.5215-22.6074 35.5957-22.6074C37.207-22.6074 38.5742-21.4355 38.5742-19.873C38.5742-19.2871 38.4277-18.75 37.9395-18.0176L28.9062-4.78516C28.2715-3.85742 27.2461-3.27148 26.2207-3.27148Z"/>
   <path class="monochrome-2 multicolor-2:tintColor hierarchical-2:secondary SFSymbolsPreviewWireframe" d="M62.793-51.6602L101.66-51.6602C104.834-51.6602 107.373-54.1992 107.373-57.373C107.373-60.5469 104.834-63.0859 101.66-63.0859L62.793-63.0859C59.6191-63.0859 57.0801-60.5469 57.0801-57.373C57.0801-54.1992 59.6191-51.6602 62.793-51.6602Z"/>
   <path class="monochrome-3 multicolor-3:tintColor hierarchical-3:primary SFSymbolsPreviewWireframe" d="M28.4668-38.7207C38.6719-38.7207 47.168-47.1191 47.168-57.373C47.168-67.6758 38.7695-76.0742 28.4668-76.0742C18.1152-76.0742 9.76562-67.6758 9.76562-57.373C9.76562-47.1191 18.1152-38.7207 28.4668-38.7207ZM26.2207-47.2656C25.0977-47.2656 24.1699-47.8027 23.5352-48.584L19.2383-53.6133C18.6523-54.3457 18.4082-54.834 18.4082-55.5176C18.4082-57.1777 19.6777-58.3984 21.2402-58.3984C22.2168-58.3984 22.7539-58.0078 23.3887-57.3242L26.2207-54.248L33.0078-64.9902C33.6914-66.1133 34.5215-66.6016 35.5957-66.6016C37.207-66.6016 38.5742-65.4297 38.5742-63.8672C38.5742-63.2812 38.4277-62.7441 37.9395-62.0117L28.9062-48.7793C28.2715-47.8516 27.2461-47.2656 26.2207-47.2656Z"/>
  </g>
  <g id="Regular-S" transform="matrix(1 0 0 1 1396.82 696)">
   <path class="monochrome-0 multicolor-0:tintColor hierarchical-0:secondary SFSymbolsPreviewWireframe" d="M54.8828-9.91211L92.9688-9.91211C94.7754-9.91211 96.2891-11.3281 96.2891-13.1836C96.2891-15.0391 94.7754-16.4551 92.9688-16.4551L54.8828-16.4551C53.0273-16.4551 51.5625-15.0391 51.5625-13.1836C51.5625-11.3281 53.0273-9.91211 54.8828-9.91211Z"/>
   <path class="monochrome-1 multicolor-1:tintColor hierarchical-1:primary SFSymbolsPreviewWireframe" d="M26.5137 3.51562C35.5957 3.51562 43.1641-4.05273 43.1641-13.1348C43.1641-22.2656 35.5957-29.9316 26.5137-29.9316C17.334-29.9316 9.76562-22.2656 9.76562-13.1348C9.76562-4.05273 17.3828 3.51562 26.5137 3.51562ZM24.5117-4.29688C23.6328-4.29688 23.0469-4.78516 22.4121-5.46875L18.3105-10.498C17.9688-10.9375 17.8223-11.4258 17.8223-12.1094C17.8223-13.2812 18.7012-14.209 19.8242-14.209C20.6055-14.209 21.1426-13.916 21.7285-13.1348L24.4141-9.61914L30.957-20.166C31.3965-20.9473 32.0312-21.3379 32.8125-21.3379C33.9355-21.3379 34.9121-20.459 34.9121-19.4336C34.9121-18.8477 34.7656-18.3594 34.375-17.7246L26.6602-5.46875C26.1719-4.73633 25.3906-4.29688 24.5117-4.29688Z"/>
   <path class="monochrome-2 multicolor-2:tintColor hierarchical-2:secondary SFSymbolsPreviewWireframe" d="M54.8828-53.8574L92.9688-53.8574C94.7754-53.8574 96.2891-55.2734 96.2891-57.1289C96.2891-58.9844 94.7754-60.4004 92.9688-60.4004L54.8828-60.4004C53.0273-60.4004 51.5625-58.9844 51.5625-57.1289C51.5625-55.2734 53.0273-53.8574 54.8828-53.8574Z"/>
   <path class="monochrome-3 multicolor-3:tintColor hierarchical-3:primary SFSymbolsPreviewWireframe" d="M26.5137-40.4297C35.5957-40.4297 43.1641-48.0469 43.1641-57.1289C43.1641-66.2598 35.5957-73.877 26.5137-73.877C17.334-73.877 9.76562-66.2598 9.76562-57.1289C9.76562-48.0469 17.3828-40.4297 26.5137-40.4297ZM24.5117-48.291C23.6328-48.291 23.0469-48.7793 22.4121-49.4629L18.3105-54.4434C17.9688-54.9316 17.8223-55.4199 17.8223-56.1035C17.8223-57.2754 18.7012-58.2031 19.8242-58.2031C20.6055-58.2031 21.1426-57.9102 21.7285-57.1289L24.4141-53.6133L30.957-64.1602C31.3965-64.9414 32.0312-65.332 32.8125-65.332C33.9355-65.332 34.9121-64.4531 34.9121-63.3789C34.9121-62.8418 34.7656-62.3535 34.375-61.7188L26.6602-49.4629C26.1719-48.7305 25.3906-48.291 24.5117-48.291Z"/>
  </g>
  <g id="Ultralight-S" transform="matrix(1 0 0 1 508.795 696)">
   <path class="monochrome-0 multicolor-0:tintColor hierarchical-0:secondary SFSymbolsPreviewWireframe" d="M51.1138-11.3198L90.9707-11.3198C91.5967-11.3198 92.066-11.7368 92.066-12.4116C92.066-13.041 91.5967-13.5034 90.9707-13.5034L51.1138-13.5034C50.4844-13.5034 50.0186-13.041 50.0186-12.4116C50.0186-11.7368 50.4844-11.3198 51.1138-11.3198Z"/>
   <path class="monochrome-1 multicolor-1:tintColor hierarchical-1:primary SFSymbolsPreviewWireframe" d="M25.2422 3.10694C33.7793 3.10694 40.7573-3.8711 40.7573-12.3628C40.7573-20.9033 33.7339-27.8882 25.2422-27.8882C16.7437-27.8882 9.76562-20.9033 9.76562-12.3628C9.76562-3.8711 16.7017 3.10694 25.2422 3.10694ZM23.3765-3.52491C22.9517-3.52491 22.6836-3.78614 22.3667-4.06105L16.9937-10.1348C16.7427-10.3472 16.6416-10.6538 16.6416-11.1104C16.6416-11.7373 17.2481-12.3926 18.0078-12.3926C18.4258-12.3926 18.8267-12.145 19.0493-11.8633L23.3242-6.98537L31.4565-19.6211C31.7598-20.0845 32.2129-20.3843 32.6309-20.3843C33.3906-20.3843 34.0039-19.7324 34.0039-19.0703C34.0039-18.7114 33.8574-18.4048 33.603-18.0425L24.5713-4.15187C24.2647-3.73731 23.9375-3.52491 23.3765-3.52491Z"/>
   <path class="monochrome-2 multicolor-2:tintColor hierarchical-2:secondary SFSymbolsPreviewWireframe" d="M51.1138-56.8091L90.9707-56.8091C91.5967-56.8091 92.066-57.2715 92.066-57.9009C92.066-58.5757 91.5967-58.9927 90.9707-58.9927L51.1138-58.9927C50.4844-58.9927 50.0186-58.5757 50.0186-57.9009C50.0186-57.2715 50.4844-56.8091 51.1138-56.8091Z"/>
   <path class="monochrome-3 multicolor-3:tintColor hierarchical-3:primary SFSymbolsPreviewWireframe" d="M25.2422-42.4731C33.7793-42.4731 40.7573-49.4546 40.7573-57.9009C40.7573-66.4868 33.7339-73.4683 25.2422-73.4683C16.7437-73.4683 9.76562-66.4868 9.76562-57.9009C9.76562-49.4546 16.7017-42.4731 25.2422-42.4731ZM23.3765-49.063C22.9517-49.063 22.6836-49.3242 22.3667-49.6445L16.9937-55.7148C16.7427-55.8852 16.6416-56.1919 16.6416-56.6484C16.6416-57.3208 17.2481-57.9761 18.0078-57.9761C18.4258-57.9761 18.8267-57.7285 19.0493-57.4468L23.3242-52.5234L31.4565-65.1592C31.7598-65.6226 32.2129-65.9224 32.6309-65.9224C33.3906-65.9224 34.0039-65.2705 34.0039-64.6504C34.0039-64.2949 33.8574-63.9883 33.603-63.626L24.5713-49.7353C24.2647-49.2754 23.9375-49.063 23.3765-49.063Z"/>
  </g>
 </g>
</svg>
