<?xml version="1.0" encoding="UTF-8"?>
<!--Generator: Apple Native CoreSVG 175.5-->
<!DOCTYPE svg
PUBLIC "-//W3C//DTD SVG 1.1//EN"
       "http://www.w3.org/Graphics/SVG/1.1/DTD/svg11.dtd">
<svg version="1.1" xmlns="http://www.w3.org/2000/svg" xmlns:xlink="http://www.w3.org/1999/xlink" width="3300" height="2200">
 <!--glyph: "uni101508.medium", point size: 100.0, font version: "18.0d11e1", template writer version: "90"-->
 <g id="Notes">
  <rect height="2200" id="artboard" style="fill:white;opacity:1" width="3300" x="0" y="0"/>
  <line style="fill:none;stroke:black;opacity:1;stroke-width:0.5;" x1="263" x2="3036" y1="292" y2="292"/>
  <text style="stroke:none;fill:black;font-family:sans-serif;font-size:13;font-weight:bold;" transform="matrix(1 0 0 1 263 322)">Weight/Scale Variations</text>
  <text style="stroke:none;fill:black;font-family:sans-serif;font-size:13;text-anchor:middle;" transform="matrix(1 0 0 1 559.711 322)">Ultralight</text>
  <text style="stroke:none;fill:black;font-family:sans-serif;font-size:13;text-anchor:middle;" transform="matrix(1 0 0 1 856.422 322)">Thin</text>
  <text style="stroke:none;fill:black;font-family:sans-serif;font-size:13;text-anchor:middle;" transform="matrix(1 0 0 1 1153.13 322)">Light</text>
  <text style="stroke:none;fill:black;font-family:sans-serif;font-size:13;text-anchor:middle;" transform="matrix(1 0 0 1 1449.84 322)">Regular</text>
  <text style="stroke:none;fill:black;font-family:sans-serif;font-size:13;text-anchor:middle;" transform="matrix(1 0 0 1 1746.56 322)">Medium</text>
  <text style="stroke:none;fill:black;font-family:sans-serif;font-size:13;text-anchor:middle;" transform="matrix(1 0 0 1 2043.27 322)">Semibold</text>
  <text style="stroke:none;fill:black;font-family:sans-serif;font-size:13;text-anchor:middle;" transform="matrix(1 0 0 1 2339.98 322)">Bold</text>
  <text style="stroke:none;fill:black;font-family:sans-serif;font-size:13;text-anchor:middle;" transform="matrix(1 0 0 1 2636.69 322)">Heavy</text>
  <text style="stroke:none;fill:black;font-family:sans-serif;font-size:13;text-anchor:middle;" transform="matrix(1 0 0 1 2933.4 322)">Black</text>
  <line style="fill:none;stroke:black;opacity:1;stroke-width:0.5;" x1="263" x2="3036" y1="1903" y2="1903"/>
  <g transform="matrix(1 0 0 1 263 1933)">
   <path d="M9.24805 0.830078C13.5547 0.830078 17.1387-2.74414 17.1387-7.05078C17.1387-11.3574 13.5449-14.9316 9.23828-14.9316C4.94141-14.9316 1.36719-11.3574 1.36719-7.05078C1.36719-2.74414 4.95117 0.830078 9.24805 0.830078ZM9.24805-0.654297C5.70312-0.654297 2.87109-3.49609 2.87109-7.05078C2.87109-10.6055 5.69336-13.4473 9.23828-13.4473C12.793-13.4473 15.6445-10.6055 15.6445-7.05078C15.6445-3.49609 12.8027-0.654297 9.24805-0.654297ZM5.6543-7.05078C5.6543-6.62109 5.95703-6.32812 6.40625-6.32812L8.50586-6.32812L8.50586-4.20898C8.50586-3.76953 8.79883-3.4668 9.22852-3.4668C9.67773-3.4668 9.9707-3.76953 9.9707-4.20898L9.9707-6.32812L12.0898-6.32812C12.5293-6.32812 12.832-6.62109 12.832-7.05078C12.832-7.49023 12.5293-7.79297 12.0898-7.79297L9.9707-7.79297L9.9707-9.90234C9.9707-10.3516 9.67773-10.6543 9.22852-10.6543C8.79883-10.6543 8.50586-10.3516 8.50586-9.90234L8.50586-7.79297L6.40625-7.79297C5.95703-7.79297 5.6543-7.49023 5.6543-7.05078Z"/>
  </g>
  <g transform="matrix(1 0 0 1 281.867 1933)">
   <path d="M11.709 2.91016C17.1582 2.91016 21.6699-1.61133 21.6699-7.05078C21.6699-12.5 17.1484-17.0117 11.6992-17.0117C6.25977-17.0117 1.74805-12.5 1.74805-7.05078C1.74805-1.61133 6.26953 2.91016 11.709 2.91016ZM11.709 1.25C7.09961 1.25 3.41797-2.44141 3.41797-7.05078C3.41797-11.6602 7.08984-15.3516 11.6992-15.3516C16.3086-15.3516 20.0098-11.6602 20.0098-7.05078C20.0098-2.44141 16.3184 1.25 11.709 1.25ZM7.17773-7.05078C7.17773-6.57227 7.50977-6.25 8.00781-6.25L10.8789-6.25L10.8789-3.36914C10.8789-2.88086 11.2109-2.53906 11.6895-2.53906C12.1777-2.53906 12.5195-2.87109 12.5195-3.36914L12.5195-6.25L15.4004-6.25C15.8887-6.25 16.2305-6.57227 16.2305-7.05078C16.2305-7.53906 15.8887-7.88086 15.4004-7.88086L12.5195-7.88086L12.5195-10.752C12.5195-11.25 12.1777-11.5918 11.6895-11.5918C11.2109-11.5918 10.8789-11.25 10.8789-10.752L10.8789-7.88086L8.00781-7.88086C7.50977-7.88086 7.17773-7.53906 7.17773-7.05078Z"/>
  </g>
  <g transform="matrix(1 0 0 1 305.646 1933)">
   <path d="M14.9707 5.66406C21.9336 5.66406 27.6953-0.0976562 27.6953-7.05078C27.6953-14.0137 21.9238-19.7754 14.9609-19.7754C8.00781-19.7754 2.25586-14.0137 2.25586-7.05078C2.25586-0.0976562 8.01758 5.66406 14.9707 5.66406ZM14.9707 3.84766C8.93555 3.84766 4.08203-1.01562 4.08203-7.05078C4.08203-13.0957 8.92578-17.9492 14.9609-17.9492C21.0059-17.9492 25.8691-13.0957 25.8691-7.05078C25.8691-1.01562 21.0156 3.84766 14.9707 3.84766ZM9.19922-7.05078C9.19922-6.5332 9.57031-6.17188 10.1172-6.17188L14.0625-6.17188L14.0625-2.2168C14.0625-1.67969 14.4336-1.29883 14.9512-1.29883C15.4883-1.29883 15.8594-1.66992 15.8594-2.2168L15.8594-6.17188L19.8145-6.17188C20.3516-6.17188 20.7324-6.5332 20.7324-7.05078C20.7324-7.59766 20.3613-7.96875 19.8145-7.96875L15.8594-7.96875L15.8594-11.9141C15.8594-12.4609 15.4883-12.8418 14.9512-12.8418C14.4336-12.8418 14.0625-12.4609 14.0625-11.9141L14.0625-7.96875L10.1172-7.96875C9.57031-7.96875 9.19922-7.59766 9.19922-7.05078Z"/>
  </g>
  <text style="stroke:none;fill:black;font-family:sans-serif;font-size:13;font-weight:bold;" transform="matrix(1 0 0 1 263 1953)">Design Variations</text>
  <text style="stroke:none;fill:black;font-family:sans-serif;font-size:13;" transform="matrix(1 0 0 1 263 1971)">Symbols are supported in up to nine weights and three scales.</text>
  <text style="stroke:none;fill:black;font-family:sans-serif;font-size:13;" transform="matrix(1 0 0 1 263 1989)">For optimal layout with text and other symbols, vertically align</text>
  <text style="stroke:none;fill:black;font-family:sans-serif;font-size:13;" transform="matrix(1 0 0 1 263 2007)">symbols with the adjacent text.</text>
  <line style="fill:none;stroke:#00AEEF;stroke-width:0.5;opacity:1.0;" x1="776" x2="776" y1="1919" y2="1933"/>
  <g transform="matrix(1 0 0 1 776 1933)">
   <path d="M3.31055 0.15625C3.82812 0.15625 4.08203-0.0390625 4.26758-0.585938L5.52734-4.0332L11.2891-4.0332L12.5488-0.585938C12.7344-0.0390625 12.9883 0.15625 13.4961 0.15625C14.0137 0.15625 14.3457-0.15625 14.3457-0.644531C14.3457-0.810547 14.3164-0.966797 14.2383-1.17188L9.6582-13.3691C9.43359-13.9648 9.0332-14.2676 8.4082-14.2676C7.80273-14.2676 7.39258-13.9746 7.17773-13.3789L2.59766-1.16211C2.51953-0.957031 2.49023-0.800781 2.49023-0.634766C2.49023-0.146484 2.80273 0.15625 3.31055 0.15625ZM6.00586-5.51758L8.37891-12.0898L8.42773-12.0898L10.8008-5.51758Z"/>
  </g>
  <line style="fill:none;stroke:#00AEEF;stroke-width:0.5;opacity:1.0;" x1="793.197" x2="793.197" y1="1919" y2="1933"/>
  <text style="stroke:none;fill:black;font-family:sans-serif;font-size:13;font-weight:bold;" transform="matrix(1 0 0 1 776 1953)">Margins</text>
  <text style="stroke:none;fill:black;font-family:sans-serif;font-size:13;" transform="matrix(1 0 0 1 776 1971)">Leading and trailing margins on the left and right side of each symbol</text>
  <text style="stroke:none;fill:black;font-family:sans-serif;font-size:13;" transform="matrix(1 0 0 1 776 1989)">can be adjusted by modifying the x-location of the margin guidelines.</text>
  <text style="stroke:none;fill:black;font-family:sans-serif;font-size:13;" transform="matrix(1 0 0 1 776 2007)">Modifications are automatically applied proportionally to all</text>
  <text style="stroke:none;fill:black;font-family:sans-serif;font-size:13;" transform="matrix(1 0 0 1 776 2025)">scales and weights.</text>
  <g transform="matrix(1 0 0 1 1289 1933)">
   <path d="M2.8418 1.86523L4.54102 3.57422C5.40039 4.44336 6.38672 4.38477 7.31445 3.35938L18.0078-8.42773L17.041-9.4043L6.42578 2.27539C6.07422 2.67578 5.74219 2.77344 5.27344 2.30469L4.10156 1.14258C3.63281 0.683594 3.74023 0.341797 4.14062-0.0195312L15.6152-10.8203L14.6387-11.7871L3.04688-0.898438C2.06055 0.0195312 1.98242 0.996094 2.8418 1.86523ZM9.25781-16.3281C8.83789-15.918 8.80859-15.3418 9.04297-14.9512C9.27734-14.5898 9.73633-14.3555 10.3809-14.5215C11.8457-14.8633 13.3691-14.9219 14.7949-13.9844L14.209-12.5293C13.8672-11.6992 14.043-11.1133 14.5801-10.5664L16.875-8.25195C17.3633-7.76367 17.7734-7.74414 18.3398-7.8418L19.4043-8.03711L20.0684-7.36328L20.0293-6.80664C19.9902-6.30859 20.1172-5.92773 20.6055-5.44922L21.3672-4.70703C21.8457-4.22852 22.4609-4.19922 22.9297-4.66797L25.8398-7.58789C26.3086-8.05664 26.2891-8.65234 25.8105-9.13086L25.0391-9.89258C24.5605-10.3711 24.1895-10.5273 23.7109-10.4883L23.1348-10.4395L22.4902-11.0742L22.7344-12.1973C22.8613-12.7637 22.7051-13.2031 22.1191-13.7891L19.9219-15.9766C16.582-19.2969 12.1484-19.2188 9.25781-16.3281ZM10.752-15.957C13.1836-17.7344 16.4746-17.4316 18.7012-15.2051L21.1328-12.793C21.3672-12.5586 21.4062-12.373 21.3379-12.0312L21.0156-10.5469L22.5195-9.0625L23.5059-9.12109C23.7598-9.13086 23.8379-9.11133 24.0332-8.91602L24.6094-8.33984L22.168-5.89844L21.5918-6.47461C21.3965-6.66992 21.3672-6.74805 21.377-7.01172L21.4453-7.98828L19.9512-9.47266L18.4277-9.21875C18.1055-9.15039 17.959-9.17969 17.7148-9.41406L15.7129-11.416C15.459-11.6504 15.4297-11.8164 15.5859-12.1875L16.4648-14.2773C14.9023-15.7324 12.8711-16.3574 10.8398-15.7617C10.6836-15.7227 10.625-15.8496 10.752-15.957Z"/>
  </g>
  <text style="stroke:none;fill:black;font-family:sans-serif;font-size:13;font-weight:bold;" transform="matrix(1 0 0 1 1289 1953)">Exporting</text>
  <text style="stroke:none;fill:black;font-family:sans-serif;font-size:13;" transform="matrix(1 0 0 1 1289 1971)">Symbols should be outlined when exporting to ensure the</text>
  <text style="stroke:none;fill:black;font-family:sans-serif;font-size:13;" transform="matrix(1 0 0 1 1289 1989)">design is preserved when submitting to Xcode.</text>
  <text id="template-version" style="stroke:none;fill:black;font-family:sans-serif;font-size:13;text-anchor:end;" transform="matrix(1 0 0 1 3036 1933)">Template v.4.0</text>
  <text style="stroke:none;fill:black;font-family:sans-serif;font-size:13;text-anchor:end;" transform="matrix(1 0 0 1 3036 1951)">Requires Xcode 14 or greater</text>
  <text id="descriptive-name" style="stroke:none;fill:black;font-family:sans-serif;font-size:13;text-anchor:end;" transform="matrix(1 0 0 1 3036 1969)">Generated from shoeprints.fill</text>
  <text style="stroke:none;fill:black;font-family:sans-serif;font-size:13;text-anchor:end;" transform="matrix(1 0 0 1 3036 1987)">Typeset at 100 points</text>
  <text style="stroke:none;fill:black;font-family:sans-serif;font-size:13;" transform="matrix(1 0 0 1 263 726)">Small</text>
  <text style="stroke:none;fill:black;font-family:sans-serif;font-size:13;" transform="matrix(1 0 0 1 263 1156)">Medium</text>
  <text style="stroke:none;fill:black;font-family:sans-serif;font-size:13;" transform="matrix(1 0 0 1 263 1586)">Large</text>
 </g>
 <g id="Guides">
  <g id="H-reference" style="fill:#27AAE1;stroke:none;" transform="matrix(1 0 0 1 339 696)">
   <path d="M0.993654 0L3.63775 0L29.3281-67.1323L30.0303-67.1323L30.0303-70.459L28.1226-70.459ZM11.6885-24.4799L46.9815-24.4799L46.2315-26.7285L12.4385-26.7285ZM55.1196 0L57.7637 0L30.6382-70.459L29.4326-70.459L29.4326-67.1323Z"/>
  </g>
  <line id="Baseline-S" style="fill:none;stroke:#27AAE1;opacity:1;stroke-width:0.5;" x1="263" x2="3036" y1="696" y2="696"/>
  <line id="Capline-S" style="fill:none;stroke:#27AAE1;opacity:1;stroke-width:0.5;" x1="263" x2="3036" y1="625.541" y2="625.541"/>
  <g id="H-reference" style="fill:#27AAE1;stroke:none;" transform="matrix(1 0 0 1 339 1126)">
   <path d="M0.993654 0L3.63775 0L29.3281-67.1323L30.0303-67.1323L30.0303-70.459L28.1226-70.459ZM11.6885-24.4799L46.9815-24.4799L46.2315-26.7285L12.4385-26.7285ZM55.1196 0L57.7637 0L30.6382-70.459L29.4326-70.459L29.4326-67.1323Z"/>
  </g>
  <line id="Baseline-M" style="fill:none;stroke:#27AAE1;opacity:1;stroke-width:0.5;" x1="263" x2="3036" y1="1126" y2="1126"/>
  <line id="Capline-M" style="fill:none;stroke:#27AAE1;opacity:1;stroke-width:0.5;" x1="263" x2="3036" y1="1055.54" y2="1055.54"/>
  <g id="H-reference" style="fill:#27AAE1;stroke:none;" transform="matrix(1 0 0 1 339 1556)">
   <path d="M0.993654 0L3.63775 0L29.3281-67.1323L30.0303-67.1323L30.0303-70.459L28.1226-70.459ZM11.6885-24.4799L46.9815-24.4799L46.2315-26.7285L12.4385-26.7285ZM55.1196 0L57.7637 0L30.6382-70.459L29.4326-70.459L29.4326-67.1323Z"/>
  </g>
  <line id="Baseline-L" style="fill:none;stroke:#27AAE1;opacity:1;stroke-width:0.5;" x1="263" x2="3036" y1="1556" y2="1556"/>
  <line id="Capline-L" style="fill:none;stroke:#27AAE1;opacity:1;stroke-width:0.5;" x1="263" x2="3036" y1="1485.54" y2="1485.54"/>
  <line id="left-margin-Regular-M" style="fill:none;stroke:#00AEEF;stroke-width:0.5;opacity:1.0;" x1="1392.14" x2="1392.14" y1="1030.79" y2="1150.12"/>
  <line id="right-margin-Regular-M" style="fill:none;stroke:#00AEEF;stroke-width:0.5;opacity:1.0;" x1="1507.55" x2="1507.55" y1="1030.79" y2="1150.12"/>
 </g>
 <g id="Symbols">
  <g id="Black-L" transform="matrix(1 0 0 1 2854.42 1556)">
   <path d="M44.7544-114.649C29.3732-114.649 16.084-93.3947 16.084-75.1521C16.084-67.3722 18.6014-52.4409 24.3856-39.993L65.122-39.993C70.9063-52.4409 73.4237-67.3722 73.4237-75.1521C73.4237-93.3947 60.1344-114.649 44.7544-114.649ZM44.8337 3.522C56.1187 3.522 62.4145-7.41139 62.4145-22.6774C62.4145-23.9505 62.3729-25.7561 62.1888-28.727L27.398-28.727C27.1932-25.7561 27.1724-23.9505 27.1724-22.6774C27.1724-7.41139 33.4682 3.522 44.8337 3.522ZM125.884-70.3757C111.425-75.6205 91.6536-60.2026 85.4049-43.0419C82.7719-35.7445 79.978-20.8716 81.1819-7.1918L119.479 6.74067C129.158-2.97054 136.626-16.147 139.281-23.4652C145.508-40.5676 140.344-65.1077 125.884-70.3757ZM85.4985 40.681C96.105 44.5235 105.767 36.4092 110.996 22.1058C111.461 20.9131 111.987 19.1695 112.892 16.3154L80.1397 4.41665C78.9463 7.16832 78.3357 8.8107 77.8728 10.0034C72.6435 24.4068 74.8544 36.7593 85.4985 40.681Z"/>
  </g>
  <g id="Heavy-L" transform="matrix(1 0 0 1 2558.83 1556)">
   <path d="M44.1098-113.155C29.1366-113.155 16.084-92.0719 16.084-74.3481C16.084-66.5775 18.624-51.5833 24.4805-39.2259L63.7335-39.2259C69.5899-51.5833 72.13-66.5775 72.13-74.3481C72.13-92.0719 59.0774-113.155 44.1098-113.155ZM44.1846 2.68599C55.1079 2.68599 61.1518-7.96396 61.1518-22.8826C61.1518-24.1728 61.0914-26.0452 60.8891-28.6754L27.3996-28.6754C27.1672-26.0452 27.137-24.1728 27.137-22.8826C27.137-7.96396 33.1809 2.68599 44.1846 2.68599ZM124.069-69.6169C109.995-74.7107 90.5087-59.3767 84.4298-42.7072C81.8062-35.4191 79.0216-20.4696 80.311-6.85322L117.217 6.57245C126.931-3.03946 134.454-16.2374 137.113-23.5556C143.156-40.1805 138.148-64.4818 124.069-69.6169ZM84.4777 39.2566C94.7544 42.98 104.096 35.0437 109.211 21.0789C109.675 19.8691 110.2 18.0582 110.968 15.5172L79.4293 4.04915C78.3373 6.47389 77.686 8.17421 77.228 9.38401C72.1129 23.4538 74.1865 35.4584 84.4777 39.2566Z"/>
  </g>
  <g id="Bold-L" transform="matrix(1 0 0 1 2263.48 1556)">
   <path d="M43.3405-111.348C28.8371-111.348 16.084-90.5171 16.084-73.379C16.084-65.6163 18.6547-50.5303 24.6108-38.2955L62.057-38.2955C68.0131-50.5303 70.5838-65.6163 70.5838-73.379C70.5838-90.5171 57.8306-111.348 43.3405-111.348ZM43.4077 1.67852C53.9076 1.67852 59.6588-8.63295 59.6588-23.1362C59.6588-24.4643 59.5829-26.4435 59.3576-28.7033L27.3774-28.7033C27.1141-26.4435 27.0761-24.4643 27.0761-23.1362C27.0761-8.63295 32.8273 1.67852 43.4077 1.67852ZM121.84-68.7092C108.212-73.6259 89.1021-58.4367 83.216-42.3221C80.6001-35.0418 77.8234-19.9851 79.2352-6.45306L114.442 6.35751C124.21-3.11656 131.802-16.36 134.469-23.6783C140.304-39.7637 135.481-63.7281 121.84-68.7092ZM83.2099 37.5266C93.1017 41.1114 102.066 33.3905 107.043 19.8259C107.514 18.5782 108.054 16.6678 108.668 14.4665L78.5383 3.49886C77.5545 5.56859 76.8494 7.3605 76.3916 8.6082C71.4149 22.278 73.3269 33.8746 83.2099 37.5266Z"/>
  </g>
  <g id="Semibold-L" transform="matrix(1 0 0 1 1967.71 1556)">
   <path d="M42.8101-110.103C28.6307-110.103 16.084-89.4452 16.084-72.711C16.084-64.9536 18.6758-49.8044 24.7005-37.6541L60.9013-37.6541C66.926-49.8044 69.5178-64.9536 69.5178-72.711C69.5178-89.4452 56.9711-110.103 42.8101-110.103ZM42.8721 0.983976C53.0801 0.983976 58.6297-9.09414 58.6297-23.311C58.6297-24.6652 58.5429-26.7181 58.3018-28.7225L27.362-28.7225C27.0774-26.7181 27.0341-24.6652 27.0341-23.311C27.0341-9.09414 32.5836 0.983976 42.8721 0.983976ZM120.303-68.0834C106.984-72.8781 88.1325-57.7886 82.3791-42.0566C79.7686-34.7817 76.9973-19.6511 78.4935-6.17719L112.529 6.20932C122.334-3.16971 129.973-16.4446 132.645-23.7628C138.337-39.4763 133.641-63.2085 120.303-68.0834ZM82.3359 36.334C91.9624 39.8233 100.667 32.2508 105.548 18.962C106.025 17.6882 106.575 15.7093 107.082 13.7421L77.9241 3.1195C77.0148 4.94448 76.2727 6.79954 75.815 8.07336C70.9338 21.4674 72.7343 32.7828 82.3359 36.334Z"/>
  </g>
  <g id="Medium-L" transform="matrix(1 0 0 1 1671.71 1556)">
   <path d="M42.408-109.158C28.4741-109.158 16.084-88.6325 16.084-72.2045C16.084-64.4512 18.6918-49.254 24.7686-37.1678L60.0249-37.1678C66.1017-49.254 68.7096-64.4512 68.7096-72.2045C68.7096-88.6325 56.3194-109.158 42.408-109.158ZM42.466 0.457344C52.4527 0.457344 57.8493-9.44384 57.8493-23.4436C57.8493-24.8176 57.7544-26.9263 57.5012-28.7371L27.3503-28.7371C27.0497-26.9263 27.0022-24.8176 27.0022-23.4436C27.0022-9.44384 32.3988 0.457344 42.466 0.457344ZM119.138-67.609C106.052-72.3111 87.3973-57.2972 81.7446-41.8552C79.1382-34.5845 76.3709-19.3978 77.9312-5.96802L111.078 6.09696C120.911-3.21001 128.587-16.5087 131.263-23.8269C136.846-39.2584 132.247-62.8145 119.138-67.609ZM81.6733 35.4297C91.0985 38.8465 99.6061 31.3866 104.415 18.307C104.895 17.0133 105.453 14.9825 105.88 13.1928L77.4583 2.83185C76.6055 4.47125 75.8354 6.37419 75.3778 7.66782C70.5689 20.8528 72.285 31.9549 81.6733 35.4297Z"/>
  </g>
  <g id="Regular-L" transform="matrix(1 0 0 1 1375.93 1556)">
   <path d="M41.8835-107.926C28.27-107.926 16.084-87.5725 16.084-71.5438C16.084-63.7958 18.7127-48.536 24.8574-36.5335L58.8819-36.5335C65.0266-48.536 67.6553-63.7958 67.6553-71.5438C67.6553-87.5725 55.4693-107.926 41.8835-107.926ZM41.9362-0.229567C51.6343-0.229567 56.8314-9.89996 56.8314-23.6165C56.8314-25.0164 56.7259-27.1979 56.4569-28.7561L27.3351-28.7561C27.0134-27.1979 26.9607-25.0164 26.9607-23.6165C26.9607-9.89996 32.1578-0.229567 41.9362-0.229567ZM117.618-66.9901C104.837-71.5714 86.4383-56.6563 80.917-41.5927C78.3159-34.3272 75.5539-19.0674 77.1976-5.69518L109.187 5.95041C119.056-3.26257 126.778-16.5923 129.46-23.9105C134.901-38.9741 130.428-62.3006 117.618-66.9901ZM80.8089 34.2502C89.9716 37.5725 98.2221 30.2594 102.937 17.4526C103.422 16.1331 103.99 14.0346 104.312 12.4764L76.8508 2.45665C76.0718 3.854 75.265 5.81938 74.8076 7.13886C70.093 20.0512 71.6989 30.8751 80.8089 34.2502Z"/>
  </g>
  <g id="Light-L" transform="matrix(1 0 0 1 1079.99 1556)">
   <path d="M41.5399-106.953C28.0218-106.953 16.084-87.0381 16.084-71.0476C16.084-63.2805 18.7509-47.8681 25.0292-36.0182L58.004-36.0182C64.2822-47.8681 66.9492-63.2805 66.9492-71.0476C66.9492-87.0381 55.0113-106.953 41.5399-106.953ZM41.5736-0.744869C51.1381-0.744869 56.2588-10.2626 56.2588-23.7882C56.2588-25.3217 56.1915-27.7323 55.9035-29.3668L27.1634-29.3668C26.8417-27.7323 26.808-25.3217 26.808-23.7882C26.808-10.2626 31.9287-0.744869 41.5736-0.744869ZM116.206-66.5702C103.539-71.0943 85.5413-56.5418 80.039-41.5163C77.4189-34.2318 74.6378-18.8193 76.4724-5.5425L107.45 5.75956C117.414-3.26257 125.194-16.745 127.895-24.0632C133.317-39.0886 128.92-61.9189 116.206-66.5702ZM79.9119 33.2768C88.9601 36.561 97.077 29.3624 101.715 16.7083C102.258 15.2552 102.94 12.9849 103.262 11.3504L76.1638 1.46422C75.3465 2.93791 74.4825 5.09414 73.9869 6.54722C69.3487 19.2687 70.8973 29.959 79.9119 33.2768Z"/>
  </g>
  <g id="Thin-L" transform="matrix(1 0 0 1 784.306 1556)">
   <path d="M41.0856-105.665C27.6937-105.665 16.084-86.3313 16.084-70.3913C16.084-62.599 18.8014-46.9846 25.2563-35.3366L56.8428-35.3366C63.2978-46.9846 66.0152-62.599 66.0152-70.3913C66.0152-86.3313 54.4055-105.665 41.0856-105.665ZM41.094-1.4264C50.4818-1.4264 55.5016-10.7422 55.5016-24.0154C55.5016-25.7256 55.4847-28.4391 55.1715-30.1745L26.9362-30.1745C26.6145-28.4391 26.6061-25.7256 26.6061-24.0154C26.6061-10.7422 31.6258-1.4264 41.094-1.4264ZM114.338-66.0149C101.822-70.4633 84.3549-56.3903 78.8779-41.4154C76.2325-34.1056 73.4262-18.4912 75.5132-5.34056L105.153 5.50714C115.243-3.26257 123.099-16.9469 125.825-24.2651C131.222-39.2401 126.926-61.4141 114.338-66.0149ZM78.7255 31.9895C87.6223 35.2232 95.5625 28.176 100.1 15.7239C100.718 14.0941 101.552 11.5966 101.874 9.86109L75.2551 0.151644C74.3873 1.7263 73.4476 4.13495 72.9015 5.76472C68.3643 18.2337 69.8371 28.7474 78.7255 31.9895Z"/>
  </g>
  <g id="Ultralight-L" transform="matrix(1 0 0 1 488.118 1556)">
   <path d="M40.8529-105.006C27.5256-105.006 16.084-85.9693 16.084-70.0551C16.084-62.2499 18.8272-46.5321 25.3727-34.9876L56.2481-34.9876C62.7936-46.5321 65.5369-62.2499 65.5369-70.0551C65.5369-85.9693 54.0952-105.006 40.8529-105.006ZM40.8484-1.77547C50.1456-1.77547 55.1137-10.9878 55.1137-24.1318C55.1137-25.9325 55.1227-28.8011 54.7965-30.5883L26.8198-30.5883C26.4981-28.8011 26.5026-25.9325 26.5026-24.1318C26.5026-10.9878 31.4707-1.77547 40.8484-1.77547ZM113.381-65.7304C100.943-70.1401 83.7472-56.3128 78.2832-41.3636C75.6248-34.0409 72.8056-18.3231 75.0219-5.23713L103.976 5.37785C114.132-3.26257 122.026-17.0503 124.765-24.3685C130.149-39.3177 125.904-61.1555 113.381-65.7304ZM78.1179 31.3301C86.9371 34.5379 94.7868 27.5684 99.2723 15.2196C99.9292 13.4994 100.841 10.8855 101.162 9.09829L74.7896-0.52065C73.896 1.10572 72.9175 3.64366 72.3456 5.36393C67.86 17.7037 69.2941 28.1268 78.1179 31.3301Z"/>
  </g>
  <g id="Black-M" transform="matrix(1 0 0 1 2871.35 1126)">
   <path d="M35.1806-97.9106C22.9264-97.9106 12.4609-81.357 12.4609-66.783C12.4609-60.7449 14.397-49.2104 18.8343-39.5094L51.5272-39.5094C55.9645-49.2104 57.9006-60.7449 57.9006-66.783C57.9006-81.357 47.4351-97.9106 35.1806-97.9106ZM35.2432-4.55841C44.279-4.55841 49.3629-13.2519 49.3629-25.3518C49.3629-26.3415 49.3519-27.714 49.2223-30.3189L21.2018-30.3189C21.0667-27.714 21.0612-26.3415 21.0612-25.3518C21.0612-13.2519 26.1451-4.55841 35.2432-4.55841ZM98.8967-63.054C87.3795-67.2395 71.8703-55.2716 66.8858-41.5594C64.8352-35.8951 62.6601-24.4177 63.5451-13.7778L94.275-2.59473C101.755-10.1779 107.502-20.3884 109.558-26.0581C114.537-39.7132 110.414-58.8636 98.8967-63.054ZM66.9951 24.6739C75.4802 27.748 83.2232 21.3239 87.3623 9.9722C87.7301 9.04482 88.1541 7.72856 88.9743 5.23789L62.605-4.33258C61.588-1.90943 61.1423-0.660956 60.7743 0.266425C56.6352 11.6862 58.4583 21.5372 66.9951 24.6739Z"/>
  </g>
  <g id="Heavy-M" transform="matrix(1 0 0 1 2575.66 1126)">
   <path d="M34.5821-96.5405C22.718-96.5405 12.4609-80.1132 12.4609-66.0428C12.4609-60.0156 14.4156-48.4337 18.9112-38.8071L50.2508-38.8071C54.7464-48.4337 56.701-60.0156 56.701-66.0428C56.701-80.1132 46.444-96.5405 34.5821-96.5405ZM34.6422-5.32813C43.3366-5.32813 48.1812-13.7586 48.1812-25.5366C48.1812-26.5307 48.1484-27.9473 48.0028-30.2121L21.2192-30.2121C21.0572-27.9473 21.0408-26.5307 21.0408-25.5366C21.0408-13.7586 25.8854-5.32813 34.6422-5.32813ZM97.2522-62.3509C86.1007-66.394 70.8338-54.4747 66.0136-41.2392C63.974-35.5859 61.8097-24.0476 62.7608-13.4609L92.2232-2.74157C99.7298-10.2453 105.525-20.4627 107.583-26.1325C112.385-39.3243 108.406-58.2869 97.2522-62.3509ZM66.0799 23.3712C74.2533 26.3324 81.6954 20.0719 85.7299 9.03705C86.0919 8.10525 86.5043 6.73902 87.1897 4.56152L61.9739-4.60028C61.0597-2.50377 60.5794-1.21626 60.2197-0.284454C56.1851 10.8268 57.8793 20.35 66.0799 23.3712Z"/>
  </g>
  <g id="Bold-M" transform="matrix(1 0 0 1 2280.1 1126)">
   <path d="M33.9126-95.0079C22.4849-95.0079 12.4609-78.7217 12.4609-65.2147C12.4609-59.1998 14.4364-47.5648 18.9972-38.0214L48.8229-38.0214C53.3837-47.5648 55.3592-59.1998 55.3592-65.2147C55.3592-78.7217 45.3353-95.0079 33.9126-95.0079ZM33.9698-6.18917C42.2825-6.18917 46.8594-14.3254 46.8594-25.7432C46.8594-26.7422 46.8021-28.2083 46.6386-30.0926L21.2387-30.0926C21.0465-28.2083 21.0179-26.7422 21.0179-25.7432C21.0179-14.3254 25.5948-6.18917 33.9698-6.18917ZM95.4127-61.5645C84.6702-65.4482 69.6744-53.5833 65.0379-40.8811C63.0105-35.24 60.8585-23.6336 61.8833-13.1064L89.928-2.90583C97.464-10.3206 103.313-20.5459 105.374-26.2156C109.977-38.8893 106.16-57.6419 95.4127-61.5645ZM65.0561 21.9139C72.8807 24.7489 79.9863 18.6713 83.9039 7.99095C84.2594 7.0542 84.6588 5.63208 85.1935 3.80491L61.268-4.89975C60.4686-3.16863 59.9496-1.83744 59.5993-0.90069C55.6817 9.86545 57.2316 19.0219 65.0561 21.9139Z"/>
  </g>
  <g id="Semibold-M" transform="matrix(1 0 0 1 1984.18 1126)">
   <path d="M33.4511-93.9513C22.3241-93.9513 12.4609-77.7624 12.4609-64.6439C12.4609-58.6374 14.4507-46.9659 19.0566-37.4798L47.8385-37.4798C52.4443-46.9659 54.4341-58.6374 54.4341-64.6439C54.4341-77.7624 44.5709-93.9513 33.4511-93.9513ZM33.5063-6.78277C41.5558-6.78277 45.9481-14.7162 45.9481-25.8856C45.9481-26.8881 45.874-28.3882 45.6982-30.0102L21.2521-30.0102C21.0392-28.3882 21.0021-26.8881 21.0021-25.8856C21.0021-14.7162 25.3945-6.78277 33.5063-6.78277ZM94.1445-61.0223C83.684-64.7962 68.8751-52.9688 64.3653-40.6342C62.3463-35.0015 60.2027-23.3482 61.2784-12.862L88.3457-3.01907C95.902-10.3726 101.788-20.6033 103.851-26.273C108.317-38.5894 104.612-57.1971 94.1445-61.0223ZM64.3504 20.9093C71.9345 23.6572 78.8081 17.7057 82.645 7.26978C82.996 6.32961 83.3865 4.86897 83.8173 3.2833L60.7814-5.1062C60.0612-3.62698 59.5154-2.26568 59.1715-1.32552C55.3346 9.20268 56.7851 18.1063 64.3504 20.9093Z"/>
  </g>
  <g id="Medium-M" transform="matrix(1 0 0 1 1688.07 1126)">
   <path d="M33.1011-93.1501C22.2023-93.1501 12.4609-77.035 12.4609-64.211C12.4609-58.2109 14.4616-46.5117 19.1015-37.0691L47.0921-37.0691C51.732-46.5117 53.7327-58.2109 53.7327-64.211C53.7327-77.035 43.9914-93.1501 33.1011-93.1501ZM33.1548-7.23286C41.0048-7.23286 45.2572-15.0125 45.2572-25.9936C45.2572-26.9987 45.1703-28.5246 44.9851-29.9477L21.2623-29.9477C21.0336-28.5246 20.9902-26.9987 20.9902-25.9936C20.9902-15.0125 25.2426-7.23286 33.1548-7.23286ZM93.1829-60.6112C82.9362-64.3019 68.269-52.5028 63.8553-40.447C61.8427-34.8207 59.7054-23.1317 60.8198-12.6767L87.146-3.10494C94.7176-10.412 100.631-20.6467 102.696-26.3165C107.058-38.362 103.438-56.86 93.1829-60.6112ZM63.8152 20.1476C71.217 22.8294 77.9147 16.9736 81.6905 6.72295C82.0381 5.7802 82.4218 4.29034 82.7738 2.8878L60.4124-5.26274C59.7522-3.97452 59.1862-2.59039 58.8472-1.64764C55.0714 8.70014 56.4465 17.4121 63.8152 20.1476Z"/>
  </g>
  <g id="Regular-M" transform="matrix(1 0 0 1 1392.14 1126)">
   <path d="M32.6447-92.1052C22.0433-92.1052 12.4609-76.0863 12.4609-63.6465C12.4609-57.6547 14.4758-45.9193 19.1602-36.5334L46.1186-36.5334C50.803-45.9193 52.8178-57.6547 52.8178-63.6465C52.8178-76.0863 43.2354-92.1052 32.6447-92.1052ZM32.6964-7.81994C40.286-7.81994 44.3559-15.399 44.3559-26.1345C44.3559-27.1429 44.2524-28.7026 44.055-29.8662L21.2755-29.8662C21.0263-28.7026 20.9746-27.1429 20.9746-26.1345C20.9746-15.399 25.0445-7.81994 32.6964-7.81994ZM91.9286-60.075C81.9608-63.657 67.4785-51.895 63.19-40.2028C61.1857-34.5848 59.0568-22.8495 60.2215-12.435L85.5811-3.21694C93.1727-10.4634 99.1233-20.7035 101.19-26.3732C105.416-38.0654 101.907-56.4201 91.9286-60.075ZM63.1172 19.154C70.2812 21.7497 76.7494 16.0187 80.4454 6.0097C80.7886 5.06358 81.1634 3.53561 81.4127 2.37192L59.9311-5.46692C59.3493-4.42784 58.7569-3.01393 58.4242-2.0678C54.7282 8.04465 56.0049 16.5065 63.1172 19.154Z"/>
  </g>
  <g id="Light-M" transform="matrix(1 0 0 1 1096.12 1126)">
   <path d="M32.3367-91.2325C21.8209-91.2325 12.4609-75.6072 12.4609-63.2016C12.4609-57.1927 14.51-45.3204 19.3142-36.0714L45.3315-36.0714C50.1356-45.3204 52.1847-57.1927 52.1847-63.2016C52.1847-75.6072 42.8248-91.2325 32.3367-91.2325ZM32.3713-8.28193C39.8411-8.28193 43.8426-15.7241 43.8426-26.2885C43.8426-27.4167 43.7733-29.1817 43.5587-30.4138L21.1216-30.4138C20.8723-29.1817 20.8377-27.4167 20.8377-26.2885C20.8377-15.7241 24.8392-8.28193 32.3713-8.28193ZM90.6624-59.6986C80.7973-63.2293 66.6743-51.7923 62.4029-40.1344C60.3815-34.4993 58.2355-22.627 59.5713-12.2981L84.024-3.38805C91.7011-10.4634 97.7031-20.8403 99.7868-26.5101C103.996-38.168 100.555-56.0779 90.6624-59.6986ZM62.313 18.2813C69.3743 20.8428 75.7227 15.2144 79.3503 5.34237C79.7448 4.27647 80.2223 2.59451 80.4716 1.36238L59.3151-6.35668C58.699-5.24916 58.0553-3.66414 57.6885-2.59824C54.0608 7.34311 55.2862 15.6852 62.313 18.2813Z"/>
  </g>
  <g id="Thin-M" transform="matrix(1 0 0 1 800.329 1126)">
   <path d="M31.9293-90.0783C21.5267-90.0783 12.4609-74.9735 12.4609-62.6132C12.4609-56.5817 14.5553-44.5283 19.5179-35.4604L44.2904-35.4604C49.253-44.5283 51.3474-56.5817 51.3474-62.6132C51.3474-74.9735 42.2817-90.0783 31.9293-90.0783ZM31.9413-8.89296C39.2527-8.89296 43.1637-16.1541 43.1637-26.4922C43.1637-27.7788 43.1397-29.8153 42.9025-31.138L20.9179-31.138C20.6687-29.8153 20.6566-27.7788 20.6566-26.4922C20.6566-16.1541 24.5676-8.89296 31.9413-8.89296ZM88.9877-59.2007C79.2584-62.6635 65.6107-51.6565 61.3619-40.0438C59.3179-34.3861 57.1492-22.3328 58.7113-12.1171L81.9646-3.61435C89.7549-10.4634 95.8247-21.0214 97.9311-26.6911C102.118-38.3038 98.7673-55.6253 88.9877-59.2007ZM61.2493 17.1272C68.1749 19.6434 74.3649 14.1508 77.902 4.45978C78.3644 3.23547 78.9777 1.34983 79.2269 0.0271718L58.5004-7.53348C57.8391-6.33543 57.1275-4.52411 56.7153-3.29979C53.1782 6.41525 54.3358 14.5989 61.2493 17.1272Z"/>
  </g>
  <g id="Ultralight-M" transform="matrix(1 0 0 1 504.087 1126)">
   <path d="M31.7207-89.4872C21.376-89.4872 12.4609-74.649 12.4609-62.3118C12.4609-56.2687 14.5785-44.1226 19.6222-35.1474L43.7572-35.1474C48.801-44.1226 50.9185-56.2687 50.9185-62.3118C50.9185-74.649 42.0035-89.4872 31.7207-89.4872ZM31.7211-9.20592C38.9514-9.20592 42.8159-16.3743 42.8159-26.5965C42.8159-27.9643 42.8151-30.1399 42.5663-31.5089L20.8136-31.5089C20.5643-30.1399 20.5639-27.9643 20.5639-26.5965C20.5639-16.3743 24.4285-9.20592 31.7211-9.20592ZM88.13-58.9457C78.4702-62.3737 65.0659-51.587 60.8287-39.9975C58.7731-34.3282 56.5929-22.1821 58.2709-12.0244L80.9098-3.73026C88.7581-10.4634 94.8627-21.1141 96.9806-26.7838C101.155-38.3734 97.8516-55.3935 88.13-58.9457ZM60.7045 16.536C67.5606 19.029 73.6694 13.606 77.1601 4.00772C77.6573 2.70227 78.3401 0.712306 78.5894-0.656714L58.0831-8.13622C57.3986-6.89181 56.6522-4.96457 56.2169-3.65912C52.7262 5.94001 53.8489 14.0426 60.7045 16.536Z"/>
  </g>
  <g id="Black-S" transform="matrix(1 0 0 1 2884.5 696)">
   <path d="M27.7344-84.7168C18.0176-84.7168 9.76562-71.7285 9.76562-60.1562C9.76562-55.4199 11.2793-46.3867 14.7461-38.7695L40.7227-38.7695C44.1895-46.3867 45.7031-55.4199 45.7031-60.1562C45.7031-71.7285 37.4512-84.7168 27.7344-84.7168ZM27.7832-10.9863C34.9609-10.9863 39.0137-17.8711 39.0137-27.4414C39.0137-28.2227 39.0137-29.2969 38.916-31.4453L16.6016-31.4453C16.5039-29.2969 16.5039-28.2227 16.5039-27.4414C16.5039-17.8711 20.5566-10.9863 27.7832-10.9863ZM77.9297-57.2266C68.7988-60.5469 56.5918-51.1719 52.6367-40.2832C51.0254-35.8398 49.3164-26.8555 50-18.5059L74.4141-9.61914C80.2734-15.5762 84.7656-23.584 86.377-28.0273C90.332-38.8672 87.0605-53.9062 77.9297-57.2266ZM52.7344 12.0605C59.4727 14.502 65.625 9.42383 68.8965 0.439453C69.1895-0.292969 69.5312-1.31836 70.2148-3.36914L49.2188-10.9863C48.3887-8.98438 48.0469-8.00781 47.7539-7.27539C44.4824 1.75781 45.9473 9.57031 52.7344 12.0605Z"/>
  </g>
  <g id="Heavy-S" transform="matrix(1 0 0 1 2588.58 696)">
   <path d="M27.2619-83.6565C17.8678-83.6565 9.76562-70.7259 9.76562-59.58C9.76562-54.8552 11.2908-45.799 14.7922-38.2279L39.7316-38.2279C43.2329-45.799 44.7581-54.8552 44.7581-59.58C44.7581-70.7259 36.656-83.6565 27.2619-83.6565ZM27.3107-11.5856C34.2118-11.5856 38.0687-18.2629 38.0687-27.5797C38.0687-28.3494 38.0456-29.4352 37.9364-31.284L16.6361-31.284C16.5154-29.4352 16.5039-28.3494 16.5039-27.5797C16.5039-18.2629 20.3607-11.5856 27.3107-11.5856ZM76.685-56.6734C67.8538-59.8785 55.8081-50.5035 51.9913-40.0181C50.3915-35.5863 48.6941-26.5674 49.4123-18.2523L72.8583-9.72286C78.7292-15.6338 83.2559-23.6301 84.8672-28.0734C88.6725-38.5215 85.5163-53.4568 76.685-56.6734ZM52.0544 11.0579C58.5392 13.4071 64.4495 8.45577 67.6403-0.275064C67.9218-0.995961 68.2405-2.0444 68.8089-3.81859L48.7578-11.1016C48.0199-9.38773 47.655-8.39964 47.3736-7.67875C44.1828 1.11244 45.5439 8.65988 52.0544 11.0579Z"/>
  </g>
  <g id="Bold-S" transform="matrix(1 0 0 1 2292.75 696)">
   <path d="M26.7334-82.4707C17.7002-82.4707 9.76562-69.6045 9.76562-58.9355C9.76562-54.2236 11.3037-45.1416 14.8438-37.6221L38.623-37.6221C42.1631-45.1416 43.7012-54.2236 43.7012-58.9355C43.7012-69.6045 35.7666-82.4707 26.7334-82.4707ZM26.7822-12.2559C33.374-12.2559 37.0117-18.7012 37.0117-27.7344C37.0117-28.4912 36.9629-29.5898 36.8408-31.1035L16.6748-31.1035C16.5283-29.5898 16.5039-28.4912 16.5039-27.7344C16.5039-18.7012 20.1416-12.2559 26.7822-12.2559ZM75.293-56.0547C66.7969-59.1309 54.9316-49.7559 51.2695-39.7217C49.6826-35.3027 47.998-26.2451 48.7549-17.9688L71.1182-9.83887C77.002-15.6982 81.5674-23.6816 83.1787-28.125C86.8164-38.1348 83.7891-52.9541 75.293-56.0547ZM51.2939 9.93652C57.4951 12.1826 63.1348 7.37305 66.2354-1.07422C66.5039-1.78223 66.7969-2.85645 67.2363-4.32129L48.2422-11.2305C47.6074-9.83887 47.2168-8.83789 46.9482-8.12988C43.8477 0.390625 45.0928 7.6416 51.2939 9.93652Z"/>
  </g>
  <g id="Semibold-S" transform="matrix(1 0 0 1 1996.65 696)">
   <path d="M26.369-81.6531C17.5847-81.6531 9.76562-68.8313 9.76562-58.4912C9.76562-53.7882 11.3126-44.6884 14.8793-37.2044L37.8588-37.2044C41.4255-44.6884 42.9725-53.7882 42.9725-58.4912C42.9725-68.8313 35.1534-81.6531 26.369-81.6531ZM26.4179-12.718C32.7964-12.718 36.283-19.0033 36.283-27.841C36.283-28.589 36.2164-29.6965 36.0854-30.9791L16.7015-30.9791C16.5372-29.6965 16.5039-28.589 16.5039-27.841C16.5039-19.0033 19.9905-12.718 26.4179-12.718ZM74.3332-55.6281C66.0682-58.6154 54.3273-49.2404 50.7719-39.5173C49.1938-35.1072 47.5182-26.0229 48.3017-17.7732L69.9185-9.91885C75.8111-15.7427 80.4032-23.7172 82.0146-28.1605C85.5367-37.8682 82.5982-52.6075 74.3332-55.6281ZM50.7696 9.16338C56.7753 11.3384 62.2283 6.62656 65.2667-1.6252C65.5264-2.32432 65.8016-3.41631 66.1521-4.66787L47.8867-11.3193C47.323-10.1499 46.9146-9.14004 46.655-8.44092C43.6166-0.107031 44.7817 6.93955 50.7696 9.16338Z"/>
  </g>
  <g id="Medium-S" transform="matrix(1 0 0 1 1700.4 696)">
   <path d="M26.0928-81.0332C17.4971-81.0332 9.76562-68.2451 9.76562-58.1543C9.76562-53.458 11.3193-44.3447 14.9062-36.8877L37.2793-36.8877C40.8662-44.3447 42.4199-53.458 42.4199-58.1543C42.4199-68.2451 34.6885-81.0332 26.0928-81.0332ZM26.1416-13.0684C32.3584-13.0684 35.7305-19.2324 35.7305-27.9219C35.7305-28.6631 35.6504-29.7773 35.5127-30.8848L16.7217-30.8848C16.5439-29.7773 16.5039-28.6631 16.5039-27.9219C16.5039-19.2324 19.876-13.0684 26.1416-13.0684ZM73.6055-55.3047C65.5156-58.2246 53.8691-48.8496 50.3945-39.3623C48.8232-34.959 47.1543-25.8545 47.958-17.625L69.0088-9.97949C74.9082-15.7764 79.5205-23.7441 81.1318-28.1875C84.5664-37.666 81.6953-52.3447 73.6055-55.3047ZM50.3721 8.57715C56.2295 10.6982 61.541 6.06055 64.5322-2.04297C64.7852-2.73535 65.0469-3.84082 65.3301-4.93066L47.6172-11.3867C47.1074-10.3857 46.6855-9.36914 46.4326-8.67676C43.4414-0.484375 44.5459 6.40723 50.3721 8.57715Z"/>
  </g>
  <g id="Regular-S" transform="matrix(1 0 0 1 1404.29 696)">
   <path d="M25.7324-80.2246C17.3828-80.2246 9.76562-67.4805 9.76562-57.7148C9.76562-53.0273 11.3281-43.8965 14.9414-36.4746L36.5234-36.4746C40.1367-43.8965 41.6992-53.0273 41.6992-57.7148C41.6992-67.4805 34.082-80.2246 25.7324-80.2246ZM25.7812-13.5254C31.7871-13.5254 35.0098-19.5312 35.0098-28.0273C35.0098-28.7598 34.9121-29.8828 34.7656-30.7617L16.748-30.7617C16.5527-29.8828 16.5039-28.7598 16.5039-28.0273C16.5039-19.5312 19.7266-13.5254 25.7812-13.5254ZM72.6562-54.8828C64.7949-57.7148 53.2715-48.3398 49.9023-39.1602C48.3398-34.7656 46.6797-25.6348 47.5098-17.4316L67.8223-10.0586C73.7305-15.8203 78.3691-23.7793 79.9805-28.2227C83.3008-37.4023 80.5176-52.002 72.6562-54.8828ZM49.8535 7.8125C55.5176 9.86328 60.6445 5.32227 63.5742-2.58789C63.8184-3.27148 64.0625-4.39453 64.2578-5.27344L47.2656-11.4746C46.8262-10.6934 46.3867-9.66797 46.1426-8.98438C43.2129-0.976562 44.2383 5.71289 49.8535 7.8125Z"/>
  </g>
  <g id="Light-S" transform="matrix(1 0 0 1 1108.19 696)">
   <path d="M25.46-79.4526C17.186-79.4526 9.76562-67.0566 9.76562-57.3213C9.76562-52.6187 11.3584-43.3667 15.0776-36.0659L35.8272-36.0659C39.5464-43.3667 41.1392-52.6187 41.1392-57.3213C41.1392-67.0566 33.7188-79.4526 25.46-79.4526ZM25.4937-13.9341C31.3936-13.9341 34.5557-19.8188 34.5557-28.1636C34.5557-29.002 34.4883-30.3066 34.3267-31.2461L16.6118-31.2461C16.4165-30.3066 16.3828-29.002 16.3828-28.1636C16.3828-19.8188 19.5449-13.9341 25.4937-13.9341ZM71.5361-54.5498C63.7656-57.3364 52.5601-48.249 49.2061-39.0996C47.6284-34.6899 45.9531-25.438 46.9346-17.3105L66.4448-10.21C72.4287-15.8203 77.1128-23.9004 78.7393-28.3437C82.0444-37.4932 79.3218-51.6992 71.5361-54.5498ZM49.1421 7.04053C54.7153 9.06104 59.7363 4.61085 62.6055-3.17822C62.895-3.96777 63.23-5.22704 63.4253-6.1665L46.7207-12.2617C46.251-11.4199 45.7661-10.2432 45.4917-9.45361C42.6226-1.59716 43.6025 4.98633 49.1421 7.04053Z"/>
  </g>
  <g id="Thin-S" transform="matrix(1 0 0 1 812.289 696)">
   <path d="M25.0996-78.4317C16.9258-78.4317 9.76562-66.4961 9.76562-56.8008C9.76562-52.0781 11.3984-42.666 15.2578-35.5254L34.9063-35.5254C38.7656-42.666 40.3984-52.0781 40.3984-56.8008C40.3984-66.4961 33.2383-78.4317 25.0996-78.4317ZM25.1133-14.4746C30.8731-14.4746 33.9551-20.1992 33.9551-28.3437C33.9551-29.3223 33.9277-30.8672 33.7461-31.8867L16.4316-31.8867C16.2363-30.8672 16.2227-29.3223 16.2227-28.3437C16.2227-20.1992 19.3047-14.4746 25.1133-14.4746ZM70.0547-54.1094C62.4043-56.8359 51.6192-48.1289 48.2852-39.0195C46.6875-34.5898 44.9922-25.1777 46.1738-17.1504L64.6231-10.4102C70.7071-15.8203 75.4512-24.0605 77.0977-28.5039C80.3828-37.6133 77.7403-51.2988 70.0547-54.1094ZM48.2012 6.01955C53.6543 8.00001 58.5352 3.66993 61.3242-3.95897C61.6738-4.88866 62.1289-6.32811 62.3242-7.34764L46-13.3027C45.4902-12.3808 44.9453-11.0039 44.6309-10.0742C41.8418-2.41796 42.7617 4.0254 48.2012 6.01955Z"/>
  </g>
  <g id="Ultralight-S" transform="matrix(1 0 0 1 515.994 696)">
   <path d="M24.915-77.9087C16.7925-77.9087 9.76562-66.209 9.76562-56.5342C9.76562-51.8013 11.4189-42.3071 15.3501-35.2485L34.4346-35.2485C38.3657-42.3071 40.0191-51.8013 40.0191-56.5342C40.0191-66.209 32.9922-77.9087 24.915-77.9087ZM24.9185-14.7515C30.6065-14.7515 33.6475-20.394 33.6475-28.436C33.6475-29.4863 33.6406-31.1543 33.4487-32.2148L16.3394-32.2148C16.144-31.1543 16.1406-29.4863 16.1406-28.436C16.1406-20.394 19.1816-14.7515 24.9185-14.7515ZM69.2959-53.8838C61.7071-56.5796 51.1372-48.0674 47.8135-38.9785C46.2056-34.5386 44.5-25.0444 45.7842-17.0684L63.69-10.5127C69.8252-15.8203 74.6001-24.1426 76.2569-28.5859C79.5318-37.6748 76.9302-51.0938 69.2959-53.8838ZM47.7193 5.4966C53.1109 7.45656 57.9199 3.18801 60.668-4.35887C61.0484-5.36034 61.565-6.89207 61.7603-7.95262L45.6309-13.8359C45.1006-12.873 44.5249-11.3935 44.19-10.3921C41.4419-2.83836 42.3311 3.53322 47.7193 5.4966Z"/>
  </g>
 </g>
</svg>
