<?xml version="1.0" encoding="UTF-8"?>
<!--Generator: Apple Native CoreSVG 175.5-->
<!DOCTYPE svg
PUBLIC "-//W3C//DTD SVG 1.1//EN"
       "http://www.w3.org/Graphics/SVG/1.1/DTD/svg11.dtd">
<svg version="1.1" xmlns="http://www.w3.org/2000/svg" xmlns:xlink="http://www.w3.org/1999/xlink" width="3300" height="2200">
 <!--glyph: "uni10158A.medium", point size: 100.0, font version: "18.0d11e1", template writer version: "90"-->
 <style>.monochrome-0 {fill:#000000}

.SFSymbolsPreview000000 {fill:#000000;opacity:1.0}
</style>
 <g id="Notes">
  <rect height="2200" id="artboard" style="fill:white;opacity:1" width="3300" x="0" y="0"/>
  <line style="fill:none;stroke:black;opacity:1;stroke-width:0.5;" x1="263" x2="3036" y1="292" y2="292"/>
  <text style="stroke:none;fill:black;font-family:sans-serif;font-size:13;font-weight:bold;" transform="matrix(1 0 0 1 263 322)">Weight/Scale Variations</text>
  <text style="stroke:none;fill:black;font-family:sans-serif;font-size:13;text-anchor:middle;" transform="matrix(1 0 0 1 559.711 322)">Ultralight</text>
  <text style="stroke:none;fill:black;font-family:sans-serif;font-size:13;text-anchor:middle;" transform="matrix(1 0 0 1 856.422 322)">Thin</text>
  <text style="stroke:none;fill:black;font-family:sans-serif;font-size:13;text-anchor:middle;" transform="matrix(1 0 0 1 1153.13 322)">Light</text>
  <text style="stroke:none;fill:black;font-family:sans-serif;font-size:13;text-anchor:middle;" transform="matrix(1 0 0 1 1449.84 322)">Regular</text>
  <text style="stroke:none;fill:black;font-family:sans-serif;font-size:13;text-anchor:middle;" transform="matrix(1 0 0 1 1746.56 322)">Medium</text>
  <text style="stroke:none;fill:black;font-family:sans-serif;font-size:13;text-anchor:middle;" transform="matrix(1 0 0 1 2043.27 322)">Semibold</text>
  <text style="stroke:none;fill:black;font-family:sans-serif;font-size:13;text-anchor:middle;" transform="matrix(1 0 0 1 2339.98 322)">Bold</text>
  <text style="stroke:none;fill:black;font-family:sans-serif;font-size:13;text-anchor:middle;" transform="matrix(1 0 0 1 2636.69 322)">Heavy</text>
  <text style="stroke:none;fill:black;font-family:sans-serif;font-size:13;text-anchor:middle;" transform="matrix(1 0 0 1 2933.4 322)">Black</text>
  <line style="fill:none;stroke:black;opacity:1;stroke-width:0.5;" x1="263" x2="3036" y1="1903" y2="1903"/>
  <g transform="matrix(1 0 0 1 263 1933)">
   <path d="M9.24805 0.830078C13.5547 0.830078 17.1387-2.74414 17.1387-7.05078C17.1387-11.3574 13.5449-14.9316 9.23828-14.9316C4.94141-14.9316 1.36719-11.3574 1.36719-7.05078C1.36719-2.74414 4.95117 0.830078 9.24805 0.830078ZM9.24805-0.654297C5.70312-0.654297 2.87109-3.49609 2.87109-7.05078C2.87109-10.6055 5.69336-13.4473 9.23828-13.4473C12.793-13.4473 15.6445-10.6055 15.6445-7.05078C15.6445-3.49609 12.8027-0.654297 9.24805-0.654297ZM5.6543-7.05078C5.6543-6.62109 5.95703-6.32812 6.40625-6.32812L8.50586-6.32812L8.50586-4.20898C8.50586-3.76953 8.79883-3.4668 9.22852-3.4668C9.67773-3.4668 9.9707-3.76953 9.9707-4.20898L9.9707-6.32812L12.0898-6.32812C12.5293-6.32812 12.832-6.62109 12.832-7.05078C12.832-7.49023 12.5293-7.79297 12.0898-7.79297L9.9707-7.79297L9.9707-9.90234C9.9707-10.3516 9.67773-10.6543 9.22852-10.6543C8.79883-10.6543 8.50586-10.3516 8.50586-9.90234L8.50586-7.79297L6.40625-7.79297C5.95703-7.79297 5.6543-7.49023 5.6543-7.05078Z"/>
  </g>
  <g transform="matrix(1 0 0 1 281.867 1933)">
   <path d="M11.709 2.91016C17.1582 2.91016 21.6699-1.61133 21.6699-7.05078C21.6699-12.5 17.1484-17.0117 11.6992-17.0117C6.25977-17.0117 1.74805-12.5 1.74805-7.05078C1.74805-1.61133 6.26953 2.91016 11.709 2.91016ZM11.709 1.25C7.09961 1.25 3.41797-2.44141 3.41797-7.05078C3.41797-11.6602 7.08984-15.3516 11.6992-15.3516C16.3086-15.3516 20.0098-11.6602 20.0098-7.05078C20.0098-2.44141 16.3184 1.25 11.709 1.25ZM7.17773-7.05078C7.17773-6.57227 7.50977-6.25 8.00781-6.25L10.8789-6.25L10.8789-3.36914C10.8789-2.88086 11.2109-2.53906 11.6895-2.53906C12.1777-2.53906 12.5195-2.87109 12.5195-3.36914L12.5195-6.25L15.4004-6.25C15.8887-6.25 16.2305-6.57227 16.2305-7.05078C16.2305-7.53906 15.8887-7.88086 15.4004-7.88086L12.5195-7.88086L12.5195-10.752C12.5195-11.25 12.1777-11.5918 11.6895-11.5918C11.2109-11.5918 10.8789-11.25 10.8789-10.752L10.8789-7.88086L8.00781-7.88086C7.50977-7.88086 7.17773-7.53906 7.17773-7.05078Z"/>
  </g>
  <g transform="matrix(1 0 0 1 305.646 1933)">
   <path d="M14.9707 5.66406C21.9336 5.66406 27.6953-0.0976562 27.6953-7.05078C27.6953-14.0137 21.9238-19.7754 14.9609-19.7754C8.00781-19.7754 2.25586-14.0137 2.25586-7.05078C2.25586-0.0976562 8.01758 5.66406 14.9707 5.66406ZM14.9707 3.84766C8.93555 3.84766 4.08203-1.01562 4.08203-7.05078C4.08203-13.0957 8.92578-17.9492 14.9609-17.9492C21.0059-17.9492 25.8691-13.0957 25.8691-7.05078C25.8691-1.01562 21.0156 3.84766 14.9707 3.84766ZM9.19922-7.05078C9.19922-6.5332 9.57031-6.17188 10.1172-6.17188L14.0625-6.17188L14.0625-2.2168C14.0625-1.67969 14.4336-1.29883 14.9512-1.29883C15.4883-1.29883 15.8594-1.66992 15.8594-2.2168L15.8594-6.17188L19.8145-6.17188C20.3516-6.17188 20.7324-6.5332 20.7324-7.05078C20.7324-7.59766 20.3613-7.96875 19.8145-7.96875L15.8594-7.96875L15.8594-11.9141C15.8594-12.4609 15.4883-12.8418 14.9512-12.8418C14.4336-12.8418 14.0625-12.4609 14.0625-11.9141L14.0625-7.96875L10.1172-7.96875C9.57031-7.96875 9.19922-7.59766 9.19922-7.05078Z"/>
  </g>
  <text style="stroke:none;fill:black;font-family:sans-serif;font-size:13;font-weight:bold;" transform="matrix(1 0 0 1 263 1953)">Design Variations</text>
  <text style="stroke:none;fill:black;font-family:sans-serif;font-size:13;" transform="matrix(1 0 0 1 263 1971)">Symbols are supported in up to nine weights and three scales.</text>
  <text style="stroke:none;fill:black;font-family:sans-serif;font-size:13;" transform="matrix(1 0 0 1 263 1989)">For optimal layout with text and other symbols, vertically align</text>
  <text style="stroke:none;fill:black;font-family:sans-serif;font-size:13;" transform="matrix(1 0 0 1 263 2007)">symbols with the adjacent text.</text>
  <line style="fill:none;stroke:#00AEEF;stroke-width:0.5;opacity:1.0;" x1="776" x2="776" y1="1919" y2="1933"/>
  <g transform="matrix(1 0 0 1 776 1933)">
   <path d="M3.31055 0.15625C3.82812 0.15625 4.08203-0.0390625 4.26758-0.585938L5.52734-4.0332L11.2891-4.0332L12.5488-0.585938C12.7344-0.0390625 12.9883 0.15625 13.4961 0.15625C14.0137 0.15625 14.3457-0.15625 14.3457-0.644531C14.3457-0.810547 14.3164-0.966797 14.2383-1.17188L9.6582-13.3691C9.43359-13.9648 9.0332-14.2676 8.4082-14.2676C7.80273-14.2676 7.39258-13.9746 7.17773-13.3789L2.59766-1.16211C2.51953-0.957031 2.49023-0.800781 2.49023-0.634766C2.49023-0.146484 2.80273 0.15625 3.31055 0.15625ZM6.00586-5.51758L8.37891-12.0898L8.42773-12.0898L10.8008-5.51758Z"/>
  </g>
  <line style="fill:none;stroke:#00AEEF;stroke-width:0.5;opacity:1.0;" x1="793.197" x2="793.197" y1="1919" y2="1933"/>
  <text style="stroke:none;fill:black;font-family:sans-serif;font-size:13;font-weight:bold;" transform="matrix(1 0 0 1 776 1953)">Margins</text>
  <text style="stroke:none;fill:black;font-family:sans-serif;font-size:13;" transform="matrix(1 0 0 1 776 1971)">Leading and trailing margins on the left and right side of each symbol</text>
  <text style="stroke:none;fill:black;font-family:sans-serif;font-size:13;" transform="matrix(1 0 0 1 776 1989)">can be adjusted by modifying the x-location of the margin guidelines.</text>
  <text style="stroke:none;fill:black;font-family:sans-serif;font-size:13;" transform="matrix(1 0 0 1 776 2007)">Modifications are automatically applied proportionally to all</text>
  <text style="stroke:none;fill:black;font-family:sans-serif;font-size:13;" transform="matrix(1 0 0 1 776 2025)">scales and weights.</text>
  <g transform="matrix(1 0 0 1 1289 1933)">
   <path d="M2.8418 1.86523L4.54102 3.57422C5.40039 4.44336 6.38672 4.38477 7.31445 3.35938L18.0078-8.42773L17.041-9.4043L6.42578 2.27539C6.07422 2.67578 5.74219 2.77344 5.27344 2.30469L4.10156 1.14258C3.63281 0.683594 3.74023 0.341797 4.14062-0.0195312L15.6152-10.8203L14.6387-11.7871L3.04688-0.898438C2.06055 0.0195312 1.98242 0.996094 2.8418 1.86523ZM9.25781-16.3281C8.83789-15.918 8.80859-15.3418 9.04297-14.9512C9.27734-14.5898 9.73633-14.3555 10.3809-14.5215C11.8457-14.8633 13.3691-14.9219 14.7949-13.9844L14.209-12.5293C13.8672-11.6992 14.043-11.1133 14.5801-10.5664L16.875-8.25195C17.3633-7.76367 17.7734-7.74414 18.3398-7.8418L19.4043-8.03711L20.0684-7.36328L20.0293-6.80664C19.9902-6.30859 20.1172-5.92773 20.6055-5.44922L21.3672-4.70703C21.8457-4.22852 22.4609-4.19922 22.9297-4.66797L25.8398-7.58789C26.3086-8.05664 26.2891-8.65234 25.8105-9.13086L25.0391-9.89258C24.5605-10.3711 24.1895-10.5273 23.7109-10.4883L23.1348-10.4395L22.4902-11.0742L22.7344-12.1973C22.8613-12.7637 22.7051-13.2031 22.1191-13.7891L19.9219-15.9766C16.582-19.2969 12.1484-19.2188 9.25781-16.3281ZM10.752-15.957C13.1836-17.7344 16.4746-17.4316 18.7012-15.2051L21.1328-12.793C21.3672-12.5586 21.4062-12.373 21.3379-12.0312L21.0156-10.5469L22.5195-9.0625L23.5059-9.12109C23.7598-9.13086 23.8379-9.11133 24.0332-8.91602L24.6094-8.33984L22.168-5.89844L21.5918-6.47461C21.3965-6.66992 21.3672-6.74805 21.377-7.01172L21.4453-7.98828L19.9512-9.47266L18.4277-9.21875C18.1055-9.15039 17.959-9.17969 17.7148-9.41406L15.7129-11.416C15.459-11.6504 15.4297-11.8164 15.5859-12.1875L16.4648-14.2773C14.9023-15.7324 12.8711-16.3574 10.8398-15.7617C10.6836-15.7227 10.625-15.8496 10.752-15.957Z"/>
  </g>
  <text style="stroke:none;fill:black;font-family:sans-serif;font-size:13;font-weight:bold;" transform="matrix(1 0 0 1 1289 1953)">Exporting</text>
  <text style="stroke:none;fill:black;font-family:sans-serif;font-size:13;" transform="matrix(1 0 0 1 1289 1971)">Symbols should be outlined when exporting to ensure the</text>
  <text style="stroke:none;fill:black;font-family:sans-serif;font-size:13;" transform="matrix(1 0 0 1 1289 1989)">design is preserved when submitting to Xcode.</text>
  <text id="template-version" style="stroke:none;fill:black;font-family:sans-serif;font-size:13;text-anchor:end;" transform="matrix(1 0 0 1 3036 1933)">Template v.4.0</text>
  <text style="stroke:none;fill:black;font-family:sans-serif;font-size:13;text-anchor:end;" transform="matrix(1 0 0 1 3036 1951)">Requires Xcode 14 or greater</text>
  <text id="descriptive-name" style="stroke:none;fill:black;font-family:sans-serif;font-size:13;text-anchor:end;" transform="matrix(1 0 0 1 3036 1969)">Generated from basket</text>
  <text style="stroke:none;fill:black;font-family:sans-serif;font-size:13;text-anchor:end;" transform="matrix(1 0 0 1 3036 1987)">Typeset at 100 points</text>
  <text style="stroke:none;fill:black;font-family:sans-serif;font-size:13;" transform="matrix(1 0 0 1 263 726)">Small</text>
  <text style="stroke:none;fill:black;font-family:sans-serif;font-size:13;" transform="matrix(1 0 0 1 263 1156)">Medium</text>
  <text style="stroke:none;fill:black;font-family:sans-serif;font-size:13;" transform="matrix(1 0 0 1 263 1586)">Large</text>
 </g>
 <g id="Guides">
  <g id="H-reference" style="fill:#27AAE1;stroke:none;" transform="matrix(1 0 0 1 339 696)">
   <path d="M0.993654 0L3.63775 0L29.3281-67.1323L30.0303-67.1323L30.0303-70.459L28.1226-70.459ZM11.6885-24.4799L46.9815-24.4799L46.2315-26.7285L12.4385-26.7285ZM55.1196 0L57.7637 0L30.6382-70.459L29.4326-70.459L29.4326-67.1323Z"/>
  </g>
  <line id="Baseline-S" style="fill:none;stroke:#27AAE1;opacity:1;stroke-width:0.5;" x1="263" x2="3036" y1="696" y2="696"/>
  <line id="Capline-S" style="fill:none;stroke:#27AAE1;opacity:1;stroke-width:0.5;" x1="263" x2="3036" y1="625.541" y2="625.541"/>
  <g id="H-reference" style="fill:#27AAE1;stroke:none;" transform="matrix(1 0 0 1 339 1126)">
   <path d="M0.993654 0L3.63775 0L29.3281-67.1323L30.0303-67.1323L30.0303-70.459L28.1226-70.459ZM11.6885-24.4799L46.9815-24.4799L46.2315-26.7285L12.4385-26.7285ZM55.1196 0L57.7637 0L30.6382-70.459L29.4326-70.459L29.4326-67.1323Z"/>
  </g>
  <line id="Baseline-M" style="fill:none;stroke:#27AAE1;opacity:1;stroke-width:0.5;" x1="263" x2="3036" y1="1126" y2="1126"/>
  <line id="Capline-M" style="fill:none;stroke:#27AAE1;opacity:1;stroke-width:0.5;" x1="263" x2="3036" y1="1055.54" y2="1055.54"/>
  <g id="H-reference" style="fill:#27AAE1;stroke:none;" transform="matrix(1 0 0 1 339 1556)">
   <path d="M0.993654 0L3.63775 0L29.3281-67.1323L30.0303-67.1323L30.0303-70.459L28.1226-70.459ZM11.6885-24.4799L46.9815-24.4799L46.2315-26.7285L12.4385-26.7285ZM55.1196 0L57.7637 0L30.6382-70.459L29.4326-70.459L29.4326-67.1323Z"/>
  </g>
  <line id="Baseline-L" style="fill:none;stroke:#27AAE1;opacity:1;stroke-width:0.5;" x1="263" x2="3036" y1="1556" y2="1556"/>
  <line id="Capline-L" style="fill:none;stroke:#27AAE1;opacity:1;stroke-width:0.5;" x1="263" x2="3036" y1="1485.54" y2="1485.54"/>
  <line id="left-margin-Ultralight-S" style="fill:none;stroke:#00AEEF;stroke-width:0.5;opacity:1.0;" x1="509.706" x2="509.706" y1="600.785" y2="720.121"/>
  <line id="right-margin-Ultralight-S" style="fill:none;stroke:#00AEEF;stroke-width:0.5;opacity:1.0;" x1="609.717" x2="609.717" y1="600.785" y2="720.121"/>
  <line id="left-margin-Regular-S" style="fill:none;stroke:#00AEEF;stroke-width:0.5;opacity:1.0;" x1="1394.25" x2="1394.25" y1="600.785" y2="720.121"/>
  <line id="right-margin-Regular-S" style="fill:none;stroke:#00AEEF;stroke-width:0.5;opacity:1.0;" x1="1505.44" x2="1505.44" y1="600.785" y2="720.121"/>
  <line id="left-margin-Black-S" style="fill:none;stroke:#00AEEF;stroke-width:0.5;opacity:1.0;" x1="2875.54" x2="2875.54" y1="600.785" y2="720.121"/>
  <line id="right-margin-Black-S" style="fill:none;stroke:#00AEEF;stroke-width:0.5;opacity:1.0;" x1="2991.26" x2="2991.26" y1="600.785" y2="720.121"/>
 </g>
 <g id="Symbols">
  <g id="Black-S" transform="matrix(1 0 0 1 2875.54 696)">
   <path class="monochrome-0 SFSymbolsPreview000000" d="M9.76562-36.1816C9.76562-31.1523 13.1348-27.7832 18.2129-27.7832L97.4609-27.7832C102.539-27.7832 105.957-31.1523 105.957-36.1816L105.957-45.2148C105.957-50.2441 102.539-53.7109 97.4609-53.7109L18.2129-53.7109C13.0859-53.7109 9.76562-50.2441 9.76562-45.2148ZM37.6953 10.6445L78.0273 10.6445C89.4043 10.6445 92.627 3.56445 93.9453-2.68555L100.293-32.9102L89.4531-35.1562L83.4473-6.34766C82.4219-1.46484 81.6895-0.537109 76.6602-0.537109L39.0625-0.537109C34.0332-0.537109 33.3008-1.46484 32.2754-6.34766L26.2695-35.1562L15.4297-32.9102L21.7773-2.68555C23.0957 3.56445 26.3184 10.6445 37.6953 10.6445ZM21.3379-42.5781L94.3848-42.5781C94.6777-42.5781 94.873-42.3828 94.873-42.0898L94.873-39.3555C94.873-39.0625 94.6777-38.8672 94.3848-38.8672L21.3379-38.8672C21.0449-38.8672 20.8496-39.0625 20.8496-39.3555L20.8496-42.0898C20.8496-42.3828 21.0449-42.5781 21.3379-42.5781ZM79.7363-50.1465L93.457-50.1465L77.0996-77.6367C75.4395-80.4688 72.168-81.0547 69.4824-79.7363C66.6016-78.2227 65.4785-74.9512 67.1875-71.9727ZM22.2656-50.1465L35.9863-50.1465L48.5352-71.9727C50.2441-74.9512 49.1211-78.2227 46.2891-79.6875C43.6523-81.1035 40.332-80.5664 38.623-77.6367ZM41.4551-2.63672C43.5059-3.02734 44.7266-4.54102 44.3848-6.39648L41.4062-23.4375C41.0645-25.293 39.4043-26.3672 37.4512-26.0742C35.4004-25.6836 34.1309-24.1699 34.4727-22.3145L37.5-5.27344C37.8418-3.41797 39.4043-2.34375 41.4551-2.63672ZM74.2676-2.63672C76.2207-2.34375 77.8809-3.41797 78.2227-5.27344L81.25-22.3145C81.5918-24.1699 80.3223-25.6836 78.2715-26.0742C76.3184-26.3672 74.6582-25.293 74.3164-23.4375L71.3379-6.39648C70.9961-4.54102 72.2168-3.02734 74.2676-2.63672ZM63.3301-2.97852C65.332-2.88086 66.8945-4.15039 66.9922-6.05469L68.0176-22.7051C68.1152-24.6582 66.748-26.0742 64.7461-26.1719C62.6953-26.3672 61.1816-25 61.084-23.0957L60.0586-6.39648C59.9609-4.49219 61.3281-3.07617 63.3301-2.97852ZM52.4414-2.97852C54.4434-3.07617 55.8105-4.49219 55.7129-6.39648L54.6875-23.0957C54.5898-25 53.0762-26.3672 51.0254-26.1719C49.0234-26.0742 47.6562-24.6582 47.7539-22.7051L48.7793-6.05469C48.877-4.15039 50.4395-2.88086 52.4414-2.97852Z"/>
  </g>
  <g id="Regular-S" transform="matrix(1 0 0 1 1394.25 696)">
   <path class="monochrome-0 SFSymbolsPreview000000" d="M9.76562-40.2344C9.76562-36.3281 12.207-33.9355 16.1133-33.9355L95.0195-33.9355C98.9258-33.9355 101.416-36.3281 101.416-40.2344L101.416-46.1914C101.416-50.0488 98.9258-52.5879 95.0195-52.5879L16.1133-52.5879C12.207-52.5879 9.76562-50.0488 9.76562-46.1914ZM35.3516 4.49219L75.8301 4.49219C85.5469 4.49219 88.3301-1.2207 89.502-7.03125L95.5078-35.5469L88.7207-36.9141L83.1055-9.76562C81.9824-4.54102 80.4199-2.49023 74.5117-2.49023L36.6211-2.49023C30.7129-2.49023 29.1992-4.54102 28.0762-9.76562L22.4609-36.9141L15.6738-35.5469L21.6309-7.03125C22.8516-1.2207 25.6348 4.49219 35.3516 4.49219ZM17.9199-45.6055L93.2129-45.6055C93.9941-45.6055 94.4824-45.1172 94.4824-44.3359L94.4824-42.0898C94.4824-41.3086 93.9941-40.8203 93.2129-40.8203L17.9199-40.8203C17.1387-40.8203 16.6504-41.3086 16.6504-42.0898L16.6504-44.3359C16.6504-45.1172 17.1387-45.6055 17.9199-45.6055ZM79.9805-50.6836L88.8672-50.6836L72.998-77.4414C71.875-79.3945 69.6777-79.541 68.1152-78.7109C66.5039-77.8809 65.4785-75.9766 66.6992-73.877ZM22.3145-50.6836L31.1523-50.6836L44.4824-73.877C45.7031-75.9766 44.6777-77.8809 43.0664-78.7109C41.5039-79.541 39.3555-79.4434 38.1836-77.4414ZM39.1113-6.39648C40.7227-6.68945 41.6016-7.8125 41.3574-9.17969L38.3301-28.418C38.0859-29.834 36.8652-30.6152 35.3027-30.4199C33.6914-30.127 32.8125-29.0039 33.0566-27.6367L36.1328-8.39844C36.3281-6.98242 37.5488-6.15234 39.1113-6.39648ZM72.0215-6.39648C73.584-6.15234 74.8047-6.98242 75.0488-8.39844L78.125-27.6367C78.3691-29.0039 77.4414-30.127 75.8789-30.4199C74.3164-30.6152 73.0957-29.834 72.8516-28.418L69.8242-9.17969C69.5801-7.8125 70.4102-6.68945 72.0215-6.39648ZM61.084-6.68945C62.5977-6.5918 63.7695-7.56836 63.8672-9.0332L64.9414-27.8809C64.9902-29.3457 63.9648-30.4199 62.4023-30.5176C60.8398-30.6641 59.7168-29.6387 59.6191-28.1738L58.5449-9.27734C58.4473-7.86133 59.5215-6.78711 61.084-6.68945ZM50.1465-6.68945C51.709-6.78711 52.7344-7.86133 52.6367-9.27734L51.5625-28.1738C51.4648-29.6387 50.3906-30.6641 48.7793-30.5176C47.2168-30.4199 46.1914-29.3457 46.2891-27.8809L47.3633-9.0332C47.4609-7.56836 48.584-6.5918 50.1465-6.68945Z"/>
  </g>
  <g id="Ultralight-S" transform="matrix(1 0 0 1 509.706 696)">
   <path class="monochrome-0 SFSymbolsPreview000000" d="M9.76562-39.8711C9.76562-37.4634 11.1172-36.0698 13.5249-36.0698L86.4825-36.0698C88.8448-36.0698 90.2452-37.4634 90.2452-39.8711L90.2452-43.4668C90.2452-45.8711 88.8448-47.2295 86.4825-47.2295L13.5249-47.2295C11.1172-47.2295 9.76562-45.8711 9.76562-43.4668ZM28.4947 1.94924L71.5161 1.94924C76.2833 1.94924 78.8848-0.721195 79.7843-5.16945L86.1988-37.1816L83.771-36.5962L77.6563-5.54251C77.0328-2.17971 75.6065-0.265154 71.4693-0.265154L28.5381-0.265154C24.4009-0.265154 22.9781-2.17971 22.3091-5.54251L16.2398-36.5962L13.812-37.1816L20.1777-5.16945C21.0806-0.721195 23.7276 1.94924 28.4947 1.94924ZM13.606-45.0606L86.4014-45.0606C87.4551-45.0606 88.0342-44.436 88.0342-43.3823L88.0342-39.9556C88.0342-38.9019 87.4551-38.2774 86.4014-38.2774L13.606-38.2774C12.5523-38.2774 11.9732-38.9019 11.9732-39.9556L11.9732-43.3823C11.9732-44.436 12.5523-45.0606 13.606-45.0606ZM76.2115-46.9146L78.65-46.9146L64.3248-71.7652C63.9737-72.356 63.4112-72.4571 62.8477-72.1719C62.3716-71.8414 62.1636-71.2994 62.5215-70.6983ZM21.3608-46.9146L23.7505-46.9146L37.4893-70.6983C37.8018-71.2994 37.6392-71.8414 37.1177-72.1719C36.5996-72.4571 35.9951-72.3594 35.6861-71.7652ZM34.4795-5.5337C35.001-5.59962 35.3804-6.08693 35.2725-6.68215L31.4732-30.1435C31.3653-30.6968 30.8711-31.0239 30.3077-30.9194C29.7408-30.8081 29.3614-30.3662 29.4693-29.771L33.3174-6.30959C33.4219-5.71095 33.8706-5.42579 34.4795-5.5337ZM65.5279-5.5337C66.0914-5.42579 66.5855-5.71095 66.6934-6.30959L70.4962-29.771C70.6041-30.3662 70.2667-30.8081 69.7032-30.9194C69.1397-31.0239 68.6455-30.6968 68.5376-30.1435L64.7383-6.68215C64.6304-6.08693 64.961-5.59962 65.5279-5.5337ZM54.8628-5.37257C55.4683-5.32032 55.8682-5.70656 55.9205-6.30862L57.8575-29.9697C57.9063-30.5718 57.4712-31.0102 56.8623-31.0625C56.2989-31.1182 55.857-30.7739 55.8047-30.1719L53.9131-6.50735C53.8609-5.90871 54.2539-5.42482 54.8628-5.37257ZM45.1514-5.37257C45.7149-5.42482 46.15-5.90871 46.0977-6.50735L44.1607-30.1719C44.1085-30.7739 43.7154-31.1182 43.1031-31.0625C42.5396-31.0102 42.1045-30.5718 42.1568-29.9697L44.0484-6.30862C44.1006-5.70656 44.5425-5.32032 45.1514-5.37257Z"/>
  </g>
 </g>
</svg>
