<?xml version="1.0" encoding="UTF-8"?>
<!--Generator: Apple Native CoreSVG 175.5-->
<!DOCTYPE svg
PUBLIC "-//W3C//DTD SVG 1.1//EN"
       "http://www.w3.org/Graphics/SVG/1.1/DTD/svg11.dtd">
<svg version="1.1" xmlns="http://www.w3.org/2000/svg" xmlns:xlink="http://www.w3.org/1999/xlink" width="3300" height="2200">
 <!--glyph: "uni101590.medium", point size: 100.0, font version: "18.0d11e1", template writer version: "90"-->
 <style>.monochrome-0 {fill:#000000}

.SFSymbolsPreview000000 {fill:#000000;opacity:1.0}
</style>
 <g id="Notes">
  <rect height="2200" id="artboard" style="fill:white;opacity:1" width="3300" x="0" y="0"/>
  <line style="fill:none;stroke:black;opacity:1;stroke-width:0.5;" x1="263" x2="3036" y1="292" y2="292"/>
  <text style="stroke:none;fill:black;font-family:sans-serif;font-size:13;font-weight:bold;" transform="matrix(1 0 0 1 263 322)">Weight/Scale Variations</text>
  <text style="stroke:none;fill:black;font-family:sans-serif;font-size:13;text-anchor:middle;" transform="matrix(1 0 0 1 559.711 322)">Ultralight</text>
  <text style="stroke:none;fill:black;font-family:sans-serif;font-size:13;text-anchor:middle;" transform="matrix(1 0 0 1 856.422 322)">Thin</text>
  <text style="stroke:none;fill:black;font-family:sans-serif;font-size:13;text-anchor:middle;" transform="matrix(1 0 0 1 1153.13 322)">Light</text>
  <text style="stroke:none;fill:black;font-family:sans-serif;font-size:13;text-anchor:middle;" transform="matrix(1 0 0 1 1449.84 322)">Regular</text>
  <text style="stroke:none;fill:black;font-family:sans-serif;font-size:13;text-anchor:middle;" transform="matrix(1 0 0 1 1746.56 322)">Medium</text>
  <text style="stroke:none;fill:black;font-family:sans-serif;font-size:13;text-anchor:middle;" transform="matrix(1 0 0 1 2043.27 322)">Semibold</text>
  <text style="stroke:none;fill:black;font-family:sans-serif;font-size:13;text-anchor:middle;" transform="matrix(1 0 0 1 2339.98 322)">Bold</text>
  <text style="stroke:none;fill:black;font-family:sans-serif;font-size:13;text-anchor:middle;" transform="matrix(1 0 0 1 2636.69 322)">Heavy</text>
  <text style="stroke:none;fill:black;font-family:sans-serif;font-size:13;text-anchor:middle;" transform="matrix(1 0 0 1 2933.4 322)">Black</text>
  <line style="fill:none;stroke:black;opacity:1;stroke-width:0.5;" x1="263" x2="3036" y1="1903" y2="1903"/>
  <g transform="matrix(1 0 0 1 263 1933)">
   <path d="M9.24805 0.830078C13.5547 0.830078 17.1387-2.74414 17.1387-7.05078C17.1387-11.3574 13.5449-14.9316 9.23828-14.9316C4.94141-14.9316 1.36719-11.3574 1.36719-7.05078C1.36719-2.74414 4.95117 0.830078 9.24805 0.830078ZM9.24805-0.654297C5.70312-0.654297 2.87109-3.49609 2.87109-7.05078C2.87109-10.6055 5.69336-13.4473 9.23828-13.4473C12.793-13.4473 15.6445-10.6055 15.6445-7.05078C15.6445-3.49609 12.8027-0.654297 9.24805-0.654297ZM5.6543-7.05078C5.6543-6.62109 5.95703-6.32812 6.40625-6.32812L8.50586-6.32812L8.50586-4.20898C8.50586-3.76953 8.79883-3.4668 9.22852-3.4668C9.67773-3.4668 9.9707-3.76953 9.9707-4.20898L9.9707-6.32812L12.0898-6.32812C12.5293-6.32812 12.832-6.62109 12.832-7.05078C12.832-7.49023 12.5293-7.79297 12.0898-7.79297L9.9707-7.79297L9.9707-9.90234C9.9707-10.3516 9.67773-10.6543 9.22852-10.6543C8.79883-10.6543 8.50586-10.3516 8.50586-9.90234L8.50586-7.79297L6.40625-7.79297C5.95703-7.79297 5.6543-7.49023 5.6543-7.05078Z"/>
  </g>
  <g transform="matrix(1 0 0 1 281.867 1933)">
   <path d="M11.709 2.91016C17.1582 2.91016 21.6699-1.61133 21.6699-7.05078C21.6699-12.5 17.1484-17.0117 11.6992-17.0117C6.25977-17.0117 1.74805-12.5 1.74805-7.05078C1.74805-1.61133 6.26953 2.91016 11.709 2.91016ZM11.709 1.25C7.09961 1.25 3.41797-2.44141 3.41797-7.05078C3.41797-11.6602 7.08984-15.3516 11.6992-15.3516C16.3086-15.3516 20.0098-11.6602 20.0098-7.05078C20.0098-2.44141 16.3184 1.25 11.709 1.25ZM7.17773-7.05078C7.17773-6.57227 7.50977-6.25 8.00781-6.25L10.8789-6.25L10.8789-3.36914C10.8789-2.88086 11.2109-2.53906 11.6895-2.53906C12.1777-2.53906 12.5195-2.87109 12.5195-3.36914L12.5195-6.25L15.4004-6.25C15.8887-6.25 16.2305-6.57227 16.2305-7.05078C16.2305-7.53906 15.8887-7.88086 15.4004-7.88086L12.5195-7.88086L12.5195-10.752C12.5195-11.25 12.1777-11.5918 11.6895-11.5918C11.2109-11.5918 10.8789-11.25 10.8789-10.752L10.8789-7.88086L8.00781-7.88086C7.50977-7.88086 7.17773-7.53906 7.17773-7.05078Z"/>
  </g>
  <g transform="matrix(1 0 0 1 305.646 1933)">
   <path d="M14.9707 5.66406C21.9336 5.66406 27.6953-0.0976562 27.6953-7.05078C27.6953-14.0137 21.9238-19.7754 14.9609-19.7754C8.00781-19.7754 2.25586-14.0137 2.25586-7.05078C2.25586-0.0976562 8.01758 5.66406 14.9707 5.66406ZM14.9707 3.84766C8.93555 3.84766 4.08203-1.01562 4.08203-7.05078C4.08203-13.0957 8.92578-17.9492 14.9609-17.9492C21.0059-17.9492 25.8691-13.0957 25.8691-7.05078C25.8691-1.01562 21.0156 3.84766 14.9707 3.84766ZM9.19922-7.05078C9.19922-6.5332 9.57031-6.17188 10.1172-6.17188L14.0625-6.17188L14.0625-2.2168C14.0625-1.67969 14.4336-1.29883 14.9512-1.29883C15.4883-1.29883 15.8594-1.66992 15.8594-2.2168L15.8594-6.17188L19.8145-6.17188C20.3516-6.17188 20.7324-6.5332 20.7324-7.05078C20.7324-7.59766 20.3613-7.96875 19.8145-7.96875L15.8594-7.96875L15.8594-11.9141C15.8594-12.4609 15.4883-12.8418 14.9512-12.8418C14.4336-12.8418 14.0625-12.4609 14.0625-11.9141L14.0625-7.96875L10.1172-7.96875C9.57031-7.96875 9.19922-7.59766 9.19922-7.05078Z"/>
  </g>
  <text style="stroke:none;fill:black;font-family:sans-serif;font-size:13;font-weight:bold;" transform="matrix(1 0 0 1 263 1953)">Design Variations</text>
  <text style="stroke:none;fill:black;font-family:sans-serif;font-size:13;" transform="matrix(1 0 0 1 263 1971)">Symbols are supported in up to nine weights and three scales.</text>
  <text style="stroke:none;fill:black;font-family:sans-serif;font-size:13;" transform="matrix(1 0 0 1 263 1989)">For optimal layout with text and other symbols, vertically align</text>
  <text style="stroke:none;fill:black;font-family:sans-serif;font-size:13;" transform="matrix(1 0 0 1 263 2007)">symbols with the adjacent text.</text>
  <line style="fill:none;stroke:#00AEEF;stroke-width:0.5;opacity:1.0;" x1="776" x2="776" y1="1919" y2="1933"/>
  <g transform="matrix(1 0 0 1 776 1933)">
   <path d="M3.31055 0.15625C3.82812 0.15625 4.08203-0.0390625 4.26758-0.585938L5.52734-4.0332L11.2891-4.0332L12.5488-0.585938C12.7344-0.0390625 12.9883 0.15625 13.4961 0.15625C14.0137 0.15625 14.3457-0.15625 14.3457-0.644531C14.3457-0.810547 14.3164-0.966797 14.2383-1.17188L9.6582-13.3691C9.43359-13.9648 9.0332-14.2676 8.4082-14.2676C7.80273-14.2676 7.39258-13.9746 7.17773-13.3789L2.59766-1.16211C2.51953-0.957031 2.49023-0.800781 2.49023-0.634766C2.49023-0.146484 2.80273 0.15625 3.31055 0.15625ZM6.00586-5.51758L8.37891-12.0898L8.42773-12.0898L10.8008-5.51758Z"/>
  </g>
  <line style="fill:none;stroke:#00AEEF;stroke-width:0.5;opacity:1.0;" x1="793.197" x2="793.197" y1="1919" y2="1933"/>
  <text style="stroke:none;fill:black;font-family:sans-serif;font-size:13;font-weight:bold;" transform="matrix(1 0 0 1 776 1953)">Margins</text>
  <text style="stroke:none;fill:black;font-family:sans-serif;font-size:13;" transform="matrix(1 0 0 1 776 1971)">Leading and trailing margins on the left and right side of each symbol</text>
  <text style="stroke:none;fill:black;font-family:sans-serif;font-size:13;" transform="matrix(1 0 0 1 776 1989)">can be adjusted by modifying the x-location of the margin guidelines.</text>
  <text style="stroke:none;fill:black;font-family:sans-serif;font-size:13;" transform="matrix(1 0 0 1 776 2007)">Modifications are automatically applied proportionally to all</text>
  <text style="stroke:none;fill:black;font-family:sans-serif;font-size:13;" transform="matrix(1 0 0 1 776 2025)">scales and weights.</text>
  <g transform="matrix(1 0 0 1 1289 1933)">
   <path d="M2.8418 1.86523L4.54102 3.57422C5.40039 4.44336 6.38672 4.38477 7.31445 3.35938L18.0078-8.42773L17.041-9.4043L6.42578 2.27539C6.07422 2.67578 5.74219 2.77344 5.27344 2.30469L4.10156 1.14258C3.63281 0.683594 3.74023 0.341797 4.14062-0.0195312L15.6152-10.8203L14.6387-11.7871L3.04688-0.898438C2.06055 0.0195312 1.98242 0.996094 2.8418 1.86523ZM9.25781-16.3281C8.83789-15.918 8.80859-15.3418 9.04297-14.9512C9.27734-14.5898 9.73633-14.3555 10.3809-14.5215C11.8457-14.8633 13.3691-14.9219 14.7949-13.9844L14.209-12.5293C13.8672-11.6992 14.043-11.1133 14.5801-10.5664L16.875-8.25195C17.3633-7.76367 17.7734-7.74414 18.3398-7.8418L19.4043-8.03711L20.0684-7.36328L20.0293-6.80664C19.9902-6.30859 20.1172-5.92773 20.6055-5.44922L21.3672-4.70703C21.8457-4.22852 22.4609-4.19922 22.9297-4.66797L25.8398-7.58789C26.3086-8.05664 26.2891-8.65234 25.8105-9.13086L25.0391-9.89258C24.5605-10.3711 24.1895-10.5273 23.7109-10.4883L23.1348-10.4395L22.4902-11.0742L22.7344-12.1973C22.8613-12.7637 22.7051-13.2031 22.1191-13.7891L19.9219-15.9766C16.582-19.2969 12.1484-19.2188 9.25781-16.3281ZM10.752-15.957C13.1836-17.7344 16.4746-17.4316 18.7012-15.2051L21.1328-12.793C21.3672-12.5586 21.4062-12.373 21.3379-12.0312L21.0156-10.5469L22.5195-9.0625L23.5059-9.12109C23.7598-9.13086 23.8379-9.11133 24.0332-8.91602L24.6094-8.33984L22.168-5.89844L21.5918-6.47461C21.3965-6.66992 21.3672-6.74805 21.377-7.01172L21.4453-7.98828L19.9512-9.47266L18.4277-9.21875C18.1055-9.15039 17.959-9.17969 17.7148-9.41406L15.7129-11.416C15.459-11.6504 15.4297-11.8164 15.5859-12.1875L16.4648-14.2773C14.9023-15.7324 12.8711-16.3574 10.8398-15.7617C10.6836-15.7227 10.625-15.8496 10.752-15.957Z"/>
  </g>
  <text style="stroke:none;fill:black;font-family:sans-serif;font-size:13;font-weight:bold;" transform="matrix(1 0 0 1 1289 1953)">Exporting</text>
  <text style="stroke:none;fill:black;font-family:sans-serif;font-size:13;" transform="matrix(1 0 0 1 1289 1971)">Symbols should be outlined when exporting to ensure the</text>
  <text style="stroke:none;fill:black;font-family:sans-serif;font-size:13;" transform="matrix(1 0 0 1 1289 1989)">design is preserved when submitting to Xcode.</text>
  <text id="template-version" style="stroke:none;fill:black;font-family:sans-serif;font-size:13;text-anchor:end;" transform="matrix(1 0 0 1 3036 1933)">Template v.4.0</text>
  <text style="stroke:none;fill:black;font-family:sans-serif;font-size:13;text-anchor:end;" transform="matrix(1 0 0 1 3036 1951)">Requires Xcode 14 or greater</text>
  <text id="descriptive-name" style="stroke:none;fill:black;font-family:sans-serif;font-size:13;text-anchor:end;" transform="matrix(1 0 0 1 3036 1969)">Generated from fish</text>
  <text style="stroke:none;fill:black;font-family:sans-serif;font-size:13;text-anchor:end;" transform="matrix(1 0 0 1 3036 1987)">Typeset at 100 points</text>
  <text style="stroke:none;fill:black;font-family:sans-serif;font-size:13;" transform="matrix(1 0 0 1 263 726)">Small</text>
  <text style="stroke:none;fill:black;font-family:sans-serif;font-size:13;" transform="matrix(1 0 0 1 263 1156)">Medium</text>
  <text style="stroke:none;fill:black;font-family:sans-serif;font-size:13;" transform="matrix(1 0 0 1 263 1586)">Large</text>
 </g>
 <g id="Guides">
  <g id="H-reference" style="fill:#27AAE1;stroke:none;" transform="matrix(1 0 0 1 339 696)">
   <path d="M0.993654 0L3.63775 0L29.3281-67.1323L30.0303-67.1323L30.0303-70.459L28.1226-70.459ZM11.6885-24.4799L46.9815-24.4799L46.2315-26.7285L12.4385-26.7285ZM55.1196 0L57.7637 0L30.6382-70.459L29.4326-70.459L29.4326-67.1323Z"/>
  </g>
  <line id="Baseline-S" style="fill:none;stroke:#27AAE1;opacity:1;stroke-width:0.5;" x1="263" x2="3036" y1="696" y2="696"/>
  <line id="Capline-S" style="fill:none;stroke:#27AAE1;opacity:1;stroke-width:0.5;" x1="263" x2="3036" y1="625.541" y2="625.541"/>
  <g id="H-reference" style="fill:#27AAE1;stroke:none;" transform="matrix(1 0 0 1 339 1126)">
   <path d="M0.993654 0L3.63775 0L29.3281-67.1323L30.0303-67.1323L30.0303-70.459L28.1226-70.459ZM11.6885-24.4799L46.9815-24.4799L46.2315-26.7285L12.4385-26.7285ZM55.1196 0L57.7637 0L30.6382-70.459L29.4326-70.459L29.4326-67.1323Z"/>
  </g>
  <line id="Baseline-M" style="fill:none;stroke:#27AAE1;opacity:1;stroke-width:0.5;" x1="263" x2="3036" y1="1126" y2="1126"/>
  <line id="Capline-M" style="fill:none;stroke:#27AAE1;opacity:1;stroke-width:0.5;" x1="263" x2="3036" y1="1055.54" y2="1055.54"/>
  <g id="H-reference" style="fill:#27AAE1;stroke:none;" transform="matrix(1 0 0 1 339 1556)">
   <path d="M0.993654 0L3.63775 0L29.3281-67.1323L30.0303-67.1323L30.0303-70.459L28.1226-70.459ZM11.6885-24.4799L46.9815-24.4799L46.2315-26.7285L12.4385-26.7285ZM55.1196 0L57.7637 0L30.6382-70.459L29.4326-70.459L29.4326-67.1323Z"/>
  </g>
  <line id="Baseline-L" style="fill:none;stroke:#27AAE1;opacity:1;stroke-width:0.5;" x1="263" x2="3036" y1="1556" y2="1556"/>
  <line id="Capline-L" style="fill:none;stroke:#27AAE1;opacity:1;stroke-width:0.5;" x1="263" x2="3036" y1="1485.54" y2="1485.54"/>
  <line id="left-margin-Ultralight-S" style="fill:none;stroke:#00AEEF;stroke-width:0.5;opacity:1.0;" x1="501.805" x2="501.805" y1="600.785" y2="720.121"/>
  <line id="right-margin-Ultralight-S" style="fill:none;stroke:#00AEEF;stroke-width:0.5;opacity:1.0;" x1="617.617" x2="617.617" y1="600.785" y2="720.121"/>
  <line id="left-margin-Regular-S" style="fill:none;stroke:#00AEEF;stroke-width:0.5;opacity:1.0;" x1="1384.85" x2="1384.85" y1="600.785" y2="720.121"/>
  <line id="right-margin-Regular-S" style="fill:none;stroke:#00AEEF;stroke-width:0.5;opacity:1.0;" x1="1514.83" x2="1514.83" y1="600.785" y2="720.121"/>
  <line id="left-margin-Black-S" style="fill:none;stroke:#00AEEF;stroke-width:0.5;opacity:1.0;" x1="2860.23" x2="2860.23" y1="600.785" y2="720.121"/>
  <line id="right-margin-Black-S" style="fill:none;stroke:#00AEEF;stroke-width:0.5;opacity:1.0;" x1="3006.57" x2="3006.57" y1="600.785" y2="720.121"/>
 </g>
 <g id="Symbols">
  <g id="Black-S" transform="matrix(1 0 0 1 2860.23 696)">
   <path class="monochrome-0 SFSymbolsPreview000000" d="M83.0078 0.341797C103.516 0.341797 136.572-13.3301 136.572-33.1055C136.572-52.9297 103.516-66.5527 83.0078-66.5527C69.4824-66.5527 55.2246-61.9629 43.5059-51.6113C35.9375-59.3262 26.9531-63.7695 16.748-63.9648C13.2324-64.0137 10.2539-61.5723 9.86328-57.9102C9.0332-49.1211 12.5488-39.5996 18.1641-33.1055C12.5488-26.6602 9.0332-17.1387 9.86328-8.30078C10.2539-4.6875 13.2324-2.24609 16.748-2.29492C26.9531-2.44141 35.9375-6.88477 43.5059-14.6484C55.2246-4.24805 69.4824 0.341797 83.0078 0.341797ZM83.0078-12.1094C69.9707-12.1094 57.8125-16.6016 47.5586-28.125C44.9707-31.0547 41.1133-30.957 38.5742-27.832C32.8125-20.752 28.4668-17.627 23.291-15.7715C22.9004-15.625 22.7051-15.8203 22.8027-16.2109C23.6816-19.9707 26.709-24.8535 30.9082-28.3203C34.9121-31.7871 34.3262-35.0586 30.9082-37.9395C27.3438-40.918 24.3652-44.873 22.8027-50.0488C22.6562-50.4395 22.9004-50.6348 23.291-50.4883C29.0527-48.4375 33.5938-44.5312 38.5742-38.4277C41.0645-35.3027 44.9707-35.2539 47.5586-38.0859C57.8125-49.6094 69.9707-54.1016 83.0078-54.1016C100.488-54.1016 124.268-42.8711 124.268-33.1055C124.268-23.3398 100.488-12.1094 83.0078-12.1094ZM61.7188-56.0547L72.7051-57.959C71.9238-62.8906 71.2891-66.8945 68.75-71.1914C68.5547-71.4844 68.6035-71.7773 69.043-71.875C80.5176-74.2676 94.1895-67.9199 95.752-55.3711L106.738-57.2754C103.76-79.0527 76.4648-89.6484 57.7148-79.2969C54.3945-77.4902 53.4668-73.6328 56.1523-70.1172C60.5469-64.2578 60.7422-62.4023 61.7188-56.0547ZM67.1875-9.7168L65.0879 7.4707C64.4043 12.9395 68.2129 17.1875 74.6094 16.1133C87.793 14.1113 103.223 2.92969 108.643-8.78906L93.5547-6.98242C88.623-3.07617 84.1797 0.634766 78.8574 2.68555C78.4668 2.83203 78.1738 2.63672 78.2227 2.24609L79.1992-8.10547ZM109.863-30.3223C112.5-30.3223 114.697-32.5195 114.697-35.1562C114.697-37.793 112.5-39.9902 109.863-39.9902C107.227-39.9902 105.029-37.793 105.029-35.1562C105.029-32.5195 107.227-30.3223 109.863-30.3223Z"/>
  </g>
  <g id="Regular-S" transform="matrix(1 0 0 1 1384.85 696)">
   <path class="monochrome-0 SFSymbolsPreview000000" d="M73.9746-5.27344C91.8457-5.27344 120.215-17.1875 120.215-33.4473C120.215-49.6582 91.8457-61.5723 73.9746-61.5723C61.5234-61.5723 48.5352-57.1777 38.0371-47.2168C31.25-54.7852 23.1934-59.0332 13.916-59.1797C11.8164-59.2285 10.0586-57.8125 9.86328-55.6641C9.08203-47.6562 12.6465-38.8672 18.1641-33.4473C12.6465-28.0273 9.08203-19.2383 9.86328-11.1816C10.0586-9.08203 11.8164-7.61719 13.916-7.66602C23.1934-7.8125 31.25-12.1094 38.0371-19.6777C48.5352-9.66797 61.5234-5.27344 73.9746-5.27344ZM73.9746-12.3535C61.7188-12.3535 49.9023-16.6992 40.2832-27.5391C38.8184-29.1504 36.8164-29.1016 35.3516-27.3438C29.8828-20.6055 24.6094-16.5039 18.2129-15.1855C17.4805-15.0391 16.8457-15.6738 16.9922-16.4551C17.8711-22.168 21.3379-27.3438 25.4395-30.7129C27.7344-32.666 27.7832-34.1797 25.4395-36.1328C21.3379-39.5508 17.8711-44.6777 16.9922-50.3906C16.8457-51.1719 17.4805-51.8555 18.2129-51.709C24.6094-50.3906 29.8828-46.2402 35.3516-39.5508C36.7676-37.7441 38.8184-37.6953 40.2832-39.3555C49.9023-50.1465 61.7188-54.541 73.9746-54.541C90.2832-54.541 113.33-43.7012 113.33-33.4473C113.33-23.1934 90.2832-12.3535 73.9746-12.3535ZM55.3223-55.8105L61.6211-56.9336C61.0352-61.0352 60.1562-64.3555 57.373-68.6523C56.9336-69.2871 57.0312-69.873 57.5684-70.0195C69.6777-73.6816 85.0586-67.6758 88.0371-55.2246L94.4824-56.25C90.5273-74.2676 66.9922-82.8613 50.7324-73.877C48.6328-72.7539 48.1445-70.5078 49.8535-68.2129C53.8086-63.0371 54.5898-60.4492 55.3223-55.8105ZM61.4746-10.0586L59.8145 3.41797C59.375 7.03125 61.7188 9.57031 65.9668 8.93555C75.9277 7.37305 87.5488-0.341797 93.2617-9.08203L84.3262-8.00781C79.541-4.10156 74.7559-0.341797 68.7012 1.46484C67.8223 1.70898 67.1387 1.5625 67.2852 0.292969L68.1641-9.13086ZM98.2422-30.957C100.586-30.957 102.539-32.9102 102.539-35.2539C102.539-37.5977 100.586-39.5508 98.2422-39.5508C95.8984-39.5508 93.9453-37.5977 93.9453-35.2539C93.9453-32.9102 95.8984-30.957 98.2422-30.957Z"/>
  </g>
  <g id="Ultralight-S" transform="matrix(1 0 0 1 501.805 696)">
   <path class="monochrome-0 SFSymbolsPreview000000" d="M66.9815-10.5864C83.6719-10.5864 106.002-20.6841 106.047-34.0376C106.002-47.3877 83.6719-57.5762 66.9815-57.5762C54.4849-57.5762 42.8135-53.3633 33.2691-43.4478C26.9361-51.1978 20.0147-55.2188 11.4185-55.3653C10.2725-55.3687 9.96777-55.1333 9.86328-54.0747C9.08203-46.4756 12.7827-38.5947 18.4365-34.0376C12.7827-29.5713 9.08203-21.5542 9.86328-13.997C9.96777-12.9419 10.2725-12.6577 11.4185-12.6611C20.0147-12.853 26.9361-16.8774 33.2691-24.582C42.8135-14.7085 54.4849-10.5864 66.9815-10.5864ZM66.9815-12.7622C54.4532-12.7622 43.2725-16.9263 33.8804-27.1758C33.5054-27.6065 32.8658-27.603 32.4907-27.1167C26.3408-19.2886 20.25-15.3687 12.3096-14.9131C12.1675-14.9028 12.0323-15.0381 12.0425-15.1836C11.65-22.3496 15.3438-29.4326 21.0347-33.2558C21.6495-33.665 21.6529-34.4067 20.9893-34.8613C15.3438-38.7788 11.65-45.7676 12.0425-52.8428C12.0323-53.0337 12.1675-53.1724 12.3096-53.1621C20.25-52.7065 26.3408-48.8286 32.4453-40.9585C32.8169-40.4233 33.46-40.4199 33.835-40.8994C43.3179-51.1455 54.4532-55.3584 66.9815-55.3584C83.1993-55.3584 103.839-45.8808 103.885-34.0376C103.839-22.1943 83.1993-12.7622 66.9815-12.7622ZM50.5542-53.6309L52.4937-54.6631C51.817-58.4014 50.3477-61.4947 47.2467-65.7007C47.1251-65.836 47.1319-66.0132 47.3057-66.1143C59.7784-72.6826 77.0211-67.0855 82.1792-53.9985L84.901-52.9805C80.1739-68.5005 59.772-75.4595 45.3741-67.5196C44.3189-66.9415 44.3755-65.876 45.0855-64.9434C48.6319-60.3125 49.8218-57.4522 50.5542-53.6309ZM57.0244-13.1465L55.5459-1.44088C55.3789-0.0526786 56.315 0.533763 57.8384 0.262275C66.6641-1.11859 75.3336-6.42671 80.547-13.0327L77.3785-12.685C72.5025-7.37107 65.4469-3.33884 58.2569-2.03171C58.0137-2.01462 57.9205-2.1611 57.9307-2.38621L59.1275-12.4004ZM88.6153-32.501C90.0963-32.501 91.3683-33.7275 91.3683-35.2539C91.3683-36.7803 90.0963-38.0068 88.6153-38.0068C87.0889-38.0068 85.817-36.7803 85.817-35.2539C85.817-33.7275 87.0889-32.501 88.6153-32.501Z"/>
  </g>
 </g>
</svg>
