<?xml version="1.0" encoding="UTF-8"?>
<!--Generator: Apple Native CoreSVG 175.5-->
<!DOCTYPE svg
PUBLIC "-//W3C//DTD SVG 1.1//EN"
       "http://www.w3.org/Graphics/SVG/1.1/DTD/svg11.dtd">
<svg version="1.1" xmlns="http://www.w3.org/2000/svg" xmlns:xlink="http://www.w3.org/1999/xlink" width="3300" height="2200">
 <!--glyph: "uni101384.medium", point size: 100.0, font version: "18.0d11e1", template writer version: "90"-->
 <g id="Notes">
  <rect height="2200" id="artboard" style="fill:white;opacity:1" width="3300" x="0" y="0"/>
  <line style="fill:none;stroke:black;opacity:1;stroke-width:0.5;" x1="263" x2="3036" y1="292" y2="292"/>
  <text style="stroke:none;fill:black;font-family:sans-serif;font-size:13;font-weight:bold;" transform="matrix(1 0 0 1 263 322)">Weight/Scale Variations</text>
  <text style="stroke:none;fill:black;font-family:sans-serif;font-size:13;text-anchor:middle;" transform="matrix(1 0 0 1 559.711 322)">Ultralight</text>
  <text style="stroke:none;fill:black;font-family:sans-serif;font-size:13;text-anchor:middle;" transform="matrix(1 0 0 1 856.422 322)">Thin</text>
  <text style="stroke:none;fill:black;font-family:sans-serif;font-size:13;text-anchor:middle;" transform="matrix(1 0 0 1 1153.13 322)">Light</text>
  <text style="stroke:none;fill:black;font-family:sans-serif;font-size:13;text-anchor:middle;" transform="matrix(1 0 0 1 1449.84 322)">Regular</text>
  <text style="stroke:none;fill:black;font-family:sans-serif;font-size:13;text-anchor:middle;" transform="matrix(1 0 0 1 1746.56 322)">Medium</text>
  <text style="stroke:none;fill:black;font-family:sans-serif;font-size:13;text-anchor:middle;" transform="matrix(1 0 0 1 2043.27 322)">Semibold</text>
  <text style="stroke:none;fill:black;font-family:sans-serif;font-size:13;text-anchor:middle;" transform="matrix(1 0 0 1 2339.98 322)">Bold</text>
  <text style="stroke:none;fill:black;font-family:sans-serif;font-size:13;text-anchor:middle;" transform="matrix(1 0 0 1 2636.69 322)">Heavy</text>
  <text style="stroke:none;fill:black;font-family:sans-serif;font-size:13;text-anchor:middle;" transform="matrix(1 0 0 1 2933.4 322)">Black</text>
  <line style="fill:none;stroke:black;opacity:1;stroke-width:0.5;" x1="263" x2="3036" y1="1903" y2="1903"/>
  <g transform="matrix(1 0 0 1 263 1933)">
   <path d="M9.24805 0.830078C13.5547 0.830078 17.1387-2.74414 17.1387-7.05078C17.1387-11.3574 13.5449-14.9316 9.23828-14.9316C4.94141-14.9316 1.36719-11.3574 1.36719-7.05078C1.36719-2.74414 4.95117 0.830078 9.24805 0.830078ZM9.24805-0.654297C5.70312-0.654297 2.87109-3.49609 2.87109-7.05078C2.87109-10.6055 5.69336-13.4473 9.23828-13.4473C12.793-13.4473 15.6445-10.6055 15.6445-7.05078C15.6445-3.49609 12.8027-0.654297 9.24805-0.654297ZM5.6543-7.05078C5.6543-6.62109 5.95703-6.32812 6.40625-6.32812L8.50586-6.32812L8.50586-4.20898C8.50586-3.76953 8.79883-3.4668 9.22852-3.4668C9.67773-3.4668 9.9707-3.76953 9.9707-4.20898L9.9707-6.32812L12.0898-6.32812C12.5293-6.32812 12.832-6.62109 12.832-7.05078C12.832-7.49023 12.5293-7.79297 12.0898-7.79297L9.9707-7.79297L9.9707-9.90234C9.9707-10.3516 9.67773-10.6543 9.22852-10.6543C8.79883-10.6543 8.50586-10.3516 8.50586-9.90234L8.50586-7.79297L6.40625-7.79297C5.95703-7.79297 5.6543-7.49023 5.6543-7.05078Z"/>
  </g>
  <g transform="matrix(1 0 0 1 281.867 1933)">
   <path d="M11.709 2.91016C17.1582 2.91016 21.6699-1.61133 21.6699-7.05078C21.6699-12.5 17.1484-17.0117 11.6992-17.0117C6.25977-17.0117 1.74805-12.5 1.74805-7.05078C1.74805-1.61133 6.26953 2.91016 11.709 2.91016ZM11.709 1.25C7.09961 1.25 3.41797-2.44141 3.41797-7.05078C3.41797-11.6602 7.08984-15.3516 11.6992-15.3516C16.3086-15.3516 20.0098-11.6602 20.0098-7.05078C20.0098-2.44141 16.3184 1.25 11.709 1.25ZM7.17773-7.05078C7.17773-6.57227 7.50977-6.25 8.00781-6.25L10.8789-6.25L10.8789-3.36914C10.8789-2.88086 11.2109-2.53906 11.6895-2.53906C12.1777-2.53906 12.5195-2.87109 12.5195-3.36914L12.5195-6.25L15.4004-6.25C15.8887-6.25 16.2305-6.57227 16.2305-7.05078C16.2305-7.53906 15.8887-7.88086 15.4004-7.88086L12.5195-7.88086L12.5195-10.752C12.5195-11.25 12.1777-11.5918 11.6895-11.5918C11.2109-11.5918 10.8789-11.25 10.8789-10.752L10.8789-7.88086L8.00781-7.88086C7.50977-7.88086 7.17773-7.53906 7.17773-7.05078Z"/>
  </g>
  <g transform="matrix(1 0 0 1 305.646 1933)">
   <path d="M14.9707 5.66406C21.9336 5.66406 27.6953-0.0976562 27.6953-7.05078C27.6953-14.0137 21.9238-19.7754 14.9609-19.7754C8.00781-19.7754 2.25586-14.0137 2.25586-7.05078C2.25586-0.0976562 8.01758 5.66406 14.9707 5.66406ZM14.9707 3.84766C8.93555 3.84766 4.08203-1.01562 4.08203-7.05078C4.08203-13.0957 8.92578-17.9492 14.9609-17.9492C21.0059-17.9492 25.8691-13.0957 25.8691-7.05078C25.8691-1.01562 21.0156 3.84766 14.9707 3.84766ZM9.19922-7.05078C9.19922-6.5332 9.57031-6.17188 10.1172-6.17188L14.0625-6.17188L14.0625-2.2168C14.0625-1.67969 14.4336-1.29883 14.9512-1.29883C15.4883-1.29883 15.8594-1.66992 15.8594-2.2168L15.8594-6.17188L19.8145-6.17188C20.3516-6.17188 20.7324-6.5332 20.7324-7.05078C20.7324-7.59766 20.3613-7.96875 19.8145-7.96875L15.8594-7.96875L15.8594-11.9141C15.8594-12.4609 15.4883-12.8418 14.9512-12.8418C14.4336-12.8418 14.0625-12.4609 14.0625-11.9141L14.0625-7.96875L10.1172-7.96875C9.57031-7.96875 9.19922-7.59766 9.19922-7.05078Z"/>
  </g>
  <text style="stroke:none;fill:black;font-family:sans-serif;font-size:13;font-weight:bold;" transform="matrix(1 0 0 1 263 1953)">Design Variations</text>
  <text style="stroke:none;fill:black;font-family:sans-serif;font-size:13;" transform="matrix(1 0 0 1 263 1971)">Symbols are supported in up to nine weights and three scales.</text>
  <text style="stroke:none;fill:black;font-family:sans-serif;font-size:13;" transform="matrix(1 0 0 1 263 1989)">For optimal layout with text and other symbols, vertically align</text>
  <text style="stroke:none;fill:black;font-family:sans-serif;font-size:13;" transform="matrix(1 0 0 1 263 2007)">symbols with the adjacent text.</text>
  <line style="fill:none;stroke:#00AEEF;stroke-width:0.5;opacity:1.0;" x1="776" x2="776" y1="1919" y2="1933"/>
  <g transform="matrix(1 0 0 1 776 1933)">
   <path d="M3.31055 0.15625C3.82812 0.15625 4.08203-0.0390625 4.26758-0.585938L5.52734-4.0332L11.2891-4.0332L12.5488-0.585938C12.7344-0.0390625 12.9883 0.15625 13.4961 0.15625C14.0137 0.15625 14.3457-0.15625 14.3457-0.644531C14.3457-0.810547 14.3164-0.966797 14.2383-1.17188L9.6582-13.3691C9.43359-13.9648 9.0332-14.2676 8.4082-14.2676C7.80273-14.2676 7.39258-13.9746 7.17773-13.3789L2.59766-1.16211C2.51953-0.957031 2.49023-0.800781 2.49023-0.634766C2.49023-0.146484 2.80273 0.15625 3.31055 0.15625ZM6.00586-5.51758L8.37891-12.0898L8.42773-12.0898L10.8008-5.51758Z"/>
  </g>
  <line style="fill:none;stroke:#00AEEF;stroke-width:0.5;opacity:1.0;" x1="793.197" x2="793.197" y1="1919" y2="1933"/>
  <text style="stroke:none;fill:black;font-family:sans-serif;font-size:13;font-weight:bold;" transform="matrix(1 0 0 1 776 1953)">Margins</text>
  <text style="stroke:none;fill:black;font-family:sans-serif;font-size:13;" transform="matrix(1 0 0 1 776 1971)">Leading and trailing margins on the left and right side of each symbol</text>
  <text style="stroke:none;fill:black;font-family:sans-serif;font-size:13;" transform="matrix(1 0 0 1 776 1989)">can be adjusted by modifying the x-location of the margin guidelines.</text>
  <text style="stroke:none;fill:black;font-family:sans-serif;font-size:13;" transform="matrix(1 0 0 1 776 2007)">Modifications are automatically applied proportionally to all</text>
  <text style="stroke:none;fill:black;font-family:sans-serif;font-size:13;" transform="matrix(1 0 0 1 776 2025)">scales and weights.</text>
  <g transform="matrix(1 0 0 1 1289 1933)">
   <path d="M2.8418 1.86523L4.54102 3.57422C5.40039 4.44336 6.38672 4.38477 7.31445 3.35938L18.0078-8.42773L17.041-9.4043L6.42578 2.27539C6.07422 2.67578 5.74219 2.77344 5.27344 2.30469L4.10156 1.14258C3.63281 0.683594 3.74023 0.341797 4.14062-0.0195312L15.6152-10.8203L14.6387-11.7871L3.04688-0.898438C2.06055 0.0195312 1.98242 0.996094 2.8418 1.86523ZM9.25781-16.3281C8.83789-15.918 8.80859-15.3418 9.04297-14.9512C9.27734-14.5898 9.73633-14.3555 10.3809-14.5215C11.8457-14.8633 13.3691-14.9219 14.7949-13.9844L14.209-12.5293C13.8672-11.6992 14.043-11.1133 14.5801-10.5664L16.875-8.25195C17.3633-7.76367 17.7734-7.74414 18.3398-7.8418L19.4043-8.03711L20.0684-7.36328L20.0293-6.80664C19.9902-6.30859 20.1172-5.92773 20.6055-5.44922L21.3672-4.70703C21.8457-4.22852 22.4609-4.19922 22.9297-4.66797L25.8398-7.58789C26.3086-8.05664 26.2891-8.65234 25.8105-9.13086L25.0391-9.89258C24.5605-10.3711 24.1895-10.5273 23.7109-10.4883L23.1348-10.4395L22.4902-11.0742L22.7344-12.1973C22.8613-12.7637 22.7051-13.2031 22.1191-13.7891L19.9219-15.9766C16.582-19.2969 12.1484-19.2188 9.25781-16.3281ZM10.752-15.957C13.1836-17.7344 16.4746-17.4316 18.7012-15.2051L21.1328-12.793C21.3672-12.5586 21.4062-12.373 21.3379-12.0312L21.0156-10.5469L22.5195-9.0625L23.5059-9.12109C23.7598-9.13086 23.8379-9.11133 24.0332-8.91602L24.6094-8.33984L22.168-5.89844L21.5918-6.47461C21.3965-6.66992 21.3672-6.74805 21.377-7.01172L21.4453-7.98828L19.9512-9.47266L18.4277-9.21875C18.1055-9.15039 17.959-9.17969 17.7148-9.41406L15.7129-11.416C15.459-11.6504 15.4297-11.8164 15.5859-12.1875L16.4648-14.2773C14.9023-15.7324 12.8711-16.3574 10.8398-15.7617C10.6836-15.7227 10.625-15.8496 10.752-15.957Z"/>
  </g>
  <text style="stroke:none;fill:black;font-family:sans-serif;font-size:13;font-weight:bold;" transform="matrix(1 0 0 1 1289 1953)">Exporting</text>
  <text style="stroke:none;fill:black;font-family:sans-serif;font-size:13;" transform="matrix(1 0 0 1 1289 1971)">Symbols should be outlined when exporting to ensure the</text>
  <text style="stroke:none;fill:black;font-family:sans-serif;font-size:13;" transform="matrix(1 0 0 1 1289 1989)">design is preserved when submitting to Xcode.</text>
  <text id="template-version" style="stroke:none;fill:black;font-family:sans-serif;font-size:13;text-anchor:end;" transform="matrix(1 0 0 1 3036 1933)">Template v.4.0</text>
  <text style="stroke:none;fill:black;font-family:sans-serif;font-size:13;text-anchor:end;" transform="matrix(1 0 0 1 3036 1951)">Requires Xcode 14 or greater</text>
  <text id="descriptive-name" style="stroke:none;fill:black;font-family:sans-serif;font-size:13;text-anchor:end;" transform="matrix(1 0 0 1 3036 1969)">Generated from water.waves</text>
  <text style="stroke:none;fill:black;font-family:sans-serif;font-size:13;text-anchor:end;" transform="matrix(1 0 0 1 3036 1987)">Typeset at 100 points</text>
  <text style="stroke:none;fill:black;font-family:sans-serif;font-size:13;" transform="matrix(1 0 0 1 263 726)">Small</text>
  <text style="stroke:none;fill:black;font-family:sans-serif;font-size:13;" transform="matrix(1 0 0 1 263 1156)">Medium</text>
  <text style="stroke:none;fill:black;font-family:sans-serif;font-size:13;" transform="matrix(1 0 0 1 263 1586)">Large</text>
 </g>
 <g id="Guides">
  <g id="H-reference" style="fill:#27AAE1;stroke:none;" transform="matrix(1 0 0 1 339 696)">
   <path d="M0.993654 0L3.63775 0L29.3281-67.1323L30.0303-67.1323L30.0303-70.459L28.1226-70.459ZM11.6885-24.4799L46.9815-24.4799L46.2315-26.7285L12.4385-26.7285ZM55.1196 0L57.7637 0L30.6382-70.459L29.4326-70.459L29.4326-67.1323Z"/>
  </g>
  <line id="Baseline-S" style="fill:none;stroke:#27AAE1;opacity:1;stroke-width:0.5;" x1="263" x2="3036" y1="696" y2="696"/>
  <line id="Capline-S" style="fill:none;stroke:#27AAE1;opacity:1;stroke-width:0.5;" x1="263" x2="3036" y1="625.541" y2="625.541"/>
  <g id="H-reference" style="fill:#27AAE1;stroke:none;" transform="matrix(1 0 0 1 339 1126)">
   <path d="M0.993654 0L3.63775 0L29.3281-67.1323L30.0303-67.1323L30.0303-70.459L28.1226-70.459ZM11.6885-24.4799L46.9815-24.4799L46.2315-26.7285L12.4385-26.7285ZM55.1196 0L57.7637 0L30.6382-70.459L29.4326-70.459L29.4326-67.1323Z"/>
  </g>
  <line id="Baseline-M" style="fill:none;stroke:#27AAE1;opacity:1;stroke-width:0.5;" x1="263" x2="3036" y1="1126" y2="1126"/>
  <line id="Capline-M" style="fill:none;stroke:#27AAE1;opacity:1;stroke-width:0.5;" x1="263" x2="3036" y1="1055.54" y2="1055.54"/>
  <g id="H-reference" style="fill:#27AAE1;stroke:none;" transform="matrix(1 0 0 1 339 1556)">
   <path d="M0.993654 0L3.63775 0L29.3281-67.1323L30.0303-67.1323L30.0303-70.459L28.1226-70.459ZM11.6885-24.4799L46.9815-24.4799L46.2315-26.7285L12.4385-26.7285ZM55.1196 0L57.7637 0L30.6382-70.459L29.4326-70.459L29.4326-67.1323Z"/>
  </g>
  <line id="Baseline-L" style="fill:none;stroke:#27AAE1;opacity:1;stroke-width:0.5;" x1="263" x2="3036" y1="1556" y2="1556"/>
  <line id="Capline-L" style="fill:none;stroke:#27AAE1;opacity:1;stroke-width:0.5;" x1="263" x2="3036" y1="1485.54" y2="1485.54"/>
  <line id="left-margin-Regular-M" style="fill:none;stroke:#00AEEF;stroke-width:0.5;opacity:1.0;" x1="1386.1" x2="1386.1" y1="1030.79" y2="1150.12"/>
  <line id="right-margin-Regular-M" style="fill:none;stroke:#00AEEF;stroke-width:0.5;opacity:1.0;" x1="1513.59" x2="1513.59" y1="1030.79" y2="1150.12"/>
 </g>
 <g id="Symbols">
  <g id="Black-L" transform="matrix(1 0 0 1 2846.11 1556)">
   <path d="M87.2992-59.0212C106.974-59.0212 109.2-72.2168 118.092-72.2168C127.049-72.2168 128.484-59.0212 150.317-59.0212L150.872-59.0212C155.098-59.0212 158.494-62.4184 158.494-66.6425C158.494-70.8302 155.098-74.2262 150.872-74.2262L150.317-74.2262C145.516-74.2262 142.097-76.0159 136.476-80.0348C132.258-83.1272 126.285-87.4218 118.092-87.4218C109.813-87.4218 103.818-83.0623 99.6002-79.948C95.0823-76.5924 92.0628-74.2262 87.2992-74.2262C82.5148-74.2262 79.4952-76.5924 74.9773-79.948C70.7591-83.0623 64.7649-87.4218 56.5069-87.4218C48.2929-87.4218 42.3207-83.1272 38.1025-80.0348C32.4816-76.0159 29.0612-74.2262 24.2814-74.2262L23.7261-74.2262C19.4811-74.2262 16.084-70.8302 16.084-66.6425C16.084-62.4184 19.4811-59.0212 23.7261-59.0212L24.2814-59.0212C46.1139-59.0212 47.5495-72.2168 56.5069-72.2168C65.3982-72.2168 67.6033-59.0212 87.2992-59.0212ZM87.2992-21.0616C106.974-21.0616 109.2-34.2572 118.092-34.2572C127.049-34.2572 128.484-21.0616 150.317-21.0616L150.872-21.0616C155.098-21.0616 158.494-24.4588 158.494-28.7037C158.494-32.8903 155.098-36.2874 150.872-36.2874L150.317-36.2874C145.516-36.2874 142.097-38.0759 136.476-42.0949C132.258-45.1872 126.285-49.483 118.092-49.483C109.813-49.483 103.818-45.1224 99.6002-42.008C95.0823-38.6524 92.0628-36.2874 87.2992-36.2874C82.5148-36.2874 79.4952-38.6524 74.9773-42.008C70.7591-45.1224 64.7649-49.483 56.5069-49.483C48.2929-49.483 42.3207-45.1872 38.1025-42.0949C32.4816-38.0759 29.0612-36.2874 24.2814-36.2874L23.7261-36.2874C19.4811-36.2874 16.084-32.8903 16.084-28.7037C16.084-24.4588 19.4811-21.0616 23.7261-21.0616L24.2814-21.0616C46.1139-21.0616 47.5495-34.2572 56.5069-34.2572C65.3982-34.2572 67.6033-21.0616 87.2992-21.0616ZM87.2992 16.8772C106.974 16.8772 109.2 3.68155 118.092 3.68155C127.049 3.68155 128.484 16.8772 150.317 16.8772L150.872 16.8772C155.098 16.8772 158.494 13.4812 158.494 9.23506C158.494 5.06933 155.098 1.67217 150.872 1.67217L150.317 1.67217C145.516 1.67217 142.097-0.137174 136.476-4.15609C132.258-7.24844 126.285-11.5234 118.092-11.5234C109.813-11.5234 103.818-7.18359 99.6002-4.06923C95.0823-0.713606 92.0628 1.67217 87.2992 1.67217C82.5148 1.67217 79.4952-0.713606 74.9773-4.06923C70.7591-7.18359 64.7649-11.5234 56.5069-11.5234C48.2929-11.5234 42.3207-7.24844 38.1025-4.15609C32.4816-0.137174 29.0612 1.67217 24.2814 1.67217L23.7261 1.67217C19.4811 1.67217 16.084 5.06933 16.084 9.23506C16.084 13.4812 19.4811 16.8772 23.7261 16.8772L24.2814 16.8772C46.1139 16.8772 47.5495 3.68155 56.5069 3.68155C65.3982 3.68155 67.6033 16.8772 87.2992 16.8772Z"/>
  </g>
  <g id="Heavy-L" transform="matrix(1 0 0 1 2550.65 1556)">
   <path d="M86.0573-59.8919C105.09-59.8919 107.436-72.991 116.643-72.991C125.957-72.991 127.442-59.8919 148.703-59.8919L149.203-59.8919C152.968-59.8919 156-62.9294 156-66.6892C156-70.4401 152.968-73.4721 149.203-73.4721L148.703-73.4721C143.413-73.4721 139.881-75.5127 134.467-79.3756C130.276-82.4404 124.53-86.5712 116.643-86.5712C108.623-86.5712 102.847-82.3386 98.6568-79.238C94.1802-75.8962 91.0388-73.4721 86.0573-73.4721C81.0456-73.4721 77.9042-75.8962 73.4276-79.238C69.237-82.3386 63.4611-86.5712 55.4717-86.5712C47.5539-86.5712 41.8139-82.4404 37.6232-79.3756C32.2091-75.5127 28.6712-73.4721 23.4117-73.4721L22.9115-73.4721C19.1215-73.4721 16.084-70.4401 16.084-66.6892C16.084-62.9294 19.1215-59.8919 22.9115-59.8919L23.4117-59.8919C44.6722-59.8919 46.158-72.991 55.4717-72.991C64.6781-72.991 66.994-59.8919 86.0573-59.8919ZM86.0573-21.9407C105.09-21.9407 107.436-35.0398 116.643-35.0398C125.957-35.0398 127.442-21.9407 148.703-21.9407L149.203-21.9407C152.968-21.9407 156-24.9783 156-28.7682C156-32.5135 152.968-35.5511 149.203-35.5511L148.703-35.5511C143.413-35.5511 139.881-37.5861 134.467-41.449C130.276-44.5138 124.53-48.6502 116.643-48.6502C108.623-48.6502 102.847-44.412 98.6568-41.3114C94.1802-37.9696 91.0388-35.5511 86.0573-35.5511C81.0456-35.5511 77.9042-37.9696 73.4276-41.3114C69.237-44.412 63.4611-48.6502 55.4717-48.6502C47.5539-48.6502 41.8139-44.5138 37.6232-41.449C32.2091-37.5861 28.6712-35.5511 23.4117-35.5511L22.9115-35.5511C19.1215-35.5511 16.084-32.5135 16.084-28.7682C16.084-24.9783 19.1215-21.9407 22.9115-21.9407L23.4117-21.9407C44.6722-21.9407 46.158-35.0398 55.4717-35.0398C64.6781-35.0398 66.994-21.9407 86.0573-21.9407ZM86.0573 15.9802C105.09 15.9802 107.436 2.88112 116.643 2.88112C125.957 2.88112 127.442 15.9802 148.703 15.9802L149.203 15.9802C152.968 15.9802 156 12.9483 156 9.15274C156 5.43761 152.968 2.40005 149.203 2.40005L148.703 2.40005C143.413 2.40005 139.881 0.334829 134.467-3.52804C130.276-6.59283 124.53-10.6991 116.643-10.6991C108.623-10.6991 102.847-6.49105 98.6568-3.39047C94.1802-0.0486284 91.0388 2.40005 86.0573 2.40005C81.0456 2.40005 77.9042-0.0486284 73.4276-3.39047C69.237-6.49105 63.4611-10.6991 55.4717-10.6991C47.5539-10.6991 41.8139-6.59283 37.6232-3.52804C32.2091 0.334829 28.6712 2.40005 23.4117 2.40005L22.9115 2.40005C19.1215 2.40005 16.084 5.43761 16.084 9.15274C16.084 12.9483 19.1215 15.9802 22.9115 15.9802L23.4117 15.9802C44.6722 15.9802 46.158 2.88112 55.4717 2.88112C64.6781 2.88112 66.994 15.9802 86.0573 15.9802Z"/>
  </g>
  <g id="Bold-L" transform="matrix(1 0 0 1 2255.45 1556)">
   <path d="M84.5503-60.9006C102.777-60.9006 105.247-73.8918 114.905-73.8918C124.716-73.8918 126.263-60.9006 146.78-60.9006L147.218-60.9006C150.407-60.9006 152.979-63.4851 152.979-66.6611C152.979-69.8592 150.407-72.4304 147.218-72.4304L146.78-72.4304C140.905-72.4304 137.22-74.7785 132.037-78.4641C127.877-81.4981 122.416-85.4216 114.905-85.4216C107.215-85.4216 101.716-81.3577 97.5559-78.2725C93.1256-74.9461 89.8156-72.4304 84.5503-72.4304C79.2469-72.4304 75.937-74.9461 71.5067-78.2725C67.3469-81.3577 61.8475-85.4216 54.196-85.4216C46.647-85.4216 41.1988-81.4981 37.039-78.4641C31.8562-74.7785 28.1573-72.4304 22.321-72.4304L21.8825-72.4304C18.6684-72.4304 16.084-69.8592 16.084-66.6611C16.084-63.4851 18.6684-60.9006 21.8825-60.9006L22.321-60.9006C42.8373-60.9006 44.3845-73.8918 54.196-73.8918C63.8538-73.8918 66.2856-60.9006 84.5503-60.9006ZM84.5503-23.0392C102.777-23.0392 105.247-36.0304 114.905-36.0304C124.716-36.0304 126.263-23.0392 146.78-23.0392L147.218-23.0392C150.407-23.0392 152.979-25.6237 152.979-28.8377C152.979-32.0225 150.407-34.607 147.218-34.607L146.78-34.607C140.905-34.607 137.22-36.9419 132.037-40.6275C127.877-43.6614 122.416-47.5982 114.905-47.5982C107.215-47.5982 101.716-43.521 97.5559-40.4359C93.1256-37.1094 89.8156-34.607 84.5503-34.607C79.2469-34.607 75.937-37.1094 71.5067-40.4359C67.3469-43.521 61.8475-47.5982 54.196-47.5982C46.647-47.5982 41.1988-43.6614 37.039-40.6275C31.8562-36.9419 28.1573-34.607 22.321-34.607L21.8825-34.607C18.6684-34.607 16.084-32.0225 16.084-28.8377C16.084-25.6237 18.6684-23.0392 21.8825-23.0392L22.321-23.0392C42.8373-23.0392 44.3845-36.0304 54.196-36.0304C63.8538-36.0304 66.2856-23.0392 84.5503-23.0392ZM84.5503 14.7842C102.777 14.7842 105.247 1.79301 114.905 1.79301C124.716 1.79301 126.263 14.7842 146.78 14.7842L147.218 14.7842C150.407 14.7842 152.979 12.213 152.979 8.98572C152.979 5.83888 150.407 3.25443 147.218 3.25443L146.78 3.25443C140.905 3.25443 137.22 0.881568 132.037-2.80407C127.877-5.83802 122.416-9.73676 114.905-9.73676C107.215-9.73676 101.716-5.6976 97.5559-2.61244C93.1256 0.713981 89.8156 3.25443 84.5503 3.25443C79.2469 3.25443 75.937 0.713981 71.5067-2.61244C67.3469-5.6976 61.8475-9.73676 54.196-9.73676C46.647-9.73676 41.1988-5.83802 37.039-2.80407C31.8562 0.881568 28.1573 3.25443 22.321 3.25443L21.8825 3.25443C18.6684 3.25443 16.084 5.83888 16.084 8.98572C16.084 12.213 18.6684 14.7842 21.8825 14.7842L22.321 14.7842C42.8373 14.7842 44.3845 1.79301 54.196 1.79301C63.8538 1.79301 66.2856 14.7842 84.5503 14.7842Z"/>
  </g>
  <g id="Semibold-L" transform="matrix(1 0 0 1 1959.78 1556)">
   <path d="M83.5113-61.5961C101.182-61.5961 103.737-74.5129 113.706-74.5129C123.861-74.5129 125.45-61.5961 145.454-61.5961L145.85-61.5961C148.642-61.5961 150.895-63.8681 150.895-66.6418C150.895-69.4587 148.642-71.7123 145.85-71.7123L145.454-71.7123C139.176-71.7123 135.385-74.2723 130.362-77.8358C126.223-80.8485 120.958-84.6291 113.706-84.6291C106.244-84.6291 100.935-80.6814 96.7969-77.6069C92.3985-74.2911 88.9724-71.7123 83.5113-71.7123C78.0069-71.7123 74.5808-74.2911 70.1824-77.6069C66.0438-80.6814 60.735-84.6291 53.3165-84.6291C46.0217-84.6291 40.7747-80.8485 36.6362-77.8358C31.6128-74.2723 27.8031-71.7123 21.569-71.7123L21.1731-71.7123C18.3561-71.7123 16.084-69.4587 16.084-66.6418C16.084-63.8681 18.3561-61.5961 21.1731-61.5961L21.569-61.5961C41.5723-61.5961 43.1619-74.5129 53.3165-74.5129C63.2856-74.5129 65.7972-61.5961 83.5113-61.5961ZM83.5113-23.7965C101.182-23.7965 103.737-36.7133 113.706-36.7133C123.861-36.7133 125.45-23.7965 145.454-23.7965L145.85-23.7965C148.642-23.7965 150.895-26.0686 150.895-28.8856C150.895-31.684 148.642-33.9561 145.85-33.9561L145.454-33.9561C139.176-33.9561 135.385-36.4977 130.362-40.0612C126.223-43.0738 120.958-46.8729 113.706-46.8729C106.244-46.8729 100.935-42.9068 96.7969-39.8322C92.3985-36.5165 88.9724-33.9561 83.5113-33.9561C78.0069-33.9561 74.5808-36.5165 70.1824-39.8322C66.0438-42.9068 60.735-46.8729 53.3165-46.8729C46.0217-46.8729 40.7747-43.0738 36.6362-40.0612C31.6128-36.4977 27.8031-33.9561 21.569-33.9561L21.1731-33.9561C18.3561-33.9561 16.084-31.684 16.084-28.8856C16.084-26.0686 18.3561-23.7965 21.1731-23.7965L21.569-23.7965C41.5723-23.7965 43.1619-36.7133 53.3165-36.7133C63.2856-36.7133 65.7972-23.7965 83.5113-23.7965ZM83.5113 13.9596C101.182 13.9596 103.737 1.04287 113.706 1.04287C123.861 1.04287 125.45 13.9596 145.454 13.9596L145.85 13.9596C148.642 13.9596 150.895 11.7061 150.895 8.87058C150.895 6.11552 148.642 3.84344 145.85 3.84344L145.454 3.84344C139.176 3.84344 135.385 1.25849 130.362-2.30498C126.223-5.31766 120.958-9.07334 113.706-9.07334C106.244-9.07334 100.935-5.1506 96.7969-2.07607C92.3985 1.23972 88.9724 3.84344 83.5113 3.84344C78.0069 3.84344 74.5808 1.23972 70.1824-2.07607C66.0438-5.1506 60.735-9.07334 53.3165-9.07334C46.0217-9.07334 40.7747-5.31766 36.6362-2.30498C31.6128 1.25849 27.8031 3.84344 21.569 3.84344L21.1731 3.84344C18.3561 3.84344 16.084 6.11552 16.084 8.87058C16.084 11.7061 18.3561 13.9596 21.1731 13.9596L21.569 13.9596C41.5723 13.9596 43.1619 1.04287 53.3165 1.04287C63.2856 1.04287 65.7972 13.9596 83.5113 13.9596Z"/>
  </g>
  <g id="Medium-L" transform="matrix(1 0 0 1 1663.86 1556)">
   <path d="M82.7236-62.1234C99.9727-62.1234 102.592-74.9837 112.797-74.9837C123.212-74.9837 124.834-62.1234 144.448-62.1234L144.812-62.1234C147.303-62.1234 149.316-64.1586 149.316-66.6271C149.316-69.155 147.303-71.1678 144.812-71.1678L144.448-71.1678C137.865-71.1678 133.994-73.8886 129.091-77.3594C124.969-80.3559 119.852-84.0281 112.797-84.0281C105.508-84.0281 100.344-80.1687 96.2214-77.1022C91.8472-73.7945 88.333-71.1678 82.7236-71.1678C77.0667-71.1678 73.5525-73.7945 69.1783-77.1022C65.0558-80.1687 59.8915-84.0281 52.6497-84.0281C45.5476-84.0281 40.4532-80.3559 36.3308-77.3594C31.4283-73.8886 27.5345-71.1678 20.9989-71.1678L20.6352-71.1678C18.1192-71.1678 16.084-69.155 16.084-66.6271C16.084-64.1586 18.1192-62.1234 20.6352-62.1234L20.9989-62.1234C40.6131-62.1234 42.2349-74.9837 52.6497-74.9837C62.8547-74.9837 65.427-62.1234 82.7236-62.1234ZM82.7236-24.3707C99.9727-24.3707 102.592-37.2311 112.797-37.2311C123.212-37.2311 124.834-24.3707 144.448-24.3707L144.812-24.3707C147.303-24.3707 149.316-26.406 149.316-28.9219C149.316-31.4274 147.303-33.4626 144.812-33.4626L144.448-33.4626C137.865-33.4626 133.994-36.1609 129.091-39.6317C124.969-42.6283 119.852-46.3229 112.797-46.3229C105.508-46.3229 100.344-42.441 96.2214-39.3746C91.8472-36.0668 88.333-33.4626 82.7236-33.4626C77.0667-33.4626 73.5525-36.0668 69.1783-39.3746C65.0558-42.441 59.8915-46.3229 52.6497-46.3229C45.5476-46.3229 40.4532-42.6283 36.3308-39.6317C31.4283-36.1609 27.5345-33.4626 20.9989-33.4626L20.6352-33.4626C18.1192-33.4626 16.084-31.4274 16.084-28.9219C16.084-26.406 18.1192-24.3707 20.6352-24.3707L20.9989-24.3707C40.6131-24.3707 42.2349-37.2311 52.6497-37.2311C62.8547-37.2311 65.427-24.3707 82.7236-24.3707ZM82.7236 13.3344C99.9727 13.3344 102.592 0.474079 112.797 0.474079C123.212 0.474079 124.834 13.3344 144.448 13.3344L144.812 13.3344C147.303 13.3344 149.316 11.3217 149.316 8.78327C149.316 6.32528 147.303 4.29005 144.812 4.29005L144.448 4.29005C137.865 4.29005 133.994 1.54428 129.091-1.92654C124.969-4.9231 119.852-8.57031 112.797-8.57031C105.508-8.57031 100.344-4.73584 96.2214-1.66937C91.8472 1.63836 88.333 4.29005 82.7236 4.29005C77.0667 4.29005 73.5525 1.63836 69.1783-1.66937C65.0558-4.73584 59.8915-8.57031 52.6497-8.57031C45.5476-8.57031 40.4532-4.9231 36.3308-1.92654C31.4283 1.54428 27.5345 4.29005 20.9989 4.29005L20.6352 4.29005C18.1192 4.29005 16.084 6.32528 16.084 8.78327C16.084 11.3217 18.1192 13.3344 20.6352 13.3344L20.9989 13.3344C40.6131 13.3344 42.2349 0.474079 52.6497 0.474079C62.8547 0.474079 65.427 13.3344 82.7236 13.3344Z"/>
  </g>
  <g id="Regular-L" transform="matrix(1 0 0 1 1368.17 1556)">
   <path d="M81.696-62.8112C98.3953-62.8112 101.099-75.5979 111.612-75.5979C122.366-75.5979 124.03-62.8112 143.137-62.8112L143.459-62.8112C145.557-62.8112 147.255-64.5375 147.255-66.608C147.255-68.7589 145.557-70.4575 143.459-70.4575L143.137-70.4575C136.155-70.4575 132.179-73.388 127.435-76.7379C123.333-79.7135 118.41-83.2443 111.612-83.2443C104.548-83.2443 99.5722-79.4999 95.4708-76.4439C91.1281-73.1467 87.499-70.4575 81.696-70.4575C75.8403-70.4575 72.2112-73.1467 67.8685-76.4439C63.7671-79.4999 58.7913-83.2443 51.7798-83.2443C44.9292-83.2443 40.0338-79.7135 35.9324-76.7379C31.1876-73.388 27.1841-70.4575 20.2552-70.4575L19.9335-70.4575C17.8103-70.4575 16.084-68.7589 16.084-66.608C16.084-64.5375 17.8103-62.8112 19.9335-62.8112L20.2552-62.8112C39.362-62.8112 41.0257-75.5979 51.7798-75.5979C62.2927-75.5979 64.944-62.8112 81.696-62.8112ZM81.696-25.1197C98.3953-25.1197 101.099-37.9065 111.612-37.9065C122.366-37.9065 124.03-25.1197 143.137-25.1197L143.459-25.1197C145.557-25.1197 147.255-26.846 147.255-28.9693C147.255-31.0926 145.557-32.8189 143.459-32.8189L143.137-32.8189C136.155-32.8189 132.179-35.7216 127.435-39.0716C123.333-42.0471 118.41-45.6056 111.612-45.6056C104.548-45.6056 99.5722-41.8335 95.4708-38.7776C91.1281-35.4804 87.499-32.8189 81.696-32.8189C75.8403-32.8189 72.2112-35.4804 67.8685-38.7776C63.7671-41.8335 58.7913-45.6056 51.7798-45.6056C44.9292-45.6056 40.0338-42.0471 35.9324-39.0716C31.1876-35.7216 27.1841-32.8189 20.2552-32.8189L19.9335-32.8189C17.8103-32.8189 16.084-31.0926 16.084-28.9693C16.084-26.846 17.8103-25.1197 19.9335-25.1197L20.2552-25.1197C39.362-25.1197 41.0257-37.9065 51.7798-37.9065C62.2927-37.9065 64.944-25.1197 81.696-25.1197ZM81.696 12.5189C98.3953 12.5189 101.099-0.267818 111.612-0.267818C122.366-0.267818 124.03 12.5189 143.137 12.5189L143.459 12.5189C145.557 12.5189 147.255 10.8203 147.255 8.66939C147.255 6.59887 145.557 4.87259 143.459 4.87259L143.137 4.87259C136.155 4.87259 132.179 1.91706 127.435-1.43292C123.333-4.40846 118.41-7.91418 111.612-7.91418C104.548-7.91418 99.5722-4.19486 95.4708-1.1389C91.1281 2.15832 87.499 4.87259 81.696 4.87259C75.8403 4.87259 72.2112 2.15832 67.8685-1.1389C63.7671-4.19486 58.7913-7.91418 51.7798-7.91418C44.9292-7.91418 40.0338-4.40846 35.9324-1.43292C31.1876 1.91706 27.1841 4.87259 20.2552 4.87259L19.9335 4.87259C17.8103 4.87259 16.084 6.59887 16.084 8.66939C16.084 10.8203 17.8103 12.5189 19.9335 12.5189L20.2552 12.5189C39.362 12.5189 41.0257-0.267818 51.7798-0.267818C62.2927-0.267818 64.944 12.5189 81.696 12.5189Z"/>
  </g>
  <g id="Light-L" transform="matrix(1 0 0 1 1072.29 1556)">
   <path d="M80.8563-63.0593C96.9258-63.0593 99.5535-75.846 110.773-75.846C122.233-75.846 123.935-63.0593 142.297-63.0593L142.619-63.0593C144.278-63.0593 145.595-64.4229 145.595-66.0354C145.595-67.7283 144.278-69.0452 142.619-69.0452L142.297-69.0452C135.048-69.0452 130.882-72.1665 126.137-75.4974C122.035-78.4729 117.322-81.832 110.773-81.832C103.995-81.832 99.2478-78.2784 95.1464-75.2225C90.8037-71.9252 86.9456-69.0452 80.8563-69.0452C74.7334-69.0452 70.8752-71.9252 66.5326-75.2225C62.4311-78.2784 57.6843-81.832 50.9401-81.832C44.3567-81.832 39.6903-78.4729 35.5889-75.4974C30.8441-72.1665 26.6306-69.0452 19.4155-69.0452L19.0938-69.0452C17.4476-69.0452 16.084-67.7283 16.084-66.0354C16.084-64.4229 17.4476-63.0593 19.0938-63.0593L19.4155-63.0593C37.7779-63.0593 39.4798-75.846 50.9401-75.846C62.1591-75.846 64.7531-63.0593 80.8563-63.0593ZM80.8563-25.9404C96.9258-25.9404 99.5535-38.7272 110.773-38.7272C122.233-38.7272 123.935-25.9404 142.297-25.9404L142.619-25.9404C144.278-25.9404 145.595-27.3041 145.595-28.9502C145.595-30.5964 144.278-31.96 142.619-31.96L142.297-31.96C135.048-31.96 130.882-35.0346 126.137-38.3654C122.035-41.341 117.322-44.7468 110.773-44.7468C103.995-44.7468 99.2478-41.1465 95.1464-38.0905C90.8037-34.7933 86.9456-31.96 80.8563-31.96C74.7334-31.96 70.8752-34.7933 66.5326-38.0905C62.4311-41.1465 57.6843-44.7468 50.9401-44.7468C44.3567-44.7468 39.6903-41.341 35.5889-38.3654C30.8441-35.0346 26.6306-31.96 19.4155-31.96L19.0938-31.96C17.4476-31.96 16.084-30.5964 16.084-28.9502C16.084-27.3041 17.4476-25.9404 19.0938-25.9404L19.4155-25.9404C37.7779-25.9404 39.4798-38.7272 50.9401-38.7272C62.1591-38.7272 64.7531-25.9404 80.8563-25.9404ZM80.8563 11.1448C96.9258 11.1448 99.5535-1.64196 110.773-1.64196C122.233-1.64196 123.935 11.1448 142.297 11.1448L142.619 11.1448C144.278 11.1448 145.595 9.82789 145.595 8.135C145.595 6.52253 144.278 5.15887 142.619 5.15887L142.297 5.15887C135.048 5.15887 130.882 2.05066 126.137-1.28024C122.035-4.25578 117.322-7.6279 110.773-7.6279C103.995-7.6279 99.2478-4.06126 95.1464-1.0053C90.8037 2.29192 86.9456 5.15887 80.8563 5.15887C74.7334 5.15887 70.8752 2.29192 66.5326-1.0053C62.4311-4.06126 57.6843-7.6279 50.9401-7.6279C44.3567-7.6279 39.6903-4.25578 35.5889-1.28024C30.8441 2.05066 26.6306 5.15887 19.4155 5.15887L19.0938 5.15887C17.4476 5.15887 16.084 6.52253 16.084 8.135C16.084 9.82789 17.4476 11.1448 19.0938 11.1448L19.4155 11.1448C37.7779 11.1448 39.4798-1.64196 50.9401-1.64196C62.1591-1.64196 64.7531 11.1448 80.8563 11.1448Z"/>
  </g>
  <g id="Thin-L" transform="matrix(1 0 0 1 776.681 1556)">
   <path d="M79.7457-63.3874C94.9822-63.3874 97.5089-76.1742 109.662-76.1742C122.056-76.1742 123.808-63.3874 141.186-63.3874L141.508-63.3874C142.587-63.3874 143.399-64.2715 143.399-65.2782C143.399-66.3652 142.587-67.1773 141.508-67.1773L141.186-67.1773C133.584-67.1773 129.165-70.551 124.42-73.8567C120.319-76.8322 115.883-79.9641 109.662-79.9641C103.263-79.9641 98.8187-76.6629 94.7172-73.607C90.3746-70.3098 86.2135-67.1773 79.7457-67.1773C73.2693-67.1773 69.1083-70.3098 64.7656-73.607C60.6642-76.6629 56.2203-79.9641 49.8294-79.9641C43.5994-79.9641 39.2359-76.8322 35.1345-73.8567C30.3897-70.551 25.8986-67.1773 18.3048-67.1773L17.9832-67.1773C16.9681-67.1773 16.084-66.3652 16.084-65.2782C16.084-64.2715 16.9681-63.3874 17.9832-63.3874L18.3048-63.3874C35.6829-63.3874 37.4352-76.1742 49.8294-76.1742C61.9824-76.1742 64.5007-63.3874 79.7457-63.3874ZM79.7457-27.0258C94.9822-27.0258 97.5089-39.8126 109.662-39.8126C122.056-39.8126 123.808-27.0258 141.186-27.0258L141.508-27.0258C142.587-27.0258 143.399-27.9099 143.399-28.925C143.399-29.9401 142.587-30.8241 141.508-30.8241L141.186-30.8241C133.584-30.8241 129.165-34.1258 124.42-37.4315C120.319-40.407 115.883-43.6109 109.662-43.6109C103.263-43.6109 98.8187-40.2378 94.7172-37.1818C90.3746-33.8846 86.2135-30.8241 79.7457-30.8241C73.2693-30.8241 69.1083-33.8846 64.7656-37.1818C60.6642-40.2378 56.2203-43.6109 49.8294-43.6109C43.5994-43.6109 39.2359-40.407 35.1345-37.4315C30.3897-34.1258 25.8986-30.8241 18.3048-30.8241L17.9832-30.8241C16.9681-30.8241 16.084-29.9401 16.084-28.925C16.084-27.9099 16.9681-27.0258 17.9832-27.0258L18.3048-27.0258C35.6829-27.0258 37.4352-39.8126 49.8294-39.8126C61.9824-39.8126 64.5007-27.0258 79.7457-27.0258ZM79.7457 9.3274C94.9822 9.3274 97.5089-3.45937 109.662-3.45937C122.056-3.45937 123.808 9.3274 141.186 9.3274L141.508 9.3274C142.587 9.3274 143.399 8.51532 143.399 7.42823C143.399 6.42156 142.587 5.5375 141.508 5.5375L141.186 5.5375C133.584 5.5375 129.165 2.22735 124.42-1.0783C120.319-4.05384 115.883-7.24927 109.662-7.24927C103.263-7.24927 98.8187-3.88457 94.7172-0.828609C90.3746 2.46861 86.2135 5.5375 79.7457 5.5375C73.2693 5.5375 69.1083 2.46861 64.7656-0.828609C60.6642-3.88457 56.2203-7.24927 49.8294-7.24927C43.5994-7.24927 39.2359-4.05384 35.1345-1.0783C30.3897 2.22735 25.8986 5.5375 18.3048 5.5375L17.9832 5.5375C16.9681 5.5375 16.084 6.42156 16.084 7.42823C16.084 8.51532 16.9681 9.3274 17.9832 9.3274L18.3048 9.3274C35.6829 9.3274 37.4352-3.45937 49.8294-3.45937C61.9824-3.45937 64.5007 9.3274 79.7457 9.3274Z"/>
  </g>
  <g id="Ultralight-L" transform="matrix(1 0 0 1 480.532 1556)">
   <path d="M79.1768-63.5555C93.9866-63.5555 96.4617-76.3423 109.093-76.3423C121.966-76.3423 123.744-63.5555 140.618-63.5555L140.939-63.5555C141.721-63.5555 142.274-64.1939 142.274-64.8903C142.274-65.6671 141.721-66.2206 140.939-66.2206L140.618-66.2206C132.834-66.2206 128.286-69.7236 123.541-73.0163C119.44-75.9918 115.147-79.0074 109.093-79.0074C102.888-79.0074 98.5989-75.8355 94.4975-72.7795C90.1548-69.4823 85.8386-66.2206 79.1768-66.2206C72.5195-66.2206 68.2033-69.4823 63.8606-72.7795C59.7592-75.8355 55.4704-79.0074 49.2606-79.0074C43.2116-79.0074 39.0032-75.9918 34.9018-73.0163C30.157-69.7236 25.5237-66.2206 17.736-66.2206L17.4143-66.2206C16.7224-66.2206 16.084-65.6671 16.084-64.8903C16.084-64.1939 16.7224-63.5555 17.4143-63.5555L17.736-63.5555C34.6098-63.5555 36.388-76.3423 49.2606-76.3423C61.8919-76.3423 64.3714-63.5555 79.1768-63.5555ZM79.1768-27.5817C93.9866-27.5817 96.4617-40.3685 109.093-40.3685C121.966-40.3685 123.744-27.5817 140.618-27.5817L140.939-27.5817C141.721-27.5817 142.274-28.2202 142.274-28.912C142.274-29.6039 141.721-30.2423 140.939-30.2423L140.618-30.2423C132.834-30.2423 128.286-33.6604 123.541-36.9531C119.44-39.9287 115.147-43.0291 109.093-43.0291C102.888-43.0291 98.5989-39.7723 94.4975-36.7164C90.1548-33.4192 85.8386-30.2423 79.1768-30.2423C72.5195-30.2423 68.2033-33.4192 63.8606-36.7164C59.7592-39.7723 55.4704-43.0291 49.2606-43.0291C43.2116-43.0291 39.0032-39.9287 34.9018-36.9531C30.157-33.6604 25.5237-30.2423 17.736-30.2423L17.4143-30.2423C16.7224-30.2423 16.084-29.6039 16.084-28.912C16.084-28.2202 16.7224-27.5817 17.4143-27.5817L17.736-27.5817C34.6098-27.5817 36.388-40.3685 49.2606-40.3685C61.8919-40.3685 64.3714-27.5817 79.1768-27.5817ZM79.1768 8.39653C93.9866 8.39653 96.4617-4.39024 109.093-4.39024C121.966-4.39024 123.744 8.39653 140.618 8.39653L140.939 8.39653C141.721 8.39653 142.274 7.84302 142.274 7.06622C142.274 6.36985 141.721 5.73143 140.939 5.73143L140.618 5.73143C132.834 5.73143 128.286 2.31785 123.541-0.974875C119.44-3.95041 115.147-7.05534 109.093-7.05534C102.888-7.05534 98.5989-3.79406 94.4975-0.738108C90.1548 2.55911 85.8386 5.73143 79.1768 5.73143C72.5195 5.73143 68.2033 2.55911 63.8606-0.738108C59.7592-3.79406 55.4704-7.05534 49.2606-7.05534C43.2116-7.05534 39.0032-3.95041 34.9018-0.974875C30.157 2.31785 25.5237 5.73143 17.736 5.73143L17.4143 5.73143C16.7224 5.73143 16.084 6.36985 16.084 7.06622C16.084 7.84302 16.7224 8.39653 17.4143 8.39653L17.736 8.39653C34.6098 8.39653 36.388-4.39024 49.2606-4.39024C61.8919-4.39024 64.3714 8.39653 79.1768 8.39653Z"/>
  </g>
  <g id="Black-M" transform="matrix(1 0 0 1 2864.81 1126)">
   <path d="M68.5879-52.9473C84.2974-52.9473 85.9083-63.2534 92.6217-63.2534C99.3507-63.2534 100.425-52.9473 117.73-52.9473L118.208-52.9473C121.817-52.9473 124.709-55.8391 124.709-59.4488C124.709-63.0065 121.817-65.8986 118.208-65.8986L117.73-65.8986C114.395-65.8986 111.818-67.0954 107.285-70.3406C103.993-72.76 99.1982-76.2048 92.6217-76.2048C86.0238-76.2048 81.2231-72.7441 77.9314-70.3195C74.3956-67.7079 72.13-65.8986 68.5879-65.8986C65.0403-65.8986 62.7747-67.7079 59.239-70.3195C55.9472-72.7441 51.1466-76.2048 44.5541-76.2048C37.9721-76.2048 33.1766-72.76 29.8849-70.3406C25.3525-67.0954 22.7751-65.8986 19.4455-65.8986L18.9679-65.8986C15.3528-65.8986 12.4609-63.0065 12.4609-59.4488C12.4609-55.8391 15.3528-52.9473 18.9679-52.9473L19.4455-52.9473C36.7508-52.9473 37.8251-63.2534 44.5541-63.2534C51.2675-63.2534 52.8729-52.9473 68.5879-52.9473ZM68.5879-23.6087C84.2974-23.6087 85.9083-33.9148 92.6217-33.9148C99.3507-33.9148 100.425-23.6087 117.73-23.6087L118.208-23.6087C121.817-23.6087 124.709-26.5005 124.709-30.1157C124.709-33.6737 121.817-36.5656 118.208-36.5656L117.73-36.5656C114.395-36.5656 111.818-37.7626 107.285-41.0078C103.993-43.4272 99.1982-46.8717 92.6217-46.8717C86.0238-46.8717 81.2231-43.4113 77.9314-40.9867C74.3956-38.3751 72.13-36.5656 68.5879-36.5656C65.0403-36.5656 62.7747-38.3751 59.239-40.9867C55.9472-43.4113 51.1466-46.8717 44.5541-46.8717C37.9721-46.8717 33.1766-43.4272 29.8849-41.0078C25.3525-37.7626 22.7751-36.5656 19.4455-36.5656L18.9679-36.5656C15.3528-36.5656 12.4609-33.6737 12.4609-30.1157C12.4609-26.5005 15.3528-23.6087 18.9679-23.6087L19.4455-23.6087C36.7508-23.6087 37.8251-33.9148 44.5541-33.9148C51.2675-33.9148 52.8729-23.6087 68.5879-23.6087ZM68.5879 5.72438C84.2974 5.72438 85.9083-4.58174 92.6217-4.58174C99.3507-4.58174 100.425 5.72438 117.73 5.72438L118.208 5.72438C121.817 5.72438 124.709 2.83226 124.709-0.782602C124.709-4.33516 121.817-7.227 118.208-7.227L117.73-7.227C114.395-7.227 111.818-8.42955 107.285-11.6747C103.993-14.0942 99.1982-17.5331 92.6217-17.5331C86.0238-17.5331 81.2231-14.0783 77.9314-11.6536C74.3956-9.04199 72.13-7.227 68.5879-7.227C65.0403-7.227 62.7747-9.04199 59.239-11.6536C55.9472-14.0783 51.1466-17.5331 44.5541-17.5331C37.9721-17.5331 33.1766-14.0942 29.8849-11.6747C25.3525-8.42955 22.7751-7.227 19.4455-7.227L18.9679-7.227C15.3528-7.227 12.4609-4.33516 12.4609-0.782602C12.4609 2.83226 15.3528 5.72438 18.9679 5.72438L19.4455 5.72438C36.7508 5.72438 37.8251-4.58174 44.5541-4.58174C51.2675-4.58174 52.8729 5.72438 68.5879 5.72438Z"/>
  </g>
  <g id="Heavy-M" transform="matrix(1 0 0 1 2569.25 1126)">
   <path d="M67.4513-53.7755C82.5914-53.7755 84.3268-63.9873 91.283-63.9873C98.2953-63.9873 99.4151-53.7755 116.23-53.7755L116.654-53.7755C119.854-53.7755 122.425-56.3493 122.425-59.5472C122.425-62.7202 119.854-65.2917 116.654-65.2917L116.23-65.2917C112.441-65.2917 109.771-66.7162 105.44-69.8106C102.176-72.2031 97.5837-75.5035 91.283-75.5035C84.9121-75.5035 80.3038-72.1493 77.039-69.7381C73.5437-67.14 71.18-65.2917 67.4513-65.2917C63.7062-65.2917 61.3426-67.14 57.8472-69.7381C54.5825-72.1493 49.9742-75.5035 43.6197-75.5035C37.3025-75.5035 32.7129-72.2031 29.4481-69.8106C25.1178-66.7162 22.4449-65.2917 18.6728-65.2917L18.2491-65.2917C15.0347-65.2917 12.4609-62.7202 12.4609-59.5472C12.4609-56.3493 15.0347-53.7755 18.2491-53.7755L18.6728-53.7755C35.4876-53.7755 36.6074-63.9873 43.6197-63.9873C50.5759-63.9873 52.2948-53.7755 67.4513-53.7755ZM67.4513-24.3924C82.5914-24.3924 84.3268-34.6042 91.283-34.6042C98.2953-34.6042 99.4151-24.3924 116.23-24.3924L116.654-24.3924C119.854-24.3924 122.425-26.9661 122.425-30.1805C122.425-33.3512 119.854-35.925 116.654-35.925L116.23-35.925C112.441-35.925 109.771-37.3472 105.44-40.4416C102.176-42.8341 97.5837-46.1368 91.283-46.1368C84.9121-46.1368 80.3038-42.7803 77.039-40.3691C73.5437-37.771 71.18-35.925 67.4513-35.925C63.7062-35.925 61.3426-37.771 57.8472-40.3691C54.5825-42.7803 49.9742-46.1368 43.6197-46.1368C37.3025-46.1368 32.7129-42.8341 29.4481-40.4416C25.1178-37.3472 22.4449-35.925 18.6728-35.925L18.2491-35.925C15.0347-35.925 12.4609-33.3512 12.4609-30.1805C12.4609-26.9661 15.0347-24.3924 18.2491-24.3924L18.6728-24.3924C35.4876-24.3924 36.6074-34.6042 43.6197-34.6042C50.5759-34.6042 52.2948-24.3924 67.4513-24.3924ZM67.4513 4.97435C82.5914 4.97435 84.3268-5.23744 91.283-5.23744C98.2953-5.23744 99.4151 4.97435 116.23 4.97435L116.654 4.97435C119.854 4.97435 122.425 2.40286 122.425-0.813769C122.425-3.9681 119.854-6.54186 116.654-6.54186L116.23-6.54186C112.441-6.54186 109.771-7.98046 105.44-11.0748C102.176-13.4673 97.5837-16.7537 91.283-16.7537C84.9121-16.7537 80.3038-13.4136 77.039-11.0024C73.5437-8.40425 71.18-6.54186 67.4513-6.54186C63.7062-6.54186 61.3426-8.40425 57.8472-11.0024C54.5825-13.4136 49.9742-16.7537 43.6197-16.7537C37.3025-16.7537 32.7129-13.4673 29.4481-11.0748C25.1178-7.98046 22.4449-6.54186 18.6728-6.54186L18.2491-6.54186C15.0347-6.54186 12.4609-3.9681 12.4609-0.813769C12.4609 2.40286 15.0347 4.97435 18.2491 4.97435L18.6728 4.97435C35.4876 4.97435 36.6074-5.23744 43.6197-5.23744C50.5759-5.23744 52.2948 4.97435 67.4513 4.97435Z"/>
  </g>
  <g id="Bold-M" transform="matrix(1 0 0 1 2273.81 1126)">
   <path d="M66.1799-54.702C80.6829-54.702 82.5576-64.8083 89.7855-64.8083C97.1146-64.8083 98.2853-54.702 114.551-54.702L114.915-54.702C117.657-54.702 119.87-56.92 119.87-59.6574C119.87-62.4 117.657-64.6128 114.915-64.6128L114.551-64.6128C110.256-64.6128 107.481-66.292 103.377-69.2177C100.142-71.58 95.7777-74.7191 89.7855-74.7191C83.6685-74.7191 79.2754-71.4839 76.0407-69.0878C72.5907-66.5047 70.1173-64.6128 66.1799-64.6128C62.2139-64.6128 59.7405-66.5047 56.2904-69.0878C53.0558-71.4839 48.6627-74.7191 42.5743-74.7191C36.5535-74.7191 32.1941-71.58 28.9595-69.2177C24.8553-66.292 22.0756-64.6128 17.8083-64.6128L17.4449-64.6128C14.6789-64.6128 12.4609-62.4 12.4609-59.6574C12.4609-56.92 14.6789-54.702 17.4449-54.702L17.8083-54.702C34.0745-54.702 35.2452-64.8083 42.5743-64.8083C49.8022-64.8083 51.6482-54.702 66.1799-54.702ZM66.1799-25.269C80.6829-25.269 82.5576-35.3753 89.7855-35.3753C97.1146-35.3753 98.2853-25.269 114.551-25.269L114.915-25.269C117.657-25.269 119.87-27.487 119.87-30.253C119.87-32.9905 117.657-35.2084 114.915-35.2084L114.551-35.2084C110.256-35.2084 107.481-36.8825 103.377-39.8082C100.142-42.1705 95.7777-45.3147 89.7855-45.3147C83.6685-45.3147 79.2754-42.0744 76.0407-39.6783C72.5907-37.0952 70.1173-35.2084 66.1799-35.2084C62.2139-35.2084 59.7405-37.0952 56.2904-39.6783C53.0558-42.0744 48.6627-45.3147 42.5743-45.3147C36.5535-45.3147 32.1941-42.1705 28.9595-39.8082C24.8553-36.8825 22.0756-35.2084 17.8083-35.2084L17.4449-35.2084C14.6789-35.2084 12.4609-32.9905 12.4609-30.253C12.4609-27.487 14.6789-25.269 17.4449-25.269L17.8083-25.269C34.0745-25.269 35.2452-35.3753 42.5743-35.3753C49.8022-35.3753 51.6482-25.269 66.1799-25.269ZM66.1799 4.13533C80.6829 4.13533 82.5576-5.97095 89.7855-5.97095C97.1146-5.97095 98.2853 4.13533 114.551 4.13533L114.915 4.13533C117.657 4.13533 119.87 1.92252 119.87-0.848635C119.87-3.55748 117.657-5.77543 114.915-5.77543L114.551-5.77543C110.256-5.77543 107.481-7.47809 103.377-10.4038C100.142-12.7662 95.7777-15.8817 89.7855-15.8817C83.6685-15.8817 79.2754-12.67 76.0407-10.2739C72.5907-7.69085 70.1173-5.77543 66.1799-5.77543C62.2139-5.77543 59.7405-7.69085 56.2904-10.2739C53.0558-12.67 48.6627-15.8817 42.5743-15.8817C36.5535-15.8817 32.1941-12.7662 28.9595-10.4038C24.8553-7.47809 22.0756-5.77543 17.8083-5.77543L17.4449-5.77543C14.6789-5.77543 12.4609-3.55748 12.4609-0.848635C12.4609 1.92252 14.6789 4.13533 17.4449 4.13533L17.8083 4.13533C34.0745 4.13533 35.2452-5.97095 42.5743-5.97095C49.8022-5.97095 51.6482 4.13533 66.1799 4.13533Z"/>
  </g>
  <g id="Semibold-M" transform="matrix(1 0 0 1 1977.98 1126)">
   <path d="M65.3034-55.3408C79.3673-55.3408 81.3379-65.3743 88.7531-65.3743C96.3007-65.3743 97.5065-55.3408 113.394-55.3408L113.716-55.3408C116.143-55.3408 118.109-57.3134 118.109-59.7333C118.109-62.1792 116.143-64.1447 113.716-64.1447L113.394-64.1447C108.749-64.1447 105.902-65.9995 101.954-68.8089C98.7403-71.1505 94.5326-74.1783 88.7531-74.1783C82.8111-74.1783 78.5664-71.0252 75.3526-68.6394C71.9336-66.0668 69.3847-64.1447 65.3034-64.1447C61.1851-64.1447 58.6361-66.0668 55.2172-68.6394C52.0033-71.0252 47.7586-74.1783 41.8537-74.1783C36.0371-74.1783 31.8365-71.1505 28.6227-68.8089C24.6743-65.9995 21.8209-64.1447 17.2124-64.1447L16.8905-64.1447C14.4336-64.1447 12.4609-62.1792 12.4609-59.7333C12.4609-57.3134 14.4336-55.3408 16.8905-55.3408L17.2124-55.3408C33.1003-55.3408 34.3061-65.3743 41.8537-65.3743C49.2688-65.3743 51.2025-55.3408 65.3034-55.3408ZM65.3034-25.8734C79.3673-25.8734 81.3379-35.9069 88.7531-35.9069C96.3007-35.9069 97.5065-25.8734 113.394-25.8734L113.716-25.8734C116.143-25.8734 118.109-27.8461 118.109-30.303C118.109-32.7418 116.143-34.7144 113.716-34.7144L113.394-34.7144C108.749-34.7144 105.902-36.5621 101.954-39.3715C98.7403-41.7131 94.5326-44.748 88.7531-44.748C82.8111-44.748 78.5664-41.5877 75.3526-39.202C71.9336-36.6294 69.3847-34.7144 65.3034-34.7144C61.1851-34.7144 58.6361-36.6294 55.2172-39.202C52.0033-41.5877 47.7586-44.748 41.8537-44.748C36.0371-44.748 31.8365-41.7131 28.6227-39.3715C24.6743-36.5621 21.8209-34.7144 17.2124-34.7144L16.8905-34.7144C14.4336-34.7144 12.4609-32.7418 12.4609-30.303C12.4609-27.8461 14.4336-25.8734 16.8905-25.8734L17.2124-25.8734C33.1003-25.8734 34.3061-35.9069 41.8537-35.9069C49.2688-35.9069 51.2025-25.8734 65.3034-25.8734ZM65.3034 3.55692C79.3673 3.55692 81.3379-6.47662 88.7531-6.47662C96.3007-6.47662 97.5065 3.55692 113.394 3.55692L113.716 3.55692C116.143 3.55692 118.109 1.59137 118.109-0.87267C118.109-3.27441 116.143-5.24706 113.716-5.24706L113.394-5.24706C108.749-5.24706 105.902-7.13176 101.954-9.94117C98.7403-12.2828 94.5326-15.2806 88.7531-15.2806C82.8111-15.2806 78.5664-12.1574 75.3526-9.77169C71.9336-7.19904 69.3847-5.24706 65.3034-5.24706C61.1851-5.24706 58.6361-7.19904 55.2172-9.77169C52.0033-12.1574 47.7586-15.2806 41.8537-15.2806C36.0371-15.2806 31.8365-12.2828 28.6227-9.94117C24.6743-7.13176 21.8209-5.24706 17.2124-5.24706L16.8905-5.24706C14.4336-5.24706 12.4609-3.27441 12.4609-0.87267C12.4609 1.59137 14.4336 3.55692 16.8905 3.55692L17.2124 3.55692C33.1003 3.55692 34.3061-6.47662 41.8537-6.47662C49.2688-6.47662 51.2025 3.55692 65.3034 3.55692Z"/>
  </g>
  <g id="Medium-M" transform="matrix(1 0 0 1 1681.94 1126)">
   <path d="M64.6388-55.8251C78.3697-55.8251 80.4131-65.8035 87.9703-65.8035C95.6835-65.8035 96.916-55.8251 112.517-55.8251L112.807-55.8251C114.995-55.8251 116.773-57.6117 116.773-59.7909C116.773-62.0118 114.995-63.7898 112.807-63.7898L112.517-63.7898C107.606-63.7898 104.706-65.7777 100.875-68.499C97.6774-70.8248 93.5886-73.7682 87.9703-73.7682C82.1611-73.7682 78.0288-70.6773 74.8307-68.2995C71.4355-65.7347 68.8291-63.7898 64.6388-63.7898C60.405-63.7898 57.7987-65.7347 54.4034-68.2995C51.2053-70.6773 47.073-73.7682 41.3073-73.7682C35.6455-73.7682 31.5653-70.8248 28.3673-68.499C24.5371-65.7777 21.6279-63.7898 16.7605-63.7898L16.4702-63.7898C14.2476-63.7898 12.4609-62.0118 12.4609-59.7909C12.4609-57.6117 14.2476-55.8251 16.4702-55.8251L16.7605-55.8251C32.3616-55.8251 33.594-65.8035 41.3073-65.8035C48.8644-65.8035 50.8645-55.8251 64.6388-55.8251ZM64.6388-26.3317C78.3697-26.3317 80.4131-36.31 87.9703-36.31C95.6835-36.31 96.916-26.3317 112.517-26.3317L112.807-26.3317C114.995-26.3317 116.773-28.1183 116.773-30.3409C116.773-32.5532 114.995-34.3399 112.807-34.3399L112.517-34.3399C107.606-34.3399 104.706-36.3192 100.875-39.0404C97.6774-41.3662 93.5886-44.3182 87.9703-44.3182C82.1611-44.3182 78.0288-41.2187 74.8307-38.8409C71.4355-36.2761 68.8291-34.3399 64.6388-34.3399C60.405-34.3399 57.7987-36.2761 54.4034-38.8409C51.2053-41.2187 47.073-44.3182 41.3073-44.3182C35.6455-44.3182 31.5653-41.3662 28.3673-39.0404C24.5371-36.3192 21.6279-34.3399 16.7605-34.3399L16.4702-34.3399C14.2476-34.3399 12.4609-32.5532 12.4609-30.3409C12.4609-28.1183 14.2476-26.3317 16.4702-26.3317L16.7605-26.3317C32.3616-26.3317 33.594-36.31 41.3073-36.31C48.8644-36.31 50.8645-26.3317 64.6388-26.3317ZM64.6388 3.11834C78.3697 3.11834 80.4131-6.86005 87.9703-6.86005C95.6835-6.86005 96.916 3.11834 112.517 3.11834L112.807 3.11834C114.995 3.11834 116.773 1.34028 116.773-0.890896C116.773-3.05977 114.995-4.84643 112.807-4.84643L112.517-4.84643C107.606-4.84643 104.706-6.86916 100.875-9.5904C97.6774-11.9162 93.5886-14.8248 87.9703-14.8248C82.1611-14.8248 78.0288-11.7688 74.8307-9.3909C71.4355-6.82613 68.8291-4.84643 64.6388-4.84643C60.405-4.84643 57.7987-6.82613 54.4034-9.3909C51.2053-11.7688 47.073-14.8248 41.3073-14.8248C35.6455-14.8248 31.5653-11.9162 28.3673-9.5904C24.5371-6.86916 21.6279-4.84643 16.7605-4.84643L16.4702-4.84643C14.2476-4.84643 12.4609-3.05977 12.4609-0.890896C12.4609 1.34028 14.2476 3.11834 16.4702 3.11834L16.7605 3.11834C32.3616 3.11834 33.594-6.86005 41.3073-6.86005C48.8644-6.86005 50.8645 3.11834 64.6388 3.11834Z"/>
  </g>
  <g id="Regular-M" transform="matrix(1 0 0 1 1386.1 1126)">
   <path d="M63.7719-56.4568C77.0684-56.4568 79.2069-66.3632 86.9492-66.3632C94.8785-66.3632 96.1457-56.4568 111.373-56.4568L111.622-56.4568C113.498-56.4568 115.031-58.0009 115.031-59.866C115.031-61.7934 113.498-63.3269 111.622-63.3269L111.373-63.3269C106.116-63.3269 103.144-65.4885 99.4685-68.0947C96.2909-70.4 92.3572-73.2334 86.9492-73.2334C81.3132-73.2334 77.3277-70.2237 74.1501-67.8561C70.7857-65.3016 68.1046-63.3269 63.7719-63.3269C59.3875-63.3269 56.7063-65.3016 53.3419-67.8561C50.1644-70.2237 46.1789-73.2334 40.5945-73.2334C35.1348-73.2334 31.2116-70.4 28.0341-68.0947C24.3581-65.4885 21.3761-63.3269 16.1711-63.3269L15.9219-63.3269C14.005-63.3269 12.4609-61.7934 12.4609-59.866C12.4609-58.0009 14.005-56.4568 15.9219-56.4568L16.1711-56.4568C31.3981-56.4568 32.6653-66.3632 40.5945-66.3632C48.3369-66.3632 50.4236-56.4568 63.7719-56.4568ZM63.7719-26.9294C77.0684-26.9294 79.2069-36.8358 86.9492-36.8358C94.8785-36.8358 96.1457-26.9294 111.373-26.9294L111.622-26.9294C113.498-26.9294 115.031-28.4734 115.031-30.3903C115.031-32.3072 113.498-33.8513 111.622-33.8513L111.373-33.8513C106.116-33.8513 103.144-36.0023 99.4685-38.6085C96.2909-40.9138 92.3572-43.7577 86.9492-43.7577C81.3132-43.7577 77.3277-40.7374 74.1501-38.3699C70.7857-35.8154 68.1046-33.8513 63.7719-33.8513C59.3875-33.8513 56.7063-35.8154 53.3419-38.3699C50.1644-40.7374 46.1789-43.7577 40.5945-43.7577C35.1348-43.7577 31.2116-40.9138 28.0341-38.6085C24.3581-36.0023 21.3761-33.8513 16.1711-33.8513L15.9219-33.8513C14.005-33.8513 12.4609-32.3072 12.4609-30.3903C12.4609-28.4734 14.005-26.9294 15.9219-26.9294L16.1711-26.9294C31.3981-26.9294 32.6653-36.8358 40.5945-36.8358C48.3369-36.8358 50.4236-26.9294 63.7719-26.9294ZM63.7719 2.54628C77.0684 2.54628 79.2069-7.36016 86.9492-7.36016C94.8785-7.36016 96.1457 2.54628 111.373 2.54628L111.622 2.54628C113.498 2.54628 115.031 1.01277 115.031-0.914667C115.031-2.7798 113.498-4.32386 111.622-4.32386L111.373-4.32386C106.116-4.32386 103.144-6.52663 99.4685-9.13288C96.2909-11.4382 92.3572-14.2303 86.9492-14.2303C81.3132-14.2303 77.3277-11.2618 74.1501-8.89421C70.7857-6.33972 68.1046-4.32386 63.7719-4.32386C59.3875-4.32386 56.7063-6.33972 53.3419-8.89421C50.1644-11.2618 46.1789-14.2303 40.5945-14.2303C35.1348-14.2303 31.2116-11.4382 28.0341-9.13288C24.3581-6.52663 21.3761-4.32386 16.1711-4.32386L15.9219-4.32386C14.005-4.32386 12.4609-2.7798 12.4609-0.914667C12.4609 1.01277 14.005 2.54628 15.9219 2.54628L16.1711 2.54628C31.3981 2.54628 32.6653-7.36016 40.5945-7.36016C48.3369-7.36016 50.4236 2.54628 63.7719 2.54628Z"/>
  </g>
  <g id="Light-M" transform="matrix(1 0 0 1 1090.13 1126)">
   <path d="M63.019-56.6792C75.7509-56.6792 77.8209-66.5857 86.1963-66.5857C94.7587-66.5857 96.0601-56.6792 110.62-56.6792L110.869-56.6792C112.351-56.6792 113.542-57.8982 113.542-59.3527C113.542-60.8694 112.351-62.0607 110.869-62.0607L110.62-62.0607C105.124-62.0607 101.981-64.3934 98.3049-66.9825C95.1274-69.2878 91.3819-71.9672 86.1963-71.9672C80.8169-71.9672 77.0368-69.1286 73.8592-66.761C70.4948-64.2065 67.6083-62.0607 63.019-62.0607C58.395-62.0607 55.5086-64.2065 52.1441-66.761C48.9666-69.1286 45.1864-71.9672 39.8417-71.9672C34.6215-71.9672 30.9036-69.2878 27.7261-66.9825C24.0501-64.3934 20.8798-62.0607 15.4182-62.0607L15.169-62.0607C13.6799-62.0607 12.4609-60.8694 12.4609-59.3527C12.4609-57.8982 13.6799-56.6792 15.169-56.6792L15.4182-56.6792C29.9779-56.6792 31.2793-66.5857 39.8417-66.5857C48.2171-66.5857 50.2525-56.6792 63.019-56.6792ZM63.019-27.6651C75.7509-27.6651 77.8209-37.5716 86.1963-37.5716C94.7587-37.5716 96.0601-27.6651 110.62-27.6651L110.869-27.6651C112.351-27.6651 113.542-28.8841 113.542-30.3732C113.542-31.8623 112.351-33.0813 110.869-33.0813L110.62-33.0813C105.124-33.0813 101.981-35.3863 98.3049-37.9754C95.1274-40.2807 91.3819-42.9877 86.1963-42.9877C80.8169-42.9877 77.0368-40.1215 73.8592-37.7539C70.4948-35.1994 67.6083-33.0813 63.019-33.0813C58.395-33.0813 55.5086-35.1994 52.1441-37.7539C48.9666-40.1215 45.1864-42.9877 39.8417-42.9877C34.6215-42.9877 30.9036-40.2807 27.7261-37.9754C24.0501-35.3863 20.8798-33.0813 15.4182-33.0813L15.169-33.0813C13.6799-33.0813 12.4609-31.8623 12.4609-30.3732C12.4609-28.8841 13.6799-27.6651 15.169-27.6651L15.4182-27.6651C29.9779-27.6651 31.2793-37.5716 39.8417-37.5716C48.2171-37.5716 50.2525-27.6651 63.019-27.6651ZM63.019 1.31429C75.7509 1.31429 77.8209-8.59215 86.1963-8.59215C94.7587-8.59215 96.0601 1.31429 110.62 1.31429L110.869 1.31429C112.351 1.31429 113.542 0.123003 113.542-1.39377C113.542-2.84825 112.351-4.0672 110.869-4.0672L110.62-4.0672C105.124-4.0672 101.981-6.40685 98.3049-8.99599C95.1274-11.3013 91.3819-13.9736 86.1963-13.9736C80.8169-13.9736 77.0368-11.142 73.8592-8.77443C70.4948-6.21994 67.6083-4.0672 63.019-4.0672C58.395-4.0672 55.5086-6.21994 52.1441-8.77443C48.9666-11.142 45.1864-13.9736 39.8417-13.9736C34.6215-13.9736 30.9036-11.3013 27.7261-8.99599C24.0501-6.40685 20.8798-4.0672 15.4182-4.0672L15.169-4.0672C13.6799-4.0672 12.4609-2.84825 12.4609-1.39377C12.4609 0.123003 13.6799 1.31429 15.169 1.31429L15.4182 1.31429C29.9779 1.31429 31.2793-8.59215 39.8417-8.59215C48.2171-8.59215 50.2525 1.31429 63.019 1.31429Z"/>
  </g>
  <g id="Thin-M" transform="matrix(1 0 0 1 794.405 1126)">
   <path d="M62.0233-56.9734C74.0083-56.9734 75.9878-66.8799 85.2006-66.8799C94.6003-66.8799 95.947-56.9734 109.624-56.9734L109.873-56.9734C110.835-56.9734 111.574-57.7624 111.574-58.6737C111.574-59.6474 110.835-60.3861 109.873-60.3861L109.624-60.3861C103.811-60.3861 100.442-62.945 96.766-65.5115C93.5885-67.8168 90.0919-70.2925 85.2006-70.2925C80.1607-70.2925 76.6521-67.6802 73.4745-65.3126C70.1101-62.7581 66.9521-60.3861 62.0233-60.3861C57.0824-60.3861 53.9244-62.7581 50.56-65.3126C47.3824-67.6802 43.8739-70.2925 38.8459-70.2925C33.9426-70.2925 30.4963-67.8168 27.3188-65.5115C23.6428-62.945 20.2235-60.3861 14.4225-60.3861L14.1733-60.3861C13.2499-60.3861 12.4609-59.6474 12.4609-58.6737C12.4609-57.7624 13.2499-56.9734 14.1733-56.9734L14.4225-56.9734C28.0995-56.9734 29.4462-66.8799 38.8459-66.8799C48.0587-66.8799 50.0262-56.9734 62.0233-56.9734ZM62.0233-28.6383C74.0083-28.6383 75.9878-38.5447 85.2006-38.5447C94.6003-38.5447 95.947-28.6383 109.624-28.6383L109.873-28.6383C110.835-28.6383 111.574-29.4272 111.574-30.3506C111.574-31.2739 110.835-32.0629 109.873-32.0629L109.624-32.0629C103.811-32.0629 100.442-34.5716 96.766-37.1381C93.5885-39.4434 90.0919-41.9694 85.2006-41.9694C80.1607-41.9694 76.6521-39.3068 73.4745-36.9392C70.1101-34.3847 66.9521-32.0629 62.0233-32.0629C57.0824-32.0629 53.9244-34.3847 50.56-36.9392C47.3824-39.3068 43.8739-41.9694 38.8459-41.9694C33.9426-41.9694 30.4963-39.4434 27.3188-37.1381C23.6428-34.5716 20.2235-32.0629 14.4225-32.0629L14.1733-32.0629C13.2499-32.0629 12.4609-31.2739 12.4609-30.3506C12.4609-29.4272 13.2499-28.6383 14.1733-28.6383L14.4225-28.6383C28.0995-28.6383 29.4462-38.5447 38.8459-38.5447C48.0587-38.5447 50.0262-28.6383 62.0233-28.6383ZM62.0233-0.315108C74.0083-0.315108 75.9878-10.2216 85.2006-10.2216C94.6003-10.2216 95.947-0.315108 109.624-0.315108L109.873-0.315108C110.835-0.315108 111.574-1.05379 111.574-2.02743C111.574-2.93877 110.835-3.72774 109.873-3.72774L109.624-3.72774C103.811-3.72774 100.442-6.24844 96.766-8.81494C93.5885-11.1202 90.0919-13.6342 85.2006-13.6342C80.1607-13.6342 76.6521-10.9836 73.4745-8.61602C70.1101-6.06153 66.9521-3.72774 62.0233-3.72774C57.0824-3.72774 53.9244-6.06153 50.56-8.61602C47.3824-10.9836 43.8739-13.6342 38.8459-13.6342C33.9426-13.6342 30.4963-11.1202 27.3188-8.81494C23.6428-6.24844 20.2235-3.72774 14.4225-3.72774L14.1733-3.72774C13.2499-3.72774 12.4609-2.93877 12.4609-2.02743C12.4609-1.05379 13.2499-0.315108 14.1733-0.315108L14.4225-0.315108C28.0995-0.315108 29.4462-10.2216 38.8459-10.2216C48.0587-10.2216 50.0262-0.315108 62.0233-0.315108Z"/>
  </g>
  <g id="Ultralight-M" transform="matrix(1 0 0 1 498.198 1126)">
   <path d="M61.5132-57.1241C73.1158-57.1241 75.0489-67.0306 84.6906-67.0306C94.5192-67.0306 95.889-57.1241 109.114-57.1241L109.363-57.1241C110.058-57.1241 110.565-57.6929 110.565-58.326C110.565-59.0215 110.058-59.5283 109.363-59.5283L109.114-59.5283C103.139-59.5283 99.6538-62.2032 95.9778-64.7581C92.8003-67.0634 89.4312-69.4348 84.6906-69.4348C79.8245-69.4348 76.455-66.9384 73.2775-64.5708C69.913-62.0163 66.6159-59.5283 61.5132-59.5283C56.4102-59.5283 53.1131-62.0163 49.7486-64.5708C46.5711-66.9384 43.2016-69.4348 38.3359-69.4348C33.5949-69.4348 30.2877-67.0634 27.1101-64.7581C23.4341-62.2032 19.8874-59.5283 13.9125-59.5283L13.6632-59.5283C13.0297-59.5283 12.4609-59.0215 12.4609-58.326C12.4609-57.6929 13.0297-57.1241 13.6632-57.1241L13.9125-57.1241C27.1375-57.1241 28.5073-67.0306 38.3359-67.0306C47.9776-67.0306 49.9103-57.1241 61.5132-57.1241ZM61.5132-29.1367C73.1158-29.1367 75.0489-39.0431 84.6906-39.0431C94.5192-39.0431 95.889-29.1367 109.114-29.1367L109.363-29.1367C110.058-29.1367 110.565-29.7054 110.565-30.339C110.565-30.9726 110.058-31.5413 109.363-31.5413L109.114-31.5413C103.139-31.5413 99.6538-34.1543 95.9778-36.7092C92.8003-39.0145 89.4312-41.4477 84.6906-41.4477C79.8245-41.4477 76.455-38.8895 73.2775-36.5219C69.913-33.9674 66.6159-31.5413 61.5132-31.5413C56.4102-31.5413 53.1131-33.9674 49.7486-36.5219C46.5711-38.8895 43.2016-41.4477 38.3359-41.4477C33.5949-41.4477 30.2877-39.0145 27.1101-36.7092C23.4341-34.1543 19.8874-31.5413 13.9125-31.5413L13.6632-31.5413C13.0297-31.5413 12.4609-30.9726 12.4609-30.339C12.4609-29.7054 13.0297-29.1367 13.6632-29.1367L13.9125-29.1367C27.1375-29.1367 28.5073-39.0431 38.3359-39.0431C47.9776-39.0431 49.9103-29.1367 61.5132-29.1367ZM61.5132-1.14968C73.1158-1.14968 75.0489-11.0561 84.6906-11.0561C94.5192-11.0561 95.889-1.14968 109.114-1.14968L109.363-1.14968C110.058-1.14968 110.565-1.65653 110.565-2.35199C110.565-2.98513 110.058-3.55387 109.363-3.55387L109.114-3.55387C103.139-3.55387 99.6538-6.1673 95.9778-8.72221C92.8003-11.0275 89.4312-13.4603 84.6906-13.4603C79.8245-13.4603 76.455-10.9025 73.2775-8.53488C69.913-5.98039 66.6159-3.55387 61.5132-3.55387C56.4102-3.55387 53.1131-5.98039 49.7486-8.53488C46.5711-10.9025 43.2016-13.4603 38.3359-13.4603C33.5949-13.4603 30.2877-11.0275 27.1101-8.72221C23.4341-6.1673 19.8874-3.55387 13.9125-3.55387L13.6632-3.55387C13.0297-3.55387 12.4609-2.98513 12.4609-2.35199C12.4609-1.65653 13.0297-1.14968 13.6632-1.14968L13.9125-1.14968C27.1375-1.14968 28.5073-11.0561 38.3359-11.0561C47.9776-11.0561 49.9103-1.14968 61.5132-1.14968Z"/>
  </g>
  <g id="Black-S" transform="matrix(1 0 0 1 2879.35 696)">
   <path d="M54.0527-48.877C66.5039-48.877 67.7246-56.9824 72.9492-56.9824C78.1738-56.9824 79.0039-48.877 92.6758-48.877L93.0664-48.877C95.9961-48.877 98.3398-51.2207 98.3398-54.1504C98.3398-57.0312 95.9961-59.375 93.0664-59.375L92.6758-59.375C90.1855-59.375 88.1836-60.2539 84.5703-62.8418C81.9824-64.7461 78.1738-67.4805 72.9492-67.4805C67.7246-67.4805 63.916-64.7461 61.3281-62.8418C58.5449-60.791 56.7871-59.375 54.0527-59.375C51.3184-59.375 49.5605-60.791 46.7773-62.8418C44.1895-64.7461 40.3809-67.4805 35.1562-67.4805C29.9316-67.4805 26.123-64.7461 23.5352-62.8418C19.9219-60.2539 17.9199-59.375 15.4297-59.375L15.0391-59.375C12.1094-59.375 9.76562-57.0312 9.76562-54.1504C9.76562-51.2207 12.1094-48.877 15.0391-48.877L15.4297-48.877C29.1016-48.877 29.9316-56.9824 35.1562-56.9824C40.3809-56.9824 41.6016-48.877 54.0527-48.877ZM54.0527-25.9277C66.5039-25.9277 67.7246-34.0332 72.9492-34.0332C78.1738-34.0332 79.0039-25.9277 92.6758-25.9277L93.0664-25.9277C95.9961-25.9277 98.3398-28.2715 98.3398-31.2012C98.3398-34.082 95.9961-36.4258 93.0664-36.4258L92.6758-36.4258C90.1855-36.4258 88.1836-37.3047 84.5703-39.8926C81.9824-41.7969 78.1738-44.5312 72.9492-44.5312C67.7246-44.5312 63.916-41.7969 61.3281-39.8926C58.5449-37.8418 56.7871-36.4258 54.0527-36.4258C51.3184-36.4258 49.5605-37.8418 46.7773-39.8926C44.1895-41.7969 40.3809-44.5312 35.1562-44.5312C29.9316-44.5312 26.123-41.7969 23.5352-39.8926C19.9219-37.3047 17.9199-36.4258 15.4297-36.4258L15.0391-36.4258C12.1094-36.4258 9.76562-34.082 9.76562-31.2012C9.76562-28.2715 12.1094-25.9277 15.0391-25.9277L15.4297-25.9277C29.1016-25.9277 29.9316-34.0332 35.1562-34.0332C40.3809-34.0332 41.6016-25.9277 54.0527-25.9277ZM54.0527-2.97852C66.5039-2.97852 67.7246-11.084 72.9492-11.084C78.1738-11.084 79.0039-2.97852 92.6758-2.97852L93.0664-2.97852C95.9961-2.97852 98.3398-5.32227 98.3398-8.25195C98.3398-11.1328 95.9961-13.4766 93.0664-13.4766L92.6758-13.4766C90.1855-13.4766 88.1836-14.3555 84.5703-16.9434C81.9824-18.8477 78.1738-21.582 72.9492-21.582C67.7246-21.582 63.916-18.8477 61.3281-16.9434C58.5449-14.8926 56.7871-13.4766 54.0527-13.4766C51.3184-13.4766 49.5605-14.8926 46.7773-16.9434C44.1895-18.8477 40.3809-21.582 35.1562-21.582C29.9316-21.582 26.123-18.8477 23.5352-16.9434C19.9219-14.3555 17.9199-13.4766 15.4297-13.4766L15.0391-13.4766C12.1094-13.4766 9.76562-11.1328 9.76562-8.25195C9.76562-5.32227 12.1094-2.97852 15.0391-2.97852L15.4297-2.97852C29.1016-2.97852 29.9316-11.084 35.1562-11.084C40.3809-11.084 41.6016-2.97852 54.0527-2.97852Z"/>
  </g>
  <g id="Heavy-S" transform="matrix(1 0 0 1 2583.52 696)">
   <path d="M53.1769-49.5569C65.2132-49.5569 66.5491-57.5817 71.9005-57.5817C77.2864-57.5817 78.1511-49.5569 91.4888-49.5569L91.8333-49.5569C94.4633-49.5569 96.5766-51.6702 96.5766-54.3002C96.5766-56.9045 94.4633-59.0177 91.8333-59.0177L91.4888-59.0177C88.6413-59.0177 86.5817-60.0695 83.1413-62.5306C80.5764-64.4119 76.9177-67.0425 71.9005-67.0425C66.8372-67.0425 63.1669-64.3773 60.6021-62.4845C57.8535-60.4453 56.038-59.0177 53.1769-59.0177C50.3042-59.0177 48.4888-60.4453 45.7401-62.4845C43.1753-64.3773 39.505-67.0425 34.4533-67.0425C29.4246-67.0425 25.7658-64.4119 23.2009-62.5306C19.7605-60.0695 17.701-59.0177 14.865-59.0177L14.5205-59.0177C11.8789-59.0177 9.76562-56.9045 9.76562-54.3002C9.76562-51.6702 11.8789-49.5569 14.5205-49.5569L14.865-49.5569C28.2027-49.5569 29.0673-57.5817 34.4533-57.5817C39.8046-57.5817 41.1291-49.5569 53.1769-49.5569ZM53.1769-26.504C65.2132-26.504 66.5491-34.5288 71.9005-34.5288C77.2864-34.5288 78.1511-26.504 91.4888-26.504L91.8333-26.504C94.4633-26.504 96.5766-28.6172 96.5766-31.2588C96.5766-33.8631 94.4633-35.9763 91.8333-35.9763L91.4888-35.9763C88.6413-35.9763 86.5817-37.0281 83.1413-39.4892C80.5764-41.3705 76.9177-44.0011 71.9005-44.0011C66.8372-44.0011 63.1669-41.3359 60.6021-39.4431C57.8535-37.4039 56.038-35.9763 53.1769-35.9763C50.3042-35.9763 48.4888-37.4039 45.7401-39.4431C43.1753-41.3359 39.505-44.0011 34.4533-44.0011C29.4246-44.0011 25.7658-41.3705 23.2009-39.4892C19.7605-37.0281 17.701-35.9763 14.865-35.9763L14.5205-35.9763C11.8789-35.9763 9.76562-33.8631 9.76562-31.2588C9.76562-28.6172 11.8789-26.504 14.5205-26.504L14.865-26.504C28.2027-26.504 29.0673-34.5288 34.4533-34.5288C39.8046-34.5288 41.1291-26.504 53.1769-26.504ZM53.1769-3.46254C65.2132-3.46254 66.5491-11.4873 71.9005-11.4873C77.2864-11.4873 78.1511-3.46254 91.4888-3.46254L91.8333-3.46254C94.4633-3.46254 96.5766-5.5758 96.5766-8.21738C96.5766-10.8101 94.4633-12.9234 91.8333-12.9234L91.4888-12.9234C88.6413-12.9234 86.5817-13.9867 83.1413-16.4478C80.5764-18.3291 76.9177-20.9482 71.9005-20.9482C66.8372-20.9482 63.1669-18.2945 60.6021-16.4017C57.8535-14.3625 56.038-12.9234 53.1769-12.9234C50.3042-12.9234 48.4888-14.3625 45.7401-16.4017C43.1753-18.2945 39.505-20.9482 34.4533-20.9482C29.4246-20.9482 25.7658-18.3291 23.2009-16.4478C19.7605-13.9867 17.701-12.9234 14.865-12.9234L14.5205-12.9234C11.8789-12.9234 9.76562-10.8101 9.76562-8.21738C9.76562-5.5758 11.8789-3.46254 14.5205-3.46254L14.865-3.46254C28.2027-3.46254 29.0673-11.4873 34.4533-11.4873C39.8046-11.4873 41.1291-3.46254 53.1769-3.46254Z"/>
  </g>
  <g id="Bold-S" transform="matrix(1 0 0 1 2287.79 696)">
   <path d="M52.1973-50.3174C63.7695-50.3174 65.2344-58.252 70.7275-58.252C76.2939-58.252 77.1973-50.3174 90.1611-50.3174L90.4541-50.3174C92.749-50.3174 94.6045-52.1729 94.6045-54.4678C94.6045-56.7627 92.749-58.6182 90.4541-58.6182L90.1611-58.6182C86.9141-58.6182 84.79-59.8633 81.543-62.1826C79.0039-64.0381 75.5127-66.5527 70.7275-66.5527C65.8447-66.5527 62.3291-63.9648 59.79-62.085C57.0801-60.0586 55.2002-58.6182 52.1973-58.6182C49.1699-58.6182 47.29-60.0586 44.5801-62.085C42.041-63.9648 38.5254-66.5527 33.667-66.5527C28.8574-66.5527 25.3662-64.0381 22.8271-62.1826C19.5801-59.8633 17.4561-58.6182 14.2334-58.6182L13.9404-58.6182C11.6211-58.6182 9.76562-56.7627 9.76562-54.4678C9.76562-52.1729 11.6211-50.3174 13.9404-50.3174L14.2334-50.3174C27.1973-50.3174 28.1006-58.252 33.667-58.252C39.1602-58.252 40.6006-50.3174 52.1973-50.3174ZM52.1973-27.1484C63.7695-27.1484 65.2344-35.083 70.7275-35.083C76.2939-35.083 77.1973-27.1484 90.1611-27.1484L90.4541-27.1484C92.749-27.1484 94.6045-29.0039 94.6045-31.3232C94.6045-33.6182 92.749-35.4736 90.4541-35.4736L90.1611-35.4736C86.9141-35.4736 84.79-36.7188 81.543-39.0381C79.0039-40.8936 75.5127-43.4082 70.7275-43.4082C65.8447-43.4082 62.3291-40.8203 59.79-38.9404C57.0801-36.9141 55.2002-35.4736 52.1973-35.4736C49.1699-35.4736 47.29-36.9141 44.5801-38.9404C42.041-40.8203 38.5254-43.4082 33.667-43.4082C28.8574-43.4082 25.3662-40.8936 22.8271-39.0381C19.5801-36.7188 17.4561-35.4736 14.2334-35.4736L13.9404-35.4736C11.6211-35.4736 9.76562-33.6182 9.76562-31.3232C9.76562-29.0039 11.6211-27.1484 13.9404-27.1484L14.2334-27.1484C27.1973-27.1484 28.1006-35.083 33.667-35.083C39.1602-35.083 40.6006-27.1484 52.1973-27.1484ZM52.1973-4.00391C63.7695-4.00391 65.2344-11.9385 70.7275-11.9385C76.2939-11.9385 77.1973-4.00391 90.1611-4.00391L90.4541-4.00391C92.749-4.00391 94.6045-5.85938 94.6045-8.17871C94.6045-10.4492 92.749-12.3047 90.4541-12.3047L90.1611-12.3047C86.9141-12.3047 84.79-13.5742 81.543-15.8936C79.0039-17.749 75.5127-20.2393 70.7275-20.2393C65.8447-20.2393 62.3291-17.6758 59.79-15.7959C57.0801-13.7695 55.2002-12.3047 52.1973-12.3047C49.1699-12.3047 47.29-13.7695 44.5801-15.7959C42.041-17.6758 38.5254-20.2393 33.667-20.2393C28.8574-20.2393 25.3662-17.749 22.8271-15.8936C19.5801-13.5742 17.4561-12.3047 14.2334-12.3047L13.9404-12.3047C11.6211-12.3047 9.76562-10.4492 9.76562-8.17871C9.76562-5.85938 11.6211-4.00391 13.9404-4.00391L14.2334-4.00391C27.1973-4.00391 28.1006-11.9385 33.667-11.9385C39.1602-11.9385 40.6006-4.00391 52.1973-4.00391Z"/>
  </g>
  <g id="Semibold-S" transform="matrix(1 0 0 1 1991.76 696)">
   <path d="M51.5219-50.8417C62.7742-50.8417 64.3279-58.7141 69.9188-58.7141C75.6097-58.7141 76.5396-50.8417 89.2458-50.8417L89.5032-50.8417C91.5671-50.8417 93.2448-52.5194 93.2448-54.5833C93.2448-56.6649 91.5671-58.3427 89.5032-58.3427L89.2458-58.3427C85.7232-58.3427 83.5548-59.7211 80.441-61.9427C77.9197-63.7804 74.544-66.215 69.9188-66.215C65.1604-66.215 61.7515-63.6805 59.2302-61.8095C56.5469-59.792 54.6226-58.3427 51.5219-58.3427C48.3879-58.3427 46.4636-59.792 43.7803-61.8095C41.259-63.6805 37.85-66.215 33.1249-66.215C28.4664-66.215 25.0907-63.7804 22.5694-61.9427C19.4557-59.7211 17.2872-58.3427 13.7979-58.3427L13.5405-58.3427C11.4434-58.3427 9.76562-56.6649 9.76562-54.5833C9.76562-52.5194 11.4434-50.8417 13.5405-50.8417L13.7979-50.8417C26.5041-50.8417 27.4341-58.7141 33.1249-58.7141C38.7158-58.7141 40.2362-50.8417 51.5219-50.8417ZM51.5219-27.5928C62.7742-27.5928 64.3279-35.4651 69.9188-35.4651C75.6097-35.4651 76.5396-27.5928 89.2458-27.5928L89.5032-27.5928C91.5671-27.5928 93.2448-29.2705 93.2448-31.3677C93.2448-33.4493 91.5671-35.1271 89.5032-35.1271L89.2458-35.1271C85.7232-35.1271 83.5548-36.5055 80.441-38.7271C77.9197-40.5647 74.544-42.9994 69.9188-42.9994C65.1604-42.9994 61.7515-40.4648 59.2302-38.5938C56.5469-36.5764 54.6226-35.1271 51.5219-35.1271C48.3879-35.1271 46.4636-36.5764 43.7803-38.5938C41.259-40.4648 37.85-42.9994 33.1249-42.9994C28.4664-42.9994 25.0907-40.5647 22.5694-38.7271C19.4557-36.5055 17.2872-35.1271 13.7979-35.1271L13.5405-35.1271C11.4434-35.1271 9.76562-33.4493 9.76562-31.3677C9.76562-29.2705 11.4434-27.5928 13.5405-27.5928L13.7979-27.5928C26.5041-27.5928 27.4341-35.4651 33.1249-35.4651C38.7158-35.4651 40.2362-27.5928 51.5219-27.5928ZM51.5219-4.37715C62.7742-4.37715 64.3279-12.2495 69.9188-12.2495C75.6097-12.2495 76.5396-4.37715 89.2458-4.37715L89.5032-4.37715C91.5671-4.37715 93.2448-6.05488 93.2448-8.15205C93.2448-10.2004 91.5671-11.8781 89.5032-11.8781L89.2458-11.8781C85.7232-11.8781 83.5548-13.2898 80.441-15.5114C77.9197-17.3491 74.544-19.7505 69.9188-19.7505C65.1604-19.7505 61.7515-17.2492 59.2302-15.3782C56.5469-13.3607 54.6226-11.8781 51.5219-11.8781C48.3879-11.8781 46.4636-13.3607 43.7803-15.3782C41.259-17.2492 37.85-19.7505 33.1249-19.7505C28.4664-19.7505 25.0907-17.3491 22.5694-15.5114C19.4557-13.2898 17.2872-11.8781 13.7979-11.8781L13.5405-11.8781C11.4434-11.8781 9.76562-10.2004 9.76562-8.15205C9.76562-6.05488 11.4434-4.37715 13.5405-4.37715L13.7979-4.37715C26.5041-4.37715 27.4341-12.2495 33.1249-12.2495C38.7158-12.2495 40.2362-4.37715 51.5219-4.37715Z"/>
  </g>
  <g id="Medium-S" transform="matrix(1 0 0 1 1695.57 696)">
   <path d="M51.0098-51.2393C62.0195-51.2393 63.6406-59.0645 69.3057-59.0645C75.0908-59.0645 76.041-51.2393 88.5518-51.2393L88.7822-51.2393C90.6709-51.2393 92.2139-52.7822 92.2139-54.6709C92.2139-56.5908 90.6709-58.1338 88.7822-58.1338L88.5518-58.1338C84.8203-58.1338 82.6182-59.6133 79.6055-61.7607C77.0977-63.585 73.8096-65.959 69.3057-65.959C64.6416-65.959 61.3135-63.4648 58.8057-61.6006C56.1426-59.5898 54.1846-58.1338 51.0098-58.1338C47.7949-58.1338 45.8369-59.5898 43.1738-61.6006C40.666-63.4648 37.3379-65.959 32.7139-65.959C28.1699-65.959 24.8818-63.585 22.374-61.7607C19.3613-59.6133 17.1592-58.1338 13.4678-58.1338L13.2373-58.1338C11.3086-58.1338 9.76562-56.5908 9.76562-54.6709C9.76562-52.7822 11.3086-51.2393 13.2373-51.2393L13.4678-51.2393C25.9785-51.2393 26.9287-59.0645 32.7139-59.0645C38.3789-59.0645 39.96-51.2393 51.0098-51.2393ZM51.0098-27.9297C62.0195-27.9297 63.6406-35.7549 69.3057-35.7549C75.0908-35.7549 76.041-27.9297 88.5518-27.9297L88.7822-27.9297C90.6709-27.9297 92.2139-29.4727 92.2139-31.4014C92.2139-33.3213 90.6709-34.8643 88.7822-34.8643L88.5518-34.8643C84.8203-34.8643 82.6182-36.3438 79.6055-38.4912C77.0977-40.3154 73.8096-42.6895 69.3057-42.6895C64.6416-42.6895 61.3135-40.1953 58.8057-38.3311C56.1426-36.3203 54.1846-34.8643 51.0098-34.8643C47.7949-34.8643 45.8369-36.3203 43.1738-38.3311C40.666-40.1953 37.3379-42.6895 32.7139-42.6895C28.1699-42.6895 24.8818-40.3154 22.374-38.4912C19.3613-36.3438 17.1592-34.8643 13.4678-34.8643L13.2373-34.8643C11.3086-34.8643 9.76562-33.3213 9.76562-31.4014C9.76562-29.4727 11.3086-27.9297 13.2373-27.9297L13.4678-27.9297C25.9785-27.9297 26.9287-35.7549 32.7139-35.7549C38.3789-35.7549 39.96-27.9297 51.0098-27.9297ZM51.0098-4.66016C62.0195-4.66016 63.6406-12.4854 69.3057-12.4854C75.0908-12.4854 76.041-4.66016 88.5518-4.66016L88.7822-4.66016C90.6709-4.66016 92.2139-6.20312 92.2139-8.13184C92.2139-10.0117 90.6709-11.5547 88.7822-11.5547L88.5518-11.5547C84.8203-11.5547 82.6182-13.0742 79.6055-15.2217C77.0977-17.0459 73.8096-19.3799 69.3057-19.3799C64.6416-19.3799 61.3135-16.9258 58.8057-15.0615C56.1426-13.0508 54.1846-11.5547 51.0098-11.5547C47.7949-11.5547 45.8369-13.0508 43.1738-15.0615C40.666-16.9258 37.3379-19.3799 32.7139-19.3799C28.1699-19.3799 24.8818-17.0459 22.374-15.2217C19.3613-13.0742 17.1592-11.5547 13.4678-11.5547L13.2373-11.5547C11.3086-11.5547 9.76562-10.0117 9.76562-8.13184C9.76562-6.20312 11.3086-4.66016 13.2373-4.66016L13.4678-4.66016C25.9785-4.66016 26.9287-12.4854 32.7139-12.4854C38.3789-12.4854 39.96-4.66016 51.0098-4.66016Z"/>
  </g>
  <g id="Regular-S" transform="matrix(1 0 0 1 1399.53 696)">
   <path d="M50.3418-51.7578C61.0352-51.7578 62.7441-59.5215 68.5059-59.5215C74.4141-59.5215 75.3906-51.7578 87.6465-51.7578L87.8418-51.7578C89.502-51.7578 90.8691-53.125 90.8691-54.7852C90.8691-56.4941 89.502-57.8613 87.8418-57.8613L87.6465-57.8613C83.6426-57.8613 81.3965-59.4727 78.5156-61.5234C76.0254-63.3301 72.8516-65.625 68.5059-65.625C63.9648-65.625 60.7422-63.1836 58.252-61.3281C55.6152-59.3262 53.6133-57.8613 50.3418-57.8613C47.0215-57.8613 45.0195-59.3262 42.3828-61.3281C39.8926-63.1836 36.6699-65.625 32.1777-65.625C27.7832-65.625 24.6094-63.3301 22.1191-61.5234C19.2383-59.4727 16.9922-57.8613 13.0371-57.8613L12.8418-57.8613C11.1328-57.8613 9.76562-56.4941 9.76562-54.7852C9.76562-53.125 11.1328-51.7578 12.8418-51.7578L13.0371-51.7578C25.293-51.7578 26.2695-59.5215 32.1777-59.5215C37.9395-59.5215 39.5996-51.7578 50.3418-51.7578ZM50.3418-28.3691C61.0352-28.3691 62.7441-36.1328 68.5059-36.1328C74.4141-36.1328 75.3906-28.3691 87.6465-28.3691L87.8418-28.3691C89.502-28.3691 90.8691-29.7363 90.8691-31.4453C90.8691-33.1543 89.502-34.5215 87.8418-34.5215L87.6465-34.5215C83.6426-34.5215 81.3965-36.1328 78.5156-38.1836C76.0254-39.9902 72.8516-42.2852 68.5059-42.2852C63.9648-42.2852 60.7422-39.8438 58.252-37.9883C55.6152-35.9863 53.6133-34.5215 50.3418-34.5215C47.0215-34.5215 45.0195-35.9863 42.3828-37.9883C39.8926-39.8438 36.6699-42.2852 32.1777-42.2852C27.7832-42.2852 24.6094-39.9902 22.1191-38.1836C19.2383-36.1328 16.9922-34.5215 13.0371-34.5215L12.8418-34.5215C11.1328-34.5215 9.76562-33.1543 9.76562-31.4453C9.76562-29.7363 11.1328-28.3691 12.8418-28.3691L13.0371-28.3691C25.293-28.3691 26.2695-36.1328 32.1777-36.1328C37.9395-36.1328 39.5996-28.3691 50.3418-28.3691ZM50.3418-5.0293C61.0352-5.0293 62.7441-12.793 68.5059-12.793C74.4141-12.793 75.3906-5.0293 87.6465-5.0293L87.8418-5.0293C89.502-5.0293 90.8691-6.39648 90.8691-8.10547C90.8691-9.76562 89.502-11.1328 87.8418-11.1328L87.6465-11.1328C83.6426-11.1328 81.3965-12.793 78.5156-14.8438C76.0254-16.6504 72.8516-18.8965 68.5059-18.8965C63.9648-18.8965 60.7422-16.5039 58.252-14.6484C55.6152-12.6465 53.6133-11.1328 50.3418-11.1328C47.0215-11.1328 45.0195-12.6465 42.3828-14.6484C39.8926-16.5039 36.6699-18.8965 32.1777-18.8965C27.7832-18.8965 24.6094-16.6504 22.1191-14.8438C19.2383-12.793 16.9922-11.1328 13.0371-11.1328L12.8418-11.1328C11.1328-11.1328 9.76562-9.76562 9.76562-8.10547C9.76562-6.39648 11.1328-5.0293 12.8418-5.0293L13.0371-5.0293C25.293-5.0293 26.2695-12.793 32.1777-12.793C37.9395-12.793 39.5996-5.0293 50.3418-5.0293Z"/>
  </g>
  <g id="Light-S" transform="matrix(1 0 0 1 1103.47 696)">
   <path d="M49.6758-51.9546C59.8696-51.9546 61.5181-59.7183 67.8398-59.7183C74.3081-59.7183 75.3149-51.9546 86.9805-51.9546L87.1758-51.9546C88.4878-51.9546 89.5523-53.0342 89.5523-54.3311C89.5523-55.6768 88.4878-56.7412 87.1758-56.7412L86.9805-56.7412C82.7647-56.7412 80.3672-58.5039 77.4863-60.5396C74.9961-62.3462 71.9888-64.5049 67.8398-64.5049C63.5259-64.5049 60.4849-62.2149 57.9946-60.3594C55.3579-58.3574 53.1743-56.7412 49.6758-56.7412C46.1436-56.7412 43.96-58.3574 41.3233-60.3594C38.833-62.2149 35.792-64.5049 31.5117-64.5049C27.3291-64.5049 24.3369-62.3462 21.8467-60.5396C18.9658-58.5039 16.5532-56.7412 12.3711-56.7412L12.1758-56.7412C10.8452-56.7412 9.76562-55.6768 9.76562-54.3311C9.76562-53.0342 10.8452-51.9546 12.1758-51.9546L12.3711-51.9546C24.0366-51.9546 25.0435-59.7183 31.5117-59.7183C37.8335-59.7183 39.4482-51.9546 49.6758-51.9546ZM49.6758-29.02C59.8696-29.02 61.5181-36.7837 67.8398-36.7837C74.3081-36.7837 75.3149-29.02 86.9805-29.02L87.1758-29.02C88.4878-29.02 89.5523-30.0996 89.5523-31.4302C89.5523-32.7607 88.4878-33.8403 87.1758-33.8403L86.9805-33.8403C82.7647-33.8403 80.3672-35.5879 77.4863-37.6235C74.9961-39.4302 71.9888-41.604 67.8398-41.604C63.5259-41.604 60.4849-39.2988 57.9946-37.4434C55.3579-35.4414 53.1743-33.8403 49.6758-33.8403C46.1436-33.8403 43.96-35.4414 41.3233-37.4434C38.833-39.2988 35.792-41.604 31.5117-41.604C27.3291-41.604 24.3369-39.4302 21.8467-37.6235C18.9658-35.5879 16.5532-33.8403 12.3711-33.8403L12.1758-33.8403C10.8452-33.8403 9.76562-32.7607 9.76562-31.4302C9.76562-30.0996 10.8452-29.02 12.1758-29.02L12.3711-29.02C24.0366-29.02 25.0435-36.7837 31.5117-36.7837C37.8335-36.7837 39.4482-29.02 49.6758-29.02ZM49.6758-6.11913C59.8696-6.11913 61.5181-13.8828 67.8398-13.8828C74.3081-13.8828 75.3149-6.11913 86.9805-6.11913L87.1758-6.11913C88.4878-6.11913 89.5523-7.18359 89.5523-8.52929C89.5523-9.82617 88.4878-10.9058 87.1758-10.9058L86.9805-10.9058C82.7647-10.9058 80.3672-12.687 77.4863-14.7227C74.9961-16.5293 71.9888-18.6694 67.8398-18.6694C63.5259-18.6694 60.4849-16.398 57.9946-14.5425C55.3579-12.5405 53.1743-10.9058 49.6758-10.9058C46.1436-10.9058 43.96-12.5405 41.3233-14.5425C38.833-16.398 35.792-18.6694 31.5117-18.6694C27.3291-18.6694 24.3369-16.5293 21.8467-14.7227C18.9658-12.687 16.5532-10.9058 12.3711-10.9058L12.1758-10.9058C10.8452-10.9058 9.76562-9.82617 9.76562-8.52929C9.76562-7.18359 10.8452-6.11913 12.1758-6.11913L12.3711-6.11913C24.0366-6.11913 25.0435-13.8828 31.5117-13.8828C37.8335-13.8828 39.4482-6.11913 49.6758-6.11913Z"/>
  </g>
  <g id="Thin-S" transform="matrix(1 0 0 1 807.634 696)">
   <path d="M48.7949-52.2148C58.3281-52.2148 59.8965-59.9785 66.959-59.9785C74.168-59.9785 75.2148-52.2148 86.0996-52.2148L86.2949-52.2148C87.1465-52.2148 87.8106-52.9141 87.8106-53.7305C87.8106-54.5957 87.1465-55.2598 86.2949-55.2598L86.0996-55.2598C81.6035-55.2598 79.0059-57.2227 76.125-59.2383C73.6348-61.0449 70.8477-63.0235 66.959-63.0235C62.9453-63.0235 60.1445-60.9336 57.6543-59.0781C55.0176-57.0762 52.5938-55.2598 48.7949-55.2598C44.9824-55.2598 42.5586-57.0762 39.9219-59.0781C37.4317-60.9336 34.6309-63.0235 30.6309-63.0235C26.7285-63.0235 23.9766-61.0449 21.4863-59.2383C18.6055-57.2227 15.9727-55.2598 11.4902-55.2598L11.2949-55.2598C10.4648-55.2598 9.76562-54.5957 9.76562-53.7305C9.76562-52.9141 10.4648-52.2148 11.2949-52.2148L11.4902-52.2148C22.375-52.2148 23.4219-59.9785 30.6309-59.9785C37.6934-59.9785 39.248-52.2148 48.7949-52.2148ZM48.7949-29.8808C58.3281-29.8808 59.8965-37.6445 66.959-37.6445C74.168-37.6445 75.2148-29.8808 86.0996-29.8808L86.2949-29.8808C87.1465-29.8808 87.8106-30.5801 87.8106-31.4102C87.8106-32.2402 87.1465-32.9395 86.2949-32.9395L86.0996-32.9395C81.6035-32.9395 79.0059-34.8672 76.125-36.8828C73.6348-38.6895 70.8477-40.7031 66.959-40.7031C62.9453-40.7031 60.1445-38.5781 57.6543-36.7227C55.0176-34.7207 52.5938-32.9395 48.7949-32.9395C44.9824-32.9395 42.5586-34.7207 39.9219-36.7227C37.4317-38.5781 34.6309-40.7031 30.6309-40.7031C26.7285-40.7031 23.9766-38.6895 21.4863-36.8828C18.6055-34.8672 15.9727-32.9395 11.4902-32.9395L11.2949-32.9395C10.4648-32.9395 9.76562-32.2402 9.76562-31.4102C9.76562-30.5801 10.4648-29.8808 11.2949-29.8808L11.4902-29.8808C22.375-29.8808 23.4219-37.6445 30.6309-37.6445C37.6934-37.6445 39.248-29.8808 48.7949-29.8808ZM48.7949-7.56053C58.3281-7.56053 59.8965-15.3242 66.959-15.3242C74.168-15.3242 75.2148-7.56053 86.0996-7.56053L86.2949-7.56053C87.1465-7.56053 87.8106-8.22459 87.8106-9.08984C87.8106-9.90625 87.1465-10.6055 86.2949-10.6055L86.0996-10.6055C81.6035-10.6055 79.0059-12.5469 76.125-14.5625C73.6348-16.3691 70.8477-18.3691 66.959-18.3691C62.9453-18.3691 60.1445-16.2578 57.6543-14.4023C55.0176-12.4004 52.5938-10.6055 48.7949-10.6055C44.9824-10.6055 42.5586-12.4004 39.9219-14.4023C37.4317-16.2578 34.6309-18.3691 30.6309-18.3691C26.7285-18.3691 23.9766-16.3691 21.4863-14.5625C18.6055-12.5469 15.9727-10.6055 11.4902-10.6055L11.2949-10.6055C10.4648-10.6055 9.76562-9.90625 9.76562-9.08984C9.76562-8.22459 10.4648-7.56053 11.2949-7.56053L11.4902-7.56053C22.375-7.56053 23.4219-15.3242 30.6309-15.3242C37.6934-15.3242 39.248-7.56053 48.7949-7.56053Z"/>
  </g>
  <g id="Ultralight-S" transform="matrix(1 0 0 1 511.369 696)">
   <path d="M48.3438-52.3481C57.5386-52.3481 59.0659-60.1118 66.5078-60.1118C74.0962-60.1118 75.1636-52.3481 85.6485-52.3481L85.8438-52.3481C86.4595-52.3481 86.9185-52.8525 86.9185-53.4229C86.9185-54.042 86.4595-54.501 85.8438-54.501L85.6485-54.501C81.0088-54.501 78.3086-56.5664 75.4278-58.5718C72.9375-60.3784 70.2632-62.2647 66.5078-62.2647C62.648-62.2647 59.9702-60.2774 57.48-58.4219C54.8433-56.4199 52.2964-54.501 48.3438-54.501C44.3877-54.501 41.8408-56.4199 39.2041-58.4219C36.7139-60.2774 34.0362-62.2647 30.1797-62.2647C26.4209-62.2647 23.792-60.3784 21.3018-58.5718C18.4209-56.5664 15.6753-54.501 11.0391-54.501L10.8438-54.501C10.27-54.501 9.76562-54.042 9.76562-53.4229C9.76562-52.8525 10.27-52.3481 10.8438-52.3481L11.0391-52.3481C21.524-52.3481 22.5913-60.1118 30.1797-60.1118C37.6216-60.1118 39.1455-52.3481 48.3438-52.3481ZM48.3438-30.3218C57.5386-30.3218 59.0659-38.0854 66.5078-38.0854C74.0962-38.0854 75.1636-30.3218 85.6485-30.3218L85.8438-30.3218C86.4595-30.3218 86.9185-30.8262 86.9185-31.3999C86.9185-31.9736 86.4595-32.478 85.8438-32.478L85.6485-32.478C81.0088-32.478 78.3086-34.4981 75.4278-36.5034C72.9375-38.3101 70.2632-40.2417 66.5078-40.2417C62.648-40.2417 59.9702-38.209 57.48-36.3535C54.8433-34.3516 52.2964-32.478 48.3438-32.478C44.3877-32.478 41.8408-34.3516 39.2041-36.3535C36.7139-38.209 34.0362-40.2417 30.1797-40.2417C26.4209-40.2417 23.792-38.3101 21.3018-36.5034C18.4209-34.4981 15.6753-32.478 11.0391-32.478L10.8438-32.478C10.27-32.478 9.76562-31.9736 9.76562-31.3999C9.76562-30.8262 10.27-30.3218 10.8438-30.3218L11.0391-30.3218C21.524-30.3218 22.5913-38.0854 30.1797-38.0854C37.6216-38.0854 39.1455-30.3218 48.3438-30.3218ZM48.3438-8.2988C57.5386-8.2988 59.0659-16.0625 66.5078-16.0625C74.0962-16.0625 75.1636-8.2988 85.6485-8.2988L85.8438-8.2988C86.4595-8.2988 86.9185-8.75779 86.9185-9.37694C86.9185-9.94726 86.4595-10.4517 85.8438-10.4517L85.6485-10.4517C81.0088-10.4517 78.3086-12.4751 75.4278-14.4805C72.9375-16.2871 70.2632-18.2153 66.5078-18.2153C62.648-18.2153 59.9702-16.186 57.48-14.3306C54.8433-12.3286 52.2964-10.4517 48.3438-10.4517C44.3877-10.4517 41.8408-12.3286 39.2041-14.3306C36.7139-16.186 34.0362-18.2153 30.1797-18.2153C26.4209-18.2153 23.792-16.2871 21.3018-14.4805C18.4209-12.4751 15.6753-10.4517 11.0391-10.4517L10.8438-10.4517C10.27-10.4517 9.76562-9.94726 9.76562-9.37694C9.76562-8.75779 10.27-8.2988 10.8438-8.2988L11.0391-8.2988C21.524-8.2988 22.5913-16.0625 30.1797-16.0625C37.6216-16.0625 39.1455-8.2988 48.3438-8.2988Z"/>
  </g>
 </g>
</svg>
