<?xml version="1.0" encoding="UTF-8"?>
<!--Generator: Apple Native CoreSVG 175.5-->
<!DOCTYPE svg
PUBLIC "-//W3C//DTD SVG 1.1//EN"
       "http://www.w3.org/Graphics/SVG/1.1/DTD/svg11.dtd">
<svg version="1.1" xmlns="http://www.w3.org/2000/svg" xmlns:xlink="http://www.w3.org/1999/xlink" width="3300" height="2200">
 <!--glyph: "uni1015A9.medium", point size: 100.0, font version: "18.0d11e1", template writer version: "90"-->
 <g id="Notes">
  <rect height="2200" id="artboard" style="fill:white;opacity:1" width="3300" x="0" y="0"/>
  <line style="fill:none;stroke:black;opacity:1;stroke-width:0.5;" x1="263" x2="3036" y1="292" y2="292"/>
  <text style="stroke:none;fill:black;font-family:sans-serif;font-size:13;font-weight:bold;" transform="matrix(1 0 0 1 263 322)">Weight/Scale Variations</text>
  <text style="stroke:none;fill:black;font-family:sans-serif;font-size:13;text-anchor:middle;" transform="matrix(1 0 0 1 559.711 322)">Ultralight</text>
  <text style="stroke:none;fill:black;font-family:sans-serif;font-size:13;text-anchor:middle;" transform="matrix(1 0 0 1 856.422 322)">Thin</text>
  <text style="stroke:none;fill:black;font-family:sans-serif;font-size:13;text-anchor:middle;" transform="matrix(1 0 0 1 1153.13 322)">Light</text>
  <text style="stroke:none;fill:black;font-family:sans-serif;font-size:13;text-anchor:middle;" transform="matrix(1 0 0 1 1449.84 322)">Regular</text>
  <text style="stroke:none;fill:black;font-family:sans-serif;font-size:13;text-anchor:middle;" transform="matrix(1 0 0 1 1746.56 322)">Medium</text>
  <text style="stroke:none;fill:black;font-family:sans-serif;font-size:13;text-anchor:middle;" transform="matrix(1 0 0 1 2043.27 322)">Semibold</text>
  <text style="stroke:none;fill:black;font-family:sans-serif;font-size:13;text-anchor:middle;" transform="matrix(1 0 0 1 2339.98 322)">Bold</text>
  <text style="stroke:none;fill:black;font-family:sans-serif;font-size:13;text-anchor:middle;" transform="matrix(1 0 0 1 2636.69 322)">Heavy</text>
  <text style="stroke:none;fill:black;font-family:sans-serif;font-size:13;text-anchor:middle;" transform="matrix(1 0 0 1 2933.4 322)">Black</text>
  <line style="fill:none;stroke:black;opacity:1;stroke-width:0.5;" x1="263" x2="3036" y1="1903" y2="1903"/>
  <g transform="matrix(1 0 0 1 263 1933)">
   <path d="M9.24805 0.830078C13.5547 0.830078 17.1387-2.74414 17.1387-7.05078C17.1387-11.3574 13.5449-14.9316 9.23828-14.9316C4.94141-14.9316 1.36719-11.3574 1.36719-7.05078C1.36719-2.74414 4.95117 0.830078 9.24805 0.830078ZM9.24805-0.654297C5.70312-0.654297 2.87109-3.49609 2.87109-7.05078C2.87109-10.6055 5.69336-13.4473 9.23828-13.4473C12.793-13.4473 15.6445-10.6055 15.6445-7.05078C15.6445-3.49609 12.8027-0.654297 9.24805-0.654297ZM5.6543-7.05078C5.6543-6.62109 5.95703-6.32812 6.40625-6.32812L8.50586-6.32812L8.50586-4.20898C8.50586-3.76953 8.79883-3.4668 9.22852-3.4668C9.67773-3.4668 9.9707-3.76953 9.9707-4.20898L9.9707-6.32812L12.0898-6.32812C12.5293-6.32812 12.832-6.62109 12.832-7.05078C12.832-7.49023 12.5293-7.79297 12.0898-7.79297L9.9707-7.79297L9.9707-9.90234C9.9707-10.3516 9.67773-10.6543 9.22852-10.6543C8.79883-10.6543 8.50586-10.3516 8.50586-9.90234L8.50586-7.79297L6.40625-7.79297C5.95703-7.79297 5.6543-7.49023 5.6543-7.05078Z"/>
  </g>
  <g transform="matrix(1 0 0 1 281.867 1933)">
   <path d="M11.709 2.91016C17.1582 2.91016 21.6699-1.61133 21.6699-7.05078C21.6699-12.5 17.1484-17.0117 11.6992-17.0117C6.25977-17.0117 1.74805-12.5 1.74805-7.05078C1.74805-1.61133 6.26953 2.91016 11.709 2.91016ZM11.709 1.25C7.09961 1.25 3.41797-2.44141 3.41797-7.05078C3.41797-11.6602 7.08984-15.3516 11.6992-15.3516C16.3086-15.3516 20.0098-11.6602 20.0098-7.05078C20.0098-2.44141 16.3184 1.25 11.709 1.25ZM7.17773-7.05078C7.17773-6.57227 7.50977-6.25 8.00781-6.25L10.8789-6.25L10.8789-3.36914C10.8789-2.88086 11.2109-2.53906 11.6895-2.53906C12.1777-2.53906 12.5195-2.87109 12.5195-3.36914L12.5195-6.25L15.4004-6.25C15.8887-6.25 16.2305-6.57227 16.2305-7.05078C16.2305-7.53906 15.8887-7.88086 15.4004-7.88086L12.5195-7.88086L12.5195-10.752C12.5195-11.25 12.1777-11.5918 11.6895-11.5918C11.2109-11.5918 10.8789-11.25 10.8789-10.752L10.8789-7.88086L8.00781-7.88086C7.50977-7.88086 7.17773-7.53906 7.17773-7.05078Z"/>
  </g>
  <g transform="matrix(1 0 0 1 305.646 1933)">
   <path d="M14.9707 5.66406C21.9336 5.66406 27.6953-0.0976562 27.6953-7.05078C27.6953-14.0137 21.9238-19.7754 14.9609-19.7754C8.00781-19.7754 2.25586-14.0137 2.25586-7.05078C2.25586-0.0976562 8.01758 5.66406 14.9707 5.66406ZM14.9707 3.84766C8.93555 3.84766 4.08203-1.01562 4.08203-7.05078C4.08203-13.0957 8.92578-17.9492 14.9609-17.9492C21.0059-17.9492 25.8691-13.0957 25.8691-7.05078C25.8691-1.01562 21.0156 3.84766 14.9707 3.84766ZM9.19922-7.05078C9.19922-6.5332 9.57031-6.17188 10.1172-6.17188L14.0625-6.17188L14.0625-2.2168C14.0625-1.67969 14.4336-1.29883 14.9512-1.29883C15.4883-1.29883 15.8594-1.66992 15.8594-2.2168L15.8594-6.17188L19.8145-6.17188C20.3516-6.17188 20.7324-6.5332 20.7324-7.05078C20.7324-7.59766 20.3613-7.96875 19.8145-7.96875L15.8594-7.96875L15.8594-11.9141C15.8594-12.4609 15.4883-12.8418 14.9512-12.8418C14.4336-12.8418 14.0625-12.4609 14.0625-11.9141L14.0625-7.96875L10.1172-7.96875C9.57031-7.96875 9.19922-7.59766 9.19922-7.05078Z"/>
  </g>
  <text style="stroke:none;fill:black;font-family:sans-serif;font-size:13;font-weight:bold;" transform="matrix(1 0 0 1 263 1953)">Design Variations</text>
  <text style="stroke:none;fill:black;font-family:sans-serif;font-size:13;" transform="matrix(1 0 0 1 263 1971)">Symbols are supported in up to nine weights and three scales.</text>
  <text style="stroke:none;fill:black;font-family:sans-serif;font-size:13;" transform="matrix(1 0 0 1 263 1989)">For optimal layout with text and other symbols, vertically align</text>
  <text style="stroke:none;fill:black;font-family:sans-serif;font-size:13;" transform="matrix(1 0 0 1 263 2007)">symbols with the adjacent text.</text>
  <line style="fill:none;stroke:#00AEEF;stroke-width:0.5;opacity:1.0;" x1="776" x2="776" y1="1919" y2="1933"/>
  <g transform="matrix(1 0 0 1 776 1933)">
   <path d="M3.31055 0.15625C3.82812 0.15625 4.08203-0.0390625 4.26758-0.585938L5.52734-4.0332L11.2891-4.0332L12.5488-0.585938C12.7344-0.0390625 12.9883 0.15625 13.4961 0.15625C14.0137 0.15625 14.3457-0.15625 14.3457-0.644531C14.3457-0.810547 14.3164-0.966797 14.2383-1.17188L9.6582-13.3691C9.43359-13.9648 9.0332-14.2676 8.4082-14.2676C7.80273-14.2676 7.39258-13.9746 7.17773-13.3789L2.59766-1.16211C2.51953-0.957031 2.49023-0.800781 2.49023-0.634766C2.49023-0.146484 2.80273 0.15625 3.31055 0.15625ZM6.00586-5.51758L8.37891-12.0898L8.42773-12.0898L10.8008-5.51758Z"/>
  </g>
  <line style="fill:none;stroke:#00AEEF;stroke-width:0.5;opacity:1.0;" x1="793.197" x2="793.197" y1="1919" y2="1933"/>
  <text style="stroke:none;fill:black;font-family:sans-serif;font-size:13;font-weight:bold;" transform="matrix(1 0 0 1 776 1953)">Margins</text>
  <text style="stroke:none;fill:black;font-family:sans-serif;font-size:13;" transform="matrix(1 0 0 1 776 1971)">Leading and trailing margins on the left and right side of each symbol</text>
  <text style="stroke:none;fill:black;font-family:sans-serif;font-size:13;" transform="matrix(1 0 0 1 776 1989)">can be adjusted by modifying the x-location of the margin guidelines.</text>
  <text style="stroke:none;fill:black;font-family:sans-serif;font-size:13;" transform="matrix(1 0 0 1 776 2007)">Modifications are automatically applied proportionally to all</text>
  <text style="stroke:none;fill:black;font-family:sans-serif;font-size:13;" transform="matrix(1 0 0 1 776 2025)">scales and weights.</text>
  <g transform="matrix(1 0 0 1 1289 1933)">
   <path d="M2.8418 1.86523L4.54102 3.57422C5.40039 4.44336 6.38672 4.38477 7.31445 3.35938L18.0078-8.42773L17.041-9.4043L6.42578 2.27539C6.07422 2.67578 5.74219 2.77344 5.27344 2.30469L4.10156 1.14258C3.63281 0.683594 3.74023 0.341797 4.14062-0.0195312L15.6152-10.8203L14.6387-11.7871L3.04688-0.898438C2.06055 0.0195312 1.98242 0.996094 2.8418 1.86523ZM9.25781-16.3281C8.83789-15.918 8.80859-15.3418 9.04297-14.9512C9.27734-14.5898 9.73633-14.3555 10.3809-14.5215C11.8457-14.8633 13.3691-14.9219 14.7949-13.9844L14.209-12.5293C13.8672-11.6992 14.043-11.1133 14.5801-10.5664L16.875-8.25195C17.3633-7.76367 17.7734-7.74414 18.3398-7.8418L19.4043-8.03711L20.0684-7.36328L20.0293-6.80664C19.9902-6.30859 20.1172-5.92773 20.6055-5.44922L21.3672-4.70703C21.8457-4.22852 22.4609-4.19922 22.9297-4.66797L25.8398-7.58789C26.3086-8.05664 26.2891-8.65234 25.8105-9.13086L25.0391-9.89258C24.5605-10.3711 24.1895-10.5273 23.7109-10.4883L23.1348-10.4395L22.4902-11.0742L22.7344-12.1973C22.8613-12.7637 22.7051-13.2031 22.1191-13.7891L19.9219-15.9766C16.582-19.2969 12.1484-19.2188 9.25781-16.3281ZM10.752-15.957C13.1836-17.7344 16.4746-17.4316 18.7012-15.2051L21.1328-12.793C21.3672-12.5586 21.4062-12.373 21.3379-12.0312L21.0156-10.5469L22.5195-9.0625L23.5059-9.12109C23.7598-9.13086 23.8379-9.11133 24.0332-8.91602L24.6094-8.33984L22.168-5.89844L21.5918-6.47461C21.3965-6.66992 21.3672-6.74805 21.377-7.01172L21.4453-7.98828L19.9512-9.47266L18.4277-9.21875C18.1055-9.15039 17.959-9.17969 17.7148-9.41406L15.7129-11.416C15.459-11.6504 15.4297-11.8164 15.5859-12.1875L16.4648-14.2773C14.9023-15.7324 12.8711-16.3574 10.8398-15.7617C10.6836-15.7227 10.625-15.8496 10.752-15.957Z"/>
  </g>
  <text style="stroke:none;fill:black;font-family:sans-serif;font-size:13;font-weight:bold;" transform="matrix(1 0 0 1 1289 1953)">Exporting</text>
  <text style="stroke:none;fill:black;font-family:sans-serif;font-size:13;" transform="matrix(1 0 0 1 1289 1971)">Symbols should be outlined when exporting to ensure the</text>
  <text style="stroke:none;fill:black;font-family:sans-serif;font-size:13;" transform="matrix(1 0 0 1 1289 1989)">design is preserved when submitting to Xcode.</text>
  <text id="template-version" style="stroke:none;fill:black;font-family:sans-serif;font-size:13;text-anchor:end;" transform="matrix(1 0 0 1 3036 1933)">Template v.4.0</text>
  <text style="stroke:none;fill:black;font-family:sans-serif;font-size:13;text-anchor:end;" transform="matrix(1 0 0 1 3036 1951)">Requires Xcode 14 or greater</text>
  <text id="descriptive-name" style="stroke:none;fill:black;font-family:sans-serif;font-size:13;text-anchor:end;" transform="matrix(1 0 0 1 3036 1969)">Generated from birthday.cake</text>
  <text style="stroke:none;fill:black;font-family:sans-serif;font-size:13;text-anchor:end;" transform="matrix(1 0 0 1 3036 1987)">Typeset at 100 points</text>
  <text style="stroke:none;fill:black;font-family:sans-serif;font-size:13;" transform="matrix(1 0 0 1 263 726)">Small</text>
  <text style="stroke:none;fill:black;font-family:sans-serif;font-size:13;" transform="matrix(1 0 0 1 263 1156)">Medium</text>
  <text style="stroke:none;fill:black;font-family:sans-serif;font-size:13;" transform="matrix(1 0 0 1 263 1586)">Large</text>
 </g>
 <g id="Guides">
  <g id="H-reference" style="fill:#27AAE1;stroke:none;" transform="matrix(1 0 0 1 339 696)">
   <path d="M0.993654 0L3.63775 0L29.3281-67.1323L30.0303-67.1323L30.0303-70.459L28.1226-70.459ZM11.6885-24.4799L46.9815-24.4799L46.2315-26.7285L12.4385-26.7285ZM55.1196 0L57.7637 0L30.6382-70.459L29.4326-70.459L29.4326-67.1323Z"/>
  </g>
  <line id="Baseline-S" style="fill:none;stroke:#27AAE1;opacity:1;stroke-width:0.5;" x1="263" x2="3036" y1="696" y2="696"/>
  <line id="Capline-S" style="fill:none;stroke:#27AAE1;opacity:1;stroke-width:0.5;" x1="263" x2="3036" y1="625.541" y2="625.541"/>
  <g id="H-reference" style="fill:#27AAE1;stroke:none;" transform="matrix(1 0 0 1 339 1126)">
   <path d="M0.993654 0L3.63775 0L29.3281-67.1323L30.0303-67.1323L30.0303-70.459L28.1226-70.459ZM11.6885-24.4799L46.9815-24.4799L46.2315-26.7285L12.4385-26.7285ZM55.1196 0L57.7637 0L30.6382-70.459L29.4326-70.459L29.4326-67.1323Z"/>
  </g>
  <line id="Baseline-M" style="fill:none;stroke:#27AAE1;opacity:1;stroke-width:0.5;" x1="263" x2="3036" y1="1126" y2="1126"/>
  <line id="Capline-M" style="fill:none;stroke:#27AAE1;opacity:1;stroke-width:0.5;" x1="263" x2="3036" y1="1055.54" y2="1055.54"/>
  <g id="H-reference" style="fill:#27AAE1;stroke:none;" transform="matrix(1 0 0 1 339 1556)">
   <path d="M0.993654 0L3.63775 0L29.3281-67.1323L30.0303-67.1323L30.0303-70.459L28.1226-70.459ZM11.6885-24.4799L46.9815-24.4799L46.2315-26.7285L12.4385-26.7285ZM55.1196 0L57.7637 0L30.6382-70.459L29.4326-70.459L29.4326-67.1323Z"/>
  </g>
  <line id="Baseline-L" style="fill:none;stroke:#27AAE1;opacity:1;stroke-width:0.5;" x1="263" x2="3036" y1="1556" y2="1556"/>
  <line id="Capline-L" style="fill:none;stroke:#27AAE1;opacity:1;stroke-width:0.5;" x1="263" x2="3036" y1="1485.54" y2="1485.54"/>
  <line id="left-margin-Regular-M" style="fill:none;stroke:#00AEEF;stroke-width:0.5;opacity:1.0;" x1="1381.16" x2="1381.16" y1="1030.79" y2="1150.12"/>
  <line id="right-margin-Regular-M" style="fill:none;stroke:#00AEEF;stroke-width:0.5;opacity:1.0;" x1="1518.53" x2="1518.53" y1="1030.79" y2="1150.12"/>
 </g>
 <g id="Symbols">
  <g id="Black-L" transform="matrix(1 0 0 1 2830.91 1556)">
   <path d="M102.486-85.503C109.396-85.503 114.622-91.5007 114.622-99.014C114.622-105.908 112.413-110.722 108.732-114.868C105.327-119.102 100.026-119.181 96.5623-115.343C93.0563-111.079 90.3313-106.323 90.3313-99.014C90.3313-91.5007 95.7749-85.503 102.486-85.503ZM95.5993-52.7921L109.347-52.7921L109.347-98.8737L95.5993-98.8737ZM53.2381-18.2944L71.4073-18.2944L71.4073-36.8819C71.4073-42.4265 73.5448-44.3859 78.8321-44.3859L126.201-44.3859C131.429-44.3859 133.567-42.4265 133.567-36.8819L133.567-18.2944L151.737-18.2944L151.737-37.6141C151.737-54.0584 143.082-62.6135 126.421-62.6135L78.5545-62.6135C61.9725-62.6135 53.2381-54.1168 53.2381-37.6141ZM29.1092 42.9472L47.338 42.9472L47.338-1.13745C47.338-6.68207 49.4547-8.64027 54.7032-8.64027L150.272-8.64027C155.52-8.64027 157.637-6.68207 157.637-1.13745L157.637 42.9472L175.866 42.9472L175.866-1.86963C175.866-18.3128 167.209-26.8691 150.549-26.8691L54.484-26.8691C37.8228-26.8691 29.1092-18.3712 29.1092-1.86963ZM102.716 13.2271C109.006 13.2271 113.988 21.4894 124.902 21.4894C135.383 21.4894 139.91 13.2271 145.666 13.2271C151.443 13.2271 156.108 21.4894 167.715 21.4894L169.974 21.4894L169.974 8.27079L167.715 8.27079C161.164 8.27079 155.922 0.00848086 145.666 0.00848086C135.352 0.00848086 131.532 8.27079 124.902 8.27079C116.555 8.27079 113.247 0.00848086 102.716 0.00848086C92.1867 0.00848086 88.7999 8.27079 80.4524 8.27079C73.8218 8.27079 70.0805 0.00848086 59.6873 0.00848086C49.4537 0.00848086 44.2112 8.27079 37.661 8.27079L34.8682 8.27079L34.8682 21.4894L37.661 21.4894C49.3249 21.4894 53.9312 13.2271 59.6873 13.2271C65.4654 13.2271 70.0508 21.4894 80.4524 21.4894C91.3866 21.4894 96.3681 13.2271 102.716 13.2271ZM25.1984 48.6215L179.775 48.6215C184.805 48.6215 188.89 44.5582 188.89 39.5071C188.89 34.478 184.805 30.3927 179.775 30.3927L25.1984 30.3927C20.1681 30.3927 16.084 34.478 16.084 39.5071C16.084 44.5582 20.1681 48.6215 25.1984 48.6215Z"/>
  </g>
  <g id="Heavy-L" transform="matrix(1 0 0 1 2537.58 1556)">
   <path d="M99.1088-84.7751C105.456-84.7751 110.284-90.2975 110.284-97.2626C110.284-103.778 108.222-108.283 104.688-112.28C101.612-116.09 96.9725-116.159 93.851-112.729C90.4514-108.608 87.9089-104.148 87.9089-97.2626C87.9089-90.2975 92.9367-84.7751 99.1088-84.7751ZM93.0441-52.9741L105.115-52.9741L105.115-96.497L93.0441-96.497ZM51.8629-19.3487L67.9744-19.3487L67.9744-37.2197C67.9744-42.8696 70.4185-45.1395 75.8194-45.1395L122.454-45.1395C127.805-45.1395 130.249-42.8696 130.249-37.2197L130.249-19.3487L146.366-19.3487L146.366-37.8884C146.366-53.3019 138.267-61.2956 122.66-61.2956L75.5693-61.2956C60.0365-61.2956 51.8629-53.3465 51.8629-37.8884ZM28.3842 40.295L44.5459 40.295L44.5459-2.42755C44.5459-8.07749 46.9598-10.3417 52.3407-10.3417L145.888-10.3417C151.269-10.3417 153.683-8.07749 153.683-2.42755L153.683 40.295L169.845 40.295L169.845-3.09629C169.845-18.5041 161.74-26.5035 146.138-26.5035L52.1352-26.5035C36.5275-26.5035 28.3842-18.5487 28.3842-3.09629ZM99.2705 11.4462C105.381 11.4462 110.197 19.429 120.705 19.429C130.824 19.429 135.222 11.4462 140.839 11.4462C146.485 11.4462 151.003 19.429 162.154 19.429L164.25 19.429L164.25 7.16647L162.154 7.16647C155.712 7.16647 150.724-0.816277 140.839-0.816277C130.908-0.816277 127.221 7.16647 120.705 7.16647C112.619 7.16647 109.395-0.816277 99.2705-0.816277C89.1517-0.816277 85.8525 7.16647 77.7669 7.16647C71.2453 7.16647 67.6325-0.816277 57.6275-0.816277C47.7778-0.816277 42.7896 7.16647 36.3484 7.16647L33.7581 7.16647L33.7581 19.429L36.3484 19.429C47.5381 19.429 52.0109 11.4462 57.6275 11.4462C63.28 11.4462 67.7226 19.429 77.7669 19.429C88.2991 19.429 93.1158 11.4462 99.2705 11.4462ZM24.1648 45.5952L174.058 45.5952C178.505 45.5952 182.139 41.9962 182.139 37.5143C182.139 33.0681 178.505 29.4334 174.058 29.4334L24.1648 29.4334C19.7131 29.4334 16.084 33.0681 16.084 37.5143C16.084 41.9962 19.7131 45.5952 24.1648 45.5952Z"/>
  </g>
  <g id="Bold-L" transform="matrix(1 0 0 1 2244.84 1556)">
   <path d="M95.1299-83.9208C100.808-83.9208 105.159-88.8739 105.159-95.1776C105.159-101.225 103.273-105.345 99.8946-109.195C97.2175-112.49 93.3931-112.544 90.6868-109.598C87.3955-105.631 85.076-101.54 85.076-95.1776C85.076-88.8739 89.6039-83.9208 95.1299-83.9208ZM90.0571-53.2045L100.098-53.2045L100.098-93.6509L90.0571-93.6509ZM50.2764-20.5655L63.7996-20.5655L63.7996-37.7689C63.7996-43.542 66.6054-46.1886 72.1522-46.1886L118.163-46.1886C123.668-46.1886 126.473-43.542 126.473-37.7689L126.473-20.5655L140.01-20.5655L140.01-38.3533C140.01-52.4315 132.595-59.741 118.353-59.741L71.9329-59.741C57.7583-59.741 50.2764-52.4607 50.2764-38.3533ZM27.5597 37.2075L41.1253 37.2075L41.1253-4.09287C41.1253-9.86599 43.8931-12.4994 49.4355-12.4994L140.851-12.4994C146.393-12.4994 149.161-9.86599 149.161-4.09287L149.161 37.2075L162.727 37.2075L162.727-4.67727C162.727-18.7423 155.299-26.065 141.07-26.065L49.2454-26.065C35.0036-26.065 27.5597-18.7715 27.5597-4.67727ZM95.207 9.21856C101.124 9.21856 105.748 16.8779 115.771 16.8779C125.467 16.8779 129.726 9.21856 135.211 9.21856C140.733 9.21856 145.089 16.8779 155.679 16.8779L157.546 16.8779L157.546 5.95522L155.679 5.95522C149.309 5.95522 144.65-1.70409 135.211-1.70409C125.742-1.70409 122.208 5.95522 115.771 5.95522C107.979 5.95522 104.839-1.70409 95.207-1.70409C85.5879-1.70409 82.3815 5.95522 74.5888 5.95522C68.1384 5.95522 64.672-1.70409 55.1361-1.70409C45.7478-1.70409 41.0895 5.95522 34.7195 5.95522L32.42 5.95522L32.42 16.8779L34.7195 16.8779C45.3251 16.8779 49.6513 9.21856 55.1361 9.21856C60.672 9.21856 64.9603 16.8779 74.5888 16.8779C84.6365 16.8779 89.2607 9.21856 95.207 9.21856ZM22.8668 41.9796L167.406 41.9796C171.123 41.9796 174.189 38.9644 174.189 35.1967C174.189 31.4803 171.123 28.4139 167.406 28.4139L22.8668 28.4139C19.1372 28.4139 16.084 31.4803 16.084 35.1967C16.084 38.9644 19.1372 41.9796 22.8668 41.9796Z"/>
  </g>
  <g id="Semibold-L" transform="matrix(1 0 0 1 1950.87 1556)">
   <path d="M92.3868-83.3318C97.6034-83.3318 101.626-87.8925 101.626-93.7403C101.626-99.4641 99.8621-103.319 96.5898-107.068C94.1883-110.008 90.9255-110.051 88.5055-107.439C85.2889-103.579 83.123-99.7426 83.123-93.7403C83.123-87.8925 87.3062-83.3318 92.3868-83.3318ZM87.998-53.3633L96.6398-53.3633L96.6398-91.6888L87.998-91.6888ZM49.1827-21.4044L60.9215-21.4044L60.9215-38.1475C60.9215-44.0055 63.9767-46.9118 69.624-46.9118L115.205-46.9118C120.815-46.9118 123.871-44.0055 123.871-38.1475L123.871-21.4044L135.628-21.4044L135.628-38.6737C135.628-51.8315 128.685-58.6693 115.385-58.6693L69.426-58.6693C56.1877-58.6693 49.1827-51.8501 49.1827-38.6737ZM26.9913 35.0791L38.7672 35.0791L38.7672-5.24094C38.7672-11.099 41.779-13.9868 47.4326-13.9868L137.378-13.9868C143.032-13.9868 146.043-11.099 146.043-5.24094L146.043 35.0791L157.819 35.0791L157.819-5.76719C157.819-18.9065 150.858-25.7628 137.576-25.7628L47.2532-25.7628C33.953-25.7628 26.9913-18.9251 26.9913-5.76719ZM92.4057 7.68282C98.1897 7.68282 102.681 15.1192 112.37 15.1192C121.774 15.1192 125.937 7.68282 131.331 7.68282C136.768 7.68282 141.012 15.1192 151.215 15.1192L152.924 15.1192L152.924 5.1202L151.215 5.1202C144.894 5.1202 140.463-2.31614 131.331-2.31614C122.18-2.31614 118.753 5.1202 112.37 5.1202C104.779 5.1202 101.699-2.31614 92.4057-2.31614C83.1311-2.31614 79.9886 5.1202 72.3979 5.1202C65.9965 5.1202 62.631-2.31614 53.4185-2.31614C44.3483-2.31614 39.9175 5.1202 33.5965 5.1202L31.4975 5.1202L31.4975 15.1192L33.5965 15.1192C43.7994 15.1192 48.0247 7.68282 53.4185 7.68282C58.8741 7.68282 63.056 15.1192 72.3979 15.1192C82.1115 15.1192 86.6031 7.68282 92.4057 7.68282ZM21.972 39.487L162.82 39.487C166.033 39.487 168.708 36.8742 168.708 33.599C168.708 30.3857 166.033 27.7111 162.82 27.7111L21.972 27.7111C18.7401 27.7111 16.084 30.3857 16.084 33.599C16.084 36.8742 18.7401 39.487 21.972 39.487Z"/>
  </g>
  <g id="Medium-L" transform="matrix(1 0 0 1 1656.24 1556)">
   <path d="M90.3069-82.8851C95.1736-82.8851 98.9466-87.1483 98.9466-92.6504C98.9466-98.1292 97.2755-101.784 94.084-105.455C91.8915-108.126 89.0545-108.161 86.8515-105.803C83.6915-102.024 81.6422-98.3795 81.6422-92.6504C81.6422-87.1483 85.5641-82.8851 90.3069-82.8851ZM86.4366-53.4837L94.0174-53.4837L94.0174-90.2011L86.4366-90.2011ZM48.3533-22.0405L58.7393-22.0405L58.7393-38.4345C58.7393-44.3569 61.9835-47.4602 67.707-47.4602L112.962-47.4602C118.653-47.4602 121.897-44.3569 121.897-38.4345L121.897-22.0405L132.305-22.0405L132.305-38.9167C132.305-51.3765 125.72-57.8567 113.134-57.8567L67.5252-57.8567C54.9969-57.8567 48.3533-51.387 48.3533-38.9167ZM26.5603 33.4652L36.9792 33.4652L36.9792-6.11145C36.9792-12.0339 40.176-15.1147 45.914-15.1147L134.745-15.1147C140.483-15.1147 143.679-12.0339 143.679-6.11145L143.679 33.4652L154.098 33.4652L154.098-6.59361C154.098-19.031 147.49-25.5336 134.927-25.5336L45.7427-25.5336C33.1564-25.5336 26.5603-19.0415 26.5603-6.59361ZM90.2816 6.51835C95.9647 6.51835 100.356 13.7856 109.791 13.7856C118.974 13.7856 123.064 6.51835 128.389 6.51835C133.761 6.51835 137.92 13.7856 147.83 13.7856L149.419 13.7856L149.419 4.48704L147.83 4.48704C141.546 4.48704 137.288-2.78023 128.389-2.78023C119.48-2.78023 116.133 4.48704 109.791 4.48704C102.353 4.48704 99.3174-2.78023 90.2816-2.78023C81.2682-2.78023 78.1742 4.48704 70.7366 4.48704C64.3724 4.48704 61.0835-2.78023 52.1161-2.78023C43.2872-2.78023 39.0289 4.48704 32.7451 4.48704L30.798 4.48704L30.798 13.7856L32.7451 13.7856C42.6427 13.7856 46.7913 6.51835 52.1161 6.51835C57.5109 6.51835 61.6121 13.7856 70.7366 13.7856C80.197 13.7856 84.5879 6.51835 90.2816 6.51835ZM21.2934 37.597L159.343 37.597C162.175 37.597 164.552 35.2894 164.552 32.3876C164.552 29.5557 162.175 27.1781 159.343 27.1781L21.2934 27.1781C18.4391 27.1781 16.084 29.5557 16.084 32.3876C16.084 35.2894 18.4391 37.597 21.2934 37.597Z"/>
  </g>
  <g id="Regular-L" transform="matrix(1 0 0 1 1362.24 1556)">
   <path d="M87.594-82.3026C92.0043-82.3026 95.4522-86.1777 95.4522-91.2288C95.4522-96.3881 93.9016-99.7806 90.8155-103.352C88.8956-105.671 86.614-105.696 84.6941-103.668C81.608-99.9942 79.7107-96.6017 79.7107-91.2288C79.7107-86.1777 83.2917-82.3026 87.594-82.3026ZM84.4001-53.6408L90.5968-53.6408L90.5968-88.2605L84.4001-88.2605ZM47.2716-22.8701L55.8928-22.8701L55.8928-38.809C55.8928-44.8154 59.3836-48.1755 65.2066-48.1755L110.037-48.1755C115.832-48.1755 119.323-44.8154 119.323-38.809L119.323-22.8701L127.972-22.8701L127.972-39.2336C127.972-50.7831 121.852-56.7967 110.197-56.7967L65.0458-56.7967C53.4435-56.7967 47.2716-50.7831 47.2716-39.2336ZM25.9982 31.3602L34.6471 31.3602L34.6471-7.2469C34.6471-13.2533 38.0851-16.5858 43.9332-16.5858L131.31-16.5858C137.158-16.5858 140.596-13.2533 140.596-7.2469L140.596 31.3602L149.245 31.3602L149.245-7.67155C149.245-19.1934 143.098-25.2347 131.471-25.2347L43.7724-25.2347C32.1174-25.2347 25.9982-19.1934 25.9982-7.67155ZM87.511 4.99949C93.0625 4.99949 97.3222 12.0462 106.427 12.0462C115.321 12.0462 119.317 4.99949 124.552 4.99949C129.84 4.99949 133.888 12.0462 143.415 12.0462L144.847 12.0462L144.847 3.66119L143.415 3.66119C137.18 3.66119 133.147-3.38556 124.552-3.38556C115.957-3.38556 112.715 3.66119 106.427 3.66119C99.1893 3.66119 96.2113-3.38556 87.511-3.38556C78.8384-3.38556 75.8075 3.66119 68.5697 3.66119C62.254 3.66119 59.0649-3.38556 50.4174-3.38556C41.9031-3.38556 37.8697 3.66119 31.6344 3.66119L29.8856 3.66119L29.8856 12.0462L31.6344 12.0462C41.1338 12.0462 45.1825 4.99949 50.4174 4.99949C55.7328 4.99949 59.7287 12.0462 68.5697 12.0462C77.6998 12.0462 81.9595 4.99949 87.511 4.99949ZM20.4084 35.1319L154.807 35.1319C157.142 35.1319 159.132 33.2222 159.132 30.8074C159.132 28.4731 157.142 26.483 154.807 26.483L20.4084 26.483C18.0464 26.483 16.084 28.4731 16.084 30.8074C16.084 33.2222 18.0464 35.1319 20.4084 35.1319Z"/>
  </g>
  <g id="Light-L" transform="matrix(1 0 0 1 1066.95 1556)">
   <path d="M86.1626-82.0163C90.2866-82.0163 93.5055-85.6242 93.5055-90.3318C93.5055-95.1666 92.0504-98.2919 88.8879-101.997C87.197-104.03 85.4498-104.017 83.759-102.199C80.5965-98.4865 78.8327-95.3611 78.8327-90.3318C78.8327-85.6242 82.1657-82.0163 86.1626-82.0163ZM83.484-53.8316L88.5737-53.8316L88.5737-86.9246L83.484-86.9246ZM46.9281-23.1373L53.5072-23.1373L53.5072-40.0304C53.5072-46.075 57.1316-49.6451 63.0882-49.6451L109.33-49.6451C115.24-49.6451 118.865-46.075 118.865-40.0304L118.865-23.1373L125.491-23.1373L125.491-40.3597C125.491-50.6113 119.81-56.2242 109.491-56.2242L62.9273-56.2242C52.642-56.2242 46.9281-50.6113 46.9281-40.3597ZM25.9028 30.5013L32.5286 30.5013L32.5286-8.83097C32.5286-14.8755 36.1193-18.3989 42.0628-18.3989L130.356-18.3989C136.299-18.3989 139.89-14.8755 139.89-8.83097L139.89 30.5013L146.516 30.5013L146.516-9.1602C146.516-19.3651 140.789-25.0247 130.517-25.0247L41.902-25.0247C31.583-25.0247 25.9028-19.3651 25.9028-9.1602ZM86.0223 3.31999C91.6311 3.31999 95.8336 10.2904 104.729 10.2904C113.489 10.2904 117.523 3.31999 122.93 3.31999C128.37 3.31999 132.438 10.2904 141.602 10.2904L142.691 10.2904L142.691 3.83296L141.602 3.83296C135.004 3.83296 131.295-3.13745 122.93-3.13745C114.564-3.13745 111.36 3.83296 104.729 3.83296C97.4907 3.83296 94.4554-3.13745 86.0223-3.13745C77.636-3.13745 74.567 3.83296 67.3292 3.83296C60.6509 3.83296 57.4808-3.13745 49.0814-3.13745C40.7961-3.13745 37.0872 3.83296 30.4893 3.83296L29.1985 3.83296L29.1985 10.2904L30.4893 10.2904C39.607 10.2904 43.6747 3.31999 49.0814 3.31999C54.5686 3.31999 58.6026 10.2904 67.3292 10.2904C76.2111 10.2904 80.4136 3.31999 86.0223 3.31999ZM19.3969 33.4905L152.975 33.4905C154.756 33.4905 156.288 32.0389 156.288 30.1776C156.288 28.3967 154.756 26.8647 152.975 26.8647L19.3969 26.8647C17.5693 26.8647 16.084 28.3967 16.084 30.1776C16.084 32.0389 17.5693 33.4905 19.3969 33.4905Z"/>
  </g>
  <g id="Thin-L" transform="matrix(1 0 0 1 772.117 1556)">
   <path d="M84.2694-81.6377C88.0149-81.6377 90.9308-84.8922 90.9308-89.1454C90.9308-93.5511 89.6019-96.3231 86.3384-100.205C84.9505-101.859 83.9101-101.796 82.5221-100.255C79.2586-96.4924 77.6716-93.7204 77.6716-89.1454C77.6716-84.8922 80.6764-81.6377 84.2694-81.6377ZM82.2724-54.084L85.8981-54.084L85.8981-85.1576L82.2724-85.1576ZM46.4737-23.4907L50.3519-23.4907L50.3519-41.6459C50.3519-47.7409 54.153-51.5887 60.2863-51.5887L108.397-51.5887C114.458-51.5887 118.259-47.7409 118.259-41.6459L118.259-23.4907L122.209-23.4907L122.209-41.8489C122.209-50.3842 117.109-55.4669 108.557-55.4669L60.1255-55.4669C51.5818-55.4669 46.4737-50.3842 46.4737-41.8489ZM25.7766 29.3654L29.7267 29.3654L29.7267-10.926C29.7267-17.0211 33.5194-20.7969 39.5891-20.7969L129.094-20.7969C135.163-20.7969 138.956-17.0211 138.956-10.926L138.956 29.3654L142.906 29.3654L142.906-11.1291C142.906-19.5923 137.735-24.7471 129.255-24.7471L39.4283-24.7471C30.8762-24.7471 25.7766-19.5923 25.7766-11.1291ZM84.0535 1.09871C89.738 1.09871 93.8647 7.96814 102.482 7.96814C111.066 7.96814 115.15 1.09871 120.784 1.09871C126.426 1.09871 130.519 7.96814 139.204 7.96814L139.838 7.96814L139.838 4.06013L139.204 4.06013C132.127 4.06013 128.847-2.8093 120.784-2.8093C112.721-2.8093 109.568 4.06013 102.482 4.06013C95.2442 4.06013 92.1332-2.8093 84.0535-2.8093C76.0458-2.8093 72.9263 4.06013 65.6885 4.06013C58.5306 4.06013 55.3857-2.8093 47.3145-2.8093C39.3321-2.8093 36.0523 4.06013 28.9748 4.06013L28.2898 4.06013L28.2898 7.96814L28.9748 7.96814C37.5876 7.96814 41.6806 1.09871 47.3145 1.09871C53.0288 1.09871 57.1134 7.96814 65.6885 7.96814C74.2422 7.96814 78.369 1.09871 84.0535 1.09871ZM18.0591 31.3197L150.552 31.3197C151.601 31.3197 152.527 30.4739 152.527 29.3446C152.527 28.2958 151.601 27.3695 150.552 27.3695L18.0591 27.3695C16.9382 27.3695 16.084 28.2958 16.084 29.3446C16.084 30.4739 16.9382 31.3197 18.0591 31.3197Z"/>
  </g>
  <g id="Ultralight-L" transform="matrix(1 0 0 1 476.369 1556)">
   <path d="M83.2998-81.4438C86.8513-81.4438 89.6121-84.5172 89.6121-88.5378C89.6121-92.7237 88.3478-95.3146 85.0326-99.2867C83.7998-100.747 83.1214-100.658 81.8886-99.2597C78.5734-95.471 77.0769-92.88 77.0769-88.5378C77.0769-84.5172 79.9136-81.4438 83.2998-81.4438ZM81.6518-54.2133L84.5276-54.2133L84.5276-84.2526L81.6518-84.2526ZM46.241-23.6717L48.7358-23.6717L48.7358-42.4733C48.7358-48.5942 52.6274-52.5842 58.8512-52.5842L107.918-52.5842C114.057-52.5842 117.949-48.5942 117.949-42.4733L117.949-23.6717L120.528-23.6717L120.528-42.6117C120.528-50.2678 115.726-55.0791 108.079-55.0791L58.6904-55.0791C51.0388-55.0791 46.241-50.2678 46.241-42.6117ZM25.7119 28.7836L28.2917 28.7836L28.2917-11.9991C28.2917-18.12 32.1878-22.0251 38.3221-22.0251L128.447-22.0251C134.582-22.0251 138.478-18.12 138.478-11.9991L138.478 28.7836L141.057 28.7836L141.057-12.1375C141.057-19.7087 136.17-24.6049 128.608-24.6049L38.1613-24.6049C30.5142-24.6049 25.7119-19.7087 25.7119-12.1375ZM83.045-0.0390238C88.7683-0.0390238 92.8563 6.7787 101.331 6.7787C109.824 6.7787 113.935-0.0390238 119.685-0.0390238C125.431-0.0390238 129.537 6.7787 137.976 6.7787L138.378 6.7787L138.378 4.17649L137.976 4.17649C130.653 4.17649 127.593-2.64123 119.685-2.64123C111.777-2.64123 108.65 4.17649 101.331 4.17649C94.0936 4.17649 90.9437-2.64123 83.045-2.64123C75.2313-2.64123 72.0859 4.17649 64.8481 4.17649C57.4445 4.17649 54.3127-2.64123 46.4095-2.64123C38.5823-2.64123 35.5222 4.17649 28.1991 4.17649L27.8244 4.17649L27.8244 6.7787L28.1991 6.7787C36.5533 6.7787 40.6592-0.0390238 46.4095-0.0390238C52.2402-0.0390238 56.3506 6.7787 64.8481 6.7787C73.2338 6.7787 77.3217-0.0390238 83.045-0.0390238ZM17.3739 30.2079L149.311 30.2079C149.985 30.2079 150.6 29.6723 150.6 28.918C150.6 28.2441 149.985 27.6281 149.311 27.6281L17.3739 27.6281C16.615 27.6281 16.084 28.2441 16.084 28.918C16.084 29.6723 16.615 30.2079 17.3739 30.2079Z"/>
  </g>
  <g id="Black-M" transform="matrix(1 0 0 1 2851.29 1126)">
   <path d="M82.1093-74.7653C87.9072-74.7653 92.2664-79.7843 92.2664-86.0297C92.2664-91.6519 90.4427-95.612 87.4534-98.969C84.5635-102.576 79.9613-102.639 77.0143-99.3445C74.1963-95.9133 71.9464-92.0104 71.9464-86.0297C71.9464-79.7843 76.4875-74.7653 82.1093-74.7653ZM76.1368-48.7054L88.0777-48.7054L88.0777-86.399L76.1368-86.399ZM42.3811-21.2393L57.9494-21.2393L57.9494-36.3848C57.9494-40.5952 59.36-41.8748 63.3767-41.8748L100.898-41.8748C104.858-41.8748 106.269-40.5952 106.269-36.3848L106.269-21.2393L121.837-21.2393L121.837-36.9937C121.837-50.4439 114.713-57.5001 101.08-57.5001L63.1379-57.5001C49.568-57.5001 42.3811-50.501 42.3811-36.9937ZM23.1624 27.5004L38.7874 27.5004L38.7874-7.92283C38.7874-12.1331 40.1925-13.4131 44.1579-13.4131L120.06-13.4131C124.025-13.4131 125.431-12.1331 125.431-7.92283L125.431 27.5004L141.056 27.5004L141.056-8.53166C141.056-21.9822 133.932-29.0381 120.299-29.0381L43.9762-29.0381C30.3437-29.0381 23.1624-22.0393 23.1624-8.53166ZM82.3385 3.61479C87.3737 3.61479 91.3671 10.2459 100.144 10.2459C108.557 10.2459 112.18 3.61479 116.783 3.61479C121.391 3.61479 125.134 10.2459 134.469 10.2459L136.312 10.2459L136.312-0.55564L134.469-0.55564C129.252-0.55564 125.015-7.18672 116.783-7.18672C108.493-7.18672 105.425-0.55564 100.144-0.55564C93.4521-0.55564 90.8103-7.18672 82.3385-7.18672C73.8664-7.18672 71.162-0.55564 64.4698-0.55564C59.1899-0.55564 56.1835-7.18672 47.8314-7.18672C39.6042-7.18672 35.3681-0.55564 30.1504-0.55564L27.8748-0.55564L27.8748 10.2459L30.1504 10.2459C39.5429 10.2459 43.2288 3.61479 47.8314 3.61479C52.4392 3.61479 56.1196 10.2459 64.4698 10.2459C73.2528 10.2459 77.2462 3.61479 82.3385 3.61479ZM20.2735 32.1119L143.945 32.1119C148.267 32.1119 151.757 28.6269 151.757 24.2994C151.757 19.9771 148.267 16.4869 143.945 16.4869L20.2735 16.4869C15.9515 16.4869 12.4609 19.9771 12.4609 24.2994C12.4609 28.6269 15.9515 32.1119 20.2735 32.1119Z"/>
  </g>
  <g id="Heavy-M" transform="matrix(1 0 0 1 2557.75 1126)">
   <path d="M78.9396-74.0801C84.2141-74.0801 88.2057-78.6591 88.2057-84.4003C88.2057-89.6827 86.5161-93.3644 83.6782-96.5642C81.0886-99.7826 77.0834-99.8403 74.4501-96.9243C71.7431-93.6362 69.6593-89.9982 69.6593-84.4003C69.6593-78.6591 73.8168-74.0801 78.9396-74.0801ZM73.7233-48.8657L84.128-48.8657L84.128-84.1988L73.7233-84.1988ZM41.0685-22.2453L54.8136-22.2453L54.8136-36.6024C54.8136-40.9121 56.5115-42.4759 60.627-42.4759L97.3003-42.4759C101.37-42.4759 103.068-40.9121 103.068-36.6024L103.068-22.2453L116.815-22.2453L116.815-37.158C116.815-49.7202 110.194-56.2646 97.4685-56.2646L60.4152-56.2646C47.7493-56.2646 41.0685-49.7638 41.0685-37.158ZM22.4624 24.9868L36.2533 24.9868L36.2533-9.03785C36.2533-13.3476 37.9349-14.9091 42.0209-14.9091L115.863-14.9091C119.949-14.9091 121.63-13.3476 121.63-9.03785L121.63 24.9868L135.421 24.9868L135.421-9.59348C135.421-22.1534 128.798-28.7001 116.075-28.7001L41.8527-28.7001C29.1268-28.7001 22.4624-22.197 22.4624-9.59348ZM79.1072 2.02883C83.9615 2.02883 87.7989 8.39367 96.1977 8.39367C104.269 8.39367 107.763 2.02883 112.213 2.02883C116.68 2.02883 120.277 8.39367 129.2 8.39367L130.916 8.39367L130.916-1.65103L129.2-1.65103C124.123-1.65103 120.105-8.01586 112.213-8.01586C104.278-8.01586 101.335-1.65103 96.1977-1.65103C89.7615-1.65103 87.2064-8.01586 79.1072-8.01586C71.0104-8.01586 68.3952-1.65103 61.959-1.65103C56.8191-1.65103 53.9366-8.01586 45.9411-8.01586C38.068-8.01586 34.0505-1.65103 28.973-1.65103L26.853-1.65103L26.853 8.39367L28.973 8.39367C37.937 8.39367 41.4907 2.02883 45.9411 2.02883C50.4103 2.02883 53.9476 8.39367 61.959 8.39367C70.3719 8.39367 74.2094 2.02883 79.1072 2.02883ZM19.3564 29.3049L138.525 29.3049C142.328 29.3049 145.42 26.2316 145.42 22.4094C145.42 18.606 142.328 15.5139 138.525 15.5139L19.3564 15.5139C15.5507 15.5139 12.4609 18.606 12.4609 22.4094C12.4609 26.2316 15.5507 29.3049 19.3564 29.3049Z"/>
  </g>
  <g id="Bold-M" transform="matrix(1 0 0 1 2264.58 1126)">
   <path d="M75.3938-73.3137C80.0828-73.3137 83.6632-77.4004 83.6632-82.5777C83.6632-87.4798 82.1236-90.8501 79.4552-93.874C77.2013-96.6576 73.8641-96.7096 71.5817-94.217C68.9989-91.089 67.1009-87.7472 67.1009-82.5777C67.1009-77.4004 70.8294-73.3137 75.3938-73.3137ZM71.0236-49.0451L79.7098-49.0451L79.7098-81.7376L71.0236-81.7376ZM39.6001-23.3706L51.3057-23.3706L51.3057-36.8457C51.3057-41.2667 53.3251-43.1483 57.5511-43.1483L93.2753-43.1483C97.4676-43.1483 99.4871-41.2667 99.4871-36.8457L99.4871-23.3706L111.198-23.3706L111.198-37.3418C111.198-48.9107 105.14-54.8825 93.4285-54.8825L57.3694-54.8825C45.7149-54.8825 39.6001-48.9392 39.6001-37.3418ZM21.6793 22.1751L33.4186 22.1751L33.4186-10.2852C33.4186-14.7061 35.4094-16.5827 39.6303-16.5827L111.168-16.5827C115.389-16.5827 117.379-14.7061 117.379-10.2852L117.379 22.1751L129.119 22.1751L129.119-10.7813C129.119-22.345 123.056-28.3219 111.349-28.3219L39.4772-28.3219C27.7655-28.3219 21.6793-22.3735 21.6793-10.7813ZM75.4926 0.254719C80.1444 0.254719 83.8075 6.32172 91.7829 6.32172C99.4726 6.32172 102.821 0.254719 107.101 0.254719C111.41 0.254719 114.845 6.32172 123.306 6.32172L124.88 6.32172L124.88-2.87639L123.306-2.87639C118.385-2.87639 114.612-8.94338 107.101-8.94338C99.5621-8.94338 96.7609-2.87639 91.7829-2.87639C85.6331-2.87639 83.1749-8.94338 75.4926-8.94338C67.8155-8.94338 65.3001-2.87639 59.1503-2.87639C54.1671-2.87639 51.4231-8.94338 43.8266-8.94338C36.3495-8.94338 32.5766-2.87639 27.6558-2.87639L25.71-2.87639L25.71 6.32172L27.6558 6.32172C36.1405 6.32172 39.5464 0.254719 43.8266 0.254719C48.1406 0.254719 51.5178 6.32172 59.1503 6.32172C67.1492 6.32172 70.8123 0.254719 75.4926 0.254719ZM18.3306 26.1648L132.462 26.1648C135.685 26.1648 138.332 23.552 138.332 20.2952C138.332 17.0721 135.685 14.4256 132.462 14.4256L18.3306 14.4256C15.1023 14.4256 12.4609 17.0721 12.4609 20.2952C12.4609 23.552 15.1023 26.1648 18.3306 26.1648Z"/>
  </g>
  <g id="Semibold-M" transform="matrix(1 0 0 1 1970.31 1126)">
   <path d="M72.9494-72.7853C77.2347-72.7853 80.5317-76.5327 80.5317-81.3212C80.5317-85.9611 79.0954-89.1168 76.5439-92.0194C74.5215-94.5032 71.6447-94.5513 69.6042-92.3506C67.1071-89.3329 65.3372-86.1954 65.3372-81.3212C65.3372-76.5327 68.7698-72.7853 72.9494-72.7853ZM69.1623-49.1687L76.6639-49.1687L76.6639-80.0408L69.1623-80.0408ZM38.5878-24.1464L48.8874-24.1464L48.8874-37.0135C48.8874-41.5112 51.1285-43.6119 55.4306-43.6119L90.5006-43.6119C94.7775-43.6119 97.0186-41.5112 97.0186-37.0135L97.0186-24.1464L107.325-24.1464L107.325-37.4686C107.325-48.3526 101.656-53.9296 90.6434-53.9296L55.2697-53.9296C44.3123-53.9296 38.5878-48.3707 38.5878-37.4686ZM21.1395 20.2366L31.4643 20.2366L31.4643-11.1451C31.4643-15.6427 33.6684-17.7364 37.9823-17.7364L107.931-17.7364C112.245-17.7364 114.449-15.6427 114.449-11.1451L114.449 20.2366L124.774 20.2366L124.774-11.6001C124.774-22.477 119.097-28.0612 108.092-28.0612L37.8395-28.0612C26.827-28.0612 21.1395-22.4952 21.1395-11.6001ZM73.0007-0.968345C77.5129-0.968345 81.0558 4.89333 88.7394 4.89333C96.1658 4.89333 99.4145-0.968345 103.577-0.968345C107.777-0.968345 111.099 4.89333 119.243 4.89333L120.719 4.89333L120.719-3.72114L119.243-3.72114C114.43-3.72114 110.826-9.58281 103.577-9.58281C96.3111-9.58281 93.6074-3.72114 88.7394-3.72114C82.787-3.72114 80.3956-9.58281 73.0007-9.58281C65.613-9.58281 63.1664-3.72114 57.214-3.72114C52.3388-3.72114 49.6903-9.58281 42.3688-9.58281C35.1648-9.58281 31.5605-3.72114 26.7477-3.72114L24.922-3.72114L24.922 4.89333L26.7477 4.89333C34.9021 4.89333 38.206-0.968345 42.3688-0.968345C46.5759-0.968345 49.8427 4.89333 57.214 4.89333C64.9275 4.89333 68.4703-0.968345 73.0007-0.968345ZM17.6234 24.0001L128.283 24.0001C131.106 24.0001 133.445 21.7048 133.445 18.8377C133.445 16.0147 131.106 13.6752 128.283 13.6752L17.6234 13.6752C14.7933 13.6752 12.4609 16.0147 12.4609 18.8377C12.4609 21.7048 14.7933 24.0001 17.6234 24.0001Z"/>
  </g>
  <g id="Medium-M" transform="matrix(1 0 0 1 1675.46 1126)">
   <path d="M71.096-72.3847C75.0752-72.3847 78.1572-75.8748 78.1572-80.3684C78.1572-84.8096 76.7994-87.8025 74.3364-90.6131C72.4895-92.8697 69.9619-92.9148 68.1048-90.9353C65.6726-88.0014 63.9998-85.0188 63.9998-80.3684C63.9998-75.8748 67.2082-72.3847 71.096-72.3847ZM67.7511-49.2624L74.3544-49.2624L74.3544-78.7543L67.7511-78.7543ZM37.8202-24.7346L47.0537-24.7346L47.0537-37.1407C47.0537-41.6965 49.4629-43.9634 53.8227-43.9634L88.3966-43.9634C92.7376-43.9634 95.1468-41.6965 95.1468-37.1407L95.1468-24.7346L104.389-24.7346L104.389-37.5647C104.389-47.9294 99.0139-53.2072 88.5315-53.2072L53.6776-53.2072C43.2489-53.2072 37.8202-47.9397 37.8202-37.5647ZM20.7302 18.7668L29.9825 18.7668L29.9825-11.7971C29.9825-16.3529 32.3482-18.6112 36.7327-18.6112L105.476-18.6112C109.861-18.6112 112.227-16.3529 112.227-11.7971L112.227 18.7668L121.479 18.7668L121.479-12.221C121.479-22.5772 116.095-27.8635 105.622-27.8635L36.5978-27.8635C26.1154-27.8635 20.7302-22.5874 20.7302-12.221ZM71.1113-1.89572C75.5177-1.89572 78.9694 3.81026 86.4316 3.81026C93.6585 3.81026 96.8314-1.89572 100.905-1.89572C105.023-1.89572 108.26 3.81026 116.162 3.81026L117.564 3.81026L117.564-4.36166L116.162-4.36166C111.431-4.36166 107.954-10.0676 100.905-10.0676C93.846-10.0676 91.2163-4.36166 86.4316-4.36166C80.6289-4.36166 78.2882-10.0676 71.1113-10.0676C63.9429-10.0676 61.5485-4.36166 55.7458-4.36166C50.9526-4.36166 48.3765-10.0676 41.2635-10.0676C34.2666-10.0676 30.7901-4.36166 26.0592-4.36166L24.3245-4.36166L24.3245 3.81026L26.0592 3.81026C33.963 3.81026 37.1896-1.89572 41.2635-1.89572C45.3894-1.89572 48.5726 3.81026 55.7458 3.81026C63.2429 3.81026 66.6946-1.89572 71.1113-1.89572ZM17.0871 22.3587L125.113 22.3587C127.633 22.3587 129.74 20.3041 129.74 17.7325C129.74 15.2129 127.633 13.1063 125.113 13.1063L17.0871 13.1063C14.5589 13.1063 12.4609 15.2129 12.4609 17.7325C12.4609 20.3041 14.5589 22.3587 17.0871 22.3587Z"/>
  </g>
  <g id="Regular-M" transform="matrix(1 0 0 1 1381.16 1126)">
   <path d="M68.6784-71.8621C72.2584-71.8621 75.0601-75.0166 75.0601-79.1257C75.0601-83.3076 73.8045-86.0882 71.457-88.7789C69.8391-90.739 67.7669-90.7802 66.149-89.0894C63.8015-86.2646 62.2555-83.484 62.2555-79.1257C62.2555-75.0166 65.1712-71.8621 68.6784-71.8621ZM65.9103-49.3847L71.3419-49.3847L71.3419-77.0762L65.9103-77.0762ZM36.8191-25.5019L44.662-25.5019L44.662-37.3066C44.662-41.9383 47.2903-44.4219 51.7255-44.4219L85.6524-44.4219C90.077-44.4219 92.7054-41.9383 92.7054-37.3066L92.7054-25.5019L100.559-25.5019L100.559-37.69C100.559-47.3774 95.5679-52.2648 85.777-52.2648L51.6009-52.2648C41.8617-52.2648 36.8191-47.3774 36.8191-37.69ZM20.1963 16.8497L28.0497 16.8497L28.0497-12.6475C28.0497-17.2792 30.6263-19.7523 35.1027-19.7523L102.275-19.7523C106.752-19.7523 109.328-17.2792 109.328-12.6475L109.328 16.8497L117.182 16.8497L117.182-13.0309C117.182-22.7078 112.18-27.6057 102.4-27.6057L34.9781-27.6057C25.1872-27.6057 20.1963-22.7078 20.1963-13.0309ZM68.6467-3.10535C72.9151-3.10535 76.2479 2.39757 83.4215 2.39757C90.3881 2.39757 93.4621-3.10535 97.42-3.10535C101.43-3.10535 104.555 2.39757 112.143 2.39757L113.448 2.39757L113.448-5.19713L112.143-5.19713C107.519-5.19713 104.209-10.7 97.42-10.7C90.6308-10.7 88.0974-5.19713 83.4215-5.19713C77.8141-5.19713 75.5395-10.7 68.6467-10.7C61.7646-10.7 59.4382-5.19713 53.8308-5.19713C49.1444-5.19713 46.6627-10.7 39.8218-10.7C33.0949-10.7 29.7852-5.19713 25.1611-5.19713L23.5452-5.19713L23.5452 2.39757L25.1611 2.39757C32.7381 2.39757 35.8639-3.10535 39.8218-3.10535C43.8419-3.10535 46.916 2.39757 53.8308 2.39757C61.0456 2.39757 64.3784-3.10535 68.6467-3.10535ZM16.3877 20.2177L120.98 20.2177C123.104 20.2177 124.906 18.4772 124.906 16.291C124.906 14.1671 123.104 12.3642 120.98 12.3642L16.3877 12.3642C14.2532 12.3642 12.4609 14.1671 12.4609 16.291C12.4609 18.4772 14.2532 20.2177 16.3877 20.2177Z"/>
  </g>
  <g id="Light-M" transform="matrix(1 0 0 1 1085.72 1126)">
   <path d="M67.3951-71.6055C70.7184-71.6055 73.3148-74.5204 73.3148-78.3215C73.3148-82.2125 72.1447-84.7536 69.7288-87.564C68.3162-89.2675 66.7232-89.2744 65.3106-87.7719C62.8947-84.9128 61.4684-82.3718 61.4684-78.3215C61.4684-74.5204 64.1617-71.6055 67.3951-71.6055ZM65.089-49.5558L69.5282-49.5558L69.5282-75.8784L65.089-75.8784ZM36.5111-25.7415L42.5231-25.7415L42.5231-38.4017C42.5231-43.0676 45.2712-45.7394 49.8262-45.7394L85.0193-45.7394C89.5466-45.7394 92.2947-43.0676 92.2947-38.4017L92.2947-25.7415L98.3344-25.7415L98.3344-38.6995C98.3344-47.2234 93.737-51.7515 85.1439-51.7515L49.7016-51.7515C41.1431-51.7515 36.5111-47.2234 36.5111-38.6995ZM20.1107 16.0797L26.1504 16.0797L26.1504-14.0677C26.1504-18.7336 28.8639-21.3778 33.4258-21.3778L101.42-21.3778C105.982-21.3778 108.695-18.7336 108.695-14.0677L108.695 16.0797L114.735 16.0797L114.735-14.3655C114.735-22.8618 110.11-27.4175 101.544-27.4175L33.3012-27.4175C24.7081-27.4175 20.1107-22.8618 20.1107-14.3655ZM67.3121-4.61111C71.6318-4.61111 74.9133 0.82336 81.8986 0.82336C88.7454 0.82336 91.8537-4.61111 95.9655-4.61111C100.112-4.61111 103.255 0.82336 110.517 0.82336L111.515 0.82336L111.515-5.04313L110.517-5.04313C105.568-5.04313 102.549-10.4776 95.9655-10.4776C89.3817-10.4776 86.8825-5.04313 81.8986-5.04313C76.2912-5.04313 73.9653-10.4776 67.3121-10.4776C60.6866-10.4776 58.326-5.04313 52.7186-5.04313C47.7071-5.04313 45.2425-10.4776 38.624-10.4776C32.1024-10.4776 29.0836-5.04313 24.1344-5.04313L22.9292-5.04313L22.9292 0.82336L24.1344 0.82336C31.3693 0.82336 34.5122-4.61111 38.624-4.61111C42.7982-4.61111 45.9064 0.82336 52.7186 0.82336C59.7109 0.82336 62.9924-4.61111 67.3121-4.61111ZM15.4808 18.7462L119.337 18.7462C120.965 18.7462 122.357 17.4163 122.357 15.7263C122.357 14.0986 120.965 12.7065 119.337 12.7065L15.4808 12.7065C13.8254 12.7065 12.4609 14.0986 12.4609 15.7263C12.4609 17.4163 13.8254 18.7462 15.4808 18.7462Z"/>
  </g>
  <g id="Thin-M" transform="matrix(1 0 0 1 790.699 1126)">
   <path d="M65.6978-71.266C68.6817-71.266 71.0065-73.8641 71.0065-77.2578C71.0065-80.7642 69.9496-82.9884 67.4431-85.9573C66.3021-87.3212 65.3427-87.2829 64.2017-86.0293C61.6952-83.125 60.4274-80.9008 60.4274-77.2578C60.4274-73.8641 62.8265-71.266 65.6978-71.266ZM64.0028-49.7821L67.1293-49.7821L67.1293-74.2943L64.0028-74.2943ZM36.1037-26.0583L39.6943-26.0583L39.6943-39.8501C39.6943-44.5612 42.6008-47.482 47.3142-47.482L84.1819-47.482C88.845-47.482 91.7516-44.5612 91.7516-39.8501L91.7516-26.0583L95.3924-26.0583L95.3924-40.0347C95.3924-47.0197 91.3156-51.0726 84.3066-51.0726L47.1896-51.0726C40.1926-51.0726 36.1037-47.0197 36.1037-40.0347ZM19.9976 15.0613L23.6384 15.0613L23.6384-15.9461C23.6384-20.6572 26.533-23.5277 31.208-23.5277L100.288-23.5277C104.963-23.5277 107.858-20.6572 107.858-15.9461L107.858 15.0613L111.499 15.0613L111.499-16.1307C111.499-23.0654 107.371-27.1686 100.413-27.1686L31.0834-27.1686C24.0744-27.1686 19.9976-23.0654 19.9976-16.1307ZM65.5469-6.6026C69.9345-6.6026 73.1481-1.25865 79.8845-1.25865C86.5729-1.25865 89.7264-6.6026 94.0419-6.6026C98.3695-6.6026 101.535-1.25865 108.368-1.25865L108.958-1.25865L108.958-4.83946L108.368-4.83946C102.988-4.83946 100.354-10.1834 94.0419-10.1834C87.7296-10.1834 85.2757-4.83946 79.8845-4.83946C74.2771-4.83946 71.8832-10.1834 65.5469-10.1834C59.2609-10.1834 56.855-4.83946 51.2476-4.83946C45.8061-4.83946 43.3642-10.1834 37.0399-10.1834C30.7899-10.1834 28.1558-4.83946 22.7766-4.83946L22.1145-4.83946L22.1145-1.25865L22.7766-1.25865C29.5588-1.25865 32.7243-6.6026 37.0399-6.6026C41.4177-6.6026 44.5712-1.25865 51.2476-1.25865C57.9457-1.25865 61.1593-6.6026 65.5469-6.6026ZM14.2814 16.7999L117.164 16.7999C118.136 16.7999 118.985 16.0132 118.985 14.9795C118.985 14.0081 118.136 13.1591 117.164 13.1591L14.2814 13.1591C13.2597 13.1591 12.4609 14.0081 12.4609 14.9795C12.4609 16.0132 13.2597 16.7999 14.2814 16.7999Z"/>
  </g>
  <g id="Ultralight-M" transform="matrix(1 0 0 1 494.852 1126)">
   <path d="M64.8284-71.0922C67.6385-71.0922 69.8242-73.5279 69.8242-76.713C69.8242-80.0223 68.8252-82.0843 66.2724-85.1343C65.2705-86.3244 64.6356-86.2629 63.6337-85.1368C61.0809-82.2093 59.8942-80.1474 59.8942-76.713C59.8942-73.5279 62.1426-71.0922 64.8284-71.0922ZM63.4464-49.898L65.9007-49.898L65.9007-73.4829L63.4464-73.4829ZM35.8951-26.2206L38.2454-26.2206L38.2454-40.5919C38.2454-45.3262 41.2331-48.3745 46.0276-48.3745L83.7531-48.3745C88.4857-48.3745 91.4734-45.3262 91.4734-40.5919L91.4734-26.2206L93.8856-26.2206L93.8856-40.7186C93.8856-46.9154 90.0753-50.7248 83.8777-50.7248L45.903-50.7248C39.7058-50.7248 35.8951-46.9154 35.8951-40.7186ZM19.9396 14.5397L22.3518 14.5397L22.3518-16.9081C22.3518-21.6425 25.339-24.6289 30.0721-24.6289L99.7085-24.6289C104.442-24.6289 107.429-21.6425 107.429-16.9081L107.429 14.5397L109.841 14.5397L109.841-17.0349C109.841-23.1697 105.969-27.0411 99.8332-27.0411L29.9475-27.0411C23.7499-27.0411 19.9396-23.1697 19.9396-17.0349ZM64.6428-7.62263C69.0652-7.62263 72.244-2.32505 78.8529-2.32505C85.4601-2.32505 88.6368-7.62263 93.0567-7.62263C97.4769-7.62263 100.654-2.32505 107.266-2.32505L107.648-2.32505L107.648-4.73514L107.266-4.73514C101.667-4.73514 99.2299-10.0327 93.0567-10.0327C86.8835-10.0327 84.4527-4.73514 78.8529-4.73514C73.2455-4.73514 70.8168-10.0327 64.6428-10.0327C58.5306-10.0327 56.1016-4.73514 50.4942-4.73514C44.8324-4.73514 42.4021-10.0327 36.2285-10.0327C30.1176-10.0327 27.6805-4.73514 22.0811-4.73514L21.6972-4.73514L21.6972-2.32505L22.0811-2.32505C28.6315-2.32505 31.8086-7.62263 36.2285-7.62263C40.7106-7.62263 43.8873-2.32505 50.4942-2.32505C57.0416-2.32505 60.2204-7.62263 64.6428-7.62263ZM13.667 15.8031L116.052 15.8031C116.687 15.8031 117.258 15.2945 117.258 14.597C117.258 13.9617 116.687 13.3909 116.052 13.3909L13.667 13.3909C12.9699 13.3909 12.4609 13.9617 12.4609 14.597C12.4609 15.2945 12.9699 15.8031 13.667 15.8031Z"/>
  </g>
  <g id="Black-S" transform="matrix(1 0 0 1 2868.17 696)">
   <path d="M65.2344-66.4062C69.9219-66.4062 73.4375-70.459 73.4375-75.4883C73.4375-79.9805 71.9727-83.1543 69.5801-85.8398C67.2363-88.7695 63.4766-88.8184 61.084-86.1328C58.8379-83.3984 57.0312-80.2734 57.0312-75.4883C57.0312-70.459 60.6934-66.4062 65.2344-66.4062ZM60.3516-45.752L70.1172-45.752L70.1172-75.9277L60.3516-75.9277ZM33.5938-23.9746L46.2402-23.9746L46.2402-36.1328C46.2402-39.4043 47.2656-40.332 50.3906-40.332L80.127-40.332C83.2031-40.332 84.2285-39.4043 84.2285-36.1328L84.2285-23.9746L96.875-23.9746L96.875-36.6211C96.875-47.3633 91.1621-53.0273 80.2734-53.0273L50.1953-53.0273C39.3555-53.0273 33.5938-47.4121 33.5938-36.6211ZM18.3594 14.6484L31.0547 14.6484L31.0547-13.5742C31.0547-16.8457 32.0801-17.7734 35.1562-17.7734L95.3125-17.7734C98.3887-17.7734 99.4141-16.8457 99.4141-13.5742L99.4141 14.6484L112.109 14.6484L112.109-14.0625C112.109-24.8047 106.396-30.4688 95.5078-30.4688L35.0098-30.4688C24.1211-30.4688 18.3594-24.8535 18.3594-14.0625ZM65.4297-4.39453C69.4336-4.39453 72.6074 0.878906 79.5898 0.878906C86.2793 0.878906 89.1602-4.39453 92.8223-4.39453C96.4844-4.39453 99.4629 0.878906 106.885 0.878906L108.35 0.878906L108.35-7.71484L106.885-7.71484C102.734-7.71484 99.3652-12.9883 92.8223-12.9883C86.2305-12.9883 83.7891-7.71484 79.5898-7.71484C74.2676-7.71484 72.168-12.9883 65.4297-12.9883C58.6914-12.9883 56.543-7.71484 51.2207-7.71484C47.0215-7.71484 44.6289-12.9883 37.9883-12.9883C31.4453-12.9883 28.0762-7.71484 23.9258-7.71484L22.1191-7.71484L22.1191 0.878906L23.9258 0.878906C31.3965 0.878906 34.3262-4.39453 37.9883-4.39453C41.6504-4.39453 44.5801 0.878906 51.2207 0.878906C58.2031 0.878906 61.377-4.39453 65.4297-4.39453ZM16.1133 18.3105L114.355 18.3105C117.871 18.3105 120.703 15.4785 120.703 11.9629C120.703 8.44727 117.871 5.61523 114.355 5.61523L16.1133 5.61523C12.5977 5.61523 9.76562 8.44727 9.76562 11.9629C9.76562 15.4785 12.5977 18.3105 16.1133 18.3105Z"/>
  </g>
  <g id="Heavy-S" transform="matrix(1 0 0 1 2574 696)">
   <path d="M62.6875-65.8531C66.9601-65.8531 70.1876-69.5601 70.1876-74.1975C70.1876-78.4362 68.8265-81.4026 66.5722-83.9383C64.4589-86.5684 61.1486-86.6172 58.9981-84.2313C56.8557-81.6237 55.1758-78.6946 55.1758-74.1975C55.1758-69.5601 58.5383-65.8531 62.6875-65.8531ZM58.3924-45.8672L66.971-45.8672L66.971-74.1991L58.3924-74.1991ZM32.5105-24.8044L43.8316-24.8044L43.8316-36.1789C43.8316-39.5311 45.0875-40.6778 48.2816-40.6778L77.1306-40.6778C80.2874-40.6778 81.5433-39.5311 81.5433-36.1789L81.5433-24.8044L92.8645-24.8044L92.8645-36.6326C92.8645-46.764 87.5319-52.0362 77.2656-52.0362L48.1094-52.0362C37.8919-52.0362 32.5105-46.8013 32.5105-36.6326ZM17.7716 12.5971L29.1301 12.5971L29.1301-14.3464C29.1301-17.6985 30.3745-18.8452 33.5428-18.8452L91.8321-18.8452C95.0005-18.8452 96.2448-17.6985 96.2448-14.3464L96.2448 12.5971L107.603 12.5971L107.603-14.8001C107.603-24.9315 102.271-30.2037 92.0044-30.2037L33.4079-30.2037C23.1415-30.2037 17.7716-24.9688 17.7716-14.8001ZM62.8367-5.5585C66.6792-5.5585 69.7263-0.50403 76.4091-0.50403C82.822-0.50403 85.5876-5.5585 89.0999-5.5585C92.6237-5.5585 95.4754-0.50403 102.586-0.50403L103.982-0.50403L103.982-8.67137L102.586-8.67137C98.5971-8.67137 95.3778-13.7258 89.0999-13.7258C82.7847-13.7258 80.447-8.67137 76.4091-8.67137C71.3058-8.67137 69.2869-13.7258 62.8367-13.7258C56.3865-13.7258 54.3187-8.67137 49.2154-8.67137C45.1776-8.67137 42.8887-13.7258 36.5247-13.7258C30.2583-13.7258 27.039-8.67137 23.0499-8.67137L21.324-8.67137L21.324-0.50403L23.0499-0.50403C30.1979-0.50403 33.0124-5.5585 36.5247-5.5585C40.0485-5.5585 42.8514-0.50403 49.2154-0.50403C55.9098-0.50403 58.9568-5.5585 62.8367-5.5585ZM15.4449 16.0978L109.93 16.0978C113.065 16.0978 115.609 13.5655 115.609 10.4186C115.609 7.28329 113.065 4.73938 109.93 4.73938L15.4449 4.73938C12.3095 4.73938 9.76562 7.28329 9.76562 10.4186C9.76562 13.5655 12.3095 16.0978 15.4449 16.0978Z"/>
  </g>
  <g id="Bold-S" transform="matrix(1 0 0 1 2280.14 696)">
   <path d="M59.8389-65.2344C63.6475-65.2344 66.5527-68.5547 66.5527-72.7539C66.5527-76.709 65.3076-79.4434 63.208-81.8115C61.3525-84.1064 58.5449-84.1553 56.665-82.1045C54.6387-79.6387 53.1006-76.9287 53.1006-72.7539C53.1006-68.5547 56.1279-65.2344 59.8389-65.2344ZM56.2012-45.9961L63.4521-45.9961L63.4521-72.2656L56.2012-72.2656ZM31.2988-25.7324L41.1377-25.7324L41.1377-36.2305C41.1377-39.6729 42.6514-41.0645 45.9229-41.0645L73.7793-41.0645C77.0264-41.0645 78.54-39.6729 78.54-36.2305L78.54-25.7324L88.3789-25.7324L88.3789-36.6455C88.3789-46.0938 83.4717-50.9277 73.9014-50.9277L45.7764-50.9277C36.2549-50.9277 31.2988-46.1182 31.2988-36.6455ZM17.1143 10.3027L26.9775 10.3027L26.9775-15.21C26.9775-18.6523 28.4668-20.0439 31.7383-20.0439L87.9395-20.0439C91.2109-20.0439 92.7002-18.6523 92.7002-15.21L92.7002 10.3027L102.563 10.3027L102.563-15.625C102.563-25.0732 97.6562-29.9072 88.0859-29.9072L31.6162-29.9072C22.0459-29.9072 17.1143-25.0977 17.1143-15.625ZM59.9365-6.86035C63.5986-6.86035 66.5039-2.05078 72.8516-2.05078C78.9551-2.05078 81.5918-6.86035 84.9365-6.86035C88.3057-6.86035 91.0156-2.05078 97.7783-2.05078L99.0967-2.05078L99.0967-9.74121L97.7783-9.74121C93.9697-9.74121 90.918-14.5508 84.9365-14.5508C78.9307-14.5508 76.709-9.74121 72.8516-9.74121C67.9932-9.74121 66.0645-14.5508 59.9365-14.5508C53.8086-14.5508 51.8311-9.74121 46.9727-9.74121C43.1152-9.74121 40.9424-14.5508 34.8877-14.5508C28.9307-14.5508 25.8789-9.74121 22.0703-9.74121L20.4346-9.74121L20.4346-2.05078L22.0703-2.05078C28.8574-2.05078 31.543-6.86035 34.8877-6.86035C38.2568-6.86035 40.918-2.05078 46.9727-2.05078C53.3447-2.05078 56.25-6.86035 59.9365-6.86035ZM14.6973 13.623L104.98 13.623C107.69 13.623 109.912 11.4258 109.912 8.69141C109.912 5.98145 107.69 3.75977 104.98 3.75977L14.6973 3.75977C11.9873 3.75977 9.76562 5.98145 9.76562 8.69141C9.76562 11.4258 11.9873 13.623 14.6973 13.623Z"/>
  </g>
  <g id="Semibold-S" transform="matrix(1 0 0 1 1985.39 696)">
   <path d="M57.8749-64.8078C61.3636-64.8078 64.0467-67.8615 64.0467-71.7586C64.0467-75.5182 62.8815-78.0926 60.8886-80.3452C59.2108-82.4091 56.7498-82.4579 55.0565-80.6382C53.1102-78.2701 51.6698-75.7112 51.6698-71.7586C51.6698-67.8615 54.4661-64.8078 57.8749-64.8078ZM54.6904-46.085L61.0261-46.085L61.0261-70.9326L54.6904-70.9326ZM30.4635-26.3723L39.2804-26.3723L39.2804-36.266C39.2804-39.7706 40.9718-41.3311 44.2966-41.3311L71.4688-41.3311C74.778-41.3311 76.4694-39.7706 76.4694-36.266L76.4694-26.3723L85.2863-26.3723L85.2863-36.6544C85.2863-45.6316 80.6724-50.1635 71.5819-50.1635L44.1679-50.1635C35.1263-50.1635 30.4635-45.6472 30.4635-36.6544ZM16.661 8.7209L25.4935 8.7209L25.4935-15.8054C25.4935-19.31 27.1516-20.8704 30.4941-20.8704L85.2557-20.8704C88.5982-20.8704 90.2563-19.31 90.2563-15.8054L90.2563 8.7209L99.0888 8.7209L99.0888-16.1938C99.0888-25.171 94.4748-29.7028 85.3844-29.7028L30.381-29.7028C21.2905-29.7028 16.661-25.1865 16.661-16.1938ZM57.937-7.75791C61.4747-7.75791 64.2822-3.11719 70.3988-3.11719C76.2891-3.11719 78.8369-7.75791 82.0661-7.75791C85.3286-7.75791 87.9408-3.11719 94.4636-3.11719L95.7286-3.11719L95.7286-10.4788L94.4636-10.4788C90.7794-10.4788 87.8432-15.1195 82.0661-15.1195C76.2735-15.1195 74.1318-10.4788 70.3988-10.4788C65.7093-10.4788 63.8428-15.1195 57.937-15.1195C52.0312-15.1195 50.1159-10.4788 45.4264-10.4788C41.6934-10.4788 39.6005-15.1195 33.7591-15.1195C28.0153-15.1195 25.0791-10.4788 21.3949-10.4788L19.8214-10.4788L19.8214-3.11719L21.3949-3.11719C27.9332-3.11719 30.5299-7.75791 33.7591-7.75791C37.0216-7.75791 39.585-3.11719 45.4264-3.11719C51.5763-3.11719 54.3838-7.75791 57.937-7.75791ZM14.1818 11.9168L101.568 11.9168C103.985 11.9168 105.984 9.95059 105.984 7.50059C105.984 5.08389 103.985 3.08438 101.568 3.08438L14.1818 3.08438C11.7651 3.08438 9.76562 5.08389 9.76562 7.50059C9.76562 9.95059 11.7651 11.9168 14.1818 11.9168Z"/>
  </g>
  <g id="Medium-S" transform="matrix(1 0 0 1 1690.17 696)">
   <path d="M56.3857-64.4844C59.6318-64.4844 62.1465-67.3359 62.1465-71.0039C62.1465-74.6152 61.042-77.0684 59.1299-79.2334C57.5869-81.1221 55.3887-81.1709 53.8369-79.5264C51.9512-77.2324 50.585-74.7881 50.585-71.0039C50.585-67.3359 53.2061-64.4844 56.3857-64.4844ZM53.5449-46.1523L59.1865-46.1523L59.1865-69.9219L53.5449-69.9219ZM29.8301-26.8574L37.8721-26.8574L37.8721-36.293C37.8721-39.8447 39.6982-41.5332 43.0635-41.5332L69.7168-41.5332C73.0732-41.5332 74.8994-39.8447 74.8994-36.293L74.8994-26.8574L82.9414-26.8574L82.9414-36.6611C82.9414-45.2812 78.5498-49.584 69.8232-49.584L42.9482-49.584C34.2705-49.584 29.8301-45.29 29.8301-36.6611ZM16.3174 7.52148L24.3682 7.52148L24.3682-16.2568C24.3682-19.8086 26.1543-21.4971 29.5508-21.4971L83.2207-21.4971C86.6172-21.4971 88.4033-19.8086 88.4033-16.2568L88.4033 7.52148L96.4541 7.52148L96.4541-16.625C96.4541-25.2451 92.0625-29.5479 83.3359-29.5479L29.4443-29.5479C20.7178-29.5479 16.3174-25.2539 16.3174-16.625ZM56.4209-8.43848C59.8643-8.43848 62.5977-3.92578 68.5391-3.92578C74.2676-3.92578 76.748-8.43848 79.8896-8.43848C83.0713-8.43848 85.6094-3.92578 91.9502-3.92578L93.1748-3.92578L93.1748-11.0381L91.9502-11.0381C88.3604-11.0381 85.5117-15.5508 79.8896-15.5508C74.2588-15.5508 72.1777-11.0381 68.5391-11.0381C63.9775-11.0381 62.1582-15.5508 56.4209-15.5508C50.6836-15.5508 48.8154-11.0381 44.2539-11.0381C40.6152-11.0381 38.583-15.5508 32.9033-15.5508C27.3213-15.5508 24.4727-11.0381 20.8828-11.0381L19.3564-11.0381L19.3564-3.92578L20.8828-3.92578C27.2324-3.92578 29.7617-8.43848 32.9033-8.43848C36.085-8.43848 38.5742-3.92578 44.2539-3.92578C50.2354-3.92578 52.9688-8.43848 56.4209-8.43848ZM13.791 10.623L98.9805 10.623C101.175 10.623 103.006 8.83203 103.006 6.59766C103.006 4.40332 101.175 2.57227 98.9805 2.57227L13.791 2.57227C11.5967 2.57227 9.76562 4.40332 9.76562 6.59766C9.76562 8.83203 11.5967 10.623 13.791 10.623Z"/>
  </g>
  <g id="Regular-S" transform="matrix(1 0 0 1 1395.4 696)">
   <path d="M54.4434-64.0625C57.373-64.0625 59.668-66.6504 59.668-70.0195C59.668-73.4375 58.6426-75.7324 56.8359-77.7832C55.4688-79.4434 53.6133-79.4922 52.2461-78.0762C50.4395-75.8789 49.1699-73.584 49.1699-70.0195C49.1699-66.6504 51.5625-64.0625 54.4434-64.0625ZM52.0508-46.2402L56.7871-46.2402L56.7871-68.6035L52.0508-68.6035ZM29.0039-27.4902L36.0352-27.4902L36.0352-36.3281C36.0352-39.9414 38.0371-41.7969 41.4551-41.7969L67.4316-41.7969C70.8496-41.7969 72.8516-39.9414 72.8516-36.3281L72.8516-27.4902L79.8828-27.4902L79.8828-36.6699C79.8828-44.8242 75.7812-48.8281 67.5293-48.8281L41.3574-48.8281C33.1543-48.8281 29.0039-44.8242 29.0039-36.6699ZM15.8691 5.95703L22.9004 5.95703L22.9004-16.8457C22.9004-20.459 24.8535-22.3145 28.3203-22.3145L80.5664-22.3145C84.0332-22.3145 85.9863-20.459 85.9863-16.8457L85.9863 5.95703L93.0176 5.95703L93.0176-17.1875C93.0176-25.3418 88.916-29.3457 80.6641-29.3457L28.2227-29.3457C19.9707-29.3457 15.8691-25.3418 15.8691-17.1875ZM54.4434-9.32617C57.7637-9.32617 60.4004-4.98047 66.1133-4.98047C71.6309-4.98047 74.0234-9.32617 77.0508-9.32617C80.127-9.32617 82.5684-4.98047 88.6719-4.98047L89.8438-4.98047L89.8438-11.7676L88.6719-11.7676C85.2051-11.7676 82.4707-16.1133 77.0508-16.1133C71.6309-16.1133 69.6289-11.7676 66.1133-11.7676C61.7188-11.7676 59.9609-16.1133 54.4434-16.1133C48.9258-16.1133 47.1191-11.7676 42.7246-11.7676C39.209-11.7676 37.2559-16.1133 31.7871-16.1133C26.416-16.1133 23.6816-11.7676 20.2148-11.7676L18.75-11.7676L18.75-4.98047L20.2148-4.98047C26.3184-4.98047 28.7598-9.32617 31.7871-9.32617C34.8633-9.32617 37.2559-4.98047 42.7246-4.98047C48.4863-4.98047 51.123-9.32617 54.4434-9.32617ZM13.2812 8.93555L95.6055 8.93555C97.5098 8.93555 99.1211 7.37305 99.1211 5.41992C99.1211 3.51562 97.5098 1.9043 95.6055 1.9043L13.2812 1.9043C11.377 1.9043 9.76562 3.51562 9.76562 5.41992C9.76562 7.37305 11.377 8.93555 13.2812 8.93555Z"/>
  </g>
  <g id="Light-S" transform="matrix(1 0 0 1 1099.82 696)">
   <path d="M53.3081-63.8355C56.0108-63.8355 58.124-66.2114 58.124-69.3081C58.124-72.4688 57.1743-74.5518 55.3071-76.7085C54.1216-78.1416 52.6899-78.1602 51.5044-76.9107C49.6372-74.6831 48.4736-72.6001 48.4736-69.3081C48.4736-66.2114 50.6694-63.8355 53.3081-63.8355ZM51.3242-46.3916L55.1826-46.3916L55.1826-67.544L51.3242-67.544ZM28.7314-27.7021L34.1431-27.7021L34.1431-37.2969C34.1431-40.9404 36.251-42.9624 39.7749-42.9624L66.8716-42.9624C70.3804-42.9624 72.4883-40.9404 72.4883-37.2969L72.4883-27.7021L77.9151-27.7021L77.9151-37.563C77.9151-44.688 74.1616-48.374 66.9692-48.374L39.6773-48.374C32.5186-48.374 28.7314-44.688 28.7314-37.563ZM15.7935 5.27588L21.2202 5.27588L21.2202-18.102C21.2202-21.7456 23.2944-23.7524 26.8369-23.7524L79.8096-23.7524C83.3521-23.7524 85.4263-21.7456 85.4263-18.102L85.4263 5.27588L90.853 5.27588L90.853-18.3682C90.853-25.478 87.0845-29.1792 79.9072-29.1792L26.7393-29.1792C19.5469-29.1792 15.7935-25.478 15.7935-18.3682ZM53.2627-10.6582C56.6284-10.6582 59.2197-6.37304 64.7661-6.37304C70.1777-6.37304 72.6006-10.6582 75.7642-10.6582C78.9614-10.6582 81.418-6.37304 87.2339-6.37304L88.1333-6.37304L88.1333-11.6313L87.2339-11.6313C83.4795-11.6313 81.0025-15.9165 75.7642-15.9165C70.5259-15.9165 68.5542-11.6313 64.7661-11.6313C60.3716-11.6313 58.5684-15.9165 53.2627-15.9165C47.9722-15.9165 46.1353-11.6313 41.7407-11.6313C37.9375-11.6313 35.9995-15.9165 30.7275-15.9165C25.5381-15.9165 23.061-11.6313 19.3066-11.6313L18.2051-11.6313L18.2051-6.37304L19.3066-6.37304C25.1074-6.37304 27.564-10.6582 30.7275-10.6582C33.9399-10.6582 36.3628-6.37304 41.7407-6.37304C47.3057-6.37304 49.897-10.6582 53.2627-10.6582ZM12.479 7.6338L94.1524 7.6338C95.6177 7.6338 96.8657 6.43458 96.8657 4.92041C96.8657 3.45508 95.6177 2.20703 94.1524 2.20703L12.479 2.20703C10.9985 2.20703 9.76562 3.45508 9.76562 4.92041C9.76562 6.43458 10.9985 7.6338 12.479 7.6338Z"/>
  </g>
  <g id="Thin-S" transform="matrix(1 0 0 1 804.598 696)">
   <path d="M51.8067-63.5352C54.209-63.5352 56.0821-65.6309 56.0821-68.3672C56.0821-71.1875 55.2324-72.9903 53.2852-75.2871C52.3399-76.4199 51.4688-76.3985 50.5235-75.3692C48.5762-73.1016 47.5527-71.2988 47.5527-68.3672C47.5527-65.6309 49.4883-63.5352 51.8067-63.5352ZM50.3633-46.5918L53.0606-46.5918L53.0606-66.1426L50.3633-66.1426ZM28.3711-27.9824L31.6407-27.9824L31.6407-38.5781C31.6407-42.2617 33.8887-44.5039 37.5528-44.5039L66.1309-44.5039C69.7598-44.5039 72.0078-42.2617 72.0078-38.5781L72.0078-27.9824L75.3125-27.9824L75.3125-38.7441C75.3125-44.5078 72.0196-47.7734 66.2285-47.7734L37.4551-47.7734C31.6777-47.7734 28.3711-44.5078 28.3711-38.7441ZM15.6934 4.37501L18.9981 4.37501L18.9981-19.7636C18.9981-23.4472 21.2325-25.6543 24.875-25.6543L78.8086-25.6543C82.4512-25.6543 84.6856-23.4472 84.6856-19.7636L84.6856 4.37501L87.9903 4.37501L87.9903-19.9297C87.9903-25.6582 84.6621-28.959 78.9063-28.959L24.7774-28.959C18.9863-28.959 15.6934-25.6582 15.6934-19.9297ZM51.7012-12.4199C55.127-12.4199 57.6582-8.21482 62.9844-8.21482C68.2559-8.21482 70.7188-12.4199 74.0625-12.4199C77.4199-12.4199 79.8965-8.21482 85.3321-8.21482L85.8711-8.21482L85.8711-11.4512L85.3321-11.4512C81.1973-11.4512 79.0606-15.6563 74.0625-15.6563C69.0645-15.6563 67.1328-11.4512 62.9844-11.4512C58.5899-11.4512 56.7266-15.6563 51.7012-15.6563C46.711-15.6563 44.834-11.4512 40.4395-11.4512C36.2559-11.4512 34.3379-15.6563 29.3262-15.6563C24.377-15.6563 22.2402-11.4512 18.1055-11.4512L17.4844-11.4512L17.4844-8.21482L18.1055-8.21482C23.5059-8.21482 25.9824-12.4199 29.3262-12.4199C32.7188-12.4199 35.1817-8.21482 40.4395-8.21482C45.7442-8.21482 48.2754-12.4199 51.7012-12.4199ZM11.418 5.91213L92.2305 5.91213C93.1153 5.91213 93.8829 5.19338 93.8829 4.25977C93.8829 3.375 93.1153 2.60742 92.2305 2.60742L11.418 2.60742C10.4981 2.60742 9.76562 3.375 9.76562 4.25977C9.76562 5.19338 10.4981 5.91213 11.418 5.91213Z"/>
  </g>
  <g id="Ultralight-S" transform="matrix(1 0 0 1 508.651 696)">
   <path d="M51.0376-63.3814C53.2862-63.3814 55.0362-65.3335 55.0362-67.8853C55.0362-70.5313 54.2378-72.1905 52.2495-74.5591C51.4273-75.5381 50.8433-75.4961 50.021-74.5796C48.0327-72.2915 47.0811-70.6323 47.0811-67.8853C47.0811-65.3335 48.8833-63.3814 51.0376-63.3814ZM49.8711-46.6943L51.9737-46.6943L51.9737-65.4248L49.8711-65.4248ZM28.1865-28.126L30.3589-28.126L30.3589-39.2344C30.3589-42.9385 32.6788-45.2934 36.4146-45.2934L65.7515-45.2934C69.4419-45.2934 71.7617-42.9385 71.7617-39.2344L71.7617-28.126L73.9795-28.126L73.9795-39.3491C73.9795-44.4155 70.9224-47.4658 65.8491-47.4658L36.3169-47.4658C31.2471-47.4658 28.1865-44.4155 28.1865-39.3491ZM15.6421 3.91359L17.8599 3.91359L17.8599-20.6147C17.8599-24.3188 20.1763-26.6284 23.8702-26.6284L78.2959-26.6284C81.9898-26.6284 84.3062-24.3188 84.3062-20.6147L84.3062 3.91359L86.524 3.91359L86.524-20.7295C86.524-25.7505 83.4214-28.8462 78.3936-28.8462L23.7725-28.8462C18.6992-28.8462 15.6421-25.7505 15.6421-20.7295ZM50.9014-13.3222C54.3579-13.3222 56.8584-9.15817 62.0718-9.15817C67.2715-9.15817 69.7549-13.3222 73.1909-13.3222C76.6304-13.3222 79.1172-9.15817 84.3579-9.15817L84.7124-9.15817L84.7124-11.3589L84.3579-11.3589C80.0284-11.3589 78.066-15.523 73.1909-15.523C68.3159-15.523 66.4048-11.3589 62.0718-11.3589C57.6773-11.3589 55.7832-15.523 50.9014-15.523C46.065-15.523 44.1675-11.3589 39.773-11.3589C35.3946-11.3589 33.4868-15.523 28.6084-15.523C23.7822-15.523 21.8198-11.3589 17.4903-11.3589L17.1152-11.3589L17.1152-9.15817L17.4903-9.15817C22.6856-9.15817 25.1724-13.3222 28.6084-13.3222C32.0933-13.3222 34.5767-9.15817 39.773-9.15817C44.9444-9.15817 47.4449-13.3222 50.9014-13.3222ZM10.8745 5.0303L91.2461 5.0303C91.8335 5.0303 92.355 4.55764 92.355 3.9214C92.355 3.33399 91.8335 2.81249 91.2461 2.81249L10.8745 2.81249C10.2417 2.81249 9.76562 3.33399 9.76562 3.9214C9.76562 4.55764 10.2417 5.0303 10.8745 5.0303Z"/>
  </g>
 </g>
</svg>
