<?xml version="1.0" encoding="UTF-8"?>
<!--Generator: Apple Native CoreSVG 175.5-->
<!DOCTYPE svg
PUBLIC "-//W3C//DTD SVG 1.1//EN"
       "http://www.w3.org/Graphics/SVG/1.1/DTD/svg11.dtd">
<svg version="1.1" xmlns="http://www.w3.org/2000/svg" xmlns:xlink="http://www.w3.org/1999/xlink" width="3300" height="2200">
 <!--glyph: "uni10155C.medium", point size: 100.0, font version: "18.0d12e2", template writer version: "101"-->
 <style>.monochrome-0 {fill:#000000}

.SFSymbolsPreview000000 {fill:#000000;opacity:1.0}
</style>
 <g id="Notes">
  <rect height="2200" id="artboard" style="fill:white;opacity:1" width="3300" x="0" y="0"/>
  <line style="fill:none;stroke:black;opacity:1;stroke-width:0.5;" x1="263" x2="3036" y1="292" y2="292"/>
  <text style="stroke:none;fill:black;font-family:sans-serif;font-size:13;font-weight:bold;" transform="matrix(1 0 0 1 263 322)">Weight/Scale Variations</text>
  <text style="stroke:none;fill:black;font-family:sans-serif;font-size:13;text-anchor:middle;" transform="matrix(1 0 0 1 559.711 322)">Ultralight</text>
  <text style="stroke:none;fill:black;font-family:sans-serif;font-size:13;text-anchor:middle;" transform="matrix(1 0 0 1 856.422 322)">Thin</text>
  <text style="stroke:none;fill:black;font-family:sans-serif;font-size:13;text-anchor:middle;" transform="matrix(1 0 0 1 1153.13 322)">Light</text>
  <text style="stroke:none;fill:black;font-family:sans-serif;font-size:13;text-anchor:middle;" transform="matrix(1 0 0 1 1449.84 322)">Regular</text>
  <text style="stroke:none;fill:black;font-family:sans-serif;font-size:13;text-anchor:middle;" transform="matrix(1 0 0 1 1746.56 322)">Medium</text>
  <text style="stroke:none;fill:black;font-family:sans-serif;font-size:13;text-anchor:middle;" transform="matrix(1 0 0 1 2043.27 322)">Semibold</text>
  <text style="stroke:none;fill:black;font-family:sans-serif;font-size:13;text-anchor:middle;" transform="matrix(1 0 0 1 2339.98 322)">Bold</text>
  <text style="stroke:none;fill:black;font-family:sans-serif;font-size:13;text-anchor:middle;" transform="matrix(1 0 0 1 2636.69 322)">Heavy</text>
  <text style="stroke:none;fill:black;font-family:sans-serif;font-size:13;text-anchor:middle;" transform="matrix(1 0 0 1 2933.4 322)">Black</text>
  <line style="fill:none;stroke:black;opacity:1;stroke-width:0.5;" x1="263" x2="3036" y1="1903" y2="1903"/>
  <g transform="matrix(1 0 0 1 263 1933)">
   <path d="M9.24805 0.830078C13.5547 0.830078 17.1387-2.74414 17.1387-7.05078C17.1387-11.3574 13.5449-14.9316 9.23828-14.9316C4.94141-14.9316 1.36719-11.3574 1.36719-7.05078C1.36719-2.74414 4.95117 0.830078 9.24805 0.830078ZM9.24805-0.654297C5.70312-0.654297 2.87109-3.49609 2.87109-7.05078C2.87109-10.6055 5.69336-13.4473 9.23828-13.4473C12.793-13.4473 15.6445-10.6055 15.6445-7.05078C15.6445-3.49609 12.8027-0.654297 9.24805-0.654297ZM5.6543-7.05078C5.6543-6.62109 5.95703-6.32812 6.40625-6.32812L8.50586-6.32812L8.50586-4.20898C8.50586-3.76953 8.79883-3.4668 9.22852-3.4668C9.67773-3.4668 9.9707-3.76953 9.9707-4.20898L9.9707-6.32812L12.0898-6.32812C12.5293-6.32812 12.832-6.62109 12.832-7.05078C12.832-7.49023 12.5293-7.79297 12.0898-7.79297L9.9707-7.79297L9.9707-9.90234C9.9707-10.3516 9.67773-10.6543 9.22852-10.6543C8.79883-10.6543 8.50586-10.3516 8.50586-9.90234L8.50586-7.79297L6.40625-7.79297C5.95703-7.79297 5.6543-7.49023 5.6543-7.05078Z"/>
  </g>
  <g transform="matrix(1 0 0 1 281.867 1933)">
   <path d="M11.709 2.91016C17.1582 2.91016 21.6699-1.61133 21.6699-7.05078C21.6699-12.5 17.1484-17.0117 11.6992-17.0117C6.25977-17.0117 1.74805-12.5 1.74805-7.05078C1.74805-1.61133 6.26953 2.91016 11.709 2.91016ZM11.709 1.25C7.09961 1.25 3.41797-2.44141 3.41797-7.05078C3.41797-11.6602 7.08984-15.3516 11.6992-15.3516C16.3086-15.3516 20.0098-11.6602 20.0098-7.05078C20.0098-2.44141 16.3184 1.25 11.709 1.25ZM7.17773-7.05078C7.17773-6.57227 7.50977-6.25 8.00781-6.25L10.8789-6.25L10.8789-3.36914C10.8789-2.88086 11.2109-2.53906 11.6895-2.53906C12.1777-2.53906 12.5195-2.87109 12.5195-3.36914L12.5195-6.25L15.4004-6.25C15.8887-6.25 16.2305-6.57227 16.2305-7.05078C16.2305-7.53906 15.8887-7.88086 15.4004-7.88086L12.5195-7.88086L12.5195-10.752C12.5195-11.25 12.1777-11.5918 11.6895-11.5918C11.2109-11.5918 10.8789-11.25 10.8789-10.752L10.8789-7.88086L8.00781-7.88086C7.50977-7.88086 7.17773-7.53906 7.17773-7.05078Z"/>
  </g>
  <g transform="matrix(1 0 0 1 305.646 1933)">
   <path d="M14.9707 5.66406C21.9336 5.66406 27.6953-0.0976562 27.6953-7.05078C27.6953-14.0137 21.9238-19.7754 14.9609-19.7754C8.00781-19.7754 2.25586-14.0137 2.25586-7.05078C2.25586-0.0976562 8.01758 5.66406 14.9707 5.66406ZM14.9707 3.84766C8.93555 3.84766 4.08203-1.01562 4.08203-7.05078C4.08203-13.0957 8.92578-17.9492 14.9609-17.9492C21.0059-17.9492 25.8691-13.0957 25.8691-7.05078C25.8691-1.01562 21.0156 3.84766 14.9707 3.84766ZM9.19922-7.05078C9.19922-6.5332 9.57031-6.17188 10.1172-6.17188L14.0625-6.17188L14.0625-2.2168C14.0625-1.67969 14.4336-1.29883 14.9512-1.29883C15.4883-1.29883 15.8594-1.66992 15.8594-2.2168L15.8594-6.17188L19.8145-6.17188C20.3516-6.17188 20.7324-6.5332 20.7324-7.05078C20.7324-7.59766 20.3613-7.96875 19.8145-7.96875L15.8594-7.96875L15.8594-11.9141C15.8594-12.4609 15.4883-12.8418 14.9512-12.8418C14.4336-12.8418 14.0625-12.4609 14.0625-11.9141L14.0625-7.96875L10.1172-7.96875C9.57031-7.96875 9.19922-7.59766 9.19922-7.05078Z"/>
  </g>
  <text style="stroke:none;fill:black;font-family:sans-serif;font-size:13;font-weight:bold;" transform="matrix(1 0 0 1 263 1953)">Design Variations</text>
  <text style="stroke:none;fill:black;font-family:sans-serif;font-size:13;" transform="matrix(1 0 0 1 263 1971)">Symbols are supported in up to nine weights and three scales.</text>
  <text style="stroke:none;fill:black;font-family:sans-serif;font-size:13;" transform="matrix(1 0 0 1 263 1989)">For optimal layout with text and other symbols, vertically align</text>
  <text style="stroke:none;fill:black;font-family:sans-serif;font-size:13;" transform="matrix(1 0 0 1 263 2007)">symbols with the adjacent text.</text>
  <line style="fill:none;stroke:#00AEEF;stroke-width:0.5;opacity:1.0;" x1="776" x2="776" y1="1919" y2="1933"/>
  <g transform="matrix(1 0 0 1 776 1933)">
   <path d="M3.31055 0.15625C3.82812 0.15625 4.08203-0.0390625 4.26758-0.585938L5.52734-4.0332L11.2891-4.0332L12.5488-0.585938C12.7344-0.0390625 12.9883 0.15625 13.4961 0.15625C14.0137 0.15625 14.3457-0.15625 14.3457-0.644531C14.3457-0.810547 14.3164-0.966797 14.2383-1.17188L9.6582-13.3691C9.43359-13.9648 9.0332-14.2676 8.4082-14.2676C7.80273-14.2676 7.39258-13.9746 7.17773-13.3789L2.59766-1.16211C2.51953-0.957031 2.49023-0.800781 2.49023-0.634766C2.49023-0.146484 2.80273 0.15625 3.31055 0.15625ZM6.00586-5.51758L8.37891-12.0898L8.42773-12.0898L10.8008-5.51758Z"/>
  </g>
  <line style="fill:none;stroke:#00AEEF;stroke-width:0.5;opacity:1.0;" x1="793.197" x2="793.197" y1="1919" y2="1933"/>
  <text style="stroke:none;fill:black;font-family:sans-serif;font-size:13;font-weight:bold;" transform="matrix(1 0 0 1 776 1953)">Margins</text>
  <text style="stroke:none;fill:black;font-family:sans-serif;font-size:13;" transform="matrix(1 0 0 1 776 1971)">Leading and trailing margins on the left and right side of each symbol</text>
  <text style="stroke:none;fill:black;font-family:sans-serif;font-size:13;" transform="matrix(1 0 0 1 776 1989)">can be adjusted by modifying the x-location of the margin guidelines.</text>
  <text style="stroke:none;fill:black;font-family:sans-serif;font-size:13;" transform="matrix(1 0 0 1 776 2007)">Modifications are automatically applied proportionally to all</text>
  <text style="stroke:none;fill:black;font-family:sans-serif;font-size:13;" transform="matrix(1 0 0 1 776 2025)">scales and weights.</text>
  <g transform="matrix(1 0 0 1 1289 1933)">
   <path d="M2.8418 1.86523L4.54102 3.57422C5.40039 4.44336 6.38672 4.38477 7.31445 3.35938L18.0078-8.42773L17.041-9.4043L6.42578 2.27539C6.07422 2.67578 5.74219 2.77344 5.27344 2.30469L4.10156 1.14258C3.63281 0.683594 3.74023 0.341797 4.14062-0.0195312L15.6152-10.8203L14.6387-11.7871L3.04688-0.898438C2.06055 0.0195312 1.98242 0.996094 2.8418 1.86523ZM9.25781-16.3281C8.83789-15.918 8.80859-15.3418 9.04297-14.9512C9.27734-14.5898 9.73633-14.3555 10.3809-14.5215C11.8457-14.8633 13.3691-14.9219 14.7949-13.9844L14.209-12.5293C13.8672-11.6992 14.043-11.1133 14.5801-10.5664L16.875-8.25195C17.3633-7.76367 17.7734-7.74414 18.3398-7.8418L19.4043-8.03711L20.0684-7.36328L20.0293-6.80664C19.9902-6.30859 20.1172-5.92773 20.6055-5.44922L21.3672-4.70703C21.8457-4.22852 22.4609-4.19922 22.9297-4.66797L25.8398-7.58789C26.3086-8.05664 26.2891-8.65234 25.8105-9.13086L25.0391-9.89258C24.5605-10.3711 24.1895-10.5273 23.7109-10.4883L23.1348-10.4395L22.4902-11.0742L22.7344-12.1973C22.8613-12.7637 22.7051-13.2031 22.1191-13.7891L19.9219-15.9766C16.582-19.2969 12.1484-19.2188 9.25781-16.3281ZM10.752-15.957C13.1836-17.7344 16.4746-17.4316 18.7012-15.2051L21.1328-12.793C21.3672-12.5586 21.4062-12.373 21.3379-12.0312L21.0156-10.5469L22.5195-9.0625L23.5059-9.12109C23.7598-9.13086 23.8379-9.11133 24.0332-8.91602L24.6094-8.33984L22.168-5.89844L21.5918-6.47461C21.3965-6.66992 21.3672-6.74805 21.377-7.01172L21.4453-7.98828L19.9512-9.47266L18.4277-9.21875C18.1055-9.15039 17.959-9.17969 17.7148-9.41406L15.7129-11.416C15.459-11.6504 15.4297-11.8164 15.5859-12.1875L16.4648-14.2773C14.9023-15.7324 12.8711-16.3574 10.8398-15.7617C10.6836-15.7227 10.625-15.8496 10.752-15.957Z"/>
  </g>
  <text style="stroke:none;fill:black;font-family:sans-serif;font-size:13;font-weight:bold;" transform="matrix(1 0 0 1 1289 1953)">Exporting</text>
  <text style="stroke:none;fill:black;font-family:sans-serif;font-size:13;" transform="matrix(1 0 0 1 1289 1971)">Symbols should be outlined when exporting to ensure the</text>
  <text style="stroke:none;fill:black;font-family:sans-serif;font-size:13;" transform="matrix(1 0 0 1 1289 1989)">design is preserved when submitting to Xcode.</text>
  <text id="template-version" style="stroke:none;fill:black;font-family:sans-serif;font-size:13;text-anchor:end;" transform="matrix(1 0 0 1 3036 1933)">Template v.4.0</text>
  <text style="stroke:none;fill:black;font-family:sans-serif;font-size:13;text-anchor:end;" transform="matrix(1 0 0 1 3036 1951)">Requires Xcode 14 or greater</text>
  <text id="descriptive-name" style="stroke:none;fill:black;font-family:sans-serif;font-size:13;text-anchor:end;" transform="matrix(1 0 0 1 3036 1969)">Generated from list.clipboard</text>
  <text style="stroke:none;fill:black;font-family:sans-serif;font-size:13;text-anchor:end;" transform="matrix(1 0 0 1 3036 1987)">Typeset at 100 points</text>
  <text style="stroke:none;fill:black;font-family:sans-serif;font-size:13;" transform="matrix(1 0 0 1 263 726)">Small</text>
  <text style="stroke:none;fill:black;font-family:sans-serif;font-size:13;" transform="matrix(1 0 0 1 263 1156)">Medium</text>
  <text style="stroke:none;fill:black;font-family:sans-serif;font-size:13;" transform="matrix(1 0 0 1 263 1586)">Large</text>
 </g>
 <g id="Guides">
  <g id="H-reference" style="fill:#27AAE1;stroke:none;" transform="matrix(1 0 0 1 339 696)">
   <path d="M0.993654 0L3.63775 0L29.3281-67.1323L30.0303-67.1323L30.0303-70.459L28.1226-70.459ZM11.6885-24.4799L46.9815-24.4799L46.2315-26.7285L12.4385-26.7285ZM55.1196 0L57.7637 0L30.6382-70.459L29.4326-70.459L29.4326-67.1323Z"/>
  </g>
  <line id="Baseline-S" style="fill:none;stroke:#27AAE1;opacity:1;stroke-width:0.5;" x1="263" x2="3036" y1="696" y2="696"/>
  <line id="Capline-S" style="fill:none;stroke:#27AAE1;opacity:1;stroke-width:0.5;" x1="263" x2="3036" y1="625.541" y2="625.541"/>
  <g id="H-reference" style="fill:#27AAE1;stroke:none;" transform="matrix(1 0 0 1 339 1126)">
   <path d="M0.993654 0L3.63775 0L29.3281-67.1323L30.0303-67.1323L30.0303-70.459L28.1226-70.459ZM11.6885-24.4799L46.9815-24.4799L46.2315-26.7285L12.4385-26.7285ZM55.1196 0L57.7637 0L30.6382-70.459L29.4326-70.459L29.4326-67.1323Z"/>
  </g>
  <line id="Baseline-M" style="fill:none;stroke:#27AAE1;opacity:1;stroke-width:0.5;" x1="263" x2="3036" y1="1126" y2="1126"/>
  <line id="Capline-M" style="fill:none;stroke:#27AAE1;opacity:1;stroke-width:0.5;" x1="263" x2="3036" y1="1055.54" y2="1055.54"/>
  <g id="H-reference" style="fill:#27AAE1;stroke:none;" transform="matrix(1 0 0 1 339 1556)">
   <path d="M0.993654 0L3.63775 0L29.3281-67.1323L30.0303-67.1323L30.0303-70.459L28.1226-70.459ZM11.6885-24.4799L46.9815-24.4799L46.2315-26.7285L12.4385-26.7285ZM55.1196 0L57.7637 0L30.6382-70.459L29.4326-70.459L29.4326-67.1323Z"/>
  </g>
  <line id="Baseline-L" style="fill:none;stroke:#27AAE1;opacity:1;stroke-width:0.5;" x1="263" x2="3036" y1="1556" y2="1556"/>
  <line id="Capline-L" style="fill:none;stroke:#27AAE1;opacity:1;stroke-width:0.5;" x1="263" x2="3036" y1="1485.54" y2="1485.54"/>
  <line id="left-margin-Ultralight-S" style="fill:none;stroke:#00AEEF;stroke-width:0.5;opacity:1.0;" x1="519.288" x2="519.288" y1="600.785" y2="720.121"/>
  <line id="right-margin-Ultralight-S" style="fill:none;stroke:#00AEEF;stroke-width:0.5;opacity:1.0;" x1="600.134" x2="600.134" y1="600.785" y2="720.121"/>
  <line id="left-margin-Regular-S" style="fill:none;stroke:#00AEEF;stroke-width:0.5;opacity:1.0;" x1="1407.56" x2="1407.56" y1="600.785" y2="720.121"/>
  <line id="right-margin-Regular-S" style="fill:none;stroke:#00AEEF;stroke-width:0.5;opacity:1.0;" x1="1492.13" x2="1492.13" y1="600.785" y2="720.121"/>
  <line id="left-margin-Black-S" style="fill:none;stroke:#00AEEF;stroke-width:0.5;opacity:1.0;" x1="2888.09" x2="2888.09" y1="600.785" y2="720.121"/>
  <line id="right-margin-Black-S" style="fill:none;stroke:#00AEEF;stroke-width:0.5;opacity:1.0;" x1="2978.71" x2="2978.71" y1="600.785" y2="720.121"/>
 </g>
 <g id="Symbols">
  <g id="Black-S" transform="matrix(1 0 0 1 2888.09 696)">
   <path class="monochrome-0 SFSymbolsPreview000000" d="M25.0977 10.9863L65.5273 10.9863C74.707 10.9863 80.8594 4.78516 80.8594-4.54102L80.8594-61.9141C80.8594-71.2402 74.707-77.4414 65.5273-77.4414L64.8438-77.4414C65.5273-76.123 65.8691-74.5605 65.8691-72.8516L65.8691-68.8477C65.8691-67.1387 65.5273-65.5762 64.8438-64.2578L65.1367-64.2578C66.6504-64.2578 67.6758-63.2812 67.6758-61.8164L67.6758-4.63867C67.6758-3.17383 66.6504-2.19727 65.1367-2.19727L25.4883-2.19727C23.9746-2.19727 22.9492-3.17383 22.9492-4.63867L22.9492-61.8164C22.9492-63.2812 23.9746-64.2578 25.4883-64.2578L25.7812-64.2578C25.0977-65.5762 24.7559-67.1387 24.7559-68.8477L24.7559-72.8516C24.7559-74.5605 25.0977-76.123 25.7812-77.4414L25.0977-77.4414C15.918-77.4414 9.76562-71.2402 9.76562-61.9141L9.76562-4.54102C9.76562 4.78516 15.918 10.9863 25.0977 10.9863ZM33.6914-64.2578L56.9336-64.2578C59.6191-64.2578 61.2305-65.9668 61.2305-68.8477L61.2305-72.8516C61.2305-75.7324 59.6191-77.4414 56.9336-77.4414L55.0293-77.4414C54.6387-82.4707 50.4883-86.4746 45.3125-86.4746C40.1367-86.4746 35.9863-82.4707 35.5957-77.4414L33.6914-77.4414C31.0059-77.4414 29.3945-75.7324 29.3945-72.8516L29.3945-68.8477C29.3945-65.9668 31.0059-64.2578 33.6914-64.2578ZM32.2266-41.4551L58.4473-41.4551C60.791-41.4551 62.6953-43.3594 62.6953-45.7031C62.6953-48.0469 60.791-49.9512 58.4473-49.9512L32.2266-49.9512C29.8828-49.9512 27.9785-48.0469 27.9785-45.7031C27.9785-43.3594 29.8828-41.4551 32.2266-41.4551ZM32.2266-28.0762L58.4473-28.0762C60.8398-28.0762 62.6953-29.9316 62.6953-32.3242C62.6953-34.668 60.791-36.5234 58.4473-36.5234L32.2266-36.5234C29.8828-36.5234 27.9785-34.668 27.9785-32.3242C27.9785-29.9316 29.834-28.0762 32.2266-28.0762ZM32.2266-13.9648L47.2168-13.9648C49.5605-13.9648 51.4648-15.8691 51.4648-18.2129C51.4648-20.5566 49.5605-22.4121 47.2168-22.4121L32.2266-22.4121C29.8828-22.4121 27.9785-20.5566 27.9785-18.2129C27.9785-15.8691 29.8828-13.9648 32.2266-13.9648ZM45.3125-73.4375C43.3105-73.4375 41.6992-75.0977 41.6992-77.0508C41.6992-79.0039 43.3105-80.6152 45.3125-80.6152C47.3145-80.6152 48.9258-79.0039 48.9258-77.0508C48.9258-75.0977 47.3145-73.4375 45.3125-73.4375Z"/>
  </g>
  <g id="Regular-S" transform="matrix(1 0 0 1 1407.56 696)">
   <path class="monochrome-0 SFSymbolsPreview000000" d="M22.0215 9.13086L62.5 9.13086C70.7031 9.13086 74.8047 5.0293 74.8047-3.32031L74.8047-60.7422C74.8047-68.8477 70.8984-73.1934 63.0371-73.1934L62.7441-73.1934C62.793-72.8516 62.793-72.4609 62.793-72.1191L62.793-68.1641C62.793-67.4316 62.7441-66.748 62.5977-66.1133L62.8906-66.1133C66.1133-66.1133 67.7246-63.916 67.7246-60.6445L67.7246-3.41797C67.7246 0.0976562 65.8203 2.09961 62.1582 2.09961L22.4121 2.09961C18.7012 2.09961 16.7969 0.0976562 16.7969-3.41797L16.7969-60.6445C16.7969-63.916 18.4082-66.1133 21.6797-66.1133L21.9727-66.1133C21.8262-66.748 21.7773-67.4316 21.7773-68.1641L21.7773-72.1191C21.7773-72.4609 21.7773-72.8516 21.8262-73.1934L21.5332-73.1934C13.623-73.1934 9.76562-68.8477 9.76562-60.7422L9.76562-3.32031C9.76562 5.0293 13.8184 9.13086 22.0215 9.13086ZM30.3711-63.916L54.1504-63.916C56.543-63.916 58.0078-65.4297 58.0078-68.0176L58.0078-72.1191C58.0078-74.707 56.543-76.2207 54.1504-76.2207L50.9766-76.2207C50.6836-80.7129 46.9238-84.3262 42.2852-84.3262C37.6465-84.3262 33.8867-80.7129 33.5449-76.2207L30.3711-76.2207C27.9785-76.2207 26.5625-74.707 26.5625-72.1191L26.5625-68.0176C26.5625-65.4297 27.9785-63.916 30.3711-63.916ZM25.6836-42.5781L58.8867-42.5781C60.3516-42.5781 61.5723-43.7988 61.5723-45.2637C61.5723-46.7285 60.3516-47.9492 58.8867-47.9492L25.6836-47.9492C24.2188-47.9492 22.998-46.7285 22.998-45.2637C22.998-43.7988 24.2188-42.5781 25.6836-42.5781ZM25.6836-29.1504L58.8867-29.1504C60.4004-29.1504 61.5723-30.3223 61.5723-31.8359C61.5723-33.3008 60.4004-34.4727 58.8867-34.4727L25.6836-34.4727C24.1699-34.4727 22.998-33.3008 22.998-31.8359C22.998-30.3223 24.1699-29.1504 25.6836-29.1504ZM25.6836-14.9902L41.8457-14.9902C43.3105-14.9902 44.5312-16.2109 44.5312-17.6758C44.5312-19.1406 43.3594-20.3125 41.8457-20.3125L25.6836-20.3125C24.1699-20.3125 22.998-19.1406 22.998-17.6758C22.998-16.2109 24.2188-14.9902 25.6836-14.9902ZM42.2852-72.5586C40.4785-72.5586 38.9648-74.0723 38.9648-75.8789C38.9648-77.6855 40.4785-79.1504 42.2852-79.1504C44.0918-79.1504 45.5566-77.6855 45.5566-75.8789C45.5566-74.0723 44.0918-72.5586 42.2852-72.5586Z"/>
  </g>
  <g id="Ultralight-S" transform="matrix(1 0 0 1 519.288 696)">
   <path class="monochrome-0 SFSymbolsPreview000000" d="M19.751 7.76857L61.0923 7.76857C67.6607 7.76857 71.0811 4.34815 71.0811-2.18507L71.0811-62.8764C71.0811-69.3926 67.6289-72.8755 61.1299-72.8755L57.3858-72.8755C57.3892-72.7153 57.3892-72.5063 57.3892-72.3462L57.3892-71.2065C57.3892-71.0644 57.3858-70.8349 57.4209-70.6543L61.0288-70.6543C66.2041-70.6543 68.9053-67.9575 68.9053-62.7788L68.9053-2.28272C68.9053 2.86765 66.1836 5.59616 60.9775 5.59616L19.8692 5.59616C14.6597 5.59616 11.9834 2.86765 11.9834-2.28272L11.9834-62.7788C11.9834-67.9575 14.6392-70.6543 19.8179-70.6543L23.4712-70.6543C23.4609-70.8349 23.4575-71.0644 23.4575-71.2065L23.4575-72.3462C23.4575-72.5063 23.4575-72.7153 23.4609-72.8755L19.7168-72.8755C13.2144-72.8755 9.76562-69.3926 9.76562-62.8764L9.76562-2.18507C9.76562 4.34815 13.228 7.76857 19.751 7.76857ZM28.9634-66.3681L51.8799-66.3681C53.4551-66.3681 54.375-67.2461 54.375-68.6987L54.375-72.3916C54.375-73.8897 53.4551-74.7222 51.8799-74.7222L46.9351-74.7222C46.9146-78.3516 44.0176-81.2837 40.4234-81.2837C36.8745-81.2837 33.9321-78.3516 33.9082-74.7222L28.9634-74.7222C27.4336-74.7222 26.4717-73.8897 26.4717-72.3916L26.4717-68.6987C26.4717-67.2461 27.4336-66.3681 28.9634-66.3681ZM22.2324-44.9394L58.6143-44.9394C59.1709-44.9394 59.6651-45.4336 59.6651-45.9902C59.6651-46.5923 59.1709-47.0864 58.6143-47.0864L22.2324-47.0864C21.6758-47.0864 21.1817-46.5923 21.1817-45.9902C21.1817-45.4336 21.6758-44.9394 22.2324-44.9394ZM22.2324-30.7851L58.6143-30.7851C59.1743-30.7851 59.6651-31.2305 59.6651-31.8359C59.6651-32.438 59.1743-32.8833 58.6143-32.8833L22.2324-32.8833C21.6724-32.8833 21.1817-32.438 21.1817-31.8359C21.1817-31.2305 21.6724-30.7851 22.2324-30.7851ZM22.2324-15.7168L42.9355-15.7168C43.4922-15.7168 43.9863-16.2109 43.9863-16.813C43.9863-17.3696 43.4956-17.8604 42.9355-17.8604L22.2324-17.8604C21.6724-17.8604 21.1817-17.3696 21.1817-16.813C21.1817-16.2109 21.6758-15.7168 22.2324-15.7168ZM40.4234-71.1963C38.4351-71.1963 36.876-72.8008 36.876-74.7437C36.876-76.7774 38.4351-78.333 40.4234-78.333C42.4116-78.333 43.9673-76.7774 43.9673-74.7437C43.9673-72.8008 42.4116-71.1963 40.4234-71.1963Z"/>
  </g>
 </g>
</svg>
