<?xml version="1.0" encoding="UTF-8"?>
<!--Generator: Apple Native CoreSVG 175.5-->
<!DOCTYPE svg
PUBLIC "-//W3C//DTD SVG 1.1//EN"
       "http://www.w3.org/Graphics/SVG/1.1/DTD/svg11.dtd">
<svg version="1.1" xmlns="http://www.w3.org/2000/svg" xmlns:xlink="http://www.w3.org/1999/xlink" width="3300" height="2200">
 <!--glyph: "uni10152D.medium", point size: 100.0, font version: "18.0d11e1", template writer version: "90"-->
 <g id="Notes">
  <rect height="2200" id="artboard" style="fill:white;opacity:1" width="3300" x="0" y="0"/>
  <line style="fill:none;stroke:black;opacity:1;stroke-width:0.5;" x1="263" x2="3036" y1="292" y2="292"/>
  <text style="stroke:none;fill:black;font-family:sans-serif;font-size:13;font-weight:bold;" transform="matrix(1 0 0 1 263 322)">Weight/Scale Variations</text>
  <text style="stroke:none;fill:black;font-family:sans-serif;font-size:13;text-anchor:middle;" transform="matrix(1 0 0 1 559.711 322)">Ultralight</text>
  <text style="stroke:none;fill:black;font-family:sans-serif;font-size:13;text-anchor:middle;" transform="matrix(1 0 0 1 856.422 322)">Thin</text>
  <text style="stroke:none;fill:black;font-family:sans-serif;font-size:13;text-anchor:middle;" transform="matrix(1 0 0 1 1153.13 322)">Light</text>
  <text style="stroke:none;fill:black;font-family:sans-serif;font-size:13;text-anchor:middle;" transform="matrix(1 0 0 1 1449.84 322)">Regular</text>
  <text style="stroke:none;fill:black;font-family:sans-serif;font-size:13;text-anchor:middle;" transform="matrix(1 0 0 1 1746.56 322)">Medium</text>
  <text style="stroke:none;fill:black;font-family:sans-serif;font-size:13;text-anchor:middle;" transform="matrix(1 0 0 1 2043.27 322)">Semibold</text>
  <text style="stroke:none;fill:black;font-family:sans-serif;font-size:13;text-anchor:middle;" transform="matrix(1 0 0 1 2339.98 322)">Bold</text>
  <text style="stroke:none;fill:black;font-family:sans-serif;font-size:13;text-anchor:middle;" transform="matrix(1 0 0 1 2636.69 322)">Heavy</text>
  <text style="stroke:none;fill:black;font-family:sans-serif;font-size:13;text-anchor:middle;" transform="matrix(1 0 0 1 2933.4 322)">Black</text>
  <line style="fill:none;stroke:black;opacity:1;stroke-width:0.5;" x1="263" x2="3036" y1="1903" y2="1903"/>
  <g transform="matrix(1 0 0 1 263 1933)">
   <path d="M9.24805 0.830078C13.5547 0.830078 17.1387-2.74414 17.1387-7.05078C17.1387-11.3574 13.5449-14.9316 9.23828-14.9316C4.94141-14.9316 1.36719-11.3574 1.36719-7.05078C1.36719-2.74414 4.95117 0.830078 9.24805 0.830078ZM9.24805-0.654297C5.70312-0.654297 2.87109-3.49609 2.87109-7.05078C2.87109-10.6055 5.69336-13.4473 9.23828-13.4473C12.793-13.4473 15.6445-10.6055 15.6445-7.05078C15.6445-3.49609 12.8027-0.654297 9.24805-0.654297ZM5.6543-7.05078C5.6543-6.62109 5.95703-6.32812 6.40625-6.32812L8.50586-6.32812L8.50586-4.20898C8.50586-3.76953 8.79883-3.4668 9.22852-3.4668C9.67773-3.4668 9.9707-3.76953 9.9707-4.20898L9.9707-6.32812L12.0898-6.32812C12.5293-6.32812 12.832-6.62109 12.832-7.05078C12.832-7.49023 12.5293-7.79297 12.0898-7.79297L9.9707-7.79297L9.9707-9.90234C9.9707-10.3516 9.67773-10.6543 9.22852-10.6543C8.79883-10.6543 8.50586-10.3516 8.50586-9.90234L8.50586-7.79297L6.40625-7.79297C5.95703-7.79297 5.6543-7.49023 5.6543-7.05078Z"/>
  </g>
  <g transform="matrix(1 0 0 1 281.867 1933)">
   <path d="M11.709 2.91016C17.1582 2.91016 21.6699-1.61133 21.6699-7.05078C21.6699-12.5 17.1484-17.0117 11.6992-17.0117C6.25977-17.0117 1.74805-12.5 1.74805-7.05078C1.74805-1.61133 6.26953 2.91016 11.709 2.91016ZM11.709 1.25C7.09961 1.25 3.41797-2.44141 3.41797-7.05078C3.41797-11.6602 7.08984-15.3516 11.6992-15.3516C16.3086-15.3516 20.0098-11.6602 20.0098-7.05078C20.0098-2.44141 16.3184 1.25 11.709 1.25ZM7.17773-7.05078C7.17773-6.57227 7.50977-6.25 8.00781-6.25L10.8789-6.25L10.8789-3.36914C10.8789-2.88086 11.2109-2.53906 11.6895-2.53906C12.1777-2.53906 12.5195-2.87109 12.5195-3.36914L12.5195-6.25L15.4004-6.25C15.8887-6.25 16.2305-6.57227 16.2305-7.05078C16.2305-7.53906 15.8887-7.88086 15.4004-7.88086L12.5195-7.88086L12.5195-10.752C12.5195-11.25 12.1777-11.5918 11.6895-11.5918C11.2109-11.5918 10.8789-11.25 10.8789-10.752L10.8789-7.88086L8.00781-7.88086C7.50977-7.88086 7.17773-7.53906 7.17773-7.05078Z"/>
  </g>
  <g transform="matrix(1 0 0 1 305.646 1933)">
   <path d="M14.9707 5.66406C21.9336 5.66406 27.6953-0.0976562 27.6953-7.05078C27.6953-14.0137 21.9238-19.7754 14.9609-19.7754C8.00781-19.7754 2.25586-14.0137 2.25586-7.05078C2.25586-0.0976562 8.01758 5.66406 14.9707 5.66406ZM14.9707 3.84766C8.93555 3.84766 4.08203-1.01562 4.08203-7.05078C4.08203-13.0957 8.92578-17.9492 14.9609-17.9492C21.0059-17.9492 25.8691-13.0957 25.8691-7.05078C25.8691-1.01562 21.0156 3.84766 14.9707 3.84766ZM9.19922-7.05078C9.19922-6.5332 9.57031-6.17188 10.1172-6.17188L14.0625-6.17188L14.0625-2.2168C14.0625-1.67969 14.4336-1.29883 14.9512-1.29883C15.4883-1.29883 15.8594-1.66992 15.8594-2.2168L15.8594-6.17188L19.8145-6.17188C20.3516-6.17188 20.7324-6.5332 20.7324-7.05078C20.7324-7.59766 20.3613-7.96875 19.8145-7.96875L15.8594-7.96875L15.8594-11.9141C15.8594-12.4609 15.4883-12.8418 14.9512-12.8418C14.4336-12.8418 14.0625-12.4609 14.0625-11.9141L14.0625-7.96875L10.1172-7.96875C9.57031-7.96875 9.19922-7.59766 9.19922-7.05078Z"/>
  </g>
  <text style="stroke:none;fill:black;font-family:sans-serif;font-size:13;font-weight:bold;" transform="matrix(1 0 0 1 263 1953)">Design Variations</text>
  <text style="stroke:none;fill:black;font-family:sans-serif;font-size:13;" transform="matrix(1 0 0 1 263 1971)">Symbols are supported in up to nine weights and three scales.</text>
  <text style="stroke:none;fill:black;font-family:sans-serif;font-size:13;" transform="matrix(1 0 0 1 263 1989)">For optimal layout with text and other symbols, vertically align</text>
  <text style="stroke:none;fill:black;font-family:sans-serif;font-size:13;" transform="matrix(1 0 0 1 263 2007)">symbols with the adjacent text.</text>
  <line style="fill:none;stroke:#00AEEF;stroke-width:0.5;opacity:1.0;" x1="776" x2="776" y1="1919" y2="1933"/>
  <g transform="matrix(1 0 0 1 776 1933)">
   <path d="M3.31055 0.15625C3.82812 0.15625 4.08203-0.0390625 4.26758-0.585938L5.52734-4.0332L11.2891-4.0332L12.5488-0.585938C12.7344-0.0390625 12.9883 0.15625 13.4961 0.15625C14.0137 0.15625 14.3457-0.15625 14.3457-0.644531C14.3457-0.810547 14.3164-0.966797 14.2383-1.17188L9.6582-13.3691C9.43359-13.9648 9.0332-14.2676 8.4082-14.2676C7.80273-14.2676 7.39258-13.9746 7.17773-13.3789L2.59766-1.16211C2.51953-0.957031 2.49023-0.800781 2.49023-0.634766C2.49023-0.146484 2.80273 0.15625 3.31055 0.15625ZM6.00586-5.51758L8.37891-12.0898L8.42773-12.0898L10.8008-5.51758Z"/>
  </g>
  <line style="fill:none;stroke:#00AEEF;stroke-width:0.5;opacity:1.0;" x1="793.197" x2="793.197" y1="1919" y2="1933"/>
  <text style="stroke:none;fill:black;font-family:sans-serif;font-size:13;font-weight:bold;" transform="matrix(1 0 0 1 776 1953)">Margins</text>
  <text style="stroke:none;fill:black;font-family:sans-serif;font-size:13;" transform="matrix(1 0 0 1 776 1971)">Leading and trailing margins on the left and right side of each symbol</text>
  <text style="stroke:none;fill:black;font-family:sans-serif;font-size:13;" transform="matrix(1 0 0 1 776 1989)">can be adjusted by modifying the x-location of the margin guidelines.</text>
  <text style="stroke:none;fill:black;font-family:sans-serif;font-size:13;" transform="matrix(1 0 0 1 776 2007)">Modifications are automatically applied proportionally to all</text>
  <text style="stroke:none;fill:black;font-family:sans-serif;font-size:13;" transform="matrix(1 0 0 1 776 2025)">scales and weights.</text>
  <g transform="matrix(1 0 0 1 1289 1933)">
   <path d="M2.8418 1.86523L4.54102 3.57422C5.40039 4.44336 6.38672 4.38477 7.31445 3.35938L18.0078-8.42773L17.041-9.4043L6.42578 2.27539C6.07422 2.67578 5.74219 2.77344 5.27344 2.30469L4.10156 1.14258C3.63281 0.683594 3.74023 0.341797 4.14062-0.0195312L15.6152-10.8203L14.6387-11.7871L3.04688-0.898438C2.06055 0.0195312 1.98242 0.996094 2.8418 1.86523ZM9.25781-16.3281C8.83789-15.918 8.80859-15.3418 9.04297-14.9512C9.27734-14.5898 9.73633-14.3555 10.3809-14.5215C11.8457-14.8633 13.3691-14.9219 14.7949-13.9844L14.209-12.5293C13.8672-11.6992 14.043-11.1133 14.5801-10.5664L16.875-8.25195C17.3633-7.76367 17.7734-7.74414 18.3398-7.8418L19.4043-8.03711L20.0684-7.36328L20.0293-6.80664C19.9902-6.30859 20.1172-5.92773 20.6055-5.44922L21.3672-4.70703C21.8457-4.22852 22.4609-4.19922 22.9297-4.66797L25.8398-7.58789C26.3086-8.05664 26.2891-8.65234 25.8105-9.13086L25.0391-9.89258C24.5605-10.3711 24.1895-10.5273 23.7109-10.4883L23.1348-10.4395L22.4902-11.0742L22.7344-12.1973C22.8613-12.7637 22.7051-13.2031 22.1191-13.7891L19.9219-15.9766C16.582-19.2969 12.1484-19.2188 9.25781-16.3281ZM10.752-15.957C13.1836-17.7344 16.4746-17.4316 18.7012-15.2051L21.1328-12.793C21.3672-12.5586 21.4062-12.373 21.3379-12.0312L21.0156-10.5469L22.5195-9.0625L23.5059-9.12109C23.7598-9.13086 23.8379-9.11133 24.0332-8.91602L24.6094-8.33984L22.168-5.89844L21.5918-6.47461C21.3965-6.66992 21.3672-6.74805 21.377-7.01172L21.4453-7.98828L19.9512-9.47266L18.4277-9.21875C18.1055-9.15039 17.959-9.17969 17.7148-9.41406L15.7129-11.416C15.459-11.6504 15.4297-11.8164 15.5859-12.1875L16.4648-14.2773C14.9023-15.7324 12.8711-16.3574 10.8398-15.7617C10.6836-15.7227 10.625-15.8496 10.752-15.957Z"/>
  </g>
  <text style="stroke:none;fill:black;font-family:sans-serif;font-size:13;font-weight:bold;" transform="matrix(1 0 0 1 1289 1953)">Exporting</text>
  <text style="stroke:none;fill:black;font-family:sans-serif;font-size:13;" transform="matrix(1 0 0 1 1289 1971)">Symbols should be outlined when exporting to ensure the</text>
  <text style="stroke:none;fill:black;font-family:sans-serif;font-size:13;" transform="matrix(1 0 0 1 1289 1989)">design is preserved when submitting to Xcode.</text>
  <text id="template-version" style="stroke:none;fill:black;font-family:sans-serif;font-size:13;text-anchor:end;" transform="matrix(1 0 0 1 3036 1933)">Template v.4.0</text>
  <text style="stroke:none;fill:black;font-family:sans-serif;font-size:13;text-anchor:end;" transform="matrix(1 0 0 1 3036 1951)">Requires Xcode 14 or greater</text>
  <text id="descriptive-name" style="stroke:none;fill:black;font-family:sans-serif;font-size:13;text-anchor:end;" transform="matrix(1 0 0 1 3036 1969)">Generated from figure.hiking</text>
  <text style="stroke:none;fill:black;font-family:sans-serif;font-size:13;text-anchor:end;" transform="matrix(1 0 0 1 3036 1987)">Typeset at 100 points</text>
  <text style="stroke:none;fill:black;font-family:sans-serif;font-size:13;" transform="matrix(1 0 0 1 263 726)">Small</text>
  <text style="stroke:none;fill:black;font-family:sans-serif;font-size:13;" transform="matrix(1 0 0 1 263 1156)">Medium</text>
  <text style="stroke:none;fill:black;font-family:sans-serif;font-size:13;" transform="matrix(1 0 0 1 263 1586)">Large</text>
 </g>
 <g id="Guides">
  <g id="H-reference" style="fill:#27AAE1;stroke:none;" transform="matrix(1 0 0 1 339 696)">
   <path d="M0.993654 0L3.63775 0L29.3281-67.1323L30.0303-67.1323L30.0303-70.459L28.1226-70.459ZM11.6885-24.4799L46.9815-24.4799L46.2315-26.7285L12.4385-26.7285ZM55.1196 0L57.7637 0L30.6382-70.459L29.4326-70.459L29.4326-67.1323Z"/>
  </g>
  <line id="Baseline-S" style="fill:none;stroke:#27AAE1;opacity:1;stroke-width:0.5;" x1="263" x2="3036" y1="696" y2="696"/>
  <line id="Capline-S" style="fill:none;stroke:#27AAE1;opacity:1;stroke-width:0.5;" x1="263" x2="3036" y1="625.541" y2="625.541"/>
  <g id="H-reference" style="fill:#27AAE1;stroke:none;" transform="matrix(1 0 0 1 339 1126)">
   <path d="M0.993654 0L3.63775 0L29.3281-67.1323L30.0303-67.1323L30.0303-70.459L28.1226-70.459ZM11.6885-24.4799L46.9815-24.4799L46.2315-26.7285L12.4385-26.7285ZM55.1196 0L57.7637 0L30.6382-70.459L29.4326-70.459L29.4326-67.1323Z"/>
  </g>
  <line id="Baseline-M" style="fill:none;stroke:#27AAE1;opacity:1;stroke-width:0.5;" x1="263" x2="3036" y1="1126" y2="1126"/>
  <line id="Capline-M" style="fill:none;stroke:#27AAE1;opacity:1;stroke-width:0.5;" x1="263" x2="3036" y1="1055.54" y2="1055.54"/>
  <g id="H-reference" style="fill:#27AAE1;stroke:none;" transform="matrix(1 0 0 1 339 1556)">
   <path d="M0.993654 0L3.63775 0L29.3281-67.1323L30.0303-67.1323L30.0303-70.459L28.1226-70.459ZM11.6885-24.4799L46.9815-24.4799L46.2315-26.7285L12.4385-26.7285ZM55.1196 0L57.7637 0L30.6382-70.459L29.4326-70.459L29.4326-67.1323Z"/>
  </g>
  <line id="Baseline-L" style="fill:none;stroke:#27AAE1;opacity:1;stroke-width:0.5;" x1="263" x2="3036" y1="1556" y2="1556"/>
  <line id="Capline-L" style="fill:none;stroke:#27AAE1;opacity:1;stroke-width:0.5;" x1="263" x2="3036" y1="1485.54" y2="1485.54"/>
  <line id="left-margin-Regular-M" style="fill:none;stroke:#00AEEF;stroke-width:0.5;opacity:1.0;" x1="1398.66" x2="1398.66" y1="1030.79" y2="1150.12"/>
  <line id="right-margin-Regular-M" style="fill:none;stroke:#00AEEF;stroke-width:0.5;opacity:1.0;" x1="1501.03" x2="1501.03" y1="1030.79" y2="1150.12"/>
 </g>
 <g id="Symbols">
  <g id="Black-L" transform="matrix(1 0 0 1 2863.67 1556)">
   <path d="M71.822-89.4511C80.3481-89.4511 87.2925-96.3956 87.2925-104.963C87.2925-113.468 80.3481-120.434 71.822-120.434C63.274-120.434 56.3087-113.468 56.3087-104.963C56.3087-96.3956 63.274-89.4511 71.822-89.4511ZM96.7454 48.5315C100.994 47.2757 103.112 42.6026 101.753 38.508L91.2855 6.78058C90.9054 5.58311 90.4681 5.00699 89.7092 4.14558L72.5088-15.6818L75.9257-53.5195C76.0061-54.3378 76.9489-54.5611 77.3782-53.8476L84.8902-42.3858C86.2121-40.3645 88.2126-38.4664 90.2327-37.365L111.631-25.8737C115.406-23.8368 120.276-25.2744 122.414-29.1069C124.487-32.8821 123.013-37.89 119.239-39.8685L97.9936-51.1833L83.9493-72.8735C79.9043-79.1227 73.8369-82.9848 65.5873-82.9848L50.3969-82.9848L44.8847-29.8077C44.1621-22.6972 45.4245-17.9165 51.191-12.0683L76.8082 13.6502L86.7595 43.4212C88.4967 48.5899 93.1454 49.4513 96.7454 48.5315ZM37.9833-28.5228L48.5203-28.5228C54.9418-28.5228 59.9954-33.546 59.9954-39.8155L59.9954-78.6338C59.9954-84.9617 54.9418-89.9849 48.5203-89.9849L41.4146-89.9849C32.0927-89.9849 26.6334-84.5244 26.6334-75.1221L26.6334-39.8155C26.6334-33.2303 31.3409-28.5228 37.9833-28.5228ZM18.4193 46.4363C21.5744 49.6706 26.4071 49.4525 29.5026 46.4363L54.1704 21.8269C54.7101 21.2872 55.3678 20.6891 55.7467 19.9509L61.207 8.69546L47.8171-4.71765L41.7311 12.0435L18.4193 35.4345C15.3458 38.5885 15.2654 43.4796 18.4193 46.4363ZM115.189-65.9898C112.045-65.9898 109.494-63.4393 109.494-60.2954L109.494-53.6421L120.905-47.5688L120.905-60.2954C120.905-63.4393 118.334-65.9898 115.189-65.9898ZM115.189 49.1632C118.334 49.1632 120.905 46.593 120.905 43.4479L120.905-18.4611C117.324-17.0436 113.213-17.0048 109.494-18.52L109.494 43.4479C109.494 46.593 112.045 49.1632 115.189 49.1632Z"/>
  </g>
  <g id="Heavy-L" transform="matrix(1 0 0 1 2567.92 1556)">
   <path d="M70.8364-88.8184C79.1253-88.8184 85.864-95.5571 85.864-103.906C85.864-112.165 79.1253-118.934 70.8364-118.934C62.5117-118.934 55.7428-112.165 55.7428-103.906C55.7428-95.5571 62.5117-88.8184 70.8364-88.8184ZM95.3973 47.0209C99.4219 45.8383 101.448 41.3759 100.149 37.4551L89.8212 6.13914C89.4549 5.00123 89.0496 4.47087 88.3226 3.62766L71.2519-16.0386L74.6787-53.9306C74.7591-54.8547 75.8353-55.1061 76.3247-54.3094L83.9718-42.6244C85.2617-40.6577 87.1982-38.8374 89.1593-37.7585L110.273-26.4212C113.883-24.4759 118.509-25.8494 120.565-29.4988C122.52-33.1092 121.137-37.8607 117.532-39.7614L96.5171-50.9593L82.6074-72.4426C78.6628-78.5505 72.7459-82.2985 64.7015-82.2985L49.9352-82.2985L44.5184-30.0343C43.8003-23.0832 45.04-18.453 50.6654-12.7415L75.9984 12.7021L85.846 42.1532C87.5054 47.0655 91.9208 47.9087 95.3973 47.0209ZM37.3341-29.0526L47.8513-29.0526C54.0527-29.0526 58.9106-33.8353 58.9106-39.85L58.9106-78.3755C58.9106-84.4348 54.0527-89.2175 47.8513-89.2175L40.7339-89.2175C31.7744-89.2175 26.4977-83.9352 26.4977-74.8953L26.4977-39.85C26.4977-33.5417 30.9868-29.0526 37.3341-29.0526ZM18.3096 45.0309C21.318 48.1142 25.9357 47.9143 28.8939 45.0309L53.2405 20.7289C53.7621 20.2074 54.3784 19.6412 54.7391 18.9444L60.4387 7.25615L47.5749-5.64909L41.3687 11.3987L18.3096 34.5327C15.3872 37.5355 15.3068 42.1978 18.3096 45.0309ZM113.631-65.2064C110.796-65.2064 108.505-62.9156 108.505-60.0811L108.505-52.7254L118.792-47.2394L118.792-60.0811C118.792-62.9156 116.471-65.2064 113.631-65.2064ZM113.631 47.5555C116.471 47.5555 118.792 45.2402 118.792 42.4001L118.792-19.2673C115.552-18.0417 111.864-18.0217 108.505-19.341L108.505 42.4001C108.505 45.2402 110.796 47.5555 113.631 47.5555Z"/>
  </g>
  <g id="Bold-L" transform="matrix(1 0 0 1 2272.44 1556)">
   <path d="M69.5625-87.9527C77.5594-87.9527 84.052-94.4453 84.052-102.518C84.052-110.477 77.5594-117.008 69.5625-117.008C61.5144-117.008 54.9839-110.477 54.9839-102.518C54.9839-94.4453 61.5144-87.9527 69.5625-87.9527ZM93.6404 45.1089C97.4032 44.011 99.3212 39.7949 98.0917 36.0818L87.9556 5.32525C87.6047 4.25663 87.2379 3.78015 86.5493 2.95997L69.6773-16.4618L73.1044-54.2888C73.1849-55.3286 74.4076-55.6034 74.9589-54.7217L82.7302-42.827C83.9817-40.9295 85.8412-39.2015 87.7256-38.1533L108.456-27.0229C111.874-25.1853 116.215-26.482 118.171-29.9159C119.987-33.3338 118.712-37.7851 115.307-39.5935L94.6138-50.623L80.9029-71.808C77.0813-77.7392 71.3489-81.3488 63.558-81.3488L49.3143-81.3488L44.0204-30.2663C43.3098-23.5149 44.5188-19.0692 49.9676-13.5268L74.9025 11.5265L84.6046 40.5259C86.1717 45.1381 90.3101 45.9582 93.6404 45.1089ZM36.4901-29.6239L47.0065-29.6239C52.9539-29.6239 57.5659-34.0921 57.5659-39.7842L57.5659-77.9634C57.5659-83.6848 52.9539-88.153 47.0065-88.153L39.844-88.153C31.3676-88.153 26.3138-83.086 26.3138-74.5291L26.3138-39.7842C26.3138-33.8365 30.5264-29.6239 36.4901-29.6239ZM18.1788 43.2421C21.0178 46.1483 25.3815 45.9715 28.1781 43.2421L52.088 19.3614C52.5865 18.8629 53.1566 18.3352 53.4942 17.6846L59.4561 5.52564L47.2156-6.77936L40.8857 10.5624L18.1788 33.3364C15.4334 36.1622 15.353 40.5551 18.1788 43.2421ZM111.62-64.0891C109.177-64.0891 107.209-62.121 107.209-59.6781L107.209-51.5286L116.082-46.78L116.082-59.6781C116.082-62.121 114.076-64.0891 111.62-64.0891ZM111.62 45.543C114.076 45.543 116.082 43.5501 116.082 41.094L116.082-20.2066C113.272-19.2117 110.115-19.2073 107.209-20.2808L107.209 41.094C107.209 43.5501 109.177 45.543 111.62 45.543Z"/>
  </g>
  <g id="Semibold-L" transform="matrix(1 0 0 1 1976.57 1556)">
   <path d="M68.6843-87.3558C76.4798-87.3558 82.8027-93.6787 82.8027-101.561C82.8027-109.313 76.4798-115.679 68.6843-115.679C60.8269-115.679 54.4607-109.313 54.4607-101.561C54.4607-93.6787 60.8269-87.3558 68.6843-87.3558ZM92.4292 43.7907C96.0115 42.7513 97.8552 38.705 96.6736 35.1351L86.6695 4.76415C86.3292 3.7433 85.9889 3.30396 85.3268 2.49967L68.5917-16.7535L72.0191-54.5357C72.0996-55.6553 73.4233-55.9463 74.0173-55.0058L81.8743-42.9667C83.0992-41.1168 84.9058-39.4525 86.7372-38.4254L107.203-27.4377C110.488-25.6744 114.634-26.9181 116.521-30.2034C118.241-33.4886 117.04-37.733 113.774-39.4777L93.3017-50.3912L79.7278-71.3705C75.991-77.1799 70.3857-80.6941 62.7697-80.6941L48.8863-80.6941L43.677-30.4263C42.9717-23.8125 44.1596-19.494 49.4865-14.0682L74.147 10.7161L83.7488 39.4041C85.2523 43.8093 89.1997 44.6136 92.4292 43.7907ZM35.9083-30.0177L46.4242-30.0177C52.1963-30.0177 56.6389-34.269 56.6389-39.7389L56.6389-77.6793C56.6389-83.1678 52.1963-87.4191 46.4242-87.4191L39.2306-87.4191C31.0871-87.4191 26.187-82.5005 26.187-74.2766L26.187-39.7389C26.187-34.0398 30.2091-30.0177 35.9083-30.0177ZM18.0886 42.0088C20.8108 44.793 24.9995 44.6321 27.6846 42.0088L51.2934 18.4186C51.776 17.936 52.3142 17.4348 52.636 16.8162L58.7787 4.33263L46.9679-7.55856L40.5527 9.98577L18.0886 32.5118C15.4653 35.2155 15.3849 39.4227 18.0886 42.0088ZM110.234-63.3189C108.061-63.3189 106.315-61.5732 106.315-59.4003L106.315-50.7036L114.214-46.4633L114.214-59.4003C114.214-61.5732 112.425-63.3189 110.234-63.3189ZM110.234 44.1556C112.425 44.1556 114.214 42.3851 114.214 40.1937L114.214-20.8541C111.701-20.0183 108.909-20.0246 106.315-20.9287L106.315 40.1937C106.315 42.3851 108.061 44.1556 110.234 44.1556Z"/>
  </g>
  <g id="Medium-L" transform="matrix(1 0 0 1 1680.51 1556)">
   <path d="M68.0184-86.9033C75.6613-86.9033 81.8555-93.0975 81.8555-100.835C81.8555-108.431 75.6613-114.672 68.0184-114.672C60.3056-114.672 54.064-108.431 54.064-100.835C54.064-93.0975 60.3056-86.9033 68.0184-86.9033ZM91.5108 42.7912C94.9563 41.7961 96.7437 37.8786 95.5982 34.4172L85.6943 4.33871C85.3621 3.35408 85.0418 2.9429 84.3999 2.15065L67.7686-16.9747L71.1962-54.7229C71.2766-55.903 72.677-56.2062 73.3033-55.2213L81.2253-43.0727C82.4301-41.2589 84.1965-39.6428 85.9878-38.6318L106.253-27.7523C109.438-26.0453 113.434-27.2487 115.269-30.4214C116.917-33.606 115.773-37.6934 112.611-39.3899L92.3068-50.2154L78.8368-71.0387C75.1643-76.7558 69.6555-80.1976 62.172-80.1976L48.5617-80.1976L43.4166-30.5476C42.7153-24.0382 43.8872-19.8161 49.1218-14.4787L73.5741 10.1015L83.0999 38.5535C84.5551 42.8017 88.3577 43.594 91.5108 42.7912ZM35.4671-30.3163L45.9826-30.3163C51.6219-30.3163 55.936-34.4032 55.936-39.7045L55.936-77.4639C55.936-82.7757 51.6219-86.8627 45.9826-86.8627L38.7654-86.8627C30.8744-86.8627 26.0908-82.0566 26.0908-74.0852L26.0908-39.7045C26.0908-34.1939 29.9684-30.3163 35.4671-30.3163ZM18.0203 41.0738C20.6539 43.7654 24.7098 43.6165 27.3104 41.0738L50.6909 17.7038C51.1615 17.2332 51.6755 16.7521 51.9853 16.1577L58.2651 3.42805L46.7801-8.14938L40.3002 9.54857L18.0203 31.8865C15.4895 34.4976 15.4091 38.564 18.0203 41.0738ZM109.183-62.7348C107.214-62.7348 105.638-61.1579 105.638-59.1897L105.638-50.078L112.798-46.2231L112.798-59.1897C112.798-61.1579 111.173-62.7348 109.183-62.7348ZM109.183 43.1036C111.173 43.1036 112.798 41.5016 112.798 39.511L112.798-21.3451C110.509-20.6299 107.994-20.6444 105.638-21.42L105.638 39.511C105.638 41.5016 107.214 43.1036 109.183 43.1036Z"/>
  </g>
  <g id="Regular-L" transform="matrix(1 0 0 1 1384.64 1556)">
   <path d="M67.1498-86.313C74.5936-86.313 80.62-92.3394 80.62-99.8887C80.62-107.28 74.5936-113.359 67.1498-113.359C59.6257-113.359 53.5465-107.28 53.5465-99.8887C53.5465-92.3394 59.6257-86.313 67.1498-86.313ZM90.3129 41.4876C93.5799 40.5502 95.2939 36.8007 94.1957 33.4809L84.4223 3.78378C84.1006 2.8464 83.8066 2.47195 83.1909 1.69541L66.695-17.2633L70.1228-54.9671C70.2033-56.2262 71.7036-56.5453 72.372-55.5024L80.3787-43.2109C81.5574-41.4442 83.2713-39.8911 85.0103-38.901L105.014-28.1625C108.068-26.529 111.87-27.68 113.637-30.7058C115.19-33.7592 114.119-37.6419 111.094-39.2754L91.0091-49.9862L77.6747-70.606C74.086-76.2027 68.7029-79.5501 61.3924-79.5501L48.1384-79.5501L43.077-30.7058C42.3809-24.3326 43.5319-20.2363 48.646-15.0141L72.8269 9.3L82.2535 37.444C83.6457 41.4876 87.2595 42.2641 90.3129 41.4876ZM34.8917-30.7058L45.4067-30.7058C50.8727-30.7058 55.0192-34.5783 55.0192-39.6596L55.0192-77.183C55.0192-82.2644 50.8727-86.1369 45.4067-86.1369L38.1587-86.1369C30.597-86.1369 25.9654-81.4776 25.9654-73.8356L25.9654-39.6596C25.9654-34.3949 29.6546-30.7058 34.8917-30.7058ZM17.9311 39.8541C20.4492 42.425 24.3319 42.2918 26.8224 39.8541L49.9051 16.7714C50.3599 16.3165 50.8425 15.8617 51.1365 15.2987L57.5952 2.24815L46.5351-8.92002L39.9709 8.97832L17.9311 31.0708C15.521 33.5613 15.4406 37.444 17.9311 39.8541ZM107.812-61.973C106.111-61.973 104.754-60.6161 104.754-58.9149L104.754-49.262L110.95-45.9098L110.95-58.9149C110.95-60.6161 109.541-61.973 107.812-61.973ZM107.812 41.7314C109.541 41.7314 110.95 40.3493 110.95 38.6205L110.95-21.9855C108.955-21.4277 106.802-21.4528 104.754-22.0608L104.754 38.6205C104.754 40.3493 106.111 41.7314 107.812 41.7314Z"/>
  </g>
  <g id="Light-L" transform="matrix(1 0 0 1 1089.1 1556)">
   <path d="M65.9284-85.187C73.1813-85.187 79.0932-91.0989 79.0932-98.4191C79.0932-105.638 73.1813-111.584 65.9284-111.584C58.5951-111.584 52.6495-105.638 52.6495-98.4191C52.6495-91.0989 58.5951-85.187 65.9284-85.187ZM88.538 39.9035C91.7287 38.9852 93.4044 35.312 92.3253 32.0877L82.8 3.09671C82.4784 2.17841 82.2034 1.82305 81.6068 1.0656L65.4926-17.4351L68.8441-54.2418C68.9245-55.4818 70.4058-55.7437 71.0361-54.758L78.8519-42.7528C80.0115-41.0434 81.6872-39.5285 83.3499-38.5765L102.896-28.0862C105.892-26.4909 109.599-27.6037 111.308-30.5531C112.823-33.5492 111.791-37.3365 108.842-38.9319L89.215-49.3754L76.2242-69.5182C72.7118-74.9812 67.4433-78.2523 60.3045-78.2523L47.3941-78.2523L42.4472-30.5531C41.7702-24.3326 42.883-20.3508 47.8635-15.2431L71.4718 8.47933L80.6885 35.9554C82.0426 39.9035 85.5419 40.661 88.538 39.9035ZM34.0519-30.5531L44.7196-30.5531C50.1283-30.5531 54.084-34.1012 54.084-38.9153L54.084-76.3051C54.084-81.1192 50.1283-84.6673 44.7196-84.6673L37.2426-84.6673C30.2344-84.6673 25.7364-80.1226 25.7364-73.034L25.7364-38.9153C25.7364-34.0132 29.1965-30.5531 34.0519-30.5531ZM17.8738 38.3082C20.3538 40.8218 24.1411 40.7077 26.5743 38.3082L49.1035 15.779C49.5393 15.3432 50.0218 14.9074 50.2967 14.3445L56.7173 1.38931L45.9053-9.54983L39.4174 8.15765L17.8738 29.7349C15.521 32.1681 15.4406 35.9554 17.8738 38.3082ZM105.903-60.2554C104.526-60.2554 103.399-59.1274 103.399-57.7507L103.399-48.0405L108.488-45.2609L108.488-57.7507C108.488-59.1274 107.327-60.2554 105.903-60.2554ZM105.903 40.2046C107.327 40.2046 108.488 39.0897 108.488 37.6662L108.488-22.2527C106.837-21.8094 105.084-21.7963 103.399-22.2135L103.399 37.6662C103.399 39.0897 104.526 40.2046 105.903 40.2046Z"/>
  </g>
  <g id="Thin-L" transform="matrix(1 0 0 1 793.94 1556)">
   <path d="M64.3129-83.6977C71.3134-83.6977 77.0738-89.4581 77.0738-96.4755C77.0738-103.468 71.3134-109.236 64.3129-109.236C57.232-109.236 51.4631-103.468 51.4631-96.4755C51.4631-89.4581 57.232-83.6977 64.3129-83.6977ZM86.1905 37.8084C89.2802 36.9154 90.9055 33.3432 89.8516 30.245L80.6545 2.188C80.3328 1.29495 80.0831 0.964832 79.5117 0.232617L63.9024-17.6622L67.1529-53.2827C67.2333-54.4974 68.6893-54.6835 69.2691-53.7736L76.8326-42.147C77.9669-40.5133 79.5921-39.0489 81.1539-38.1474L100.094-27.9852C103.015-26.4404 106.595-27.5027 108.229-30.3512C109.693-33.2716 108.711-36.9327 105.863-38.4775L86.8423-48.5677L74.3058-68.0794C70.8944-73.3657 65.7773-76.5358 58.8657-76.5358L46.4096-76.5358L41.6142-30.3512C40.9624-24.3326 42.0248-20.5022 46.8286-15.546L69.6797 7.39393L78.6187 33.9865C79.9223 37.8084 83.2701 38.5406 86.1905 37.8084ZM32.9413-30.3512L43.8109-30.3512C49.1439-30.3512 52.8472-33.4701 52.8472-37.9309L52.8472-75.1439C52.8472-79.6047 49.1439-82.7237 43.8109-82.7237L36.031-82.7237C29.7548-82.7237 25.4335-78.3304 25.4335-71.9738L25.4335-37.9309C25.4335-33.5083 28.5907-30.3512 32.9413-30.3512ZM17.7981 36.2636C20.2276 38.7015 23.8887 38.6126 26.2461 36.2636L48.0433 14.4664C48.4539 14.0559 48.9364 13.6453 49.1861 13.0824L55.5561 0.253431L45.0723-10.3828L38.6854 7.07225L17.7981 27.9679C15.521 30.3254 15.4406 33.9865 17.7981 36.2636ZM103.379-57.9836C102.431-57.9836 101.606-57.1586 101.606-56.211L101.606-46.425L105.232-44.4027L105.232-56.211C105.232-57.1586 104.399-57.9836 103.379-57.9836ZM103.379 38.1852C104.399 38.1852 105.232 37.4238 105.232 36.4042L105.232-22.6061C104.035-22.3142 102.812-22.2507 101.606-22.4154L101.606 36.4042C101.606 37.4238 102.431 38.1852 103.379 38.1852Z"/>
  </g>
  <g id="Ultralight-L" transform="matrix(1 0 0 1 498.024 1556)">
   <path d="M63.4855-82.9349C70.3567-82.9349 76.0395-88.6178 76.0395-95.48C76.0395-102.356 70.3567-108.034 63.4855-108.034C56.5339-108.034 50.8555-102.356 50.8555-95.48C50.8555-88.6178 56.5339-82.9349 63.4855-82.9349ZM84.9881 36.7353C88.0261 35.8552 89.6255 32.3347 88.5846 29.3012L79.5555 1.72257C79.2339 0.842442 78.9971 0.525255 78.4386-0.194032L63.0879-17.7786L66.2867-52.7914C66.3671-53.9932 67.8102-54.1405 68.3641-53.2694L75.7983-41.8367C76.9196-40.2418 78.5191-38.8032 80.0291-37.9276L98.6591-27.9335C101.541-26.4145 105.057-27.451 106.652-30.2477C108.09-33.1294 107.134-36.7258 104.337-38.2448L85.627-48.154L73.3232-67.3424C69.9635-72.5383 64.924-75.6567 58.1288-75.6567L45.9054-75.6567L41.1876-30.2477C40.5487-24.3326 41.5852-20.5798 46.2985-15.7012L68.7617 6.838L77.5585 32.9781C78.8362 36.7353 82.1065 37.4546 84.9881 36.7353ZM32.3724-30.2477L43.3454-30.2477C48.6397-30.2477 52.2137-33.1469 52.2137-37.4267L52.2137-74.5492C52.2137-78.829 48.6397-81.7282 43.3454-81.7282L35.4104-81.7282C29.5092-81.7282 25.2784-77.4124 25.2784-71.4308L25.2784-37.4267C25.2784-33.2498 28.2804-30.2477 32.3724-30.2477ZM17.7593 35.2164C20.1629 37.6155 23.7594 37.5395 26.0781 35.2164L47.5003 13.7941C47.8979 13.3965 48.3805 12.9989 48.6172 12.4359L54.9614-0.328362L44.6456-10.8095L38.3104 6.51632L17.7593 27.0629C15.521 29.3816 15.4406 32.9781 17.7593 35.2164ZM102.086-56.82C101.358-56.82 100.688-56.1501 100.688-55.4223L100.688-45.5976L103.564-43.9631L103.564-55.4223C103.564-56.1501 102.899-56.82 102.086-56.82ZM102.086 37.1509C102.899 37.1509 103.564 36.5705 103.564 35.7577L103.564-22.7871C102.6-22.5728 101.649-22.4834 100.688-22.5189L100.688 35.7577C100.688 36.5705 101.358 37.1509 102.086 37.1509Z"/>
  </g>
  <g id="Black-M" transform="matrix(1 0 0 1 2878.72 1126)">
   <path d="M56.3251-77.6285C63.1086-77.6285 68.65-83.1699 68.65-89.9643C68.65-96.7423 63.1086-102.289 56.3251-102.289C49.5365-102.289 43.9896-96.7423 43.9896-89.9643C43.9896-83.1699 49.5365-77.6285 56.3251-77.6285ZM75.8708 30.7474C79.3452 29.7139 81.059 25.9228 79.9581 22.6143L71.7614-2.22435C71.4551-3.20067 71.0914-3.68377 70.4785-4.36419L57.093-19.8017L59.7213-48.948C59.7836-49.4884 60.3967-49.6294 60.6725-49.156L66.3505-40.5066C67.3996-38.9015 68.9992-37.3693 70.6046-36.5017L87.366-27.5003C90.4248-25.8488 94.3927-27.0123 96.112-30.1285C97.8154-33.1873 96.6-37.2745 93.541-38.869L76.9457-47.6994L65.9958-64.6169C62.7861-69.5616 57.9715-72.6415 51.4271-72.6415L39.3405-72.6415L35.0035-30.8136C34.4425-25.1885 35.4348-21.3708 40.0056-16.7379L60.0189 3.34319L67.7893 26.5926C69.1968 30.8045 72.9833 31.4849 75.8708 30.7474ZM29.8714-29.5575L38.0726-29.5575C43.2289-29.5575 47.2865-33.6119 47.2865-38.652L47.2865-68.9597C47.2865-74.0568 43.2289-78.1112 38.0726-78.1112L32.5465-78.1112C25.0879-78.1112 20.7196-73.7432 20.7196-66.2223L20.7196-38.652C20.7196-33.3613 24.5234-29.5575 29.8714-29.5575ZM14.3568 29.0387C16.9221 31.6666 20.8381 31.4846 23.3465 29.0387L42.6586 9.78376C43.0898 9.35255 43.6349 8.86425 43.9415 8.25683L47.961-0.0783756L37.1688-10.8755L32.5673 1.83786L14.3568 20.111C11.8535 22.6766 11.7912 26.6497 14.3568 29.0387ZM90.3221-59.5014C87.6644-59.5014 85.4961-57.3332 85.4961-54.6755L85.4961-50.1169L95.1532-44.9844L95.1532-54.6755C95.1532-57.3332 92.9794-59.5014 90.3221-59.5014ZM90.3221 31.3279C92.9794 31.3279 95.1532 29.1539 95.1532 26.4965L95.1532-21.5817C92.1318-20.3341 88.6372-20.2828 85.4961-21.599L85.4961 26.4965C85.4961 29.1539 87.6644 31.3279 90.3221 31.3279Z"/>
  </g>
  <g id="Heavy-M" transform="matrix(1 0 0 1 2582.83 1126)">
   <path d="M55.4743-77.1138C62.0435-77.1138 67.3944-82.4647 67.3944-89.0668C67.3944-95.6196 62.0435-100.987 55.4743-100.987C48.8864-100.987 43.5191-95.6196 43.5191-89.0668C43.5191-82.4647 48.8864-77.1138 55.4743-77.1138ZM74.7167 29.4167C77.9787 28.4532 79.6066 24.861 78.5622 21.7134L70.4796-2.78801C70.1868-3.70788 69.8526-4.14799 69.2692-4.81239L55.9752-20.1346L58.6202-49.4167C58.6825-50.0624 59.4278-50.2362 59.7659-49.6761L65.5935-40.7821C66.613-39.2251 68.1537-37.7654 69.7085-36.9164L86.2333-28.0426C89.1362-26.477 92.8757-27.5815 94.52-30.5257C96.1105-33.4286 94.981-37.2741 92.0804-38.796L75.6678-47.5367L64.8178-64.296C61.6992-69.115 57.0212-72.0903 50.6616-72.0903L38.9578-72.0903L34.7036-31.0492C34.1451-25.5658 35.1188-21.8847 39.5639-17.375L59.3523 2.49214L67.0406 25.4903C68.3757 29.4604 71.9447 30.1247 74.7167 29.4167ZM29.3143-30.0895L37.4819-30.0895C42.4285-30.0895 46.3123-33.9388 46.3123-38.7544L46.3123-68.7882C46.3123-73.6474 42.4285-77.4966 37.4819-77.4966L31.9656-77.4966C24.8103-77.4966 20.6081-73.2921 20.6081-66.0745L20.6081-38.7544C20.6081-33.7009 24.2195-30.0895 29.3143-30.0895ZM14.2548 27.8075C16.6802 30.293 20.3948 30.127 22.7743 27.8075L41.8235 8.8019C42.2387 8.38672 42.7434 7.92792 43.034 7.36093L47.2909-1.40616L36.9901-11.728L32.2641 1.28324L14.2548 19.3526C11.8939 21.7757 11.8316 25.5339 14.2548 27.8075ZM88.9749-58.894C86.5898-58.894 84.6543-56.9586 84.6543-54.5734L84.6543-49.3334L93.3142-44.7223L93.3142-54.5734C93.3142-56.9586 91.3623-58.894 88.9749-58.894ZM88.9749 29.8971C91.3623 29.8971 93.3142 27.9476 93.3142 25.5602L93.3142-22.3451C90.5948-21.2746 87.4773-21.2451 84.6543-22.3875L84.6543 25.5602C84.6543 27.9476 86.5898 29.8971 88.9749 29.8971Z"/>
  </g>
  <g id="Bold-M" transform="matrix(1 0 0 1 2287.04 1126)">
   <path d="M54.5225-76.5381C60.8521-76.5381 65.9899-81.6759 65.9899-88.0627C65.9899-94.3637 60.8521-99.5301 54.5225-99.5301C48.1592-99.5301 42.9928-94.3637 42.9928-88.0627C42.9928-81.6759 48.1592-76.5381 54.5225-76.5381ZM73.4257 27.9282C76.4502 27.043 77.9819 23.6732 77.0006 20.7058L69.0457-3.41855C68.7679-4.27526 68.4667-4.6673 67.9163-5.31376L54.7248-20.5071L57.3885-49.9411C57.4508-50.7045 58.344-50.915 58.7518-50.2579L64.7467-41.0903C65.7332-39.5871 67.2078-38.2085 68.7059-37.3803L84.9662-28.6491C87.6947-27.1797 91.1787-28.2182 92.7391-30.9701C94.2033-33.6986 93.17-37.2735 90.4466-38.7144L74.2383-47.3548L63.5001-63.937C60.4833-68.6154 55.9582-71.4738 49.8051-71.4738L38.5298-71.4738L34.368-31.3127C33.8124-25.9879 34.7653-22.4596 39.0698-18.0876L58.6066 1.54011L66.2032 24.2573C67.4571 27.9568 70.7829 28.6033 73.4257 27.9282ZM28.691-30.6846L36.8213-30.6846C41.5331-30.6846 45.2226-34.3044 45.2226-38.8689L45.2226-68.5963C45.2226-73.1894 41.5331-76.8091 36.8213-76.8091L31.3158-76.8091C24.4997-76.8091 20.4833-72.7876 20.4833-65.9092L20.4833-38.8689C20.4833-34.0808 23.8795-30.6846 28.691-30.6846ZM14.1407 26.4303C16.4096 28.7564 19.8989 28.6084 22.1342 26.4303L40.8895 7.70354C41.2867 7.3063 41.7462 6.88051 42.0188 6.35873L46.5413-2.89148L36.7902-12.6815L31.9249 0.662832L14.1407 18.5042C11.9392 20.7681 11.8769 24.2858 14.1407 26.4303ZM87.4679-58.2145C85.3877-58.2145 83.7127-56.5395 83.7127-54.4593L83.7127-48.457L91.257-44.4291L91.257-54.4593C91.257-56.5395 89.5534-58.2145 87.4679-58.2145ZM87.4679 28.2966C89.5534 28.2966 91.257 26.5981 91.257 24.5127L91.257-23.1991C88.8755-22.3266 86.1798-22.3215 83.7127-23.2696L83.7127 24.5127C83.7127 26.5981 85.3877 28.2966 87.4679 28.2966Z"/>
  </g>
  <g id="Semibold-M" transform="matrix(1 0 0 1 1990.97 1126)">
   <path d="M53.8663-76.1412C60.0307-76.1412 65.0216-81.1321 65.0216-87.3705C65.0216-93.4979 60.0307-98.5258 53.8663-98.5258C47.6578-98.5258 42.6299-93.4979 42.6299-87.3705C42.6299-81.1321 47.6578-76.1412 53.8663-76.1412ZM72.5357 26.9021C75.3965 26.0707 76.8619 22.8544 75.9241 20.0111L68.0571-3.85324C67.7898-4.66641 67.5113-5.0253 66.9837-5.6594L53.8627-20.7638L56.5394-50.3027C56.6017-51.1472 57.5968-51.3829 58.0526-50.6591L64.1629-41.3028C65.1267-39.8366 66.5558-38.514 68.0148-37.7001L84.0926-29.0673C86.7009-27.6642 90.0088-28.6571 91.5113-31.2765C92.8884-33.8848 91.9214-37.2731 89.3203-38.6581L73.2528-47.2293L62.5916-63.6895C59.6451-68.271 55.2253-71.0487 49.2147-71.0487L38.2346-71.0487L34.1367-31.4944C33.583-26.2788 34.5216-22.8559 38.7292-18.5789L58.0925 0.883789L65.6258 23.4073C66.8239 26.9202 69.9819 27.5543 72.5357 26.9021ZM28.2613-31.0949L36.3658-31.0949C40.9158-31.0949 44.4713-34.5565 44.4713-38.9479L44.4713-68.464C44.4713-72.8736 40.9158-76.3351 36.3658-76.3351L30.8678-76.3351C24.2856-76.3351 20.3973-72.4398 20.3973-65.7952L20.3973-38.9479C20.3973-34.3428 23.6451-31.0949 28.2613-31.0949ZM14.062 25.4808C16.2231 27.6971 19.557 27.5614 21.6929 25.4808L40.2455 6.94634C40.6304 6.56146 41.0587 6.15843 41.3189 5.66782L46.0246-3.91545L36.6524-13.3389L31.6911 0.235124L14.062 17.9194C11.9703 20.0734 11.908 23.4254 14.062 25.4808ZM86.4291-57.7461C84.559-57.7461 83.0635-56.2506 83.0635-54.3805L83.0635-47.8528L89.8388-44.227L89.8388-54.3805C89.8388-56.2506 88.3063-57.7461 86.4291-57.7461ZM86.4291 27.1933C88.3063 27.1933 89.8388 25.6678 89.8388 23.7907L89.8388-23.7879C87.6903-23.0519 85.2854-23.0637 83.0635-23.8777L83.0635 23.7907C83.0635 25.6678 84.559 27.1933 86.4291 27.1933Z"/>
  </g>
  <g id="Medium-M" transform="matrix(1 0 0 1 1694.74 1126)">
   <path d="M53.3688-75.8403C59.4079-75.8403 64.2874-80.7197 64.2874-86.8457C64.2874-92.8414 59.4079-97.7643 53.3688-97.7643C47.2777-97.7643 42.3548-92.8414 42.3548-86.8457C42.3548-80.7197 47.2777-75.8403 53.3688-75.8403ZM71.8609 26.124C74.5974 25.3336 76.0126 22.2335 75.1078 19.4843L67.3076-4.18284C67.0481-4.963 66.7869-5.29675 66.2765-5.92148L53.2091-20.9585L55.8956-50.5768C55.9579-51.4828 57.0303-51.7377 57.5224-50.9632L63.7202-41.4639C64.6667-40.0259 66.0613-38.7456 67.4908-37.9425L83.4303-29.3844C85.9474-28.0315 89.1218-28.99 90.5804-31.5088C91.8915-34.0259 90.9747-37.2729 88.4662-38.6154L72.5055-47.1342L61.9028-63.5019C59.0096-68.0098 54.6696-70.7264 48.7671-70.7264L38.0109-70.7264L33.9613-31.6321C33.4091-26.4994 34.3368-23.1564 38.4709-18.9514L57.7027 0.386138L65.188 22.7627C66.3437 26.1343 69.3746 26.759 71.8609 26.124ZM27.9355-31.406L36.0204-31.406C40.4478-31.406 43.9016-34.7476 43.9016-39.0078L43.9016-68.3637C43.9016-72.6342 40.4478-75.9758 36.0204-75.9758L30.5282-75.9758C24.1232-75.9758 20.3321-72.176 20.3321-65.7088L20.3321-39.0078C20.3321-34.5414 23.4674-31.406 27.9355-31.406ZM14.0024 24.7609C16.0817 26.8939 19.2978 26.7676 21.3583 24.7609L39.7572 6.3722C40.1327 5.99669 40.5374 5.61091 40.7883 5.14395L45.6328-4.69186L36.5479-13.8374L31.5138-0.0891825L14.0024 17.4759C11.994 19.5466 11.9317 22.773 14.0024 24.7609ZM85.6413-57.3909C83.9306-57.3909 82.5712-56.0316 82.5712-54.3209L82.5712-47.3947L88.7634-44.0737L88.7634-54.3209C88.7634-56.0316 87.3606-57.3909 85.6413-57.3909ZM85.6413 26.3566C87.3606 26.3566 88.7634 24.9625 88.7634 23.2431L88.7634-24.2343C86.7915-23.6018 84.6071-23.6264 82.5712-24.3388L82.5712 23.2431C82.5712 24.9625 83.9306 26.3566 85.6413 26.3566Z"/>
  </g>
  <g id="Regular-M" transform="matrix(1 0 0 1 1398.66 1126)">
   <path d="M52.7199-75.4477C58.5956-75.4477 63.3297-80.1819 63.3297-86.1611C63.3297-91.9851 58.5956-96.771 52.7199-96.771C46.7818-96.771 41.9959-91.9851 41.9959-86.1611C41.9959-80.1819 46.7818-75.4477 52.7199-75.4477ZM70.9807 25.1091C73.5553 24.372 74.9049 21.4236 74.0431 18.7973L66.3299-4.61275C66.0807-5.34985 65.842-5.65083 65.3541-6.26332L52.3566-21.2124L55.0558-50.9343C55.1181-51.9206 56.2913-52.2005 56.831-51.3599L63.1428-41.674C64.0669-40.2727 65.4165-39.0477 66.8073-38.2588L82.5663-29.7979C84.9646-28.5106 87.9647-29.4241 89.3661-31.8118C90.5911-34.21 89.7399-37.2725 87.3522-38.5598L71.5309-47.0101L61.0044-63.2571C58.1806-67.6692 53.9448-70.3061 48.1832-70.3061L37.719-70.3061L33.7325-31.8118C33.1823-26.7872 34.0958-23.5484 38.134-19.4373L57.1942-0.262972L64.617 21.922C65.7174 25.1091 68.5824 25.7216 70.9807 25.1091ZM27.5106-31.8118L35.57-31.8118C39.8373-31.8118 43.1586-34.9969 43.1586-39.0859L43.1586-68.2329C43.1586-72.3219 39.8373-75.507 35.57-75.507L30.0852-75.507C23.9114-75.507 20.247-71.832 20.247-65.596L20.247-39.0859C20.247-34.8004 23.2356-31.8118 27.5106-31.8118ZM13.9246 23.8218C15.8972 25.8462 18.9597 25.7322 20.9218 23.8218L39.1203 5.62332C39.4836 5.26004 39.8574 4.89676 40.0961 4.46063L45.1217-5.70458L36.4116-14.4875L31.2825-0.512191L13.9246 16.8975C12.0248 18.8596 11.9625 21.922 13.9246 23.8218ZM84.6138-56.9277C83.111-56.9277 81.9292-55.7459 81.9292-54.243L81.9292-46.7971L87.3608-43.8738L87.3608-54.243C87.3608-55.7459 86.1273-56.9277 84.6138-56.9277ZM84.6138 25.2654C86.1273 25.2654 87.3608 24.0424 87.3608 22.529L87.3608-24.8166C85.6193-24.3191 83.7225-24.3603 81.9292-24.9402L81.9292 22.529C81.9292 24.0424 83.111 25.2654 84.6138 25.2654Z"/>
  </g>
  <g id="Light-M" transform="matrix(1 0 0 1 1103 1126)">
   <path d="M51.6248-74.4382C57.3294-74.4382 61.9609-79.0696 61.9609-84.8436C61.9609-90.5136 57.3294-95.1797 51.6248-95.1797C45.8578-95.1797 41.1917-90.5136 41.1917-84.8436C41.1917-79.0696 45.8578-74.4382 51.6248-74.4382ZM69.3894 23.6889C71.8955 22.9689 73.2109 20.0889 72.3663 17.5482L64.8755-5.22874C64.6263-5.94874 64.4047-6.2326 63.9339-6.82798L51.2786-21.3664L53.9093-50.2841C53.9716-51.2533 55.1278-51.4818 55.6332-50.6926L61.774-41.2634C62.6809-39.9133 63.9962-38.7226 65.3186-37.9679L80.667-29.7295C83.0139-28.4764 85.9285-29.3557 87.2786-31.6749C88.4693-34.0218 87.6524-36.9987 85.3332-38.2518L69.9224-46.4626L59.7039-62.2818C56.9486-66.5741 52.8155-69.1425 47.2078-69.1425L37.0517-69.1425L33.1678-31.6749C32.6347-26.7872 33.514-23.651 37.4325-19.6426L55.9794-0.998742L63.2139 20.5874C64.2801 23.6889 67.0425 24.2843 69.3894 23.6889ZM26.7577-31.6749L34.954-31.6749C39.17-31.6749 42.3201-34.5691 42.3201-38.4185L42.3201-67.4458C42.3201-71.2953 39.17-74.1895 34.954-74.1895L29.2638-74.1895C23.5863-74.1895 20.0417-70.6172 20.0417-64.8774L20.0417-38.4185C20.0417-34.4582 22.825-31.6749 26.7577-31.6749ZM13.8733 22.4358C15.8117 24.4089 18.7886 24.312 20.6994 22.4358L38.4017 4.73355C38.7478 4.38738 39.1217 4.04122 39.3432 3.60508L44.3346-6.47457L35.8469-15.0522L30.7863-1.24796L13.8733 15.6997C12.0248 17.6105 11.9625 20.5874 13.8733 22.4358ZM82.9027-55.3877C81.6908-55.3877 80.7143-54.4112 80.7143-53.1992L80.7143-45.702L85.1535-43.292L85.1535-53.1992C85.1535-54.4112 84.1424-55.3877 82.9027-55.3877ZM82.9027 23.8965C84.1424 23.8965 85.1535 22.9131 85.1535 21.6734L85.1535-25.0561C83.72-24.6613 82.1825-24.6683 80.7143-25.0771L80.7143 21.6734C80.7143 22.9131 81.6908 23.8965 82.9027 23.8965Z"/>
  </g>
  <g id="Thin-M" transform="matrix(1 0 0 1 807.678 1126)">
   <path d="M50.1764-73.103C55.6547-73.103 60.1504-77.5987 60.1504-83.101C60.1504-88.5673 55.6547-93.075 50.1764-93.075C44.6358-93.075 40.128-88.5673 40.128-83.101C40.128-77.5987 44.6358-73.103 50.1764-73.103ZM67.2847 21.8106C69.7003 21.1132 70.9704 18.3238 70.1485 15.8961L62.9519-6.04344C62.7027-6.74081 62.5037-7.00204 62.0556-7.57479L49.8529-21.5701L52.3931-49.4241C52.4554-50.3707 53.5889-50.5314 54.0491-49.81L59.9635-40.7202C60.8478-39.4381 62.1179-38.2926 63.3497-37.5832L78.155-29.639C80.434-28.4312 83.2355-29.2651 84.5176-31.4939C85.6631-33.7729 84.8915-36.6366 82.6627-37.8444L67.7952-45.7384L57.984-60.9918C55.3192-65.1257 51.3219-67.6036 45.9179-67.6036L36.1691-67.6036L32.421-31.4939C31.9106-26.7872 32.7445-23.7868 36.5046-19.9142L54.3726-1.97186L61.3582 18.8222C62.3791 21.8106 65.0057 22.3833 67.2847 21.8106ZM25.7619-31.4939L34.1393-31.4939C38.2874-31.4939 41.2112-34.0033 41.2112-37.536L41.2112-66.4048C41.2112-69.9374 38.2874-72.4469 34.1393-72.4469L28.1776-72.4469C23.1564-72.4469 19.7701-69.0104 19.7701-63.9269L19.7701-37.536C19.7701-34.0056 22.2818-31.4939 25.7619-31.4939ZM13.8054 20.6028C15.6985 22.5079 18.5623 22.4336 20.4052 20.6028L37.4512 3.55676C37.7747 3.23322 38.1486 2.90969 38.3475 2.47355L43.2936-7.49295L35.1001-15.799L30.13-2.22108L13.8054 14.1156C12.0248 15.9584 11.9625 18.8222 13.8054 20.6028ZM80.6397-53.3509C79.8124-53.3509 79.1075-52.646 79.1075-51.8188L79.1075-44.2536L82.2341-42.5226L82.2341-51.8188C82.2341-52.646 81.5172-53.3509 80.6397-53.3509ZM80.6397 22.0861C81.5172 22.0861 82.2341 21.4195 82.2341 20.5419L82.2341-25.3729C81.208-25.114 80.1457-25.0757 79.1075-25.2581L79.1075 20.5419C79.1075 21.4195 79.8124 22.0861 80.6397 22.0861Z"/>
  </g>
  <g id="Ultralight-M" transform="matrix(1 0 0 1 511.679 1126)">
   <path d="M49.4346-72.4191C54.797-72.4191 59.2231-76.8452 59.2231-82.2085C59.2231-87.5705 54.797-91.997 49.4346-91.997C44.0098-91.997 39.5833-87.5705 39.5833-82.2085C39.5833-76.8452 44.0098-72.4191 49.4346-72.4191ZM66.2067 20.8485C68.576 20.1627 69.8229 17.4196 69.0125 15.05L61.9666-6.46073C61.7174-7.1465 61.5301-7.39614 61.0935-7.9573L49.1226-21.6744L51.6165-48.9837C51.6788-49.9187 52.8007-50.0445 53.2377-49.3579L59.0362-40.442C59.9089-39.1947 61.1558-38.0724 62.3413-37.3862L76.8684-29.5926C79.1126-28.408 81.8561-29.2188 83.1035-31.4011C84.2258-33.6454 83.4773-36.4512 81.295-37.6358L66.7056-45.3675L57.1031-60.3311C54.4846-64.3839 50.5569-66.8154 45.2572-66.8154L35.717-66.8154L32.0385-31.4011C31.5396-26.7872 32.3504-23.8564 36.0294-20.0533L53.5496-2.47028L60.4078 17.9181C61.4055 20.8485 63.9625 21.4097 66.2067 20.8485ZM25.2519-31.4011L33.722-31.4011C37.8354-31.4011 40.6433-33.7135 40.6433-37.0839L40.6433-65.8716C40.6433-69.2419 37.8354-71.5544 33.722-71.5544L27.6212-71.5544C22.9361-71.5544 19.631-68.1874 19.631-63.44L19.631-37.0839C19.631-33.7737 22.0037-31.4011 25.2519-31.4011ZM13.7706 19.6639C15.6406 21.5343 18.4464 21.4716 20.2545 19.6639L36.9644 2.95401C37.2763 2.64207 37.6501 2.33012 37.8375 1.89399L42.7604-8.01456L34.7176-16.1815L29.7938-2.7195L13.7706 13.3042C12.0248 15.1123 11.9625 17.9181 13.7706 19.6639ZM79.4806-52.3077C78.8504-52.3077 78.2846-51.7419 78.2846-51.1117L78.2846-43.5118L80.7389-42.1285L80.7389-51.1117C80.7389-51.7419 80.1726-52.3077 79.4806-52.3077ZM79.4806 21.1588C80.1726 21.1588 80.7389 20.6544 80.7389 19.9624L80.7389-25.5352C79.9213-25.3458 79.1025-25.2843 78.2846-25.3508L78.2846 19.9624C78.2846 20.6544 78.8504 21.1588 79.4806 21.1588Z"/>
  </g>
  <g id="Black-S" transform="matrix(1 0 0 1 2890.36 696)">
   <path d="M44.3359-68.5547C49.707-68.5547 54.1016-72.9492 54.1016-78.3203C54.1016-83.6914 49.707-88.0859 44.3359-88.0859C38.9648-88.0859 34.5703-83.6914 34.5703-78.3203C34.5703-72.9492 38.9648-68.5547 44.3359-68.5547ZM59.7168 16.7969C62.5 15.9668 63.8672 12.9395 62.9883 10.3027L56.543-9.22852C56.2988-10.0098 56.0059-10.4004 55.5176-10.9375L45.0195-23.0469L47.0703-45.8008C47.1191-46.1914 47.5586-46.2891 47.7539-45.9473L52.1484-39.2578C52.9785-37.9883 54.248-36.7676 55.5176-36.084L68.7012-29.0039C71.1426-27.6855 74.3164-28.6133 75.6836-31.1035C77.0508-33.5449 76.0742-36.8164 73.6328-38.0859L60.5957-45.0195L52.002-58.3008C49.4629-62.207 45.6543-64.6484 40.4785-64.6484L30.9082-64.6484L27.4902-31.6895C27.0508-27.2461 27.832-24.2188 31.4453-20.5566L47.168-4.78516L53.2715 13.4766C54.3945 16.8457 57.4219 17.3828 59.7168 16.7969ZM23.5352-30.6152L29.9805-30.6152C34.082-30.6152 37.3047-33.8379 37.3047-37.8418L37.3047-61.6699C37.3047-65.7227 34.082-68.9453 29.9805-68.9453L25.6348-68.9453C19.7266-68.9453 16.2598-65.4785 16.2598-59.5215L16.2598-37.8418C16.2598-33.6426 19.2871-30.6152 23.5352-30.6152ZM11.2793 15.4297C13.3301 17.5293 16.4551 17.3828 18.457 15.4297L33.6426 0.292969C33.9844-0.0488281 34.4238-0.439453 34.668-0.927734L37.7441-7.32422L29.1504-15.918L25.5859-6.05469L11.2793 8.30078C9.27734 10.3516 9.22852 13.5254 11.2793 15.4297ZM71.0938-54.3457C68.9453-54.3457 67.1875-52.5879 67.1875-50.4395L67.1875-47.0703L75-42.9199L75-50.4395C75-52.5879 73.2422-54.3457 71.0938-54.3457ZM71.0938 17.2852C73.2422 17.2852 75 15.5273 75 13.3789L75-24.3164C72.5586-23.291 69.7266-23.2422 67.1875-24.3164L67.1875 13.3789C67.1875 15.5273 68.9453 17.2852 71.0938 17.2852Z"/>
  </g>
  <g id="Heavy-S" transform="matrix(1 0 0 1 2594.22 696)">
   <path d="M43.7482-68.2435C48.9579-68.2435 53.2027-72.4882 53.2027-77.721C53.2027-82.9193 48.9579-87.1755 43.7482-87.1755C38.5269-87.1755 34.2707-82.9193 34.2707-77.721C34.2707-72.4882 38.5269-68.2435 43.7482-68.2435ZM58.9331 15.8403C61.5435 15.0679 62.8415 12.2019 62.0087 9.69194L55.6325-9.63187C55.3999-10.367 55.13-10.7231 54.6648-11.2487L44.2013-23.3119L46.2751-46.2848C46.324-46.7676 46.8787-46.8999 47.1316-46.4774L51.6759-39.5459C52.483-38.311 53.7064-37.1479 54.9414-36.4758L67.9751-29.4764C70.2898-28.2272 73.2792-29.1088 74.5888-31.4608C75.8638-33.7754 74.9563-36.851 72.6417-38.0629L59.7083-44.9504L51.1607-58.151C48.6908-61.965 44.9859-64.3258 39.9484-64.3258L30.6662-64.3258L27.3058-31.9084C26.8664-27.5688 27.6361-24.6452 31.1572-21.0752L46.7531-5.419L52.8105 12.7044C53.8759 15.8776 56.7304 16.4032 58.9331 15.8403ZM23.1548-31.0877L29.5541-31.0877C33.4828-31.0877 36.5786-34.1721 36.5786-38.0147L36.5786-61.6238C36.5786-65.5037 33.4828-68.5881 29.5541-68.5881L25.2429-68.5881C19.5306-68.5881 16.1906-65.248 16.1906-59.4869L16.1906-38.0147C16.1906-33.9768 19.0797-31.0877 23.1548-31.0877ZM11.1986 14.5538C13.1342 16.5382 16.0978 16.4032 17.9961 14.5538L33.0203-0.433073C33.3505-0.763345 33.7554-1.13092 33.988-1.58463L37.2716-8.36142L29.0697-16.5749L25.39-6.43499L11.1986 7.80523C9.31192 9.74077 9.26309 12.7417 11.1986 14.5538ZM70.1603-54.023C68.2077-54.023 66.6228-52.4381 66.6228-50.4856L66.6228-46.5402L73.7093-42.7701L73.7093-50.4856C73.7093-52.4381 72.1128-54.023 70.1603-54.023ZM70.1603 16.2364C72.1128 16.2364 73.7093 14.64 73.7093 12.6874L73.7093-24.9387C71.4868-24.0516 68.9314-24.0259 66.6228-24.9733L66.6228 12.6874C66.6228 14.64 68.2077 16.2364 70.1603 16.2364Z"/>
  </g>
  <g id="Bold-S" transform="matrix(1 0 0 1 2298.14 696)">
   <path d="M43.0908-67.8955C48.1201-67.8955 52.1973-71.9727 52.1973-77.0508C52.1973-82.0557 48.1201-86.1572 43.0908-86.1572C38.0371-86.1572 33.9355-82.0557 33.9355-77.0508C33.9355-71.9727 38.0371-67.8955 43.0908-67.8955ZM58.0566 14.7705C60.4736 14.0625 61.6943 11.377 60.9131 9.00879L54.6143-10.083C54.3945-10.7666 54.1504-11.084 53.7109-11.5967L43.2861-23.6084L45.3857-46.8262C45.4346-47.4121 46.1182-47.583 46.4355-47.0703L51.1475-39.8682C51.9287-38.6719 53.1006-37.5732 54.2969-36.9141L67.1631-30.0049C69.3359-28.833 72.1191-29.6631 73.3643-31.8604C74.5361-34.0332 73.7061-36.8896 71.5332-38.0371L58.7158-44.873L50.2197-57.9834C47.8271-61.6943 44.2383-63.9648 39.3555-63.9648L30.3955-63.9648L27.0996-32.1533C26.6602-27.9297 27.417-25.1221 30.835-21.6553L46.2891-6.12793L52.2949 11.8408C53.2959 14.7949 55.957 15.3076 58.0566 14.7705ZM22.7295-31.6162L29.0771-31.6162C32.8125-31.6162 35.7666-34.5459 35.7666-38.208L35.7666-61.5723C35.7666-65.2588 32.8125-68.1885 29.0771-68.1885L24.8047-68.1885C19.3115-68.1885 16.1133-64.9902 16.1133-59.4482L16.1133-38.208C16.1133-34.3506 18.8477-31.6162 22.7295-31.6162ZM11.1084 13.5742C12.915 15.4297 15.6982 15.3076 17.4805 13.5742L32.3242-1.24512C32.6416-1.5625 33.0078-1.9043 33.2275-2.31934L36.7432-9.52148L28.9795-17.3096L25.1709-6.86035L11.1084 7.25098C9.35059 9.05762 9.30176 11.8652 11.1084 13.5742ZM69.1162-53.6621C67.3828-53.6621 65.9912-52.2705 65.9912-50.5371L65.9912-45.9473L72.2656-42.6025L72.2656-50.5371C72.2656-52.2705 70.8496-53.6621 69.1162-53.6621ZM69.1162 15.0635C70.8496 15.0635 72.2656 13.6475 72.2656 11.9141L72.2656-25.6348C70.2881-24.9023 68.042-24.9023 65.9912-25.708L65.9912 11.9141C65.9912 13.6475 67.3828 15.0635 69.1162 15.0635Z"/>
  </g>
  <g id="Semibold-S" transform="matrix(1 0 0 1 2001.87 696)">
   <path d="M42.6376-67.6556C47.5425-67.6556 51.5041-71.6172 51.5041-76.5887C51.5041-81.4603 47.5425-85.4552 42.6376-85.4552C37.6994-85.4552 33.7045-81.4603 33.7045-76.5887C33.7045-71.6172 37.6994-67.6556 42.6376-67.6556ZM57.4523 14.0329C59.736 13.3693 60.9034 10.8082 60.1577 8.53779L53.9122-10.394C53.7014-11.0421 53.475-11.3328 53.0533-11.8366L42.6552-23.8128L44.7726-47.1994C44.8214-47.8564 45.5938-48.054 45.9557-47.4791L50.7831-40.0903C51.5466-38.9207 52.6829-37.8665 53.8525-37.2162L66.6032-30.3692C68.6783-29.2507 71.3193-30.0452 72.52-32.1358C73.6208-34.2109 72.844-36.9163 70.7689-38.0193L58.0315-44.8197L49.571-57.8679C47.2317-61.5077 43.7229-63.716 38.9467-63.716L30.2089-63.716L26.9574-32.3222C26.518-28.1785 27.2659-25.4509 30.6128-22.0552L45.9691-6.6167L51.9395 11.2454C52.896 14.0484 55.4238 14.5522 57.4523 14.0329ZM22.4362-31.9806L28.7483-31.9806C32.3504-31.9806 35.2067-34.8036 35.2067-38.3413L35.2067-61.5367C35.2067-65.0899 32.3504-67.913 28.7483-67.913L24.5025-67.913C19.1604-67.913 16.06-64.8125 16.06-59.4216L16.06-38.3413C16.06-34.6083 18.6877-31.9806 22.4362-31.9806ZM11.0462 12.8988C12.764 14.6654 15.4228 14.5522 17.125 12.8988L31.8443-1.80498C32.1528-2.11348 32.4924-2.4375 32.7032-2.82588L36.3788-10.3213L28.9173-17.8161L25.0198-7.15361L11.0462 6.86885C9.37725 8.58662 9.32842 11.2609 11.0462 12.8988ZM68.3964-53.4133C66.8141-53.4133 65.5558-52.155 65.5558-50.5727L65.5558-45.5385L71.2703-42.487L71.2703-50.5727C71.2703-52.155 69.9787-53.4133 68.3964-53.4133ZM68.3964 14.2548C69.9787 14.2548 71.2703 12.9632 71.2703 11.3809L71.2703-26.1146C69.4616-25.4889 67.4288-25.5066 65.5558-26.2146L65.5558 11.3809C65.5558 12.9632 66.8141 14.2548 68.3964 14.2548Z"/>
  </g>
  <g id="Medium-S" transform="matrix(1 0 0 1 1705.5 696)">
   <path d="M42.2939-67.4736C47.1045-67.4736 50.9785-71.3477 50.9785-76.2383C50.9785-81.0088 47.1045-84.9229 42.2939-84.9229C37.4434-84.9229 33.5293-81.0088 33.5293-76.2383C33.5293-71.3477 37.4434-67.4736 42.2939-67.4736ZM56.9941 13.4736C59.1768 12.8438 60.3037 10.377 59.585 8.18066L53.3799-10.6299C53.1758-11.251 52.9629-11.5215 52.5547-12.0186L42.1768-23.9678L44.3076-47.4824C44.3564-48.1934 45.1963-48.4111 45.5918-47.7891L50.5068-40.2588C51.2568-39.1094 52.3662-38.0889 53.5156-37.4453L66.1787-30.6455C68.1797-29.5674 70.7129-30.335 71.8799-32.3447C72.9268-34.3457 72.1904-36.9365 70.1895-38.0059L57.5127-44.7793L49.0791-57.7803C46.7803-61.3662 43.332-63.5273 38.6367-63.5273L30.0674-63.5273L26.8496-32.4502C26.4102-28.3672 27.1514-25.7002 30.4443-22.3584L45.7266-6.9873L51.6699 10.7939C52.5928 13.4824 55.0195 13.9795 56.9941 13.4736ZM22.2139-32.2568L28.499-32.2568C32-32.2568 34.7822-34.999 34.7822-38.4424L34.7822-61.5098C34.7822-64.9619 32-67.7041 28.499-67.7041L24.2734-67.7041C19.0459-67.7041 16.0195-64.6777 16.0195-59.4014L16.0195-38.4424C16.0195-34.8037 18.5664-32.2568 22.2139-32.2568ZM10.999 12.3867C12.6494 14.0859 15.2139 13.9795 16.8555 12.3867L31.4805-2.22949C31.7822-2.53125 32.1016-2.8418 32.3057-3.20996L36.1025-10.9277L28.8701-18.2002L24.9053-7.37598L10.999 6.5791C9.39746 8.22949 9.34863 10.8027 10.999 12.3867ZM67.8506-53.2246C66.3828-53.2246 65.2256-52.0674 65.2256-50.5996L65.2256-45.2285L70.5156-42.3994L70.5156-50.5996C70.5156-52.0674 69.3184-53.2246 67.8506-53.2246ZM67.8506 13.6416C69.3184 13.6416 70.5156 12.4443 70.5156 10.9766L70.5156-26.4785C68.835-25.9336 66.9639-25.9648 65.2256-26.5986L65.2256 10.9766C65.2256 12.4443 66.3828 13.6416 67.8506 13.6416Z"/>
  </g>
  <g id="Regular-S" transform="matrix(1 0 0 1 1409.22 696)">
   <path d="M41.8457-67.2363C46.5332-67.2363 50.293-70.9961 50.293-75.7812C50.293-80.4199 46.5332-84.2285 41.8457-84.2285C37.1094-84.2285 33.3008-80.4199 33.3008-75.7812C33.3008-70.9961 37.1094-67.2363 41.8457-67.2363ZM56.3965 12.7441C58.4473 12.1582 59.5215 9.81445 58.8379 7.71484L52.6855-10.9375C52.4902-11.5234 52.2949-11.7676 51.9043-12.2559L41.5527-24.1699L43.7012-47.8516C43.75-48.6328 44.6777-48.877 45.1172-48.1934L50.1465-40.4785C50.8789-39.3555 51.9531-38.3789 53.0762-37.7441L65.625-31.0059C67.5293-29.9805 69.9219-30.7129 71.0449-32.6172C72.0215-34.5215 71.3379-36.9629 69.4336-37.9883L56.8359-44.7266L48.4375-57.666C46.1914-61.1816 42.8223-63.2812 38.2324-63.2812L29.8828-63.2812L26.709-32.6172C26.2695-28.6133 27.002-26.0254 30.2246-22.7539L45.4102-7.4707L51.3184 10.2051C52.1973 12.7441 54.4922 13.2324 56.3965 12.7441ZM21.9238-32.6172L28.1738-32.6172C31.543-32.6172 34.2285-35.2539 34.2285-38.5742L34.2285-61.4746C34.2285-64.7949 31.543-67.4316 28.1738-67.4316L23.9746-67.4316C18.8965-67.4316 15.9668-64.502 15.9668-59.375L15.9668-38.5742C15.9668-35.0586 18.4082-32.6172 21.9238-32.6172ZM10.9375 11.7188C12.5 13.3301 14.9414 13.2324 16.5039 11.7188L31.0059-2.7832C31.2988-3.07617 31.5918-3.36914 31.7871-3.71094L35.7422-11.7188L28.8086-18.7012L24.7559-7.66602L10.9375 6.20117C9.42383 7.76367 9.375 10.2051 10.9375 11.7188ZM67.1387-52.9785C65.8203-52.9785 64.7949-51.9531 64.7949-50.6348L64.7949-44.8242L69.5312-42.2852L69.5312-50.6348C69.5312-51.9531 68.457-52.9785 67.1387-52.9785ZM67.1387 12.8418C68.457 12.8418 69.5312 11.7676 69.5312 10.4492L69.5312-26.9531C68.0176-26.5137 66.3574-26.5625 64.7949-27.0996L64.7949 10.4492C64.7949 11.7676 65.8203 12.8418 67.1387 12.8418Z"/>
  </g>
  <g id="Light-S" transform="matrix(1 0 0 1 1113.44 696)">
   <path d="M40.877-66.3433C45.4131-66.3433 49.082-70.0122 49.082-74.6157C49.082-79.1182 45.4131-82.8208 40.877-82.8208C36.292-82.8208 32.5894-79.1182 32.5894-74.6157C32.5894-70.0122 36.292-66.3433 40.877-66.3433ZM54.9888 11.4878C56.979 10.917 58.023 8.6338 57.3545 6.60987L51.3989-11.4824C51.2036-12.0532 51.0234-12.2822 50.648-12.7554L40.5991-24.3062L42.687-47.2764C42.7358-48.0425 43.6484-48.2412 44.0576-47.603L48.9356-40.1152C49.6528-39.0376 50.6968-38.0913 51.7593-37.4868L63.9448-30.9453C65.8037-29.9502 68.1206-30.6523 69.1983-32.4961C70.1445-34.355 69.4912-36.7207 67.6475-37.7158L55.4131-44.2422L47.2871-56.8032C45.1016-60.2129 41.8233-62.252 37.3696-62.252L29.2925-62.252L26.2095-32.4961C25.7852-28.6133 26.4873-26.1162 29.604-22.9355L44.3355-8.12158L50.0772 9.02442C50.9258 11.4878 53.1299 11.9609 54.9888 11.4878ZM21.2578-32.4961L27.6289-32.4961C30.9526-32.4961 33.4868-34.8755 33.4868-37.9839L33.4868-60.7783C33.4868-63.8867 30.9526-66.2661 27.6289-66.2661L23.2481-66.2661C18.6089-66.2661 15.7852-63.4273 15.7852-58.7393L15.7852-37.9839C15.7852-34.7559 18.0449-32.4961 21.2578-32.4961ZM10.8921 10.4927C12.4243 12.0586 14.79 11.9761 16.3071 10.4927L30.3701-3.57031C30.648-3.84814 30.9409-4.12597 31.1211-4.46777L35.0459-12.3999L28.3091-19.2007L24.3169-8.31689L10.8921 5.14161C9.42383 6.6587 9.375 9.02442 10.8921 10.4927ZM65.625-51.6162C64.564-51.6162 63.7202-50.7725 63.7202-49.7114L63.7202-43.8555L67.5786-41.7705L67.5786-49.7114C67.5786-50.7725 66.7012-51.6162 65.625-51.6162ZM65.625 11.6309C66.7012 11.6309 67.5786 10.7686 67.5786 9.69239L67.5786-27.165C66.3374-26.8164 64.9951-26.835 63.7202-27.2207L63.7202 9.69239C63.7202 10.7686 64.564 11.6309 65.625 11.6309Z"/>
  </g>
  <g id="Thin-S" transform="matrix(1 0 0 1 817.959 696)">
   <path d="M39.5957-65.1621C43.9317-65.1621 47.4805-68.711 47.4805-73.0742C47.4805-77.3965 43.9317-80.959 39.5957-80.959C35.211-80.959 31.6485-77.3965 31.6485-73.0742C31.6485-68.711 35.211-65.1621 39.5957-65.1621ZM53.127 9.82619C55.0371 9.27541 56.041 7.07229 55.3926 5.14846L49.6973-12.2031C49.502-12.7539 49.3418-12.9629 48.9864-13.416L39.3379-24.4863L41.3457-46.5156C41.3945-47.2617 42.2871-47.4004 42.6563-46.8223L47.334-39.6348C48.0313-38.6172 49.0352-37.7109 50.0176-37.1465L61.7227-30.8652C63.5215-29.9102 65.7383-30.5723 66.7559-32.3359C67.6621-34.1348 67.0489-36.4004 65.2852-37.3555L53.5313-43.6016L45.7656-55.6621C43.6602-58.9317 40.502-60.8906 36.2285-60.8906L28.5117-60.8906L25.5488-32.3359C25.1445-28.6133 25.8067-26.2363 28.7832-23.1758L42.9141-8.98241L48.4356 7.46291C49.2442 9.82619 51.3281 10.2793 53.127 9.82619ZM20.377-32.3359L26.9082-32.3359C30.1719-32.3359 32.5059-34.375 32.5059-37.2031L32.5059-59.8574C32.5059-62.6856 30.1719-64.7246 26.9082-64.7246L22.2871-64.7246C18.2285-64.7246 15.5449-62.0059 15.5449-57.8984L15.5449-37.2031C15.5449-34.3555 17.5645-32.3359 20.377-32.3359ZM10.832 8.87112C12.3242 10.377 14.5898 10.3145 16.0469 8.87112L29.5293-4.61131C29.7871-4.86913 30.0801-5.12694 30.2402-5.46874L34.125-13.3008L27.6484-19.8613L23.7363-9.17772L10.832 3.74025C9.42383 5.19729 9.375 7.46291 10.832 8.87112ZM63.6231-49.8145C62.9024-49.8145 62.2988-49.211 62.2988-48.4903L62.2988-42.5742L64.9961-41.0899L64.9961-48.4903C64.9961-49.211 64.3789-49.8145 63.6231-49.8145ZM63.6231 10.0293C64.3789 10.0293 64.9961 9.44728 64.9961 8.69142L64.9961-27.4453C64.1153-27.2168 63.1934-27.1953 62.2988-27.3809L62.2988 8.69142C62.2988 9.44728 62.9024 10.0293 63.6231 10.0293Z"/>
  </g>
  <g id="Ultralight-S" transform="matrix(1 0 0 1 521.879 696)">
   <path d="M38.9395-64.5572C43.1729-64.5572 46.6602-68.0445 46.6602-72.2847C46.6602-76.5147 43.1729-80.0054 38.9395-80.0054C34.6572-80.0054 31.1665-76.5147 31.1665-72.2847C31.1665-68.0445 34.6572-64.5572 38.9395-64.5572ZM52.1734 8.97513C54.0425 8.4346 55.0259 6.27249 54.3877 4.39993L48.8257-12.5723C48.6304-13.1128 48.4805-13.3115 48.1353-13.7544L38.6919-24.5786L40.6587-46.126C40.7075-46.8618 41.5899-46.9697 41.9385-46.4224L46.5137-39.3887C47.2007-38.4019 48.1841-37.5161 49.1255-36.9722L60.5845-30.8242C62.3526-29.8896 64.5181-30.5313 65.5049-32.2539C66.3907-34.022 65.7979-36.2363 64.0752-37.1709L52.5674-43.2734L44.9864-55.0777C42.9219-58.2754 39.8252-60.1934 35.6441-60.1934L28.1118-60.1934L25.2105-32.2539C24.8164-28.6133 25.458-26.2978 28.3628-23.2988L42.1861-9.42332L47.5948 6.66311C48.3828 8.97513 50.4053 9.418 52.1734 8.97513ZM19.9258-32.2539L26.5391-32.2539C29.772-32.2539 32.0034-34.1187 32.0034-36.8032L32.0034-59.3858C32.0034-62.0703 29.772-63.9351 26.5391-63.9351L21.7949-63.9351C18.0337-63.9351 15.4219-61.2779 15.4219-57.4678L15.4219-36.8032C15.4219-34.1504 17.3184-32.2539 19.9258-32.2539ZM10.8013 8.04056C12.273 9.51566 14.4873 9.46341 15.9136 8.04056L29.0986-5.14451C29.3462-5.39207 29.6392-5.63963 29.7891-5.98143L33.6533-13.7622L27.3101-20.1997L23.439-9.61864L10.8013 3.02249C9.42383 4.44876 9.375 6.66311 10.8013 8.04056ZM62.5977-48.8916C62.0513-48.8916 61.5708-48.4112 61.5708-47.8648L61.5708-41.918L63.6734-40.7412L63.6734-47.8648C63.6734-48.4112 63.1895-48.8916 62.5977-48.8916ZM62.5977 9.20901C63.1895 9.20901 63.6734 8.77053 63.6734 8.17873L63.6734-27.5889C62.9771-27.4219 62.2705-27.3799 61.5708-27.4629L61.5708 8.17873C61.5708 8.77053 62.0513 9.20901 62.5977 9.20901Z"/>
  </g>
 </g>
</svg>
