<?xml version="1.0" encoding="UTF-8"?>
<!--Generator: Apple Native CoreSVG 175.5-->
<!DOCTYPE svg
PUBLIC "-//W3C//DTD SVG 1.1//EN"
       "http://www.w3.org/Graphics/SVG/1.1/DTD/svg11.dtd">
<svg version="1.1" xmlns="http://www.w3.org/2000/svg" xmlns:xlink="http://www.w3.org/1999/xlink" width="3300" height="2200">
 <!--glyph: "uni10107E.medium", point size: 100.0, font version: "18.0d11e1", template writer version: "90"-->
 <style>.monochrome-0 {fill:#000000}

.SFSymbolsPreview000000 {fill:#000000;opacity:1.0}
</style>
 <g id="Notes">
  <rect height="2200" id="artboard" style="fill:white;opacity:1" width="3300" x="0" y="0"/>
  <line style="fill:none;stroke:black;opacity:1;stroke-width:0.5;" x1="263" x2="3036" y1="292" y2="292"/>
  <text style="stroke:none;fill:black;font-family:sans-serif;font-size:13;font-weight:bold;" transform="matrix(1 0 0 1 263 322)">Weight/Scale Variations</text>
  <text style="stroke:none;fill:black;font-family:sans-serif;font-size:13;text-anchor:middle;" transform="matrix(1 0 0 1 559.711 322)">Ultralight</text>
  <text style="stroke:none;fill:black;font-family:sans-serif;font-size:13;text-anchor:middle;" transform="matrix(1 0 0 1 856.422 322)">Thin</text>
  <text style="stroke:none;fill:black;font-family:sans-serif;font-size:13;text-anchor:middle;" transform="matrix(1 0 0 1 1153.13 322)">Light</text>
  <text style="stroke:none;fill:black;font-family:sans-serif;font-size:13;text-anchor:middle;" transform="matrix(1 0 0 1 1449.84 322)">Regular</text>
  <text style="stroke:none;fill:black;font-family:sans-serif;font-size:13;text-anchor:middle;" transform="matrix(1 0 0 1 1746.56 322)">Medium</text>
  <text style="stroke:none;fill:black;font-family:sans-serif;font-size:13;text-anchor:middle;" transform="matrix(1 0 0 1 2043.27 322)">Semibold</text>
  <text style="stroke:none;fill:black;font-family:sans-serif;font-size:13;text-anchor:middle;" transform="matrix(1 0 0 1 2339.98 322)">Bold</text>
  <text style="stroke:none;fill:black;font-family:sans-serif;font-size:13;text-anchor:middle;" transform="matrix(1 0 0 1 2636.69 322)">Heavy</text>
  <text style="stroke:none;fill:black;font-family:sans-serif;font-size:13;text-anchor:middle;" transform="matrix(1 0 0 1 2933.4 322)">Black</text>
  <line style="fill:none;stroke:black;opacity:1;stroke-width:0.5;" x1="263" x2="3036" y1="1903" y2="1903"/>
  <g transform="matrix(1 0 0 1 263 1933)">
   <path d="M9.24805 0.830078C13.5547 0.830078 17.1387-2.74414 17.1387-7.05078C17.1387-11.3574 13.5449-14.9316 9.23828-14.9316C4.94141-14.9316 1.36719-11.3574 1.36719-7.05078C1.36719-2.74414 4.95117 0.830078 9.24805 0.830078ZM9.24805-0.654297C5.70312-0.654297 2.87109-3.49609 2.87109-7.05078C2.87109-10.6055 5.69336-13.4473 9.23828-13.4473C12.793-13.4473 15.6445-10.6055 15.6445-7.05078C15.6445-3.49609 12.8027-0.654297 9.24805-0.654297ZM5.6543-7.05078C5.6543-6.62109 5.95703-6.32812 6.40625-6.32812L8.50586-6.32812L8.50586-4.20898C8.50586-3.76953 8.79883-3.4668 9.22852-3.4668C9.67773-3.4668 9.9707-3.76953 9.9707-4.20898L9.9707-6.32812L12.0898-6.32812C12.5293-6.32812 12.832-6.62109 12.832-7.05078C12.832-7.49023 12.5293-7.79297 12.0898-7.79297L9.9707-7.79297L9.9707-9.90234C9.9707-10.3516 9.67773-10.6543 9.22852-10.6543C8.79883-10.6543 8.50586-10.3516 8.50586-9.90234L8.50586-7.79297L6.40625-7.79297C5.95703-7.79297 5.6543-7.49023 5.6543-7.05078Z"/>
  </g>
  <g transform="matrix(1 0 0 1 281.867 1933)">
   <path d="M11.709 2.91016C17.1582 2.91016 21.6699-1.61133 21.6699-7.05078C21.6699-12.5 17.1484-17.0117 11.6992-17.0117C6.25977-17.0117 1.74805-12.5 1.74805-7.05078C1.74805-1.61133 6.26953 2.91016 11.709 2.91016ZM11.709 1.25C7.09961 1.25 3.41797-2.44141 3.41797-7.05078C3.41797-11.6602 7.08984-15.3516 11.6992-15.3516C16.3086-15.3516 20.0098-11.6602 20.0098-7.05078C20.0098-2.44141 16.3184 1.25 11.709 1.25ZM7.17773-7.05078C7.17773-6.57227 7.50977-6.25 8.00781-6.25L10.8789-6.25L10.8789-3.36914C10.8789-2.88086 11.2109-2.53906 11.6895-2.53906C12.1777-2.53906 12.5195-2.87109 12.5195-3.36914L12.5195-6.25L15.4004-6.25C15.8887-6.25 16.2305-6.57227 16.2305-7.05078C16.2305-7.53906 15.8887-7.88086 15.4004-7.88086L12.5195-7.88086L12.5195-10.752C12.5195-11.25 12.1777-11.5918 11.6895-11.5918C11.2109-11.5918 10.8789-11.25 10.8789-10.752L10.8789-7.88086L8.00781-7.88086C7.50977-7.88086 7.17773-7.53906 7.17773-7.05078Z"/>
  </g>
  <g transform="matrix(1 0 0 1 305.646 1933)">
   <path d="M14.9707 5.66406C21.9336 5.66406 27.6953-0.0976562 27.6953-7.05078C27.6953-14.0137 21.9238-19.7754 14.9609-19.7754C8.00781-19.7754 2.25586-14.0137 2.25586-7.05078C2.25586-0.0976562 8.01758 5.66406 14.9707 5.66406ZM14.9707 3.84766C8.93555 3.84766 4.08203-1.01562 4.08203-7.05078C4.08203-13.0957 8.92578-17.9492 14.9609-17.9492C21.0059-17.9492 25.8691-13.0957 25.8691-7.05078C25.8691-1.01562 21.0156 3.84766 14.9707 3.84766ZM9.19922-7.05078C9.19922-6.5332 9.57031-6.17188 10.1172-6.17188L14.0625-6.17188L14.0625-2.2168C14.0625-1.67969 14.4336-1.29883 14.9512-1.29883C15.4883-1.29883 15.8594-1.66992 15.8594-2.2168L15.8594-6.17188L19.8145-6.17188C20.3516-6.17188 20.7324-6.5332 20.7324-7.05078C20.7324-7.59766 20.3613-7.96875 19.8145-7.96875L15.8594-7.96875L15.8594-11.9141C15.8594-12.4609 15.4883-12.8418 14.9512-12.8418C14.4336-12.8418 14.0625-12.4609 14.0625-11.9141L14.0625-7.96875L10.1172-7.96875C9.57031-7.96875 9.19922-7.59766 9.19922-7.05078Z"/>
  </g>
  <text style="stroke:none;fill:black;font-family:sans-serif;font-size:13;font-weight:bold;" transform="matrix(1 0 0 1 263 1953)">Design Variations</text>
  <text style="stroke:none;fill:black;font-family:sans-serif;font-size:13;" transform="matrix(1 0 0 1 263 1971)">Symbols are supported in up to nine weights and three scales.</text>
  <text style="stroke:none;fill:black;font-family:sans-serif;font-size:13;" transform="matrix(1 0 0 1 263 1989)">For optimal layout with text and other symbols, vertically align</text>
  <text style="stroke:none;fill:black;font-family:sans-serif;font-size:13;" transform="matrix(1 0 0 1 263 2007)">symbols with the adjacent text.</text>
  <line style="fill:none;stroke:#00AEEF;stroke-width:0.5;opacity:1.0;" x1="776" x2="776" y1="1919" y2="1933"/>
  <g transform="matrix(1 0 0 1 776 1933)">
   <path d="M3.31055 0.15625C3.82812 0.15625 4.08203-0.0390625 4.26758-0.585938L5.52734-4.0332L11.2891-4.0332L12.5488-0.585938C12.7344-0.0390625 12.9883 0.15625 13.4961 0.15625C14.0137 0.15625 14.3457-0.15625 14.3457-0.644531C14.3457-0.810547 14.3164-0.966797 14.2383-1.17188L9.6582-13.3691C9.43359-13.9648 9.0332-14.2676 8.4082-14.2676C7.80273-14.2676 7.39258-13.9746 7.17773-13.3789L2.59766-1.16211C2.51953-0.957031 2.49023-0.800781 2.49023-0.634766C2.49023-0.146484 2.80273 0.15625 3.31055 0.15625ZM6.00586-5.51758L8.37891-12.0898L8.42773-12.0898L10.8008-5.51758Z"/>
  </g>
  <line style="fill:none;stroke:#00AEEF;stroke-width:0.5;opacity:1.0;" x1="793.197" x2="793.197" y1="1919" y2="1933"/>
  <text style="stroke:none;fill:black;font-family:sans-serif;font-size:13;font-weight:bold;" transform="matrix(1 0 0 1 776 1953)">Margins</text>
  <text style="stroke:none;fill:black;font-family:sans-serif;font-size:13;" transform="matrix(1 0 0 1 776 1971)">Leading and trailing margins on the left and right side of each symbol</text>
  <text style="stroke:none;fill:black;font-family:sans-serif;font-size:13;" transform="matrix(1 0 0 1 776 1989)">can be adjusted by modifying the x-location of the margin guidelines.</text>
  <text style="stroke:none;fill:black;font-family:sans-serif;font-size:13;" transform="matrix(1 0 0 1 776 2007)">Modifications are automatically applied proportionally to all</text>
  <text style="stroke:none;fill:black;font-family:sans-serif;font-size:13;" transform="matrix(1 0 0 1 776 2025)">scales and weights.</text>
  <g transform="matrix(1 0 0 1 1289 1933)">
   <path d="M2.8418 1.86523L4.54102 3.57422C5.40039 4.44336 6.38672 4.38477 7.31445 3.35938L18.0078-8.42773L17.041-9.4043L6.42578 2.27539C6.07422 2.67578 5.74219 2.77344 5.27344 2.30469L4.10156 1.14258C3.63281 0.683594 3.74023 0.341797 4.14062-0.0195312L15.6152-10.8203L14.6387-11.7871L3.04688-0.898438C2.06055 0.0195312 1.98242 0.996094 2.8418 1.86523ZM9.25781-16.3281C8.83789-15.918 8.80859-15.3418 9.04297-14.9512C9.27734-14.5898 9.73633-14.3555 10.3809-14.5215C11.8457-14.8633 13.3691-14.9219 14.7949-13.9844L14.209-12.5293C13.8672-11.6992 14.043-11.1133 14.5801-10.5664L16.875-8.25195C17.3633-7.76367 17.7734-7.74414 18.3398-7.8418L19.4043-8.03711L20.0684-7.36328L20.0293-6.80664C19.9902-6.30859 20.1172-5.92773 20.6055-5.44922L21.3672-4.70703C21.8457-4.22852 22.4609-4.19922 22.9297-4.66797L25.8398-7.58789C26.3086-8.05664 26.2891-8.65234 25.8105-9.13086L25.0391-9.89258C24.5605-10.3711 24.1895-10.5273 23.7109-10.4883L23.1348-10.4395L22.4902-11.0742L22.7344-12.1973C22.8613-12.7637 22.7051-13.2031 22.1191-13.7891L19.9219-15.9766C16.582-19.2969 12.1484-19.2188 9.25781-16.3281ZM10.752-15.957C13.1836-17.7344 16.4746-17.4316 18.7012-15.2051L21.1328-12.793C21.3672-12.5586 21.4062-12.373 21.3379-12.0312L21.0156-10.5469L22.5195-9.0625L23.5059-9.12109C23.7598-9.13086 23.8379-9.11133 24.0332-8.91602L24.6094-8.33984L22.168-5.89844L21.5918-6.47461C21.3965-6.66992 21.3672-6.74805 21.377-7.01172L21.4453-7.98828L19.9512-9.47266L18.4277-9.21875C18.1055-9.15039 17.959-9.17969 17.7148-9.41406L15.7129-11.416C15.459-11.6504 15.4297-11.8164 15.5859-12.1875L16.4648-14.2773C14.9023-15.7324 12.8711-16.3574 10.8398-15.7617C10.6836-15.7227 10.625-15.8496 10.752-15.957Z"/>
  </g>
  <text style="stroke:none;fill:black;font-family:sans-serif;font-size:13;font-weight:bold;" transform="matrix(1 0 0 1 1289 1953)">Exporting</text>
  <text style="stroke:none;fill:black;font-family:sans-serif;font-size:13;" transform="matrix(1 0 0 1 1289 1971)">Symbols should be outlined when exporting to ensure the</text>
  <text style="stroke:none;fill:black;font-family:sans-serif;font-size:13;" transform="matrix(1 0 0 1 1289 1989)">design is preserved when submitting to Xcode.</text>
  <text id="template-version" style="stroke:none;fill:black;font-family:sans-serif;font-size:13;text-anchor:end;" transform="matrix(1 0 0 1 3036 1933)">Template v.4.0</text>
  <text style="stroke:none;fill:black;font-family:sans-serif;font-size:13;text-anchor:end;" transform="matrix(1 0 0 1 3036 1951)">Requires Xcode 14 or greater</text>
  <text id="descriptive-name" style="stroke:none;fill:black;font-family:sans-serif;font-size:13;text-anchor:end;" transform="matrix(1 0 0 1 3036 1969)">Generated from box.truck</text>
  <text style="stroke:none;fill:black;font-family:sans-serif;font-size:13;text-anchor:end;" transform="matrix(1 0 0 1 3036 1987)">Typeset at 100 points</text>
  <text style="stroke:none;fill:black;font-family:sans-serif;font-size:13;" transform="matrix(1 0 0 1 263 726)">Small</text>
  <text style="stroke:none;fill:black;font-family:sans-serif;font-size:13;" transform="matrix(1 0 0 1 263 1156)">Medium</text>
  <text style="stroke:none;fill:black;font-family:sans-serif;font-size:13;" transform="matrix(1 0 0 1 263 1586)">Large</text>
 </g>
 <g id="Guides">
  <g id="H-reference" style="fill:#27AAE1;stroke:none;" transform="matrix(1 0 0 1 339 696)">
   <path d="M0.993654 0L3.63775 0L29.3281-67.1323L30.0303-67.1323L30.0303-70.459L28.1226-70.459ZM11.6885-24.4799L46.9815-24.4799L46.2315-26.7285L12.4385-26.7285ZM55.1196 0L57.7637 0L30.6382-70.459L29.4326-70.459L29.4326-67.1323Z"/>
  </g>
  <line id="Baseline-S" style="fill:none;stroke:#27AAE1;opacity:1;stroke-width:0.5;" x1="263" x2="3036" y1="696" y2="696"/>
  <line id="Capline-S" style="fill:none;stroke:#27AAE1;opacity:1;stroke-width:0.5;" x1="263" x2="3036" y1="625.541" y2="625.541"/>
  <g id="H-reference" style="fill:#27AAE1;stroke:none;" transform="matrix(1 0 0 1 339 1126)">
   <path d="M0.993654 0L3.63775 0L29.3281-67.1323L30.0303-67.1323L30.0303-70.459L28.1226-70.459ZM11.6885-24.4799L46.9815-24.4799L46.2315-26.7285L12.4385-26.7285ZM55.1196 0L57.7637 0L30.6382-70.459L29.4326-70.459L29.4326-67.1323Z"/>
  </g>
  <line id="Baseline-M" style="fill:none;stroke:#27AAE1;opacity:1;stroke-width:0.5;" x1="263" x2="3036" y1="1126" y2="1126"/>
  <line id="Capline-M" style="fill:none;stroke:#27AAE1;opacity:1;stroke-width:0.5;" x1="263" x2="3036" y1="1055.54" y2="1055.54"/>
  <g id="H-reference" style="fill:#27AAE1;stroke:none;" transform="matrix(1 0 0 1 339 1556)">
   <path d="M0.993654 0L3.63775 0L29.3281-67.1323L30.0303-67.1323L30.0303-70.459L28.1226-70.459ZM11.6885-24.4799L46.9815-24.4799L46.2315-26.7285L12.4385-26.7285ZM55.1196 0L57.7637 0L30.6382-70.459L29.4326-70.459L29.4326-67.1323Z"/>
  </g>
  <line id="Baseline-L" style="fill:none;stroke:#27AAE1;opacity:1;stroke-width:0.5;" x1="263" x2="3036" y1="1556" y2="1556"/>
  <line id="Capline-L" style="fill:none;stroke:#27AAE1;opacity:1;stroke-width:0.5;" x1="263" x2="3036" y1="1485.54" y2="1485.54"/>
  <line id="left-margin-Ultralight-S" style="fill:none;stroke:#00AEEF;stroke-width:0.5;opacity:1.0;" x1="496.224" x2="496.224" y1="600.785" y2="720.121"/>
  <line id="right-margin-Ultralight-S" style="fill:none;stroke:#00AEEF;stroke-width:0.5;opacity:1.0;" x1="623.198" x2="623.198" y1="600.785" y2="720.121"/>
  <line id="left-margin-Regular-S" style="fill:none;stroke:#00AEEF;stroke-width:0.5;opacity:1.0;" x1="1383.95" x2="1383.95" y1="600.785" y2="720.121"/>
  <line id="right-margin-Regular-S" style="fill:none;stroke:#00AEEF;stroke-width:0.5;opacity:1.0;" x1="1515.74" x2="1515.74" y1="600.785" y2="720.121"/>
  <line id="left-margin-Black-S" style="fill:none;stroke:#00AEEF;stroke-width:0.5;opacity:1.0;" x1="2857.69" x2="2857.69" y1="600.785" y2="720.121"/>
  <line id="right-margin-Black-S" style="fill:none;stroke:#00AEEF;stroke-width:0.5;opacity:1.0;" x1="3009.11" x2="3009.11" y1="600.785" y2="720.121"/>
 </g>
 <g id="Symbols">
  <g id="Black-S" transform="matrix(1 0 0 1 2857.69 696)">
   <path class="monochrome-0 SFSymbolsPreview000000" d="M25.6348 1.12305L31.6406 1.12305L31.6406-12.8906L27.2949-12.8906C24.9512-12.8906 23.8281-13.8184 23.8281-16.3574L23.8281-65.4785C23.8281-68.0176 24.9512-68.9453 27.2949-68.9453L83.8379-68.9453C86.1816-68.9453 87.3047-68.0176 87.3047-65.4785L87.3047-11.7676L101.367-11.7676L101.367-67.0898C101.367-77.0508 95.5078-82.959 85.5469-82.959L25.6348-82.959C15.6738-82.959 9.76562-77.0508 9.76562-67.0898L9.76562-14.7461C9.76562-4.78516 15.6738 1.12305 25.6348 1.12305ZM44.1406 12.5C53.8086 12.5 61.6211 4.58984 61.6211-5.0293C61.6211-14.6973 53.8086-22.5098 44.1406-22.5098C34.5215-22.5098 26.6113-14.6973 26.6113-5.0293C26.6113 4.58984 34.5215 12.5 44.1406 12.5ZM106.055 12.5C115.674 12.5 123.535 4.58984 123.535-5.0293C123.535-14.6973 115.674-22.5098 106.055-22.5098C96.3867-22.5098 88.5254-14.6973 88.5254-5.0293C88.5254 4.58984 96.3867 12.5 106.055 12.5ZM94.0918-47.6562L109.814-47.6562C111.865-47.6562 113.477-46.9727 114.697-45.6055L125.781-33.1543C127.002-31.7383 127.588-30.2734 127.588-27.832L127.588-16.3574C127.588-13.8184 126.465-12.8906 124.121-12.8906L119.775-12.8906L119.775 1.12305L125.781 1.12305C135.742 1.12305 141.65-4.78516 141.65-14.7461L141.65-29.7852C141.65-35.0098 140.771-37.5488 137.842-40.8203L123.73-56.7871C120.605-60.3027 117.041-61.7188 111.768-61.7188L94.0918-61.7188ZM109.131-29.3457L122.852-29.3457C122.852-30.1758 122.559-30.5664 122.021-31.1523L112.793-41.6016C111.67-42.8711 110.84-43.3105 109.033-43.3105L104.834-43.3105L104.834-33.6914C104.834-31.1035 106.543-29.3457 109.131-29.3457ZM56.7383 1.12305L93.0176 1.12305L93.0176-12.8906L56.7383-12.8906ZM44.1406 1.07422C40.8203 1.07422 38.0371-1.70898 38.0371-5.0293C38.0371-8.39844 40.8203-11.1328 44.1406-11.1328C47.5098-11.1328 50.1953-8.39844 50.1953-5.0293C50.1953-1.70898 47.5098 1.07422 44.1406 1.07422ZM106.055 1.07422C102.686 1.07422 99.9512-1.70898 99.9512-5.0293C99.9512-8.39844 102.686-11.1328 106.055-11.1328C109.424-11.1328 112.109-8.39844 112.109-5.0293C112.109-1.70898 109.424 1.07422 106.055 1.07422Z"/>
  </g>
  <g id="Regular-S" transform="matrix(1 0 0 1 1383.95 696)">
   <path class="monochrome-0 SFSymbolsPreview000000" d="M20.2637-3.07617L29.2969-3.07617L29.2969-10.1074L20.3613-10.1074C18.0176-10.1074 16.7969-11.3281 16.7969-13.6719L16.7969-64.2578C16.7969-66.6504 18.0176-67.8223 20.3613-67.8223L77.002-67.8223C79.3457-67.8223 80.5664-66.6504 80.5664-64.2578L80.5664-8.34961L87.5977-11.0352L87.5977-64.3555C87.5977-71.2891 83.9844-74.8535 77.0996-74.8535L20.2637-74.8535C13.3789-74.8535 9.76562-71.2891 9.76562-64.3555L9.76562-13.5742C9.76562-6.68945 13.3789-3.07617 20.2637-3.07617ZM38.5742 7.4707C45.8984 7.4707 51.8555 1.51367 51.8555-5.85938C51.8555-13.1836 45.8984-19.0918 38.5742-19.0918C31.25-19.0918 25.293-13.1836 25.293-5.85938C25.293 1.51367 31.25 7.4707 38.5742 7.4707ZM93.4082 7.4707C100.732 7.4707 106.689 1.51367 106.689-5.85938C106.689-13.1836 100.732-19.0918 93.4082-19.0918C86.084-19.0918 80.127-13.1836 80.127-5.85938C80.127 1.51367 86.084 7.4707 93.4082 7.4707ZM83.8379-46.7773L96.9727-46.7773C98.7793-46.7773 100.049-46.4844 101.66-44.6777L113.477-31.3965C114.502-30.2734 114.99-28.7109 114.99-27.3926L114.99-13.6719C114.99-11.3281 113.77-10.1074 111.426-10.1074L104.736-10.1074L104.736-3.07617L111.523-3.07617C118.408-3.07617 122.021-6.68945 122.021-13.5742L122.021-27.2949C122.021-31.3477 121.484-33.0078 119.238-35.5469L106.201-50.2441C103.809-52.9297 101.27-53.8086 97.3633-53.8086L83.8379-53.8086ZM94.9219-26.6602L110.645-26.6602C110.645-27.5879 110.303-28.125 109.717-28.7598L98.3398-41.5527C97.5098-42.4805 96.4844-43.0176 95.5566-43.0176L91.4062-43.0176L91.4062-30.1758C91.4062-27.9785 92.7246-26.6602 94.9219-26.6602ZM48.584-3.07617L83.3496-3.07617L83.3496-10.1074L48.584-10.1074ZM38.5742 1.5625C34.4727 1.5625 31.1523-1.75781 31.1523-5.85938C31.1523-9.91211 34.4727-13.2812 38.5742-13.2812C42.6758-13.2812 45.9473-9.91211 45.9473-5.85938C45.9473-1.75781 42.6758 1.5625 38.5742 1.5625ZM93.4082 1.5625C89.3066 1.5625 85.9863-1.75781 85.9863-5.85938C85.9863-9.91211 89.3066-13.2812 93.4082-13.2812C97.4121-13.2812 100.781-9.91211 100.781-5.85938C100.781-1.75781 97.5098 1.5625 93.4082 1.5625Z"/>
  </g>
  <g id="Ultralight-S" transform="matrix(1 0 0 1 496.224 696)">
   <path class="monochrome-0 SFSymbolsPreview000000" d="M19.6733-7.20846L25.21-7.20846L25.21-9.42627L19.771-9.42627C14.6118-9.42627 11.9834-12.0547 11.9834-17.2138L11.9834-64.4395C11.9834-69.5566 14.6118-72.227 19.771-72.227L72.7788-72.227C77.711-72.227 80.5664-69.5566 80.5664-64.4395L80.5664-7.48682L82.7842-7.58401L82.7842-64.5371C82.7842-70.9258 79.3526-74.4448 72.8765-74.4448L19.6733-74.4448C13.1973-74.4448 9.76562-71.0166 9.76562-64.5371L9.76562-17.1162C9.76562-10.6401 13.1973-7.20846 19.6733-7.20846ZM36.1675 4.06497C42.856 4.06497 48.2681-1.34715 48.2681-8.03905C48.2681-14.7275 42.856-20.1816 36.1675-20.1816C29.479-20.1816 24.0215-14.7275 24.0215-8.03905C24.0215-1.34715 29.479 4.06497 36.1675 4.06497ZM92.6816 4.06497C99.3247 4.06497 104.782-1.34715 104.782-8.03905C104.782-14.7275 99.3247-20.1816 92.6816-20.1816C85.9932-20.1816 80.5356-14.7275 80.5356-8.03905C80.5356-1.34715 85.9932 4.06497 92.6816 4.06497ZM81.2041-50.9096L94.5659-50.9096C97.1445-50.9096 99.0498-50.208 100.207-48.9008L113.25-34.3027C114.411-33.0434 114.99-31.4355 114.99-29.7539L114.99-17.2138C114.99-12.0547 112.316-9.42627 107.203-9.42627L103.238-9.42627L103.238-7.20846L107.3-7.20846C113.776-7.20846 117.208-10.6401 117.208-17.1162L117.208-29.6562C117.208-32.0288 116.489-34.0068 115.015-35.6831L101.978-50.335C100.312-52.2031 97.9546-53.1274 94.9566-53.1274L81.2041-53.1274ZM89.2002-30.5654L110.281-30.5654C110.281-31.4477 109.894-31.9394 109.354-32.5742L97.9312-45.3672C97.1465-46.2495 96.1665-46.7866 94.376-46.7866L87.0923-46.7866L87.0923-32.6733C87.0923-31.4297 87.9566-30.5654 89.2002-30.5654ZM47.1763-7.20846L82.5776-7.20846L82.5776-9.42627L47.1763-9.42627ZM36.1675 1.92578C30.6582 1.92578 26.2027-2.52978 26.2027-8.03905C26.2027-13.5449 30.6582-18.0039 36.1675-18.0039C41.6768-18.0039 46.1289-13.5449 46.1289-8.03905C46.1289-2.52978 41.6768 1.92578 36.1675 1.92578ZM92.6816 1.92578C87.1724 1.92578 82.6714-2.52978 82.6714-8.03905C82.6714-13.5449 87.1724-18.0039 92.6816-18.0039C98.1387-18.0039 102.643-13.5449 102.643-8.03905C102.643-2.52978 98.1455 1.92578 92.6816 1.92578Z"/>
  </g>
 </g>
</svg>
