<?xml version="1.0" encoding="UTF-8"?>
<!--Generator: Apple Native CoreSVG 175.5-->
<!DOCTYPE svg
PUBLIC "-//W3C//DTD SVG 1.1//EN"
       "http://www.w3.org/Graphics/SVG/1.1/DTD/svg11.dtd">
<svg version="1.1" xmlns="http://www.w3.org/2000/svg" xmlns:xlink="http://www.w3.org/1999/xlink" width="3300" height="2200">
 <!--glyph: "uni1012F8.medium", point size: 100.0, font version: "18.0d12e2", template writer version: "101"-->
 <style>.monochrome-0 {fill:#000000}

.SFSymbolsPreview000000 {fill:#000000;opacity:1.0}
</style>
 <g id="Notes">
  <rect height="2200" id="artboard" style="fill:white;opacity:1" width="3300" x="0" y="0"/>
  <line style="fill:none;stroke:black;opacity:1;stroke-width:0.5;" x1="263" x2="3036" y1="292" y2="292"/>
  <text style="stroke:none;fill:black;font-family:sans-serif;font-size:13;font-weight:bold;" transform="matrix(1 0 0 1 263 322)">Weight/Scale Variations</text>
  <text style="stroke:none;fill:black;font-family:sans-serif;font-size:13;text-anchor:middle;" transform="matrix(1 0 0 1 559.711 322)">Ultralight</text>
  <text style="stroke:none;fill:black;font-family:sans-serif;font-size:13;text-anchor:middle;" transform="matrix(1 0 0 1 856.422 322)">Thin</text>
  <text style="stroke:none;fill:black;font-family:sans-serif;font-size:13;text-anchor:middle;" transform="matrix(1 0 0 1 1153.13 322)">Light</text>
  <text style="stroke:none;fill:black;font-family:sans-serif;font-size:13;text-anchor:middle;" transform="matrix(1 0 0 1 1449.84 322)">Regular</text>
  <text style="stroke:none;fill:black;font-family:sans-serif;font-size:13;text-anchor:middle;" transform="matrix(1 0 0 1 1746.56 322)">Medium</text>
  <text style="stroke:none;fill:black;font-family:sans-serif;font-size:13;text-anchor:middle;" transform="matrix(1 0 0 1 2043.27 322)">Semibold</text>
  <text style="stroke:none;fill:black;font-family:sans-serif;font-size:13;text-anchor:middle;" transform="matrix(1 0 0 1 2339.98 322)">Bold</text>
  <text style="stroke:none;fill:black;font-family:sans-serif;font-size:13;text-anchor:middle;" transform="matrix(1 0 0 1 2636.69 322)">Heavy</text>
  <text style="stroke:none;fill:black;font-family:sans-serif;font-size:13;text-anchor:middle;" transform="matrix(1 0 0 1 2933.4 322)">Black</text>
  <line style="fill:none;stroke:black;opacity:1;stroke-width:0.5;" x1="263" x2="3036" y1="1903" y2="1903"/>
  <g transform="matrix(1 0 0 1 263 1933)">
   <path d="M9.24805 0.830078C13.5547 0.830078 17.1387-2.74414 17.1387-7.05078C17.1387-11.3574 13.5449-14.9316 9.23828-14.9316C4.94141-14.9316 1.36719-11.3574 1.36719-7.05078C1.36719-2.74414 4.95117 0.830078 9.24805 0.830078ZM9.24805-0.654297C5.70312-0.654297 2.87109-3.49609 2.87109-7.05078C2.87109-10.6055 5.69336-13.4473 9.23828-13.4473C12.793-13.4473 15.6445-10.6055 15.6445-7.05078C15.6445-3.49609 12.8027-0.654297 9.24805-0.654297ZM5.6543-7.05078C5.6543-6.62109 5.95703-6.32812 6.40625-6.32812L8.50586-6.32812L8.50586-4.20898C8.50586-3.76953 8.79883-3.4668 9.22852-3.4668C9.67773-3.4668 9.9707-3.76953 9.9707-4.20898L9.9707-6.32812L12.0898-6.32812C12.5293-6.32812 12.832-6.62109 12.832-7.05078C12.832-7.49023 12.5293-7.79297 12.0898-7.79297L9.9707-7.79297L9.9707-9.90234C9.9707-10.3516 9.67773-10.6543 9.22852-10.6543C8.79883-10.6543 8.50586-10.3516 8.50586-9.90234L8.50586-7.79297L6.40625-7.79297C5.95703-7.79297 5.6543-7.49023 5.6543-7.05078Z"/>
  </g>
  <g transform="matrix(1 0 0 1 281.867 1933)">
   <path d="M11.709 2.91016C17.1582 2.91016 21.6699-1.61133 21.6699-7.05078C21.6699-12.5 17.1484-17.0117 11.6992-17.0117C6.25977-17.0117 1.74805-12.5 1.74805-7.05078C1.74805-1.61133 6.26953 2.91016 11.709 2.91016ZM11.709 1.25C7.09961 1.25 3.41797-2.44141 3.41797-7.05078C3.41797-11.6602 7.08984-15.3516 11.6992-15.3516C16.3086-15.3516 20.0098-11.6602 20.0098-7.05078C20.0098-2.44141 16.3184 1.25 11.709 1.25ZM7.17773-7.05078C7.17773-6.57227 7.50977-6.25 8.00781-6.25L10.8789-6.25L10.8789-3.36914C10.8789-2.88086 11.2109-2.53906 11.6895-2.53906C12.1777-2.53906 12.5195-2.87109 12.5195-3.36914L12.5195-6.25L15.4004-6.25C15.8887-6.25 16.2305-6.57227 16.2305-7.05078C16.2305-7.53906 15.8887-7.88086 15.4004-7.88086L12.5195-7.88086L12.5195-10.752C12.5195-11.25 12.1777-11.5918 11.6895-11.5918C11.2109-11.5918 10.8789-11.25 10.8789-10.752L10.8789-7.88086L8.00781-7.88086C7.50977-7.88086 7.17773-7.53906 7.17773-7.05078Z"/>
  </g>
  <g transform="matrix(1 0 0 1 305.646 1933)">
   <path d="M14.9707 5.66406C21.9336 5.66406 27.6953-0.0976562 27.6953-7.05078C27.6953-14.0137 21.9238-19.7754 14.9609-19.7754C8.00781-19.7754 2.25586-14.0137 2.25586-7.05078C2.25586-0.0976562 8.01758 5.66406 14.9707 5.66406ZM14.9707 3.84766C8.93555 3.84766 4.08203-1.01562 4.08203-7.05078C4.08203-13.0957 8.92578-17.9492 14.9609-17.9492C21.0059-17.9492 25.8691-13.0957 25.8691-7.05078C25.8691-1.01562 21.0156 3.84766 14.9707 3.84766ZM9.19922-7.05078C9.19922-6.5332 9.57031-6.17188 10.1172-6.17188L14.0625-6.17188L14.0625-2.2168C14.0625-1.67969 14.4336-1.29883 14.9512-1.29883C15.4883-1.29883 15.8594-1.66992 15.8594-2.2168L15.8594-6.17188L19.8145-6.17188C20.3516-6.17188 20.7324-6.5332 20.7324-7.05078C20.7324-7.59766 20.3613-7.96875 19.8145-7.96875L15.8594-7.96875L15.8594-11.9141C15.8594-12.4609 15.4883-12.8418 14.9512-12.8418C14.4336-12.8418 14.0625-12.4609 14.0625-11.9141L14.0625-7.96875L10.1172-7.96875C9.57031-7.96875 9.19922-7.59766 9.19922-7.05078Z"/>
  </g>
  <text style="stroke:none;fill:black;font-family:sans-serif;font-size:13;font-weight:bold;" transform="matrix(1 0 0 1 263 1953)">Design Variations</text>
  <text style="stroke:none;fill:black;font-family:sans-serif;font-size:13;" transform="matrix(1 0 0 1 263 1971)">Symbols are supported in up to nine weights and three scales.</text>
  <text style="stroke:none;fill:black;font-family:sans-serif;font-size:13;" transform="matrix(1 0 0 1 263 1989)">For optimal layout with text and other symbols, vertically align</text>
  <text style="stroke:none;fill:black;font-family:sans-serif;font-size:13;" transform="matrix(1 0 0 1 263 2007)">symbols with the adjacent text.</text>
  <line style="fill:none;stroke:#00AEEF;stroke-width:0.5;opacity:1.0;" x1="776" x2="776" y1="1919" y2="1933"/>
  <g transform="matrix(1 0 0 1 776 1933)">
   <path d="M3.31055 0.15625C3.82812 0.15625 4.08203-0.0390625 4.26758-0.585938L5.52734-4.0332L11.2891-4.0332L12.5488-0.585938C12.7344-0.0390625 12.9883 0.15625 13.4961 0.15625C14.0137 0.15625 14.3457-0.15625 14.3457-0.644531C14.3457-0.810547 14.3164-0.966797 14.2383-1.17188L9.6582-13.3691C9.43359-13.9648 9.0332-14.2676 8.4082-14.2676C7.80273-14.2676 7.39258-13.9746 7.17773-13.3789L2.59766-1.16211C2.51953-0.957031 2.49023-0.800781 2.49023-0.634766C2.49023-0.146484 2.80273 0.15625 3.31055 0.15625ZM6.00586-5.51758L8.37891-12.0898L8.42773-12.0898L10.8008-5.51758Z"/>
  </g>
  <line style="fill:none;stroke:#00AEEF;stroke-width:0.5;opacity:1.0;" x1="793.197" x2="793.197" y1="1919" y2="1933"/>
  <text style="stroke:none;fill:black;font-family:sans-serif;font-size:13;font-weight:bold;" transform="matrix(1 0 0 1 776 1953)">Margins</text>
  <text style="stroke:none;fill:black;font-family:sans-serif;font-size:13;" transform="matrix(1 0 0 1 776 1971)">Leading and trailing margins on the left and right side of each symbol</text>
  <text style="stroke:none;fill:black;font-family:sans-serif;font-size:13;" transform="matrix(1 0 0 1 776 1989)">can be adjusted by modifying the x-location of the margin guidelines.</text>
  <text style="stroke:none;fill:black;font-family:sans-serif;font-size:13;" transform="matrix(1 0 0 1 776 2007)">Modifications are automatically applied proportionally to all</text>
  <text style="stroke:none;fill:black;font-family:sans-serif;font-size:13;" transform="matrix(1 0 0 1 776 2025)">scales and weights.</text>
  <g transform="matrix(1 0 0 1 1289 1933)">
   <path d="M2.8418 1.86523L4.54102 3.57422C5.40039 4.44336 6.38672 4.38477 7.31445 3.35938L18.0078-8.42773L17.041-9.4043L6.42578 2.27539C6.07422 2.67578 5.74219 2.77344 5.27344 2.30469L4.10156 1.14258C3.63281 0.683594 3.74023 0.341797 4.14062-0.0195312L15.6152-10.8203L14.6387-11.7871L3.04688-0.898438C2.06055 0.0195312 1.98242 0.996094 2.8418 1.86523ZM9.25781-16.3281C8.83789-15.918 8.80859-15.3418 9.04297-14.9512C9.27734-14.5898 9.73633-14.3555 10.3809-14.5215C11.8457-14.8633 13.3691-14.9219 14.7949-13.9844L14.209-12.5293C13.8672-11.6992 14.043-11.1133 14.5801-10.5664L16.875-8.25195C17.3633-7.76367 17.7734-7.74414 18.3398-7.8418L19.4043-8.03711L20.0684-7.36328L20.0293-6.80664C19.9902-6.30859 20.1172-5.92773 20.6055-5.44922L21.3672-4.70703C21.8457-4.22852 22.4609-4.19922 22.9297-4.66797L25.8398-7.58789C26.3086-8.05664 26.2891-8.65234 25.8105-9.13086L25.0391-9.89258C24.5605-10.3711 24.1895-10.5273 23.7109-10.4883L23.1348-10.4395L22.4902-11.0742L22.7344-12.1973C22.8613-12.7637 22.7051-13.2031 22.1191-13.7891L19.9219-15.9766C16.582-19.2969 12.1484-19.2188 9.25781-16.3281ZM10.752-15.957C13.1836-17.7344 16.4746-17.4316 18.7012-15.2051L21.1328-12.793C21.3672-12.5586 21.4062-12.373 21.3379-12.0312L21.0156-10.5469L22.5195-9.0625L23.5059-9.12109C23.7598-9.13086 23.8379-9.11133 24.0332-8.91602L24.6094-8.33984L22.168-5.89844L21.5918-6.47461C21.3965-6.66992 21.3672-6.74805 21.377-7.01172L21.4453-7.98828L19.9512-9.47266L18.4277-9.21875C18.1055-9.15039 17.959-9.17969 17.7148-9.41406L15.7129-11.416C15.459-11.6504 15.4297-11.8164 15.5859-12.1875L16.4648-14.2773C14.9023-15.7324 12.8711-16.3574 10.8398-15.7617C10.6836-15.7227 10.625-15.8496 10.752-15.957Z"/>
  </g>
  <text style="stroke:none;fill:black;font-family:sans-serif;font-size:13;font-weight:bold;" transform="matrix(1 0 0 1 1289 1953)">Exporting</text>
  <text style="stroke:none;fill:black;font-family:sans-serif;font-size:13;" transform="matrix(1 0 0 1 1289 1971)">Symbols should be outlined when exporting to ensure the</text>
  <text style="stroke:none;fill:black;font-family:sans-serif;font-size:13;" transform="matrix(1 0 0 1 1289 1989)">design is preserved when submitting to Xcode.</text>
  <text id="template-version" style="stroke:none;fill:black;font-family:sans-serif;font-size:13;text-anchor:end;" transform="matrix(1 0 0 1 3036 1933)">Template v.4.0</text>
  <text style="stroke:none;fill:black;font-family:sans-serif;font-size:13;text-anchor:end;" transform="matrix(1 0 0 1 3036 1951)">Requires Xcode 14 or greater</text>
  <text id="descriptive-name" style="stroke:none;fill:black;font-family:sans-serif;font-size:13;text-anchor:end;" transform="matrix(1 0 0 1 3036 1969)">Generated from beach.umbrella</text>
  <text style="stroke:none;fill:black;font-family:sans-serif;font-size:13;text-anchor:end;" transform="matrix(1 0 0 1 3036 1987)">Typeset at 100 points</text>
  <text style="stroke:none;fill:black;font-family:sans-serif;font-size:13;" transform="matrix(1 0 0 1 263 726)">Small</text>
  <text style="stroke:none;fill:black;font-family:sans-serif;font-size:13;" transform="matrix(1 0 0 1 263 1156)">Medium</text>
  <text style="stroke:none;fill:black;font-family:sans-serif;font-size:13;" transform="matrix(1 0 0 1 263 1586)">Large</text>
 </g>
 <g id="Guides">
  <g id="H-reference" style="fill:#27AAE1;stroke:none;" transform="matrix(1 0 0 1 339 696)">
   <path d="M0.993654 0L3.63775 0L29.3281-67.1323L30.0303-67.1323L30.0303-70.459L28.1226-70.459ZM11.6885-24.4799L46.9815-24.4799L46.2315-26.7285L12.4385-26.7285ZM55.1196 0L57.7637 0L30.6382-70.459L29.4326-70.459L29.4326-67.1323Z"/>
  </g>
  <line id="Baseline-S" style="fill:none;stroke:#27AAE1;opacity:1;stroke-width:0.5;" x1="263" x2="3036" y1="696" y2="696"/>
  <line id="Capline-S" style="fill:none;stroke:#27AAE1;opacity:1;stroke-width:0.5;" x1="263" x2="3036" y1="625.541" y2="625.541"/>
  <g id="H-reference" style="fill:#27AAE1;stroke:none;" transform="matrix(1 0 0 1 339 1126)">
   <path d="M0.993654 0L3.63775 0L29.3281-67.1323L30.0303-67.1323L30.0303-70.459L28.1226-70.459ZM11.6885-24.4799L46.9815-24.4799L46.2315-26.7285L12.4385-26.7285ZM55.1196 0L57.7637 0L30.6382-70.459L29.4326-70.459L29.4326-67.1323Z"/>
  </g>
  <line id="Baseline-M" style="fill:none;stroke:#27AAE1;opacity:1;stroke-width:0.5;" x1="263" x2="3036" y1="1126" y2="1126"/>
  <line id="Capline-M" style="fill:none;stroke:#27AAE1;opacity:1;stroke-width:0.5;" x1="263" x2="3036" y1="1055.54" y2="1055.54"/>
  <g id="H-reference" style="fill:#27AAE1;stroke:none;" transform="matrix(1 0 0 1 339 1556)">
   <path d="M0.993654 0L3.63775 0L29.3281-67.1323L30.0303-67.1323L30.0303-70.459L28.1226-70.459ZM11.6885-24.4799L46.9815-24.4799L46.2315-26.7285L12.4385-26.7285ZM55.1196 0L57.7637 0L30.6382-70.459L29.4326-70.459L29.4326-67.1323Z"/>
  </g>
  <line id="Baseline-L" style="fill:none;stroke:#27AAE1;opacity:1;stroke-width:0.5;" x1="263" x2="3036" y1="1556" y2="1556"/>
  <line id="Capline-L" style="fill:none;stroke:#27AAE1;opacity:1;stroke-width:0.5;" x1="263" x2="3036" y1="1485.54" y2="1485.54"/>
  <line id="left-margin-Ultralight-S" style="fill:none;stroke:#00AEEF;stroke-width:0.5;opacity:1.0;" x1="514.446" x2="514.446" y1="600.785" y2="720.121"/>
  <line id="right-margin-Ultralight-S" style="fill:none;stroke:#00AEEF;stroke-width:0.5;opacity:1.0;" x1="604.976" x2="604.976" y1="600.785" y2="720.121"/>
  <line id="left-margin-Regular-S" style="fill:none;stroke:#00AEEF;stroke-width:0.5;opacity:1.0;" x1="1401.97" x2="1401.97" y1="600.785" y2="720.121"/>
  <line id="right-margin-Regular-S" style="fill:none;stroke:#00AEEF;stroke-width:0.5;opacity:1.0;" x1="1497.72" x2="1497.72" y1="600.785" y2="720.121"/>
  <line id="left-margin-Black-S" style="fill:none;stroke:#00AEEF;stroke-width:0.5;opacity:1.0;" x1="2883.47" x2="2883.47" y1="600.785" y2="720.121"/>
  <line id="right-margin-Black-S" style="fill:none;stroke:#00AEEF;stroke-width:0.5;opacity:1.0;" x1="2983.33" x2="2983.33" y1="600.785" y2="720.121"/>
 </g>
 <g id="Symbols">
  <g id="Black-S" transform="matrix(1 0 0 1 2883.47 696)">
   <path class="monochrome-0 SFSymbolsPreview000000" d="M9.17969-48.584C7.95898-45.3125 9.57031-41.8457 12.6465-40.7227C15.3809-39.7461 17.6758-40.2344 21.9238-41.7969C23.4863-42.3828 25.0488-42.4316 26.6113-41.8945C28.125-41.3086 29.2969-39.9414 30.7129-36.9141C31.7383-34.7168 32.959-33.3496 34.9609-32.6172C36.7676-31.9336 38.7207-32.2266 40.8203-33.1543C41.1133-33.3008 41.4551-33.3984 41.7969-33.4961L28.6133 2.58789C27.3438 6.10352 29.1504 9.91211 32.6172 11.1816C36.084 12.4512 39.9414 10.6934 41.2109 7.17773L54.3457-28.9551C54.4922-28.6621 54.6875-28.3691 54.834-28.0762C55.8594-25.9766 57.1289-24.5117 58.9844-23.877C60.9375-23.1445 62.793-23.4375 64.9414-24.4141C68.0176-25.8789 69.8242-26.1719 71.3379-25.5859C72.8516-25.0488 74.0723-23.9746 74.8535-22.5586C77.1484-18.6035 78.5156-16.748 81.2988-15.7227C84.375-14.5996 87.8418-16.2598 89.0137-19.5312C93.9941-33.2031 90.7227-57.4707 68.8965-68.9941L70.3613-73.0957C71.6797-76.6602 69.873-80.3711 66.4062-81.6406C62.8906-82.9102 59.1797-81.25 57.8613-77.6367L56.3965-73.5352C32.2754-78.7598 14.1602-62.3047 9.17969-48.584ZM44.4336-45.459C48.4863-53.2715 54.248-58.0566 58.6914-60.4492C60.5957-55.7617 61.9141-48.3887 59.9609-39.7949C58.1543-42.041 55.6641-43.9453 53.0273-44.9219C50.3906-45.8984 47.2656-45.9961 44.4336-45.459ZM26.5625-54.0527C31.6895-59.082 38.8672-62.1094 46.4355-62.4023C42.7246-59.0332 39.1602-54.5898 36.4258-49.0234C34.9609-50.7324 33.0078-52.1973 30.5664-53.125C29.248-53.6133 27.9297-53.9551 26.5625-54.0527ZM68.4082-37.3535C69.873-43.4082 70.0195-49.0723 69.3359-54.0527C74.9512-48.9746 78.4668-42.041 79.1504-34.9121C78.0762-35.6934 76.8555-36.2793 75.5371-36.7676C73.0957-37.6465 70.6055-37.793 68.4082-37.3535Z"/>
  </g>
  <g id="Regular-S" transform="matrix(1 0 0 1 1401.97 696)">
   <path class="monochrome-0 SFSymbolsPreview000000" d="M9.08203-50.0977C8.20312-47.6074 9.42383-45.5566 11.2305-44.9219C12.5977-44.4336 13.916-45.0684 14.9902-45.9473C18.3105-48.3887 21.5332-49.5605 25.4883-48.1445C29.4434-46.7285 30.957-43.7988 31.5918-39.8438C31.7871-38.4766 32.2754-37.207 33.5449-36.8164C34.9121-36.2793 36.0352-36.9141 37.1094-37.793C39.2578-39.6484 42.041-40.7227 44.8242-40.7227L27.7344 6.20117C27.0996 7.95898 28.0273 10.0586 29.8828 10.7422C31.6895 11.3281 33.7891 10.4004 34.4238 8.59375L51.5137-38.2812C53.6133-36.4746 55.0293-33.8867 55.5176-31.1035C55.8105-29.7363 56.2012-28.5156 57.5684-28.0762C58.8379-27.5879 59.9609-28.2227 61.0352-29.1016C64.1113-31.7383 67.0898-33.0078 71.0449-31.5918C75-30.127 76.709-27.1484 77.6855-23.0957C77.9297-21.6797 78.5645-20.3613 79.8828-19.9219C81.6895-19.2871 84.0332-20.0684 84.8633-22.5586C90.0391-36.7188 86.6699-60.7422 63.4766-71.1914L65.332-76.2695C66.0645-78.3691 65.2344-80.2734 63.2324-81.0547C61.2793-81.7871 59.4238-80.7617 58.6426-78.7109L56.7871-73.584C32.373-80.5664 14.2578-64.3555 9.08203-50.0977ZM40.2344-46.7773C44.3359-56.3477 51.416-63.3789 57.8125-66.1621C61.0352-59.9121 61.9141-49.9512 58.8867-39.9414C56.9824-42.9688 54.0039-45.2148 50.6836-46.4844C47.3633-47.7051 43.6035-47.8027 40.2344-46.7773ZM19.3848-55.1758C26.0254-64.502 37.6465-69.6777 49.9512-68.0664C44.0918-63.916 38.623-57.2754 35.0586-48.9746C33.4473-51.5625 30.957-53.418 27.832-54.4922C25-55.5176 22.168-55.8105 19.3848-55.1758ZM64.2578-38.3301C66.8945-46.9727 66.9434-55.5664 65.1855-62.5C75.6348-55.8105 81.1523-44.3848 80.2246-33.0566C78.4668-35.2539 76.1719-36.8652 73.3398-37.9395C70.2148-39.0625 67.1387-39.2578 64.2578-38.3301Z"/>
  </g>
  <g id="Ultralight-S" transform="matrix(1 0 0 1 514.446 696)">
   <path class="monochrome-0 SFSymbolsPreview000000" d="M8.90039-47.146C8.61181-46.2905 8.92432-45.6475 9.59572-45.376C10.2818-45.1147 10.7373-45.477 11.312-45.8564C15.6314-48.9336 19.4898-49.7876 23.4903-48.2808C27.5361-46.8193 29.5493-43.9351 30.4566-39.208C30.6519-38.1587 30.9585-37.6157 31.6377-37.3613C32.2783-37.1421 32.8111-37.3682 33.6128-38.02C36.5786-40.4658 41.042-41.2222 44.7334-40.4502L28.4609 4.11232C28.0986 5.05276 28.6177 6.01712 29.5195 6.38285C30.418 6.69633 31.4278 6.22269 31.7901 5.27883L48.0171-39.2349C51.252-37.4282 54.2573-34.0229 54.9273-30.2407C55.1294-29.2822 55.4292-28.6973 56.0244-28.4849C56.7036-28.2236 57.2818-28.4951 58.1289-29.147C61.8408-32.1924 65.228-33.0986 69.2739-31.6372C73.3198-30.1724 75.71-27.0576 77.0498-21.915C77.2485-21.271 77.3838-20.7246 78.0664-20.4668C78.7832-20.1953 79.4468-20.5225 79.6866-21.3325C84.9986-36.0376 80.6758-58.6533 58.3453-67.7403L60.8365-74.544C61.2056-75.5991 60.8296-76.459 59.8267-76.877C58.8272-77.2461 57.9253-76.7657 57.5527-75.7593L55.0615-68.9522C32.1006-76.3433 14.2578-61.8125 8.90039-47.146ZM34.1041-40.8287C39.6587-54.8037 48.1465-64.1055 55.9961-66.3892C60.5811-59.6397 61.1421-46.9995 56.3892-32.6758C54.939-36.7022 51.3247-40.4468 47.0962-41.9434C42.9131-43.482 37.7457-42.9893 34.1041-40.8287ZM11.8013-48.6368C17.6246-61.5957 32.9239-72.9926 52.7212-67.4307C45.0454-63.916 37.2153-54.687 32.0161-41.482C30.8135-45.9771 28.2779-48.8316 24.1992-50.2691C20.1412-51.7486 16.0831-51.2242 11.8013-48.6368ZM58.3999-31.9273C62.8531-45.3833 62.7657-57.4736 59.146-65.0884C77.9053-56.5825 82.2876-37.982 78.4536-24.4288C76.832-29.1236 74.083-32.1426 69.9795-33.6255C65.9463-35.0664 62.2344-34.5806 58.3999-31.9273Z"/>
  </g>
 </g>
</svg>
