<?xml version="1.0" encoding="UTF-8"?>
<!--Generator: Apple Native CoreSVG 175.5-->
<!DOCTYPE svg
PUBLIC "-//W3C//DTD SVG 1.1//EN"
       "http://www.w3.org/Graphics/SVG/1.1/DTD/svg11.dtd">
<svg version="1.1" xmlns="http://www.w3.org/2000/svg" xmlns:xlink="http://www.w3.org/1999/xlink" width="3300" height="2200">
 <!--glyph: "uni101727.medium", point size: 100.0, font version: "18.0d11e1", template writer version: "90"-->
 <g id="Notes">
  <rect height="2200" id="artboard" style="fill:white;opacity:1" width="3300" x="0" y="0"/>
  <line style="fill:none;stroke:black;opacity:1;stroke-width:0.5;" x1="263" x2="3036" y1="292" y2="292"/>
  <text style="stroke:none;fill:black;font-family:sans-serif;font-size:13;font-weight:bold;" transform="matrix(1 0 0 1 263 322)">Weight/Scale Variations</text>
  <text style="stroke:none;fill:black;font-family:sans-serif;font-size:13;text-anchor:middle;" transform="matrix(1 0 0 1 559.711 322)">Ultralight</text>
  <text style="stroke:none;fill:black;font-family:sans-serif;font-size:13;text-anchor:middle;" transform="matrix(1 0 0 1 856.422 322)">Thin</text>
  <text style="stroke:none;fill:black;font-family:sans-serif;font-size:13;text-anchor:middle;" transform="matrix(1 0 0 1 1153.13 322)">Light</text>
  <text style="stroke:none;fill:black;font-family:sans-serif;font-size:13;text-anchor:middle;" transform="matrix(1 0 0 1 1449.84 322)">Regular</text>
  <text style="stroke:none;fill:black;font-family:sans-serif;font-size:13;text-anchor:middle;" transform="matrix(1 0 0 1 1746.56 322)">Medium</text>
  <text style="stroke:none;fill:black;font-family:sans-serif;font-size:13;text-anchor:middle;" transform="matrix(1 0 0 1 2043.27 322)">Semibold</text>
  <text style="stroke:none;fill:black;font-family:sans-serif;font-size:13;text-anchor:middle;" transform="matrix(1 0 0 1 2339.98 322)">Bold</text>
  <text style="stroke:none;fill:black;font-family:sans-serif;font-size:13;text-anchor:middle;" transform="matrix(1 0 0 1 2636.69 322)">Heavy</text>
  <text style="stroke:none;fill:black;font-family:sans-serif;font-size:13;text-anchor:middle;" transform="matrix(1 0 0 1 2933.4 322)">Black</text>
  <line style="fill:none;stroke:black;opacity:1;stroke-width:0.5;" x1="263" x2="3036" y1="1903" y2="1903"/>
  <g transform="matrix(1 0 0 1 263 1933)">
   <path d="M9.24805 0.830078C13.5547 0.830078 17.1387-2.74414 17.1387-7.05078C17.1387-11.3574 13.5449-14.9316 9.23828-14.9316C4.94141-14.9316 1.36719-11.3574 1.36719-7.05078C1.36719-2.74414 4.95117 0.830078 9.24805 0.830078ZM9.24805-0.654297C5.70312-0.654297 2.87109-3.49609 2.87109-7.05078C2.87109-10.6055 5.69336-13.4473 9.23828-13.4473C12.793-13.4473 15.6445-10.6055 15.6445-7.05078C15.6445-3.49609 12.8027-0.654297 9.24805-0.654297ZM5.6543-7.05078C5.6543-6.62109 5.95703-6.32812 6.40625-6.32812L8.50586-6.32812L8.50586-4.20898C8.50586-3.76953 8.79883-3.4668 9.22852-3.4668C9.67773-3.4668 9.9707-3.76953 9.9707-4.20898L9.9707-6.32812L12.0898-6.32812C12.5293-6.32812 12.832-6.62109 12.832-7.05078C12.832-7.49023 12.5293-7.79297 12.0898-7.79297L9.9707-7.79297L9.9707-9.90234C9.9707-10.3516 9.67773-10.6543 9.22852-10.6543C8.79883-10.6543 8.50586-10.3516 8.50586-9.90234L8.50586-7.79297L6.40625-7.79297C5.95703-7.79297 5.6543-7.49023 5.6543-7.05078Z"/>
  </g>
  <g transform="matrix(1 0 0 1 281.867 1933)">
   <path d="M11.709 2.91016C17.1582 2.91016 21.6699-1.61133 21.6699-7.05078C21.6699-12.5 17.1484-17.0117 11.6992-17.0117C6.25977-17.0117 1.74805-12.5 1.74805-7.05078C1.74805-1.61133 6.26953 2.91016 11.709 2.91016ZM11.709 1.25C7.09961 1.25 3.41797-2.44141 3.41797-7.05078C3.41797-11.6602 7.08984-15.3516 11.6992-15.3516C16.3086-15.3516 20.0098-11.6602 20.0098-7.05078C20.0098-2.44141 16.3184 1.25 11.709 1.25ZM7.17773-7.05078C7.17773-6.57227 7.50977-6.25 8.00781-6.25L10.8789-6.25L10.8789-3.36914C10.8789-2.88086 11.2109-2.53906 11.6895-2.53906C12.1777-2.53906 12.5195-2.87109 12.5195-3.36914L12.5195-6.25L15.4004-6.25C15.8887-6.25 16.2305-6.57227 16.2305-7.05078C16.2305-7.53906 15.8887-7.88086 15.4004-7.88086L12.5195-7.88086L12.5195-10.752C12.5195-11.25 12.1777-11.5918 11.6895-11.5918C11.2109-11.5918 10.8789-11.25 10.8789-10.752L10.8789-7.88086L8.00781-7.88086C7.50977-7.88086 7.17773-7.53906 7.17773-7.05078Z"/>
  </g>
  <g transform="matrix(1 0 0 1 305.646 1933)">
   <path d="M14.9707 5.66406C21.9336 5.66406 27.6953-0.0976562 27.6953-7.05078C27.6953-14.0137 21.9238-19.7754 14.9609-19.7754C8.00781-19.7754 2.25586-14.0137 2.25586-7.05078C2.25586-0.0976562 8.01758 5.66406 14.9707 5.66406ZM14.9707 3.84766C8.93555 3.84766 4.08203-1.01562 4.08203-7.05078C4.08203-13.0957 8.92578-17.9492 14.9609-17.9492C21.0059-17.9492 25.8691-13.0957 25.8691-7.05078C25.8691-1.01562 21.0156 3.84766 14.9707 3.84766ZM9.19922-7.05078C9.19922-6.5332 9.57031-6.17188 10.1172-6.17188L14.0625-6.17188L14.0625-2.2168C14.0625-1.67969 14.4336-1.29883 14.9512-1.29883C15.4883-1.29883 15.8594-1.66992 15.8594-2.2168L15.8594-6.17188L19.8145-6.17188C20.3516-6.17188 20.7324-6.5332 20.7324-7.05078C20.7324-7.59766 20.3613-7.96875 19.8145-7.96875L15.8594-7.96875L15.8594-11.9141C15.8594-12.4609 15.4883-12.8418 14.9512-12.8418C14.4336-12.8418 14.0625-12.4609 14.0625-11.9141L14.0625-7.96875L10.1172-7.96875C9.57031-7.96875 9.19922-7.59766 9.19922-7.05078Z"/>
  </g>
  <text style="stroke:none;fill:black;font-family:sans-serif;font-size:13;font-weight:bold;" transform="matrix(1 0 0 1 263 1953)">Design Variations</text>
  <text style="stroke:none;fill:black;font-family:sans-serif;font-size:13;" transform="matrix(1 0 0 1 263 1971)">Symbols are supported in up to nine weights and three scales.</text>
  <text style="stroke:none;fill:black;font-family:sans-serif;font-size:13;" transform="matrix(1 0 0 1 263 1989)">For optimal layout with text and other symbols, vertically align</text>
  <text style="stroke:none;fill:black;font-family:sans-serif;font-size:13;" transform="matrix(1 0 0 1 263 2007)">symbols with the adjacent text.</text>
  <line style="fill:none;stroke:#00AEEF;stroke-width:0.5;opacity:1.0;" x1="776" x2="776" y1="1919" y2="1933"/>
  <g transform="matrix(1 0 0 1 776 1933)">
   <path d="M3.31055 0.15625C3.82812 0.15625 4.08203-0.0390625 4.26758-0.585938L5.52734-4.0332L11.2891-4.0332L12.5488-0.585938C12.7344-0.0390625 12.9883 0.15625 13.4961 0.15625C14.0137 0.15625 14.3457-0.15625 14.3457-0.644531C14.3457-0.810547 14.3164-0.966797 14.2383-1.17188L9.6582-13.3691C9.43359-13.9648 9.0332-14.2676 8.4082-14.2676C7.80273-14.2676 7.39258-13.9746 7.17773-13.3789L2.59766-1.16211C2.51953-0.957031 2.49023-0.800781 2.49023-0.634766C2.49023-0.146484 2.80273 0.15625 3.31055 0.15625ZM6.00586-5.51758L8.37891-12.0898L8.42773-12.0898L10.8008-5.51758Z"/>
  </g>
  <line style="fill:none;stroke:#00AEEF;stroke-width:0.5;opacity:1.0;" x1="793.197" x2="793.197" y1="1919" y2="1933"/>
  <text style="stroke:none;fill:black;font-family:sans-serif;font-size:13;font-weight:bold;" transform="matrix(1 0 0 1 776 1953)">Margins</text>
  <text style="stroke:none;fill:black;font-family:sans-serif;font-size:13;" transform="matrix(1 0 0 1 776 1971)">Leading and trailing margins on the left and right side of each symbol</text>
  <text style="stroke:none;fill:black;font-family:sans-serif;font-size:13;" transform="matrix(1 0 0 1 776 1989)">can be adjusted by modifying the x-location of the margin guidelines.</text>
  <text style="stroke:none;fill:black;font-family:sans-serif;font-size:13;" transform="matrix(1 0 0 1 776 2007)">Modifications are automatically applied proportionally to all</text>
  <text style="stroke:none;fill:black;font-family:sans-serif;font-size:13;" transform="matrix(1 0 0 1 776 2025)">scales and weights.</text>
  <g transform="matrix(1 0 0 1 1289 1933)">
   <path d="M2.8418 1.86523L4.54102 3.57422C5.40039 4.44336 6.38672 4.38477 7.31445 3.35938L18.0078-8.42773L17.041-9.4043L6.42578 2.27539C6.07422 2.67578 5.74219 2.77344 5.27344 2.30469L4.10156 1.14258C3.63281 0.683594 3.74023 0.341797 4.14062-0.0195312L15.6152-10.8203L14.6387-11.7871L3.04688-0.898438C2.06055 0.0195312 1.98242 0.996094 2.8418 1.86523ZM9.25781-16.3281C8.83789-15.918 8.80859-15.3418 9.04297-14.9512C9.27734-14.5898 9.73633-14.3555 10.3809-14.5215C11.8457-14.8633 13.3691-14.9219 14.7949-13.9844L14.209-12.5293C13.8672-11.6992 14.043-11.1133 14.5801-10.5664L16.875-8.25195C17.3633-7.76367 17.7734-7.74414 18.3398-7.8418L19.4043-8.03711L20.0684-7.36328L20.0293-6.80664C19.9902-6.30859 20.1172-5.92773 20.6055-5.44922L21.3672-4.70703C21.8457-4.22852 22.4609-4.19922 22.9297-4.66797L25.8398-7.58789C26.3086-8.05664 26.2891-8.65234 25.8105-9.13086L25.0391-9.89258C24.5605-10.3711 24.1895-10.5273 23.7109-10.4883L23.1348-10.4395L22.4902-11.0742L22.7344-12.1973C22.8613-12.7637 22.7051-13.2031 22.1191-13.7891L19.9219-15.9766C16.582-19.2969 12.1484-19.2188 9.25781-16.3281ZM10.752-15.957C13.1836-17.7344 16.4746-17.4316 18.7012-15.2051L21.1328-12.793C21.3672-12.5586 21.4062-12.373 21.3379-12.0312L21.0156-10.5469L22.5195-9.0625L23.5059-9.12109C23.7598-9.13086 23.8379-9.11133 24.0332-8.91602L24.6094-8.33984L22.168-5.89844L21.5918-6.47461C21.3965-6.66992 21.3672-6.74805 21.377-7.01172L21.4453-7.98828L19.9512-9.47266L18.4277-9.21875C18.1055-9.15039 17.959-9.17969 17.7148-9.41406L15.7129-11.416C15.459-11.6504 15.4297-11.8164 15.5859-12.1875L16.4648-14.2773C14.9023-15.7324 12.8711-16.3574 10.8398-15.7617C10.6836-15.7227 10.625-15.8496 10.752-15.957Z"/>
  </g>
  <text style="stroke:none;fill:black;font-family:sans-serif;font-size:13;font-weight:bold;" transform="matrix(1 0 0 1 1289 1953)">Exporting</text>
  <text style="stroke:none;fill:black;font-family:sans-serif;font-size:13;" transform="matrix(1 0 0 1 1289 1971)">Symbols should be outlined when exporting to ensure the</text>
  <text style="stroke:none;fill:black;font-family:sans-serif;font-size:13;" transform="matrix(1 0 0 1 1289 1989)">design is preserved when submitting to Xcode.</text>
  <text id="template-version" style="stroke:none;fill:black;font-family:sans-serif;font-size:13;text-anchor:end;" transform="matrix(1 0 0 1 3036 1933)">Template v.4.0</text>
  <text style="stroke:none;fill:black;font-family:sans-serif;font-size:13;text-anchor:end;" transform="matrix(1 0 0 1 3036 1951)">Requires Xcode 14 or greater</text>
  <text id="descriptive-name" style="stroke:none;fill:black;font-family:sans-serif;font-size:13;text-anchor:end;" transform="matrix(1 0 0 1 3036 1969)">Generated from tennisball.fill</text>
  <text style="stroke:none;fill:black;font-family:sans-serif;font-size:13;text-anchor:end;" transform="matrix(1 0 0 1 3036 1987)">Typeset at 100 points</text>
  <text style="stroke:none;fill:black;font-family:sans-serif;font-size:13;" transform="matrix(1 0 0 1 263 726)">Small</text>
  <text style="stroke:none;fill:black;font-family:sans-serif;font-size:13;" transform="matrix(1 0 0 1 263 1156)">Medium</text>
  <text style="stroke:none;fill:black;font-family:sans-serif;font-size:13;" transform="matrix(1 0 0 1 263 1586)">Large</text>
 </g>
 <g id="Guides">
  <g id="H-reference" style="fill:#27AAE1;stroke:none;" transform="matrix(1 0 0 1 339 696)">
   <path d="M0.993654 0L3.63775 0L29.3281-67.1323L30.0303-67.1323L30.0303-70.459L28.1226-70.459ZM11.6885-24.4799L46.9815-24.4799L46.2315-26.7285L12.4385-26.7285ZM55.1196 0L57.7637 0L30.6382-70.459L29.4326-70.459L29.4326-67.1323Z"/>
  </g>
  <line id="Baseline-S" style="fill:none;stroke:#27AAE1;opacity:1;stroke-width:0.5;" x1="263" x2="3036" y1="696" y2="696"/>
  <line id="Capline-S" style="fill:none;stroke:#27AAE1;opacity:1;stroke-width:0.5;" x1="263" x2="3036" y1="625.541" y2="625.541"/>
  <g id="H-reference" style="fill:#27AAE1;stroke:none;" transform="matrix(1 0 0 1 339 1126)">
   <path d="M0.993654 0L3.63775 0L29.3281-67.1323L30.0303-67.1323L30.0303-70.459L28.1226-70.459ZM11.6885-24.4799L46.9815-24.4799L46.2315-26.7285L12.4385-26.7285ZM55.1196 0L57.7637 0L30.6382-70.459L29.4326-70.459L29.4326-67.1323Z"/>
  </g>
  <line id="Baseline-M" style="fill:none;stroke:#27AAE1;opacity:1;stroke-width:0.5;" x1="263" x2="3036" y1="1126" y2="1126"/>
  <line id="Capline-M" style="fill:none;stroke:#27AAE1;opacity:1;stroke-width:0.5;" x1="263" x2="3036" y1="1055.54" y2="1055.54"/>
  <g id="H-reference" style="fill:#27AAE1;stroke:none;" transform="matrix(1 0 0 1 339 1556)">
   <path d="M0.993654 0L3.63775 0L29.3281-67.1323L30.0303-67.1323L30.0303-70.459L28.1226-70.459ZM11.6885-24.4799L46.9815-24.4799L46.2315-26.7285L12.4385-26.7285ZM55.1196 0L57.7637 0L30.6382-70.459L29.4326-70.459L29.4326-67.1323Z"/>
  </g>
  <line id="Baseline-L" style="fill:none;stroke:#27AAE1;opacity:1;stroke-width:0.5;" x1="263" x2="3036" y1="1556" y2="1556"/>
  <line id="Capline-L" style="fill:none;stroke:#27AAE1;opacity:1;stroke-width:0.5;" x1="263" x2="3036" y1="1485.54" y2="1485.54"/>
  <line id="left-margin-Regular-M" style="fill:none;stroke:#00AEEF;stroke-width:0.5;opacity:1.0;" x1="1391.32" x2="1391.32" y1="1030.79" y2="1150.12"/>
  <line id="right-margin-Regular-M" style="fill:none;stroke:#00AEEF;stroke-width:0.5;opacity:1.0;" x1="1508.37" x2="1508.37" y1="1030.79" y2="1150.12"/>
 </g>
 <g id="Symbols">
  <g id="Black-L" transform="matrix(1 0 0 1 2854.19 1556)">
   <path d="M12.6083-48.7875C17.6646-47.298 22.2024-46.387 27.4248-46.387C49.3444-46.387 65.7794-62.822 65.7794-84.8232C65.7794-90.8242 64.6843-95.9498 62.0354-101.079C37.1764-94.5214 17.7835-74.1863 12.6083-48.7875ZM79.1958 32.6089C81.551 32.6089 83.8062 32.4677 86.0798 32.2633C83.2669 26.9012 82.0378 20.3097 82.0378 13.667C82.0378-13.7124 104.303-35.9777 131.58-35.9777C137.082-35.9777 142.397-35.1263 147.092-33.0695C147.152-33.8216 147.154-34.5749 147.154-35.3281C147.154-72.692 116.539-103.265 79.175-103.265C77.1374-103.265 75.1414-103.182 73.1855-102.98C75.8368-97.7414 76.9682-91.4027 76.9682-84.8232C76.9682-57.445 54.7237-35.1994 27.4248-35.1994C21.7495-35.1994 16.2875-36.1103 11.322-38.0867C11.26-37.135 11.2588-36.2602 11.2588-35.3281C11.2588 2.03578 41.8515 32.6089 79.1958 32.6089ZM97.1518 30.1864C121.753 23.426 140.929 2.99005 145.865-22.2931C141.281-23.7986 136.923-24.768 131.58-24.768C109.66-24.768 93.2475-8.33422 93.2475 13.667C93.2475 19.8688 94.4945 25.172 97.1518 30.1864Z"/>
  </g>
  <g id="Heavy-L" transform="matrix(1 0 0 1 2558.42 1556)">
   <path d="M12.4892-48.0321C17.2113-46.671 21.5655-45.8516 26.5001-45.8516C48.6275-45.8516 65.2786-62.5027 65.2786-84.7162C65.2786-90.4023 64.2569-95.3955 61.8958-100.282C36.9486-93.9434 17.4587-73.5008 12.4892-48.0321ZM78.2532 31.6801C80.5452 31.6801 82.7321 31.5439 84.938 31.3405C82.4283 26.1284 81.304 19.939 81.304 13.6442C81.304-13.6004 103.394-35.6901 130.522-35.6901C135.718-35.6901 140.695-34.9209 145.216-33.0979C145.272-33.833 145.278-34.5736 145.278-35.3143C145.278-72.1173 115.026-102.309 78.2231-102.309C76.2069-102.309 74.2511-102.217 72.3209-102.025C74.6932-96.9593 75.7238-90.9438 75.7238-84.7162C75.7238-57.4772 53.6642-35.412 26.5001-35.412C21.1816-35.412 16.0405-36.2315 11.3259-37.9741C11.2644-37.0581 11.2588-36.2057 11.2588-35.3143C11.2588 1.4887 41.4748 31.6801 78.2532 31.6801ZM95.2939 29.4639C120.016 22.9274 139.34 2.40322 144.103-22.9819C139.761-24.3507 135.563-25.2147 130.522-25.2147C108.395-25.2147 91.7794-8.56923 91.7794 13.6442C91.7794 19.5168 92.8935 24.6552 95.2939 29.4639Z"/>
  </g>
  <g id="Bold-L" transform="matrix(1 0 0 1 2262.89 1556)">
   <path d="M12.3506-47.1468C16.6802-45.9322 20.8263-45.2205 25.4147-45.2205C47.7586-45.2205 64.6488-62.1107 64.6488-84.5482C64.6488-89.8499 63.7118-94.6818 61.6968-99.2762C36.6643-93.2139 17.0739-72.6778 12.3506-47.1468ZM77.0704 30.5127C79.3451 30.5127 81.5145 30.3766 83.6955 30.1584C81.5251 25.1382 80.5314 19.4333 80.5314 13.5465C80.5314-13.4323 102.302-35.2024 129.149-35.2024C133.983-35.2024 138.552-34.5331 142.851-32.9797C142.907-33.744 142.92-34.5214 142.92-35.2989C142.92-71.4103 113.144-101.111 77.0324-101.111C74.9947-101.111 73.0329-101.004 71.0888-100.812C73.1303-95.9613 74.0452-90.3529 74.0452-84.5482C74.0452-57.5827 52.3131-35.8373 25.4147-35.8373C20.5195-35.8373 15.7481-36.549 11.3409-38.022C11.272-37.0925 11.2588-36.2037 11.2588-35.2989C11.2588 0.812465 40.9838 30.5127 77.0704 30.5127ZM93.0336 28.5351C117.872 22.2678 137.343 1.65843 141.884-23.8274C137.841-25.0271 133.835-25.768 129.149-25.768C106.805-25.768 89.9658-8.891 89.9658 13.5465C89.9658 19.0267 90.926 23.9726 93.0336 28.5351Z"/>
  </g>
  <g id="Semibold-L" transform="matrix(1 0 0 1 1966.99 1556)">
   <path d="M12.255-46.5366C16.314-45.4229 20.3167-44.7854 24.6665-44.7854C47.1596-44.7854 64.2146-61.8405 64.2146-84.4324C64.2146-89.4692 63.336-94.1897 61.5597-98.5827C36.4684-92.7109 16.8087-72.1105 12.255-46.5366ZM76.2549 29.7079C78.5177 29.7079 80.6751 29.5719 82.839 29.3435C80.9024 24.4556 79.9988 19.0846 79.9988 13.4791C79.9988-13.3163 101.549-34.8662 128.202-34.8662C132.787-34.8662 137.075-34.2658 141.22-32.8982C141.276-33.6826 141.294-34.4854 141.294-35.2883C141.294-70.9228 111.846-100.284 76.2116-100.284C74.159-100.284 72.1931-100.167 70.2394-99.9756C72.0528-95.2733 72.8881-89.9455 72.8881-84.4324C72.8881-57.6555 51.3816-36.1305 24.6665-36.1305C20.063-36.1305 15.5465-36.7679 11.3513-38.0551C11.2773-37.1162 11.2588-36.2023 11.2588-35.2883C11.2588 0.346275 40.6453 29.7079 76.2549 29.7079ZM91.4753 27.8949C116.393 21.8132 135.967 1.14498 140.354-24.4102C136.517-25.4934 132.644-26.1494 128.202-26.1494C105.709-26.1494 88.7156-9.11283 88.7156 13.4791C88.7156 18.6889 89.5695 23.5021 91.4753 27.8949Z"/>
  </g>
  <g id="Medium-L" transform="matrix(1 0 0 1 1670.9 1556)">
   <path d="M12.1826-46.0738C16.0364-45.0366 19.9303-44.4556 24.0992-44.4556C46.7054-44.4556 63.8854-61.6356 63.8854-84.3446C63.8854-89.1805 63.0511-93.8166 61.4557-98.0568C36.3198-92.3296 16.6076-71.6803 12.1826-46.0738ZM75.6366 29.0976C77.8904 29.0976 80.0387 28.9618 82.1895 28.7255C80.4303 23.938 79.5949 18.8203 79.5949 13.428C79.5949-13.2285 100.978-34.6113 127.484-34.6113C131.88-34.6113 135.955-34.0632 139.984-32.8365C140.039-33.6361 140.062-34.4581 140.062-35.2802C140.062-70.5532 110.862-99.6581 75.5892-99.6581C73.5253-99.6581 71.5564-99.5327 69.5954-99.3414C71.2358-94.7516 72.0107-89.6366 72.0107-84.3446C72.0107-57.7106 50.6753-36.3528 24.0992-36.3528C19.7169-36.3528 15.3936-36.9339 11.3592-38.0801C11.2813-37.1342 11.2588-36.2012 11.2588-35.2802C11.2588-0.00720966 40.3886 29.0976 75.6366 29.0976ZM90.2937 27.4094C115.273 21.4684 134.923 0.755661 139.194-24.8522C135.514-25.847 131.741-26.4386 127.484-26.4386C104.878-26.4386 87.7676-9.28102 87.7676 13.428C87.7676 18.4327 88.541 23.1453 90.2937 27.4094Z"/>
  </g>
  <g id="Regular-L" transform="matrix(1 0 0 1 1374.99 1556)">
   <path d="M12.0881-45.4703C15.6742-44.5329 19.4263-44.0253 23.3592-44.0253C46.113-44.0253 63.456-61.3683 63.456-84.2301C63.456-88.8039 62.6795-93.3299 61.32-97.3709C36.126-91.8322 16.3453-71.1191 12.0881-45.4703ZM74.8301 28.3017C77.0721 28.3017 79.2085 28.1659 81.3424 27.9196C79.8144 23.2629 79.0681 18.4755 79.0681 13.3614C79.0681-13.1138 100.233-34.2788 126.547-34.2788C130.696-34.2788 134.494-33.7988 138.371-32.7559C138.427-33.5754 138.454-34.4225 138.454-35.2697C138.454-70.0711 109.579-98.8411 74.7774-98.8411C72.6988-98.8411 70.7258-98.7053 68.7553-98.5143C70.1701-94.0712 70.8662-89.2336 70.8662-84.2301C70.8662-57.7826 49.754-36.6427 23.3592-36.6427C19.2655-36.6427 15.1943-37.1504 11.3694-38.1128C11.2864-37.1576 11.2588-36.1998 11.2588-35.2697C11.2588-0.468277 40.0538 28.3017 74.8301 28.3017ZM88.7526 26.7762C113.811 21.0187 133.561 0.247852 137.68-25.4287C134.205-26.3082 130.563-26.8158 126.547-26.8158C103.794-26.8158 86.531-9.50041 86.531 13.3614C86.531 18.0985 87.1995 22.6799 88.7526 26.7762Z"/>
  </g>
  <g id="Light-L" transform="matrix(1 0 0 1 1079.2 1556)">
   <path d="M12.0499-45.184C15.5025-44.2657 19.2355-43.7962 22.9966-43.7962C45.6358-43.7962 62.9598-61.1202 62.9598-83.8866C62.9598-88.2313 62.2023-92.662 61.0146-96.5503C35.9161-91.2405 16.1926-70.7183 12.0499-45.184ZM73.9141 27.3856C76.5377 27.3856 79.094 27.2117 81.5905 26.8508C80.0625 22.3658 79.4116 17.8266 79.4116 12.8461C79.4116-12.8085 99.6986-33.0955 125.192-33.0955C129.208-33.0955 132.795-32.6728 136.463-31.6871C136.556-32.8501 136.603-34.0599 136.603-35.2697C136.603-69.6131 108.224-97.925 73.8804-97.925C71.4774-97.925 69.1417-97.7511 66.8659-97.4837C68.1471-93.1933 68.8241-88.6802 68.8241-83.8866C68.8241-58.2788 48.5707-37.9787 22.9966-37.9787C19.0746-37.9787 15.0798-38.4482 11.4458-39.3534C11.3055-38.0164 11.2588-36.6197 11.2588-35.2697C11.2588-0.926323 39.5576 27.3856 73.9141 27.3856ZM87.4548 25.9174C112.379 20.2935 131.996-0.381962 135.905-25.963C132.64-26.7281 129.094-27.1975 125.192-27.1975C102.553-27.1975 85.3096-9.92029 85.3096 12.8461C85.3096 17.4115 85.9399 21.9356 87.4548 25.9174Z"/>
  </g>
  <g id="Thin-L" transform="matrix(1 0 0 1 783.716 1556)">
   <path d="M11.9994-44.8054C15.2753-43.9123 18.983-43.4933 22.517-43.4933C45.0048-43.4933 62.3035-60.7921 62.3035-83.4322C62.3035-87.4741 61.5713-91.7785 60.6108-95.4649C35.6384-90.458 15.9906-70.1883 11.9994-44.8054ZM72.7024 26.174C75.8309 26.174 78.9426 25.9496 81.9187 25.4372C80.3907 21.1795 79.866 16.9684 79.866 12.1646C79.866-12.4046 98.9919-31.5305 123.4-31.5305C127.239-31.5305 130.549-31.1835 133.939-30.2736C134.083-31.891 134.155-33.5803 134.155-35.2697C134.155-69.0073 106.432-96.7134 72.694-96.7134C69.8619-96.7134 67.0466-96.489 64.3669-96.1206C65.4714-92.0321 66.1232-87.9481 66.1232-83.4322C66.1232-58.9351 47.0058-39.7456 22.517-39.7456C18.8222-39.7456 14.9283-40.1646 11.5467-40.9941C11.3308-39.1523 11.2588-37.175 11.2588-35.2697C11.2588-1.53213 38.9013 26.174 72.7024 26.174ZM85.7384 24.7815C110.486 19.3343 129.927-1.21494 133.558-26.6698C130.57-27.2834 127.15-27.7023 123.4-27.7023C100.912-27.7023 83.6941-10.4756 83.6941 12.1646C83.6941 16.5027 84.2739 20.9512 85.7384 24.7815Z"/>
  </g>
  <g id="Ultralight-L" transform="matrix(1 0 0 1 487.631 1556)">
   <path d="M11.9736-44.6114C15.1589-43.7313 18.8538-43.3382 22.2714-43.3382C44.6816-43.3382 61.9674-60.624 61.9674-83.1995C61.9674-87.0862 61.2481-91.326 60.4039-94.9089C35.4962-90.0572 15.8872-69.9168 11.9736-44.6114ZM72.0819 25.5534C75.4689 25.5534 78.865 25.3031 82.0867 24.7132C80.5587 20.5718 80.0987 16.5288 80.0987 11.8155C80.0987-12.1977 98.6299-30.7289 122.482-30.7289C126.231-30.7289 129.398-30.4207 132.646-29.5496C132.816-31.3997 132.9-33.3347 132.9-35.2697C132.9-68.697 105.514-96.0928 72.0864-96.0928C69.0344-96.0928 65.9736-95.8425 63.087-95.4225C64.101-91.4374 64.7399-87.5732 64.7399-83.1995C64.7399-59.2712 46.2042-40.6506 22.2714-40.6506C18.6929-40.6506 14.8507-41.0438 11.5984-41.8345C11.3437-39.7341 11.2588-37.4595 11.2588-35.2697C11.2588-1.84242 38.5652 25.5534 72.0819 25.5534ZM84.8592 24.1997C109.517 18.843 128.866-1.64159 132.355-27.0318C129.51-27.5678 126.155-27.9609 122.482-27.9609C100.072-27.9609 82.8667-10.76 82.8667 11.8155C82.8667 16.0373 83.4206 20.4469 84.8592 24.1997Z"/>
  </g>
  <g id="Black-M" transform="matrix(1 0 0 1 2871.36 1126)">
   <path d="M9.86534-46.3439C14.0518-45.0821 17.7226-44.3028 21.9927-44.3028C38.7806-44.3028 51.3252-56.8474 51.3252-73.6973C51.3252-78.5861 50.4164-82.658 48.14-86.8188C28.9694-81.582 14.0361-65.9458 9.86534-46.3439ZM62.0422 18.0018C63.973 18.0018 65.8357 17.883 67.7045 17.7082C65.2646 13.4483 64.2353 8.02971 64.2353 2.6024C64.2353-18.6142 81.5171-35.896 102.666-35.896C107.175-35.896 111.554-35.1736 115.311-33.3869C115.368-34.0307 115.367-34.6742 115.367-35.3177C115.367-64.6851 91.4041-88.6373 62.0367-88.6373C60.3958-88.6373 58.7658-88.5756 57.1869-88.4002C59.4627-84.2133 60.4234-79.0687 60.4234-73.6973C60.4234-52.4804 43.147-35.2044 21.9927-35.2044C17.3125-35.2044 12.8154-35.9836 8.77862-37.708C8.72237-36.8883 8.72266-36.1317 8.72266-35.3177C8.72266-5.9504 32.6807 18.0018 62.0422 18.0018ZM76.6885 15.9555C95.6261 10.5437 110.337-5.2002 114.281-24.6875C110.55-25.956 107.05-26.7924 102.666-26.7924C85.8783-26.7924 73.3389-14.2475 73.3389 2.6024C73.3389 7.66686 74.4141 11.9094 76.6885 15.9555Z"/>
  </g>
  <g id="Heavy-M" transform="matrix(1 0 0 1 2575.48 1126)">
   <path d="M9.75243-45.6318C13.6245-44.4939 17.1176-43.8005 21.1222-43.8005C38.1238-43.8005 50.8814-56.5581 50.8814-73.6243C50.8814-78.2265 50.0425-82.1777 48.0317-86.116C28.7661-81.0716 13.7326-65.3126 9.75243-45.6318ZM61.2053 17.1784C63.0391 17.1784 64.7963 17.0679 66.5655 16.9048C64.422 12.7757 63.4863 7.72718 63.4863 2.62769C63.4863-18.5329 80.6775-35.724 101.757-35.724C105.978-35.724 110.047-35.0766 113.654-33.5132C113.702-34.1087 113.704-34.7065 113.704-35.3043C113.704-64.1656 90.0502-87.787 61.1889-87.787C59.5988-87.787 58.0416-87.7201 56.516-87.5615C58.5314-83.5298 59.3952-78.6711 59.3952-73.6243C59.3952-52.4661 42.2205-35.289 21.1222-35.289C16.7749-35.289 12.5845-35.9823 8.77537-37.4834C8.72493-36.7338 8.72266-36.0397 8.72266-35.3043C8.72266-6.44296 32.3582 17.1784 61.2053 17.1784ZM74.992 15.3284C94.0599 10.1231 108.928-5.71576 112.723-25.3116C109.209-26.4569 105.856-27.1938 101.757-27.1938C84.7554-27.1938 72.0165-14.4385 72.0165 2.62769C72.0165 7.38617 72.9653 11.4729 74.992 15.3284Z"/>
  </g>
  <g id="Bold-M" transform="matrix(1 0 0 1 2279.69 1126)">
   <path d="M9.62613-44.8353C13.1466-43.8358 16.4409-43.2387 20.1484-43.2387C37.3891-43.2387 50.385-56.2346 50.385-73.5427C50.385-77.8241 49.6244-81.6405 47.9106-85.3298C28.5387-80.5006 13.3932-64.6044 9.62613-44.8353ZM60.2692 16.2573C61.9943 16.2573 63.6336 16.1562 65.2913 16.006C63.4794 12.0232 62.6484 7.38876 62.6484 2.65598C62.6484-18.4419 79.7382-35.5316 100.74-35.5316C104.639-35.5316 108.36-34.9682 111.8-33.6545C111.839-34.196 111.844-34.7426 111.844-35.2892C111.844-63.5844 88.5358-86.8357 60.2405-86.8357C58.7073-86.8357 57.2314-86.7631 55.7656-86.6232C57.4896-82.7651 58.2451-78.2264 58.2451-73.5427C58.2451-52.45 41.1839-35.3837 20.1484-35.3837C16.1735-35.3837 12.3262-35.9809 8.77174-37.2322C8.72779-36.5611 8.72266-35.9368 8.72266-35.2892C8.72266-6.99395 31.9974 16.2573 60.2692 16.2573ZM73.0942 14.6269C92.3079 9.65266 107.352-6.2925 110.98-26.0097C107.708-27.0172 104.52-27.6429 100.74-27.6429C83.4993-27.6429 70.5371-14.6522 70.5371 2.65598C70.5371 7.07218 71.3445 10.9845 73.0942 14.6269Z"/>
  </g>
  <g id="Semibold-M" transform="matrix(1 0 0 1 1983.62 1126)">
   <path d="M9.53905-44.2861C12.8171-43.3821 15.9743-42.8513 19.477-42.8513C36.8826-42.8513 50.0428-56.0115 50.0428-73.4864C50.0428-77.5467 49.3361-81.2701 47.8271-84.7878C28.3819-80.1069 13.1592-64.1162 9.53905-44.2861ZM59.6238 15.6223C61.274 15.6223 62.832 15.5276 64.4128 15.3864C62.8296 11.5045 62.0708 7.15545 62.0708 2.67548C62.0708-18.3792 79.0907-35.399 100.039-35.399C103.717-35.399 107.197-34.8934 110.522-33.7519C110.555-34.2562 110.562-34.7675 110.562-35.2788C110.562-63.1838 87.4917-86.1799 59.5867-86.1799C58.0927-86.1799 56.6728-86.1034 55.2482-85.9764C56.7714-82.238 57.4522-77.9198 57.4522-73.4864C57.4522-52.4389 40.4694-35.449 19.477-35.449C15.7589-35.449 12.1481-35.9799 8.76924-37.059C8.72976-36.442 8.72266-35.8659 8.72266-35.2788C8.72266-7.3738 31.7487 15.6223 59.6238 15.6223ZM71.7859 14.1433C91.1001 9.32834 106.266-6.6901 109.778-26.491C106.674-27.4035 103.599-27.9526 100.039-27.9526C82.6333-27.9526 69.5172-14.7995 69.5172 2.67548C69.5172 6.85571 70.2272 10.6478 71.7859 14.1433Z"/>
  </g>
  <g id="Medium-M" transform="matrix(1 0 0 1 1687.4 1126)">
   <path d="M9.47302-43.8697C12.5672-43.0382 15.6206-42.5576 18.968-42.5576C36.4985-42.5576 49.7833-55.8423 49.7833-73.4438C49.7833-77.3364 49.1175-80.9893 47.7638-84.3768C28.263-79.8084 12.9818-63.746 9.47302-43.8697ZM59.1344 15.1408C60.7279 15.1408 62.2242 15.051 63.7468 14.9166C62.3369 11.1112 61.6329 6.97855 61.6329 2.69027C61.6329-18.3316 78.5997-35.2984 99.5072-35.2984C103.017-35.2984 106.316-34.8367 109.553-33.8258C109.581-34.3018 109.59-34.7863 109.59-35.2709C109.59-62.88 86.7001-85.6827 59.091-85.6827C57.6267-85.6827 56.2493-85.6032 54.856-85.4859C56.2269-81.8383 56.8509-77.6874 56.8509-73.4438C56.8509-52.4305 39.9276-35.4985 18.968-35.4985C15.4446-35.4985 12.013-35.9791 8.76734-36.9277C8.73126-36.3517 8.72266-35.8121 8.72266-35.2709C8.72266-7.66182 31.5601 15.1408 59.1344 15.1408ZM70.7939 13.7766C90.1843 9.08242 105.442-6.99158 108.867-26.8559C105.889-27.6965 102.901-28.1873 99.5072-28.1873C81.9767-28.1873 68.7439-14.9112 68.7439 2.69027C68.7439 6.69157 69.38 10.3925 70.7939 13.7766Z"/>
  </g>
  <g id="Regular-M" transform="matrix(1 0 0 1 1391.32 1126)">
   <path d="M9.38691-43.3266C12.2414-42.5895 15.1591-42.1745 18.304-42.1745C35.9976-42.1745 49.4448-55.6217 49.4448-73.3881C49.4448-77.0621 48.8323-80.623 47.6812-83.8407C28.108-79.4191 12.7504-63.2631 9.38691-43.3266ZM58.4961 14.5128C60.0155 14.5128 61.4314 14.4294 62.878 14.3038C61.6942 10.5981 61.0616 6.74781 61.0616 2.70956C61.0616-18.2696 77.9593-35.1672 98.8138-35.1672C102.104-35.1672 105.166-34.7627 108.29-33.9221C108.311-34.3613 108.321-34.811 108.321-35.2606C108.321-62.4838 85.6675-85.0341 58.4443-85.0341C57.0189-85.0341 55.6969-84.9507 54.3443-84.8462C55.5166-81.3169 56.0667-77.3842 56.0667-73.3881C56.0667-52.4195 39.2208-35.5631 18.304-35.5631C15.0345-35.5631 11.8369-35.9781 8.76486-36.7564C8.73321-36.2339 8.72266-35.742 8.72266-35.2606C8.72266-8.0375 31.3141 14.5128 58.4961 14.5128ZM69.4999 13.2983C88.9897 8.76166 104.367-7.38481 107.678-27.3319C104.866-28.0785 101.99-28.4935 98.8138-28.4935C81.1202-28.4935 67.7353-15.0568 67.7353 2.70956C67.7353 6.47749 68.2749 10.0595 69.4999 13.2983Z"/>
  </g>
  <g id="Light-M" transform="matrix(1 0 0 1 1095.44 1126)">
   <path d="M9.35268-43.0699C12.0874-42.3499 14.988-41.9691 17.9789-41.9691C35.5698-41.9691 48.9999-55.3993 48.9999-73.0801C48.9999-76.5488 48.4045-80.0241 47.4074-83.105C27.9197-78.8887 12.6135-62.9038 9.35268-43.0699ZM57.6748 13.6915C59.5364 13.6915 61.3288 13.5738 63.1004 13.3456C61.9166 9.79393 61.3696 6.16604 61.3696 2.24756C61.3696-17.9958 77.4802-34.1063 97.5989-34.1063C100.77-34.1063 103.643-33.7532 106.579-32.9639C106.634-33.7111 106.662-34.4858 106.662-35.2606C106.662-62.0731 84.4526-84.2128 57.6401-84.2128C55.9238-84.2128 54.2767-84.0951 52.6503-83.9222C53.7028-80.5298 54.2359-76.8879 54.2359-73.0801C54.2359-52.8644 38.16-36.7609 17.9789-36.7609C14.8634-36.7609 11.7342-37.1417 8.8333-37.8686C8.75032-37.0039 8.72266-36.1184 8.72266-35.2606C8.72266-8.44816 30.8693 13.6915 57.6748 13.6915ZM68.3364 12.5284C87.7064 8.11144 102.964-7.94947 106.087-27.811C103.463-28.455 100.673-28.8358 97.5989-28.8358C80.008-28.8358 66.6402-15.4333 66.6402 2.24756C66.6402 5.86149 67.1456 9.39218 68.3364 12.5284Z"/>
  </g>
  <g id="Thin-M" transform="matrix(1 0 0 1 799.828 1126)">
   <path d="M9.30742-42.7305C11.8837-42.0331 14.7617-41.6976 17.5489-41.6976C35.004-41.6976 48.4115-55.1051 48.4115-72.6728C48.4115-75.8698 47.8388-79.232 47.0453-82.1319C27.6708-78.1871 12.4324-62.4285 9.30742-42.7305ZM56.5885 12.6052C58.9027 12.6052 61.193 12.4423 63.3946 12.0782C62.2108 8.73029 61.7769 5.3966 61.7769 1.63653C61.7769-17.6337 76.8465-32.7032 95.9921-32.7032C99.0045-32.7032 101.629-32.418 104.315-31.6966C104.416-32.8511 104.466-34.0559 104.466-35.2606C104.466-61.53 82.8458-83.1265 56.5765-83.1265C54.4754-83.1265 52.3984-82.9636 50.4099-82.7001C51.3039-79.4888 51.8144-76.2317 51.8144-72.6728C51.8144-53.4528 36.7569-38.345 17.5489-38.345C14.6371-38.345 11.5984-38.6805 8.92383-39.3396C8.77295-38.0222 8.72266-36.6163 8.72266-35.2606C8.72266-8.9913 30.2809 12.6052 56.5885 12.6052ZM66.7975 11.51C86.0091 7.25148 101.109-8.69628 103.982-28.4446C101.607-28.9528 98.9302-29.2884 95.9921-29.2884C78.537-29.2884 65.1918-15.9311 65.1918 1.63653C65.1918 5.04679 65.652 8.50959 66.7975 11.51Z"/>
  </g>
  <g id="Ultralight-M" transform="matrix(1 0 0 1 503.679 1126)">
   <path d="M9.28424-42.5566C11.7794-41.8708 14.6458-41.5585 17.3287-41.5585C34.7142-41.5585 48.1102-54.9544 48.1102-72.4641C48.1102-75.5221 47.549-78.8264 46.8599-81.6334C27.5433-77.8278 12.3397-62.1851 9.28424-42.5566ZM56.0321 12.0488C58.5782 12.0488 61.1234 11.8627 63.5453 11.4291C62.3615 8.1855 61.9856 5.00249 61.9856 1.32357C61.9856-17.4482 76.5219-31.9846 95.1691-31.9846C98.1004-31.9846 100.597-31.7341 103.156-31.0475C103.28-32.4106 103.342-33.8356 103.342-35.2606C103.342-61.2518 82.0228-82.5701 56.0317-82.5701C53.7336-82.5701 51.4363-82.384 49.2624-82.0742C50.0753-78.9556 50.5741-75.8955 50.5741-72.4641C50.5741-53.7542 36.0382-39.1564 17.3287-39.1564C14.5212-39.1564 11.5289-39.4687 8.97019-40.0931C8.78454-38.5439 8.72266-36.8713 8.72266-35.2606C8.72266-9.26949 29.9795 12.0488 56.0321 12.0488ZM66.0093 10.9884C85.1398 6.81101 100.158-9.07879 102.904-28.7692C100.657-29.2078 98.0377-29.5202 95.1691-29.5202C77.7836-29.5202 64.45-16.1862 64.45 1.32357C64.45 4.62951 64.887 8.05753 66.0093 10.9884Z"/>
  </g>
  <g id="Black-S" transform="matrix(1 0 0 1 2884.57 696)">
   <path d="M7.76367-44.1406C11.1328-43.1152 14.0625-42.4805 17.4805-42.4805C30.5664-42.4805 40.332-52.2461 40.332-65.3809C40.332-69.2871 39.5996-72.5098 37.7441-75.8301C22.7539-71.6797 11.084-59.4727 7.76367-44.1406ZM48.8281 6.68945C50.3906 6.68945 51.9043 6.5918 53.418 6.44531C51.416 3.07617 50.5859-1.26953 50.5859-5.61523C50.5859-22.2168 64.1113-35.7422 80.6641-35.7422C84.2773-35.7422 87.793-35.1562 90.7715-33.6914C90.8203-34.2285 90.8203-34.7656 90.8203-35.3027C90.8203-58.4473 71.9727-77.2949 48.8281-77.2949C47.5098-77.2949 46.1914-77.2461 44.9219-77.0996C46.7773-73.7793 47.5586-69.6777 47.5586-65.3809C47.5586-48.7793 34.0332-35.2539 17.4805-35.2539C13.7207-35.2539 10.1074-35.8887 6.88477-37.3047C6.83594-36.6211 6.83594-35.9863 6.83594-35.3027C6.83594-12.1582 25.6836 6.68945 48.8281 6.68945ZM60.5469 5.0293C75.3418 0.732422 86.8164-11.5723 89.9414-26.8066C86.9629-27.832 84.1797-28.5156 80.6641-28.5156C67.5781-28.5156 57.8125-18.75 57.8125-5.61523C57.8125-1.5625 58.6914 1.80664 60.5469 5.0293Z"/>
  </g>
  <g id="Heavy-S" transform="matrix(1 0 0 1 2588.47 696)">
   <path d="M7.67148-43.5644C10.7871-42.6427 13.5669-42.0771 16.7775-42.0771C30.0593-42.0771 40.0093-52.0271 40.0093-65.3578C40.0093-69.0451 39.3345-72.1756 37.6865-75.323C22.6041-71.3109 10.842-58.9771 7.67148-43.5644ZM48.2173 6.09018C49.6531 6.09018 51.0284 6.00405 52.4153 5.88061C50.6669 2.60367 49.906-1.45392 49.906-5.53456C49.906-22.1822 63.4544-35.7307 80.0417-35.7307C83.4245-35.7307 86.6981-35.2023 89.5729-33.9219C89.6102-34.3783 89.6102-34.8348 89.6102-35.2912C89.6102-58.0554 70.97-76.6726 48.2058-76.6726C46.9681-76.6726 45.7535-76.6238 44.5646-76.5003C46.2126-73.2953 46.9132-69.4011 46.9132-65.3578C46.9132-48.7102 33.3763-35.1732 16.7775-35.1732C13.2828-35.1732 9.92303-35.7389 6.87324-36.9705C6.83594-36.3906 6.83594-35.8596 6.83594-35.2912C6.83594-12.527 25.4646 6.09018 48.2173 6.09018ZM59.2446 4.59137C74.1663 0.455835 85.7907-11.941 88.812-27.2791C85.9948-28.2123 83.3269-28.8153 80.0417-28.8153C66.7599-28.8153 56.8214-18.8652 56.8214-5.53456C56.8214-1.72384 57.5966 1.51853 59.2446 4.59137Z"/>
  </g>
  <g id="Bold-S" transform="matrix(1 0 0 1 2292.43 696)">
   <path d="M7.56836-42.9199C10.4004-42.1143 13.0127-41.626 15.9912-41.626C29.4922-41.626 39.6484-51.7822 39.6484-65.332C39.6484-68.7744 39.0381-71.8018 37.6221-74.7559C22.4365-70.8984 10.5713-58.4229 7.56836-42.9199ZM47.5342 5.41992C48.8281 5.41992 50.0488 5.34668 51.2939 5.24902C49.8291 2.0752 49.1455-1.66016 49.1455-5.44434C49.1455-22.1436 62.7197-35.7178 79.3457-35.7178C82.4707-35.7178 85.4736-35.2539 88.2324-34.1797C88.2568-34.5459 88.2568-34.9121 88.2568-35.2783C88.2568-57.6172 69.8486-75.9766 47.5098-75.9766C46.3623-75.9766 45.2637-75.9277 44.165-75.8301C45.5811-72.7539 46.1914-69.0918 46.1914-65.332C46.1914-48.6328 32.6416-35.083 15.9912-35.083C12.793-35.083 9.7168-35.5713 6.86035-36.5967C6.83594-36.1328 6.83594-35.7178 6.83594-35.2783C6.83594-12.9395 25.2197 5.41992 47.5342 5.41992ZM57.7881 4.10156C72.8516 0.146484 84.6436-12.3535 87.5488-27.8076C84.9121-28.6377 82.373-29.1504 79.3457-29.1504C65.8447-29.1504 55.7129-18.9941 55.7129-5.44434C55.7129-1.9043 56.3721 1.19629 57.7881 4.10156Z"/>
  </g>
  <g id="Semibold-S" transform="matrix(1 0 0 1 1996.19 696)">
   <path d="M7.49727-42.4756C10.1338-41.7499 12.6306-41.3149 15.4491-41.3149C29.1012-41.3149 39.3996-51.6134 39.3996-65.3143C39.3996-68.5878 38.8337-71.544 37.5776-74.3648C22.321-70.6141 10.3847-58.0407 7.49727-42.4756ZM47.0632 4.95781C48.2594 4.95781 49.3734 4.89346 50.5208 4.81357C49.2515 1.71084 48.6212-1.80234 48.6212-5.38213C48.6212-22.1169 62.2132-35.7089 78.8658-35.7089C81.8131-35.7089 84.6294-35.2895 87.3082-34.3574C87.3237-34.6614 87.3237-34.9654 87.3237-35.2694C87.3237-57.315 69.0755-75.4967 47.0299-75.4967C45.9446-75.4967 44.926-75.4479 43.8896-75.368C45.1456-72.3807 45.6938-68.8785 45.6938-65.3143C45.6938-48.5795 32.1351-35.0208 15.4491-35.0208C12.4553-35.0208 9.57461-35.4558 6.85146-36.339C6.83594-35.9551 6.83594-35.62 6.83594-35.2694C6.83594-13.2238 25.0509 4.95781 47.0632 4.95781ZM56.7839 3.76387C71.9451-0.0667969 83.8526-12.6379 86.6779-28.172C84.1656-28.931 81.7154-29.3814 78.8658-29.3814C65.2138-29.3814 54.9486-19.083 54.9486-5.38213C54.9486-2.02871 55.5278 0.974121 56.7839 3.76387Z"/>
  </g>
  <g id="Medium-S" transform="matrix(1 0 0 1 1699.83 696)">
   <path d="M7.44336-42.1387C9.93164-41.4736 12.3408-41.0791 15.0381-41.0791C28.8047-41.0791 39.2109-51.4854 39.2109-65.3008C39.2109-68.4463 38.6787-71.3486 37.5439-74.0684C22.2334-70.3984 10.2432-57.751 7.44336-42.1387ZM46.7061 4.60742C47.8281 4.60742 48.8613 4.5498 49.9346 4.4834C48.8135 1.43457 48.2236-1.91016 48.2236-5.33496C48.2236-22.0967 61.8291-35.7021 78.502-35.7021C81.3145-35.7021 83.9893-35.3164 86.6074-34.4922C86.6162-34.749 86.6162-35.0059 86.6162-35.2627C86.6162-57.0859 68.4893-75.1328 46.666-75.1328C45.6279-75.1328 44.6699-75.084 43.6807-75.0176C44.8154-72.0977 45.3164-68.7168 45.3164-65.3008C45.3164-48.5391 31.751-34.9736 15.0381-34.9736C12.1992-34.9736 9.4668-35.3682 6.84473-36.1436C6.83594-35.8203 6.83594-35.5459 6.83594-35.2627C6.83594-13.4395 24.9229 4.60742 46.7061 4.60742ZM56.0225 3.50781C71.2578-0.228516 83.2529-12.8535 86.0176-28.4482C83.5996-29.1533 81.2168-29.5566 78.502-29.5566C64.7354-29.5566 54.3691-19.1504 54.3691-5.33496C54.3691-2.12305 54.8877 0.805664 56.0225 3.50781Z"/>
  </g>
  <g id="Regular-S" transform="matrix(1 0 0 1 1403.58 696)">
   <path d="M7.37305-41.6992C9.66797-41.1133 11.9629-40.7715 14.502-40.7715C28.418-40.7715 38.9648-51.3184 38.9648-65.2832C38.9648-68.2617 38.4766-71.0938 37.5-73.6816C22.1191-70.1172 10.0586-57.373 7.37305-41.6992ZM46.2402 4.15039C47.2656 4.15039 48.1934 4.10156 49.1699 4.05273C48.2422 1.07422 47.7051-2.05078 47.7051-5.27344C47.7051-22.0703 61.3281-35.6934 78.0273-35.6934C80.6641-35.6934 83.1543-35.3516 85.6934-34.668C85.6934-34.8633 85.6934-35.0586 85.6934-35.2539C85.6934-56.7871 67.7246-74.6582 46.1914-74.6582C45.2148-74.6582 44.3359-74.6094 43.4082-74.5605C44.3848-71.7285 44.8242-68.5059 44.8242-65.2832C44.8242-48.4863 31.25-34.9121 14.502-34.9121C11.8652-34.9121 9.32617-35.2539 6.83594-35.8887C6.83594-35.6445 6.83594-35.4492 6.83594-35.2539C6.83594-13.7207 24.7559 4.15039 46.2402 4.15039ZM55.0293 3.17383C70.3613-0.439453 82.4707-13.1348 85.1562-28.8086C82.8613-29.4434 80.5664-29.7852 78.0273-29.7852C64.1113-29.7852 53.6133-19.2383 53.6133-5.27344C53.6133-2.24609 54.0527 0.585938 55.0293 3.17383Z"/>
  </g>
  <g id="Light-S" transform="matrix(1 0 0 1 1107.6 696)">
   <path d="M7.34277-41.4722C9.53174-40.9014 11.8115-40.5898 14.2144-40.5898C28.0396-40.5898 38.5713-51.1216 38.5713-65.0107C38.5713-67.8076 38.0981-70.564 37.2578-73.0308C21.9526-69.648 9.9375-57.0552 7.34277-41.4722ZM45.5137 3.42383C46.8418 3.42383 48.1025 3.34473 49.3667 3.20508C48.439 0.362799 47.9775-2.56543 47.9775-5.68213C47.9775-21.8281 60.9043-34.7549 76.9526-34.7549C79.4834-34.7549 81.8071-34.4585 84.1797-33.8203C84.21-34.2881 84.2251-34.771 84.2251-35.2539C84.2251-56.4238 66.6499-73.9316 45.48-73.9316C44.2461-73.9316 43.0796-73.8525 41.9097-73.7432C42.7803-71.0322 43.2046-68.0669 43.2046-65.0107C43.2046-48.8799 30.3115-35.9717 14.2144-35.9717C11.7139-35.9717 9.23535-36.2832 6.89648-36.8726C6.85107-36.3257 6.83594-35.7822 6.83594-35.2539C6.83594-14.084 24.3623 3.42383 45.5137 3.42383ZM54 2.49268C69.2261-1.01464 81.2295-13.6343 83.7485-29.2324C81.6201-29.7764 79.4009-30.0879 76.9526-30.0879C63.1274-30.0879 52.6445-19.5713 52.6445-5.68213C52.6445-2.79101 53.0537-0.00438988 54 2.49268Z"/>
  </g>
  <g id="Thin-S" transform="matrix(1 0 0 1 811.863 696)">
   <path d="M7.30273-41.1719C9.35156-40.6211 11.6113-40.3496 13.834-40.3496C27.5391-40.3496 38.0508-50.8613 38.0508-64.6504C38.0508-67.207 37.5977-69.8633 36.9375-72.1699C21.7324-69.0274 9.77735-56.6348 7.30273-41.1719ZM44.5527 2.4629C46.2813 2.4629 47.9824 2.34376 49.6269 2.084C48.6992-0.578112 48.3379-3.24608 48.3379-6.22265C48.3379-21.5078 60.3438-33.5137 75.5313-33.5137C77.9219-33.5137 80.0254-33.2774 82.1778-32.6992C82.2481-33.5274 82.2832-34.3906 82.2832-35.2539C82.2832-55.9434 65.2285-72.9707 44.5391-72.9707C42.9649-72.9707 41.418-72.8516 39.9278-72.6621C40.6582-70.1113 41.0625-67.4863 41.0625-64.6504C41.0625-49.4004 29.0703-37.373 13.834-37.373C11.5137-37.373 9.11524-37.6445 6.97656-38.1738C6.87109-37.2266 6.83594-36.2227 6.83594-35.2539C6.83594-14.5644 23.8418 2.4629 44.5527 2.4629ZM52.6387 1.59181C67.7246-1.77538 79.5879-14.2949 81.8867-29.793C79.9785-30.2168 77.8594-30.4883 75.5313-30.4883C61.8262-30.4883 51.3633-20.0117 51.3633-6.22265C51.3633-3.51171 51.7324-0.785145 52.6387 1.59181Z"/>
  </g>
  <g id="Ultralight-S" transform="matrix(1 0 0 1 515.649 696)">
   <path d="M7.28223-41.0181C9.25928-40.4775 11.5088-40.2266 13.6392-40.2266C27.2827-40.2266 37.7842-50.728 37.7842-64.4658C37.7842-66.8994 37.3413-69.5044 36.7734-71.729C21.6196-68.7095 9.69532-56.4194 7.28223-41.0181ZM44.0606 1.97072C45.9942 1.97072 47.9209 1.83107 49.7602 1.50979C48.8325-1.06004 48.5225-3.59471 48.5225-6.4995C48.5225-21.3438 60.0567-32.878 74.8032-32.878C77.1221-32.878 79.1128-32.6724 81.1524-32.125C81.2432-33.1377 81.2886-34.1958 81.2886-35.2539C81.2886-55.6973 64.5005-72.4785 44.0571-72.4785C42.3086-72.4785 40.5669-72.3389 38.9126-72.1084C39.5713-69.6397 39.9654-67.189 39.9654-64.4658C39.9654-49.667 28.4346-38.0908 13.6392-38.0908C11.4111-38.0908 9.05371-38.3418 7.01758-38.8403C6.88135-37.688 6.83594-36.4482 6.83594-35.2539C6.83594-14.8105 23.5752 1.97072 44.0606 1.97072ZM51.9414 1.13039C66.9556-2.16503 78.7471-14.6333 80.9331-30.0801C79.1377-30.4424 77.0699-30.6934 74.8032-30.6934C61.1597-30.6934 50.7071-20.2373 50.7071-6.4995C50.7071-3.88085 51.0557-1.18504 51.9414 1.13039Z"/>
  </g>
 </g>
</svg>
