<?xml version="1.0" encoding="UTF-8"?>
<!--Generator: Apple Native CoreSVG 175.5-->
<!DOCTYPE svg
PUBLIC "-//W3C//DTD SVG 1.1//EN"
       "http://www.w3.org/Graphics/SVG/1.1/DTD/svg11.dtd">
<svg version="1.1" xmlns="http://www.w3.org/2000/svg" xmlns:xlink="http://www.w3.org/1999/xlink" width="3300" height="2200">
 <!--glyph: "uni101438.medium", point size: 100.0, font version: "18.0d11e1", template writer version: "90"-->
 <g id="Notes">
  <rect height="2200" id="artboard" style="fill:white;opacity:1" width="3300" x="0" y="0"/>
  <line style="fill:none;stroke:black;opacity:1;stroke-width:0.5;" x1="263" x2="3036" y1="292" y2="292"/>
  <text style="stroke:none;fill:black;font-family:sans-serif;font-size:13;font-weight:bold;" transform="matrix(1 0 0 1 263 322)">Weight/Scale Variations</text>
  <text style="stroke:none;fill:black;font-family:sans-serif;font-size:13;text-anchor:middle;" transform="matrix(1 0 0 1 559.711 322)">Ultralight</text>
  <text style="stroke:none;fill:black;font-family:sans-serif;font-size:13;text-anchor:middle;" transform="matrix(1 0 0 1 856.422 322)">Thin</text>
  <text style="stroke:none;fill:black;font-family:sans-serif;font-size:13;text-anchor:middle;" transform="matrix(1 0 0 1 1153.13 322)">Light</text>
  <text style="stroke:none;fill:black;font-family:sans-serif;font-size:13;text-anchor:middle;" transform="matrix(1 0 0 1 1449.84 322)">Regular</text>
  <text style="stroke:none;fill:black;font-family:sans-serif;font-size:13;text-anchor:middle;" transform="matrix(1 0 0 1 1746.56 322)">Medium</text>
  <text style="stroke:none;fill:black;font-family:sans-serif;font-size:13;text-anchor:middle;" transform="matrix(1 0 0 1 2043.27 322)">Semibold</text>
  <text style="stroke:none;fill:black;font-family:sans-serif;font-size:13;text-anchor:middle;" transform="matrix(1 0 0 1 2339.98 322)">Bold</text>
  <text style="stroke:none;fill:black;font-family:sans-serif;font-size:13;text-anchor:middle;" transform="matrix(1 0 0 1 2636.69 322)">Heavy</text>
  <text style="stroke:none;fill:black;font-family:sans-serif;font-size:13;text-anchor:middle;" transform="matrix(1 0 0 1 2933.4 322)">Black</text>
  <line style="fill:none;stroke:black;opacity:1;stroke-width:0.5;" x1="263" x2="3036" y1="1903" y2="1903"/>
  <g transform="matrix(1 0 0 1 263 1933)">
   <path d="M9.24805 0.830078C13.5547 0.830078 17.1387-2.74414 17.1387-7.05078C17.1387-11.3574 13.5449-14.9316 9.23828-14.9316C4.94141-14.9316 1.36719-11.3574 1.36719-7.05078C1.36719-2.74414 4.95117 0.830078 9.24805 0.830078ZM9.24805-0.654297C5.70312-0.654297 2.87109-3.49609 2.87109-7.05078C2.87109-10.6055 5.69336-13.4473 9.23828-13.4473C12.793-13.4473 15.6445-10.6055 15.6445-7.05078C15.6445-3.49609 12.8027-0.654297 9.24805-0.654297ZM5.6543-7.05078C5.6543-6.62109 5.95703-6.32812 6.40625-6.32812L8.50586-6.32812L8.50586-4.20898C8.50586-3.76953 8.79883-3.4668 9.22852-3.4668C9.67773-3.4668 9.9707-3.76953 9.9707-4.20898L9.9707-6.32812L12.0898-6.32812C12.5293-6.32812 12.832-6.62109 12.832-7.05078C12.832-7.49023 12.5293-7.79297 12.0898-7.79297L9.9707-7.79297L9.9707-9.90234C9.9707-10.3516 9.67773-10.6543 9.22852-10.6543C8.79883-10.6543 8.50586-10.3516 8.50586-9.90234L8.50586-7.79297L6.40625-7.79297C5.95703-7.79297 5.6543-7.49023 5.6543-7.05078Z"/>
  </g>
  <g transform="matrix(1 0 0 1 281.867 1933)">
   <path d="M11.709 2.91016C17.1582 2.91016 21.6699-1.61133 21.6699-7.05078C21.6699-12.5 17.1484-17.0117 11.6992-17.0117C6.25977-17.0117 1.74805-12.5 1.74805-7.05078C1.74805-1.61133 6.26953 2.91016 11.709 2.91016ZM11.709 1.25C7.09961 1.25 3.41797-2.44141 3.41797-7.05078C3.41797-11.6602 7.08984-15.3516 11.6992-15.3516C16.3086-15.3516 20.0098-11.6602 20.0098-7.05078C20.0098-2.44141 16.3184 1.25 11.709 1.25ZM7.17773-7.05078C7.17773-6.57227 7.50977-6.25 8.00781-6.25L10.8789-6.25L10.8789-3.36914C10.8789-2.88086 11.2109-2.53906 11.6895-2.53906C12.1777-2.53906 12.5195-2.87109 12.5195-3.36914L12.5195-6.25L15.4004-6.25C15.8887-6.25 16.2305-6.57227 16.2305-7.05078C16.2305-7.53906 15.8887-7.88086 15.4004-7.88086L12.5195-7.88086L12.5195-10.752C12.5195-11.25 12.1777-11.5918 11.6895-11.5918C11.2109-11.5918 10.8789-11.25 10.8789-10.752L10.8789-7.88086L8.00781-7.88086C7.50977-7.88086 7.17773-7.53906 7.17773-7.05078Z"/>
  </g>
  <g transform="matrix(1 0 0 1 305.646 1933)">
   <path d="M14.9707 5.66406C21.9336 5.66406 27.6953-0.0976562 27.6953-7.05078C27.6953-14.0137 21.9238-19.7754 14.9609-19.7754C8.00781-19.7754 2.25586-14.0137 2.25586-7.05078C2.25586-0.0976562 8.01758 5.66406 14.9707 5.66406ZM14.9707 3.84766C8.93555 3.84766 4.08203-1.01562 4.08203-7.05078C4.08203-13.0957 8.92578-17.9492 14.9609-17.9492C21.0059-17.9492 25.8691-13.0957 25.8691-7.05078C25.8691-1.01562 21.0156 3.84766 14.9707 3.84766ZM9.19922-7.05078C9.19922-6.5332 9.57031-6.17188 10.1172-6.17188L14.0625-6.17188L14.0625-2.2168C14.0625-1.67969 14.4336-1.29883 14.9512-1.29883C15.4883-1.29883 15.8594-1.66992 15.8594-2.2168L15.8594-6.17188L19.8145-6.17188C20.3516-6.17188 20.7324-6.5332 20.7324-7.05078C20.7324-7.59766 20.3613-7.96875 19.8145-7.96875L15.8594-7.96875L15.8594-11.9141C15.8594-12.4609 15.4883-12.8418 14.9512-12.8418C14.4336-12.8418 14.0625-12.4609 14.0625-11.9141L14.0625-7.96875L10.1172-7.96875C9.57031-7.96875 9.19922-7.59766 9.19922-7.05078Z"/>
  </g>
  <text style="stroke:none;fill:black;font-family:sans-serif;font-size:13;font-weight:bold;" transform="matrix(1 0 0 1 263 1953)">Design Variations</text>
  <text style="stroke:none;fill:black;font-family:sans-serif;font-size:13;" transform="matrix(1 0 0 1 263 1971)">Symbols are supported in up to nine weights and three scales.</text>
  <text style="stroke:none;fill:black;font-family:sans-serif;font-size:13;" transform="matrix(1 0 0 1 263 1989)">For optimal layout with text and other symbols, vertically align</text>
  <text style="stroke:none;fill:black;font-family:sans-serif;font-size:13;" transform="matrix(1 0 0 1 263 2007)">symbols with the adjacent text.</text>
  <line style="fill:none;stroke:#00AEEF;stroke-width:0.5;opacity:1.0;" x1="776" x2="776" y1="1919" y2="1933"/>
  <g transform="matrix(1 0 0 1 776 1933)">
   <path d="M3.31055 0.15625C3.82812 0.15625 4.08203-0.0390625 4.26758-0.585938L5.52734-4.0332L11.2891-4.0332L12.5488-0.585938C12.7344-0.0390625 12.9883 0.15625 13.4961 0.15625C14.0137 0.15625 14.3457-0.15625 14.3457-0.644531C14.3457-0.810547 14.3164-0.966797 14.2383-1.17188L9.6582-13.3691C9.43359-13.9648 9.0332-14.2676 8.4082-14.2676C7.80273-14.2676 7.39258-13.9746 7.17773-13.3789L2.59766-1.16211C2.51953-0.957031 2.49023-0.800781 2.49023-0.634766C2.49023-0.146484 2.80273 0.15625 3.31055 0.15625ZM6.00586-5.51758L8.37891-12.0898L8.42773-12.0898L10.8008-5.51758Z"/>
  </g>
  <line style="fill:none;stroke:#00AEEF;stroke-width:0.5;opacity:1.0;" x1="793.197" x2="793.197" y1="1919" y2="1933"/>
  <text style="stroke:none;fill:black;font-family:sans-serif;font-size:13;font-weight:bold;" transform="matrix(1 0 0 1 776 1953)">Margins</text>
  <text style="stroke:none;fill:black;font-family:sans-serif;font-size:13;" transform="matrix(1 0 0 1 776 1971)">Leading and trailing margins on the left and right side of each symbol</text>
  <text style="stroke:none;fill:black;font-family:sans-serif;font-size:13;" transform="matrix(1 0 0 1 776 1989)">can be adjusted by modifying the x-location of the margin guidelines.</text>
  <text style="stroke:none;fill:black;font-family:sans-serif;font-size:13;" transform="matrix(1 0 0 1 776 2007)">Modifications are automatically applied proportionally to all</text>
  <text style="stroke:none;fill:black;font-family:sans-serif;font-size:13;" transform="matrix(1 0 0 1 776 2025)">scales and weights.</text>
  <g transform="matrix(1 0 0 1 1289 1933)">
   <path d="M2.8418 1.86523L4.54102 3.57422C5.40039 4.44336 6.38672 4.38477 7.31445 3.35938L18.0078-8.42773L17.041-9.4043L6.42578 2.27539C6.07422 2.67578 5.74219 2.77344 5.27344 2.30469L4.10156 1.14258C3.63281 0.683594 3.74023 0.341797 4.14062-0.0195312L15.6152-10.8203L14.6387-11.7871L3.04688-0.898438C2.06055 0.0195312 1.98242 0.996094 2.8418 1.86523ZM9.25781-16.3281C8.83789-15.918 8.80859-15.3418 9.04297-14.9512C9.27734-14.5898 9.73633-14.3555 10.3809-14.5215C11.8457-14.8633 13.3691-14.9219 14.7949-13.9844L14.209-12.5293C13.8672-11.6992 14.043-11.1133 14.5801-10.5664L16.875-8.25195C17.3633-7.76367 17.7734-7.74414 18.3398-7.8418L19.4043-8.03711L20.0684-7.36328L20.0293-6.80664C19.9902-6.30859 20.1172-5.92773 20.6055-5.44922L21.3672-4.70703C21.8457-4.22852 22.4609-4.19922 22.9297-4.66797L25.8398-7.58789C26.3086-8.05664 26.2891-8.65234 25.8105-9.13086L25.0391-9.89258C24.5605-10.3711 24.1895-10.5273 23.7109-10.4883L23.1348-10.4395L22.4902-11.0742L22.7344-12.1973C22.8613-12.7637 22.7051-13.2031 22.1191-13.7891L19.9219-15.9766C16.582-19.2969 12.1484-19.2188 9.25781-16.3281ZM10.752-15.957C13.1836-17.7344 16.4746-17.4316 18.7012-15.2051L21.1328-12.793C21.3672-12.5586 21.4062-12.373 21.3379-12.0312L21.0156-10.5469L22.5195-9.0625L23.5059-9.12109C23.7598-9.13086 23.8379-9.11133 24.0332-8.91602L24.6094-8.33984L22.168-5.89844L21.5918-6.47461C21.3965-6.66992 21.3672-6.74805 21.377-7.01172L21.4453-7.98828L19.9512-9.47266L18.4277-9.21875C18.1055-9.15039 17.959-9.17969 17.7148-9.41406L15.7129-11.416C15.459-11.6504 15.4297-11.8164 15.5859-12.1875L16.4648-14.2773C14.9023-15.7324 12.8711-16.3574 10.8398-15.7617C10.6836-15.7227 10.625-15.8496 10.752-15.957Z"/>
  </g>
  <text style="stroke:none;fill:black;font-family:sans-serif;font-size:13;font-weight:bold;" transform="matrix(1 0 0 1 1289 1953)">Exporting</text>
  <text style="stroke:none;fill:black;font-family:sans-serif;font-size:13;" transform="matrix(1 0 0 1 1289 1971)">Symbols should be outlined when exporting to ensure the</text>
  <text style="stroke:none;fill:black;font-family:sans-serif;font-size:13;" transform="matrix(1 0 0 1 1289 1989)">design is preserved when submitting to Xcode.</text>
  <text id="template-version" style="stroke:none;fill:black;font-family:sans-serif;font-size:13;text-anchor:end;" transform="matrix(1 0 0 1 3036 1933)">Template v.4.0</text>
  <text style="stroke:none;fill:black;font-family:sans-serif;font-size:13;text-anchor:end;" transform="matrix(1 0 0 1 3036 1951)">Requires Xcode 14 or greater</text>
  <text id="descriptive-name" style="stroke:none;fill:black;font-family:sans-serif;font-size:13;text-anchor:end;" transform="matrix(1 0 0 1 3036 1969)">Generated from fireplace</text>
  <text style="stroke:none;fill:black;font-family:sans-serif;font-size:13;text-anchor:end;" transform="matrix(1 0 0 1 3036 1987)">Typeset at 100 points</text>
  <text style="stroke:none;fill:black;font-family:sans-serif;font-size:13;" transform="matrix(1 0 0 1 263 726)">Small</text>
  <text style="stroke:none;fill:black;font-family:sans-serif;font-size:13;" transform="matrix(1 0 0 1 263 1156)">Medium</text>
  <text style="stroke:none;fill:black;font-family:sans-serif;font-size:13;" transform="matrix(1 0 0 1 263 1586)">Large</text>
 </g>
 <g id="Guides">
  <g id="H-reference" style="fill:#27AAE1;stroke:none;" transform="matrix(1 0 0 1 339 696)">
   <path d="M0.993654 0L3.63775 0L29.3281-67.1323L30.0303-67.1323L30.0303-70.459L28.1226-70.459ZM11.6885-24.4799L46.9815-24.4799L46.2315-26.7285L12.4385-26.7285ZM55.1196 0L57.7637 0L30.6382-70.459L29.4326-70.459L29.4326-67.1323Z"/>
  </g>
  <line id="Baseline-S" style="fill:none;stroke:#27AAE1;opacity:1;stroke-width:0.5;" x1="263" x2="3036" y1="696" y2="696"/>
  <line id="Capline-S" style="fill:none;stroke:#27AAE1;opacity:1;stroke-width:0.5;" x1="263" x2="3036" y1="625.541" y2="625.541"/>
  <g id="H-reference" style="fill:#27AAE1;stroke:none;" transform="matrix(1 0 0 1 339 1126)">
   <path d="M0.993654 0L3.63775 0L29.3281-67.1323L30.0303-67.1323L30.0303-70.459L28.1226-70.459ZM11.6885-24.4799L46.9815-24.4799L46.2315-26.7285L12.4385-26.7285ZM55.1196 0L57.7637 0L30.6382-70.459L29.4326-70.459L29.4326-67.1323Z"/>
  </g>
  <line id="Baseline-M" style="fill:none;stroke:#27AAE1;opacity:1;stroke-width:0.5;" x1="263" x2="3036" y1="1126" y2="1126"/>
  <line id="Capline-M" style="fill:none;stroke:#27AAE1;opacity:1;stroke-width:0.5;" x1="263" x2="3036" y1="1055.54" y2="1055.54"/>
  <g id="H-reference" style="fill:#27AAE1;stroke:none;" transform="matrix(1 0 0 1 339 1556)">
   <path d="M0.993654 0L3.63775 0L29.3281-67.1323L30.0303-67.1323L30.0303-70.459L28.1226-70.459ZM11.6885-24.4799L46.9815-24.4799L46.2315-26.7285L12.4385-26.7285ZM55.1196 0L57.7637 0L30.6382-70.459L29.4326-70.459L29.4326-67.1323Z"/>
  </g>
  <line id="Baseline-L" style="fill:none;stroke:#27AAE1;opacity:1;stroke-width:0.5;" x1="263" x2="3036" y1="1556" y2="1556"/>
  <line id="Capline-L" style="fill:none;stroke:#27AAE1;opacity:1;stroke-width:0.5;" x1="263" x2="3036" y1="1485.54" y2="1485.54"/>
  <line id="left-margin-Regular-M" style="fill:none;stroke:#00AEEF;stroke-width:0.5;opacity:1.0;" x1="1381.6" x2="1381.6" y1="1030.79" y2="1150.12"/>
  <line id="right-margin-Regular-M" style="fill:none;stroke:#00AEEF;stroke-width:0.5;opacity:1.0;" x1="1518.09" x2="1518.09" y1="1030.79" y2="1150.12"/>
 </g>
 <g id="Symbols">
  <g id="Black-L" transform="matrix(1 0 0 1 2832.56 1556)">
   <path d="M25.9745-62.7186L175.668-62.7186C181.159-62.7186 185.012-66.5715 185.012-72.0847L185.012-100.988C185.012-106.48 181.159-110.274 175.668-110.274L25.9745-110.274C20.4625-110.274 16.6096-106.48 16.6096-100.988L16.6096-72.0847C16.6096-66.5715 20.4625-62.7186 25.9745-62.7186ZM36.3944-80.9474C35.4854-80.9474 34.8385-81.5944 34.8385-82.5046L34.8385-90.43C34.8385-91.3986 35.4854-92.0456 36.3944-92.0456L165.248-92.0456C166.136-92.0456 166.783-91.3986 166.783-90.43L166.783-82.5046C166.783-81.5944 166.136-80.9474 165.248-80.9474ZM33.4717 29.7028L51.7005 29.7028L51.7005-71.7382L33.4717-71.7382ZM149.98 29.7028L168.229 29.7028L168.229-71.7382L149.98-71.7382ZM61.5436 29.7028L73.538 29.7028L73.538-39.5548C73.538-41.2115 74.6162-42.2909 76.2694-42.2909L125.432-42.2909C127.085-42.2909 128.142-41.2115 128.142-39.5548L128.142 29.7028L140.137 29.7028L140.137-45.3623C140.137-50.7529 136.626-54.2061 131.238-54.2061L70.463-54.2061C65.0749-54.2061 61.5436-50.7529 61.5436-45.3623ZM26.1097 39.6933L175.592 39.6933C181.089 39.6933 185.583 35.22 185.583 29.7028C185.583 24.2053 181.089 19.7123 175.592 19.7123L26.1097 19.7123C20.5925 19.7123 16.1192 24.2053 16.1192 29.7028C16.1192 35.22 20.5925 39.6933 26.1097 39.6933ZM100.156 14.3488C112.04 14.3488 119.766 6.40351 119.766-5.43035C119.766-25.2303 102.924-33.4436 91.4776-33.4436C88.2211-33.4436 86.7867-31.5619 88.4832-29.228C90.9845-26.0613 93.6072-22.5508 93.6477-17.0682C92.3402-19.4676 90.1516-21.1188 88.1275-21.1188C87.15-21.1188 86.5335-20.5411 86.5335-19.5636C86.5335-19.0579 86.537-17.9868 86.537-17.179C86.537-11.8113 82.9093-8.78284 82.9093-0.837585C82.9093 8.2972 89.8675 14.3488 100.156 14.3488ZM100.875 8.18639C96.6941 8.18639 93.8217 5.73335 93.8217 1.87633C93.8217-2.06231 96.6941-3.50747 97.1182-6.30061C98.3417-5.49881 99.0119-4.40812 99.6528-2.78609C100.881-4.54334 101.778-7.58372 100.976-11.8893C104.356-10.7819 108.754-6.09862 108.754-0.173409C108.754 4.26857 106.201 8.18639 100.875 8.18639Z"/>
  </g>
  <g id="Heavy-L" transform="matrix(1 0 0 1 2539.07 1556)">
   <path d="M25.1882-63.1102L170.036-63.1102C175.152-63.1102 178.708-66.6663 178.708-71.8184L178.708-98.6275C178.708-103.749 175.152-107.261 170.036-107.261L25.1882-107.261C20.0418-107.261 16.4856-103.749 16.4856-98.6275L16.4856-71.8184C16.4856-66.6663 20.0418-63.1102 25.1882-63.1102ZM34.2391-79.2719C33.3075-79.2719 32.6473-79.9321 32.6473-80.8693L32.6473-89.4571C32.6473-90.4389 33.3075-91.0991 34.2391-91.0991L160.985-91.0991C161.886-91.0991 162.547-90.4389 162.547-89.4571L162.547-80.8693C162.547-79.9321 161.886-79.2719 160.985-79.2719ZM32.7387 27.9109L48.9005 27.9109L48.9005-71.1376L32.7387-71.1376ZM146.338 27.9109L162.53 27.9109L162.53-71.1376L146.338-71.1376ZM59.0228 27.9109L69.9549 27.9109L69.9549-40.5021C69.9549-42.2698 71.0867-43.4072 72.8375-43.4072L122.431-43.4072C124.182-43.4072 125.284-42.2698 125.284-40.5021L125.284 27.9109L136.216 27.9109L136.216-45.4295C136.216-50.8289 132.741-54.2645 127.353-54.2645L67.9157-54.2645C62.5276-54.2645 59.0228-50.8289 59.0228-45.4295ZM24.9317 36.6611L170.343 36.6611C175.146 36.6611 179.093 32.7442 179.093 27.9109C179.093 23.1021 175.146 19.1607 170.343 19.1607L24.9317 19.1607C20.0984 19.1607 16.1815 23.1021 16.1815 27.9109C16.1815 32.7442 20.0984 36.6611 24.9317 36.6611ZM96.8804 13.9012C108.845 13.9012 116.646 5.89482 116.646-6.0647C116.646-26.0608 99.6357-34.3667 88.0109-34.3667C84.8102-34.3667 83.4244-32.5016 85.0817-30.2291C87.7083-26.9233 90.3106-23.26 90.271-17.7658C88.9541-20.211 86.6751-21.8854 84.6681-21.8854C83.7121-21.8854 83.127-21.3203 83.127-20.3644C83.127-19.8405 83.1439-18.7424 83.1439-17.9213C83.1439-12.44 79.4566-9.41879 79.4566-1.41238C79.4566 7.81607 86.4622 13.9012 96.8804 13.9012ZM97.5817 7.66057C93.3764 7.66057 90.4936 5.19321 90.4936 1.3208C90.4936-2.63764 93.3764-4.07397 93.8143-6.88196C95.0339-6.08899 95.7355-4.96632 96.3677-3.36142C97.6098-5.16885 98.4853-8.24617 97.6923-12.5092C101.175-11.3079 105.504-6.59552 105.504-0.738837C105.504 3.73231 102.932 7.66057 97.5817 7.66057Z"/>
  </g>
  <g id="Bold-L" transform="matrix(1 0 0 1 2246.34 1556)">
   <path d="M24.2496-63.6017L163.029-63.6017C167.699-63.6017 170.894-66.7966 170.894-71.5178L170.894-95.618C170.894-100.301 167.699-103.467 163.029-103.467L24.2496-103.467C19.5416-103.467 16.3468-100.301 16.3468-95.618L16.3468-71.5178C16.3468-66.7966 19.5416-63.6017 24.2496-63.6017ZM31.5578-77.1674C30.5955-77.1674 29.9125-77.8504 29.9125-78.826L29.9125-88.2135C29.9125-89.2182 30.5955-89.9012 31.5578-89.9012L155.721-89.9012C156.645-89.9012 157.328-89.2182 157.328-88.2135L157.328-78.826C157.328-77.8504 156.645-77.1674 155.721-77.1674ZM31.8171 25.6306L45.3828 25.6306L45.3828-70.3774L31.8171-70.3774ZM141.887 25.6306L155.491 25.6306L155.491-70.3774L141.887-70.3774ZM55.9701 25.6306L65.5211 25.6306L65.5211-41.6181C65.5211-43.5688 66.7369-44.7977 68.6479-44.7977L118.66-44.7977C120.571-44.7977 121.749-43.5688 121.749-41.6181L121.749 25.6306L131.3 25.6306L131.3-45.4618C131.3-50.8764 127.879-54.2816 122.491-54.2816L64.8173-54.2816C59.4292-54.2816 55.9701-50.8764 55.9701-45.4618ZM23.5016 32.8515L163.82 32.8515C167.77 32.8515 171.041 29.6187 171.041 25.6306C171.041 21.6674 167.77 18.4098 163.82 18.4098L23.5016 18.4098C19.5136 18.4098 16.2807 21.6674 16.2807 25.6306C16.2807 29.6187 19.5136 32.8515 23.5016 32.8515ZM92.8679 13.2213C104.881 13.2213 112.744 5.16786 112.744-6.90814C112.744-27.0755 95.5856-35.4743 83.7529-35.4743C80.6735-35.4743 79.3715-33.6545 80.9528-31.4961C83.7704-27.9839 86.3123-24.0988 86.143-18.6265C84.8183-21.1256 82.4167-22.8232 80.4476-22.8232C79.5372-22.8232 78.9979-22.2884 78.9979-21.378C78.9979-20.8311 79.0376-19.6947 79.0376-18.8508C79.0376-13.2236 75.2811-10.2399 75.2811-2.18653C75.2811 7.11995 82.3182 13.2213 92.8679 13.2213ZM93.5388 6.8957C89.3251 6.8957 86.4494 4.42036 86.4494 0.554831C86.4494-3.40435 89.3251-4.82545 89.7784-7.634C90.983-6.85626 91.7305-5.69513 92.3474-4.12813C93.6049-5.99706 94.4349-9.11302 93.6572-13.2775C97.2933-11.9312 101.47-7.21026 101.47-1.50518C101.47 2.97451 98.8899 6.8957 93.5388 6.8957Z"/>
  </g>
  <g id="Semibold-L" transform="matrix(1 0 0 1 1952.38 1556)">
   <path d="M23.6026-63.9406L158.199-63.9406C162.561-63.9406 165.507-66.8864 165.507-71.3106L165.507-93.5434C165.507-97.9242 162.561-100.851 158.199-100.851L23.6026-100.851C19.1969-100.851 16.2511-97.9242 16.2511-93.5434L16.2511-71.3106C16.2511-66.8864 19.1969-63.9406 23.6026-63.9406ZM29.7093-75.7166C28.7259-75.7166 28.0271-76.4154 28.0271-77.4173L28.0271-87.3561C28.0271-88.3766 28.7259-89.0754 29.7093-89.0754L152.092-89.0754C153.032-89.0754 153.731-88.3766 153.731-87.3561L153.731-77.4173C153.731-76.4154 153.032-75.7166 152.092-75.7166ZM31.1817 24.0586L42.9577 24.0586L42.9577-69.8533L31.1817-69.8533ZM138.819 24.0586L150.638 24.0586L150.638-69.8533L138.819-69.8533ZM53.8656 24.0586L62.4645 24.0586L62.4645-42.3874C62.4645-44.4643 63.7382-45.7564 65.7595-45.7564L116.06-45.7564C118.082-45.7564 119.312-44.4643 119.312-42.3874L119.312 24.0586L127.911 24.0586L127.911-45.4841C127.911-50.9092 124.527-54.2933 119.139-54.2933L62.6813-54.2933C57.2932-54.2933 53.8656-50.9092 53.8656-45.4841ZM22.5157 30.2252L159.323 30.2252C162.685 30.2252 165.489 27.4639 165.489 24.0586C165.489 20.6782 162.685 17.8921 159.323 17.8921L22.5157 17.8921C19.1104 17.8921 16.3491 20.6782 16.3491 24.0586C16.3491 27.4639 19.1104 30.2252 22.5157 30.2252ZM90.1018 12.7525C102.147 12.7525 110.054 4.66669 110.054-7.4896C110.054-27.7751 92.7934-36.2379 80.8175-36.2379C77.8217-36.2379 76.5775-34.4494 78.1063-32.3695C81.0556-28.715 83.5559-24.677 83.2972-19.2199C81.9671-21.7561 79.481-23.4697 77.538-23.4697C76.659-23.4697 76.1514-22.9558 76.1514-22.0768C76.1514-21.5139 76.2068-20.3512 76.2068-19.4916C76.2068-13.7638 72.4025-10.806 72.4025-2.72022C72.4025 6.64005 79.4614 12.7525 90.1018 12.7525ZM90.7517 6.36841C86.5322 6.36841 83.6613 3.88756 83.6613 0.0267729C83.6613-3.93292 86.5322-5.34351 86.9962-8.15244C88.1904-7.38521 88.9695-6.19757 89.5759-4.6567C90.8441-6.56802 91.6427-9.71061 90.8754-13.8073C94.6169-12.3609 98.6895-7.63405 98.6895-2.03349C98.6895 2.45208 96.1034 6.36841 90.7517 6.36841Z"/>
  </g>
  <g id="Medium-L" transform="matrix(1 0 0 1 1657.75 1556)">
   <path d="M23.112-64.1976L154.536-64.1976C158.665-64.1976 161.422-66.9544 161.422-71.1534L161.422-91.9702C161.422-96.1218 158.665-98.8681 154.536-98.8681L23.112-98.8681C18.9354-98.8681 16.1786-96.1218 16.1786-91.9702L16.1786-71.1534C16.1786-66.9544 18.9354-64.1976 23.112-64.1976ZM28.3077-74.6165C27.3083-74.6165 26.5975-75.3272 26.5975-76.3492L26.5975-86.7061C26.5975-87.7385 27.3083-88.4492 28.3077-88.4492L149.34-88.4492C150.292-88.4492 151.003-87.7385 151.003-86.7061L151.003-76.3492C151.003-75.3272 150.292-74.6165 149.34-74.6165ZM30.7 22.8667L41.1189 22.8667L41.1189-69.4559L30.7-69.4559ZM136.492 22.8667L146.959 22.8667L146.959-69.4559L136.492-69.4559ZM52.2699 22.8667L60.1469 22.8667L60.1469-42.9708C60.1469-45.1433 61.4644-46.4833 63.5695-46.4833L114.089-46.4833C116.194-46.4833 117.464-45.1433 117.464-42.9708L117.464 22.8667L125.341 22.8667L125.341-45.501C125.341-50.9341 121.985-54.3023 116.597-54.3023L61.0617-54.3023C55.6736-54.3023 52.2699-50.9341 52.2699-45.501ZM21.7681 28.2338L155.913 28.2338C158.829 28.2338 161.28 25.8301 161.28 22.8667C161.28 19.9282 158.829 17.4995 155.913 17.4995L21.7681 17.4995C18.8047 17.4995 16.401 19.9282 16.401 22.8667C16.401 25.8301 18.8047 28.2338 21.7681 28.2338ZM88.0044 12.3971C100.075 12.3971 108.014 4.28669 108.014-7.93049C108.014-28.3055 90.6763-36.8169 78.5917-36.8169C75.6593-36.8169 74.4589-35.052 75.9481-33.0318C78.9972-29.2694 81.4658-25.1155 81.1394-19.6698C79.8052-22.2342 77.255-23.9599 75.3318-23.9599C74.4766-23.9599 73.993-23.4619 73.993-22.6066C73.993-22.0317 74.0604-20.849 74.0604-19.9774C74.0604-14.1734 70.2198-11.2353 70.2198-3.12488C70.2198 6.27616 77.2952 12.3971 88.0044 12.3971ZM88.6383 5.96859C84.4145 5.96859 81.5473 3.48357 81.5473-0.373622C81.5473-4.3337 84.4145-5.73633 84.8865-8.54555C86.0729-7.78628 86.876-6.57854 87.4744-5.05748C88.7506-7.00094 89.5255-10.1637 88.7662-14.2089C92.5876-12.6867 96.5809-7.9554 96.5809-2.43408C96.5809 2.05596 93.9905 5.96859 88.6383 5.96859Z"/>
  </g>
  <g id="Regular-L" transform="matrix(1 0 0 1 1363.76 1556)">
   <path d="M22.4721-64.5327L149.759-64.5327C153.584-64.5327 156.094-67.0432 156.094-70.9485L156.094-89.9184C156.094-93.7709 153.584-96.2813 149.759-96.2813L22.4721-96.2813C18.5945-96.2813 16.084-93.7709 16.084-89.9184L16.084-70.9485C16.084-67.0432 18.5945-64.5327 22.4721-64.5327ZM26.4795-73.1816C25.4592-73.1816 24.7328-73.9079 24.7328-74.9559L24.7328-85.8581C24.7328-86.9062 25.4592-87.6325 26.4795-87.6325L145.751-87.6325C146.719-87.6325 147.445-86.9062 147.445-85.8581L147.445-74.9559C147.445-73.9079 146.719-73.1816 145.751-73.1816ZM30.0716 21.312L38.7204 21.312L38.7204-68.9376L30.0716-68.9376ZM133.458 21.312L142.159 21.312L142.159-68.9376L133.458-68.9376ZM50.1885 21.312L57.1238 21.312L57.1238-43.7316C57.1238-46.0289 58.4986-47.4314 60.7129-47.4314L111.518-47.4314C113.732-47.4314 115.054-46.0289 115.054-43.7316L115.054 21.312L121.99 21.312L121.99-45.523C121.99-50.9665 118.67-54.3139 113.282-54.3139L58.9492-54.3139C53.561-54.3139 50.1885-50.9665 50.1885-45.523ZM20.7931 25.6364L151.465 25.6364C153.8 25.6364 155.79 23.6991 155.79 21.312C155.79 18.95 153.8 16.9876 151.465 16.9876L20.7931 16.9876C18.406 16.9876 16.4686 18.95 16.4686 21.312C16.4686 23.6991 18.406 25.6364 20.7931 25.6364ZM85.2686 11.9335C97.3716 11.9335 105.353 3.79103 105.353-8.50556C105.353-28.9973 87.9149-37.5721 75.6885-37.5721C72.8389-37.5721 71.6955-35.8381 73.1329-33.8957C76.3122-29.9926 78.7397-25.6874 78.3249-20.2567C76.9854-22.8578 74.3515-24.5994 72.4542-24.5994C71.63-24.5994 71.1777-24.1219 71.1777-23.2977C71.1777-22.7071 71.2607-21.4983 71.2607-20.6111C71.2607-14.7077 67.3729-11.7951 67.3729-3.65271C67.3729 5.80153 74.4698 11.9335 85.2686 11.9335ZM85.8818 5.4471C81.6523 5.4471 78.7899 2.95663 78.7899-0.895877C78.7899-4.85646 81.6523-6.2487 82.1348-9.0583C83.3109-8.30942 84.1453-7.07546 84.7334-5.58024C86.0201-7.56563 86.7639-10.7548 86.015-14.7328C89.9407-13.1117 93.8306-8.37454 93.8306-2.95659C93.8306 1.53928 91.2346 5.4471 85.8818 5.4471Z"/>
  </g>
  <g id="Light-L" transform="matrix(1 0 0 1 1069.76 1556)">
   <path d="M22.0522-64.9145L144.72-64.9145C148.354-64.9145 150.655-67.215 150.655-70.9294L150.655-87.2846C150.655-90.9653 148.354-93.2659 144.72-93.2659L22.0522-93.2659C18.3845-93.2659 16.084-90.9653 16.084-87.2846L16.084-70.9294C16.084-67.215 18.3845-64.9145 22.0522-64.9145ZM24.5519-71.5403C23.4934-71.5403 22.7098-72.3239 22.7098-73.4291L22.7098-84.7512C22.7098-85.8565 23.4934-86.64 24.5519-86.64L142.221-86.64C143.245-86.64 144.029-85.8565 144.029-84.7512L144.029-73.4291C144.029-72.3239 143.245-71.5403 142.221-71.5403ZM29.3463 19.3462L35.9721 19.3462L35.9721-68.3078L29.3463-68.3078ZM130.767 19.3462L137.426 19.3462L137.426-68.3078L130.767-68.3078ZM48.5281 19.3462L54.0893 19.3462L54.0893-44.1324C54.0893-46.8496 55.6358-48.4429 58.2127-48.4429L108.56-48.4429C111.137-48.4429 112.649-46.8496 112.649-44.1324L112.649 19.3462L118.211 19.3462L118.211-45.2177C118.211-50.6993 114.986-53.9704 109.598-53.9704L57.1742-53.9704C51.7861-53.9704 48.5281-50.6993 48.5281-45.2177ZM19.9915 22.6591L146.828 22.6591C148.609 22.6591 150.141 21.1607 150.141 19.3462C150.141 17.5186 148.609 16.0333 146.828 16.0333L19.9915 16.0333C18.1769 16.0333 16.6786 17.5186 16.6786 19.3462C16.6786 21.1607 18.1769 22.6591 19.9915 22.6591ZM82.7876 10.6547C94.5852 10.6547 102.414 2.665 102.414-9.45983C102.414-29.6081 85.262-38.1065 72.9784-38.1065C70.5486-38.1065 69.6152-36.5634 70.8236-34.9454C74.3655-30.6797 76.5258-26.0118 75.8247-20.8292C74.5043-23.4494 71.7178-25.1719 69.9541-25.1719C69.2825-25.1719 68.9066-24.809 68.9066-24.1375C68.9066-23.5278 69.0468-22.2617 69.0468-21.3173C69.0468-15.2803 65.1399-12.5776 65.1399-4.58789C65.1399 4.6755 72.0842 10.6547 82.7876 10.6547ZM83.3244 4.18747C79.2285 4.18747 76.4997 1.75426 76.4997-1.92648C76.4997-5.73438 79.2285-7.08846 79.711-9.78354C80.8107-9.07283 81.7215-7.81979 82.2714-6.45816C83.5581-8.48172 84.1492-11.6518 83.4385-15.2672C87.6313-13.3598 90.9869-8.79441 90.9869-3.91085C90.9869 0.413246 88.4863 4.18747 83.3244 4.18747Z"/>
  </g>
  <g id="Thin-L" transform="matrix(1 0 0 1 776.65 1556)">
   <path d="M21.4969-65.4193L138.056-65.4193C141.438-65.4193 143.461-67.4422 143.461-70.9042L143.461-83.8012C143.461-87.2548 141.438-89.2777 138.056-89.2777L21.4969-89.2777C18.1069-89.2777 16.084-87.2548 16.084-83.8012L16.084-70.9042C16.084-67.4422 18.1069-65.4193 21.4969-65.4193ZM22.0025-69.3695C20.8935-69.3695 20.0342-70.2288 20.0342-71.4098L20.0342-83.2872C20.0342-84.4682 20.8935-85.3275 22.0025-85.3275L137.551-85.3275C138.651-85.3275 139.511-84.4682 139.511-83.2872L139.511-71.4098C139.511-70.2288 138.651-69.3695 137.551-69.3695ZM28.3871 16.7463L32.3373 16.7463L32.3373-67.4748L28.3871-67.4748ZM127.208 16.7463L131.166 16.7463L131.166-67.4748L127.208-67.4748ZM46.332 16.7463L50.0758 16.7463L50.0758-44.6625C50.0758-47.935 51.8496-49.7807 54.9061-49.7807L104.647-49.7807C107.704-49.7807 109.469-47.935 109.469-44.6625L109.469 16.7463L113.213 16.7463L113.213-44.8138C113.213-50.3459 110.115-53.516 104.727-53.516L54.8268-53.516C49.4386-53.516 46.332-50.3459 46.332-44.8138ZM18.9313 18.7214L140.694 18.7214C141.743 18.7214 142.669 17.8036 142.669 16.7463C142.669 15.6255 141.743 14.7712 140.694 14.7712L18.9313 14.7712C17.874 14.7712 16.9562 15.6255 16.9562 16.7463C16.9562 17.8036 17.874 18.7214 18.9313 18.7214ZM79.5061 8.96354C90.8999 8.96354 98.5269 1.17574 98.5269-10.7219C98.5269-30.4158 81.7534-38.8132 69.394-38.8132C67.5196-38.8132 66.8639-37.5226 67.7693-36.3337C71.7909-31.5884 73.5978-26.4409 72.518-21.5865C71.2229-24.2319 68.2344-25.9292 66.6474-25.9292C66.1778-25.9292 65.9028-25.7177 65.9028-25.2481C65.9028-24.6132 66.1187-23.2714 66.1187-22.2512C66.1187-16.0375 62.1866-13.6125 62.1866-5.82474C62.1866 3.18623 68.9289 8.96354 79.5061 8.96354ZM79.942 2.52151C76.0228 2.52151 73.4707 0.164022 73.4707-3.28954C73.4707-6.89551 76.0228-8.1991 76.5053-10.7427C77.5041-10.0825 78.5158-8.80422 79.0152-7.61929C80.3019-9.69333 80.6911-12.8381 80.0308-15.974C84.5771-13.6879 87.2259-9.34973 87.2259-5.17294C87.2259-1.07602 84.8515 2.52151 79.942 2.52151Z"/>
  </g>
  <g id="Ultralight-L" transform="matrix(1 0 0 1 481.781 1556)">
   <path d="M21.2124-65.6779L134.643-65.6779C137.895-65.6779 139.776-67.5585 139.776-70.8912L139.776-82.0171C139.776-85.3543 137.895-87.2349 134.643-87.2349L21.2124-87.2349C17.9646-87.2349 16.084-85.3543 16.084-82.0171L16.084-70.8912C16.084-67.5585 17.9646-65.6779 21.2124-65.6779ZM20.6967-68.2576C19.5618-68.2576 18.6637-69.1557 18.6637-70.3755L18.6637-82.5373C18.6637-83.7571 19.5618-84.6552 20.6967-84.6552L135.159-84.6552C136.298-84.6552 137.196-83.7571 137.196-82.5373L137.196-70.3755C137.196-69.1557 136.298-68.2576 135.159-68.2576ZM27.8958 15.4146L30.4756 15.4146L30.4756-67.0482L27.8958-67.0482ZM125.385 15.4146L127.96 15.4146L127.96-67.0482L125.385-67.0482ZM45.2072 15.4146L48.0202 15.4146L48.0202-44.934C48.0202-48.4909 49.9102-50.4659 53.2124-50.4659L102.643-50.4659C105.945-50.4659 107.84-48.4909 107.84-44.934L107.84 15.4146L110.653 15.4146L110.653-44.607C110.653-50.1649 107.619-53.2833 102.231-53.2833L53.6244-53.2833C48.2362-53.2833 45.2072-50.1649 45.2072-44.607ZM18.3883 16.7045L137.552 16.7045C138.226 16.7045 138.842 16.0841 138.842 15.4146C138.842 14.6558 138.226 14.1248 137.552 14.1248L18.3883 14.1248C17.7189 14.1248 17.0984 14.6558 17.0984 15.4146C17.0984 16.0841 17.7189 16.7045 18.3883 16.7045ZM77.8254 8.09731C89.0123 8.09731 96.5358 0.412941 96.5358-11.3684C96.5358-30.8295 79.9563-39.1752 67.5581-39.1752C65.9682-39.1752 65.4546-38.0139 66.2049-37.0448C70.4721-32.0538 72.0981-26.6607 70.8244-21.9744C69.5421-24.6327 66.4502-26.317 64.9537-26.317C64.5875-26.317 64.3643-26.1831 64.3643-25.817C64.3643-25.1691 64.619-23.7885 64.619-22.7296C64.619-16.4254 60.6739-14.1426 60.6739-6.45825C60.6739 2.42344 67.3128 8.09731 77.8254 8.09731ZM78.2095 1.66821C74.3808 1.66821 71.9192-0.650489 71.9192-3.98769C71.9192-7.49023 74.3808-8.76796 74.8633-11.234C75.8104-10.5996 76.8738-9.30844 77.3474-8.21401C78.6341-10.3139 78.9198-13.4458 78.2854-16.336C83.0127-13.856 85.2995-9.63416 85.2995-5.81938C85.2995-1.83882 82.9898 1.66821 78.2095 1.66821Z"/>
  </g>
  <g id="Black-M" transform="matrix(1 0 0 1 2852.88 1126)">
   <path d="M20.7425-56.2416L140.255-56.2416C144.806-56.2416 148.017-59.4531 148.017-64.009L148.017-87.8465C148.017-92.3969 144.806-95.5513 140.255-95.5513L20.7425-95.5513C16.1863-95.5513 12.9748-92.3969 12.9748-87.8465L12.9748-64.009C12.9748-59.4531 16.1863-56.2416 20.7425-56.2416ZM29.7874-71.8667C29.0974-71.8667 28.5999-72.3643 28.5999-73.054L28.5999-78.6818C28.5999-79.4286 29.0974-79.9262 29.7874-79.9262L131.21-79.9262C131.895-79.9262 132.392-79.4286 132.392-78.6818L132.392-73.054C132.392-72.3643 131.895-71.8667 131.21-71.8667ZM26.4636 16.35L42.0887 16.35L42.0887-63.9452L26.4636-63.9452ZM118.96 16.35L134.591 16.35L134.591-63.9452L118.96-63.9452ZM49.6218 16.35L59.6412 16.35L59.6412-37.8206C59.6412-39.0657 60.4539-39.878 61.6998-39.878L99.3548-39.878C100.601-39.878 101.408-39.0657 101.408-37.8206L101.408 16.35L111.427 16.35L111.427-42.9807C111.427-47.1546 108.69-49.8348 104.515-49.8348L56.5393-49.8348C52.3649-49.8348 49.6218-47.1546 49.6218-42.9807ZM21.132 25.019L139.922 25.019C144.701 25.019 148.591 21.1346 148.591 16.35C148.591 11.5713 144.701 7.68105 139.922 7.68105L21.132 7.68105C16.3475 7.68105 12.463 11.5713 12.463 16.35C12.463 21.1346 16.3475 25.019 21.132 25.019ZM80.0744 3.39224C89.1704 3.39224 95.0709-2.69004 95.0709-11.727C95.0709-26.8517 82.2057-33.1249 73.4837-33.1249C70.9696-33.1249 69.845-31.6787 71.162-29.8618C73.0414-27.4788 75.0548-24.8413 75.1161-20.6372C74.1138-22.4594 72.4753-23.7162 70.9105-23.7162C70.1553-23.7162 69.661-23.2731 69.661-22.518C69.661-22.1392 69.6601-21.3249 69.6601-20.7027C69.6601-16.6236 66.8982-14.2996 66.8982-8.21735C66.8982-1.24661 72.2276 3.39224 80.0744 3.39224ZM80.6362-1.31214C77.4359-1.31214 75.2376-3.19255 75.2376-6.14425C75.2376-9.15798 77.4359-10.28 77.7526-12.4157C78.6935-11.7921 79.196-10.972 79.695-9.71872C80.6348-11.0422 81.3276-13.3634 80.704-16.6865C83.2702-15.8704 86.6634-12.2904 86.6634-7.71342C86.6634-4.32038 84.7149-1.31214 80.6362-1.31214Z"/>
  </g>
  <g id="Heavy-M" transform="matrix(1 0 0 1 2559.06 1126)">
   <path d="M20.0125-56.5892L135.214-56.5892C139.416-56.5892 142.357-59.5301 142.357-63.7505L142.357-85.7823C142.357-89.9863 139.416-92.8835 135.214-92.8835L20.0125-92.8835C15.7944-92.8835 12.8535-89.9863 12.8535-85.7823L12.8535-63.7505C12.8535-59.5301 15.7944-56.5892 20.0125-56.5892ZM27.8583-70.3802C27.1498-70.3802 26.6445-70.8854 26.6445-71.5963L26.6445-77.8328C26.6445-78.5873 27.1498-79.0926 27.8583-79.0926L127.368-79.0926C128.061-79.0926 128.566-78.5873 128.566-77.8328L128.566-71.5963C128.566-70.8854 128.061-70.3802 127.368-70.3802ZM25.814 14.7796L39.605 14.7796L39.605-63.4161L25.814-63.4161ZM115.649 14.7796L129.456 14.7796L129.456-63.4161L115.649-63.4161ZM47.3108 14.7796L56.4185 14.7796L56.4185-38.7097C56.4185-40.0245 57.2676-40.8759 58.5756-40.8759L96.6947-40.8759C98.0027-40.8759 98.8354-40.0245 98.8354-38.7097L98.8354 14.7796L107.943 14.7796L107.943-43.0746C107.943-47.2535 105.232-49.9235 101.057-49.9235L54.213-49.9235C50.0386-49.9235 47.3108-47.2535 47.3108-43.0746ZM20.0544 22.3294L135.218 22.3294C139.371 22.3294 142.768 18.9485 142.768 14.7796C142.768 10.6249 139.371 7.22981 135.218 7.22981L20.0544 7.22981C15.8856 7.22981 12.5046 10.6249 12.5046 14.7796C12.5046 18.9485 15.8856 22.3294 20.0544 22.3294ZM77.1009 3.07271C86.3042 3.07271 92.2922-3.08344 92.2922-12.259C92.2922-27.6072 79.2362-33.978 70.3448-33.978C67.8466-33.978 66.7501-32.5304 68.0499-30.7435C70.0183-28.258 72.0363-25.5046 72.0458-21.2663C71.0325-23.1315 69.3197-24.4127 67.7593-24.4127C67.0111-24.4127 66.5405-23.9715 66.5405-23.2234C66.5405-22.8286 66.5473-21.9931 66.5473-21.3633C66.5473-17.1854 63.7289-14.8491 63.7289-8.69298C63.7289-1.61306 69.1187 3.07271 77.1009 3.07271ZM77.6526-1.70997C74.4162-1.70997 72.1954-3.60965 72.1954-6.59224C72.1954-9.63941 74.4162-10.7563 74.7464-12.9171C75.6906-12.2986 76.2168-11.449 76.7107-10.2002C77.6639-11.5691 78.3498-13.9282 77.7313-17.2432C80.3737-16.3618 83.7492-12.7374 83.7492-8.17813C83.7492-4.74073 81.7731-1.70997 77.6526-1.70997Z"/>
  </g>
  <g id="Bold-M" transform="matrix(1 0 0 1 2265.59 1126)">
   <path d="M19.1959-56.978L129.575-56.978C133.387-56.978 136.025-59.6161 136.025-63.4612L136.025-83.4733C136.025-87.2898 133.387-89.8993 129.575-89.8993L19.1959-89.8993C15.3559-89.8993 12.7179-87.2898 12.7179-83.4733L12.7179-63.4612C12.7179-59.6161 15.3559-56.978 19.1959-56.978ZM25.7003-68.7173C24.971-68.7173 24.4571-69.2311 24.4571-69.9656L24.4571-76.8831C24.4571-77.6462 24.971-78.16 25.7003-78.16L123.071-78.16C123.772-78.16 124.285-77.6462 124.285-76.8831L124.285-69.9656C124.285-69.2311 123.772-68.7173 123.071-68.7173ZM25.0873 13.0229L36.8266 13.0229L36.8266-62.8243L25.0873-62.8243ZM111.945 13.0229L123.712 13.0229L123.712-62.8243L111.945-62.8243ZM44.7256 13.0229L52.8134 13.0229L52.8134-39.7043C52.8134-41.0971 53.7033-41.9922 55.0807-41.9922L93.7191-41.9922C95.0965-41.9922 95.9578-41.0971 95.9578-39.7043L95.9578 13.0229L104.046 13.0229L104.046-43.1795C104.046-47.3642 101.364-50.0228 97.1892-50.0228L51.6106-50.0228C47.4362-50.0228 44.7256-47.3642 44.7256-43.1795ZM18.849 19.3207L129.956 19.3207C133.407 19.3207 136.254 16.503 136.254 13.0229C136.254 9.56629 133.407 6.72504 129.956 6.72504L18.849 6.72504C15.3689 6.72504 12.5512 9.56629 12.5512 13.0229C12.5512 16.503 15.3689 19.3207 18.849 19.3207ZM73.7747 2.71527C83.0981 2.71527 89.1837-3.52351 89.1837-12.8543C89.1837-28.4524 75.9144-34.9324 66.8335-34.9324C64.353-34.9324 63.288-33.4832 64.5686-31.7299C66.6365-29.1297 68.6597-26.2466 68.6112-21.9702C67.5857-23.8834 65.7897-25.1919 64.2343-25.1919C63.4939-25.1919 63.0498-24.7528 63.0498-24.0125C63.0498-23.5997 63.0652-22.7406 63.0652-22.1022C63.0652-17.8139 60.1836-15.4638 60.1836-9.22504C60.1836-2.02299 65.641 2.71527 73.7747 2.71527ZM74.3149-2.15499C71.0383-2.15499 68.7923-4.07624 68.7923-7.09338C68.7923-10.178 71.0383-11.2892 71.3836-13.478C72.3314-12.8652 72.8841-11.9826 73.3723-10.7387C74.3406-12.1586 75.0186-14.56 74.4058-17.8659C77.1335-16.9114 80.4892-13.2375 80.4892-8.69798C80.4892-5.21095 78.4822-2.15499 74.3149-2.15499Z"/>
  </g>
  <g id="Semibold-M" transform="matrix(1 0 0 1 1971.12 1126)">
   <path d="M18.6329-57.2461L125.688-57.2461C129.23-57.2461 131.659-59.6754 131.659-63.2618L131.659-81.8814C131.659-85.4308 129.23-87.842 125.688-87.842L18.6329-87.842C15.0537-87.842 12.6243-85.4308 12.6243-81.8814L12.6243-63.2618C12.6243-59.6754 15.0537-57.2461 18.6329-57.2461ZM24.2126-67.5709C23.4689-67.5709 22.9492-68.0907 22.9492-68.8415L22.9492-76.2284C22.9492-76.9974 23.4689-77.5171 24.2126-77.5171L120.108-77.5171C120.815-77.5171 121.335-76.9974 121.335-76.2284L121.335-68.8415C121.335-68.0907 120.815-67.5709 120.108-67.5709ZM24.5863 11.8118L34.9111 11.8118L34.9111-62.4163L24.5863-62.4163ZM109.391 11.8118L119.753 11.8118L119.753-62.4163L109.391-62.4163ZM42.9433 11.8118L50.328 11.8118L50.328-40.39C50.328-41.8366 51.2461-42.7618 52.6713-42.7618L91.6677-42.7618C93.0929-42.7618 93.9739-41.8366 93.9739-40.39L93.9739 11.8118L101.359 11.8118L101.359-43.2519C101.359-47.4405 98.6969-50.0912 94.5225-50.0912L49.8165-50.0912C45.6421-50.0912 42.9433-47.4405 42.9433-43.2519ZM18.018 17.2466L126.328 17.2466C129.296 17.2466 131.763 14.8171 131.763 11.8118C131.763 8.83647 129.296 6.37705 126.328 6.37705L18.018 6.37705C15.0127 6.37705 12.5832 8.83647 12.5832 11.8118C12.5832 14.8171 15.0127 17.2466 18.018 17.2466ZM71.4816 2.46885C80.8877 2.46885 87.0407-3.8269 87.0407-13.2646C87.0407-29.0351 73.6243-35.5903 64.4129-35.5903C61.9446-35.5903 60.9013-34.1401 62.1685-32.4099C64.3051-29.7307 66.3318-26.7582 66.2434-22.4554C65.2095-24.4018 63.3561-25.729 61.8041-25.729C61.0692-25.729 60.6433-25.2914 60.6433-24.5564C60.6433-24.1314 60.6646-23.2559 60.6646-22.6116C60.6646-18.2471 57.7395-15.8876 57.7395-9.59183C57.7395-2.30559 63.2434 2.46885 71.4816 2.46885ZM72.0139-2.46178C68.7096-2.46178 66.4462-4.3979 66.4462-7.43886C66.4462-10.5492 68.7096-11.6565 69.0652-13.8647C70.0155-13.2558 70.5865-12.3505 71.0708-11.11C72.0495-12.565 72.7221-14.9956 72.1133-18.2952C74.8997-17.2904 78.2418-13.5822 78.2418-9.05635C78.2418-5.53511 76.2134-2.46178 72.0139-2.46178Z"/>
  </g>
  <g id="Medium-M" transform="matrix(1 0 0 1 1676.1 1126)">
   <path d="M18.2061-57.4493L122.74-57.4493C126.078-57.4493 128.35-59.7204 128.35-63.1106L128.35-80.6745C128.35-84.0212 126.078-86.282 122.74-86.282L18.2061-86.282C14.8245-86.282 12.5534-84.0212 12.5534-80.6745L12.5534-63.1106C12.5534-59.7204 14.8245-57.4493 18.2061-57.4493ZM23.0846-66.7017C22.33-66.7017 21.8058-67.2259 21.8058-67.9891L21.8058-75.732C21.8058-76.5054 22.33-77.0297 23.0846-77.0297L117.862-77.0297C118.573-77.0297 119.097-76.5054 119.097-75.732L119.097-67.9891C119.097-67.2259 118.573-66.7017 117.862-66.7017ZM24.2065 10.8935L33.4588 10.8935L33.4588-62.107L24.2065-62.107ZM107.454 10.8935L116.75 10.8935L116.75-62.107L107.454-62.107ZM41.592 10.8935L48.4435 10.8935L48.4435-40.9099C48.4435-42.3973 49.3829-43.3453 50.8444-43.3453L90.1122-43.3453C91.5737-43.3453 92.4697-42.3973 92.4697-40.9099L92.4697 10.8935L99.3212 10.8935L99.3212-43.3068C99.3212-47.4984 96.6749-50.1431 92.5005-50.1431L48.4562-50.1431C44.2818-50.1431 41.592-47.4984 41.592-43.3068ZM17.3879 15.6739L123.577 15.6739C126.179 15.6739 128.358 13.5388 128.358 10.8935C128.358 8.2831 126.179 6.11319 123.577 6.11319L17.3879 6.11319C14.7427 6.11319 12.6076 8.2831 12.6076 10.8935C12.6076 13.5388 14.7427 15.6739 17.3879 15.6739ZM69.7429 2.28201C79.2118 2.28201 85.4158-4.05693 85.4158-13.5757C85.4158-29.4769 71.8879-36.0892 62.5774-36.0892C60.1184-36.0892 59.0915-34.6381 60.3487-32.9255C62.5374-30.1864 64.5668-27.146 64.4481-22.8233C63.4078-24.7948 61.5109-26.1363 59.9615-26.1363C59.2306-26.1363 58.8186-25.6998 58.8186-24.9689C58.8186-24.5345 58.8444-23.6467 58.8444-22.9978C58.8444-18.5756 55.8863-16.2089 55.8863-9.86996C55.8863-2.51987 61.4255 2.28201 69.7429 2.28201ZM70.2693-2.69441C66.9438-2.69441 64.6673-4.6418 64.6673-7.70082C64.6673-10.8308 66.9438-11.935 67.3074-14.1579C68.2596-13.552 68.8444-12.6294 69.3257-11.3915C70.3123-12.8732 70.9808-15.3259 70.375-18.6207C73.206-17.5777 76.5377-13.8436 76.5377-9.32809C76.5377-5.78091 74.4932-2.69441 70.2693-2.69441Z"/>
  </g>
  <g id="Regular-M" transform="matrix(1 0 0 1 1381.6 1126)">
   <path d="M17.6493-57.7144L118.896-57.7144C121.968-57.7144 124.032-59.779 124.032-62.9134L124.032-79.1001C124.032-82.1827 121.968-84.2473 118.896-84.2473L17.6493-84.2473C14.5255-84.2473 12.4609-82.1827 12.4609-79.1001L12.4609-62.9134C12.4609-59.779 14.5255-57.7144 17.6493-57.7144ZM21.6133-65.5679C20.8445-65.5679 20.3144-66.098 20.3144-66.8773L20.3144-75.0844C20.3144-75.8637 20.8445-76.3938 21.6133-76.3938L114.932-76.3938C115.649-76.3938 116.179-75.8637 116.179-75.0844L116.179-66.8773C116.179-66.098 115.649-65.5679 114.932-65.5679ZM23.711 9.69576L31.5644 9.69576L31.5644-61.7035L23.711-61.7035ZM104.929 9.69576L112.834 9.69576L112.834-61.7035L104.929-61.7035ZM39.8293 9.69576L45.9855 9.69576L45.9855-41.5881C45.9855-43.1286 46.9527-44.1064 48.4616-44.1064L88.0833-44.1064C89.5922-44.1064 90.5077-43.1286 90.5077-41.5881L90.5077 9.69576L96.6638 9.69576L96.6638-43.3784C96.6638-47.5739 94.0375-50.2108 89.8631-50.2108L46.6818-50.2108C42.5074-50.2108 39.8293-47.5739 39.8293-43.3784ZM16.566 13.6225L119.989 13.6225C122.113 13.6225 123.916 11.8714 123.916 9.69576C123.916 7.56131 122.113 5.76903 119.989 5.76903L16.566 5.76903C14.3904 5.76903 12.6393 7.56131 12.6393 9.69576C12.6393 11.8714 14.3904 13.6225 16.566 13.6225ZM67.475 2.0383C77.0258 2.0383 83.2964-4.35698 83.2964-13.9816C83.2964-30.0532 69.6231-36.7399 60.1834-36.7399C57.7364-36.7399 56.731-35.2878 57.9751-33.598C60.2316-30.7807 62.2646-27.6519 62.1063-23.3032C61.0577-25.3075 59.1041-26.6676 57.558-26.6676C56.8325-26.6676 56.4386-26.2325 56.4386-25.5069C56.4386-25.0602 56.4702-24.1563 56.4702-23.5016C56.4702-19.0041 53.469-16.628 53.469-10.2327C53.469-2.79937 59.0544 2.0383 67.475 2.0383ZM67.9936-2.99783C64.6407-2.99783 62.347-4.95993 62.347-8.04251C62.347-11.1979 64.6407-12.2983 65.0145-14.5403C65.9692-13.9384 66.5721-12.9932 67.0495-11.7587C68.0463-13.2751 68.7096-15.7567 68.1076-19.0453C70.9968-17.9525 74.315-14.1846 74.315-9.68253C74.315-6.10152 72.2494-2.99783 67.9936-2.99783Z"/>
  </g>
  <g id="Light-M" transform="matrix(1 0 0 1 1087.33 1126)">
   <path d="M17.2729-58.0567L114.378-58.0567C117.279-58.0567 119.156-59.933 119.156-62.8963L119.156-76.7388C119.156-79.6674 117.279-81.5438 114.378-81.5438L17.2729-81.5438C14.3373-81.5438 12.4609-79.6674 12.4609-76.7388L12.4609-62.8963C12.4609-59.933 14.3373-58.0567 17.2729-58.0567ZM19.885-64.0964C19.0821-64.0964 18.5006-64.6778 18.5006-65.5084L18.5006-74.092C18.5006-74.9226 19.0821-75.5041 19.885-75.5041L111.766-75.5041C112.534-75.5041 113.116-74.9226 113.116-74.092L113.116-65.5084C113.116-64.6778 112.534-64.0964 111.766-64.0964ZM23.0608 7.93334L29.1005 7.93334L29.1005-61.1388L23.0608-61.1388ZM102.516 7.93334L108.59 7.93334L108.59-61.1388L102.516-61.1388ZM38.3407 7.93334L43.2648 7.93334L43.2648-41.9474C43.2648-43.8644 44.3861-45.0133 46.22-45.0133L85.4311-45.0133C87.2651-45.0133 88.3517-43.8644 88.3517-41.9474L88.3517 7.93334L93.2759 7.93334L93.2759-43.1046C93.2759-47.3343 90.7351-49.9028 86.5607-49.9028L45.0905-49.9028C40.9161-49.9028 38.3407-47.3343 38.3407-43.1046ZM15.8474 10.9532L115.831 10.9532C117.459 10.9532 118.851 9.59566 118.851 7.93334C118.851 6.27799 117.459 4.91348 115.831 4.91348L15.8474 4.91348C14.185 4.91348 12.8275 6.27799 12.8275 7.93334C12.8275 9.59566 14.185 10.9532 15.8474 10.9532ZM65.2506 0.891862C74.5276 0.891862 80.6613-5.36653 80.6613-14.8371C80.6613-30.6007 67.2446-37.219 57.7536-37.219C55.6831-37.219 54.8659-35.938 55.9047-34.5391C58.4863-31.3967 60.2797-27.9428 59.8648-23.8165C58.8332-25.8379 56.7428-27.1809 55.3165-27.1809C54.7279-27.1809 54.4024-26.8485 54.4024-26.2598C54.4024-25.796 54.4854-24.8408 54.4854-24.1347C54.4854-19.5175 51.4671-17.3296 51.4671-11.0712C51.4671-3.80891 56.9155 0.891862 65.2506 0.891862ZM65.7007-4.12716C62.4676-4.12716 60.2936-6.03792 60.2936-8.9665C60.2936-11.985 62.4676-13.0512 62.8414-15.1905C63.7276-14.6228 64.399-13.6606 64.8422-12.5458C65.839-14.0964 66.3654-16.561 65.7977-19.5244C68.9263-18.1749 71.7655-14.561 71.7655-10.5381C71.7655-7.11106 69.7854-4.12716 65.7007-4.12716Z"/>
  </g>
  <g id="Thin-M" transform="matrix(1 0 0 1 793.839 1126)">
   <path d="M16.775-58.5093L108.404-58.5093C111.078-58.5093 112.706-60.1367 112.706-62.8736L112.706-73.6158C112.706-76.3407 111.078-77.9681 108.404-77.9681L16.775-77.9681C14.0884-77.9681 12.4609-76.3407 12.4609-73.6158L12.4609-62.8736C12.4609-60.1367 14.0884-58.5093 16.775-58.5093ZM17.5994-62.1501C16.7511-62.1501 16.1018-62.7994 16.1018-63.698L16.1018-72.7794C16.1018-73.678 16.7511-74.3273 17.5994-74.3273L107.579-74.3273C108.416-74.3273 109.065-73.678 109.065-72.7794L109.065-63.698C109.065-62.7994 108.416-62.1501 107.579-62.1501ZM22.2008 5.60238L25.8417 5.60238L25.8417-60.392L22.2008-60.392ZM99.3252 5.60238L102.978 5.60238L102.978-60.392L99.3252-60.392ZM36.3718 5.60238L39.6666 5.60238L39.6666-42.4226C39.6666-44.8375 40.9915-46.2127 43.2554-46.2127L81.9234-46.2127C84.1874-46.2127 85.5002-44.8375 85.5002-42.4226L85.5002 5.60238L88.795 5.60238L88.795-42.7425C88.795-47.0175 86.3674-49.4954 82.1929-49.4954L42.9859-49.4954C38.8115-49.4954 36.3718-47.0175 36.3718-42.7425ZM14.8969 7.42282L110.332 7.42282C111.304 7.42282 112.153 6.58579 112.153 5.60238C112.153 4.58069 111.304 3.78195 110.332 3.78195L14.8969 3.78195C13.9135 3.78195 13.0765 4.58069 13.0765 5.60238C13.0765 6.58579 13.9135 7.42282 14.8969 7.42282ZM62.3086-0.624388C71.2235-0.624388 77.1762-6.70173 77.1762-15.9686C77.1762-31.3249 64.099-37.8526 54.5401-37.8526C52.9674-37.8526 52.3992-36.7979 53.1664-35.7838C56.178-32.2114 57.6545-28.3275 56.9001-24.4954C55.8913-26.5394 53.6198-27.8599 52.3519-27.8599C51.9443-27.8599 51.7093-27.6632 51.7093-27.2555C51.7093-26.7691 51.8602-25.746 51.8602-24.9721C51.8602-20.1964 48.8193-18.2574 48.8193-12.1801C48.8193-5.14412 54.0867-0.624388 62.3086-0.624388ZM62.6682-5.62077C59.5935-5.62077 57.578-7.46365 57.578-10.1886C57.578-13.0261 59.5935-14.047 59.9673-16.0505C60.763-15.528 61.525-14.5431 61.9228-13.5868C62.9197-15.1827 63.265-17.6246 62.7425-20.1581C66.188-18.4691 68.3935-15.0589 68.3935-11.6696C68.3935-8.44627 66.5266-5.62077 62.6682-5.62077Z"/>
  </g>
  <g id="Ultralight-M" transform="matrix(1 0 0 1 498.779 1126)">
   <path d="M16.52-58.7411L105.344-58.7411C107.902-58.7411 109.402-60.241 109.402-62.862L109.402-72.0162C109.402-74.6368 107.902-76.1367 105.344-76.1367L16.52-76.1367C13.9609-76.1367 12.4609-74.6368 12.4609-72.0162L12.4609-62.862C12.4609-60.241 13.9609-58.7411 16.52-58.7411ZM16.4286-61.1533C15.5572-61.1533 14.8731-61.8374 14.8731-62.7707L14.8731-72.1071C14.8731-73.0404 15.5572-73.7245 16.4286-73.7245L105.435-73.7245C106.306-73.7245 106.99-73.0404 106.99-72.1071L106.99-62.7707C106.99-61.8374 106.306-61.1533 105.435-61.1533ZM21.7603 4.40848L24.1725 4.40848L24.1725-60.0095L21.7603-60.0095ZM97.6908 4.40848L100.103 4.40848L100.103-60.0095L97.6908-60.0095ZM35.3634 4.40848L37.8236 4.40848L37.8236-42.6661C37.8236-45.3359 39.2528-46.827 41.737-46.827L80.1268-46.827C82.6109-46.827 84.0397-45.3359 84.0397-42.6661L84.0397 4.40848L86.4999 4.40848L86.4999-42.557C86.4999-46.8552 84.1302-49.2868 79.9558-49.2868L41.9079-49.2868C37.7335-49.2868 35.3634-46.8552 35.3634-42.557ZM14.4101 5.61458L107.516 5.61458C108.151 5.61458 108.722 5.04415 108.722 4.40848C108.722 3.71135 108.151 3.20239 107.516 3.20239L14.4101 3.20239C13.7744 3.20239 13.204 3.71135 13.204 4.40848C13.204 5.04415 13.7744 5.61458 14.4101 5.61458ZM60.8018-1.401C69.5312-1.401 75.3912-7.38562 75.3912-16.5482C75.3912-31.6958 62.4878-38.1772 52.8941-38.1772C51.5765-38.1772 51.1357-37.2384 51.7638-36.4213C54.9957-32.6287 56.3099-28.5246 55.3817-24.8431C54.3844-26.8988 52.0202-28.2076 50.8334-28.2076C50.5186-28.2076 50.33-28.0805 50.33-27.7656C50.33-27.2675 50.5156-26.2096 50.5156-25.4009C50.5156-20.5441 47.4631-18.7326 47.4631-12.748C47.4631-5.828 52.6378-1.401 60.8018-1.401ZM61.115-6.3858C58.1214-6.3858 56.187-8.1939 56.187-10.8145C56.187-13.5593 58.1214-14.557 58.4952-16.4909C59.2446-15.9917 60.0529-14.9952 60.4275-14.12C61.4244-15.7391 61.677-18.1694 61.1777-20.4827C64.7855-18.6198 66.6664-15.3139 66.6664-12.2492C66.6664-9.13015 64.8575-6.3858 61.115-6.3858Z"/>
  </g>
  <g id="Black-S" transform="matrix(1 0 0 1 2869.56 696)">
   <path d="M16.4551-51.6113L111.182-51.6113C114.844-51.6113 117.432-54.1992 117.432-57.8613L117.432-76.9531C117.432-80.6152 114.844-83.1543 111.182-83.1543L16.4551-83.1543C12.793-83.1543 10.2051-80.6152 10.2051-76.9531L10.2051-57.8613C10.2051-54.1992 12.793-51.6113 16.4551-51.6113ZM23.8281-64.3066C23.291-64.3066 22.9004-64.6973 22.9004-65.2344L22.9004-69.4824C22.9004-70.0684 23.291-70.459 23.8281-70.459L103.809-70.459C104.346-70.459 104.736-70.0684 104.736-69.4824L104.736-65.2344C104.736-64.6973 104.346-64.3066 103.809-64.3066ZM20.8984 5.56641L33.5938 5.56641L33.5938-57.8613L20.8984-57.8613ZM94.0918 5.56641L106.787 5.56641L106.787-57.8613L94.0918-57.8613ZM39.502 5.56641L47.5586 5.56641L47.5586-37.0117C47.5586-37.9883 48.1934-38.623 49.1699-38.623L78.5156-38.623C79.4922-38.623 80.127-37.9883 80.127-37.0117L80.127 5.56641L88.1836 5.56641L88.1836-41.2598C88.1836-44.5312 86.0352-46.6309 82.7637-46.6309L44.9219-46.6309C41.6504-46.6309 39.502-44.5312 39.502-41.2598ZM16.8457 12.6465L110.84 12.6465C114.746 12.6465 117.92 9.47266 117.92 5.56641C117.92 1.66016 114.746-1.51367 110.84-1.51367L16.8457-1.51367C12.9395-1.51367 9.76562 1.66016 9.76562 5.56641C9.76562 9.47266 12.9395 12.6465 16.8457 12.6465ZM63.5254-4.93164C70.6055-4.93164 75.1953-9.66797 75.1953-16.6992C75.1953-28.4668 65.1855-33.3496 58.3984-33.3496C56.4453-33.3496 55.5664-32.2266 56.5918-30.8105C58.0566-28.9551 59.6191-26.9043 59.668-23.6328C58.8867-25.0488 57.6172-26.0254 56.3965-26.0254C55.8105-26.0254 55.4199-25.6836 55.4199-25.0977C55.4199-24.8047 55.4199-24.1699 55.4199-23.6816C55.4199-20.5078 53.2715-18.7012 53.2715-13.9648C53.2715-8.54492 57.4219-4.93164 63.5254-4.93164ZM63.9648-8.59375C61.4746-8.59375 59.7656-10.0586 59.7656-12.3535C59.7656-14.6973 61.4746-15.5762 61.7188-17.2363C62.4512-16.748 62.8418-16.1133 63.2324-15.1367C63.9648-16.1621 64.502-17.9688 64.0137-20.5566C66.0156-19.9219 68.6523-17.1387 68.6523-13.5742C68.6523-10.9375 67.1387-8.59375 63.9648-8.59375Z"/>
  </g>
  <g id="Heavy-S" transform="matrix(1 0 0 1 2575.01 696)">
   <path d="M15.8789-51.8649L107.448-51.8649C110.833-51.8649 113.214-54.2453 113.214-57.6424L113.214-75.4895C113.214-78.875 110.833-81.2182 107.448-81.2182L15.8789-81.2182C12.4818-81.2182 10.1014-78.875 10.1014-75.4895L10.1014-57.6424C10.1014-54.2453 12.4818-51.8649 15.8789-51.8649ZM22.3991-63.2233C21.8505-63.2233 21.4598-63.614 21.4598-64.1626L21.4598-68.8831C21.4598-69.4691 21.8505-69.8597 22.3991-69.8597L100.927-69.8597C101.465-69.8597 101.855-69.4691 101.855-68.8831L101.855-64.1626C101.855-63.614 101.465-63.2233 100.927-63.2233ZM20.4259 4.44853L31.7844 4.44853L31.7844-57.481L20.4259-57.481ZM91.5679 4.44853L102.938 4.44853L102.938-57.481L91.5679-57.481ZM37.7157 4.44853L45.15 4.44853L45.15-37.7262C45.15-38.7143 45.7963-39.3606 46.7844-39.3606L76.5795-39.3606C77.5676-39.3606 78.2024-38.7143 78.2024-37.7262L78.2024 4.44853L85.6367 4.44853L85.6367-41.375C85.6367-44.6465 83.4998-46.7461 80.2283-46.7461L43.1356-46.7461C39.8641-46.7461 37.7157-44.6465 37.7157-41.375ZM16.0159 10.6873L107.348 10.6873C110.782 10.6873 113.587 7.8938 113.587 4.44853C113.587 1.01479 110.782-1.79026 107.348-1.79026L16.0159-1.79026C12.5707-1.79026 9.77715 1.01479 9.77715 4.44853C9.77715 7.8938 12.5707 10.6873 16.0159 10.6873ZM61.2666-5.05841C68.4734-5.05841 73.1555-9.87541 73.1555-17.045C73.1555-29.043 62.9498-34.018 56.0244-34.018C54.0367-34.018 53.1578-32.8719 54.1947-31.4444C55.6941-29.5428 57.2912-27.4344 57.3285-24.1053C56.5357-25.5559 55.2201-26.5555 53.9879-26.5555C53.3904-26.5555 53.0113-26.2022 53.0113-25.6047C53.0113-25.3002 53.0113-24.6539 53.0113-24.1657C53.0113-20.9227 50.8168-19.0815 50.8168-14.2645C50.8168-8.72931 55.0363-5.05841 61.2666-5.05841ZM61.706-8.78967C59.1697-8.78967 57.4262-10.2776 57.4262-12.6186C57.4262-15.0084 59.1697-15.8873 59.4254-17.5821C60.1693-17.0938 60.5715-16.436 60.9621-15.4479C61.706-16.5078 62.2547-18.3491 61.7664-20.9715C63.8029-20.3137 66.4857-17.4729 66.4857-13.8623C66.4857-11.168 64.9375-8.78967 61.706-8.78967Z"/>
  </g>
  <g id="Bold-S" transform="matrix(1 0 0 1 2280.72 696)">
   <path d="M15.2344-52.1484L103.271-52.1484C106.348-52.1484 108.496-54.2969 108.496-57.3975L108.496-73.8525C108.496-76.9287 106.348-79.0527 103.271-79.0527L15.2344-79.0527C12.1338-79.0527 9.98535-76.9287 9.98535-73.8525L9.98535-57.3975C9.98535-54.2969 12.1338-52.1484 15.2344-52.1484ZM20.8008-62.0117C20.2393-62.0117 19.8486-62.4023 19.8486-62.9639L19.8486-68.2129C19.8486-68.7988 20.2393-69.1895 20.8008-69.1895L97.7051-69.1895C98.2422-69.1895 98.6328-68.7988 98.6328-68.2129L98.6328-62.9639C98.6328-62.4023 98.2422-62.0117 97.7051-62.0117ZM19.8975 3.19824L29.7607 3.19824L29.7607-57.0557L19.8975-57.0557ZM88.7451 3.19824L98.6328 3.19824L98.6328-57.0557L88.7451-57.0557ZM35.7178 3.19824L42.4561 3.19824L42.4561-38.5254C42.4561-39.5264 43.1152-40.1855 44.1162-40.1855L74.4141-40.1855C75.415-40.1855 76.0498-39.5264 76.0498-38.5254L76.0498 3.19824L82.7881 3.19824L82.7881-41.5039C82.7881-44.7754 80.6641-46.875 77.3926-46.875L41.1377-46.875C37.8662-46.875 35.7178-44.7754 35.7178-41.5039ZM15.0879 8.49609L103.442 8.49609C106.348 8.49609 108.74 6.12793 108.74 3.19824C108.74 0.292969 106.348-2.09961 103.442-2.09961L15.0879-2.09961C12.1582-2.09961 9.79004 0.292969 9.79004 3.19824C9.79004 6.12793 12.1582 8.49609 15.0879 8.49609ZM58.7402-5.2002C66.0889-5.2002 70.874-10.1074 70.874-17.4316C70.874-29.6875 60.4492-34.7656 53.3691-34.7656C51.3428-34.7656 50.4639-33.5938 51.5137-32.1533C53.0518-30.2002 54.6875-28.0273 54.7119-24.6338C53.9062-26.123 52.5391-27.1484 51.2939-27.1484C50.6836-27.1484 50.3174-26.7822 50.3174-26.1719C50.3174-25.8545 50.3174-25.1953 50.3174-24.707C50.3174-21.3867 48.0713-19.5068 48.0713-14.5996C48.0713-8.93555 52.3682-5.2002 58.7402-5.2002ZM59.1797-9.00879C56.5918-9.00879 54.8096-10.5225 54.8096-12.915C54.8096-15.3564 56.5918-16.2354 56.8604-17.9688C57.6172-17.4805 58.0322-16.7969 58.4229-15.7959C59.1797-16.8945 59.7412-18.7744 59.2529-21.4355C61.3281-20.752 64.0625-17.8467 64.0625-14.1846C64.0625-11.4258 62.4756-9.00879 59.1797-9.00879Z"/>
  </g>
  <g id="Semibold-S" transform="matrix(1 0 0 1 1985.68 696)">
   <path d="M14.79-52.3439L100.392-52.3439C103.255-52.3439 105.244-54.3324 105.244-57.2286L105.244-72.7239C105.244-75.5868 103.255-77.5598 100.392-77.5598L14.79-77.5598C11.8938-77.5598 9.90537-75.5868 9.90537-72.7239L9.90537-57.2286C9.90537-54.3324 11.8938-52.3439 14.79-52.3439ZM19.6988-61.1764C19.1284-61.1764 18.7378-61.567 18.7378-62.1374L18.7378-67.7508C18.7378-68.3367 19.1284-68.7273 19.6988-68.7273L95.4834-68.7273C96.0205-68.7273 96.4111-68.3367 96.4111-67.7508L96.4111-62.1374C96.4111-61.567 96.0205-61.1764 95.4834-61.1764ZM19.5331 2.33623L28.3655 2.33623L28.3655-56.7624L19.5331-56.7624ZM86.7989 2.33623L95.6646 2.33623L95.6646-56.7624L86.7989-56.7624ZM34.3403 2.33623L40.5987 2.33623L40.5987-39.0764C40.5987-40.0862 41.2668-40.7543 42.2767-40.7543L72.9211-40.7543C73.931-40.7543 74.5657-40.0862 74.5657-39.0764L74.5657 2.33623L80.8241 2.33623L80.8241-41.5928C80.8241-44.8643 78.709-46.9639 75.4375-46.9639L39.7603-46.9639C36.4888-46.9639 34.3403-44.8643 34.3403-41.5928ZM14.448 6.98535L100.75 6.98535C103.291 6.98535 105.399 4.91045 105.399 2.33623C105.399-0.204688 103.291-2.31289 100.75-2.31289L14.448-2.31289C11.8738-2.31289 9.79893-0.204688 9.79893 2.33623C9.79893 4.91045 11.8738 6.98535 14.448 6.98535ZM56.9984-5.29795C64.4448-5.29795 69.3011-10.2674 69.3011-17.6982C69.3011-30.1318 58.7252-35.2811 51.5385-35.2811C49.4854-35.2811 48.6065-34.0914 49.6652-32.6421C51.23-30.6534 52.8924-28.4361 52.9079-24.9981C52.0934-26.5141 50.6906-27.5572 49.4366-27.5572C48.8174-27.5572 48.4601-27.1821 48.4601-26.5629C48.4601-26.2366 48.4601-25.5686 48.4601-25.0803C48.4601-21.7066 46.1784-19.8001 46.1784-14.8307C46.1784-9.07773 50.5286-5.29795 56.9984-5.29795ZM57.4379-9.15986C54.8145-9.15986 53.0056-10.6913 53.0056-13.1194C53.0056-15.5964 54.8145-16.4753 55.0919-18.2354C55.8576-17.7471 56.2815-17.0457 56.6722-16.0358C57.4379-17.1611 58.0083-19.0677 57.52-21.7555C59.6219-21.0541 62.3918-18.1044 62.3918-14.4067C62.3918-11.6035 60.7782-9.15986 57.4379-9.15986Z"/>
  </g>
  <g id="Medium-S" transform="matrix(1 0 0 1 1690.24 696)">
   <path d="M14.4531-52.4922L98.209-52.4922C100.91-52.4922 102.777-54.3594 102.777-57.1006L102.777-71.8682C102.777-74.5693 100.91-76.4277 98.209-76.4277L14.4531-76.4277C11.7119-76.4277 9.84473-74.5693 9.84473-71.8682L9.84473-57.1006C9.84473-54.3594 11.7119-52.4922 14.4531-52.4922ZM18.8633-60.543C18.2861-60.543 17.8955-60.9336 17.8955-61.5107L17.8955-67.4004C17.8955-67.9863 18.2861-68.377 18.8633-68.377L93.7988-68.377C94.3359-68.377 94.7266-67.9863 94.7266-67.4004L94.7266-61.5107C94.7266-60.9336 94.3359-60.543 93.7988-60.543ZM19.2568 1.68262L27.3076 1.68262L27.3076-56.54L19.2568-56.54ZM85.3232 1.68262L93.4141 1.68262L93.4141-56.54L85.3232-56.54ZM33.2959 1.68262L39.1904 1.68262L39.1904-39.4941C39.1904-40.5107 39.8652-41.1855 40.8818-41.1855L71.7891-41.1855C72.8057-41.1855 73.4404-40.5107 73.4404-39.4941L73.4404 1.68262L79.335 1.68262L79.335-41.6602C79.335-44.9316 77.2266-47.0312 73.9551-47.0312L38.7158-47.0312C35.4443-47.0312 33.2959-44.9316 33.2959-41.6602ZM13.9629 5.83984L98.708 5.83984C100.973 5.83984 102.865 3.9873 102.865 1.68262C102.865-0.582031 100.973-2.47461 98.708-2.47461L13.9629-2.47461C11.6582-2.47461 9.80566-0.582031 9.80566 1.68262C9.80566 3.9873 11.6582 5.83984 13.9629 5.83984ZM55.6777-5.37207C63.1982-5.37207 68.1084-10.3887 68.1084-17.9004C68.1084-30.4688 57.418-35.6719 50.1504-35.6719C48.0771-35.6719 47.1982-34.4688 48.2637-33.0127C49.8486-30.9971 51.5312-28.7461 51.54-25.2744C50.7188-26.8105 49.2891-27.8672 48.0283-27.8672C47.4023-27.8672 47.0518-27.4854 47.0518-26.8594C47.0518-26.5264 47.0518-25.8516 47.0518-25.3633C47.0518-21.9492 44.7432-20.0225 44.7432-15.0059C44.7432-9.18555 49.1338-5.37207 55.6777-5.37207ZM56.1172-9.27441C53.4668-9.27441 51.6377-10.8193 51.6377-13.2744C51.6377-15.7783 53.4668-16.6572 53.751-18.4375C54.5234-17.9492 54.9541-17.2344 55.3447-16.2178C56.1172-17.3633 56.6943-19.29 56.2061-21.998C58.3281-21.2832 61.125-18.2998 61.125-14.5752C61.125-11.7383 59.4912-9.27441 56.1172-9.27441Z"/>
  </g>
  <g id="Regular-S" transform="matrix(1 0 0 1 1395.18 696)">
   <path d="M14.0137-52.6855L95.3613-52.6855C97.8516-52.6855 99.5605-54.3945 99.5605-56.9336L99.5605-70.752C99.5605-73.2422 97.8516-74.9512 95.3613-74.9512L14.0137-74.9512C11.4746-74.9512 9.76562-73.2422 9.76562-70.752L9.76562-56.9336C9.76562-54.3945 11.4746-52.6855 14.0137-52.6855ZM17.7734-59.7168C17.1875-59.7168 16.7969-60.1074 16.7969-60.6934L16.7969-66.9434C16.7969-67.5293 17.1875-67.9199 17.7734-67.9199L91.6016-67.9199C92.1387-67.9199 92.5293-67.5293 92.5293-66.9434L92.5293-60.6934C92.5293-60.1074 92.1387-59.7168 91.6016-59.7168ZM18.8965 0.830078L25.9277 0.830078L25.9277-56.25L18.8965-56.25ZM83.3984 0.830078L90.4785 0.830078L90.4785-56.25L83.3984-56.25ZM31.9336 0.830078L37.3535 0.830078L37.3535-40.0391C37.3535-41.0645 38.0371-41.748 39.0625-41.748L70.3125-41.748C71.3379-41.748 71.9727-41.0645 71.9727-40.0391L71.9727 0.830078L77.3926 0.830078L77.3926-41.748C77.3926-45.0195 75.293-47.1191 72.0215-47.1191L37.3535-47.1191C34.082-47.1191 31.9336-45.0195 31.9336-41.748ZM13.3301 4.3457L96.0449 4.3457C97.9492 4.3457 99.5605 2.7832 99.5605 0.830078C99.5605-1.07422 97.9492-2.68555 96.0449-2.68555L13.3301-2.68555C11.377-2.68555 9.81445-1.07422 9.81445 0.830078C9.81445 2.7832 11.377 4.3457 13.3301 4.3457ZM53.9551-5.46875C61.5723-5.46875 66.5527-10.5469 66.5527-18.1641C66.5527-30.9082 55.7129-36.1816 48.3398-36.1816C46.2402-36.1816 45.3613-34.9609 46.4355-33.4961C48.0469-31.4453 49.7559-29.1504 49.7559-25.6348C48.9258-27.1973 47.4609-28.2715 46.1914-28.2715C45.5566-28.2715 45.2148-27.8809 45.2148-27.2461C45.2148-26.9043 45.2148-26.2207 45.2148-25.7324C45.2148-22.2656 42.8711-20.3125 42.8711-15.2344C42.8711-9.32617 47.3145-5.46875 53.9551-5.46875ZM54.3945-9.42383C51.709-9.42383 49.8535-10.9863 49.8535-13.4766C49.8535-16.0156 51.709-16.8945 52.002-18.7012C52.7832-18.2129 53.2227-17.4805 53.6133-16.4551C54.3945-17.627 54.9805-19.5801 54.4922-22.3145C56.6406-21.582 59.4727-18.5547 59.4727-14.7949C59.4727-11.9141 57.8125-9.42383 54.3945-9.42383Z"/>
  </g>
  <g id="Light-S" transform="matrix(1 0 0 1 1100.63 696)">
   <path d="M13.6807-52.9883L91.3653-52.9883C93.7041-52.9883 95.2466-54.5308 95.2466-56.9185L95.2466-68.6631C95.2466-71.0171 93.7041-72.5596 91.3653-72.5596L13.6807-72.5596C11.3081-72.5596 9.76562-71.0171 9.76562-68.6631L9.76562-56.9185C9.76562-54.5308 11.3081-52.9883 13.6807-52.9883ZM16.2446-58.415C15.6284-58.415 15.1924-58.8511 15.1924-59.4824L15.1924-66.0654C15.1924-66.6968 15.6284-67.1328 16.2446-67.1328L88.8013-67.1328C89.3838-67.1328 89.8198-66.6968 89.8198-66.0654L89.8198-59.4824C89.8198-58.8511 89.3838-58.415 88.8013-58.415ZM18.3213-0.728992L23.7481-0.728992L23.7481-55.7505L18.3213-55.7505ZM81.2642-0.728992L86.7246-0.728992L86.7246-55.7505L81.2642-55.7505ZM30.6167-0.728992L34.9468-0.728992L34.9468-40.3569C34.9468-41.7153 35.7666-42.5503 37.0796-42.5503L67.9663-42.5503C69.2793-42.5503 70.0654-41.7153 70.0654-40.3569L70.0654-0.728992L74.3955-0.728992L74.3955-41.5059C74.3955-44.8076 72.3716-46.8467 69.1001-46.8467L35.9458-46.8467C32.6743-46.8467 30.6167-44.8076 30.6167-41.5059ZM12.6943 1.98439L92.3667 1.98439C93.8321 1.98439 95.0801 0.770035 95.0801-0.728992C95.0801-2.20946 93.8321-3.44238 92.3667-3.44238L12.6943-3.44238C11.1953-3.44238 9.98096-2.20946 9.98096-0.728992C9.98096 0.770035 11.1953 1.98439 12.6943 1.98439ZM51.9873-6.4829C59.3623-6.4829 64.2217-11.4399 64.2217-18.9209C64.2217-31.3926 53.6089-36.6055 46.1904-36.6055C44.4238-36.6055 43.7114-35.5361 44.604-34.3286C46.5029-31.9902 48-29.4077 47.773-26.0889C46.958-27.6665 45.3721-28.7256 44.2085-28.7256C43.6948-28.7256 43.4136-28.4258 43.4136-27.9121C43.4136-27.5552 43.459-26.8262 43.459-26.2925C43.459-22.7197 41.1001-20.9331 41.1001-15.9761C41.1001-10.2192 45.4224-6.4829 51.9873-6.4829ZM52.3662-10.4228C49.7866-10.4228 48.0371-11.9399 48.0371-14.2939C48.0371-16.7119 49.7866-17.5605 50.0796-19.2764C50.8003-18.8184 51.3003-18.0708 51.6607-17.1514C52.4419-18.3535 52.9068-20.2915 52.4487-22.7383C54.8091-21.7788 57.2173-18.8877 57.2173-15.5518C57.2173-12.8071 55.6328-10.4228 52.3662-10.4228Z"/>
  </g>
  <g id="Thin-S" transform="matrix(1 0 0 1 806.769 696)">
   <path d="M13.2402-53.3887L86.0802-53.3887C88.2188-53.3887 89.5411-54.7109 89.5411-56.8984L89.5411-65.9004C89.5411-68.0743 88.2188-69.3965 86.0802-69.3965L13.2402-69.3965C11.0879-69.3965 9.76562-68.0743 9.76562-65.9004L9.76562-56.8984C9.76562-54.7109 11.0879-53.3887 13.2402-53.3887ZM14.2227-56.6934C13.5664-56.6934 13.0703-57.1895 13.0703-57.8809L13.0703-64.9043C13.0703-65.5957 13.5664-66.0918 14.2227-66.0918L85.0977-66.0918C85.7403-66.0918 86.2364-65.5957 86.2364-64.9043L86.2364-57.8809C86.2364-57.1895 85.7403-56.6934 85.0977-56.6934ZM17.5606-2.79099L20.8653-2.79099L20.8653-55.0899L17.5606-55.0899ZM78.4414-2.79099L81.7598-2.79099L81.7598-55.0899L78.4414-55.0899ZM28.875-2.79099L31.7637-2.79099L31.7637-40.7773C31.7637-42.5762 32.7637-43.6113 34.4571-43.6113L64.8633-43.6113C66.5567-43.6113 67.543-42.5762 67.543-40.7773L67.543-2.79099L70.4317-2.79099L70.4317-41.1856C70.4317-44.5273 68.5079-46.4863 65.2364-46.4863L34.084-46.4863C30.8125-46.4863 28.875-44.5273 28.875-41.1856ZM11.8535-1.13863L87.502-1.13863C88.3868-1.13863 89.1544-1.89254 89.1544-2.79099C89.1544-3.71092 88.3868-4.44335 87.502-4.44335L11.8535-4.44335C10.9551-4.44335 10.2012-3.71092 10.2012-2.79099C10.2012-1.89254 10.9551-1.13863 11.8535-1.13863ZM49.3848-7.8242C56.4395-7.8242 61.1387-12.6211 61.1387-19.9219C61.1387-32.0332 50.8262-37.166 43.3477-37.166C42.0215-37.166 41.5293-36.2969 42.1817-35.4297C44.461-32.7109 45.6778-29.748 45.1504-26.6894C44.3555-28.2871 42.6094-29.3262 41.586-29.3262C41.2325-29.3262 41.0313-29.1465 41.0313-28.793C41.0313-28.416 41.1368-27.6269 41.1368-27.0332C41.1368-23.3203 38.7578-21.7539 38.7578-16.957C38.7578-11.4004 42.92-7.8242 49.3848-7.8242ZM49.6836-11.7441C47.2442-11.7441 45.6348-13.2012 45.6348-15.375C45.6348-17.6328 47.2442-18.4414 47.5371-20.0371C48.1778-19.6191 48.7578-18.8516 49.0782-18.0723C49.8594-19.3144 50.1641-21.2324 49.7461-23.2988C52.3868-22.0391 54.2344-19.3281 54.2344-16.5527C54.2344-13.9883 52.75-11.7441 49.6836-11.7441Z"/>
  </g>
  <g id="Ultralight-S" transform="matrix(1 0 0 1 511.519 696)">
   <path d="M13.0147-53.5937L83.3731-53.5937C85.4093-53.5937 86.6188-54.8032 86.6188-56.8882L86.6188-64.4854C86.6188-66.5669 85.4093-67.7764 83.3731-67.7764L13.0147-67.7764C10.9751-67.7764 9.76562-66.5669 9.76562-64.4854L9.76562-56.8882C9.76562-54.8032 10.9751-53.5937 13.0147-53.5937ZM13.187-55.8116C12.5103-55.8116 11.9834-56.3384 11.9834-57.0606L11.9834-64.3096C11.9834-65.0318 12.5103-65.5586 13.187-65.5586L83.2007-65.5586C83.8741-65.5586 84.4009-65.0318 84.4009-64.3096L84.4009-57.0606C84.4009-56.3384 83.8741-55.8116 83.2007-55.8116ZM17.1709-3.84713L19.3887-3.84713L19.3887-54.7515L17.1709-54.7515ZM76.9957-3.84713L79.2169-3.84713L79.2169-54.7515L76.9957-54.7515ZM27.9829-3.84713L30.1334-3.84713L30.1334-40.9927C30.1334-43.0171 31.2256-44.1548 33.1138-44.1548L63.274-44.1548C65.1622-44.1548 66.251-43.0171 66.251-40.9927L66.251-3.84713L68.4014-3.84713L68.4014-41.0215C68.4014-44.3838 66.5289-46.3018 63.2574-46.3018L33.1304-46.3018C29.8589-46.3018 27.9829-44.3838 27.9829-41.0215ZM11.4229-2.73823L85.0103-2.73823C85.5978-2.73823 86.1192-3.2563 86.1192-3.84713C86.1192-4.47995 85.5978-4.95604 85.0103-4.95604L11.4229-4.95604C10.832-4.95604 10.314-4.47995 10.314-3.84713C10.314-3.2563 10.832-2.73823 11.4229-2.73823ZM48.0518-8.51121C54.9424-8.51121 59.5596-13.2261 59.5596-20.4346C59.5596-32.3613 49.4009-37.4531 41.8917-37.4531C40.7911-37.4531 40.4117-36.6865 40.941-35.9936C43.4151-33.0801 44.4883-29.9224 43.8072-26.9971C43.0225-28.605 41.1944-29.6338 40.2427-29.6338C39.9712-29.6338 39.8111-29.5156 39.8111-29.2441C39.8111-28.8569 39.9473-28.0371 39.9473-27.4126C39.9473-23.6279 37.5581-22.1743 37.5581-17.4595C37.5581-12.0053 41.6382-8.51121 48.0518-8.51121ZM48.3096-12.4209C45.9419-12.4209 44.4043-13.8471 44.4043-15.9287C44.4043-18.1045 45.9419-18.8926 46.2349-20.4267C46.8345-20.0293 47.4556-19.2515 47.7554-18.5439C48.5367-19.8066 48.7593-21.7143 48.3619-23.5859C51.146-22.1724 52.7066-19.5537 52.7066-17.0654C52.7066-14.5932 51.2735-12.4209 48.3096-12.4209Z"/>
  </g>
 </g>
</svg>
