<?xml version="1.0" encoding="UTF-8"?>
<!--Generator: Apple Native CoreSVG 175.5-->
<!DOCTYPE svg
PUBLIC "-//W3C//DTD SVG 1.1//EN"
       "http://www.w3.org/Graphics/SVG/1.1/DTD/svg11.dtd">
<svg version="1.1" xmlns="http://www.w3.org/2000/svg" xmlns:xlink="http://www.w3.org/1999/xlink" width="3300" height="2200">
 <!--glyph: "uni10153D.medium", point size: 100.0, font version: "18.0d11e1", template writer version: "90"-->
 <g id="Notes">
  <rect height="2200" id="artboard" style="fill:white;opacity:1" width="3300" x="0" y="0"/>
  <line style="fill:none;stroke:black;opacity:1;stroke-width:0.5;" x1="263" x2="3036" y1="292" y2="292"/>
  <text style="stroke:none;fill:black;font-family:sans-serif;font-size:13;font-weight:bold;" transform="matrix(1 0 0 1 263 322)">Weight/Scale Variations</text>
  <text style="stroke:none;fill:black;font-family:sans-serif;font-size:13;text-anchor:middle;" transform="matrix(1 0 0 1 559.711 322)">Ultralight</text>
  <text style="stroke:none;fill:black;font-family:sans-serif;font-size:13;text-anchor:middle;" transform="matrix(1 0 0 1 856.422 322)">Thin</text>
  <text style="stroke:none;fill:black;font-family:sans-serif;font-size:13;text-anchor:middle;" transform="matrix(1 0 0 1 1153.13 322)">Light</text>
  <text style="stroke:none;fill:black;font-family:sans-serif;font-size:13;text-anchor:middle;" transform="matrix(1 0 0 1 1449.84 322)">Regular</text>
  <text style="stroke:none;fill:black;font-family:sans-serif;font-size:13;text-anchor:middle;" transform="matrix(1 0 0 1 1746.56 322)">Medium</text>
  <text style="stroke:none;fill:black;font-family:sans-serif;font-size:13;text-anchor:middle;" transform="matrix(1 0 0 1 2043.27 322)">Semibold</text>
  <text style="stroke:none;fill:black;font-family:sans-serif;font-size:13;text-anchor:middle;" transform="matrix(1 0 0 1 2339.98 322)">Bold</text>
  <text style="stroke:none;fill:black;font-family:sans-serif;font-size:13;text-anchor:middle;" transform="matrix(1 0 0 1 2636.69 322)">Heavy</text>
  <text style="stroke:none;fill:black;font-family:sans-serif;font-size:13;text-anchor:middle;" transform="matrix(1 0 0 1 2933.4 322)">Black</text>
  <line style="fill:none;stroke:black;opacity:1;stroke-width:0.5;" x1="263" x2="3036" y1="1903" y2="1903"/>
  <g transform="matrix(1 0 0 1 263 1933)">
   <path d="M9.24805 0.830078C13.5547 0.830078 17.1387-2.74414 17.1387-7.05078C17.1387-11.3574 13.5449-14.9316 9.23828-14.9316C4.94141-14.9316 1.36719-11.3574 1.36719-7.05078C1.36719-2.74414 4.95117 0.830078 9.24805 0.830078ZM9.24805-0.654297C5.70312-0.654297 2.87109-3.49609 2.87109-7.05078C2.87109-10.6055 5.69336-13.4473 9.23828-13.4473C12.793-13.4473 15.6445-10.6055 15.6445-7.05078C15.6445-3.49609 12.8027-0.654297 9.24805-0.654297ZM5.6543-7.05078C5.6543-6.62109 5.95703-6.32812 6.40625-6.32812L8.50586-6.32812L8.50586-4.20898C8.50586-3.76953 8.79883-3.4668 9.22852-3.4668C9.67773-3.4668 9.9707-3.76953 9.9707-4.20898L9.9707-6.32812L12.0898-6.32812C12.5293-6.32812 12.832-6.62109 12.832-7.05078C12.832-7.49023 12.5293-7.79297 12.0898-7.79297L9.9707-7.79297L9.9707-9.90234C9.9707-10.3516 9.67773-10.6543 9.22852-10.6543C8.79883-10.6543 8.50586-10.3516 8.50586-9.90234L8.50586-7.79297L6.40625-7.79297C5.95703-7.79297 5.6543-7.49023 5.6543-7.05078Z"/>
  </g>
  <g transform="matrix(1 0 0 1 281.867 1933)">
   <path d="M11.709 2.91016C17.1582 2.91016 21.6699-1.61133 21.6699-7.05078C21.6699-12.5 17.1484-17.0117 11.6992-17.0117C6.25977-17.0117 1.74805-12.5 1.74805-7.05078C1.74805-1.61133 6.26953 2.91016 11.709 2.91016ZM11.709 1.25C7.09961 1.25 3.41797-2.44141 3.41797-7.05078C3.41797-11.6602 7.08984-15.3516 11.6992-15.3516C16.3086-15.3516 20.0098-11.6602 20.0098-7.05078C20.0098-2.44141 16.3184 1.25 11.709 1.25ZM7.17773-7.05078C7.17773-6.57227 7.50977-6.25 8.00781-6.25L10.8789-6.25L10.8789-3.36914C10.8789-2.88086 11.2109-2.53906 11.6895-2.53906C12.1777-2.53906 12.5195-2.87109 12.5195-3.36914L12.5195-6.25L15.4004-6.25C15.8887-6.25 16.2305-6.57227 16.2305-7.05078C16.2305-7.53906 15.8887-7.88086 15.4004-7.88086L12.5195-7.88086L12.5195-10.752C12.5195-11.25 12.1777-11.5918 11.6895-11.5918C11.2109-11.5918 10.8789-11.25 10.8789-10.752L10.8789-7.88086L8.00781-7.88086C7.50977-7.88086 7.17773-7.53906 7.17773-7.05078Z"/>
  </g>
  <g transform="matrix(1 0 0 1 305.646 1933)">
   <path d="M14.9707 5.66406C21.9336 5.66406 27.6953-0.0976562 27.6953-7.05078C27.6953-14.0137 21.9238-19.7754 14.9609-19.7754C8.00781-19.7754 2.25586-14.0137 2.25586-7.05078C2.25586-0.0976562 8.01758 5.66406 14.9707 5.66406ZM14.9707 3.84766C8.93555 3.84766 4.08203-1.01562 4.08203-7.05078C4.08203-13.0957 8.92578-17.9492 14.9609-17.9492C21.0059-17.9492 25.8691-13.0957 25.8691-7.05078C25.8691-1.01562 21.0156 3.84766 14.9707 3.84766ZM9.19922-7.05078C9.19922-6.5332 9.57031-6.17188 10.1172-6.17188L14.0625-6.17188L14.0625-2.2168C14.0625-1.67969 14.4336-1.29883 14.9512-1.29883C15.4883-1.29883 15.8594-1.66992 15.8594-2.2168L15.8594-6.17188L19.8145-6.17188C20.3516-6.17188 20.7324-6.5332 20.7324-7.05078C20.7324-7.59766 20.3613-7.96875 19.8145-7.96875L15.8594-7.96875L15.8594-11.9141C15.8594-12.4609 15.4883-12.8418 14.9512-12.8418C14.4336-12.8418 14.0625-12.4609 14.0625-11.9141L14.0625-7.96875L10.1172-7.96875C9.57031-7.96875 9.19922-7.59766 9.19922-7.05078Z"/>
  </g>
  <text style="stroke:none;fill:black;font-family:sans-serif;font-size:13;font-weight:bold;" transform="matrix(1 0 0 1 263 1953)">Design Variations</text>
  <text style="stroke:none;fill:black;font-family:sans-serif;font-size:13;" transform="matrix(1 0 0 1 263 1971)">Symbols are supported in up to nine weights and three scales.</text>
  <text style="stroke:none;fill:black;font-family:sans-serif;font-size:13;" transform="matrix(1 0 0 1 263 1989)">For optimal layout with text and other symbols, vertically align</text>
  <text style="stroke:none;fill:black;font-family:sans-serif;font-size:13;" transform="matrix(1 0 0 1 263 2007)">symbols with the adjacent text.</text>
  <line style="fill:none;stroke:#00AEEF;stroke-width:0.5;opacity:1.0;" x1="776" x2="776" y1="1919" y2="1933"/>
  <g transform="matrix(1 0 0 1 776 1933)">
   <path d="M3.31055 0.15625C3.82812 0.15625 4.08203-0.0390625 4.26758-0.585938L5.52734-4.0332L11.2891-4.0332L12.5488-0.585938C12.7344-0.0390625 12.9883 0.15625 13.4961 0.15625C14.0137 0.15625 14.3457-0.15625 14.3457-0.644531C14.3457-0.810547 14.3164-0.966797 14.2383-1.17188L9.6582-13.3691C9.43359-13.9648 9.0332-14.2676 8.4082-14.2676C7.80273-14.2676 7.39258-13.9746 7.17773-13.3789L2.59766-1.16211C2.51953-0.957031 2.49023-0.800781 2.49023-0.634766C2.49023-0.146484 2.80273 0.15625 3.31055 0.15625ZM6.00586-5.51758L8.37891-12.0898L8.42773-12.0898L10.8008-5.51758Z"/>
  </g>
  <line style="fill:none;stroke:#00AEEF;stroke-width:0.5;opacity:1.0;" x1="793.197" x2="793.197" y1="1919" y2="1933"/>
  <text style="stroke:none;fill:black;font-family:sans-serif;font-size:13;font-weight:bold;" transform="matrix(1 0 0 1 776 1953)">Margins</text>
  <text style="stroke:none;fill:black;font-family:sans-serif;font-size:13;" transform="matrix(1 0 0 1 776 1971)">Leading and trailing margins on the left and right side of each symbol</text>
  <text style="stroke:none;fill:black;font-family:sans-serif;font-size:13;" transform="matrix(1 0 0 1 776 1989)">can be adjusted by modifying the x-location of the margin guidelines.</text>
  <text style="stroke:none;fill:black;font-family:sans-serif;font-size:13;" transform="matrix(1 0 0 1 776 2007)">Modifications are automatically applied proportionally to all</text>
  <text style="stroke:none;fill:black;font-family:sans-serif;font-size:13;" transform="matrix(1 0 0 1 776 2025)">scales and weights.</text>
  <g transform="matrix(1 0 0 1 1289 1933)">
   <path d="M2.8418 1.86523L4.54102 3.57422C5.40039 4.44336 6.38672 4.38477 7.31445 3.35938L18.0078-8.42773L17.041-9.4043L6.42578 2.27539C6.07422 2.67578 5.74219 2.77344 5.27344 2.30469L4.10156 1.14258C3.63281 0.683594 3.74023 0.341797 4.14062-0.0195312L15.6152-10.8203L14.6387-11.7871L3.04688-0.898438C2.06055 0.0195312 1.98242 0.996094 2.8418 1.86523ZM9.25781-16.3281C8.83789-15.918 8.80859-15.3418 9.04297-14.9512C9.27734-14.5898 9.73633-14.3555 10.3809-14.5215C11.8457-14.8633 13.3691-14.9219 14.7949-13.9844L14.209-12.5293C13.8672-11.6992 14.043-11.1133 14.5801-10.5664L16.875-8.25195C17.3633-7.76367 17.7734-7.74414 18.3398-7.8418L19.4043-8.03711L20.0684-7.36328L20.0293-6.80664C19.9902-6.30859 20.1172-5.92773 20.6055-5.44922L21.3672-4.70703C21.8457-4.22852 22.4609-4.19922 22.9297-4.66797L25.8398-7.58789C26.3086-8.05664 26.2891-8.65234 25.8105-9.13086L25.0391-9.89258C24.5605-10.3711 24.1895-10.5273 23.7109-10.4883L23.1348-10.4395L22.4902-11.0742L22.7344-12.1973C22.8613-12.7637 22.7051-13.2031 22.1191-13.7891L19.9219-15.9766C16.582-19.2969 12.1484-19.2188 9.25781-16.3281ZM10.752-15.957C13.1836-17.7344 16.4746-17.4316 18.7012-15.2051L21.1328-12.793C21.3672-12.5586 21.4062-12.373 21.3379-12.0312L21.0156-10.5469L22.5195-9.0625L23.5059-9.12109C23.7598-9.13086 23.8379-9.11133 24.0332-8.91602L24.6094-8.33984L22.168-5.89844L21.5918-6.47461C21.3965-6.66992 21.3672-6.74805 21.377-7.01172L21.4453-7.98828L19.9512-9.47266L18.4277-9.21875C18.1055-9.15039 17.959-9.17969 17.7148-9.41406L15.7129-11.416C15.459-11.6504 15.4297-11.8164 15.5859-12.1875L16.4648-14.2773C14.9023-15.7324 12.8711-16.3574 10.8398-15.7617C10.6836-15.7227 10.625-15.8496 10.752-15.957Z"/>
  </g>
  <text style="stroke:none;fill:black;font-family:sans-serif;font-size:13;font-weight:bold;" transform="matrix(1 0 0 1 1289 1953)">Exporting</text>
  <text style="stroke:none;fill:black;font-family:sans-serif;font-size:13;" transform="matrix(1 0 0 1 1289 1971)">Symbols should be outlined when exporting to ensure the</text>
  <text style="stroke:none;fill:black;font-family:sans-serif;font-size:13;" transform="matrix(1 0 0 1 1289 1989)">design is preserved when submitting to Xcode.</text>
  <text id="template-version" style="stroke:none;fill:black;font-family:sans-serif;font-size:13;text-anchor:end;" transform="matrix(1 0 0 1 3036 1933)">Template v.4.0</text>
  <text style="stroke:none;fill:black;font-family:sans-serif;font-size:13;text-anchor:end;" transform="matrix(1 0 0 1 3036 1951)">Requires Xcode 14 or greater</text>
  <text id="descriptive-name" style="stroke:none;fill:black;font-family:sans-serif;font-size:13;text-anchor:end;" transform="matrix(1 0 0 1 3036 1969)">Generated from figure.skating</text>
  <text style="stroke:none;fill:black;font-family:sans-serif;font-size:13;text-anchor:end;" transform="matrix(1 0 0 1 3036 1987)">Typeset at 100 points</text>
  <text style="stroke:none;fill:black;font-family:sans-serif;font-size:13;" transform="matrix(1 0 0 1 263 726)">Small</text>
  <text style="stroke:none;fill:black;font-family:sans-serif;font-size:13;" transform="matrix(1 0 0 1 263 1156)">Medium</text>
  <text style="stroke:none;fill:black;font-family:sans-serif;font-size:13;" transform="matrix(1 0 0 1 263 1586)">Large</text>
 </g>
 <g id="Guides">
  <g id="H-reference" style="fill:#27AAE1;stroke:none;" transform="matrix(1 0 0 1 339 696)">
   <path d="M0.993654 0L3.63775 0L29.3281-67.1323L30.0303-67.1323L30.0303-70.459L28.1226-70.459ZM11.6885-24.4799L46.9815-24.4799L46.2315-26.7285L12.4385-26.7285ZM55.1196 0L57.7637 0L30.6382-70.459L29.4326-70.459L29.4326-67.1323Z"/>
  </g>
  <line id="Baseline-S" style="fill:none;stroke:#27AAE1;opacity:1;stroke-width:0.5;" x1="263" x2="3036" y1="696" y2="696"/>
  <line id="Capline-S" style="fill:none;stroke:#27AAE1;opacity:1;stroke-width:0.5;" x1="263" x2="3036" y1="625.541" y2="625.541"/>
  <g id="H-reference" style="fill:#27AAE1;stroke:none;" transform="matrix(1 0 0 1 339 1126)">
   <path d="M0.993654 0L3.63775 0L29.3281-67.1323L30.0303-67.1323L30.0303-70.459L28.1226-70.459ZM11.6885-24.4799L46.9815-24.4799L46.2315-26.7285L12.4385-26.7285ZM55.1196 0L57.7637 0L30.6382-70.459L29.4326-70.459L29.4326-67.1323Z"/>
  </g>
  <line id="Baseline-M" style="fill:none;stroke:#27AAE1;opacity:1;stroke-width:0.5;" x1="263" x2="3036" y1="1126" y2="1126"/>
  <line id="Capline-M" style="fill:none;stroke:#27AAE1;opacity:1;stroke-width:0.5;" x1="263" x2="3036" y1="1055.54" y2="1055.54"/>
  <g id="H-reference" style="fill:#27AAE1;stroke:none;" transform="matrix(1 0 0 1 339 1556)">
   <path d="M0.993654 0L3.63775 0L29.3281-67.1323L30.0303-67.1323L30.0303-70.459L28.1226-70.459ZM11.6885-24.4799L46.9815-24.4799L46.2315-26.7285L12.4385-26.7285ZM55.1196 0L57.7637 0L30.6382-70.459L29.4326-70.459L29.4326-67.1323Z"/>
  </g>
  <line id="Baseline-L" style="fill:none;stroke:#27AAE1;opacity:1;stroke-width:0.5;" x1="263" x2="3036" y1="1556" y2="1556"/>
  <line id="Capline-L" style="fill:none;stroke:#27AAE1;opacity:1;stroke-width:0.5;" x1="263" x2="3036" y1="1485.54" y2="1485.54"/>
  <line id="left-margin-Regular-M" style="fill:none;stroke:#00AEEF;stroke-width:0.5;opacity:1.0;" x1="1390.97" x2="1390.97" y1="1030.79" y2="1150.12"/>
  <line id="right-margin-Regular-M" style="fill:none;stroke:#00AEEF;stroke-width:0.5;opacity:1.0;" x1="1508.72" x2="1508.72" y1="1030.79" y2="1150.12"/>
 </g>
 <g id="Symbols">
  <g id="Black-L" transform="matrix(1 0 0 1 2853.33 1556)">
   <path d="M106.361-88.837C114.888-88.837 121.852-95.8011 121.852-104.349C121.852-112.876 114.888-119.84 106.361-119.84C97.8126-119.84 90.8693-112.876 90.8693-104.349C90.8693-95.8011 97.8126-88.837 106.361-88.837ZM59.7544-33.779L84.0144-9.3801L84.0144 26.6244L99.9061 26.6244L99.9061-11.8334C99.9061-13.9727 99.3091-16.09 97.8484-18.0101L81.8091-38.4664L95.3642-59.2121C95.8972-59.9732 96.8683-59.9732 97.2417-59.1681L101.818-49.8757C103.176-47.1823 105.951-45.5608 108.907-45.5608L136.123-45.5608C140.496-45.5608 144.051-49.0363 144.051-53.489C144.051-57.8624 140.496-61.4172 136.123-61.4172L113.8-61.4172L107.01-75.2159C104.046-81.2613 97.6432-85.2015 90.818-85.2015L54.615-85.2015C52.0396-85.2015 49.3462-83.786 47.9283-81.5883L34.3497-61.2132C32.0132-57.6572 32.9706-52.6857 36.6058-50.2699C40.219-47.7737 45.1906-48.8312 47.6867-52.526L58.8484-69.3099L67.9165-69.3099C68.5079-69.3099 68.8736-68.8573 68.5079-68.2879L57.8343-52.3062C53.9734-46.524 54.8116-38.7218 59.7544-33.779ZM18.8578-23.7329L45.5336-0.388308C50.3675 3.84746 55.8776 1.59015 58.2361-2.0659L67.0693-15.7371L54.4551-28.3329C54.2359-28.5521 54.0179-28.7701 53.7986-29.0478L48.7316-18.6969L29.2822-35.714C26.027-38.5099 20.9751-38.349 18.0404-34.9551C15.185-31.6403 15.5431-26.6676 18.8578-23.7329ZM53.271 32.6543L98.8971 32.6543C106.567 32.6543 113.257 30.9559 118.318 26.5577C121.459 23.8707 121.049 20.3363 119.097 18.1999C117.28 16.1773 114.052 15.3619 111.04 17.6973C107.779 20.2331 104.786 21.2434 98.8971 21.2434L53.271 21.2434C47.3832 21.2434 44.39 20.2331 41.1291 17.6973C38.1801 15.4035 35.0142 16.1345 33.1761 18.0738C31.1201 20.209 30.706 23.8487 33.8499 26.5577C38.9112 30.9559 45.6024 32.6543 53.271 32.6543ZM53.271 49.6414C57.0219 49.6414 60.0566 46.6067 60.0566 42.8767C60.0566 39.1258 57.0219 36.0911 53.271 36.0911C49.5214 36.0911 46.5075 39.1258 46.5075 42.8767C46.5075 46.6067 49.5214 49.6414 53.271 49.6414ZM98.8971 49.6414C102.648 49.6414 105.662 46.6067 105.662 42.8767C105.662 39.1258 102.648 36.0911 98.8971 36.0911C95.1462 36.0911 92.1115 39.1258 92.1115 42.8767C92.1115 46.6067 95.1462 49.6414 98.8971 49.6414Z"/>
  </g>
  <g id="Heavy-L" transform="matrix(1 0 0 1 2557.69 1556)">
   <path d="M104.95-88.1502C113.245-88.1502 120.008-94.9135 120.008-103.238C120.008-111.533 113.245-118.296 104.95-118.296C96.6255-118.296 89.8924-111.533 89.8924-103.238C89.8924-94.9135 96.6255-88.1502 104.95-88.1502ZM59.1156-34.4019L83.1555-10.237L83.1555 25.9365L98.3104 25.9365L98.3104-12.5574C98.3104-14.619 97.7499-16.6447 96.3349-18.5008L80.3934-38.8374L93.9103-59.5327C94.5216-60.4179 95.6906-60.4179 96.1467-59.4611L100.697-50.2356C101.99-47.6795 104.632-46.1037 107.465-46.1037L134.333-46.1037C138.509-46.1037 141.909-49.4282 141.909-53.6795C141.909-57.8561 138.509-61.2554 134.333-61.2554L112.133-61.2554L105.351-75.0248C102.455-80.9059 96.2494-84.723 89.6111-84.723L53.8555-84.723C51.3943-84.723 48.8382-83.3853 47.4892-81.2791L34.0777-61.1754C31.8465-57.7705 32.7488-53.0278 36.2285-50.7218C39.6725-48.3354 44.4152-49.3426 46.8016-52.8726L57.9014-69.5681L67.3162-69.5681C67.9721-69.5681 68.3654-69.0373 67.9721-68.4172L57.2595-52.3677C53.5172-46.7637 54.319-39.1986 59.1156-34.4019ZM18.7205-24.5009L45.0664-1.44981C49.6897 2.60729 54.9483 0.450891 57.2153-3.05903L66.2701-17.0533L54.1175-29.1869C53.912-29.3924 53.7122-29.5922 53.5067-29.8423L48.1409-18.9164L28.6828-35.9373C25.5694-38.6096 20.7463-38.4487 17.9489-35.2103C15.2263-32.0466 15.5568-27.2983 18.7205-24.5009ZM52.5298 31.6503L97.7328 31.6503C105.23 31.6503 111.666 30.0109 116.586 25.7583C119.381 23.3537 119.063 20.2258 117.367 18.2989C115.751 16.4209 112.79 15.6314 110.023 17.7627C106.735 20.3217 103.622 21.3639 97.7328 21.3639L52.5298 21.3639C46.6458 21.3639 43.5335 20.3217 40.2451 17.7627C37.569 15.6918 34.6987 16.3549 33.0521 18.1122C31.2056 20.0334 30.8417 23.3179 33.6762 25.7583C38.5968 30.0109 45.0382 31.6503 52.5298 31.6503ZM52.5298 48.0447C56.0931 48.0447 58.9955 45.1423 58.9955 41.6092C58.9955 38.0458 56.0931 35.1435 52.5298 35.1435C48.972 35.1435 46.0999 38.0458 46.0999 41.6092C46.0999 45.1423 48.972 48.0447 52.5298 48.0447ZM97.7328 48.0447C101.296 48.0447 104.168 45.1423 104.168 41.6092C104.168 38.0458 101.296 35.1435 97.7328 35.1435C94.1694 35.1435 91.267 38.0458 91.267 41.6092C91.267 45.1423 94.1694 48.0447 97.7328 48.0447Z"/>
  </g>
  <g id="Bold-L" transform="matrix(1 0 0 1 2262.38 1556)">
   <path d="M103.094-87.2079C111.104-87.2079 117.622-93.7253 117.622-101.773C117.622-109.783 111.104-116.301 103.094-116.301C95.046-116.301 88.5666-109.783 88.5666-101.773C88.5666-93.7253 95.046-87.2079 103.094-87.2079ZM58.2645-35.0586L81.9832-11.2303L81.9832 25.0091L96.2685 25.0091L96.2685-13.3968C96.2685-15.366 95.7541-17.284 94.393-19.0632L78.6116-39.2015L92.0376-59.7683C92.7338-60.7922 94.1189-60.7922 94.6675-59.6659L99.1721-50.5471C100.388-48.1526 102.876-46.6307 105.563-46.6307L131.956-46.6307C135.901-46.6307 139.116-49.7782 139.116-53.791C139.116-57.7366 135.901-60.9512 131.956-60.9512L109.969-60.9512L103.218-74.645C100.406-80.3262 94.4386-83.9897 88.0309-83.9897L52.8882-83.9897C50.5653-83.9897 48.1708-82.7443 46.8989-80.7459L33.7173-61.0101C31.6093-57.7822 32.4499-53.3089 35.745-51.1337C38.9888-48.878 43.4621-49.8238 45.7178-53.1613L56.7109-69.7044L66.4815-69.7044C67.2069-69.7044 67.631-69.0887 67.2069-68.4145L56.4854-52.3402C52.889-46.9515 53.6448-39.6784 58.2645-35.0586ZM18.5589-25.3494L44.4528-2.70418C48.8297 1.14505 53.7883-0.895805 55.9476-4.22886L65.2342-18.5631L53.6354-30.1504C53.4453-30.3404 53.2685-30.5172 53.0785-30.7365L47.381-19.1779L27.9748-36.1468C25.0306-38.6729 20.4769-38.5121 17.8411-35.4583C15.2726-32.4716 15.5723-27.9851 18.5589-25.3494ZM51.5855 30.2863L96.251 30.2863C103.526 30.2863 109.631 28.7237 114.368 24.6553C116.739 22.604 116.522 19.9683 115.126 18.3026C113.756 16.6238 111.148 15.8874 108.703 17.7502C105.384 20.3325 102.133 21.4132 96.251 21.4132L51.5855 21.4132C45.7165 21.4132 42.4656 20.3325 39.1464 17.7502C36.8159 15.9634 34.3218 16.5346 32.9133 18.0614C31.328 19.7139 31.0256 22.5528 33.4685 24.6553C38.205 28.7237 44.324 30.2863 51.5855 30.2863ZM51.5855 46.0177C54.9257 46.0177 57.6666 43.2768 57.6666 39.9745C57.6666 36.6343 54.9257 33.8933 51.5855 33.8933C48.2584 33.8933 45.5555 36.6343 45.5555 39.9745C45.5555 43.2768 48.2584 46.0177 51.5855 46.0177ZM96.251 46.0177C99.5912 46.0177 102.294 43.2768 102.294 39.9745C102.294 36.6343 99.5912 33.8933 96.251 33.8933C92.9107 33.8933 90.1698 36.6343 90.1698 39.9745C90.1698 43.2768 92.9107 46.0177 96.251 46.0177Z"/>
  </g>
  <g id="Semibold-L" transform="matrix(1 0 0 1 1966.63 1556)">
   <path d="M101.814-86.5583C109.628-86.5583 115.976-92.9061 115.976-100.763C115.976-108.577 109.628-114.925 101.814-114.925C93.9571-114.925 87.6527-108.577 87.6527-100.763C87.6527-92.9061 93.9571-86.5583 101.814-86.5583ZM57.6778-35.5114L81.1751-11.9151L81.1751 24.3698L94.8609 24.3698L94.8609-13.9754C94.8609-15.881 94.3782-17.7247 93.0542-19.4508L77.3832-39.4525L90.7466-59.9307C91.5013-61.0502 93.0354-61.0502 93.6478-59.807L98.1208-50.7619C99.284-48.4788 101.666-46.994 104.252-46.994L130.317-46.994C134.103-46.994 137.191-50.0194 137.191-53.8678C137.191-57.6542 134.103-60.7416 130.317-60.7416L108.478-60.7416L101.747-74.3832C98.9936-79.9266 93.1902-83.4842 86.9415-83.4842L52.2213-83.4842C49.9938-83.4842 47.7108-82.3024 46.492-80.3783L33.4689-60.8961C31.4457-57.7903 32.2438-53.5027 35.4116-51.4176C38.5175-49.2521 42.8051-50.1555 44.9706-53.3603L55.8902-69.7984L65.9061-69.7984C66.6794-69.7984 67.1247-69.1242 66.6794-68.4127L55.9517-52.3213C52.456-47.081 53.18-40.0092 57.6778-35.5114ZM18.4475-25.9343L44.0298-3.56893C48.2369 0.136982 52.9886-1.82421 55.0736-5.03534L64.52-19.6039L53.303-30.8145C53.1236-30.994 52.9627-31.1549 52.7833-31.3529L46.8572-19.3583L27.4867-36.2913C24.6592-38.7166 20.2912-38.5557 17.7669-35.6292C15.3045-32.7647 15.5829-28.4586 18.4475-25.9343ZM50.9345 29.346L95.2295 29.346C102.351 29.346 108.229 27.8362 112.839 23.8949C114.918 22.0873 114.77 19.7907 113.582 18.3051C112.381 16.7636 110.016 16.0639 107.793 17.7416C104.453 20.3399 101.107 21.4471 95.2295 21.4471L50.9345 21.4471C45.0759 21.4471 41.7295 20.3399 38.389 17.7416C36.2967 16.1506 34.0619 16.6584 32.8176 18.0265C31.4124 19.4936 31.1524 22.0254 33.3253 23.8949C37.9349 27.8362 43.8317 29.346 50.9345 29.346ZM50.9345 44.6203C54.1209 44.6203 56.7505 41.9906 56.7505 38.8476C56.7505 35.6611 54.1209 33.0315 50.9345 33.0315C47.7665 33.0315 45.1803 35.6611 45.1803 38.8476C45.1803 41.9906 47.7665 44.6203 50.9345 44.6203ZM95.2295 44.6203C98.4159 44.6203 101.002 41.9906 101.002 38.8476C101.002 35.6611 98.4159 33.0315 95.2295 33.0315C92.043 33.0315 89.4134 35.6611 89.4134 38.8476C89.4134 41.9906 92.043 44.6203 95.2295 44.6203Z"/>
  </g>
  <g id="Medium-L" transform="matrix(1 0 0 1 1670.65 1556)">
   <path d="M100.844-86.0658C108.51-86.0658 114.729-92.285 114.729-99.9977C114.729-107.663 108.51-113.882 100.844-113.882C93.1315-113.882 86.9597-107.663 86.9597-99.9977C86.9597-92.285 93.1315-86.0658 100.844-86.0658ZM57.233-35.8547L80.5623-12.4344L80.5623 23.885L93.7935 23.885L93.7935-14.4142C93.7935-16.2714 93.3349-18.0588 92.0391-19.7448L76.4518-39.6428L89.7677-60.0538C90.5668-61.2459 92.2139-61.2459 92.8746-59.914L97.3237-50.9247C98.4467-48.7262 100.748-47.2695 103.258-47.2695L129.075-47.2695C132.74-47.2695 135.731-50.2024 135.731-53.9261C135.731-57.5918 132.74-60.5826 129.075-60.5826L107.347-60.5826L100.631-74.1847C97.9224-79.6236 92.2437-83.1009 86.1154-83.1009L51.7156-83.1009C49.5605-83.1009 47.362-81.9674 46.1835-80.0996L33.2805-60.8097C31.3217-57.7964 32.0876-53.6496 35.1588-51.6329C38.1601-49.5358 42.3069-50.407 44.404-53.5112L55.2679-69.8697L65.4698-69.8697C66.2794-69.8697 66.7408-69.151 66.2794-68.4114L55.547-52.3069C52.1277-47.1791 52.8276-40.2601 57.233-35.8547ZM18.363-26.3778L43.709-4.22462C47.7873-0.627375 52.3822-2.52816 54.4109-5.64684L63.9785-20.3932L53.051-31.3182C52.8797-31.4895 52.7308-31.6384 52.5594-31.8203L46.46-19.495L27.1166-36.4008C24.3776-38.7497 20.1504-38.5889 17.7105-35.7589C15.3287-32.9869 15.591-28.8176 18.363-26.3778ZM50.4408 28.633L94.4549 28.633C101.46 28.633 107.166 27.1633 111.679 23.3184C113.538 21.6954 113.442 19.6561 112.41 18.3071C111.338 16.8696 109.158 16.1977 107.104 17.7351C103.747 20.3455 100.328 21.4728 94.4549 21.4728L50.4408 21.4728C44.5901 21.4728 41.1713 20.3455 37.8146 17.7351C35.903 16.2926 33.8649 16.7523 32.7451 17.9999C31.4764 19.3266 31.2486 21.6255 33.2168 23.3184C37.7301 27.1633 43.4584 28.633 50.4408 28.633ZM50.4408 43.5607C53.5106 43.5607 56.0559 41.0154 56.0559 37.9931C56.0559 34.9233 53.5106 32.3781 50.4408 32.3781C47.3935 32.3781 44.8957 34.9233 44.8957 37.9931C44.8957 41.0154 47.3935 43.5607 50.4408 43.5607ZM94.4549 43.5607C97.5247 43.5607 100.022 41.0154 100.022 37.9931C100.022 34.9233 97.5247 32.3781 94.4549 32.3781C91.3851 32.3781 88.8399 34.9233 88.8399 37.9931C88.8399 41.0154 91.3851 43.5607 94.4549 43.5607Z"/>
  </g>
  <g id="Regular-L" transform="matrix(1 0 0 1 1374.89 1556)">
   <path d="M99.5787-85.4233C107.05-85.4233 113.102-91.4748 113.102-98.999C113.102-106.47 107.05-112.522 99.5787-112.522C92.0545-112.522 86.0558-106.47 86.0558-98.999C86.0558-91.4748 92.0545-85.4233 99.5787-85.4233ZM56.6527-36.3024L79.763-13.1117L79.763 23.2527L92.4013 23.2527L92.4013-14.9864C92.4013-16.7808 91.9741-18.4947 90.715-20.1282L75.237-39.8911L88.4909-60.2144C89.3479-61.5011 91.1422-61.5011 91.866-60.0536L96.284-51.1371C97.3546-49.0488 99.551-47.6289 101.961-47.6289L127.454-47.6289C130.962-47.6289 133.827-50.441 133.827-54.002C133.827-57.5103 130.962-60.3752 127.454-60.3752L105.871-60.3752L99.1766-73.9258C96.5253-79.2284 91.0091-82.6009 85.038-82.6009L51.0561-82.6009C48.9953-82.6009 46.907-81.5304 45.7811-79.736L33.0347-60.6969C31.16-57.8043 31.8838-53.8412 34.8291-51.9137C37.694-49.9057 41.6571-50.735 43.6651-53.708L54.4562-69.9627L64.9006-69.9627C65.7576-69.9627 66.2401-69.1861 65.7576-68.4096L55.0192-52.2881C51.6994-47.3072 52.3679-40.5872 56.6527-36.3024ZM18.2528-26.9562L43.2906-5.07987C47.201-1.62436 51.5913-3.44636 53.5465-6.44446L63.2722-21.4226L52.7223-31.975C52.5615-32.1359 52.4283-32.2691 52.2675-32.4299L45.9419-19.6733L26.6339-36.5437C24.0102-38.7929 19.9667-38.632 17.6371-35.928C15.3602-33.2767 15.6015-29.2859 18.2528-26.9562ZM49.797 27.703L93.4446 27.703C100.298 27.703 105.779 26.2857 110.166 22.5663C111.737 21.1843 111.709 19.4806 110.883 18.3096C109.978 17.008 108.038 16.3722 106.204 17.7266C102.826 20.3528 99.3127 21.5064 93.4446 21.5064L49.797 21.5064C43.9565 21.5064 40.4432 20.3528 37.0655 17.7266C35.3895 16.4778 33.6079 16.8748 32.6505 17.9653C31.5599 19.1087 31.374 21.1039 33.0751 22.5663C37.4629 26.2857 42.9715 27.703 49.797 27.703ZM49.797 42.1786C52.7147 42.1786 55.1498 39.7434 55.1498 36.8785C55.1498 33.9609 52.7147 31.5257 49.797 31.5257C46.907 31.5257 44.5246 33.9609 44.5246 36.8785C44.5246 39.7434 46.907 42.1786 49.797 42.1786ZM93.4446 42.1786C96.3623 42.1786 98.7447 39.7434 98.7447 36.8785C98.7447 33.9609 96.3623 31.5257 93.4446 31.5257C90.5269 31.5257 88.0918 33.9609 88.0918 36.8785C88.0918 39.7434 90.5269 42.1786 93.4446 42.1786Z"/>
  </g>
  <g id="Light-L" transform="matrix(1 0 0 1 1079.59 1556)">
   <path d="M97.5938-84.1827C104.893-84.1827 110.792-90.0816 110.792-97.4149C110.792-104.715 104.893-110.613 97.5938-110.613C90.2605-110.613 84.3954-104.715 84.3954-97.4149C84.3954-90.0816 90.2605-84.1827 97.5938-84.1827ZM55.6793-36.0161L78.2553-13.3598L78.2553 22.1266L90.5691 22.1266L90.5691-15.1964C90.5691-16.9525 90.1801-18.6283 88.9401-20.2236L73.8246-39.5285L86.7351-59.3365C87.573-60.6232 89.3291-60.6232 90.0529-59.1756L94.3564-50.4882C95.3888-48.4571 97.5471-47.0563 99.8999-47.0563L124.782-47.0563C128.214-47.0563 131.002-49.8112 131.002-53.2768C131.002-56.7087 128.214-59.4973 124.782-59.4973L103.734-59.4973L97.1917-72.7425C94.5977-77.9306 89.215-81.1886 83.3966-81.1886L50.2163-81.1886C48.2319-81.1886 46.2008-80.1562 45.0749-78.4001L32.6339-59.819C30.7974-56.9837 31.5211-53.116 34.3901-51.2457C37.1787-49.295 41.0464-50.0861 42.9971-53.0019L53.5211-68.8748L63.7364-68.8748C64.5743-68.8748 65.0568-68.1173 64.5743-67.3599L54.084-51.6011C50.8597-46.7346 51.49-40.2055 55.6793-36.0161ZM18.1955-26.8799L42.6417-5.557C46.4758-2.15875 50.7325-3.96167 52.6495-6.86433L62.2607-21.6898L51.978-32.0323C51.8172-32.1931 51.7031-32.3072 51.5422-32.4681L45.2358-19.7878L26.3667-36.2574C23.8194-38.4493 19.8713-38.2885 17.5989-35.6608C15.3602-33.0667 15.6015-29.1523 18.1955-26.8799ZM48.9763 25.9853L92.1659 25.9853C98.8091 25.9853 103.966 24.6443 108.163 21.0777C109.485 19.9628 109.438 18.5263 108.707 17.5462C107.955 16.5117 106.397 16.0478 104.906 17.1159C101.528 19.723 97.9767 20.8956 92.1659 20.8956L48.9763 20.8956C43.2122 20.8956 39.6607 19.723 36.283 17.1159C34.8933 16.1152 33.4361 16.3976 32.6505 17.2974C31.7508 18.2308 31.603 19.8824 32.9797 21.0777C37.1767 24.6443 42.3799 25.9853 48.9763 25.9853ZM48.9763 40.4609C51.7986 40.4609 54.1383 38.1212 54.1383 35.3326C54.1383 32.5104 51.7986 30.1707 48.9763 30.1707C46.2008 30.1707 43.8948 32.5104 43.8948 35.3326C43.8948 38.1212 46.2008 40.4609 48.9763 40.4609ZM92.1659 40.4609C94.9881 40.4609 97.2942 38.1212 97.2942 35.3326C97.2942 32.5104 94.9881 30.1707 92.1659 30.1707C89.3436 30.1707 87.0039 32.5104 87.0039 35.3326C87.0039 38.1212 89.3436 40.4609 92.1659 40.4609Z"/>
  </g>
  <g id="Thin-L" transform="matrix(1 0 0 1 784.747 1556)">
   <path d="M94.9687-82.542C102.041-82.542 107.738-88.2389 107.738-95.3198C107.738-102.392 102.041-108.089 94.9687-108.089C87.8878-108.089 82.1993-102.392 82.1993-95.3198C82.1993-88.2389 87.8878-82.542 94.9687-82.542ZM54.392-35.6375L76.2612-13.6879L76.2612 20.6374L88.1459 20.6374L88.1459-15.474C88.1459-17.1797 87.8074-18.805 86.5926-20.3498L71.9567-39.0489L84.4128-58.1753C85.2255-59.4621 86.9312-59.4621 87.655-58.0145L91.807-49.63C92.7889-47.6746 94.8967-46.2991 97.1738-46.2991L121.248-46.2991C124.579-46.2991 127.267-48.9782 127.267-52.3176C127.267-55.6486 124.579-58.3362 121.248-58.3362L100.907-58.3362L94.5666-71.1775C92.0482-76.2142 86.8423-79.3207 81.2259-79.3207L49.1057-79.3207C47.2223-79.3207 45.2669-78.3388 44.141-76.6331L32.1039-58.6579C30.3178-55.8983 31.0415-52.1568 33.8096-50.3622C36.4972-48.4873 40.2387-49.2279 42.1136-52.0679L52.2842-67.436L62.1967-67.436C63.0093-67.436 63.4918-66.7038 63.0093-65.9716L52.8472-50.6923C49.749-45.9774 50.3288-39.7007 54.392-35.6375ZM18.1198-26.7789L41.7835-6.18805C45.5166-2.86552 49.5966-4.6432 51.4631-7.41965L60.9229-22.0431L50.9936-32.108C50.8327-32.2689 50.7439-32.3577 50.583-32.5186L44.3018-19.9393L26.0133-35.8788C23.567-37.995 19.7451-37.8342 17.5484-35.3074C15.3602-32.7891 15.6015-28.9756 18.1198-26.7789ZM47.8909 23.7136L90.4747 23.7136C96.8402 23.7136 101.568 22.4735 105.512 19.1088C106.506 18.3474 106.434 17.2642 105.829 16.5365C105.279 15.8554 104.226 15.6187 103.189 16.3082C99.8118 18.89 96.2098 20.0879 90.4747 20.0879L47.8909 20.0879C42.2278 20.0879 38.6258 18.89 35.2481 16.3082C34.237 15.6356 33.2089 15.7666 32.6505 16.4139C32.0032 17.0696 31.9059 18.2669 32.8535 19.1088C36.798 22.4735 41.5974 23.7136 47.8909 23.7136ZM47.8909 38.1892C50.587 38.1892 52.8005 35.9756 52.8005 33.288C52.8005 30.592 50.587 28.3785 47.8909 28.3785C45.2669 28.3785 43.0618 30.592 43.0618 33.288C43.0618 35.9756 45.2669 38.1892 47.8909 38.1892ZM90.4747 38.1892C93.1707 38.1892 95.3758 35.9756 95.3758 33.288C95.3758 30.592 93.1707 28.3785 90.4747 28.3785C87.7787 28.3785 85.5651 30.592 85.5651 33.288C85.5651 35.9756 87.7787 38.1892 90.4747 38.1892Z"/>
  </g>
  <g id="Ultralight-L" transform="matrix(1 0 0 1 488.993 1556)">
   <path d="M93.6241-81.7017C100.58-81.7017 106.174-87.2951 106.174-94.2467C106.174-101.203 100.58-106.796 93.6241-106.796C86.6725-106.796 81.0745-101.203 81.0745-94.2467C81.0745-87.2951 86.6725-81.7017 93.6241-81.7017ZM53.7326-35.4436L75.2398-13.856L75.2398 19.8746L86.9047 19.8746L86.9047-15.6162C86.9047-17.2961 86.5921-18.8955 85.3902-20.4145L71-38.8032L83.2234-57.5806C84.0231-58.8673 85.7029-58.8673 86.4267-57.4198L90.5012-49.1904C91.4572-47.2738 93.5392-45.9112 95.7774-45.9112L119.438-45.9112C122.717-45.9112 125.353-48.5516 125.353-51.8263C125.353-55.1056 122.717-57.7415 119.438-57.7415L99.4588-57.7415L93.222-70.3759C90.7424-75.335 85.627-78.364 80.114-78.364L48.5368-78.364C46.7051-78.364 44.7885-77.408 43.6626-75.7281L31.8324-58.0631C30.0721-55.3423 30.7959-51.6655 33.5122-49.9097C36.1481-48.0735 39.8249-48.7883 41.6611-51.5896L51.6507-66.6991L61.408-66.6991C62.2077-66.6991 62.6903-65.9798 62.2077-65.2605L52.2137-50.2269C49.1802-45.5895 49.7341-39.4421 53.7326-35.4436ZM18.081-26.7272L41.3439-6.51126C45.0253-3.22753 49.0148-4.99227 50.8555-7.70409L60.2377-22.2242L50.4893-32.1468C50.3285-32.3076 50.2526-32.3836 50.0917-32.5444L43.8235-20.0169L25.8323-35.6848C23.4377-37.7623 19.6804-37.6014 17.5226-35.1264C15.3602-32.6468 15.6015-28.8851 18.081-26.7272ZM47.335 22.55L89.6085 22.55C95.8318 22.55 100.339 21.3617 104.155 18.1004C104.981 17.5199 104.896 16.6178 104.355 16.0193C103.909 15.5193 103.114 15.3989 102.31 15.8944C98.9327 18.4634 95.3048 19.6742 89.6085 19.6742L47.335 19.6742C41.7236 19.6742 38.0957 18.4634 34.7181 15.8944C33.9008 15.3899 33.0926 15.4434 32.6505 15.9614C32.1325 16.4749 32.061 17.4395 32.7889 18.1004C36.6041 21.3617 41.1966 22.55 47.335 22.55ZM47.335 37.0256C49.9664 37.0256 52.1153 34.8767 52.1153 32.2408C52.1153 29.6094 49.9664 27.4605 47.335 27.4605C44.7885 27.4605 42.6351 29.6094 42.6351 32.2408C42.6351 34.8767 44.7885 37.0256 47.335 37.0256ZM89.6085 37.0256C92.2399 37.0256 94.3932 34.8767 94.3932 32.2408C94.3932 29.6094 92.2399 27.4605 89.6085 27.4605C86.9771 27.4605 84.8282 29.6094 84.8282 32.2408C84.8282 34.8767 86.9771 37.0256 89.6085 37.0256Z"/>
  </g>
  <g id="Black-M" transform="matrix(1 0 0 1 2870.64 1126)">
   <path d="M83.3453-77.1837C90.1284-77.1837 95.6756-82.7309 95.6756-89.5195C95.6756-96.3026 90.1284-101.85 83.3453-101.85C76.5566-101.85 71.0149-96.3026 71.0149-89.5195C71.0149-82.7309 76.5566-77.1837 83.3453-77.1837ZM46.7113-33.5316L65.6234-14.5001L65.6234 13.1299L78.5245 13.1299L78.5245-16.5098C78.5245-18.2289 78.0359-19.9427 76.8675-21.4801L64.4064-37.3693L74.8943-53.4153C75.2373-53.8983 75.8145-53.8983 76.0326-53.4049L79.5857-46.1794C80.6869-43.9824 82.9459-42.6894 85.3349-42.6894L106.636-42.6894C110.183-42.6894 113.061-45.5042 113.061-49.1138C113.061-52.6609 110.183-55.5383 106.636-55.5383L89.3077-55.5383L84.0615-66.2126C81.7139-71.0219 76.6031-74.1647 71.1753-74.1647L42.8515-74.1647C40.7684-74.1647 38.5715-73.0064 37.4137-71.2303L26.7916-55.2737C24.896-52.3966 25.6851-48.3612 28.6248-46.403C31.5593-44.3826 35.5947-45.2398 37.6151-48.2363L46.2794-61.2636L52.9759-61.2636C53.376-61.2636 53.6356-60.9829 53.376-60.5879L45.174-48.3135C42.0938-43.6963 42.7693-37.4736 46.7113-33.5316ZM14.7202-25.6522L35.5904-7.38892C39.5061-3.96151 43.973-5.79447 45.8738-8.73964L52.5112-19.033L42.378-29.1601C42.1963-29.3418 42.0143-29.5238 41.8326-29.7626L38.1664-22.2479L23.1651-35.3743C20.5317-37.6387 16.434-37.5141 14.0502-34.7614C11.7289-32.0712 12.03-28.0361 14.7202-25.6522ZM41.7972 17.9931L77.4471 17.9931C83.5092 17.9931 88.8668 16.6369 92.883 13.1249C95.581 10.8367 95.1816 7.78541 93.4619 5.97594C91.9022 4.321 89.2228 3.6902 86.7258 5.63611C84.2232 7.57825 82.0014 8.33604 77.4471 8.33604L41.7972 8.33604C37.2426 8.33604 35.0209 7.57825 32.5182 5.63611C30.0376 3.70118 27.3747 4.3103 25.8096 5.94327C24.0624 7.75303 23.7036 10.8315 26.3613 13.1249C30.3775 16.6369 35.7348 17.9931 41.7972 17.9931ZM41.7972 31.6631C44.8513 31.6631 47.3033 29.2111 47.3033 26.1625C47.3033 23.1083 44.8513 20.6564 41.7972 20.6564C38.7428 20.6564 36.2963 23.1083 36.2963 26.1625C36.2963 29.2111 38.7428 31.6631 41.7972 31.6631ZM77.4471 31.6631C80.5012 31.6631 82.9477 29.2111 82.9477 26.1625C82.9477 23.1083 80.5012 20.6564 77.4471 20.6564C74.3929 20.6564 71.941 23.1083 71.941 26.1625C71.941 29.2111 74.3929 31.6631 77.4471 31.6631Z"/>
  </g>
  <g id="Heavy-M" transform="matrix(1 0 0 1 2574.84 1126)">
   <path d="M82.1496-76.6267C88.7211-76.6267 94.0861-81.9917 94.0861-88.5796C94.0861-95.1511 88.7211-100.516 82.1496-100.516C75.5617-100.516 70.2131-95.1511 70.2131-88.5796C70.2131-81.9917 75.5617-76.6267 82.1496-76.6267ZM46.1767-34.1669L64.9228-15.3148L64.9228 12.5614L77.1337 12.5614L77.1337-17.1982C77.1337-18.8448 76.6772-20.4727 75.5517-21.951L63.1527-37.7654L73.635-53.8098C74.0563-54.414 74.8304-54.414 75.1295-53.7724L78.6672-46.591C79.7094-44.523 81.842-43.2729 84.1156-43.2729L105.133-43.2729C108.495-43.2729 111.227-45.9453 111.227-49.367C111.227-52.7287 108.495-55.4611 105.133-55.4611L87.876-55.4611L82.6233-66.1349C80.3372-70.7942 75.4061-73.8273 70.1469-73.8273L42.1865-73.8273C40.208-73.8273 38.14-72.7415 37.0496-71.0513L26.5627-55.3177C24.7666-52.5831 25.5018-48.7626 28.2965-46.9064C31.0725-44.988 34.893-45.7997 36.8115-48.6402L45.44-61.6165L52.4965-61.6165C52.9615-61.6165 53.2481-61.2574 52.9615-60.8111L44.6983-48.4371C41.7252-43.9834 42.3687-37.9749 46.1767-34.1669ZM14.5912-26.41L35.1936-8.3826C38.9104-5.12455 43.1438-6.86064 44.9586-9.67175L51.8232-20.295L42.1166-29.9898C41.9484-30.158 41.7824-30.3239 41.6142-30.5358L37.6541-22.4519L22.6038-35.6189C20.1019-37.7679 16.2191-37.6433 13.9642-35.0355C11.7693-32.4877 12.0435-28.665 14.5912-26.41ZM41.1483 17.1701L76.4269 17.1701C82.3396 17.1701 87.4785 15.8645 91.3748 12.4808C93.7566 10.444 93.449 7.76537 91.9712 6.14316C90.5936 4.60486 88.1406 3.9836 85.8512 5.75641C83.3217 7.72295 80.987 8.51024 76.4269 8.51024L41.1483 8.51024C36.5904 8.51024 34.2558 7.72295 31.7262 5.75641C29.4861 4.01642 27.0822 4.56977 25.6883 6.04243C24.1284 7.66236 23.8152 10.4253 26.2003 12.4808C30.0966 15.8645 35.2378 17.1701 41.1483 17.1701ZM41.1483 30.2607C44.0279 30.2607 46.3593 27.9293 46.3593 25.066C46.3593 22.1864 44.0279 19.855 41.1483 19.855C38.2709 19.855 35.9559 22.1864 35.9559 25.066C35.9559 27.9293 38.2709 30.2607 41.1483 30.2607ZM76.4269 30.2607C79.3065 30.2607 81.6215 27.9293 81.6215 25.066C81.6215 22.1864 79.3065 19.855 76.4269 19.855C73.5472 19.855 71.2159 22.1864 71.2159 25.066C71.2159 27.9293 73.5472 30.2607 76.4269 30.2607Z"/>
  </g>
  <g id="Bold-M" transform="matrix(1 0 0 1 2279.16 1126)">
   <path d="M80.8121-76.0037C87.1468-76.0037 92.3081-81.1649 92.3081-87.5283C92.3081-93.863 87.1468-99.0243 80.8121-99.0243C74.4487-99.0243 69.3161-93.863 69.3161-87.5283C69.3161-81.1649 74.4487-76.0037 80.8121-76.0037ZM45.5786-34.8777L64.1392-16.2263L64.1392 11.9253L75.5779 11.9253L75.5779-17.9683C75.5779-19.5337 75.1572-21.0655 74.0798-22.4778L61.7502-38.2085L72.2262-54.251C72.7352-54.9909 73.7297-54.9909 74.1191-54.1835L77.6397-47.0515C78.6159-45.1277 80.6071-43.9257 82.7515-43.9257L103.451-43.9257C106.606-43.9257 109.176-46.4388 109.176-49.6503C109.176-52.8046 106.606-55.3748 103.451-55.3748L86.2744-55.3748L81.0144-66.048C78.7973-70.5394 74.067-73.4498 68.9966-73.4498L41.4426-73.4498C39.5811-73.4498 37.6573-72.4451 36.6423-70.8511L26.3067-55.3671C24.6218-52.7917 25.2967-49.2116 27.9292-47.4696C30.528-45.6652 34.1081-46.4259 35.9125-49.0921L44.5009-62.0111L51.9603-62.0111C52.4977-62.0111 52.8145-61.5645 52.4977-61.0608L44.1663-48.5753C41.313-44.3046 41.9206-38.5357 45.5786-34.8777ZM14.447-27.2578L34.7496-9.49417C38.244-6.42559 42.2162-8.0533 43.9348-10.7144L51.0536-21.7067L41.8242-30.9178C41.671-31.071 41.523-31.219 41.3698-31.4007L37.081-22.6801L21.9759-35.8925C19.6211-37.9123 15.9787-37.7877 13.8681-35.3421C11.8146-32.9537 12.0586-29.3685 14.447-27.2578ZM40.4223 16.2494L75.2856 16.2494C81.0312 16.2494 85.9256 15.0005 89.6878 11.7603C91.7158 10.0047 91.5109 7.74294 90.3036 6.33022C89.1298 4.92241 86.9299 4.31181 84.8729 5.89099C82.3132 7.88481 79.8522 8.70511 75.2856 8.70511L40.4223 8.70511C35.8609 8.70511 33.3999 7.88481 30.8402 5.89099C28.8691 4.36906 26.755 4.86003 25.5526 6.15335C24.2022 7.56094 23.9399 9.97094 26.0202 11.7603C29.7824 15.0005 34.6819 16.2494 40.4223 16.2494ZM40.4223 28.6918C43.1068 28.6918 45.3033 26.4954 45.3033 23.8395C45.3033 21.155 43.1068 18.9586 40.4223 18.9586C37.743 18.9586 35.5751 21.155 35.5751 23.8395C35.5751 26.4954 37.743 28.6918 40.4223 28.6918ZM75.2856 28.6918C77.9701 28.6918 80.1379 26.4954 80.1379 23.8395C80.1379 21.155 77.9701 18.9586 75.2856 18.9586C72.6011 18.9586 70.4047 21.155 70.4047 23.8395C70.4047 26.4954 72.6011 28.6918 75.2856 28.6918Z"/>
  </g>
  <g id="Semibold-M" transform="matrix(1 0 0 1 1983.16 1126)">
   <path d="M79.89-75.5741C86.0615-75.5741 91.0823-80.5949 91.0823-86.8035C91.0823-92.975 86.0615-97.9958 79.89-97.9958C73.6814-97.9958 68.6977-92.975 68.6977-86.8035C68.6977-80.5949 73.6814-75.5741 79.89-75.5741ZM45.1663-35.3677L63.5989-16.8546L63.5989 11.4869L74.5053 11.4869L74.5053-18.4991C74.5053-20.0087 74.1094-21.4741 73.0651-22.841L60.7834-38.514L71.2551-54.5552C71.8244-55.3886 72.9708-55.3886 73.4226-54.4669L76.9314-47.3689C77.862-45.5446 79.7558-44.3758 81.8112-44.3758L102.292-44.3758C105.303-44.3758 107.762-46.779 107.762-49.8455C107.762-52.8568 105.303-55.3152 102.292-55.3152L85.1703-55.3152L79.9053-65.9881C77.7356-70.3637 73.1438-73.1896 68.2035-73.1896L40.9298-73.1896C39.1489-73.1896 37.3246-72.2408 36.3615-70.713L26.1302-55.4011C24.522-52.9355 25.1553-49.5212 27.6761-47.8578C30.1526-46.1321 33.567-46.8577 35.2927-49.4037L43.8536-62.2832L51.5906-62.2832C52.178-62.2832 52.5156-61.7762 52.178-61.2329L43.7995-48.6706C41.0288-44.526 41.6116-38.9223 45.1663-35.3677ZM14.3476-27.8422L34.4436-10.2605C37.7846-7.32251 41.5767-8.87551 43.2291-11.4333L50.5231-22.6799L41.6226-31.5576C41.4798-31.7004 41.3442-31.836 41.2014-31.997L36.6859-22.8374L21.543-36.0812C19.2897-38.0119 15.813-37.8873 13.8018-35.5535C11.8457-33.2749 12.069-29.8534 14.3476-27.8422ZM39.9219 15.6147L74.4988 15.6147C80.1292 15.6147 84.855 14.4049 88.5247 11.2636C90.3089 9.70184 90.1747 7.72748 89.1539 6.45918C88.1206 5.14132 86.0953 4.53808 84.1985 5.98376C81.618 7.9964 79.0699 8.83945 74.4988 8.83945L39.9219 8.83945C35.3579 8.83945 32.8099 7.9964 30.2294 5.98376C28.4437 4.61216 26.5295 5.06013 25.4591 6.22982C24.2531 7.49102 24.0259 9.65769 25.896 11.2636C29.5657 14.4049 34.2986 15.6147 39.9219 15.6147ZM39.9219 27.6103C42.4718 27.6103 44.5753 25.5068 44.5753 22.994C44.5753 20.444 42.4718 18.3406 39.9219 18.3406C37.3791 18.3406 35.3126 20.444 35.3126 22.994C35.3126 25.5068 37.3791 27.6103 39.9219 27.6103ZM74.4988 27.6103C77.0488 27.6103 79.1152 25.5068 79.1152 22.994C79.1152 20.444 77.0488 18.3406 74.4988 18.3406C71.9489 18.3406 69.8454 20.444 69.8454 22.994C69.8454 25.5068 71.9489 27.6103 74.4988 27.6103Z"/>
  </g>
  <g id="Medium-M" transform="matrix(1 0 0 1 1686.98 1126)">
   <path d="M79.1908-75.2485C85.2385-75.2485 90.1528-80.1627 90.1528-86.2539C90.1528-92.3016 85.2385-97.2159 79.1908-97.2159C73.0997-97.2159 68.2288-92.3016 68.2288-86.2539C68.2288-80.1627 73.0997-75.2485 79.1908-75.2485ZM44.8537-35.7392L63.1893-17.3311L63.1893 11.1544L73.692 11.1544L73.692-18.9017C73.692-20.3689 73.3148-21.784 72.2957-23.1163L60.0502-38.7456L70.5187-54.7858C71.1338-55.6902 72.3954-55.6902 72.8945-54.6817L76.3943-47.6096C77.2904-45.8607 79.1103-44.717 81.0981-44.717L101.413-44.717C104.316-44.717 106.69-47.0369 106.69-49.9936C106.69-52.8965 104.316-55.2701 101.413-55.2701L84.3331-55.2701L79.0643-65.9427C76.9306-70.2306 72.4439-72.9923 67.6022-72.9923L40.541-72.9923C38.8212-72.9923 37.0723-72.0859 36.1486-70.6084L25.9963-55.4268C24.4463-53.0446 25.0481-49.7559 27.4841-48.1521C29.868-46.4861 33.1567-47.1851 34.8228-49.6399L43.3627-62.4895L51.3103-62.4895C51.9356-62.4895 52.2889-61.9368 51.9356-61.3634L43.5214-48.7428C40.8133-44.6939 41.3774-39.2155 44.8537-35.7392ZM14.2722-28.2854L34.2115-10.8415C37.4362-8.0026 41.0918-9.49895 42.6939-11.9783L50.1208-23.4179L41.4697-32.0427C41.3348-32.1776 41.2086-32.3039 41.0737-32.4491L36.3863-22.9566L21.2148-36.2242C19.0383-38.0875 15.6873-37.9628 13.7515-35.7138C11.8694-33.5185 12.0768-30.2212 14.2722-28.2854ZM39.5424 15.1335L73.9023 15.1335C79.4453 15.1335 84.0432 13.9533 87.6428 10.8869C89.2421 9.47221 89.1616 7.71576 88.2822 6.55696C87.3554 5.30731 85.4624 4.70964 83.6871 6.05411C81.0908 8.08101 78.4767 8.94132 73.9023 8.94132L39.5424 8.94132C34.9766 8.94132 32.3625 8.08101 29.7662 6.05411C28.1212 4.7965 26.3584 5.21186 25.3882 6.2878C24.2917 7.438 24.0912 9.42018 25.8019 10.8869C29.4015 13.9533 34.008 15.1335 39.5424 15.1335ZM39.5424 26.7903C41.9903 26.7903 44.0233 24.7573 44.0233 22.3528C44.0233 19.9049 41.9903 17.872 39.5424 17.872C37.1031 17.872 35.1136 19.9049 35.1136 22.3528C35.1136 24.7573 37.1031 26.7903 39.5424 26.7903ZM73.9023 26.7903C76.3502 26.7903 78.3397 24.7573 78.3397 22.3528C78.3397 19.9049 76.3502 17.872 73.9023 17.872C71.4544 17.872 69.4214 19.9049 69.4214 22.3528C69.4214 24.7573 71.4544 26.7903 73.9023 26.7903Z"/>
  </g>
  <g id="Regular-M" transform="matrix(1 0 0 1 1390.97 1126)">
   <path d="M78.2789-74.8237C84.1652-74.8237 88.9405-79.599 88.9405-85.5371C88.9405-91.4233 84.1652-96.1987 78.2789-96.1987C72.3408-96.1987 67.6172-91.4233 67.6172-85.5371C67.6172-79.599 72.3408-74.8237 78.2789-74.8237ZM44.4459-36.2239L62.6549-17.9525L62.6549 10.7208L72.6312 10.7208L72.6312-19.4267C72.6312-20.8386 72.2785-22.1882 71.2922-23.4755L59.094-39.0477L69.5582-55.0866C70.233-56.0835 71.6449-56.0835 72.2057-54.962L75.6937-47.9236C76.5449-46.273 78.2683-45.1621 80.1681-45.1621L100.266-45.1621C103.028-45.1621 105.291-47.3734 105.291-50.1867C105.291-52.9482 103.028-55.2112 100.266-55.2112L83.2411-55.2112L77.9673-65.8834C75.8806-70.0568 71.5309-72.7349 66.8178-72.7349L40.0338-72.7349C38.3938-72.7349 36.7432-71.8838 35.8709-70.4719L25.8218-55.4605C24.3476-53.1868 24.9083-50.062 27.2337-48.5361C29.4968-46.9478 32.6215-47.6121 34.2098-49.948L42.7225-62.7586L50.9447-62.7586C51.6195-62.7586 51.9933-62.1462 51.6195-61.5337L43.1586-48.8371C40.5322-44.9129 41.0719-39.5979 44.4459-36.2239ZM14.1738-28.8634L33.9088-11.5994C36.9819-8.88967 40.4594-10.3121 41.9959-12.6893L49.5961-24.3804L41.2703-32.6755C41.1457-32.8001 41.0317-32.9142 40.9071-33.0388L35.9955-23.1122L20.7867-36.4108C18.7105-38.186 15.5234-38.0614 13.6859-35.9229C11.9002-33.8362 12.0871-30.7008 14.1738-28.8634ZM39.0475 14.5058L73.1241 14.5058C78.5532 14.5058 82.9844 13.3642 86.4925 10.3957C87.8507 9.17268 87.8401 7.70048 87.1452 6.6845C86.3574 5.52382 84.6369 4.93343 83.02 6.14586C80.4032 8.19137 77.703 9.07418 73.1241 9.07418L39.0475 9.07418C34.4791 9.07418 31.7789 8.19137 29.1621 6.14586C27.7005 5.03693 26.1353 5.40976 25.2957 6.36343C24.342 7.36885 24.1762 9.11038 25.6791 10.3957C29.1872 13.3642 33.629 14.5058 39.0475 14.5058ZM39.0475 25.7206C41.3623 25.7206 43.3033 23.7796 43.3033 21.5166C43.3033 19.2017 41.3623 17.2607 39.0475 17.2607C36.7432 17.2607 34.854 19.2017 34.854 21.5166C34.854 23.7796 36.7432 25.7206 39.0475 25.7206ZM73.1241 25.7206C75.439 25.7206 77.3282 23.7796 77.3282 21.5166C77.3282 19.2017 75.439 17.2607 73.1241 17.2607C70.8093 17.2607 68.8683 19.2017 68.8683 21.5166C68.8683 23.7796 70.8093 25.7206 73.1241 25.7206Z"/>
  </g>
  <g id="Light-M" transform="matrix(1 0 0 1 1095.52 1126)">
   <path d="M76.4993-73.7114C82.2316-73.7114 86.8701-78.3499 86.8701-84.1168C86.8701-89.8491 82.2316-94.4876 76.4993-94.4876C70.7324-94.4876 66.1286-89.8491 66.1286-84.1168C66.1286-78.3499 70.7324-73.7114 76.4993-73.7114ZM43.5732-35.9672L61.3032-18.1749L61.3032 9.71121L70.9886 9.71121L70.9886-19.6149C70.9886-20.9926 70.6701-22.308 69.7009-23.5611L57.8278-38.7226L67.984-54.2995C68.6417-55.2964 70.0194-55.2964 70.5801-54.1749L73.9655-47.3418C74.7825-45.7426 76.4717-44.6488 78.3201-44.6488L97.8709-44.6488C100.564-44.6488 102.759-46.8087 102.759-49.5364C102.759-52.2295 100.564-54.4241 97.8709-54.4241L81.3247-54.4241L76.1878-64.8226C74.1524-68.8933 69.9224-71.4687 65.3463-71.4687L39.2809-71.4687C37.7093-71.4687 36.1101-70.6518 35.2378-69.2741L25.4625-54.6733C24.0225-52.4511 24.5832-49.4118 26.8401-47.9372C29.0348-46.4003 32.074-47.0303 33.6109-49.3149L41.884-61.7833L49.9009-61.7833C50.5586-61.7833 50.9324-61.1879 50.5586-60.5926L42.3201-48.2211C39.7794-44.3995 40.2848-39.2556 43.5732-35.9672ZM14.1225-28.7949L33.3271-12.0272C36.3317-9.36877 39.6894-10.7741 41.1917-13.0657L48.6892-24.62L40.603-32.7268C40.4784-32.8514 40.3815-32.9484 40.2569-33.073L35.3624-23.2149L20.5471-36.1541C18.5394-37.878 15.4379-37.7534 13.6517-35.6833C11.9002-33.648 12.0871-30.5811 14.1225-28.7949ZM38.3117 12.9658L71.9777 12.9658C77.2185 12.9658 81.3588 11.8927 84.6959 9.06102C85.8316 8.07758 85.8039 6.84493 85.1946 6.00006C84.5436 5.07893 83.1654 4.64254 81.8565 5.59831C79.2397 7.62671 76.5053 8.52663 71.9777 8.52663L38.3117 8.52663C33.8118 8.52663 31.0774 7.62671 28.4606 5.59831C27.2556 4.71182 25.9813 4.98199 25.2957 5.76455C24.5131 6.58175 24.3816 8.01528 25.5935 9.06102C28.9306 11.8927 33.0985 12.9658 38.3117 12.9658ZM38.3117 24.1806C40.541 24.1806 42.3964 22.3252 42.3964 20.1306C42.3964 17.9013 40.541 16.0459 38.3117 16.0459C36.1101 16.0459 34.2893 17.9013 34.2893 20.1306C34.2893 22.3252 36.1101 24.1806 38.3117 24.1806ZM71.9777 24.1806C74.207 24.1806 76.0278 22.3252 76.0278 20.1306C76.0278 17.9013 74.207 16.0459 71.9777 16.0459C69.7484 16.0459 67.893 17.9013 67.893 20.1306C67.893 22.3252 69.7484 24.1806 71.9777 24.1806Z"/>
  </g>
  <g id="Thin-M" transform="matrix(1 0 0 1 800.487 1126)">
   <path d="M74.1457-72.2405C79.6744-72.2405 84.1318-76.6979 84.1318-82.2385C84.1318-87.7671 79.6744-92.2246 74.1457-92.2246C68.6051-92.2246 64.1597-87.7671 64.1597-82.2385C64.1597-76.6979 68.6051-72.2405 74.1457-72.2405ZM42.4191-35.6277L59.5154-18.4691L59.5154 8.376L68.8161 8.376L68.8161-19.8639C68.8161-21.1963 68.5428-22.4664 67.5962-23.6742L56.1532-38.2926L65.902-53.2585C66.537-54.2554 67.8695-54.2554 68.4302-53.1339L71.6798-46.5724C72.4515-45.041 74.0955-43.9698 75.876-43.9698L94.7026-43.9698C97.3051-43.9698 99.4092-46.0619 99.4092-48.6765C99.4092-51.279 97.3051-53.3831 94.7026-53.3831L78.7901-53.3831L73.8342-63.4195C71.8667-67.3544 67.7952-69.7941 63.4-69.7941L38.2852-69.7941C36.8041-69.7941 35.2728-69.0224 34.4005-67.69L24.9872-53.6323C23.5925-51.4779 24.1532-48.5519 26.3196-47.1451C28.4237-45.6761 31.3498-46.2609 32.8189-48.4776L40.7751-60.4934L48.5204-60.4934C49.1555-60.4934 49.5293-59.9206 49.1555-59.3479L41.2112-47.4064C38.7836-43.7206 39.2438-38.803 42.4191-35.6277ZM14.0546-28.7044L32.5576-12.593C35.4717-10.0024 38.671-11.3851 40.128-13.5636L47.4898-24.9368L39.7204-32.7947C39.5958-32.9193 39.5215-32.9937 39.3969-33.1183L34.5251-23.3507L20.2303-35.8147C18.3131-37.4706 15.3247-37.346 13.6064-35.3665C11.9002-33.399 12.0871-30.4227 14.0546-28.7044ZM37.3386 10.929L70.4615 10.929C75.4534 10.929 79.2089 9.94642 82.3197 7.29583C83.1612 6.62922 83.1109 5.7134 82.6147 5.09484C82.1448 4.49054 81.2192 4.25782 80.3176 4.87413C77.7008 6.8799 74.9211 7.80245 70.4615 7.80245L37.3386 7.80245C32.9292 7.80245 30.1495 6.8799 27.5327 4.87413C26.6672 4.28184 25.7776 4.41622 25.2957 4.97247C24.7394 5.54074 24.6531 6.56692 25.4804 7.29583C28.5911 9.94642 32.397 10.929 37.3386 10.929ZM37.3386 22.1439C39.4547 22.1439 41.197 20.4016 41.197 18.2975C41.197 16.1814 39.4547 14.4391 37.3386 14.4391C35.2728 14.4391 33.5425 16.1814 33.5425 18.2975C33.5425 20.4016 35.2728 22.1439 37.3386 22.1439ZM70.4615 22.1439C72.5776 22.1439 74.3078 20.4016 74.3078 18.2975C74.3078 16.1814 72.5776 14.4391 70.4615 14.4391C68.3453 14.4391 66.603 16.1814 66.603 18.2975C66.603 20.4016 68.3453 22.1439 70.4615 22.1439Z"/>
  </g>
  <g id="Ultralight-M" transform="matrix(1 0 0 1 504.634 1126)">
   <path d="M72.9403-71.487C78.3645-71.487 82.7292-75.8517 82.7292-81.2764C82.7292-86.7007 78.3645-91.0654 72.9403-91.0654C67.5155-91.0654 63.1513-86.7007 63.1513-81.2764C63.1513-75.8517 67.5155-71.487 72.9403-71.487ZM41.8279-35.4539L58.5997-18.6198L58.5997 7.69211L67.7033 7.69211L67.7033-19.9914C67.7033-21.3006 67.4532-22.5475 66.5182-23.7322L55.2954-38.0724L64.8356-52.7253C65.4591-53.7222 66.7683-53.7222 67.329-52.6007L70.5091-46.1783C71.2576-44.6817 72.8784-43.6221 74.6242-43.6221L93.0798-43.6221C95.636-43.6221 97.6937-45.6794 97.6937-48.236C97.6937-50.7922 95.636-52.8499 93.0798-52.8499L77.4919-52.8499L72.6287-62.7008C70.696-66.5662 66.7056-68.9363 62.4032-68.9363L37.7752-68.9363C36.3405-68.9363 34.8439-68.1878 33.9716-66.8786L24.7438-53.0991C23.3723-50.9795 23.933-48.1114 26.053-46.7394C28.1108-45.3052 30.9789-45.8667 32.4132-48.0487L40.2071-59.8327L47.8134-59.8327C48.4368-59.8327 48.8107-59.2715 48.4368-58.7104L40.6433-46.9891C38.2736-43.3729 38.7106-38.5712 41.8279-35.4539ZM14.0198-28.658L32.1635-12.8827C35.0312-10.327 38.1494-11.6981 39.5833-13.8186L46.8754-25.0991L39.2684-32.8295C39.1438-32.9541 39.081-33.0168 38.9564-33.1414L34.0962-23.4202L20.068-35.6408C18.1972-37.262 15.2668-37.1374 13.5833-35.2042C11.9002-33.2715 12.0871-30.3415 14.0198-28.658ZM36.8402 9.88582L69.6848 9.88582C74.5492 9.88582 78.1078 8.94957 81.1026 6.39171C81.7934 5.88738 81.7315 5.13383 81.2933 4.63119C80.9161 4.18916 80.2223 4.06077 79.5294 4.50321C76.9126 6.49738 74.1097 7.43153 69.6848 7.43153L36.8402 7.43153C32.4772 7.43153 29.6743 6.49738 27.0575 4.50321C26.3658 4.06161 25.6733 4.12644 25.2957 4.56678C24.8554 5.00754 24.7922 5.82508 25.4224 6.39171C28.4173 8.94957 32.0377 9.88582 36.8402 9.88582ZM36.8402 21.1007C38.8983 21.1007 40.5827 19.4163 40.5827 17.3586C40.5827 15.3004 38.8983 13.6161 36.8402 13.6161C34.8439 13.6161 33.16 15.3004 33.16 17.3586C33.16 19.4163 34.8439 21.1007 36.8402 21.1007ZM69.6848 21.1007C71.743 21.1007 73.4269 19.4163 73.4269 17.3586C73.4269 15.3004 71.743 13.6161 69.6848 13.6161C67.6267 13.6161 65.9423 15.3004 65.9423 17.3586C65.9423 19.4163 67.6267 21.1007 69.6848 21.1007Z"/>
  </g>
  <g id="Black-S" transform="matrix(1 0 0 1 2884.01 696)">
   <path d="M65.5762-68.2129C70.9473-68.2129 75.3418-72.6074 75.3418-77.9785C75.3418-83.3496 70.9473-87.7441 65.5762-87.7441C60.2051-87.7441 55.8105-83.3496 55.8105-77.9785C55.8105-72.6074 60.2051-68.2129 65.5762-68.2129ZM36.7188-33.6914L51.5625-18.75L51.5625 2.7832L61.8652 2.7832L61.8652-20.3613C61.8652-21.7285 61.4746-23.0957 60.5469-24.3164L50.7812-36.7676L58.9844-49.3164C59.2285-49.6582 59.6191-49.6582 59.7656-49.3164L62.5488-43.6523C63.4277-41.8945 65.2344-40.8691 67.1387-40.8691L83.8867-40.8691C86.7188-40.8691 89.0137-43.1152 89.0137-45.9961C89.0137-48.8281 86.7188-51.123 83.8867-51.123L70.3125-51.123L66.2109-59.4727C64.3555-63.2812 60.3027-65.7715 56.0059-65.7715L33.7402-65.7715C32.0801-65.7715 30.3223-64.8438 29.3945-63.4277L21.0449-50.8789C19.5312-48.584 20.166-45.3613 22.5098-43.7988C24.8535-42.1875 28.0762-42.8711 29.6875-45.2637L36.4746-55.4688L41.6016-55.4688C41.8945-55.4688 42.0898-55.2734 41.8945-54.9805L35.498-45.4102C33.0566-41.748 33.5938-36.8164 36.7188-33.6914ZM11.5723-27.4902L27.9785-13.1348C31.1035-10.4004 34.668-11.8652 36.1816-14.209L41.3086-22.168L33.252-30.2246C33.1055-30.3711 32.959-30.5176 32.8125-30.7129L30.0293-25L18.3105-35.2539C16.2109-37.0605 12.9395-36.9629 11.0352-34.7656C9.17969-32.6172 9.42383-29.3945 11.5723-27.4902ZM32.9102 6.64062L60.9375 6.64062C65.7227 6.64062 69.9707 5.56641 73.1445 2.7832C75.3418 0.927734 75-1.5625 73.584-3.02734C72.3145-4.3457 70.166-4.83398 68.1641-3.27148C66.2109-1.75781 64.502-1.17188 60.9375-1.17188L32.9102-1.17188C29.3457-1.17188 27.6367-1.75781 25.6836-3.27148C23.6816-4.83398 21.5332-4.3457 20.2637-3.02734C18.8477-1.5625 18.5547 0.927734 20.7031 2.7832C23.877 5.56641 28.125 6.64062 32.9102 6.64062ZM32.9102 17.5293C35.3516 17.5293 37.3047 15.5762 37.3047 13.1348C37.3047 10.6934 35.3516 8.74023 32.9102 8.74023C30.4688 8.74023 28.5156 10.6934 28.5156 13.1348C28.5156 15.5762 30.4688 17.5293 32.9102 17.5293ZM60.9375 17.5293C63.3789 17.5293 65.332 15.5762 65.332 13.1348C65.332 10.6934 63.3789 8.74023 60.9375 8.74023C58.4961 8.74023 56.543 10.6934 56.543 13.1348C56.543 15.5762 58.4961 17.5293 60.9375 17.5293Z"/>
  </g>
  <g id="Heavy-S" transform="matrix(1 0 0 1 2587.92 696)">
   <path d="M64.781-67.8787C69.9907-67.8787 74.247-72.1349 74.247-77.3562C74.247-82.5659 69.9907-86.8222 64.781-86.8222C59.5597-86.8222 55.315-82.5659 55.315-77.3562C55.315-72.1349 59.5597-67.8787 64.781-67.8787ZM36.373-34.2676L51.1361-19.4184L51.1361 2.42594L60.8857 2.42594L60.8857-20.926C60.8857-22.2356 60.5181-23.5336 59.6249-24.7082L49.8708-37.1479L58.1085-49.7543C58.4218-50.1999 58.9853-50.1999 59.2009-49.7313L61.9841-44.0787C62.8169-42.4247 64.5199-41.4338 66.332-41.4338L82.9071-41.4338C85.5894-41.4338 87.769-43.5647 87.769-46.2957C87.769-48.9779 85.5894-51.1576 82.9071-51.1576L69.3329-51.1576L65.2083-59.5418C63.3989-63.2352 59.4845-65.6447 55.3144-65.6447L33.2677-65.6447C31.6882-65.6447 30.0342-64.7746 29.164-63.4277L20.8951-51.0172C19.4621-48.8375 20.0508-45.7877 22.2793-44.3059C24.4963-42.7752 27.546-43.4243 29.0767-45.6901L35.8638-55.8952L41.325-55.8952C41.6756-55.8952 41.8939-55.6307 41.6756-55.2916L35.1984-45.5945C32.8377-42.0592 33.3517-37.2889 36.373-34.2676ZM11.4685-28.1471L27.7135-13.93C30.6771-11.3339 34.0572-12.718 35.5017-14.9581L40.8361-23.2167L33.1137-30.9276C32.9787-31.0626 32.8437-31.1975 32.7088-31.3698L29.672-25.1613L17.8611-35.4959C15.8652-37.2104 12.7666-37.1127 10.966-35.0307C9.21426-32.9975 9.43535-29.9477 11.4685-28.1471ZM32.4492 6.13355L60.2115 6.13355C64.8929 6.13355 68.9911 5.0939 72.0843 2.4029C74.0395 0.731818 73.7784-1.4703 72.5583-2.79685C71.4271-4.04607 69.4284-4.54587 67.5648-3.09862C65.5886-1.5619 63.7874-0.95291 60.2115-0.95291L32.4492-0.95291C28.8732-0.95291 27.072-1.5619 25.0958-3.09862C23.2668-4.52282 21.3027-4.06912 20.16-2.866C18.8822-1.53945 18.6238 0.720294 20.5764 2.4029C23.6695 5.0939 27.7677 6.13355 32.4492 6.13355ZM32.4492 16.5267C34.7523 16.5267 36.6132 14.6657 36.6132 12.3742C36.6132 10.071 34.7523 8.21011 32.4492 8.21011C30.1461 8.21011 28.2967 10.071 28.2967 12.3742C28.2967 14.6657 30.1461 16.5267 32.4492 16.5267ZM60.2115 16.5267C62.5146 16.5267 64.364 14.6657 64.364 12.3742C64.364 10.071 62.5146 8.21011 60.2115 8.21011C57.9083 8.21011 56.0474 10.071 56.0474 12.3742C56.0474 14.6657 57.9083 16.5267 60.2115 16.5267Z"/>
  </g>
  <g id="Bold-S" transform="matrix(1 0 0 1 2291.91 696)">
   <path d="M63.8916-67.5049C68.9209-67.5049 73.0225-71.6064 73.0225-76.6602C73.0225-81.6895 68.9209-85.791 63.8916-85.791C58.8379-85.791 54.7607-81.6895 54.7607-76.6602C54.7607-71.6064 58.8379-67.5049 63.8916-67.5049ZM35.9863-34.9121L50.6592-20.166L50.6592 2.02637L59.79 2.02637L59.79-21.5576C59.79-22.8027 59.4482-24.0234 58.5938-25.1465L48.8525-37.5732L57.1289-50.2441C57.5195-50.8057 58.2764-50.8057 58.5693-50.1953L61.3525-44.5557C62.1338-43.0176 63.7207-42.0654 65.4297-42.0654L81.8115-42.0654C84.3262-42.0654 86.377-44.0674 86.377-46.6309C86.377-49.1455 84.3262-51.1963 81.8115-51.1963L68.2373-51.1963L64.0869-59.6191C62.3291-63.1836 58.5693-65.5029 54.541-65.5029L32.7393-65.5029C31.25-65.5029 29.7119-64.6973 28.9062-63.4277L20.7275-51.1719C19.3848-49.1211 19.9219-46.2646 22.0215-44.873C24.0967-43.4326 26.9531-44.043 28.3936-46.167L35.1807-56.3721L41.0156-56.3721C41.4307-56.3721 41.6748-56.0303 41.4307-55.6396L34.8633-45.8008C32.5928-42.4072 33.0811-37.8174 35.9863-34.9121ZM11.3525-28.8818L27.417-14.8193C30.2002-12.3779 33.374-13.6719 34.7412-15.7959L40.3076-24.3896L32.959-31.7139C32.8369-31.8359 32.7148-31.958 32.5928-32.1045L29.2725-25.3418L17.3584-35.7666C15.4785-37.3779 12.5732-37.2803 10.8887-35.3271C9.25293-33.4229 9.44824-30.5664 11.3525-28.8818ZM31.9336 5.56641L59.3994 5.56641C63.9648 5.56641 67.8955 4.56543 70.8984 1.97754C72.583 0.512695 72.4121-1.36719 71.4111-2.53906C70.4346-3.71094 68.6035-4.22363 66.8945-2.90527C64.8926-1.34277 62.9883-0.708008 59.3994-0.708008L31.9336-0.708008C28.3447-0.708008 26.4404-1.34277 24.4385-2.90527C22.8027-4.1748 21.0449-3.75977 20.0439-2.68555C18.9209-1.51367 18.7012 0.488281 20.4346 1.97754C23.4375 4.56543 27.3682 5.56641 31.9336 5.56641ZM31.9336 15.4053C34.082 15.4053 35.8398 13.6475 35.8398 11.5234C35.8398 9.375 34.082 7.61719 31.9336 7.61719C29.7852 7.61719 28.0518 9.375 28.0518 11.5234C28.0518 13.6475 29.7852 15.4053 31.9336 15.4053ZM59.3994 15.4053C61.5479 15.4053 63.2812 13.6475 63.2812 11.5234C63.2812 9.375 61.5479 7.61719 59.3994 7.61719C57.251 7.61719 55.4932 9.375 55.4932 11.5234C55.4932 13.6475 57.251 15.4053 59.3994 15.4053Z"/>
  </g>
  <g id="Semibold-S" transform="matrix(1 0 0 1 1995.68 696)">
   <path d="M63.2784-67.2472C68.1833-67.2472 72.1782-71.2421 72.1782-76.1803C72.1782-81.0852 68.1833-85.0801 63.2784-85.0801C58.3402-85.0801 54.3786-81.0852 54.3786-76.1803C54.3786-71.2421 58.3402-67.2472 63.2784-67.2472ZM35.7197-35.3564L50.3304-20.6814L50.3304 1.75088L59.0347 1.75088L59.0347-21.9931C59.0347-23.1938 58.7106-24.3611 57.8828-25.4486L48.1505-37.8665L56.4535-50.5818C56.8975-51.2233 57.7876-51.2233 58.1339-50.5152L60.9171-44.8845C61.6628-43.4264 63.1697-42.5009 64.8076-42.5009L81.0562-42.5009C83.4553-42.5009 85.4172-44.414 85.4172-46.8619C85.4172-49.261 83.4553-51.2229 81.0562-51.2229L67.4819-51.2229L63.3138-59.6725C61.5915-63.148 57.9384-65.4052 54.0078-65.4052L32.3749-65.4052C30.9479-65.4052 29.4897-64.6439 28.7285-63.4277L20.612-51.2785C19.3314-49.3166 19.833-46.5935 21.8438-45.2641C23.8212-43.8858 26.5443-44.4695 27.9226-46.4958L34.7097-56.7009L40.8023-56.7009C41.2618-56.7009 41.5237-56.3058 41.2618-55.8796L34.6322-45.943C32.4239-42.6472 32.8944-38.1817 35.7197-35.3564ZM11.2726-29.3884L27.2126-15.4325C29.8714-13.0978 32.903-14.3295 34.2169-16.3735L39.9433-25.1983L32.8523-32.256C32.7392-32.3691 32.626-32.4823 32.5128-32.611L28.997-25.4662L17.0118-35.9532C15.2119-37.4935 12.4399-37.3958 10.8354-35.5315C9.27959-33.7161 9.45713-30.993 11.2726-29.3884ZM31.5781 5.17539L58.8396 5.17539C63.325 5.17539 67.1401 4.20107 70.0809 1.68428C71.5788 0.361621 71.4701-1.29609 70.6202-2.36133C69.7503-3.47988 68.0348-4.00146 66.4324-2.77197C64.4127-1.1917 62.4373-0.53916 58.8396-0.53916L31.5781-0.53916C27.9804-0.53916 26.005-1.1917 23.9853-2.77197C22.4828-3.93486 20.8672-3.54648 19.964-2.56113C18.9476-1.4959 18.7545 0.32832 20.3368 1.68428C23.2775 4.20107 27.0927 5.17539 31.5781 5.17539ZM31.5781 14.6321C33.6199 14.6321 35.3066 12.9454 35.3066 10.9369C35.3066 8.89512 33.6199 7.2084 31.5781 7.2084C29.5363 7.2084 27.8829 8.89512 27.8829 10.9369C27.8829 12.9454 29.5363 14.6321 31.5781 14.6321ZM58.8396 14.6321C60.8813 14.6321 62.5348 12.9454 62.5348 10.9369C62.5348 8.89512 60.8813 7.2084 58.8396 7.2084C56.7978 7.2084 55.111 8.89512 55.111 10.9369C55.111 12.9454 56.7978 14.6321 58.8396 14.6321Z"/>
  </g>
  <g id="Medium-S" transform="matrix(1 0 0 1 1699.33 696)">
   <path d="M62.8135-67.0518C67.624-67.0518 71.5381-70.9658 71.5381-75.8164C71.5381-80.627 67.624-84.541 62.8135-84.541C57.9629-84.541 54.0889-80.627 54.0889-75.8164C54.0889-70.9658 57.9629-67.0518 62.8135-67.0518ZM35.5176-35.6934L50.0811-21.0723L50.0811 1.54199L58.4619 1.54199L58.4619-22.3232C58.4619-23.4902 58.1514-24.6172 57.3438-25.6777L47.6182-38.0889L55.9414-50.8379C56.4258-51.54 57.417-51.54 57.8037-50.7578L60.5869-45.1338C61.3057-43.7363 62.752-42.8311 64.3359-42.8311L80.4834-42.8311C82.7949-42.8311 84.6895-44.6768 84.6895-47.0371C84.6895-49.3486 82.7949-51.2432 80.4834-51.2432L66.9092-51.2432L62.7275-59.7129C61.0322-63.1211 57.46-65.3311 53.6035-65.3311L32.0986-65.3311C30.7188-65.3311 29.3213-64.6035 28.5938-63.4277L20.5244-51.3594C19.291-49.4648 19.7656-46.8428 21.709-45.5605C23.6123-44.2295 26.2344-44.793 27.5654-46.7451L34.3525-56.9502L40.6406-56.9502C41.1338-56.9502 41.4092-56.5146 41.1338-56.0615L34.457-46.0508C32.2959-42.8291 32.7529-38.458 35.5176-35.6934ZM11.2119-29.7725L27.0576-15.8975C29.6221-13.6436 32.5459-14.8281 33.8193-16.8115L39.667-25.8115L32.7715-32.667C32.665-32.7734 32.5586-32.8799 32.4521-32.9951L28.7881-25.5605L16.749-36.0947C15.0098-37.5811 12.3389-37.4834 10.7949-35.6865C9.2998-33.9385 9.46387-31.3164 11.2119-29.7725ZM31.3086 4.87891L58.415 4.87891C62.8398 4.87891 66.5674 3.9248 69.4609 1.46191C70.8174 0.24707 70.7559-1.24219 70.0205-2.22656C69.2314-3.30469 67.6035-3.83301 66.082-2.6709C64.0488-1.07715 62.0195-0.411133 58.415-0.411133L31.3086-0.411133C27.7041-0.411133 25.6748-1.07715 23.6416-2.6709C22.2402-3.75293 20.7324-3.38477 19.9033-2.4668C18.9678-1.48242 18.7949 0.207031 20.2627 1.46191C23.1562 3.9248 26.8838 4.87891 31.3086 4.87891ZM31.3086 14.0459C33.2695 14.0459 34.9023 12.4131 34.9023 10.4922C34.9023 8.53125 33.2695 6.89844 31.3086 6.89844C29.3477 6.89844 27.7549 8.53125 27.7549 10.4922C27.7549 12.4131 29.3477 14.0459 31.3086 14.0459ZM58.415 14.0459C60.376 14.0459 61.9688 12.4131 61.9688 10.4922C61.9688 8.53125 60.376 6.89844 58.415 6.89844C56.4541 6.89844 54.8213 8.53125 54.8213 10.4922C54.8213 12.4131 56.4541 14.0459 58.415 14.0459Z"/>
  </g>
  <g id="Regular-S" transform="matrix(1 0 0 1 1403.09 696)">
   <path d="M62.207-66.7969C66.8945-66.7969 70.7031-70.6055 70.7031-75.3418C70.7031-80.0293 66.8945-83.8379 62.207-83.8379C57.4707-83.8379 53.7109-80.0293 53.7109-75.3418C53.7109-70.6055 57.4707-66.7969 62.207-66.7969ZM35.2539-36.1328L49.7559-21.582L49.7559 1.26953L57.7148 1.26953L57.7148-22.7539C57.7148-23.877 57.4219-24.9512 56.6406-25.9766L46.9238-38.3789L55.2734-51.1719C55.8105-51.9531 56.9336-51.9531 57.373-51.0742L60.1562-45.459C60.8398-44.1406 62.207-43.2617 63.7207-43.2617L79.7363-43.2617C81.9336-43.2617 83.7402-45.0195 83.7402-47.2656C83.7402-49.4629 81.9336-51.2695 79.7363-51.2695L66.1621-51.2695L61.9629-59.7656C60.3027-63.0859 56.8359-65.2344 53.0762-65.2344L31.7383-65.2344C30.4199-65.2344 29.1016-64.5508 28.418-63.4277L20.4102-51.4648C19.2383-49.6582 19.6777-47.168 21.5332-45.9473C23.3398-44.6777 25.8301-45.2148 27.0996-47.0703L33.8867-57.2754L40.4297-57.2754C40.9668-57.2754 41.2598-56.7871 40.9668-56.2988L34.2285-46.1914C32.1289-43.0664 32.5684-38.8184 35.2539-36.1328ZM11.1328-30.2734L26.8555-16.5039C29.2969-14.3555 32.0801-15.4785 33.3008-17.3828L39.3066-26.6113L32.666-33.2031C32.5684-33.3008 32.4707-33.3984 32.373-33.4961L28.5156-25.6836L16.4062-36.2793C14.7461-37.6953 12.207-37.5977 10.7422-35.8887C9.32617-34.2285 9.47266-31.7383 11.1328-30.2734ZM30.957 4.49219L57.8613 4.49219C62.207 4.49219 65.8203 3.56445 68.6523 1.17188C69.8242 0.0976562 69.8242-1.17188 69.2383-2.05078C68.5547-3.07617 67.041-3.61328 65.625-2.53906C63.5742-0.927734 61.4746-0.244141 57.8613-0.244141L30.957-0.244141C27.3438-0.244141 25.2441-0.927734 23.1934-2.53906C21.9238-3.51562 20.5566-3.17383 19.8242-2.34375C18.9941-1.46484 18.8477 0.0488281 20.166 1.17188C22.998 3.56445 26.6113 4.49219 30.957 4.49219ZM30.957 13.2812C32.8125 13.2812 34.375 11.7188 34.375 9.91211C34.375 8.05664 32.8125 6.49414 30.957 6.49414C29.1016 6.49414 27.5879 8.05664 27.5879 9.91211C27.5879 11.7188 29.1016 13.2812 30.957 13.2812ZM57.8613 13.2812C59.7168 13.2812 61.2305 11.7188 61.2305 9.91211C61.2305 8.05664 59.7168 6.49414 57.8613 6.49414C56.0059 6.49414 54.4434 8.05664 54.4434 9.91211C54.4434 11.7188 56.0059 13.2812 57.8613 13.2812Z"/>
  </g>
  <g id="Light-S" transform="matrix(1 0 0 1 1107.5 696)">
   <path d="M60.6328-65.813C65.1841-65.813 68.8716-69.5005 68.8716-74.0855C68.8716-78.6367 65.1841-82.3242 60.6328-82.3242C56.0479-82.3242 52.3941-78.6367 52.3941-74.0855C52.3941-69.5005 56.0479-65.813 60.6328-65.813ZM34.4819-35.9058L48.5601-21.7788L48.5601 0.376472L56.2617 0.376472L56.2617-22.9204C56.2617-24.0132 55.999-25.0571 55.2329-26.0522L45.8037-38.0913L53.8809-50.4756C54.4028-51.2568 55.4956-51.2568 55.9351-50.3779L58.6275-44.9443C59.2808-43.6714 60.6177-42.8076 62.086-42.8076L77.6172-42.8076C79.7539-42.8076 81.5-44.52 81.5-46.6904C81.5-48.8272 79.7539-50.5732 77.6172-50.5732L64.4668-50.5732L60.3887-58.8272C58.7739-62.0566 55.4131-64.1143 51.7744-64.1143L31.0723-64.1143C29.8145-64.1143 28.5415-63.4609 27.8579-62.3682L20.0923-50.7686C18.9507-49.0073 19.3901-46.5928 21.1851-45.4175C22.9312-44.1934 25.3457-44.7002 26.5698-46.5103L33.145-56.4126L39.5064-56.4126C40.0283-56.4126 40.3213-55.9395 40.0283-55.4663L33.4868-45.6465C31.4629-42.6123 31.8721-38.5156 34.4819-35.9058ZM11.0874-30.2129L26.3408-16.8823C28.7217-14.7793 31.3989-15.8872 32.5894-17.7158L38.5044-26.8232L32.0757-33.2485C31.978-33.3462 31.8955-33.4287 31.7979-33.5264L27.9556-25.7744L16.1943-36.0522C14.5947-37.4229 12.1313-37.3252 10.7119-35.6768C9.32617-34.062 9.47266-31.6323 11.0874-30.2129ZM30.3062 3.12989L56.8472 3.12989C61.0264 3.12989 64.3823 2.26271 67.063-0.00877976C68.0381-0.871086 68.023-1.9287 67.5127-2.65625C66.9502-3.46972 65.7393-3.8706 64.5957-3.02343C62.5449-1.42724 60.415-0.728512 56.8472-0.728512L30.3062-0.728512C26.7534-0.728512 24.6235-1.42724 22.5728-3.02343C21.5303-3.80322 20.4204-3.55224 19.8242-2.87353C19.1455-2.16113 19.0293-0.919914 20.0903-0.00877976C22.771 2.26271 26.1421 3.12989 30.3062 3.12989ZM30.3062 11.919C32.0859 11.919 33.5728 10.4321 33.5728 8.68604C33.5728 6.90626 32.0859 5.41944 30.3062 5.41944C28.5415 5.41944 27.0884 6.90626 27.0884 8.68604C27.0884 10.4321 28.5415 11.919 30.3062 11.919ZM56.8472 11.919C58.627 11.919 60.0801 10.4321 60.0801 8.68604C60.0801 6.90626 58.627 5.41944 56.8472 5.41944C55.0674 5.41944 53.5806 6.90626 53.5806 8.68604C53.5806 10.4321 55.0674 11.919 56.8472 11.919Z"/>
  </g>
  <g id="Thin-S" transform="matrix(1 0 0 1 812.271 696)">
   <path d="M58.5508-64.5117C62.9219-64.5117 66.4493-68.0391 66.4493-72.4239C66.4493-76.7949 62.9219-80.3223 58.5508-80.3223C54.166-80.3223 50.6524-76.7949 50.6524-72.4239C50.6524-68.0391 54.166-64.5117 58.5508-64.5117ZM33.461-35.6055L46.9785-22.0391L46.9785-0.804671L54.3399-0.804671L54.3399-23.1406C54.3399-24.1934 54.1172-25.1973 53.3711-26.1523L44.3223-37.7109L52.0391-49.5547C52.541-50.336 53.5938-50.336 54.0332-49.457L56.6055-44.2637C57.2188-43.0508 58.5157-42.207 59.9239-42.207L74.8145-42.207C76.8711-42.207 78.5372-43.8594 78.5372-45.9297C78.5372-47.9863 76.8711-49.6524 74.8145-49.6524L62.2246-49.6524L58.3067-57.586C56.752-60.6953 53.5313-62.6328 50.0528-62.6328L30.1914-62.6328C29.0137-62.6328 27.8008-62.0196 27.1172-60.9668L19.6719-49.8477C18.5703-48.1465 19.0098-45.832 20.7246-44.7168C22.3906-43.5527 24.7051-44.0195 25.8692-45.7695L32.1641-55.2715L38.2852-55.2715C38.7871-55.2715 39.0801-54.8184 38.7871-54.3652L32.5059-44.9258C30.582-42.0117 30.9512-38.1152 33.461-35.6055ZM11.0273-30.1328L25.6602-17.3828C27.9609-15.3398 30.4981-16.4277 31.6485-18.1562L37.4434-27.1035L31.2949-33.3086C31.1973-33.4062 31.1348-33.4687 31.0371-33.5664L27.2149-25.8945L15.9141-35.752C14.3945-37.0625 12.0313-36.9648 10.6719-35.3965C9.32617-33.8418 9.47266-31.4922 11.0273-30.1328ZM29.4453 1.32815L55.5059 1.32815C59.4649 1.32815 62.4805 0.541039 64.961-1.57029C65.6758-2.15233 65.6407-2.92967 65.2305-3.45702C64.8282-3.99023 64.0176-4.21093 63.2344-3.66405C61.1836-2.08788 59.0137-1.36913 55.5059-1.36913L29.4453-1.36913C25.9727-1.36913 23.8027-2.08788 21.752-3.66405C21.0098-4.18359 20.2402-4.05273 19.8242-3.57421C19.3457-3.08202 19.2695-2.20115 19.9902-1.57029C22.4707 0.541039 25.5215 1.32815 29.4453 1.32815ZM29.4453 10.1172C31.125 10.1172 32.5117 8.73049 32.5117 7.06448C32.5117 5.38479 31.125 3.99807 29.4453 3.99807C27.8008 3.99807 26.4277 5.38479 26.4277 7.06448C26.4277 8.73049 27.8008 10.1172 29.4453 10.1172ZM55.5059 10.1172C57.1856 10.1172 58.5586 8.73049 58.5586 7.06448C58.5586 5.38479 57.1856 3.99807 55.5059 3.99807C53.8262 3.99807 52.4395 5.38479 52.4395 7.06448C52.4395 8.73049 53.8262 10.1172 55.5059 10.1172Z"/>
  </g>
  <g id="Ultralight-S" transform="matrix(1 0 0 1 516.319 696)">
   <path d="M57.4844-63.8452C61.7632-63.8452 65.2085-67.2906 65.2085-71.5728C65.2085-75.8516 61.7632-79.2969 57.4844-79.2969C53.2022-79.2969 49.7603-75.8516 49.7603-71.5728C49.7603-67.2906 53.2022-63.8452 57.4844-63.8452ZM32.938-35.4517L46.1685-22.1724L46.1685-1.40965L53.3555-1.40965L53.3555-23.2534C53.3555-24.2856 53.1534-25.269 52.4175-26.2036L43.5635-37.5161L51.0957-49.083C51.5874-49.8643 52.6197-49.8643 53.0591-48.9854L55.5699-43.9151C56.1626-42.7329 57.439-41.8994 58.8164-41.8994L73.379-41.8994C75.3946-41.8994 77.0196-43.521 77.0196-45.5401C77.0196-47.5557 75.3946-49.1807 73.379-49.1807L61.0762-49.1807L57.2403-56.9502C55.7163-59.9981 52.5674-61.874 49.1709-61.874L29.7403-61.874C28.6035-61.874 27.4214-61.2813 26.7378-60.249L19.4566-49.376C18.3755-47.7056 18.8149-45.4424 20.4888-44.3579C22.1138-43.2246 24.377-43.6709 25.5103-45.3901L31.6616-54.687L37.6597-54.687C38.1514-54.687 38.4444-54.2442 38.1514-53.8013L32.0034-44.5567C30.1309-41.7041 30.4795-37.9102 32.938-35.4517ZM10.9966-30.0918L25.3115-17.6392C27.5713-15.6269 30.0366-16.7046 31.1665-18.3818L36.8999-27.2471L30.895-33.3394C30.7974-33.437 30.7451-33.4893 30.6475-33.5869L26.8355-25.9561L15.7705-35.5981C14.292-36.8779 11.98-36.7803 10.6514-35.2529C9.32617-33.729 9.47266-31.4204 10.9966-30.0918ZM29.0044 0.405306L54.8189 0.405306C58.6651 0.405306 61.5064-0.34079 63.8843-2.37009C64.4659-2.80857 64.4205-3.44236 64.0616-3.86717C63.7412-4.25683 63.1358-4.38525 62.5371-3.99218C60.4864-2.42626 58.2959-1.69725 54.8189-1.69725L29.0044-1.69725C25.5728-1.69725 23.3823-2.42626 21.3316-3.99218C20.7432-4.37841 20.148-4.30907 19.8242-3.93309C19.4482-3.55369 19.3926-2.8574 19.939-2.37009C22.3169-0.34079 25.2036 0.405306 29.0044 0.405306ZM29.0044 9.19437C30.6328 9.19437 31.9683 7.85892 31.9683 6.23392C31.9683 4.6055 30.6328 3.27004 29.0044 3.27004C27.4214 3.27004 26.0894 4.6055 26.0894 6.23392C26.0894 7.85892 27.4214 9.19437 29.0044 9.19437ZM54.8189 9.19437C56.4473 9.19437 57.7793 7.85892 57.7793 6.23392C57.7793 4.6055 56.4473 3.27004 54.8189 3.27004C53.1905 3.27004 51.855 4.6055 51.855 6.23392C51.855 7.85892 53.1905 9.19437 54.8189 9.19437Z"/>
  </g>
 </g>
</svg>
