<?xml version="1.0" encoding="UTF-8"?>
<!--Generator: Apple Native CoreSVG 175.5-->
<!DOCTYPE svg
PUBLIC "-//W3C//DTD SVG 1.1//EN"
       "http://www.w3.org/Graphics/SVG/1.1/DTD/svg11.dtd">
<svg version="1.1" xmlns="http://www.w3.org/2000/svg" xmlns:xlink="http://www.w3.org/1999/xlink" width="3300" height="2200">
 <!--glyph: "uni101312.medium", point size: 100.0, font version: "18.0d11e1", template writer version: "90"-->
 <g id="Notes">
  <rect height="2200" id="artboard" style="fill:white;opacity:1" width="3300" x="0" y="0"/>
  <line style="fill:none;stroke:black;opacity:1;stroke-width:0.5;" x1="263" x2="3036" y1="292" y2="292"/>
  <text style="stroke:none;fill:black;font-family:sans-serif;font-size:13;font-weight:bold;" transform="matrix(1 0 0 1 263 322)">Weight/Scale Variations</text>
  <text style="stroke:none;fill:black;font-family:sans-serif;font-size:13;text-anchor:middle;" transform="matrix(1 0 0 1 559.711 322)">Ultralight</text>
  <text style="stroke:none;fill:black;font-family:sans-serif;font-size:13;text-anchor:middle;" transform="matrix(1 0 0 1 856.422 322)">Thin</text>
  <text style="stroke:none;fill:black;font-family:sans-serif;font-size:13;text-anchor:middle;" transform="matrix(1 0 0 1 1153.13 322)">Light</text>
  <text style="stroke:none;fill:black;font-family:sans-serif;font-size:13;text-anchor:middle;" transform="matrix(1 0 0 1 1449.84 322)">Regular</text>
  <text style="stroke:none;fill:black;font-family:sans-serif;font-size:13;text-anchor:middle;" transform="matrix(1 0 0 1 1746.56 322)">Medium</text>
  <text style="stroke:none;fill:black;font-family:sans-serif;font-size:13;text-anchor:middle;" transform="matrix(1 0 0 1 2043.27 322)">Semibold</text>
  <text style="stroke:none;fill:black;font-family:sans-serif;font-size:13;text-anchor:middle;" transform="matrix(1 0 0 1 2339.98 322)">Bold</text>
  <text style="stroke:none;fill:black;font-family:sans-serif;font-size:13;text-anchor:middle;" transform="matrix(1 0 0 1 2636.69 322)">Heavy</text>
  <text style="stroke:none;fill:black;font-family:sans-serif;font-size:13;text-anchor:middle;" transform="matrix(1 0 0 1 2933.4 322)">Black</text>
  <line style="fill:none;stroke:black;opacity:1;stroke-width:0.5;" x1="263" x2="3036" y1="1903" y2="1903"/>
  <g transform="matrix(1 0 0 1 263 1933)">
   <path d="M9.24805 0.830078C13.5547 0.830078 17.1387-2.74414 17.1387-7.05078C17.1387-11.3574 13.5449-14.9316 9.23828-14.9316C4.94141-14.9316 1.36719-11.3574 1.36719-7.05078C1.36719-2.74414 4.95117 0.830078 9.24805 0.830078ZM9.24805-0.654297C5.70312-0.654297 2.87109-3.49609 2.87109-7.05078C2.87109-10.6055 5.69336-13.4473 9.23828-13.4473C12.793-13.4473 15.6445-10.6055 15.6445-7.05078C15.6445-3.49609 12.8027-0.654297 9.24805-0.654297ZM5.6543-7.05078C5.6543-6.62109 5.95703-6.32812 6.40625-6.32812L8.50586-6.32812L8.50586-4.20898C8.50586-3.76953 8.79883-3.4668 9.22852-3.4668C9.67773-3.4668 9.9707-3.76953 9.9707-4.20898L9.9707-6.32812L12.0898-6.32812C12.5293-6.32812 12.832-6.62109 12.832-7.05078C12.832-7.49023 12.5293-7.79297 12.0898-7.79297L9.9707-7.79297L9.9707-9.90234C9.9707-10.3516 9.67773-10.6543 9.22852-10.6543C8.79883-10.6543 8.50586-10.3516 8.50586-9.90234L8.50586-7.79297L6.40625-7.79297C5.95703-7.79297 5.6543-7.49023 5.6543-7.05078Z"/>
  </g>
  <g transform="matrix(1 0 0 1 281.867 1933)">
   <path d="M11.709 2.91016C17.1582 2.91016 21.6699-1.61133 21.6699-7.05078C21.6699-12.5 17.1484-17.0117 11.6992-17.0117C6.25977-17.0117 1.74805-12.5 1.74805-7.05078C1.74805-1.61133 6.26953 2.91016 11.709 2.91016ZM11.709 1.25C7.09961 1.25 3.41797-2.44141 3.41797-7.05078C3.41797-11.6602 7.08984-15.3516 11.6992-15.3516C16.3086-15.3516 20.0098-11.6602 20.0098-7.05078C20.0098-2.44141 16.3184 1.25 11.709 1.25ZM7.17773-7.05078C7.17773-6.57227 7.50977-6.25 8.00781-6.25L10.8789-6.25L10.8789-3.36914C10.8789-2.88086 11.2109-2.53906 11.6895-2.53906C12.1777-2.53906 12.5195-2.87109 12.5195-3.36914L12.5195-6.25L15.4004-6.25C15.8887-6.25 16.2305-6.57227 16.2305-7.05078C16.2305-7.53906 15.8887-7.88086 15.4004-7.88086L12.5195-7.88086L12.5195-10.752C12.5195-11.25 12.1777-11.5918 11.6895-11.5918C11.2109-11.5918 10.8789-11.25 10.8789-10.752L10.8789-7.88086L8.00781-7.88086C7.50977-7.88086 7.17773-7.53906 7.17773-7.05078Z"/>
  </g>
  <g transform="matrix(1 0 0 1 305.646 1933)">
   <path d="M14.9707 5.66406C21.9336 5.66406 27.6953-0.0976562 27.6953-7.05078C27.6953-14.0137 21.9238-19.7754 14.9609-19.7754C8.00781-19.7754 2.25586-14.0137 2.25586-7.05078C2.25586-0.0976562 8.01758 5.66406 14.9707 5.66406ZM14.9707 3.84766C8.93555 3.84766 4.08203-1.01562 4.08203-7.05078C4.08203-13.0957 8.92578-17.9492 14.9609-17.9492C21.0059-17.9492 25.8691-13.0957 25.8691-7.05078C25.8691-1.01562 21.0156 3.84766 14.9707 3.84766ZM9.19922-7.05078C9.19922-6.5332 9.57031-6.17188 10.1172-6.17188L14.0625-6.17188L14.0625-2.2168C14.0625-1.67969 14.4336-1.29883 14.9512-1.29883C15.4883-1.29883 15.8594-1.66992 15.8594-2.2168L15.8594-6.17188L19.8145-6.17188C20.3516-6.17188 20.7324-6.5332 20.7324-7.05078C20.7324-7.59766 20.3613-7.96875 19.8145-7.96875L15.8594-7.96875L15.8594-11.9141C15.8594-12.4609 15.4883-12.8418 14.9512-12.8418C14.4336-12.8418 14.0625-12.4609 14.0625-11.9141L14.0625-7.96875L10.1172-7.96875C9.57031-7.96875 9.19922-7.59766 9.19922-7.05078Z"/>
  </g>
  <text style="stroke:none;fill:black;font-family:sans-serif;font-size:13;font-weight:bold;" transform="matrix(1 0 0 1 263 1953)">Design Variations</text>
  <text style="stroke:none;fill:black;font-family:sans-serif;font-size:13;" transform="matrix(1 0 0 1 263 1971)">Symbols are supported in up to nine weights and three scales.</text>
  <text style="stroke:none;fill:black;font-family:sans-serif;font-size:13;" transform="matrix(1 0 0 1 263 1989)">For optimal layout with text and other symbols, vertically align</text>
  <text style="stroke:none;fill:black;font-family:sans-serif;font-size:13;" transform="matrix(1 0 0 1 263 2007)">symbols with the adjacent text.</text>
  <line style="fill:none;stroke:#00AEEF;stroke-width:0.5;opacity:1.0;" x1="776" x2="776" y1="1919" y2="1933"/>
  <g transform="matrix(1 0 0 1 776 1933)">
   <path d="M3.31055 0.15625C3.82812 0.15625 4.08203-0.0390625 4.26758-0.585938L5.52734-4.0332L11.2891-4.0332L12.5488-0.585938C12.7344-0.0390625 12.9883 0.15625 13.4961 0.15625C14.0137 0.15625 14.3457-0.15625 14.3457-0.644531C14.3457-0.810547 14.3164-0.966797 14.2383-1.17188L9.6582-13.3691C9.43359-13.9648 9.0332-14.2676 8.4082-14.2676C7.80273-14.2676 7.39258-13.9746 7.17773-13.3789L2.59766-1.16211C2.51953-0.957031 2.49023-0.800781 2.49023-0.634766C2.49023-0.146484 2.80273 0.15625 3.31055 0.15625ZM6.00586-5.51758L8.37891-12.0898L8.42773-12.0898L10.8008-5.51758Z"/>
  </g>
  <line style="fill:none;stroke:#00AEEF;stroke-width:0.5;opacity:1.0;" x1="793.197" x2="793.197" y1="1919" y2="1933"/>
  <text style="stroke:none;fill:black;font-family:sans-serif;font-size:13;font-weight:bold;" transform="matrix(1 0 0 1 776 1953)">Margins</text>
  <text style="stroke:none;fill:black;font-family:sans-serif;font-size:13;" transform="matrix(1 0 0 1 776 1971)">Leading and trailing margins on the left and right side of each symbol</text>
  <text style="stroke:none;fill:black;font-family:sans-serif;font-size:13;" transform="matrix(1 0 0 1 776 1989)">can be adjusted by modifying the x-location of the margin guidelines.</text>
  <text style="stroke:none;fill:black;font-family:sans-serif;font-size:13;" transform="matrix(1 0 0 1 776 2007)">Modifications are automatically applied proportionally to all</text>
  <text style="stroke:none;fill:black;font-family:sans-serif;font-size:13;" transform="matrix(1 0 0 1 776 2025)">scales and weights.</text>
  <g transform="matrix(1 0 0 1 1289 1933)">
   <path d="M2.8418 1.86523L4.54102 3.57422C5.40039 4.44336 6.38672 4.38477 7.31445 3.35938L18.0078-8.42773L17.041-9.4043L6.42578 2.27539C6.07422 2.67578 5.74219 2.77344 5.27344 2.30469L4.10156 1.14258C3.63281 0.683594 3.74023 0.341797 4.14062-0.0195312L15.6152-10.8203L14.6387-11.7871L3.04688-0.898438C2.06055 0.0195312 1.98242 0.996094 2.8418 1.86523ZM9.25781-16.3281C8.83789-15.918 8.80859-15.3418 9.04297-14.9512C9.27734-14.5898 9.73633-14.3555 10.3809-14.5215C11.8457-14.8633 13.3691-14.9219 14.7949-13.9844L14.209-12.5293C13.8672-11.6992 14.043-11.1133 14.5801-10.5664L16.875-8.25195C17.3633-7.76367 17.7734-7.74414 18.3398-7.8418L19.4043-8.03711L20.0684-7.36328L20.0293-6.80664C19.9902-6.30859 20.1172-5.92773 20.6055-5.44922L21.3672-4.70703C21.8457-4.22852 22.4609-4.19922 22.9297-4.66797L25.8398-7.58789C26.3086-8.05664 26.2891-8.65234 25.8105-9.13086L25.0391-9.89258C24.5605-10.3711 24.1895-10.5273 23.7109-10.4883L23.1348-10.4395L22.4902-11.0742L22.7344-12.1973C22.8613-12.7637 22.7051-13.2031 22.1191-13.7891L19.9219-15.9766C16.582-19.2969 12.1484-19.2188 9.25781-16.3281ZM10.752-15.957C13.1836-17.7344 16.4746-17.4316 18.7012-15.2051L21.1328-12.793C21.3672-12.5586 21.4062-12.373 21.3379-12.0312L21.0156-10.5469L22.5195-9.0625L23.5059-9.12109C23.7598-9.13086 23.8379-9.11133 24.0332-8.91602L24.6094-8.33984L22.168-5.89844L21.5918-6.47461C21.3965-6.66992 21.3672-6.74805 21.377-7.01172L21.4453-7.98828L19.9512-9.47266L18.4277-9.21875C18.1055-9.15039 17.959-9.17969 17.7148-9.41406L15.7129-11.416C15.459-11.6504 15.4297-11.8164 15.5859-12.1875L16.4648-14.2773C14.9023-15.7324 12.8711-16.3574 10.8398-15.7617C10.6836-15.7227 10.625-15.8496 10.752-15.957Z"/>
  </g>
  <text style="stroke:none;fill:black;font-family:sans-serif;font-size:13;font-weight:bold;" transform="matrix(1 0 0 1 1289 1953)">Exporting</text>
  <text style="stroke:none;fill:black;font-family:sans-serif;font-size:13;" transform="matrix(1 0 0 1 1289 1971)">Symbols should be outlined when exporting to ensure the</text>
  <text style="stroke:none;fill:black;font-family:sans-serif;font-size:13;" transform="matrix(1 0 0 1 1289 1989)">design is preserved when submitting to Xcode.</text>
  <text id="template-version" style="stroke:none;fill:black;font-family:sans-serif;font-size:13;text-anchor:end;" transform="matrix(1 0 0 1 3036 1933)">Template v.4.0</text>
  <text style="stroke:none;fill:black;font-family:sans-serif;font-size:13;text-anchor:end;" transform="matrix(1 0 0 1 3036 1951)">Requires Xcode 14 or greater</text>
  <text id="descriptive-name" style="stroke:none;fill:black;font-family:sans-serif;font-size:13;text-anchor:end;" transform="matrix(1 0 0 1 3036 1969)">Generated from figure.dance</text>
  <text style="stroke:none;fill:black;font-family:sans-serif;font-size:13;text-anchor:end;" transform="matrix(1 0 0 1 3036 1987)">Typeset at 100 points</text>
  <text style="stroke:none;fill:black;font-family:sans-serif;font-size:13;" transform="matrix(1 0 0 1 263 726)">Small</text>
  <text style="stroke:none;fill:black;font-family:sans-serif;font-size:13;" transform="matrix(1 0 0 1 263 1156)">Medium</text>
  <text style="stroke:none;fill:black;font-family:sans-serif;font-size:13;" transform="matrix(1 0 0 1 263 1586)">Large</text>
 </g>
 <g id="Guides">
  <g id="H-reference" style="fill:#27AAE1;stroke:none;" transform="matrix(1 0 0 1 339 696)">
   <path d="M0.993654 0L3.63775 0L29.3281-67.1323L30.0303-67.1323L30.0303-70.459L28.1226-70.459ZM11.6885-24.4799L46.9815-24.4799L46.2315-26.7285L12.4385-26.7285ZM55.1196 0L57.7637 0L30.6382-70.459L29.4326-70.459L29.4326-67.1323Z"/>
  </g>
  <line id="Baseline-S" style="fill:none;stroke:#27AAE1;opacity:1;stroke-width:0.5;" x1="263" x2="3036" y1="696" y2="696"/>
  <line id="Capline-S" style="fill:none;stroke:#27AAE1;opacity:1;stroke-width:0.5;" x1="263" x2="3036" y1="625.541" y2="625.541"/>
  <g id="H-reference" style="fill:#27AAE1;stroke:none;" transform="matrix(1 0 0 1 339 1126)">
   <path d="M0.993654 0L3.63775 0L29.3281-67.1323L30.0303-67.1323L30.0303-70.459L28.1226-70.459ZM11.6885-24.4799L46.9815-24.4799L46.2315-26.7285L12.4385-26.7285ZM55.1196 0L57.7637 0L30.6382-70.459L29.4326-70.459L29.4326-67.1323Z"/>
  </g>
  <line id="Baseline-M" style="fill:none;stroke:#27AAE1;opacity:1;stroke-width:0.5;" x1="263" x2="3036" y1="1126" y2="1126"/>
  <line id="Capline-M" style="fill:none;stroke:#27AAE1;opacity:1;stroke-width:0.5;" x1="263" x2="3036" y1="1055.54" y2="1055.54"/>
  <g id="H-reference" style="fill:#27AAE1;stroke:none;" transform="matrix(1 0 0 1 339 1556)">
   <path d="M0.993654 0L3.63775 0L29.3281-67.1323L30.0303-67.1323L30.0303-70.459L28.1226-70.459ZM11.6885-24.4799L46.9815-24.4799L46.2315-26.7285L12.4385-26.7285ZM55.1196 0L57.7637 0L30.6382-70.459L29.4326-70.459L29.4326-67.1323Z"/>
  </g>
  <line id="Baseline-L" style="fill:none;stroke:#27AAE1;opacity:1;stroke-width:0.5;" x1="263" x2="3036" y1="1556" y2="1556"/>
  <line id="Capline-L" style="fill:none;stroke:#27AAE1;opacity:1;stroke-width:0.5;" x1="263" x2="3036" y1="1485.54" y2="1485.54"/>
  <line id="left-margin-Regular-M" style="fill:none;stroke:#00AEEF;stroke-width:0.5;opacity:1.0;" x1="1406.07" x2="1406.07" y1="1030.79" y2="1150.12"/>
  <line id="right-margin-Regular-M" style="fill:none;stroke:#00AEEF;stroke-width:0.5;opacity:1.0;" x1="1493.62" x2="1493.62" y1="1030.79" y2="1150.12"/>
 </g>
 <g id="Symbols">
  <g id="Black-L" transform="matrix(1 0 0 1 2873.74 1556)">
   <path d="M26.9193 44.5312C31.3719 44.5312 34.7671 41.136 34.7671 36.8442L34.7671 5.72285L51.4295-12.007C52.12-12.7571 53.1674-12.6403 53.7203-11.8902L70.1286 9.94948L85.0719 39.7569C89.9642 49.5819 103.82 42.4359 99.1471 33.1482L68.2018-28.8228C65.4711-34.2621 64.1064-41.5696 63.4058-49.0523C63.3034-50.8772 63.7776-51.2426 65.2821-50.4904L77.1443-44.4684L88.2411-22.2153C92.9337-12.8507 107.15-19.2586 102.177-29.2029L89.8624-53.6733C89.1022-55.1925 87.9267-56.4472 86.4076-57.2062L68.8008-66.0107C63.5079-68.6974 57.9374-69.778 53.0818-70.982C47.4243-72.3467 42.6803-73.9759 39.5839-78.5383L31.7367-89.9192L31.7367-112.412C31.7367-116.624 28.1235-120.099 23.9098-120.099C19.618-120.099 16.084-116.624 16.084-112.412L16.084-87.423C16.084-85.6858 16.5797-84.4299 17.4423-83.0496L31.5398-62.8134C32.7449-61.1049 33.3715-60.0178 33.6127-57.3003C34.1745-50.0381 35.7013-36.6932 38.5904-26.7859L20.7491-1.94329C19.6321-0.425337 19.2532 1.1302 19.2532 2.64816L19.2532 36.8442C19.2532 41.136 22.6471 44.5312 26.9193 44.5312ZM58.4173-77.039C66.9226-77.039 73.8854-84.0007 73.8854-92.5475C73.8854-101.074 66.9226-108.016 58.4173-108.016C49.8497-108.016 42.9088-101.074 42.9088-92.5475C42.9088-84.0007 49.8497-77.039 58.4173-77.039Z"/>
  </g>
  <g id="Heavy-L" transform="matrix(1 0 0 1 2577.85 1556)">
   <path d="M26.5168 43.353C30.7681 43.353 34.0122 40.1089 34.0122 36.0184L34.0122 5.18445L50.8663-12.7509C51.4747-13.4095 52.4079-13.3203 52.8969-12.6617L69.3954 9.32008L84.1628 38.7799C88.8307 48.1705 102.046 41.363 97.5834 32.4828L67.0359-28.6927C64.3185-34.0918 62.9625-41.3595 62.2802-48.761C62.164-50.7106 62.8775-51.2507 64.511-50.434L76.2931-44.4474L87.2911-22.4012C91.7781-13.4574 105.335-19.568 100.587-29.059L88.4206-53.236C87.688-54.6956 86.5859-55.8725 85.1263-56.5995L67.7546-65.291C62.5433-67.9369 57.0819-68.9855 52.276-70.1806C46.6771-71.5365 41.9088-73.1751 38.7981-77.7523L31.0089-89.0576L31.0089-111.339C31.0089-115.35 27.5649-118.674 23.5436-118.674C19.4531-118.674 16.084-115.35 16.084-111.339L16.084-86.6711C16.084-85.0117 16.5339-83.8292 17.3827-82.4946L31.2855-62.516C32.4862-60.8026 33.1453-59.6968 33.3866-56.9468C33.9439-49.7563 35.4662-36.5233 38.3333-26.7474L20.6305-2.11995C19.573-0.665969 19.2123 0.802452 19.2123 2.25644L19.2123 36.0184C19.2123 40.1089 22.4508 43.353 26.5168 43.353ZM57.3772-76.4534C65.636-76.4534 72.3937-83.2055 72.3937-91.5246C72.3937-99.8135 65.636-106.541 57.3772-106.541C49.028-106.541 42.3061-99.8135 42.3061-91.5246C42.3061-83.2055 49.028-76.4534 57.3772-76.4534Z"/>
  </g>
  <g id="Bold-L" transform="matrix(1 0 0 1 2282.18 1556)">
   <path d="M26.0397 41.7887C30.0525 41.7887 33.1195 38.7217 33.1195 34.8697L33.1195 4.45638L50.1373-13.6581C50.6457-14.2089 51.4406-14.1505 51.8526-13.5997L68.4067 8.47682L82.929 37.4542C87.3351 46.3292 99.7961 39.9219 95.58 31.519L65.5764-28.5686C62.8818-33.9066 61.5412-41.1057 60.8818-48.3925C60.7502-50.4733 61.7261-51.2063 63.4985-50.3201L75.151-44.3945L86.0037-22.6466C90.2445-14.2029 103.032-19.9596 98.545-28.9195L86.5857-52.6906C85.8839-54.0809 84.8665-55.1655 83.4762-55.854L66.4262-64.3922C61.3224-66.9844 55.9992-67.9946 51.2622-69.1744C45.7474-70.5151 40.9708-72.1615 37.8521-76.7393L30.1545-87.9225L30.1545-109.898C30.1545-113.67 26.9106-116.817 23.1126-116.817C19.2606-116.817 16.084-113.67 16.084-109.898L16.084-85.6668C16.084-84.0997 16.48-83.0019 17.3134-81.7212L30.9556-62.095C32.1486-60.3814 32.8388-59.26 33.08-56.479C33.6297-49.3955 35.1445-36.3307 37.9734-26.731L20.4845-2.42464C19.4963-1.04757 19.1587 0.320719 19.1587 1.69779L19.1587 34.8697C19.1587 38.7217 22.2125 41.7887 26.0397 41.7887ZM56.1013-75.7608C64.0602-75.7608 70.5643-82.2517 70.5643-90.2865C70.5643-98.2834 64.0602-104.75 56.1013-104.75C48.0285-104.75 41.5756-98.2834 41.5756-90.2865C41.5756-82.2517 48.0285-75.7608 56.1013-75.7608Z"/>
  </g>
  <g id="Semibold-L" transform="matrix(1 0 0 1 1986.19 1556)">
   <path d="M25.7108 40.7103C29.5591 40.7103 32.5041 37.7653 32.5041 34.0778L32.5041 3.95445L49.6347-14.2835C50.0743-14.76 50.7737-14.7229 51.1327-14.2463L67.7251 7.89549L82.0785 36.5403C86.3041 45.0598 98.2451 38.9284 94.1988 30.8545L64.5703-28.4831C61.8914-33.7789 60.5613-40.9308 59.9178-48.1384C59.7755-50.3098 60.9322-51.1757 62.8005-50.2416L74.3635-44.358L85.1161-22.8158C89.1873-14.7169 101.444-20.2296 97.1375-28.8233L85.3207-52.3145C84.6402-53.6571 83.6812-54.678 82.3387-55.34L65.5105-63.7726C60.4807-66.3277 55.2528-67.3114 50.5633-68.4808C45.1065-69.8109 40.3242-71.4627 37.2-76.0409L29.5655-87.1399L29.5655-108.905C29.5655-112.512 26.4596-115.537 22.8155-115.537C19.128-115.537 16.084-112.512 16.084-108.905L16.084-84.9744C16.084-83.471 16.4429-82.4315 17.2657-81.188L30.7281-61.8048C31.9159-60.0911 32.6274-58.9589 32.8687-56.1565C33.4132-49.1468 34.9226-36.1979 37.7254-26.7198L20.3838-2.63469C19.4434-1.31064 19.1216-0.0113844 19.1216 1.31266L19.1216 34.0778C19.1216 37.7653 22.0481 40.7103 25.7108 40.7103ZM55.2217-75.2833C62.9739-75.2833 69.3032-81.5942 69.3032-89.4331C69.3032-97.2286 62.9739-103.515 55.2217-103.515C47.3395-103.515 41.072-97.2286 41.072-89.4331C41.072-81.5942 47.3395-75.2833 55.2217-75.2833Z"/>
  </g>
  <g id="Medium-L" transform="matrix(1 0 0 1 1690.03 1556)">
   <path d="M25.4614 39.8926C29.1851 39.8926 32.0375 37.0402 32.0375 33.4773L32.0375 3.57387L49.2537-14.7577C49.641-15.1779 50.2681-15.1569 50.5869-14.7366L67.2083 7.4547L81.4335 35.8473C85.5224 44.0974 97.0691 38.1751 93.1516 30.3507L63.8074-28.4182C61.1405-33.6821 59.8183-40.7981 59.1869-47.9457C59.0365-50.1858 60.3303-51.1525 62.2712-50.1821L73.7665-44.3303L84.4431-22.9441C88.3856-15.1066 100.24-20.4343 96.0702-28.7504L84.3615-52.0294C83.6972-53.3357 82.7824-54.3084 81.4761-54.9503L64.8162-63.3028C59.8424-65.8298 54.6868-66.7934 50.0334-67.9548C44.6206-69.277 39.8339-70.9329 36.7055-75.5113L29.1189-86.5466L29.1189-108.152C29.1189-111.634 26.1175-114.567 22.5902-114.567C19.0274-114.567 16.084-111.634 16.084-108.152L16.084-84.4494C16.084-82.9942 16.4147-81.9991 17.2295-80.7837L30.5556-61.5847C31.7395-59.8709 32.4672-58.7306 32.7085-55.9119C33.2489-48.9582 34.7544-36.0972 37.5373-26.7112L20.3075-2.79396C19.4033-1.51011 19.0936-0.263199 19.0936 1.02065L19.0936 33.4773C19.0936 37.0402 21.9236 39.8926 25.4614 39.8926ZM54.5548-74.9213C62.1502-74.9213 68.3469-81.0956 68.3469-88.7859C68.3469-96.4288 62.1502-102.578 54.5548-102.578C46.817-102.578 40.6902-96.4288 40.6902-88.7859C40.6902-81.0956 46.817-74.9213 54.5548-74.9213Z"/>
  </g>
  <g id="Regular-L" transform="matrix(1 0 0 1 1394.03 1556)">
   <path d="M25.1361 38.8261C28.6972 38.8261 31.4289 36.0943 31.4289 32.6941L31.4289 3.07746L48.7566-15.3762C49.0758-15.723 49.6085-15.723 49.8749-15.3762L66.5341 6.87975L80.5923 34.9434C84.5027 42.842 95.5351 37.1926 91.7856 29.6935L62.8123-28.3336C60.161-33.5558 58.8491-40.6251 58.2334-47.6944C58.0726-50.024 59.5453-51.1222 61.5809-50.1044L72.9877-44.2942L83.5653-23.1114C87.34-15.6149 98.669-20.7013 94.6782-28.6553L83.1105-51.6575C82.4671-52.9166 81.6101-53.8263 80.3511-54.442L63.9105-62.69C59.01-65.1804 53.9486-66.1178 49.3421-67.2688C43.9868-68.5806 39.1943-70.2418 36.0605-74.8206L28.5363-85.7726L28.5363-107.169C28.5363-110.489 25.6714-113.301 22.2963-113.301C18.8961-113.301 16.084-110.489 16.084-107.169L16.084-83.7647C16.084-82.3724 16.378-81.435 17.1822-80.2564L30.3307-61.2977C31.5093-59.5838 32.2582-58.4328 32.4995-55.593C33.0347-48.7122 34.5351-35.9658 37.2919-26.7001L20.208-3.0017C19.351-1.7703 19.057-0.591654 19.057 0.639752L19.057 32.6941C19.057 36.0943 21.761 38.8261 25.1361 38.8261ZM53.6848-74.4491C61.0758-74.4491 67.0996-80.4453 67.0996-87.9418C67.0996-95.3856 61.0758-101.357 53.6848-101.357C46.1355-101.357 40.1921-95.3856 40.1921-87.9418C40.1921-80.4453 46.1355-74.4491 53.6848-74.4491Z"/>
  </g>
  <g id="Light-L" transform="matrix(1 0 0 1 1098.27 1556)">
   <path d="M24.9453 37.0702C28.4109 37.0702 31.0854 34.3958 31.0854 31.091L31.0854 2.18045L48.0505-15.9106C48.3124-16.2192 48.7687-16.2192 48.9969-15.9106L65.3318 5.88731L79.0464 33.2829C82.8805 40.9716 93.6457 35.4749 89.9725 28.1285L61.7053-28.4863C59.1113-33.5939 57.8376-40.4915 57.241-47.389C57.0802-49.6614 58.5147-50.7405 60.5121-49.7418L71.6327-44.0843L81.9622-23.3786C85.6223-16.092 96.7223-21.0258 92.8078-28.8079L81.5264-51.2567C80.883-52.4967 80.0451-53.3683 78.8052-53.9649L62.7845-62.022C57.9985-64.4552 53.0516-65.3735 48.5405-66.4863C43.3188-67.7599 38.6599-69.402 35.5834-73.8663L28.25-84.5512L28.25-105.451C28.25-108.676 25.4615-111.431 22.1436-111.431C18.8389-111.431 16.084-108.676 16.084-105.451L16.084-82.6005C16.084-81.2464 16.3589-80.3281 17.1631-79.1685L30.0062-60.6679C31.1658-58.9921 31.8765-57.8793 32.1177-55.0777C32.6339-48.3877 34.1152-35.9467 36.7766-26.8909L20.1125-3.76511C19.2747-2.57188 18.9997-1.41232 18.9997-0.219086L18.9997 31.091C18.9997 34.3958 21.6274 37.0702 24.9453 37.0702ZM52.8832-74.1819C60.1024-74.1819 65.9545-79.9873 65.9545-87.2738C65.9545-94.5267 60.1024-100.345 52.8832-100.345C45.563-100.345 39.7913-94.5267 39.7913-87.2738C39.7913-79.9873 45.563-74.1819 52.8832-74.1819Z"/>
  </g>
  <g id="Thin-L" transform="matrix(1 0 0 1 802.807 1556)">
   <path d="M24.6929 34.748C28.0323 34.748 30.631 32.1492 30.631 28.9707L30.631 0.994082L47.1165-16.6173C47.3027-16.8755 47.6581-16.8755 47.8358-16.6173L63.7415 4.57474L77.0018 31.0869C80.7349 38.4979 91.1468 33.2031 87.5745 26.0587L60.2413-28.6882C57.723-33.6444 56.4998-40.3148 55.9284-46.9851C55.7676-49.1818 57.1516-50.2357 59.0985-49.2622L69.8405-43.8066L79.8418-23.732C83.3505-16.7231 94.1476-21.4549 90.3341-29.0099L79.4313-50.7266C78.7879-51.9414 77.9753-52.7625 76.7606-53.3338L61.2952-61.1385C56.6606-63.496 51.8652-64.389 47.4804-65.4514C42.4353-66.6745 37.9532-68.2914 34.9523-72.6043L27.8714-82.9357L27.8714-103.18C27.8714-106.278 25.1838-108.957 21.9417-108.957C18.7632-108.957 16.084-106.278 16.084-103.18L16.084-81.0607C16.084-79.7571 16.3337-78.8641 17.1379-77.7298L29.5771-59.8349C30.7114-58.2096 31.3717-57.1473 31.6129-54.3962C32.1039-47.9586 33.5599-35.9215 36.0951-27.1433L19.9863-4.77479C19.1737-3.63203 18.924-2.49772 18.924-1.35497L18.924 28.9707C18.924 32.1492 21.4508 34.748 24.6929 34.748ZM51.8231-73.8285C58.8151-73.8285 64.44-79.3814 64.44-86.3904C64.44-93.3908 58.8151-99.0073 51.8231-99.0073C44.8057-99.0073 39.2612-93.3908 39.2612-86.3904C39.2612-79.3814 44.8057-73.8285 51.8231-73.8285Z"/>
  </g>
  <g id="Ultralight-L" transform="matrix(1 0 0 1 506.736 1556)">
   <path d="M24.5636 33.5585C27.8383 33.5585 30.3983 30.9986 30.3983 27.8847L30.3983 0.386432L46.6382-16.9793C46.7855-17.2116 47.0892-17.2116 47.2411-16.9793L62.927 3.90245L75.9546 29.9621C79.636 37.2309 89.8668 32.0395 86.3463 24.9985L59.4914-28.7916C57.0119-33.6703 55.8146-40.2243 55.2561-46.7783C55.0953-48.9361 56.4534-49.9771 58.3745-49.0166L68.9226-43.6644L78.7558-23.913C82.1869-17.0463 92.8289-21.6747 89.0671-29.1133L78.3582-50.4551C77.7149-51.6569 76.9152-52.4522 75.7133-53.0106L60.5324-60.686C55.9754-63.0047 51.2576-63.8848 46.9374-64.9213C41.9828-66.1186 37.5912-67.7225 34.6291-71.9578L27.6775-82.1083L27.6775-102.016C27.6775-105.049 25.0416-107.69 21.8383-107.69C18.7244-107.69 16.084-105.049 16.084-102.016L16.084-80.2721C16.084-78.9943 16.3208-78.1142 17.125-76.9928L29.3573-59.4083C30.4787-57.8089 31.1131-56.7724 31.3543-54.0471C31.8324-47.7388 33.2754-35.9086 35.746-27.2726L19.9217-5.29193C19.122-4.17504 18.8852-3.05365 18.8852-1.93676L18.8852 27.8847C18.8852 30.9986 21.3603 33.5585 24.5636 33.5585ZM51.2801-73.6475C58.1557-73.6475 63.6643-79.0712 63.6643-85.9379C63.6643-92.809 58.1557-98.3221 51.2801-98.3221C44.4179-98.3221 38.9897-92.809 38.9897-85.9379C38.9897-79.0712 44.4179-73.6475 51.2801-73.6475Z"/>
  </g>
  <g id="Black-M" transform="matrix(1 0 0 1 2886.6 1126)">
   <path d="M21.1756 27.3392C24.7853 27.3392 27.5378 24.5867 27.5378 21.1016L27.5378-3.16082L40.2329-16.6711C40.8307-17.3257 41.73-17.2116 42.2081-16.5569L54.7987 0.179009L66.4806 23.4803C70.4534 31.4371 81.7027 25.6305 77.9116 18.1054L53.6908-30.3984C51.5716-34.6316 50.5119-40.3039 49.9561-46.1475C49.8885-47.4465 50.0452-47.5768 51.0947-47.052L60.3148-42.3769L68.9632-25.0233C72.7601-17.435 84.3099-22.6342 80.2748-30.7047L70.6446-49.8403C70.032-51.0658 69.0608-52.0995 67.8353-52.7124L54.0495-59.6051C49.8942-61.7138 45.5002-62.576 41.7086-63.5111C37.2934-64.5709 33.6569-65.8224 31.278-69.3288L25.1746-78.1749L25.1746-95.7157C25.1746-99.1384 22.2401-101.953 18.8179-101.953C15.3328-101.953 12.4609-99.1384 12.4609-95.7157L12.4609-76.1544C12.4609-74.7469 12.8817-73.7135 13.5619-72.6073L24.6098-56.7701C25.5446-55.4559 25.9969-54.635 26.1839-52.5628C26.6203-46.9006 27.8043-36.5068 30.0487-28.7469L16.1642-9.39288C15.2502-8.16705 14.9436-6.88962 14.9436-5.66379L14.9436 21.1016C14.9436 24.5867 17.6963 27.3392 21.1756 27.3392ZM46.0437-68.0882C52.8216-68.0882 58.3691-73.6359 58.3691-80.4248C58.3691-87.2083 52.8216-92.7503 46.0437-92.7503C39.2492-92.7503 33.707-87.2083 33.707-80.4248C33.707-73.6359 39.2492-68.0882 46.0437-68.0882Z"/>
  </g>
  <g id="Heavy-M" transform="matrix(1 0 0 1 2590.61 1126)">
   <path d="M20.7997 26.3493C24.2214 26.3493 26.8315 23.7393 26.8315 20.4422L26.8315-3.60438L39.7475-17.349C40.2703-17.9177 41.065-17.8305 41.4842-17.2618L54.1929-0.344714L65.7345 22.6784C69.495 30.2299 80.1425 24.7401 76.5503 17.5993L52.6532-30.2572C50.5417-34.4616 49.487-40.1108 48.9472-45.891C48.8663-47.3171 49.2603-47.62 50.4395-47.0304L59.6078-42.3757L68.1825-25.1804C71.7889-17.984 82.7151-22.9068 78.8924-30.55L69.3813-49.4497C68.7957-50.6188 67.8945-51.58 66.7254-52.1634L53.1306-58.9631C49.0446-61.0373 44.7467-61.8699 40.9948-62.7999C36.6245-63.8546 32.952-65.1171 30.5539-68.6485L24.4894-77.4453L24.4894-94.8253C24.4894-98.0601 21.7134-100.732 18.474-100.732C15.1769-100.732 12.4609-98.0601 12.4609-94.8253L12.4609-75.5268C12.4609-74.1918 12.8387-73.2283 13.5054-72.1651L24.3911-56.5375C25.3234-55.215 25.8111-54.3722 25.998-52.2646C26.4318-46.655 27.6133-36.3426 29.8449-28.6916L16.0571-9.49515C15.1995-8.32834 14.9089-7.13431 14.9089-5.9675L14.9089 20.4422C14.9089 23.7393 17.5167 26.3493 20.7997 26.3493ZM45.1008-67.5403C51.6536-67.5403 57.0164-72.9008 57.0164-79.4865C57.0164-86.0557 51.6536-91.402 45.1008-91.402C38.4988-91.402 33.1547-86.0557 33.1547-79.4865C33.1547-72.9008 38.4988-67.5403 45.1008-67.5403Z"/>
  </g>
  <g id="Bold-M" transform="matrix(1 0 0 1 2294.69 1126)">
   <path d="M20.3792 25.2421C23.5907 25.2421 26.0414 22.7913 26.0414 19.7045L26.0414-4.10057L39.2045-18.1074C39.6434-18.58 40.3211-18.5229 40.6743-18.0503L53.5153-0.930574L64.8999 21.7814C68.4228 28.8794 78.3972 23.7441 75.0275 17.0331L51.4925-30.0992C49.3895-34.2713 48.3406-39.8949 47.8187-45.604C47.7227-47.1723 48.3823-47.6683 49.7065-47.0062L58.8168-42.3744L67.3092-25.3561C70.7024-18.5982 80.9311-23.2116 77.3459-30.3769L67.9682-49.0128C67.4127-50.1188 66.5897-50.9989 65.4838-51.5493L52.1027-58.245C48.0941-60.2804 43.9038-61.08 40.1964-62.0044C35.8762-63.0533 32.1634-64.328 29.7438-67.8875L23.723-76.6291L23.723-93.8293C23.723-96.8538 21.1242-99.3669 18.0894-99.3669C15.0025-99.3669 12.4609-96.8538 12.4609-93.8293L12.4609-74.8248C12.4609-73.5708 12.7907-72.6856 13.4423-71.6705L24.1465-56.2773C25.076-54.9454 25.6031-54.0782 25.79-51.9312C26.221-46.3803 27.3997-36.1588 29.617-28.6298L15.9373-9.60956C15.1428-8.50876 14.8702-7.40803 14.8702-6.30723L14.8702 19.7045C14.8702 22.7913 17.3158 25.2421 20.3792 25.2421ZM44.0462-66.9275C50.3471-66.9275 55.5033-72.0785 55.5033-78.4367C55.5033-84.7663 50.3471-89.8938 44.0462-89.8938C37.6593-89.8938 32.5369-84.7663 32.5369-78.4367C32.5369-72.0785 37.6593-66.9275 44.0462-66.9275Z"/>
  </g>
  <g id="Semibold-M" transform="matrix(1 0 0 1 1998.53 1126)">
   <path d="M20.0893 24.4788C23.1558 24.4788 25.4967 22.1378 25.4967 19.1959L25.4967-4.44265L38.8302-18.6303C39.2112-19.0365 39.8083-19.0002 40.116-18.5939L53.0482-1.33446L64.3245 21.163C67.6837 27.9483 77.194 23.0575 73.9777 16.6428L50.6923-29.9903C48.5952-34.1402 47.5502-39.746 47.0408-45.4062C46.9343-47.0725 47.7771-47.7016 49.2012-46.9895L58.2716-42.3735L66.7071-25.4772C69.9534-19.0216 79.7012-23.4218 76.2798-30.2576L66.994-48.7116C66.4593-49.774 65.6902-50.5983 64.6278-51.1259L51.394-57.7499C47.4388-59.7587 43.3227-60.5355 39.6459-61.4559C35.3604-62.5009 31.6198-63.784 29.1853-67.3629L23.1946-76.0665L23.1946-93.1426C23.1946-96.0222 20.718-98.4255 17.8242-98.4255C14.8823-98.4255 12.4609-96.0222 12.4609-93.1426L12.4609-74.3408C12.4609-73.1427 12.7575-72.3114 13.3987-71.3295L23.9779-56.0979C24.9054-54.7596 25.4598-53.8756 25.6467-51.7013C26.0757-46.1909 27.2524-36.0322 29.4598-28.5871L15.8547-9.68843C15.1038-8.63314 14.8435-7.59674 14.8435-6.54145L14.8435 19.1959C14.8435 22.1378 17.1773 24.4788 20.0893 24.4788ZM43.3191-66.505C49.4464-66.505 54.4601-71.5116 54.4601-77.713C54.4601-83.8774 49.4464-88.8541 43.3191-88.8541C37.0806-88.8541 32.1111-83.8774 32.1111-77.713C32.1111-71.5116 37.0806-66.505 43.3191-66.505Z"/>
  </g>
  <g id="Medium-M" transform="matrix(1 0 0 1 1702.24 1126)">
   <path d="M19.8695 23.9C22.8261 23.9 25.0837 21.6423 25.0837 18.8103L25.0837-4.70202L38.5464-19.0267C38.8835-19.3827 39.4195-19.3621 39.6926-19.0061L52.694-1.64071L63.8882 20.6941C67.1232 27.2424 76.2817 22.5368 73.1816 16.3469L50.0855-29.9077C47.993-34.0407 46.951-39.6331 46.4509-45.2562C46.3365-46.9968 47.3181-47.7268 48.8181-46.9769L57.8581-42.3728L66.2506-25.569C69.3855-19.3426 78.7687-23.5812 75.4714-30.1672L66.2553-48.4832C65.7363-49.5126 65.0082-50.2945 63.9788-50.8049L50.8567-57.3745C46.942-59.363 42.8821-60.1227 39.2286-61.04C34.9692-62.082 31.2076-63.3715 28.7618-66.9651L22.794-75.6399L22.794-92.622C22.794-95.3917 20.4101-97.7116 17.6232-97.7116C14.7912-97.7116 12.4609-95.3917 12.4609-92.622L12.4609-73.9738C12.4609-72.8182 12.7324-72.0277 13.3657-71.0709L23.8501-55.9619C24.7761-54.6187 25.3511-53.7219 25.538-51.527C25.9655-46.0473 27.1407-35.9361 29.3407-28.5548L15.792-9.74824C15.0742-8.72745 14.8233-7.73982 14.8233-6.71904L14.8233 18.8103C14.8233 21.6423 17.0723 23.9 19.8695 23.9ZM42.7678-66.1847C48.7635-66.1847 53.6691-71.0818 53.6691-77.1643C53.6691-83.2034 48.7635-88.0657 42.7678-88.0657C36.6418-88.0657 31.7881-83.2034 31.7881-77.1643C31.7881-71.0818 36.6418-66.1847 42.7678-66.1847Z"/>
  </g>
  <g id="Regular-M" transform="matrix(1 0 0 1 1406.07 1126)">
   <path d="M19.5828 23.145C22.396 23.145 24.545 20.996 24.545 18.3074L24.545-5.04033L38.1762-19.5438C38.4561-19.8342 38.9123-19.8342 39.1404-19.5438L52.232-2.04016L63.3192 20.0825C66.3922 26.3216 75.0918 21.8577 72.1434 15.9609L49.2941-29.7999C47.2074-33.911 46.1693-39.4858 45.6814-45.0606C45.5568-46.8981 46.7195-47.7598 48.3183-46.9604L57.3188-42.3719L65.6551-25.6888C68.6447-19.7613 77.5523-23.789 74.417-30.0492L65.2918-48.1854C64.7934-49.1717 64.1186-49.8982 63.1323-50.3861L50.1558-56.8849C46.2939-58.847 42.3074-59.5841 38.6842-60.4976C34.459-61.5357 30.67-62.8335 28.2095-66.4462L22.2714-75.0834L22.2714-91.9429C22.2714-94.5692 20.0084-96.7805 17.3609-96.7805C14.6723-96.7805 12.4609-94.5692 12.4609-91.9429L12.4609-73.4952C12.4609-72.3948 12.6996-71.6577 13.3227-70.7336L23.6833-55.7845C24.6073-54.4349 25.2093-53.5215 25.3962-51.2996C25.8218-45.86 26.995-35.8108 29.1852-28.5126L15.7103-9.82624C15.0355-8.85047 14.7969-7.92645 14.7969-6.95068L14.7969 18.3074C14.7969 20.996 16.9353 23.145 19.5828 23.145ZM42.0487-65.7668C47.8726-65.7668 52.6374-70.5211 52.6374-76.4486C52.6374-82.3243 47.8726-87.0374 42.0487-87.0374C36.0694-87.0374 31.3669-82.3243 31.3669-76.4486C31.3669-70.5211 36.0694-65.7668 42.0487-65.7668Z"/>
  </g>
  <g id="Light-M" transform="matrix(1 0 0 1 1110.2 1126)">
   <path d="M19.4117 21.5708C22.1394 21.5708 24.237 19.4731 24.237 16.87L24.237-5.84455L37.5431-20.0229C37.7716-20.2791 38.1594-20.2791 38.3533-20.0229L51.154-2.92993L61.9332 18.5939C64.9378 24.6447 73.3978 20.3177 70.5178 14.5578L48.3017-29.9368C46.2663-33.9453 45.2624-39.366 44.7917-44.7868C44.667-46.573 45.7955-47.4176 47.3601-46.6353L56.104-42.1837L64.2178-25.9284C67.1048-20.1891 75.807-24.0799 72.7401-30.186L63.8716-47.826C63.3732-48.7952 62.7155-49.4876 61.7463-49.9584L49.1463-56.286C45.387-58.1968 41.5032-58.9168 37.9655-59.796C33.8602-60.7999 30.1909-62.0806 27.7817-65.5906L22.0148-73.9883L22.0148-90.4029C22.0148-92.9437 19.8201-95.1037 17.224-95.1037C14.6209-95.1037 12.4609-92.9437 12.4609-90.4029L12.4609-72.4514C12.4609-71.3852 12.6825-70.6652 13.3055-69.7583L23.3924-55.2199C24.2994-53.9045 24.8671-53.0252 25.054-50.8376C25.4625-45.5691 26.6186-35.7937 28.7232-28.6837L15.6248-10.5107C14.9671-9.56913 14.7455-8.66222 14.7455-7.72067L14.7455 16.87C14.7455 19.4731 16.8155 21.5708 19.4117 21.5708ZM41.33-65.5273C47-65.5273 51.6108-70.1104 51.6108-75.8497C51.6108-81.5543 47-86.1305 41.33-86.1305C35.5561-86.1305 31.0076-81.5543 31.0076-75.8497C31.0076-70.1104 35.5561-65.5273 41.33-65.5273Z"/>
  </g>
  <g id="Thin-M" transform="matrix(1 0 0 1 814.613 1126)">
   <path d="M19.1854 19.4888C21.7999 19.4888 23.8297 17.459 23.8297 14.9691L23.8297-6.90818L36.7058-20.6565C36.8664-20.8675 37.1637-20.8675 37.3123-20.6565L49.7282-4.10672L60.1001 16.625C63.0142 22.4269 71.1574 18.281 68.3679 12.7021L46.9891-30.1179C45.0216-33.9905 44.063-39.2076 43.6149-44.4247C43.4903-46.143 44.5735-46.9649 46.0928-46.2053L54.4972-41.9348L62.3168-26.2452C65.068-20.7549 73.4987-24.4646 70.5223-30.3671L61.9933-47.3508C61.4949-48.2974 60.8598-48.9444 59.9132-49.3926L47.8111-55.494C44.1876-57.3368 40.4396-58.0342 37.0151-58.8682C33.0681-59.8268 29.5572-61.0849 27.2159-64.4591L21.6753-72.54L21.6753-88.3661C21.6753-90.7938 19.5712-92.8859 17.043-92.8859C14.553-92.8859 12.4609-90.7938 12.4609-88.3661L12.4609-71.0709C12.4609-70.05 12.6599-69.3527 13.2829-68.4684L23.0077-54.4731C23.892-53.2029 24.4145-52.369 24.6014-50.2266C24.9872-45.1844 26.1207-35.7711 28.1122-28.9101L15.5116-11.4159C14.8766-10.5196 14.6776-9.63533 14.6776-8.73904L14.6776 14.9691C14.6776 17.459 16.6571 19.4888 19.1854 19.4888ZM40.3795-65.2105C45.8458-65.2105 50.253-69.5673 50.253-75.0576C50.253-80.536 45.8458-84.9311 40.3795-84.9311C34.8772-84.9311 30.5323-80.536 30.5323-75.0576C30.5323-69.5673 34.8772-65.2105 40.3795-65.2105Z"/>
  </g>
  <g id="Ultralight-M" transform="matrix(1 0 0 1 518.476 1126)">
   <path d="M19.0694 18.4224C21.626 18.4224 23.6211 16.4274 23.6211 13.9954L23.6211-7.45297L36.2769-20.9811C36.4028-21.1688 36.6537-21.1688 36.7791-20.9811L48.998-4.70946L59.1612 15.6166C62.0289 21.2909 70.0098 17.2378 67.2667 11.7516L46.3168-30.2106C44.3841-34.0137 43.4487-39.1265 43.0121-44.2393C42.8875-45.9227 43.9475-46.7331 45.4437-45.985L53.6742-41.8073L61.3432-26.4075C64.0248-21.0447 72.3164-24.6617 69.3864-30.4598L61.0312-47.1074C60.5328-48.0424 59.9093-48.6663 58.9743-49.1028L47.1272-55.0883C43.5733-56.8964 39.8948-57.5821 36.5282-58.3929C32.6624-59.3283 29.2327-60.5749 26.9261-63.8795L21.5014-71.7981L21.5014-87.3229C21.5014-89.6926 19.4437-91.7499 16.9502-91.7499C14.5183-91.7499 12.4609-89.6926 12.4609-87.3229L12.4609-70.3639C12.4609-69.3661 12.6483-68.6804 13.2713-67.8077L22.8107-54.0905C23.6834-52.8436 24.1826-52.0328 24.3695-49.9136C24.7438-44.9873 25.8657-35.7595 27.7993-29.026L15.4537-11.8796C14.8302-11.0064 14.6429-10.1338 14.6429-9.26065L14.6429 13.9954C14.6429 16.4274 16.576 18.4224 19.0694 18.4224ZM39.8927-65.0482C45.2547-65.0482 49.5575-69.2891 49.5575-74.6519C49.5575-80.0143 45.2547-84.3167 39.8927-84.3167C34.5294-84.3167 30.2889-80.0143 30.2889-74.6519C30.2889-69.2891 34.5294-65.0482 39.8927-65.0482Z"/>
  </g>
  <g id="Black-S" transform="matrix(1 0 0 1 2896.56 696)">
   <path d="M16.6992 14.0137C19.5801 14.0137 21.7773 11.8164 21.7773 9.0332L21.7773-10.0098L31.6406-20.5078C32.1289-21.0449 32.8613-20.9473 33.252-20.4102L43.0664-7.37305L52.2461 10.9375C55.4199 17.2852 64.4043 12.6465 61.377 6.64062L42.334-31.4941C40.6738-34.8145 39.8438-39.2578 39.4043-43.8477C39.3555-44.8242 39.4043-44.873 40.1855-44.4824L47.4121-40.8203L54.1992-27.1973C57.2266-21.1426 66.4551-25.293 63.2324-31.7383L55.6641-46.7773C55.1758-47.7539 54.3945-48.584 53.418-49.0723L42.5781-54.4922C39.3066-56.1523 35.8398-56.8359 32.8613-57.5684C29.3945-58.3984 26.5625-59.375 24.707-62.1094L19.9219-69.043L19.9219-82.8125C19.9219-85.5469 17.5781-87.793 14.8438-87.793C12.0605-87.793 9.76562-85.5469 9.76562-82.8125L9.76562-67.4316C9.76562-66.3086 10.1074-65.4785 10.6445-64.5996L19.3359-52.1484C20.0684-51.123 20.4102-50.4883 20.5566-48.877C20.8984-44.4336 21.8262-36.2793 23.584-30.1758L12.6953-14.9902C11.9629-14.0137 11.7188-12.9883 11.7188-12.0117L11.7188 9.0332C11.7188 11.8164 13.916 14.0137 16.6992 14.0137ZM36.3281-61.1328C41.6992-61.1328 46.0938-65.5273 46.0938-70.8984C46.0938-76.2695 41.6992-80.6641 36.3281-80.6641C30.957-80.6641 26.5625-76.2695 26.5625-70.8984C26.5625-65.5273 30.957-61.1328 36.3281-61.1328Z"/>
  </g>
  <g id="Heavy-S" transform="matrix(1 0 0 1 2600.35 696)">
   <path d="M16.3996 13.3683C19.1306 13.3683 21.2126 11.2863 21.2126 8.6529L21.2126-10.2864L31.3064-21.0264C31.7371-21.4944 32.3888-21.4198 32.7334-20.9518L42.6861-7.70726L51.7851 10.4419C54.7861 16.4669 63.2864 12.0818 60.4204 6.38709L41.5734-31.3558C39.9132-34.6646 39.0831-39.108 38.6552-43.6633C38.5949-44.7551 38.8511-44.9537 39.7476-44.5055L46.9627-40.8434L53.7152-27.301C56.5927-21.5575 65.3142-25.4889 62.2644-31.5885L54.7652-46.4892C54.2999-47.4197 53.5763-48.1922 52.6458-48.6574L41.9212-54.0197C38.6958-55.6568 35.2982-56.3173 32.3427-57.0498C28.899-57.8798 26.0209-58.8679 24.1423-61.6369L19.3687-68.5589L19.3687-82.2478C19.3687-84.8324 17.1517-86.9632 14.5672-86.9632C11.9338-86.9632 9.76562-84.8324 9.76562-82.2478L9.76562-67.0283C9.76562-65.9629 10.0728-65.1904 10.5984-64.3461L19.1861-52.0217C19.9185-50.9848 20.2949-50.3269 20.4414-48.681C20.7832-44.2607 21.7109-36.141 23.4687-30.1066L12.6146-14.9902C11.9283-14.0598 11.6957-13.1035 11.6957-12.1731L11.6957 8.6529C11.6957 11.2863 13.7777 13.3683 16.3996 13.3683ZM35.6136-60.6949C40.8118-60.6949 45.0681-64.9511 45.0681-70.1724C45.0681-75.3821 40.8118-79.6269 35.6136-79.6269C30.3808-79.6269 26.1361-75.3821 26.1361-70.1724C26.1361-64.9511 30.3808-60.6949 35.6136-60.6949Z"/>
  </g>
  <g id="Bold-S" transform="matrix(1 0 0 1 2304.2 696)">
   <path d="M16.0645 12.6465C18.6279 12.6465 20.5811 10.6934 20.5811 8.22754L20.5811-10.5957L30.9326-21.6064C31.2988-21.9971 31.8604-21.9482 32.1533-21.5576L42.2607-8.08105L51.2695 9.8877C54.0771 15.5518 62.0361 11.4502 59.3506 6.10352L40.7227-31.2012C39.0625-34.4971 38.2324-38.9404 37.8174-43.457C37.7441-44.6777 38.2324-45.0439 39.2578-44.5312L46.46-40.8691L53.1738-27.417C55.8838-22.0215 64.0381-25.708 61.1816-31.4209L53.7598-46.167C53.3203-47.0459 52.6611-47.7539 51.7822-48.1934L41.1865-53.4912C38.0127-55.1025 34.6924-55.7373 31.7627-56.4697C28.3447-57.2998 25.415-58.3008 23.5107-61.1084L18.75-68.0176L18.75-81.6162C18.75-84.0332 16.6748-86.0352 14.2578-86.0352C11.792-86.0352 9.76562-84.0332 9.76562-81.6162L9.76562-66.5771C9.76562-65.5762 10.0342-64.8682 10.5469-64.0625L19.0186-51.8799C19.751-50.8301 20.166-50.1465 20.3125-48.4619C20.6543-44.0674 21.582-35.9863 23.3398-30.0293L12.5244-14.9902C11.8896-14.1113 11.6699-13.2324 11.6699-12.3535L11.6699 8.22754C11.6699 10.6934 13.623 12.6465 16.0645 12.6465ZM34.8145-60.2051C39.8193-60.2051 43.9209-64.3066 43.9209-69.3604C43.9209-74.3896 39.8193-78.4668 34.8145-78.4668C29.7363-78.4668 25.6592-74.3896 25.6592-69.3604C25.6592-64.3066 29.7363-60.2051 34.8145-60.2051Z"/>
  </g>
  <g id="Semibold-S" transform="matrix(1 0 0 1 2007.87 696)">
   <path d="M15.8334 12.1488C18.2813 12.1488 20.1456 10.2846 20.1456 7.93428L20.1456-10.809L30.6749-22.0063C30.9967-22.3437 31.496-22.3126 31.7534-21.9753L41.9675-8.33877L50.9141 9.50557C53.5884 14.9208 61.1741 11.0147 58.613 5.90801L40.1361-31.0945C38.476-34.3815 37.6459-38.8249 37.2397-43.3148C37.1576-44.6244 37.8059-45.1062 38.9201-44.549L46.1134-40.8869L52.8006-27.497C55.395-22.3414 63.1583-25.8591 60.4352-31.3054L53.0666-45.9448C52.6449-46.7882 52.0302-47.4518 51.1868-47.8734L40.68-53.1269C37.5417-54.7204 34.2747-55.3374 31.3628-56.0698C27.9626-56.8999 24.9974-57.9098 23.0753-60.744L18.3234-67.6443L18.3234-81.1808C18.3234-83.4822 16.346-85.3953 14.0445-85.3953C11.6942-85.3953 9.76562-83.4822 9.76562-81.1808L9.76562-66.2661C9.76562-65.3096 10.0075-64.646 10.5113-63.867L18.903-51.7821C19.6354-50.7234 20.0771-50.0221 20.2236-48.3108C20.5654-43.9341 21.4932-35.8797 23.251-29.976L12.4622-14.9902C11.863-14.1469 11.6521-13.3213 11.6521-12.4779L11.6521 7.93428C11.6521 10.2846 13.5164 12.1488 15.8334 12.1488ZM34.2635-59.8674C39.1351-59.8674 43.13-63.8623 43.13-68.8005C43.13-73.7054 39.1351-77.667 34.2635-77.667C29.292-77.667 25.3304-73.7054 25.3304-68.8005C25.3304-63.8623 29.292-59.8674 34.2635-59.8674Z"/>
  </g>
  <g id="Medium-S" transform="matrix(1 0 0 1 1711.46 696)">
   <path d="M15.6582 11.7715C18.0186 11.7715 19.8154 9.97461 19.8154 7.71191L19.8154-10.9707L30.4795-22.3096C30.7676-22.6064 31.2197-22.5889 31.4502-22.292L41.7451-8.53418L50.6445 9.21582C53.2178 14.4424 60.5205 10.6846 58.0537 5.75977L39.6914-31.0137C38.0312-34.2939 37.2012-38.7373 36.8018-43.207C36.7129-44.584 37.4824-45.1533 38.6641-44.5625L45.8506-40.9004L52.5176-27.5576C55.0244-22.584 62.4912-25.9736 59.8691-31.2178L52.541-45.7764C52.1328-46.5928 51.5518-47.2227 50.7354-47.6309L40.2959-52.8506C37.1846-54.4307 33.958-55.0342 31.0596-55.7666C27.6729-56.5967 24.6807-57.6133 22.7451-60.4678L18-67.3613L18-80.8506C18-83.0645 16.0967-84.9102 13.8828-84.9102C11.6201-84.9102 9.76562-83.0645 9.76562-80.8506L9.76562-66.0303C9.76562-65.1074 9.9873-64.4775 10.4844-63.7188L18.8154-51.708C19.5479-50.6426 20.0098-49.9277 20.1562-48.1963C20.498-43.833 21.4258-35.7988 23.1836-29.9355L12.415-14.9902C11.8428-14.1738 11.6387-13.3887 11.6387-12.5723L11.6387 7.71191C11.6387 9.97461 13.4355 11.7715 15.6582 11.7715ZM33.8457-59.6113C38.6162-59.6113 42.5303-63.5254 42.5303-68.376C42.5303-73.1865 38.6162-77.0605 33.8457-77.0605C28.9551-77.0605 25.0811-73.1865 25.0811-68.376C25.0811-63.5254 28.9551-59.6113 33.8457-59.6113Z"/>
  </g>
  <g id="Regular-S" transform="matrix(1 0 0 1 1415.13 696)">
   <path d="M15.4297 11.2793C17.6758 11.2793 19.3848 9.57031 19.3848 7.42188L19.3848-11.1816L30.2246-22.7051C30.4688-22.9492 30.8594-22.9492 31.0547-22.7051L41.4551-8.78906L50.293 8.83789C52.7344 13.8184 59.668 10.2539 57.3242 5.56641L39.1113-30.9082C37.4512-34.1797 36.6211-38.623 36.2305-43.0664C36.1328-44.5312 37.0605-45.2148 38.3301-44.5801L45.5078-40.918L52.1484-27.6367C54.541-22.9004 61.6211-26.123 59.1309-31.1035L51.8555-45.5566C51.4648-46.3379 50.9277-46.9238 50.1465-47.3145L39.7949-52.4902C36.7188-54.0527 33.5449-54.6387 30.6641-55.3711C27.2949-56.2012 24.2676-57.2266 22.3145-60.1074L17.5781-66.9922L17.5781-80.4199C17.5781-82.5195 15.7715-84.2773 13.6719-84.2773C11.5234-84.2773 9.76562-82.5195 9.76562-80.4199L9.76562-65.7227C9.76562-64.8438 9.96094-64.2578 10.4492-63.5254L18.7012-51.6113C19.4336-50.5371 19.9219-49.8047 20.0684-48.0469C20.4102-43.7012 21.3379-35.6934 23.0957-29.8828L12.3535-14.9902C11.8164-14.209 11.6211-13.4766 11.6211-12.6953L11.6211 7.42188C11.6211 9.57031 13.3301 11.2793 15.4297 11.2793ZM33.3008-59.2773C37.9395-59.2773 41.748-63.0859 41.748-67.8223C41.748-72.5098 37.9395-76.2695 33.3008-76.2695C28.5156-76.2695 24.7559-72.5098 24.7559-67.8223C24.7559-63.0859 28.5156-59.2773 33.3008-59.2773Z"/>
  </g>
  <g id="Light-S" transform="matrix(1 0 0 1 1119.17 696)">
   <path d="M15.2783 9.88673C17.4487 9.88673 19.1123 8.22316 19.1123 6.1504L19.1123-11.8931L29.6646-23.1289C29.8633-23.3428 30.1934-23.3428 30.3584-23.1289L40.5015-9.57617L49.0669 7.52101C51.4478 12.335 58.1694 8.89161 55.8862 4.32521L38.2334-31.0293C36.6187-34.21 35.8189-38.5171 35.4434-42.8242C35.3457-44.2437 36.2432-44.9121 37.4824-44.2925L44.4331-40.7515L50.877-27.8486C53.1787-23.2788 60.0772-26.3804 57.6475-31.2246L50.5991-45.2388C50.2085-46.0049 49.6865-46.5605 48.9204-46.936L38.9019-51.9605C35.9165-53.4775 32.8335-54.0483 30.0283-54.7505C26.7651-55.5503 23.8438-56.5606 21.936-59.3506L17.3511-66.0234L17.3511-79.0576C17.3511-81.0816 15.605-82.794 13.5508-82.794C11.478-82.794 9.76562-81.0816 9.76562-79.0576L9.76562-64.7993C9.76562-63.9507 9.9458-63.3799 10.4341-62.6626L18.4438-51.1118C19.1611-50.0679 19.6191-49.3657 19.7656-47.6382C20.0923-43.4438 21.0049-35.6782 22.687-30.0342L12.2778-15.5957C11.7559-14.8447 11.5757-14.1274 11.5757-13.3765L11.5757 6.1504C11.5757 8.22316 13.2241 9.88673 15.2783 9.88673ZM32.665-59.0654C37.1675-59.0654 40.8399-62.7227 40.8399-67.2925C40.8399-71.8286 37.1675-75.4673 32.665-75.4673C28.0615-75.4673 24.438-71.8286 24.438-67.2925C24.438-62.7227 28.0615-59.0654 32.665-59.0654Z"/>
  </g>
  <g id="Thin-S" transform="matrix(1 0 0 1 823.446 696)">
   <path d="M15.0781 8.04495C17.1484 8.04495 18.752 6.44143 18.752 4.46877L18.752-12.834L28.9238-23.6894C29.0625-23.8633 29.3125-23.8633 29.4375-23.6894L39.2403-10.6172L47.4453 5.77932C49.7461 10.3731 56.1875 7.08987 53.9844 2.68362L37.0723-31.1895C35.5176-34.25 34.7578-38.377 34.4024-42.5039C34.3047-43.8633 35.1621-44.5117 36.3613-43.9121L43.0117-40.5313L49.1953-28.1289C51.377-23.7793 58.0352-26.7207 55.6856-31.3848L48.9375-44.8184C48.5469-45.5645 48.0449-46.0801 47.2989-46.4356L37.7207-51.2598C34.8555-52.7168 31.8926-53.2676 29.1875-53.9297C26.0645-54.6895 23.2832-55.6797 21.4356-58.3496L17.0508-64.7422L17.0508-77.2559C17.0508-79.1797 15.3848-80.8321 13.3906-80.8321C11.418-80.8321 9.76562-79.1797 9.76562-77.2559L9.76562-63.5781C9.76562-62.7695 9.92578-62.2188 10.4141-61.5215L18.1035-50.4512C18.8008-49.4473 19.2188-48.7852 19.3652-47.0977C19.6719-43.1035 20.5645-35.6582 22.1465-30.2344L12.1777-16.3965C11.6758-15.6855 11.5156-14.9883 11.5156-14.2773L11.5156 4.46877C11.5156 6.44143 13.084 8.04495 15.0781 8.04495ZM31.8242-58.7852C36.1465-58.7852 39.6387-62.2422 39.6387-66.5918C39.6387-70.9277 36.1465-74.4063 31.8242-74.4063C27.4609-74.4063 24.0176-70.9277 24.0176-66.5918C24.0176-62.2422 27.4609-58.7852 31.8242-58.7852Z"/>
  </g>
  <g id="Ultralight-S" transform="matrix(1 0 0 1 527.242 696)">
   <path d="M14.9756 7.1016C16.9946 7.1016 18.5674 5.52884 18.5674 3.60745L18.5674-13.3159L28.5444-23.9766C28.6524-24.1299 28.8613-24.1299 28.9658-23.9766L38.5943-11.1504L46.6148 4.88724C48.8745 9.3682 55.1724 6.16702 53.0103 1.8428L36.4776-31.2715C34.9536-34.2705 34.2144-38.3052 33.8692-42.3398C33.7715-43.6685 34.6084-44.3066 35.7871-43.7173L42.2837-40.4185L48.334-28.2725C50.4541-24.0356 56.9893-26.895 54.6807-31.4668L48.0865-44.603C47.6958-45.3389 47.2041-45.834 46.4683-46.1792L37.1157-50.9009C34.312-52.3272 31.4107-52.8677 28.7569-53.5093C25.7056-54.2486 22.9961-55.2285 21.1792-57.8369L16.897-64.086L16.897-76.333C16.897-78.2056 15.272-79.8272 13.3086-79.8272C11.3872-79.8272 9.76562-78.2056 9.76562-76.333L9.76562-62.9527C9.76562-62.1646 9.91553-61.624 10.4038-60.937L17.9292-50.1128C18.6162-49.1294 19.0137-48.4878 19.1602-46.8208C19.4566-42.9292 20.3389-35.6479 21.8696-30.3369L12.1265-16.8066C11.6348-16.1162 11.4849-15.4292 11.4849-14.7388L11.4849 3.60745C11.4849 5.52884 13.0122 7.1016 14.9756 7.1016ZM31.3936-58.6416C35.6236-58.6416 39.0235-61.9961 39.0235-66.2329C39.0235-70.4663 35.6236-73.8628 31.3936-73.8628C27.1533-73.8628 23.8023-70.4663 23.8023-66.2329C23.8023-61.9961 27.1533-58.6416 31.3936-58.6416Z"/>
  </g>
 </g>
</svg>
